<svg xmlns="http://www.w3.org/2000/svg" width="480.158" height="894.056"><defs><style>@font-face{font-family:&quot;Virgil&quot;;src:url(https://excalidraw.com/Virgil.woff2)}@font-face{font-family:&quot;Cascadia&quot;;src:url(https://excalidraw.com/Cascadia.woff2)}@font-face{font-family:&quot;Assistant&quot;;src:url(https://excalidraw.com/Assistant-Regular.woff2)}</style></defs><g stroke-linecap="round"><path fill="#b2f2bb" stroke-width="0" d="M303.125 510.646h28.06v27.1h-28.06"/><path fill="none" stroke="transparent" stroke-width="4" d="M303.125 510.646h28.06m-28.06 0h28.06m0 0v27.1m0-27.1v27.1m0 0h-28.06m28.06 0h-28.06m0 0v-27.1m0 27.1v-27.1"/></g><g stroke-linecap="round"><path fill="#ffec99" stroke-width="0" d="M226.555 509.514h54.24v27.1h-54.24"/><path fill="none" stroke="transparent" stroke-width="4" d="M226.555 509.514h54.24m-54.24 0h54.24m0 0v27.1m0-27.1v27.1m0 0h-54.24m54.24 0h-54.24m0 0v-27.1m0 27.1v-27.1"/></g><g stroke-linecap="round"><path fill="#b2f2bb" stroke-width="0" d="M137.324 514.739h31.03v50.69h-31.03"/><path fill="none" stroke="transparent" stroke-width="4" d="M137.324 514.739h31.03m-31.03 0h31.03m0 0v50.69m0-50.69v50.69m0 0h-31.03m31.03 0h-31.03m0 0v-50.69m0 50.69v-50.69"/></g><g stroke-linecap="round"><path fill="#b2f2bb" stroke-width="0" d="M302.38 114.313h17.09v27.1h-17.09"/><path fill="none" stroke="transparent" stroke-width="4" d="M302.38 114.313h17.09m-17.09 0h17.09m0 0v27.1m0-27.1v27.1m0 0h-17.09m17.09 0h-17.09m0 0v-27.1m0 27.1v-27.1"/></g><g stroke-linecap="round"><path fill="#ffec99" stroke-width="0" d="M228.12 114.07h54.24v27.1h-54.24"/><path fill="none" stroke="transparent" stroke-width="4" d="M228.12 114.07h54.24m-54.24 0h54.24m0 0v27.1m0-27.1v27.1m0 0h-54.24m54.24 0h-54.24m0 0v-27.1m0 27.1v-27.1"/></g><g stroke-linecap="round"><path fill="#b2f2bb" stroke-width="0" d="M165.826 224.243h32.41v48.24h-32.41"/><path fill="none" stroke="transparent" stroke-width="4" d="M165.826 224.243h32.41m-32.41 0h32.41m0 0v48.24m0-48.24v48.24m0 0h-32.41m32.41 0h-32.41m0 0v-48.24m0 48.24v-48.24"/></g><g stroke-linecap="round"><path fill="#ffec99" stroke-width="0" d="M166.293 88.182h32.41v116.75h-32.41"/><path fill="none" stroke="transparent" stroke-width="4" d="M166.293 88.182h32.41m-32.41 0h32.41m0 0v116.75m0-116.75v116.75m0 0h-32.41m32.41 0h-32.41m0 0V88.182m0 116.75V88.182"/></g><text y="51.909" fill="#1e1e1e" dominant-baseline="alphabetic" font-family="Helvetica, Segoe UI Emoji" font-size="56.422" style="white-space:pre" transform="translate(88.199 80.212)">   10</text><text y="116.794" fill="#1e1e1e" dominant-baseline="alphabetic" font-family="Helvetica, Segoe UI Emoji" font-size="56.422" style="white-space:pre" transform="translate(88.199 80.212)">+ 10</text><path fill="none" stroke="#1e1e1e" stroke-linecap="round" stroke-width="4" d="M79.515 219.432h124.96m-124.96 0h124.96"/><text y="52.03" fill="#1e1e1e" dominant-baseline="alphabetic" font-family="Helvetica, Segoe UI Emoji" font-size="56.553" style="white-space:pre" transform="translate(167.239 213.922)">0</text><text y="51.909" fill="#1e1e1e" dominant-baseline="alphabetic" font-family="Helvetica, Segoe UI Emoji" font-size="56.422" style="white-space:pre" transform="translate(79.522 664.919)">   10</text><text y="116.794" fill="#1e1e1e" dominant-baseline="alphabetic" font-family="Helvetica, Segoe UI Emoji" font-size="56.422" style="white-space:pre" transform="translate(79.522 664.919)">+ 10</text><g stroke-linecap="round"><path fill="none" stroke="#1971c2" stroke-width="4" d="M96.56 672.273v67.86m0-67.86v67.86"/><path fill="#1971c2" fill-rule="evenodd" stroke-width="0" d="m96.56 740.133-6.34-13.6h12.68z"/><path fill="none" stroke="#1971c2" stroke-width="4" d="m96.56 740.133-6.34-13.6m6.34 13.6c-2.45-5.27-4.91-10.53-6.34-13.6m0 0h12.68m-12.68 0h12.68m0 0c-1.69 3.61-3.37 7.22-6.34 13.6m6.34-13.6c-2.31 4.95-4.62 9.9-6.34 13.6m0 0q0 0 0 0m0 0q0 0 0 0"/></g><path fill="none" stroke="#1e1e1e" stroke-linecap="round" stroke-width="4" d="M79.638 804.136h124.96m-124.96 0h124.96"/><text y="52.03" fill="#1e1e1e" dominant-baseline="alphabetic" font-family="Helvetica, Segoe UI Emoji" font-size="56.553" style="white-space:pre" transform="translate(79.638 615.342)">1</text><text y="52.03" fill="#1e1e1e" dominant-baseline="alphabetic" font-family="Helvetica, Segoe UI Emoji" font-size="56.553" style="white-space:pre" transform="translate(162.842 799.054)">0</text><text y="52.03" fill="#1e1e1e" dominant-baseline="alphabetic" font-family="Helvetica, Segoe UI Emoji" font-size="56.553" style="white-space:pre" transform="translate(130.206 800.484)">0</text><g stroke-linecap="round"><path fill="#b2f2bb" stroke-width="0" d="M99.827 320.063h33.35v61.3h-33.35"/><path fill="none" stroke="transparent" stroke-width="4" d="M99.827 320.063h33.35m-33.35 0h33.35m0 0v61.3m0-61.3v61.3m0 0h-33.35m33.35 0h-33.35m0 0v-61.3m0 61.3v-61.3"/></g><text y="20.14" fill="#1971c2" dominant-baseline="alphabetic" font-family="Helvetica, Segoe UI Emoji" font-size="21.891" style="white-space:pre" transform="translate(230.075 89.59)">Add right column.</text><text y="45.315" fill="#1971c2" dominant-baseline="alphabetic" font-family="Helvetica, Segoe UI Emoji" font-size="21.891" style="white-space:pre" transform="translate(230.075 89.59)">0 + 0 = 0</text><path fill="none" stroke="#000" stroke-linecap="round" stroke-width="4" d="M10.057 301.427h459.91m-459.91 0h459.91m0 0v291.28m0-291.28v291.28m0 0H10.057m459.91 0H10.057m0 0v-291.28m0 291.28v-291.28"/><text y="20.14" fill="#1971c2" dominant-baseline="alphabetic" font-family="Helvetica, Segoe UI Emoji" font-size="21.891" style="white-space:pre" transform="translate(230.131 333.838)">Add next column.</text><text y="45.315" fill="#1971c2" dominant-baseline="alphabetic" font-family="Helvetica, Segoe UI Emoji" font-size="21.891" style="white-space:pre" transform="translate(230.131 333.838)">When the penguin</text><text y="70.49" fill="#1971c2" dominant-baseline="alphabetic" font-family="Helvetica, Segoe UI Emoji" font-size="21.891" style="white-space:pre" transform="translate(230.131 333.838)">uses 1 flipper and</text><text y="95.665" fill="#1971c2" dominant-baseline="alphabetic" font-family="Helvetica, Segoe UI Emoji" font-size="21.891" style="white-space:pre" transform="translate(230.131 333.838)">counts with its next</text><text y="120.84" fill="#1971c2" dominant-baseline="alphabetic" font-family="Helvetica, Segoe UI Emoji" font-size="21.891" style="white-space:pre" transform="translate(230.131 333.838)">flipper, it&apos;s out of</text><text y="146.014" fill="#1971c2" dominant-baseline="alphabetic" font-family="Helvetica, Segoe UI Emoji" font-size="21.891" style="white-space:pre" transform="translate(230.131 333.838)">counting flippers.</text><text y="171.189" fill="#1971c2" dominant-baseline="alphabetic" font-family="Helvetica, Segoe UI Emoji" font-size="21.891" style="white-space:pre" transform="translate(230.131 333.838)">Therefore,</text><text y="196.364" fill="#1971c2" dominant-baseline="alphabetic" font-family="Helvetica, Segoe UI Emoji" font-size="21.891" style="white-space:pre" transform="translate(230.131 333.838)">1 + 1 = 10, so we</text><text y="221.539" fill="#1971c2" dominant-baseline="alphabetic" font-family="Helvetica, Segoe UI Emoji" font-size="21.891" style="white-space:pre" transform="translate(230.131 333.838)">carry over the 1.</text><path fill="none" stroke="#000" stroke-linecap="round" stroke-width="4" d="M10 10h459.91M10 10h459.91m0 0v291.28m0-291.28v291.28m0 0H10m459.91 0H10m0 0V10m0 291.28V10M10.248 592.779h459.91m-459.91 0h459.91m0 0v291.28m0-291.28v291.28m0 0H10.248m459.91 0H10.248m0 0v-291.28m0 291.28v-291.28"/><text y="20.14" fill="#1971c2" dominant-baseline="alphabetic" font-family="Helvetica, Segoe UI Emoji" font-size="21.891" style="white-space:pre" transform="translate(231.788 677.288)">Bring down the 1.</text><g stroke-linecap="round"><path fill="#ffec99" stroke-width="0" d="M135.331 379.957h32.41v119.21h-32.41"/><path fill="none" stroke="transparent" stroke-width="4" d="M135.331 379.957h32.41m-32.41 0h32.41m0 0v119.21m0-119.21v119.21m0 0h-32.41m32.41 0h-32.41m0 0v-119.21m0 119.21v-119.21"/></g><text y="51.909" fill="#1e1e1e" dominant-baseline="alphabetic" font-family="Helvetica, Segoe UI Emoji" font-size="56.422" style="white-space:pre" transform="translate(88.284 370.524)">   10</text><text y="116.794" fill="#1e1e1e" dominant-baseline="alphabetic" font-family="Helvetica, Segoe UI Emoji" font-size="56.422" style="white-space:pre" transform="translate(88.284 370.524)">+ 10</text><path fill="none" stroke="#1e1e1e" stroke-linecap="round" stroke-width="4" d="M79.8 509.74h124.96m-124.96 0h124.96"/><text y="52.03" fill="#1e1e1e" dominant-baseline="alphabetic" font-family="Helvetica, Segoe UI Emoji" font-size="56.553" style="white-space:pre" transform="translate(167.965 507.072)">0</text><text y="52.03" fill="#1e1e1e" dominant-baseline="alphabetic" font-family="Helvetica, Segoe UI Emoji" font-size="56.553" style="white-space:pre" transform="translate(100.195 320.947)">1</text><text y="52.03" fill="#1e1e1e" dominant-baseline="alphabetic" font-family="Helvetica, Segoe UI Emoji" font-size="56.553" style="white-space:pre" transform="translate(137.584 508.589)">0</text><text y="52.03" fill="#1e1e1e" dominant-baseline="alphabetic" font-family="Helvetica, Segoe UI Emoji" font-size="56.553" style="white-space:pre" transform="translate(100.992 800.864)">1</text></svg>