<svg xmlns="http://www.w3.org/2000/svg" width="480.158" height="894.056"><defs><style>@font-face{font-family:&quot;Virgil&quot;;src:url(https://excalidraw.com/Virgil.woff2)}@font-face{font-family:&quot;Cascadia&quot;;src:url(https://excalidraw.com/Cascadia.woff2)}@font-face{font-family:&quot;Assistant&quot;;src:url(https://excalidraw.com/Assistant-Regular.woff2)}</style></defs><g stroke-linecap="round"><path fill="#b2f2bb" stroke-width="0" d="M64.62 320.126h32.41v54.2H64.62"/><path fill="none" stroke="transparent" stroke-width="4" d="M64.62 320.126h32.41m-32.41 0h32.41m0 0v54.2m0-54.2v54.2m0 0H64.62m32.41 0H64.62m0 0v-54.2m0 54.2v-54.2"/></g><text y="52.03" fill="#1e1e1e" dominant-baseline="alphabetic" font-family="Helvetica, Segoe UI Emoji" font-size="56.553" style="white-space:pre" transform="translate(64.936 314.071)">1</text><g stroke-linecap="round"><path fill="#b2f2bb" stroke-width="0" d="M281.629 393.818h29.68v27.1h-29.68"/><path fill="none" stroke="transparent" stroke-width="4" d="M281.629 393.818h29.68m-29.68 0h29.68m0 0v27.1m0-27.1v27.1m0 0h-29.68m29.68 0h-29.68m0 0v-27.1m0 27.1v-27.1"/></g><g stroke-linecap="round"><path fill="#ffec99" stroke-width="0" d="M205.888 393.18h54.24v27.1h-54.24"/><path fill="none" stroke="transparent" stroke-width="4" d="M205.888 393.18h54.24m-54.24 0h54.24m0 0v27.1m0-27.1v27.1m0 0h-54.24m54.24 0h-54.24m0 0v-27.1m0 27.1v-27.1"/></g><g stroke-linecap="round"><path fill="#ffec99" stroke-width="0" d="M102.113 319.763h32.41v117.4h-32.41"/><path fill="none" stroke="transparent" stroke-width="4" d="M102.113 319.763h32.41m-32.41 0h32.41m0 0v117.4m0-117.4v117.4m0 0h-32.41m32.41 0h-32.41m0 0v-117.4m0 117.4v-117.4"/></g><g stroke-linecap="round"><path fill="#b2f2bb" stroke-width="0" d="M102.217 518.723h32.41v54.2h-32.41"/><path fill="none" stroke="transparent" stroke-width="4" d="M102.217 518.723h32.41m-32.41 0h32.41m0 0v54.2m0-54.2v54.2m0 0h-32.41m32.41 0h-32.41m0 0v-54.2m0 54.2v-54.2"/></g><text y="52.03" fill="#1e1e1e" dominant-baseline="alphabetic" font-family="Helvetica, Segoe UI Emoji" font-size="56.553" style="white-space:pre" transform="translate(88.175 375.908)"> 99</text><text y="117.067" fill="#1e1e1e" dominant-baseline="alphabetic" font-family="Helvetica, Segoe UI Emoji" font-size="56.553" style="white-space:pre" transform="translate(88.175 375.908)">+ 1</text><path fill="none" stroke="#1e1e1e" stroke-linecap="round" stroke-width="4" d="M79.69 515.125H181.8m-102.11 0H181.8"/><text y="52.03" fill="#1e1e1e" dominant-baseline="alphabetic" font-family="Helvetica, Segoe UI Emoji" font-size="56.553" style="white-space:pre" transform="translate(141.08 512.252)">0</text><text y="52.03" fill="#1e1e1e" dominant-baseline="alphabetic" font-family="Helvetica, Segoe UI Emoji" font-size="56.553" style="white-space:pre" transform="translate(100.519 314.569)">1</text><g stroke-linecap="round"><path fill="#b2f2bb" stroke-width="0" d="M137.364 223.744h31.94v50.09h-31.94"/><path fill="none" stroke="transparent" stroke-width="4" d="M137.364 223.744h31.94m-31.94 0h31.94m0 0v50.09m0-50.09v50.09m0 0h-31.94m31.94 0h-31.94m0 0v-50.09m0 50.09v-50.09"/></g><g stroke-linecap="round"><path fill="#b2f2bb" stroke-width="0" d="M101.59 28.055h31.94v59.21h-31.94"/><path fill="none" stroke="transparent" stroke-width="4" d="M101.59 28.055h31.94m-31.94 0h31.94m0 0v59.21m0-59.21v59.21m0 0h-31.94m31.94 0h-31.94m0 0v-59.21m0 59.21v-59.21"/></g><text y="52.03" fill="#1e1e1e" dominant-baseline="alphabetic" font-family="Helvetica, Segoe UI Emoji" font-size="56.553" style="white-space:pre" transform="translate(103.07 26.213)">1</text><text y="52.03" fill="#1e1e1e" dominant-baseline="alphabetic" font-family="Helvetica, Segoe UI Emoji" font-size="56.553" style="white-space:pre" transform="translate(138.845 214.08)">0</text><g stroke-linecap="round"><path fill="#ffec99" stroke-width="0" d="M208.461 81.432h54.24v27.1h-54.24"/><path fill="none" stroke="transparent" stroke-width="4" d="M208.461 81.432h54.24m-54.24 0h54.24m0 0v27.1m0-27.1v27.1m0 0h-54.24m54.24 0h-54.24m0 0v-27.1m0 27.1v-27.1"/></g><g stroke-linecap="round"><path fill="#b2f2bb" stroke-width="0" d="M282.9 81.535h29.68v27.1H282.9"/><path fill="none" stroke="transparent" stroke-width="4" d="M282.9 81.535h29.68m-29.68 0h29.68m0 0v27.1m0-27.1v27.1m0 0H282.9m29.68 0H282.9m0 0v-27.1m0 27.1v-27.1"/></g><text y="52.03" fill="#1e1e1e" dominant-baseline="alphabetic" font-family="Helvetica, Segoe UI Emoji" font-size="56.553" style="white-space:pre" transform="translate(86.79 665.734)"> 99</text><text y="117.067" fill="#1e1e1e" dominant-baseline="alphabetic" font-family="Helvetica, Segoe UI Emoji" font-size="56.553" style="white-space:pre" transform="translate(86.79 665.734)">+ 1</text><path fill="none" stroke="#1e1e1e" stroke-linecap="round" stroke-width="4" d="M78.306 804.952h102.11m-102.11 0h102.11"/><text y="52.03" fill="#1e1e1e" dominant-baseline="alphabetic" font-family="Helvetica, Segoe UI Emoji" font-size="56.553" style="white-space:pre" transform="translate(139.695 801.117)">0</text><g stroke-linecap="round"><path fill="#ffec99" stroke-width="0" d="M137.16 88.321h32.41v121.07h-32.41"/><path fill="none" stroke="transparent" stroke-width="4" d="M137.16 88.321h32.41m-32.41 0h32.41m0 0v121.07m0-121.07v121.07m0 0h-32.41m32.41 0h-32.41m0 0V88.321m0 121.07V88.321"/></g><text y="52.03" fill="#1e1e1e" dominant-baseline="alphabetic" font-family="Helvetica, Segoe UI Emoji" font-size="56.553" style="white-space:pre" transform="translate(88.196 80.257)"> 99</text><text y="117.067" fill="#1e1e1e" dominant-baseline="alphabetic" font-family="Helvetica, Segoe UI Emoji" font-size="56.553" style="white-space:pre" transform="translate(88.196 80.257)">+ 1</text><path fill="none" stroke="#1e1e1e" stroke-linecap="round" stroke-width="4" d="M79.638 219.373h102.11m-102.11 0h102.11"/><path fill="none" stroke="#000" stroke-linecap="round" stroke-width="4" d="M10.057 301.427h459.91m-459.91 0h459.91m0 0v291.28m0-291.28v291.28m0 0H10.057m459.91 0H10.057m0 0v-291.28m0 291.28v-291.28"/><text y="20.14" fill="#1971c2" dominant-baseline="alphabetic" font-family="Helvetica, Segoe UI Emoji" font-size="21.891" style="white-space:pre" transform="translate(209.495 344.336)">Add next column.</text><text y="45.315" fill="#1971c2" dominant-baseline="alphabetic" font-family="Helvetica, Segoe UI Emoji" font-size="21.891" style="white-space:pre" transform="translate(209.495 344.336)">Once again,</text><text y="70.49" fill="#1971c2" dominant-baseline="alphabetic" font-family="Helvetica, Segoe UI Emoji" font-size="21.891" style="white-space:pre" transform="translate(209.495 344.336)">9 + 1 = 10, so we</text><text y="95.665" fill="#1971c2" dominant-baseline="alphabetic" font-family="Helvetica, Segoe UI Emoji" font-size="21.891" style="white-space:pre" transform="translate(209.495 344.336)">carry over the 1</text><text y="120.84" fill="#1971c2" dominant-baseline="alphabetic" font-family="Helvetica, Segoe UI Emoji" font-size="21.891" style="white-space:pre" transform="translate(209.495 344.336)">to the next column.</text><path fill="none" stroke="#000" stroke-linecap="round" stroke-width="4" d="M10 10h459.91M10 10h459.91m0 0v291.28m0-291.28v291.28m0 0H10m459.91 0H10m0 0V10m0 291.28V10M10.248 592.779h459.91m-459.91 0h459.91m0 0v291.28m0-291.28v291.28m0 0H10.248m459.91 0H10.248m0 0v-291.28m0 291.28v-291.28"/><text y="52.03" fill="#1e1e1e" dominant-baseline="alphabetic" font-family="Helvetica, Segoe UI Emoji" font-size="56.553" style="white-space:pre" transform="translate(103.915 511.897)">0</text><text y="52.03" fill="#1e1e1e" dominant-baseline="alphabetic" font-family="Helvetica, Segoe UI Emoji" font-size="56.553" style="white-space:pre" transform="translate(102.762 801.117)">0</text><text y="52.03" fill="#1e1e1e" dominant-baseline="alphabetic" font-family="Helvetica, Segoe UI Emoji" font-size="56.553" style="white-space:pre" transform="translate(69.41 604.47)">1</text><text y="52.03" fill="#1e1e1e" dominant-baseline="alphabetic" font-family="Helvetica, Segoe UI Emoji" font-size="56.553" style="white-space:pre" transform="translate(72.707 801.461)">1</text><g stroke-linecap="round"><path fill="none" stroke="#1971c2" stroke-width="4" d="M86.41 666.375v125.95m0-125.95v125.95"/><path fill="#1971c2" fill-rule="evenodd" stroke-width="0" d="m86.41 792.325-6.34-13.6h12.68z"/><path fill="none" stroke="#1971c2" stroke-width="4" d="M86.41 792.325c-2.32-4.98-4.64-9.96-6.34-13.6m6.34 13.6c-1.47-3.16-2.94-6.31-6.34-13.6m0 0h12.68m-12.68 0h12.68m0 0-6.34 13.6m6.34-13.6c-1.49 3.18-2.97 6.37-6.34 13.6m0 0q0 0 0 0m0 0q0 0 0 0"/></g><text y="20.14" fill="#1971c2" dominant-baseline="alphabetic" font-family="Helvetica, Segoe UI Emoji" font-size="21.891" style="white-space:pre" transform="translate(209.495 679.35)">Bring down the 1.</text><text y="20.14" fill="#1971c2" dominant-baseline="alphabetic" font-family="Helvetica, Segoe UI Emoji" font-size="21.891" style="white-space:pre" transform="translate(209.869 55.768)">Add right column.</text><text y="45.315" fill="#1971c2" dominant-baseline="alphabetic" font-family="Helvetica, Segoe UI Emoji" font-size="21.891" style="white-space:pre" transform="translate(209.869 55.768)">9 + 1 = 10, so we</text><text y="70.49" fill="#1971c2" dominant-baseline="alphabetic" font-family="Helvetica, Segoe UI Emoji" font-size="21.891" style="white-space:pre" transform="translate(209.869 55.768)">carry over the 1</text><text y="95.665" fill="#1971c2" dominant-baseline="alphabetic" font-family="Helvetica, Segoe UI Emoji" font-size="21.891" style="white-space:pre" transform="translate(209.869 55.768)">to the next column.</text></svg>