<svg version="1.1" xmlns="http://www.w3.org/2000/svg" viewBox="0 0 1246.2766697085885 578.0299201282146" width="1246.2766697085885" height="578.0299201282146">
  <!-- svg-source:excalidraw -->
  
  <defs>
    <style class="style-fonts">
      @font-face {
        font-family: "Virgil";
        src: url("https://excalidraw.com/Virgil.woff2");
      }
      @font-face {
        font-family: "Cascadia";
        src: url("https://excalidraw.com/Cascadia.woff2");
      }
      @font-face {
        font-family: "Assistant";
        src: url("https://excalidraw.com/Assistant-Regular.woff2");
      }
    </style>
    
  </defs>
  <g stroke-linecap="round" transform="translate(733.7387822850219 257.9692186571365) rotate(0 94.3451724380119 94.34517243801179)"><path d="M188.69 94.35 C188.69 97.43, 188.54 100.52, 188.24 103.59 C187.93 106.66, 187.48 109.73, 186.88 112.75 C186.28 115.77, 185.52 118.78, 184.63 121.73 C183.73 124.68, 182.69 127.6, 181.51 130.45 C180.33 133.3, 179 136.1, 177.55 138.82 C176.1 141.54, 174.5 144.2, 172.79 146.76 C171.08 149.32, 169.23 151.81, 167.27 154.2 C165.32 156.58, 163.24 158.88, 161.06 161.06 C158.88 163.24, 156.58 165.32, 154.2 167.27 C151.81 169.23, 149.32 171.08, 146.76 172.79 C144.2 174.5, 141.54 176.1, 138.82 177.55 C136.1 179, 133.3 180.33, 130.45 181.51 C127.6 182.69, 124.68 183.73, 121.73 184.63 C118.78 185.52, 115.77 186.28, 112.75 186.88 C109.73 187.48, 106.66 187.93, 103.59 188.24 C100.52 188.54, 97.43 188.69, 94.35 188.69 C91.26 188.69, 88.17 188.54, 85.1 188.24 C82.03 187.93, 78.96 187.48, 75.94 186.88 C72.92 186.28, 69.91 185.52, 66.96 184.63 C64.01 183.73, 61.09 182.69, 58.24 181.51 C55.39 180.33, 52.59 179, 49.87 177.55 C47.15 176.1, 44.49 174.5, 41.93 172.79 C39.37 171.08, 36.88 169.23, 34.49 167.27 C32.11 165.32, 29.81 163.24, 27.63 161.06 C25.45 158.88, 23.37 156.58, 21.42 154.2 C19.46 151.81, 17.61 149.32, 15.9 146.76 C14.19 144.2, 12.59 141.54, 11.14 138.82 C9.69 136.1, 8.36 133.3, 7.18 130.45 C6 127.6, 4.96 124.68, 4.06 121.73 C3.17 118.78, 2.41 115.77, 1.81 112.75 C1.21 109.73, 0.76 106.66, 0.45 103.59 C0.15 100.52, 0 97.43, 0 94.35 C0 91.26, 0.15 88.17, 0.45 85.1 C0.76 82.03, 1.21 78.96, 1.81 75.94 C2.41 72.92, 3.17 69.91, 4.06 66.96 C4.96 64.01, 6 61.09, 7.18 58.24 C8.36 55.39, 9.69 52.59, 11.14 49.87 C12.59 47.15, 14.19 44.49, 15.9 41.93 C17.61 39.37, 19.46 36.88, 21.42 34.49 C23.37 32.11, 25.45 29.81, 27.63 27.63 C29.81 25.45, 32.11 23.37, 34.49 21.42 C36.88 19.46, 39.37 17.61, 41.93 15.9 C44.49 14.19, 47.15 12.59, 49.87 11.14 C52.59 9.69, 55.39 8.36, 58.24 7.18 C61.09 6, 64.01 4.96, 66.96 4.06 C69.91 3.17, 72.92 2.41, 75.94 1.81 C78.96 1.21, 82.03 0.76, 85.1 0.45 C88.17 0.15, 91.26 0, 94.35 0 C97.43 0, 100.52 0.15, 103.59 0.45 C106.66 0.76, 109.73 1.21, 112.75 1.81 C115.77 2.41, 118.78 3.17, 121.73 4.06 C124.68 4.96, 127.6 6, 130.45 7.18 C133.3 8.36, 136.1 9.69, 138.82 11.14 C141.54 12.59, 144.2 14.19, 146.76 15.9 C149.32 17.61, 151.81 19.46, 154.2 21.42 C156.58 23.37, 158.88 25.45, 161.06 27.63 C163.24 29.81, 165.32 32.11, 167.27 34.49 C169.23 36.88, 171.08 39.37, 172.79 41.93 C174.5 44.49, 176.1 47.15, 177.55 49.87 C179 52.59, 180.33 55.39, 181.51 58.24 C182.69 61.09, 183.73 64.01, 184.63 66.96 C185.52 69.91, 186.28 72.92, 186.88 75.94 C187.48 78.96, 187.93 82.03, 188.24 85.1 C188.54 88.17, 188.61 92.8, 188.69 94.35 C188.77 95.89, 188.77 92.8, 188.69 94.35" stroke="none" stroke-width="0" fill="#000000"></path><path d="M188.69 94.35 C188.69 97.43, 188.54 100.52, 188.24 103.59 C187.93 106.66, 187.48 109.73, 186.88 112.75 C186.28 115.77, 185.52 118.78, 184.63 121.73 C183.73 124.68, 182.69 127.6, 181.51 130.45 C180.33 133.3, 179 136.1, 177.55 138.82 C176.1 141.54, 174.5 144.2, 172.79 146.76 C171.08 149.32, 169.23 151.81, 167.27 154.2 C165.32 156.58, 163.24 158.88, 161.06 161.06 C158.88 163.24, 156.58 165.32, 154.2 167.27 C151.81 169.23, 149.32 171.08, 146.76 172.79 C144.2 174.5, 141.54 176.1, 138.82 177.55 C136.1 179, 133.3 180.33, 130.45 181.51 C127.6 182.69, 124.68 183.73, 121.73 184.63 C118.78 185.52, 115.77 186.28, 112.75 186.88 C109.73 187.48, 106.66 187.93, 103.59 188.24 C100.52 188.54, 97.43 188.69, 94.35 188.69 C91.26 188.69, 88.17 188.54, 85.1 188.24 C82.03 187.93, 78.96 187.48, 75.94 186.88 C72.92 186.28, 69.91 185.52, 66.96 184.63 C64.01 183.73, 61.09 182.69, 58.24 181.51 C55.39 180.33, 52.59 179, 49.87 177.55 C47.15 176.1, 44.49 174.5, 41.93 172.79 C39.37 171.08, 36.88 169.23, 34.49 167.27 C32.11 165.32, 29.81 163.24, 27.63 161.06 C25.45 158.88, 23.37 156.58, 21.42 154.2 C19.46 151.81, 17.61 149.32, 15.9 146.76 C14.19 144.2, 12.59 141.54, 11.14 138.82 C9.69 136.1, 8.36 133.3, 7.18 130.45 C6 127.6, 4.96 124.68, 4.06 121.73 C3.17 118.78, 2.41 115.77, 1.81 112.75 C1.21 109.73, 0.76 106.66, 0.45 103.59 C0.15 100.52, 0 97.43, 0 94.35 C0 91.26, 0.15 88.17, 0.45 85.1 C0.76 82.03, 1.21 78.96, 1.81 75.94 C2.41 72.92, 3.17 69.91, 4.06 66.96 C4.96 64.01, 6 61.09, 7.18 58.24 C8.36 55.39, 9.69 52.59, 11.14 49.87 C12.59 47.15, 14.19 44.49, 15.9 41.93 C17.61 39.37, 19.46 36.88, 21.42 34.49 C23.37 32.11, 25.45 29.81, 27.63 27.63 C29.81 25.45, 32.11 23.37, 34.49 21.42 C36.88 19.46, 39.37 17.61, 41.93 15.9 C44.49 14.19, 47.15 12.59, 49.87 11.14 C52.59 9.69, 55.39 8.36, 58.24 7.18 C61.09 6, 64.01 4.96, 66.96 4.06 C69.91 3.17, 72.92 2.41, 75.94 1.81 C78.96 1.21, 82.03 0.76, 85.1 0.45 C88.17 0.15, 91.26 0, 94.35 0 C97.43 0, 100.52 0.15, 103.59 0.45 C106.66 0.76, 109.73 1.21, 112.75 1.81 C115.77 2.41, 118.78 3.17, 121.73 4.06 C124.68 4.96, 127.6 6, 130.45 7.18 C133.3 8.36, 136.1 9.69, 138.82 11.14 C141.54 12.59, 144.2 14.19, 146.76 15.9 C149.32 17.61, 151.81 19.46, 154.2 21.42 C156.58 23.37, 158.88 25.45, 161.06 27.63 C163.24 29.81, 165.32 32.11, 167.27 34.49 C169.23 36.88, 171.08 39.37, 172.79 41.93 C174.5 44.49, 176.1 47.15, 177.55 49.87 C179 52.59, 180.33 55.39, 181.51 58.24 C182.69 61.09, 183.73 64.01, 184.63 66.96 C185.52 69.91, 186.28 72.92, 186.88 75.94 C187.48 78.96, 187.93 82.03, 188.24 85.1 C188.54 88.17, 188.61 92.8, 188.69 94.35 C188.77 95.89, 188.77 92.8, 188.69 94.35" stroke="transparent" stroke-width="4" fill="none"></path></g><g stroke-linecap="round" transform="translate(734.436066598297 306.3248086157432) rotate(0 93.28622194227131 98.11077893924858)"><path d="M32 0 C64.94 0, 97.87 0, 154.57 0 C175.91 0, 186.57 10.67, 186.57 32 C186.57 63.87, 186.57 95.73, 186.57 164.22 C186.57 185.55, 175.91 196.22, 154.57 196.22 C115.87 196.22, 77.17 196.22, 32 196.22 C10.67 196.22, 0 185.55, 0 164.22 C0 126.37, 0 88.53, 0 32 C0 10.67, 10.67 0, 32 0" stroke="none" stroke-width="0" fill="#000000"></path><path d="M32 0 C70.79 0, 109.58 0, 154.57 0 M32 0 C71.1 0, 110.2 0, 154.57 0 M154.57 0 C175.91 0, 186.57 10.67, 186.57 32 M154.57 0 C175.91 0, 186.57 10.67, 186.57 32 M186.57 32 C186.57 69.43, 186.57 106.85, 186.57 164.22 M186.57 32 C186.57 59.22, 186.57 86.44, 186.57 164.22 M186.57 164.22 C186.57 185.55, 175.91 196.22, 154.57 196.22 M186.57 164.22 C186.57 185.55, 175.91 196.22, 154.57 196.22 M154.57 196.22 C124.96 196.22, 95.34 196.22, 32 196.22 M154.57 196.22 C105.62 196.22, 56.67 196.22, 32 196.22 M32 196.22 C10.67 196.22, 0 185.55, 0 164.22 M32 196.22 C10.67 196.22, 0 185.55, 0 164.22 M0 164.22 C0 116.94, 0 69.65, 0 32 M0 164.22 C0 115.06, 0 65.9, 0 32 M0 32 C0 10.67, 10.67 0, 32 0 M0 32 C0 10.67, 10.67 0, 32 0" stroke="transparent" stroke-width="4" fill="none"></path></g><g stroke-linecap="round" transform="translate(734.5452835233436 365.4582338185219) rotate(0 93.72968883647445 94.34517243801179)"><path d="M187.46 94.35 C187.46 97.43, 187.31 100.52, 187.01 103.59 C186.71 106.66, 186.26 109.73, 185.66 112.75 C185.06 115.77, 184.31 118.78, 183.42 121.73 C182.53 124.68, 181.5 127.6, 180.32 130.45 C179.15 133.3, 177.84 136.1, 176.39 138.82 C174.95 141.54, 173.36 144.2, 171.66 146.76 C169.96 149.32, 168.13 151.81, 166.18 154.2 C164.24 156.58, 162.17 158.88, 160.01 161.06 C157.84 163.24, 155.56 165.32, 153.19 167.27 C150.82 169.23, 148.35 171.08, 145.8 172.79 C143.26 174.5, 140.61 176.1, 137.91 177.55 C135.21 179, 132.43 180.33, 129.6 181.51 C126.77 182.69, 123.87 183.73, 120.94 184.63 C118.01 185.52, 115.02 186.28, 112.02 186.88 C109.01 187.48, 105.96 187.93, 102.92 188.24 C99.87 188.54, 96.79 188.69, 93.73 188.69 C90.67 188.69, 87.59 188.54, 84.54 188.24 C81.49 187.93, 78.45 187.48, 75.44 186.88 C72.44 186.28, 69.45 185.52, 66.52 184.63 C63.59 183.73, 60.69 182.69, 57.86 181.51 C55.03 180.33, 52.25 179, 49.55 177.55 C46.85 176.1, 44.2 174.5, 41.66 172.79 C39.11 171.08, 36.64 169.23, 34.27 167.27 C31.9 165.32, 29.62 163.24, 27.45 161.06 C25.29 158.88, 23.22 156.58, 21.28 154.2 C19.33 151.81, 17.5 149.32, 15.8 146.76 C14.09 144.2, 12.51 141.54, 11.07 138.82 C9.62 136.1, 8.31 133.3, 7.13 130.45 C5.96 127.6, 4.92 124.68, 4.04 121.73 C3.15 118.78, 2.4 115.77, 1.8 112.75 C1.2 109.73, 0.75 106.66, 0.45 103.59 C0.15 100.52, 0 97.43, 0 94.35 C0 91.26, 0.15 88.17, 0.45 85.1 C0.75 82.03, 1.2 78.96, 1.8 75.94 C2.4 72.92, 3.15 69.91, 4.04 66.96 C4.92 64.01, 5.96 61.09, 7.13 58.24 C8.31 55.39, 9.62 52.59, 11.07 49.87 C12.51 47.15, 14.09 44.49, 15.8 41.93 C17.5 39.37, 19.33 36.88, 21.28 34.49 C23.22 32.11, 25.29 29.81, 27.45 27.63 C29.62 25.45, 31.9 23.37, 34.27 21.42 C36.64 19.46, 39.11 17.61, 41.66 15.9 C44.2 14.19, 46.85 12.59, 49.55 11.14 C52.25 9.69, 55.03 8.36, 57.86 7.18 C60.69 6, 63.59 4.96, 66.52 4.06 C69.45 3.17, 72.44 2.41, 75.44 1.81 C78.45 1.21, 81.49 0.76, 84.54 0.45 C87.59 0.15, 90.67 0, 93.73 0 C96.79 0, 99.87 0.15, 102.92 0.45 C105.96 0.76, 109.01 1.21, 112.02 1.81 C115.02 2.41, 118.01 3.17, 120.94 4.06 C123.87 4.96, 126.77 6, 129.6 7.18 C132.43 8.36, 135.21 9.69, 137.91 11.14 C140.61 12.59, 143.26 14.19, 145.8 15.9 C148.35 17.61, 150.82 19.46, 153.19 21.42 C155.56 23.37, 157.84 25.45, 160.01 27.63 C162.17 29.81, 164.24 32.11, 166.18 34.49 C168.13 36.88, 169.96 39.37, 171.66 41.93 C173.36 44.49, 174.95 47.15, 176.39 49.87 C177.84 52.59, 179.15 55.39, 180.32 58.24 C181.5 61.09, 182.53 64.01, 183.42 66.96 C184.31 69.91, 185.06 72.92, 185.66 75.94 C186.26 78.96, 186.71 82.03, 187.01 85.1 C187.31 88.17, 187.38 92.8, 187.46 94.35 C187.53 95.89, 187.53 92.8, 187.46 94.35" stroke="none" stroke-width="0" fill="#000000"></path><path d="M187.46 94.35 C187.46 97.43, 187.31 100.52, 187.01 103.59 C186.71 106.66, 186.26 109.73, 185.66 112.75 C185.06 115.77, 184.31 118.78, 183.42 121.73 C182.53 124.68, 181.5 127.6, 180.32 130.45 C179.15 133.3, 177.84 136.1, 176.39 138.82 C174.95 141.54, 173.36 144.2, 171.66 146.76 C169.96 149.32, 168.13 151.81, 166.18 154.2 C164.24 156.58, 162.17 158.88, 160.01 161.06 C157.84 163.24, 155.56 165.32, 153.19 167.27 C150.82 169.23, 148.35 171.08, 145.8 172.79 C143.26 174.5, 140.61 176.1, 137.91 177.55 C135.21 179, 132.43 180.33, 129.6 181.51 C126.77 182.69, 123.87 183.73, 120.94 184.63 C118.01 185.52, 115.02 186.28, 112.02 186.88 C109.01 187.48, 105.96 187.93, 102.92 188.24 C99.87 188.54, 96.79 188.69, 93.73 188.69 C90.67 188.69, 87.59 188.54, 84.54 188.24 C81.49 187.93, 78.45 187.48, 75.44 186.88 C72.44 186.28, 69.45 185.52, 66.52 184.63 C63.59 183.73, 60.69 182.69, 57.86 181.51 C55.03 180.33, 52.25 179, 49.55 177.55 C46.85 176.1, 44.2 174.5, 41.66 172.79 C39.11 171.08, 36.64 169.23, 34.27 167.27 C31.9 165.32, 29.62 163.24, 27.45 161.06 C25.29 158.88, 23.22 156.58, 21.28 154.2 C19.33 151.81, 17.5 149.32, 15.8 146.76 C14.09 144.2, 12.51 141.54, 11.07 138.82 C9.62 136.1, 8.31 133.3, 7.13 130.45 C5.96 127.6, 4.92 124.68, 4.04 121.73 C3.15 118.78, 2.4 115.77, 1.8 112.75 C1.2 109.73, 0.75 106.66, 0.45 103.59 C0.15 100.52, 0 97.43, 0 94.35 C0 91.26, 0.15 88.17, 0.45 85.1 C0.75 82.03, 1.2 78.96, 1.8 75.94 C2.4 72.92, 3.15 69.91, 4.04 66.96 C4.92 64.01, 5.96 61.09, 7.13 58.24 C8.31 55.39, 9.62 52.59, 11.07 49.87 C12.51 47.15, 14.09 44.49, 15.8 41.93 C17.5 39.37, 19.33 36.88, 21.28 34.49 C23.22 32.11, 25.29 29.81, 27.45 27.63 C29.62 25.45, 31.9 23.37, 34.27 21.42 C36.64 19.46, 39.11 17.61, 41.66 15.9 C44.2 14.19, 46.85 12.59, 49.55 11.14 C52.25 9.69, 55.03 8.36, 57.86 7.18 C60.69 6, 63.59 4.96, 66.52 4.06 C69.45 3.17, 72.44 2.41, 75.44 1.81 C78.45 1.21, 81.49 0.76, 84.54 0.45 C87.59 0.15, 90.67 0, 93.73 0 C96.79 0, 99.87 0.15, 102.92 0.45 C105.96 0.76, 109.01 1.21, 112.02 1.81 C115.02 2.41, 118.01 3.17, 120.94 4.06 C123.87 4.96, 126.77 6, 129.6 7.18 C132.43 8.36, 135.21 9.69, 137.91 11.14 C140.61 12.59, 143.26 14.19, 145.8 15.9 C148.35 17.61, 150.82 19.46, 153.19 21.42 C155.56 23.37, 157.84 25.45, 160.01 27.63 C162.17 29.81, 164.24 32.11, 166.18 34.49 C168.13 36.88, 169.96 39.37, 171.66 41.93 C173.36 44.49, 174.95 47.15, 176.39 49.87 C177.84 52.59, 179.15 55.39, 180.32 58.24 C181.5 61.09, 182.53 64.01, 183.42 66.96 C184.31 69.91, 185.06 72.92, 185.66 75.94 C186.26 78.96, 186.71 82.03, 187.01 85.1 C187.31 88.17, 187.38 92.8, 187.46 94.35 C187.53 95.89, 187.53 92.8, 187.46 94.35" stroke="transparent" stroke-width="4" fill="none"></path></g><g stroke-linecap="round" transform="translate(751.1887660213245 271.95556917741396) rotate(0 75.34600594091796 84.4582795595727)"><path d="M150.69 84.46 C150.69 87.4, 150.55 90.36, 150.28 93.29 C150 96.21, 149.59 99.14, 149.05 102.02 C148.5 104.9, 147.82 107.76, 147 110.56 C146.19 113.36, 145.25 116.12, 144.18 118.81 C143.11 121.5, 141.91 124.14, 140.6 126.69 C139.28 129.24, 137.85 131.72, 136.3 134.1 C134.76 136.48, 133.1 138.78, 131.34 140.97 C129.58 143.16, 127.71 145.25, 125.76 147.22 C123.81 149.19, 121.76 151.06, 119.63 152.79 C117.51 154.52, 115.29 156.13, 113.02 157.6 C110.75 159.07, 108.39 160.42, 105.99 161.61 C103.59 162.81, 101.13 163.87, 98.63 164.78 C96.13 165.69, 93.58 166.46, 91.01 167.07 C88.44 167.68, 85.83 168.15, 83.22 168.45 C80.61 168.76, 77.97 168.92, 75.35 168.92 C72.72 168.92, 70.08 168.76, 67.47 168.45 C64.86 168.15, 62.25 167.68, 59.68 167.07 C57.11 166.46, 54.56 165.69, 52.06 164.78 C49.57 163.87, 47.1 162.81, 44.7 161.61 C42.3 160.42, 39.95 159.07, 37.67 157.6 C35.4 156.13, 33.18 154.52, 31.06 152.79 C28.93 151.06, 26.88 149.19, 24.93 147.22 C22.98 145.25, 21.11 143.16, 19.35 140.97 C17.6 138.78, 15.93 136.48, 14.39 134.1 C12.85 131.72, 11.41 129.24, 10.09 126.69 C8.78 124.14, 7.58 121.5, 6.51 118.81 C5.45 116.12, 4.5 113.36, 3.69 110.56 C2.88 107.76, 2.19 104.9, 1.65 102.02 C1.1 99.14, 0.69 96.21, 0.41 93.29 C0.14 90.36, 0 87.4, 0 84.46 C0 81.52, 0.14 78.56, 0.41 75.63 C0.69 72.7, 1.1 69.78, 1.65 66.9 C2.19 64.02, 2.88 61.16, 3.69 58.36 C4.5 55.56, 5.45 52.79, 6.51 50.11 C7.58 47.42, 8.78 44.78, 10.09 42.23 C11.41 39.68, 12.85 37.2, 14.39 34.81 C15.93 32.43, 17.6 30.13, 19.35 27.94 C21.11 25.76, 22.98 23.66, 24.93 21.69 C26.88 19.72, 28.93 17.86, 31.06 16.13 C33.18 14.4, 35.4 12.79, 37.67 11.32 C39.95 9.84, 42.3 8.5, 44.7 7.3 C47.1 6.1, 49.57 5.04, 52.06 4.13 C54.56 3.22, 57.11 2.46, 59.68 1.85 C62.25 1.23, 64.86 0.77, 67.47 0.46 C70.08 0.16, 72.72 0, 75.35 0 C77.97 0, 80.61 0.16, 83.22 0.46 C85.83 0.77, 88.44 1.23, 91.01 1.85 C93.58 2.46, 96.13 3.22, 98.63 4.13 C101.13 5.04, 103.59 6.1, 105.99 7.3 C108.39 8.5, 110.75 9.84, 113.02 11.32 C115.29 12.79, 117.51 14.4, 119.63 16.13 C121.76 17.86, 123.81 19.72, 125.76 21.69 C127.71 23.66, 129.58 25.76, 131.34 27.94 C133.1 30.13, 134.76 32.43, 136.3 34.81 C137.85 37.2, 139.28 39.68, 140.6 42.23 C141.91 44.78, 143.11 47.42, 144.18 50.11 C145.25 52.79, 146.19 55.56, 147 58.36 C147.82 61.16, 148.5 64.02, 149.05 66.9 C149.59 69.78, 150 72.7, 150.28 75.63 C150.55 78.56, 150.62 82.99, 150.69 84.46 C150.76 85.93, 150.76 82.99, 150.69 84.46" stroke="none" stroke-width="0" fill="#fff"></path><path d="M150.69 84.46 C150.69 87.4, 150.55 90.36, 150.28 93.29 C150 96.21, 149.59 99.14, 149.05 102.02 C148.5 104.9, 147.82 107.76, 147 110.56 C146.19 113.36, 145.25 116.12, 144.18 118.81 C143.11 121.5, 141.91 124.14, 140.6 126.69 C139.28 129.24, 137.85 131.72, 136.3 134.1 C134.76 136.48, 133.1 138.78, 131.34 140.97 C129.58 143.16, 127.71 145.25, 125.76 147.22 C123.81 149.19, 121.76 151.06, 119.63 152.79 C117.51 154.52, 115.29 156.13, 113.02 157.6 C110.75 159.07, 108.39 160.42, 105.99 161.61 C103.59 162.81, 101.13 163.87, 98.63 164.78 C96.13 165.69, 93.58 166.46, 91.01 167.07 C88.44 167.68, 85.83 168.15, 83.22 168.45 C80.61 168.76, 77.97 168.92, 75.35 168.92 C72.72 168.92, 70.08 168.76, 67.47 168.45 C64.86 168.15, 62.25 167.68, 59.68 167.07 C57.11 166.46, 54.56 165.69, 52.06 164.78 C49.57 163.87, 47.1 162.81, 44.7 161.61 C42.3 160.42, 39.95 159.07, 37.67 157.6 C35.4 156.13, 33.18 154.52, 31.06 152.79 C28.93 151.06, 26.88 149.19, 24.93 147.22 C22.98 145.25, 21.11 143.16, 19.35 140.97 C17.6 138.78, 15.93 136.48, 14.39 134.1 C12.85 131.72, 11.41 129.24, 10.09 126.69 C8.78 124.14, 7.58 121.5, 6.51 118.81 C5.45 116.12, 4.5 113.36, 3.69 110.56 C2.88 107.76, 2.19 104.9, 1.65 102.02 C1.1 99.14, 0.69 96.21, 0.41 93.29 C0.14 90.36, 0 87.4, 0 84.46 C0 81.52, 0.14 78.56, 0.41 75.63 C0.69 72.7, 1.1 69.78, 1.65 66.9 C2.19 64.02, 2.88 61.16, 3.69 58.36 C4.5 55.56, 5.45 52.79, 6.51 50.11 C7.58 47.42, 8.78 44.78, 10.09 42.23 C11.41 39.68, 12.85 37.2, 14.39 34.81 C15.93 32.43, 17.6 30.13, 19.35 27.94 C21.11 25.76, 22.98 23.66, 24.93 21.69 C26.88 19.72, 28.93 17.86, 31.06 16.13 C33.18 14.4, 35.4 12.79, 37.67 11.32 C39.95 9.84, 42.3 8.5, 44.7 7.3 C47.1 6.1, 49.57 5.04, 52.06 4.13 C54.56 3.22, 57.11 2.46, 59.68 1.85 C62.25 1.23, 64.86 0.77, 67.47 0.46 C70.08 0.16, 72.72 0, 75.35 0 C77.97 0, 80.61 0.16, 83.22 0.46 C85.83 0.77, 88.44 1.23, 91.01 1.85 C93.58 2.46, 96.13 3.22, 98.63 4.13 C101.13 5.04, 103.59 6.1, 105.99 7.3 C108.39 8.5, 110.75 9.84, 113.02 11.32 C115.29 12.79, 117.51 14.4, 119.63 16.13 C121.76 17.86, 123.81 19.72, 125.76 21.69 C127.71 23.66, 129.58 25.76, 131.34 27.94 C133.1 30.13, 134.76 32.43, 136.3 34.81 C137.85 37.2, 139.28 39.68, 140.6 42.23 C141.91 44.78, 143.11 47.42, 144.18 50.11 C145.25 52.79, 146.19 55.56, 147 58.36 C147.82 61.16, 148.5 64.02, 149.05 66.9 C149.59 69.78, 150 72.7, 150.28 75.63 C150.55 78.56, 150.62 82.99, 150.69 84.46 C150.76 85.93, 150.76 82.99, 150.69 84.46" stroke="transparent" stroke-width="4" fill="none"></path></g><g stroke-linecap="round" transform="translate(751.5268201546633 319.6317791482302) rotate(0 75.06070278016608 79.47228389435168)"><path d="M32 0 C58.38 0, 84.76 0, 118.12 0 C139.45 0, 150.12 10.67, 150.12 32 C150.12 64.93, 150.12 97.86, 150.12 126.94 C150.12 148.28, 139.45 158.94, 118.12 158.94 C88.72 158.94, 59.32 158.94, 32 158.94 C10.67 158.94, 0 148.28, 0 126.94 C0 102.77, 0 78.59, 0 32 C0 10.67, 10.67 0, 32 0" stroke="none" stroke-width="0" fill="#fff"></path><path d="M32 0 C57.17 0, 82.35 0, 118.12 0 M32 0 C62.81 0, 93.62 0, 118.12 0 M118.12 0 C139.45 0, 150.12 10.67, 150.12 32 M118.12 0 C139.45 0, 150.12 10.67, 150.12 32 M150.12 32 C150.12 68.54, 150.12 105.08, 150.12 126.94 M150.12 32 C150.12 51.86, 150.12 71.72, 150.12 126.94 M150.12 126.94 C150.12 148.28, 139.45 158.94, 118.12 158.94 M150.12 126.94 C150.12 148.28, 139.45 158.94, 118.12 158.94 M118.12 158.94 C86.14 158.94, 54.16 158.94, 32 158.94 M118.12 158.94 C94.2 158.94, 70.27 158.94, 32 158.94 M32 158.94 C10.67 158.94, 0 148.28, 0 126.94 M32 158.94 C10.67 158.94, 0 148.28, 0 126.94 M0 126.94 C0 106.63, 0 86.31, 0 32 M0 126.94 C0 99.1, 0 71.26, 0 32 M0 32 C0 10.67, 10.67 0, 32 0 M0 32 C0 10.67, 10.67 0, 32 0" stroke="transparent" stroke-width="4" fill="none"></path></g><g stroke-linecap="round" transform="translate(751.8705547293412 372.35507654240655) rotate(0 73.98923590718834 84.45827955957247)"><path d="M147.98 84.46 C147.98 87.4, 147.84 90.36, 147.57 93.29 C147.3 96.21, 146.9 99.14, 146.36 102.02 C145.83 104.9, 145.15 107.76, 144.36 110.56 C143.56 113.36, 142.63 116.12, 141.58 118.81 C140.53 121.5, 139.35 124.14, 138.07 126.69 C136.78 129.24, 135.36 131.72, 133.85 134.1 C132.33 136.48, 130.7 138.78, 128.97 140.97 C127.25 143.16, 125.41 145.25, 123.5 147.22 C121.58 149.19, 119.56 151.06, 117.48 152.79 C115.39 154.52, 113.22 156.13, 110.98 157.6 C108.75 159.07, 106.44 160.42, 104.08 161.61 C101.73 162.81, 99.3 163.87, 96.85 164.78 C94.4 165.69, 91.89 166.46, 89.37 167.07 C86.85 167.68, 84.29 168.15, 81.72 168.45 C79.16 168.76, 76.57 168.92, 73.99 168.92 C71.41 168.92, 68.82 168.76, 66.26 168.45 C63.69 168.15, 61.13 167.68, 58.61 167.07 C56.08 166.46, 53.58 165.69, 51.13 164.78 C48.67 163.87, 46.25 162.81, 43.9 161.61 C41.54 160.42, 39.23 159.07, 36.99 157.6 C34.76 156.13, 32.59 154.52, 30.5 152.79 C28.41 151.06, 26.4 149.19, 24.48 147.22 C22.56 145.25, 20.73 143.16, 19 140.97 C17.28 138.78, 15.65 136.48, 14.13 134.1 C12.62 131.72, 11.2 129.24, 9.91 126.69 C8.62 124.14, 7.45 121.5, 6.4 118.81 C5.35 116.12, 4.42 113.36, 3.62 110.56 C2.82 107.76, 2.15 104.9, 1.62 102.02 C1.08 99.14, 0.67 96.21, 0.41 93.29 C0.14 90.36, 0 87.4, 0 84.46 C0 81.52, 0.14 78.56, 0.41 75.63 C0.67 72.7, 1.08 69.78, 1.62 66.9 C2.15 64.02, 2.82 61.16, 3.62 58.36 C4.42 55.56, 5.35 52.79, 6.4 50.11 C7.45 47.42, 8.62 44.78, 9.91 42.23 C11.2 39.68, 12.62 37.2, 14.13 34.81 C15.65 32.43, 17.28 30.13, 19 27.94 C20.73 25.76, 22.56 23.66, 24.48 21.69 C26.4 19.72, 28.41 17.86, 30.5 16.13 C32.59 14.4, 34.76 12.79, 36.99 11.32 C39.23 9.84, 41.54 8.5, 43.9 7.3 C46.25 6.1, 48.67 5.04, 51.13 4.13 C53.58 3.22, 56.08 2.46, 58.61 1.85 C61.13 1.23, 63.69 0.77, 66.26 0.46 C68.82 0.16, 71.41 0, 73.99 0 C76.57 0, 79.16 0.16, 81.72 0.46 C84.29 0.77, 86.85 1.23, 89.37 1.85 C91.89 2.46, 94.4 3.22, 96.85 4.13 C99.3 5.04, 101.73 6.1, 104.08 7.3 C106.44 8.5, 108.75 9.84, 110.98 11.32 C113.22 12.79, 115.39 14.4, 117.48 16.13 C119.56 17.86, 121.58 19.72, 123.5 21.69 C125.41 23.66, 127.25 25.76, 128.97 27.94 C130.7 30.13, 132.33 32.43, 133.85 34.81 C135.36 37.2, 136.78 39.68, 138.07 42.23 C139.35 44.78, 140.53 47.42, 141.58 50.11 C142.63 52.79, 143.56 55.56, 144.36 58.36 C145.15 61.16, 145.83 64.02, 146.36 66.9 C146.9 69.78, 147.3 72.7, 147.57 75.63 C147.84 78.56, 147.91 82.99, 147.98 84.46 C148.05 85.93, 148.05 82.99, 147.98 84.46" stroke="none" stroke-width="0" fill="#fff"></path><path d="M147.98 84.46 C147.98 87.4, 147.84 90.36, 147.57 93.29 C147.3 96.21, 146.9 99.14, 146.36 102.02 C145.83 104.9, 145.15 107.76, 144.36 110.56 C143.56 113.36, 142.63 116.12, 141.58 118.81 C140.53 121.5, 139.35 124.14, 138.07 126.69 C136.78 129.24, 135.36 131.72, 133.85 134.1 C132.33 136.48, 130.7 138.78, 128.97 140.97 C127.25 143.16, 125.41 145.25, 123.5 147.22 C121.58 149.19, 119.56 151.06, 117.48 152.79 C115.39 154.52, 113.22 156.13, 110.98 157.6 C108.75 159.07, 106.44 160.42, 104.08 161.61 C101.73 162.81, 99.3 163.87, 96.85 164.78 C94.4 165.69, 91.89 166.46, 89.37 167.07 C86.85 167.68, 84.29 168.15, 81.72 168.45 C79.16 168.76, 76.57 168.92, 73.99 168.92 C71.41 168.92, 68.82 168.76, 66.26 168.45 C63.69 168.15, 61.13 167.68, 58.61 167.07 C56.08 166.46, 53.58 165.69, 51.13 164.78 C48.67 163.87, 46.25 162.81, 43.9 161.61 C41.54 160.42, 39.23 159.07, 36.99 157.6 C34.76 156.13, 32.59 154.52, 30.5 152.79 C28.41 151.06, 26.4 149.19, 24.48 147.22 C22.56 145.25, 20.73 143.16, 19 140.97 C17.28 138.78, 15.65 136.48, 14.13 134.1 C12.62 131.72, 11.2 129.24, 9.91 126.69 C8.62 124.14, 7.45 121.5, 6.4 118.81 C5.35 116.12, 4.42 113.36, 3.62 110.56 C2.82 107.76, 2.15 104.9, 1.62 102.02 C1.08 99.14, 0.67 96.21, 0.41 93.29 C0.14 90.36, 0 87.4, 0 84.46 C0 81.52, 0.14 78.56, 0.41 75.63 C0.67 72.7, 1.08 69.78, 1.62 66.9 C2.15 64.02, 2.82 61.16, 3.62 58.36 C4.42 55.56, 5.35 52.79, 6.4 50.11 C7.45 47.42, 8.62 44.78, 9.91 42.23 C11.2 39.68, 12.62 37.2, 14.13 34.81 C15.65 32.43, 17.28 30.13, 19 27.94 C20.73 25.76, 22.56 23.66, 24.48 21.69 C26.4 19.72, 28.41 17.86, 30.5 16.13 C32.59 14.4, 34.76 12.79, 36.99 11.32 C39.23 9.84, 41.54 8.5, 43.9 7.3 C46.25 6.1, 48.67 5.04, 51.13 4.13 C53.58 3.22, 56.08 2.46, 58.61 1.85 C61.13 1.23, 63.69 0.77, 66.26 0.46 C68.82 0.16, 71.41 0, 73.99 0 C76.57 0, 79.16 0.16, 81.72 0.46 C84.29 0.77, 86.85 1.23, 89.37 1.85 C91.89 2.46, 94.4 3.22, 96.85 4.13 C99.3 5.04, 101.73 6.1, 104.08 7.3 C106.44 8.5, 108.75 9.84, 110.98 11.32 C113.22 12.79, 115.39 14.4, 117.48 16.13 C119.56 17.86, 121.58 19.72, 123.5 21.69 C125.41 23.66, 127.25 25.76, 128.97 27.94 C130.7 30.13, 132.33 32.43, 133.85 34.81 C135.36 37.2, 136.78 39.68, 138.07 42.23 C139.35 44.78, 140.53 47.42, 141.58 50.11 C142.63 52.79, 143.56 55.56, 144.36 58.36 C145.15 61.16, 145.83 64.02, 146.36 66.9 C146.9 69.78, 147.3 72.7, 147.57 75.63 C147.84 78.56, 147.91 82.99, 147.98 84.46 C148.05 85.93, 148.05 82.99, 147.98 84.46" stroke="transparent" stroke-width="4" fill="none"></path></g><g stroke-linecap="round" transform="translate(763.9578318830681 534.7599968491672) rotate(0 22.829194653520858 16.63496163952368)"><path d="M45.66 16.63 C45.66 17.6, 45.54 18.58, 45.31 19.52 C45.08 20.47, 44.73 21.42, 44.28 22.32 C43.83 23.23, 43.26 24.12, 42.6 24.95 C41.94 25.79, 41.17 26.59, 40.32 27.33 C39.47 28.07, 38.52 28.76, 37.5 29.38 C36.49 30, 35.39 30.56, 34.24 31.04 C33.1 31.52, 31.88 31.94, 30.64 32.27 C29.4 32.6, 28.09 32.85, 26.79 33.02 C25.49 33.18, 24.15 33.27, 22.83 33.27 C21.51 33.27, 20.17 33.18, 18.86 33.02 C17.56 32.85, 16.26 32.6, 15.02 32.27 C13.78 31.94, 12.56 31.52, 11.41 31.04 C10.27 30.56, 9.17 30, 8.15 29.38 C7.14 28.76, 6.19 28.07, 5.34 27.33 C4.49 26.59, 3.72 25.79, 3.06 24.95 C2.4 24.12, 1.83 23.23, 1.38 22.32 C0.92 21.42, 0.58 20.47, 0.35 19.52 C0.12 18.58, 0 17.6, 0 16.63 C0 15.67, 0.12 14.69, 0.35 13.75 C0.58 12.8, 0.92 11.85, 1.38 10.95 C1.83 10.04, 2.4 9.15, 3.06 8.32 C3.72 7.48, 4.49 6.68, 5.34 5.94 C6.19 5.2, 7.14 4.51, 8.15 3.89 C9.17 3.27, 10.27 2.71, 11.41 2.23 C12.56 1.75, 13.78 1.33, 15.02 1 C16.26 0.67, 17.56 0.42, 18.86 0.25 C20.17 0.09, 21.51 0, 22.83 0 C24.15 0, 25.49 0.09, 26.79 0.25 C28.09 0.42, 29.4 0.67, 30.64 1 C31.88 1.33, 33.1 1.75, 34.24 2.23 C35.39 2.71, 36.49 3.27, 37.5 3.89 C38.52 4.51, 39.47 5.2, 40.32 5.94 C41.17 6.68, 41.94 7.48, 42.6 8.32 C43.26 9.15, 43.83 10.04, 44.28 10.95 C44.73 11.85, 45.08 12.8, 45.31 13.75 C45.54 14.69, 45.6 16.15, 45.66 16.63 C45.72 17.12, 45.72 16.15, 45.66 16.63" stroke="none" stroke-width="0" fill="#f08c00"></path><path d="M45.66 16.63 C45.66 17.6, 45.54 18.58, 45.31 19.52 C45.08 20.47, 44.73 21.42, 44.28 22.32 C43.83 23.23, 43.26 24.12, 42.6 24.95 C41.94 25.79, 41.17 26.59, 40.32 27.33 C39.47 28.07, 38.52 28.76, 37.5 29.38 C36.49 30, 35.39 30.56, 34.24 31.04 C33.1 31.52, 31.88 31.94, 30.64 32.27 C29.4 32.6, 28.09 32.85, 26.79 33.02 C25.49 33.18, 24.15 33.27, 22.83 33.27 C21.51 33.27, 20.17 33.18, 18.86 33.02 C17.56 32.85, 16.26 32.6, 15.02 32.27 C13.78 31.94, 12.56 31.52, 11.41 31.04 C10.27 30.56, 9.17 30, 8.15 29.38 C7.14 28.76, 6.19 28.07, 5.34 27.33 C4.49 26.59, 3.72 25.79, 3.06 24.95 C2.4 24.12, 1.83 23.23, 1.38 22.32 C0.92 21.42, 0.58 20.47, 0.35 19.52 C0.12 18.58, 0 17.6, 0 16.63 C0 15.67, 0.12 14.69, 0.35 13.75 C0.58 12.8, 0.92 11.85, 1.38 10.95 C1.83 10.04, 2.4 9.15, 3.06 8.32 C3.72 7.48, 4.49 6.68, 5.34 5.94 C6.19 5.2, 7.14 4.51, 8.15 3.89 C9.17 3.27, 10.27 2.71, 11.41 2.23 C12.56 1.75, 13.78 1.33, 15.02 1 C16.26 0.67, 17.56 0.42, 18.86 0.25 C20.17 0.09, 21.51 0, 22.83 0 C24.15 0, 25.49 0.09, 26.79 0.25 C28.09 0.42, 29.4 0.67, 30.64 1 C31.88 1.33, 33.1 1.75, 34.24 2.23 C35.39 2.71, 36.49 3.27, 37.5 3.89 C38.52 4.51, 39.47 5.2, 40.32 5.94 C41.17 6.68, 41.94 7.48, 42.6 8.32 C43.26 9.15, 43.83 10.04, 44.28 10.95 C44.73 11.85, 45.08 12.8, 45.31 13.75 C45.54 14.69, 45.6 16.15, 45.66 16.63 C45.72 17.12, 45.72 16.15, 45.66 16.63" stroke="transparent" stroke-width="4" fill="none"></path></g><g stroke-linecap="round" transform="translate(838.6839495569143 534.7599968491672) rotate(0 22.829194653520858 16.63496163952368)"><path d="M45.66 16.63 C45.66 17.6, 45.54 18.58, 45.31 19.52 C45.08 20.47, 44.73 21.42, 44.28 22.32 C43.83 23.23, 43.26 24.12, 42.6 24.95 C41.94 25.79, 41.17 26.59, 40.32 27.33 C39.47 28.07, 38.52 28.76, 37.5 29.38 C36.49 30, 35.39 30.56, 34.24 31.04 C33.1 31.52, 31.88 31.94, 30.64 32.27 C29.4 32.6, 28.09 32.85, 26.79 33.02 C25.49 33.18, 24.15 33.27, 22.83 33.27 C21.51 33.27, 20.17 33.18, 18.86 33.02 C17.56 32.85, 16.26 32.6, 15.02 32.27 C13.78 31.94, 12.56 31.52, 11.41 31.04 C10.27 30.56, 9.17 30, 8.15 29.38 C7.14 28.76, 6.19 28.07, 5.34 27.33 C4.49 26.59, 3.72 25.79, 3.06 24.95 C2.4 24.12, 1.83 23.23, 1.38 22.32 C0.92 21.42, 0.58 20.47, 0.35 19.52 C0.12 18.58, 0 17.6, 0 16.63 C0 15.67, 0.12 14.69, 0.35 13.75 C0.58 12.8, 0.92 11.85, 1.38 10.95 C1.83 10.04, 2.4 9.15, 3.06 8.32 C3.72 7.48, 4.49 6.68, 5.34 5.94 C6.19 5.2, 7.14 4.51, 8.15 3.89 C9.17 3.27, 10.27 2.71, 11.41 2.23 C12.56 1.75, 13.78 1.33, 15.02 1 C16.26 0.67, 17.56 0.42, 18.86 0.25 C20.17 0.09, 21.51 0, 22.83 0 C24.15 0, 25.49 0.09, 26.79 0.25 C28.09 0.42, 29.4 0.67, 30.64 1 C31.88 1.33, 33.1 1.75, 34.24 2.23 C35.39 2.71, 36.49 3.27, 37.5 3.89 C38.52 4.51, 39.47 5.2, 40.32 5.94 C41.17 6.68, 41.94 7.48, 42.6 8.32 C43.26 9.15, 43.83 10.04, 44.28 10.95 C44.73 11.85, 45.08 12.8, 45.31 13.75 C45.54 14.69, 45.6 16.15, 45.66 16.63 C45.72 17.12, 45.72 16.15, 45.66 16.63" stroke="none" stroke-width="0" fill="#f08c00"></path><path d="M45.66 16.63 C45.66 17.6, 45.54 18.58, 45.31 19.52 C45.08 20.47, 44.73 21.42, 44.28 22.32 C43.83 23.23, 43.26 24.12, 42.6 24.95 C41.94 25.79, 41.17 26.59, 40.32 27.33 C39.47 28.07, 38.52 28.76, 37.5 29.38 C36.49 30, 35.39 30.56, 34.24 31.04 C33.1 31.52, 31.88 31.94, 30.64 32.27 C29.4 32.6, 28.09 32.85, 26.79 33.02 C25.49 33.18, 24.15 33.27, 22.83 33.27 C21.51 33.27, 20.17 33.18, 18.86 33.02 C17.56 32.85, 16.26 32.6, 15.02 32.27 C13.78 31.94, 12.56 31.52, 11.41 31.04 C10.27 30.56, 9.17 30, 8.15 29.38 C7.14 28.76, 6.19 28.07, 5.34 27.33 C4.49 26.59, 3.72 25.79, 3.06 24.95 C2.4 24.12, 1.83 23.23, 1.38 22.32 C0.92 21.42, 0.58 20.47, 0.35 19.52 C0.12 18.58, 0 17.6, 0 16.63 C0 15.67, 0.12 14.69, 0.35 13.75 C0.58 12.8, 0.92 11.85, 1.38 10.95 C1.83 10.04, 2.4 9.15, 3.06 8.32 C3.72 7.48, 4.49 6.68, 5.34 5.94 C6.19 5.2, 7.14 4.51, 8.15 3.89 C9.17 3.27, 10.27 2.71, 11.41 2.23 C12.56 1.75, 13.78 1.33, 15.02 1 C16.26 0.67, 17.56 0.42, 18.86 0.25 C20.17 0.09, 21.51 0, 22.83 0 C24.15 0, 25.49 0.09, 26.79 0.25 C28.09 0.42, 29.4 0.67, 30.64 1 C31.88 1.33, 33.1 1.75, 34.24 2.23 C35.39 2.71, 36.49 3.27, 37.5 3.89 C38.52 4.51, 39.47 5.2, 40.32 5.94 C41.17 6.68, 41.94 7.48, 42.6 8.32 C43.26 9.15, 43.83 10.04, 44.28 10.95 C44.73 11.85, 45.08 12.8, 45.31 13.75 C45.54 14.69, 45.6 16.15, 45.66 16.63 C45.72 17.12, 45.72 16.15, 45.66 16.63" stroke="transparent" stroke-width="4" fill="none"></path></g><g stroke-linecap="round" transform="translate(792.976149344018 311.6824386074254) rotate(0 9.350414696142934 9.350414696142934)"><path d="M18.7 9.35 C18.7 9.89, 18.65 10.44, 18.56 10.97 C18.46 11.51, 18.32 12.04, 18.14 12.55 C17.95 13.06, 17.72 13.56, 17.45 14.03 C17.18 14.49, 16.86 14.95, 16.51 15.36 C16.17 15.78, 15.78 16.17, 15.36 16.51 C14.95 16.86, 14.49 17.18, 14.03 17.45 C13.56 17.72, 13.06 17.95, 12.55 18.14 C12.04 18.32, 11.51 18.46, 10.97 18.56 C10.44 18.65, 9.89 18.7, 9.35 18.7 C8.81 18.7, 8.26 18.65, 7.73 18.56 C7.19 18.46, 6.66 18.32, 6.15 18.14 C5.64 17.95, 5.14 17.72, 4.68 17.45 C4.21 17.18, 3.75 16.86, 3.34 16.51 C2.93 16.17, 2.54 15.78, 2.19 15.36 C1.84 14.95, 1.52 14.49, 1.25 14.03 C0.98 13.56, 0.75 13.06, 0.56 12.55 C0.38 12.04, 0.24 11.51, 0.14 10.97 C0.05 10.44, 0 9.89, 0 9.35 C0 8.81, 0.05 8.26, 0.14 7.73 C0.24 7.19, 0.38 6.66, 0.56 6.15 C0.75 5.64, 0.98 5.14, 1.25 4.68 C1.52 4.21, 1.84 3.75, 2.19 3.34 C2.54 2.93, 2.93 2.54, 3.34 2.19 C3.75 1.84, 4.21 1.52, 4.68 1.25 C5.14 0.98, 5.64 0.75, 6.15 0.56 C6.66 0.38, 7.19 0.24, 7.73 0.14 C8.26 0.05, 8.81 0, 9.35 0 C9.89 0, 10.44 0.05, 10.97 0.14 C11.51 0.24, 12.04 0.38, 12.55 0.56 C13.06 0.75, 13.56 0.98, 14.03 1.25 C14.49 1.52, 14.95 1.84, 15.36 2.19 C15.78 2.54, 16.17 2.93, 16.51 3.34 C16.86 3.75, 17.18 4.21, 17.45 4.68 C17.72 5.14, 17.95 5.64, 18.14 6.15 C18.32 6.66, 18.46 7.19, 18.56 7.73 C18.65 8.26, 18.68 9.08, 18.7 9.35 C18.72 9.62, 18.72 9.08, 18.7 9.35" stroke="none" stroke-width="0" fill="#000000"></path><path d="M18.7 9.35 C18.7 9.89, 18.65 10.44, 18.56 10.97 C18.46 11.51, 18.32 12.04, 18.14 12.55 C17.95 13.06, 17.72 13.56, 17.45 14.03 C17.18 14.49, 16.86 14.95, 16.51 15.36 C16.17 15.78, 15.78 16.17, 15.36 16.51 C14.95 16.86, 14.49 17.18, 14.03 17.45 C13.56 17.72, 13.06 17.95, 12.55 18.14 C12.04 18.32, 11.51 18.46, 10.97 18.56 C10.44 18.65, 9.89 18.7, 9.35 18.7 C8.81 18.7, 8.26 18.65, 7.73 18.56 C7.19 18.46, 6.66 18.32, 6.15 18.14 C5.64 17.95, 5.14 17.72, 4.68 17.45 C4.21 17.18, 3.75 16.86, 3.34 16.51 C2.93 16.17, 2.54 15.78, 2.19 15.36 C1.84 14.95, 1.52 14.49, 1.25 14.03 C0.98 13.56, 0.75 13.06, 0.56 12.55 C0.38 12.04, 0.24 11.51, 0.14 10.97 C0.05 10.44, 0 9.89, 0 9.35 C0 8.81, 0.05 8.26, 0.14 7.73 C0.24 7.19, 0.38 6.66, 0.56 6.15 C0.75 5.64, 0.98 5.14, 1.25 4.68 C1.52 4.21, 1.84 3.75, 2.19 3.34 C2.54 2.93, 2.93 2.54, 3.34 2.19 C3.75 1.84, 4.21 1.52, 4.68 1.25 C5.14 0.98, 5.64 0.75, 6.15 0.56 C6.66 0.38, 7.19 0.24, 7.73 0.14 C8.26 0.05, 8.81 0, 9.35 0 C9.89 0, 10.44 0.05, 10.97 0.14 C11.51 0.24, 12.04 0.38, 12.55 0.56 C13.06 0.75, 13.56 0.98, 14.03 1.25 C14.49 1.52, 14.95 1.84, 15.36 2.19 C15.78 2.54, 16.17 2.93, 16.51 3.34 C16.86 3.75, 17.18 4.21, 17.45 4.68 C17.72 5.14, 17.95 5.64, 18.14 6.15 C18.32 6.66, 18.46 7.19, 18.56 7.73 C18.65 8.26, 18.68 9.08, 18.7 9.35 C18.72 9.62, 18.72 9.08, 18.7 9.35" stroke="transparent" stroke-width="2" fill="none"></path></g><g stroke-linecap="round" transform="translate(841.4312545490238 311.6824386074245) rotate(0 9.350414696142934 9.350414696142934)"><path d="M18.7 9.35 C18.7 9.89, 18.65 10.44, 18.56 10.97 C18.46 11.51, 18.32 12.04, 18.14 12.55 C17.95 13.06, 17.72 13.56, 17.45 14.03 C17.18 14.49, 16.86 14.95, 16.51 15.36 C16.17 15.78, 15.78 16.17, 15.36 16.51 C14.95 16.86, 14.49 17.18, 14.03 17.45 C13.56 17.72, 13.06 17.95, 12.55 18.14 C12.04 18.32, 11.51 18.46, 10.97 18.56 C10.44 18.65, 9.89 18.7, 9.35 18.7 C8.81 18.7, 8.26 18.65, 7.73 18.56 C7.19 18.46, 6.66 18.32, 6.15 18.14 C5.64 17.95, 5.14 17.72, 4.68 17.45 C4.21 17.18, 3.75 16.86, 3.34 16.51 C2.93 16.17, 2.54 15.78, 2.19 15.36 C1.84 14.95, 1.52 14.49, 1.25 14.03 C0.98 13.56, 0.75 13.06, 0.56 12.55 C0.38 12.04, 0.24 11.51, 0.14 10.97 C0.05 10.44, 0 9.89, 0 9.35 C0 8.81, 0.05 8.26, 0.14 7.73 C0.24 7.19, 0.38 6.66, 0.56 6.15 C0.75 5.64, 0.98 5.14, 1.25 4.68 C1.52 4.21, 1.84 3.75, 2.19 3.34 C2.54 2.93, 2.93 2.54, 3.34 2.19 C3.75 1.84, 4.21 1.52, 4.68 1.25 C5.14 0.98, 5.64 0.75, 6.15 0.56 C6.66 0.38, 7.19 0.24, 7.73 0.14 C8.26 0.05, 8.81 0, 9.35 0 C9.89 0, 10.44 0.05, 10.97 0.14 C11.51 0.24, 12.04 0.38, 12.55 0.56 C13.06 0.75, 13.56 0.98, 14.03 1.25 C14.49 1.52, 14.95 1.84, 15.36 2.19 C15.78 2.54, 16.17 2.93, 16.51 3.34 C16.86 3.75, 17.18 4.21, 17.45 4.68 C17.72 5.14, 17.95 5.64, 18.14 6.15 C18.32 6.66, 18.46 7.19, 18.56 7.73 C18.65 8.26, 18.68 9.08, 18.7 9.35 C18.72 9.62, 18.72 9.08, 18.7 9.35" stroke="none" stroke-width="0" fill="#000000"></path><path d="M18.7 9.35 C18.7 9.89, 18.65 10.44, 18.56 10.97 C18.46 11.51, 18.32 12.04, 18.14 12.55 C17.95 13.06, 17.72 13.56, 17.45 14.03 C17.18 14.49, 16.86 14.95, 16.51 15.36 C16.17 15.78, 15.78 16.17, 15.36 16.51 C14.95 16.86, 14.49 17.18, 14.03 17.45 C13.56 17.72, 13.06 17.95, 12.55 18.14 C12.04 18.32, 11.51 18.46, 10.97 18.56 C10.44 18.65, 9.89 18.7, 9.35 18.7 C8.81 18.7, 8.26 18.65, 7.73 18.56 C7.19 18.46, 6.66 18.32, 6.15 18.14 C5.64 17.95, 5.14 17.72, 4.68 17.45 C4.21 17.18, 3.75 16.86, 3.34 16.51 C2.93 16.17, 2.54 15.78, 2.19 15.36 C1.84 14.95, 1.52 14.49, 1.25 14.03 C0.98 13.56, 0.75 13.06, 0.56 12.55 C0.38 12.04, 0.24 11.51, 0.14 10.97 C0.05 10.44, 0 9.89, 0 9.35 C0 8.81, 0.05 8.26, 0.14 7.73 C0.24 7.19, 0.38 6.66, 0.56 6.15 C0.75 5.64, 0.98 5.14, 1.25 4.68 C1.52 4.21, 1.84 3.75, 2.19 3.34 C2.54 2.93, 2.93 2.54, 3.34 2.19 C3.75 1.84, 4.21 1.52, 4.68 1.25 C5.14 0.98, 5.64 0.75, 6.15 0.56 C6.66 0.38, 7.19 0.24, 7.73 0.14 C8.26 0.05, 8.81 0, 9.35 0 C9.89 0, 10.44 0.05, 10.97 0.14 C11.51 0.24, 12.04 0.38, 12.55 0.56 C13.06 0.75, 13.56 0.98, 14.03 1.25 C14.49 1.52, 14.95 1.84, 15.36 2.19 C15.78 2.54, 16.17 2.93, 16.51 3.34 C16.86 3.75, 17.18 4.21, 17.45 4.68 C17.72 5.14, 17.95 5.64, 18.14 6.15 C18.32 6.66, 18.46 7.19, 18.56 7.73 C18.65 8.26, 18.68 9.08, 18.7 9.35 C18.72 9.62, 18.72 9.08, 18.7 9.35" stroke="transparent" stroke-width="2" fill="none"></path></g><g stroke-linecap="round" transform="translate(820.5572525031762 336.3184760092263) rotate(45.517377077942164 6.888682231245184 6.900784826982999)"><path d="M0 0 L13.78 0 L13.78 13.8 L0 13.8" stroke="none" stroke-width="0" fill="#f08c00"></path><path d="M0 0 C4.45 0, 8.91 0, 13.78 0 M0 0 C3.14 0, 6.29 0, 13.78 0 M13.78 0 C13.78 2.94, 13.78 5.87, 13.78 13.8 M13.78 0 C13.78 4.7, 13.78 9.4, 13.78 13.8 M13.78 13.8 C10.79 13.8, 7.81 13.8, 0 13.8 M13.78 13.8 C9.52 13.8, 5.25 13.8, 0 13.8 M0 13.8 C0 11.01, 0 8.22, 0 0 M0 13.8 C0 9, 0 4.19, 0 0" stroke="transparent" stroke-width="4" fill="none"></path></g><g stroke-linecap="round" transform="translate(701.8927046152148 373.55089156298845) rotate(25.565728229860664 15.988283042676358 42.34171345878167)"><path d="M31.98 42.34 C31.98 44.55, 31.91 46.78, 31.78 48.97 C31.65 51.15, 31.45 53.33, 31.19 55.43 C30.94 57.53, 30.61 59.6, 30.23 61.56 C29.86 63.53, 29.41 65.44, 28.92 67.23 C28.43 69.02, 27.88 70.72, 27.29 72.28 C26.7 73.84, 26.06 75.3, 25.39 76.6 C24.71 77.89, 23.99 79.07, 23.25 80.07 C22.5 81.07, 21.72 81.93, 20.93 82.61 C20.14 83.29, 19.31 83.82, 18.49 84.16 C17.67 84.51, 16.82 84.68, 15.99 84.68 C15.15 84.68, 14.31 84.51, 13.49 84.16 C12.66 83.82, 11.84 83.29, 11.05 82.61 C10.25 81.93, 9.47 81.07, 8.73 80.07 C7.99 79.07, 7.27 77.89, 6.59 76.6 C5.92 75.3, 5.27 73.84, 4.68 72.28 C4.09 70.72, 3.54 69.02, 3.05 67.23 C2.56 65.44, 2.12 63.53, 1.74 61.56 C1.36 59.6, 1.04 57.53, 0.78 55.43 C0.52 53.33, 0.33 51.15, 0.2 48.97 C0.07 46.78, 0 44.55, 0 42.34 C0 40.13, 0.07 37.9, 0.2 35.72 C0.33 33.54, 0.52 31.36, 0.78 29.26 C1.04 27.16, 1.36 25.09, 1.74 23.12 C2.12 21.15, 2.56 19.24, 3.05 17.45 C3.54 15.67, 4.09 13.96, 4.68 12.4 C5.27 10.84, 5.92 9.38, 6.59 8.09 C7.27 6.79, 7.99 5.62, 8.73 4.61 C9.47 3.61, 10.25 2.75, 11.05 2.07 C11.84 1.39, 12.66 0.87, 13.49 0.52 C14.31 0.18, 15.15 0, 15.99 0 C16.82 0, 17.67 0.18, 18.49 0.52 C19.31 0.87, 20.14 1.39, 20.93 2.07 C21.72 2.75, 22.5 3.61, 23.25 4.61 C23.99 5.62, 24.71 6.79, 25.39 8.09 C26.06 9.38, 26.7 10.84, 27.29 12.4 C27.88 13.96, 28.43 15.67, 28.92 17.45 C29.41 19.24, 29.86 21.15, 30.23 23.12 C30.61 25.09, 30.94 27.16, 31.19 29.26 C31.45 31.36, 31.65 33.54, 31.78 35.72 C31.91 37.9, 31.94 41.24, 31.98 42.34 C32.01 43.45, 32.01 41.24, 31.98 42.34" stroke="none" stroke-width="0" fill="#000000"></path><path d="M31.98 42.34 C31.98 44.55, 31.91 46.78, 31.78 48.97 C31.65 51.15, 31.45 53.33, 31.19 55.43 C30.94 57.53, 30.61 59.6, 30.23 61.56 C29.86 63.53, 29.41 65.44, 28.92 67.23 C28.43 69.02, 27.88 70.72, 27.29 72.28 C26.7 73.84, 26.06 75.3, 25.39 76.6 C24.71 77.89, 23.99 79.07, 23.25 80.07 C22.5 81.07, 21.72 81.93, 20.93 82.61 C20.14 83.29, 19.31 83.82, 18.49 84.16 C17.67 84.51, 16.82 84.68, 15.99 84.68 C15.15 84.68, 14.31 84.51, 13.49 84.16 C12.66 83.82, 11.84 83.29, 11.05 82.61 C10.25 81.93, 9.47 81.07, 8.73 80.07 C7.99 79.07, 7.27 77.89, 6.59 76.6 C5.92 75.3, 5.27 73.84, 4.68 72.28 C4.09 70.72, 3.54 69.02, 3.05 67.23 C2.56 65.44, 2.12 63.53, 1.74 61.56 C1.36 59.6, 1.04 57.53, 0.78 55.43 C0.52 53.33, 0.33 51.15, 0.2 48.97 C0.07 46.78, 0 44.55, 0 42.34 C0 40.13, 0.07 37.9, 0.2 35.72 C0.33 33.54, 0.52 31.36, 0.78 29.26 C1.04 27.16, 1.36 25.09, 1.74 23.12 C2.12 21.15, 2.56 19.24, 3.05 17.45 C3.54 15.67, 4.09 13.96, 4.68 12.4 C5.27 10.84, 5.92 9.38, 6.59 8.09 C7.27 6.79, 7.99 5.62, 8.73 4.61 C9.47 3.61, 10.25 2.75, 11.05 2.07 C11.84 1.39, 12.66 0.87, 13.49 0.52 C14.31 0.18, 15.15 0, 15.99 0 C16.82 0, 17.67 0.18, 18.49 0.52 C19.31 0.87, 20.14 1.39, 20.93 2.07 C21.72 2.75, 22.5 3.61, 23.25 4.61 C23.99 5.62, 24.71 6.79, 25.39 8.09 C26.06 9.38, 26.7 10.84, 27.29 12.4 C27.88 13.96, 28.43 15.67, 28.92 17.45 C29.41 19.24, 29.86 21.15, 30.23 23.12 C30.61 25.09, 30.94 27.16, 31.19 29.26 C31.45 31.36, 31.65 33.54, 31.78 35.72 C31.91 37.9, 31.94 41.24, 31.98 42.34 C32.01 43.45, 32.01 41.24, 31.98 42.34" stroke="transparent" stroke-width="4" fill="none"></path></g><g stroke-linecap="round" transform="translate(920.8688998447283 373.55089156298845) rotate(334.43427177013933 15.988283042676358 42.34171345878167)"><path d="M31.98 42.34 C31.98 44.55, 31.91 46.78, 31.78 48.97 C31.65 51.15, 31.45 53.33, 31.19 55.43 C30.94 57.53, 30.61 59.6, 30.23 61.56 C29.86 63.53, 29.41 65.44, 28.92 67.23 C28.43 69.02, 27.88 70.72, 27.29 72.28 C26.7 73.84, 26.06 75.3, 25.39 76.6 C24.71 77.89, 23.99 79.07, 23.25 80.07 C22.5 81.07, 21.72 81.93, 20.93 82.61 C20.14 83.29, 19.31 83.82, 18.49 84.16 C17.67 84.51, 16.82 84.68, 15.99 84.68 C15.15 84.68, 14.31 84.51, 13.49 84.16 C12.66 83.82, 11.84 83.29, 11.05 82.61 C10.25 81.93, 9.47 81.07, 8.73 80.07 C7.99 79.07, 7.27 77.89, 6.59 76.6 C5.92 75.3, 5.27 73.84, 4.68 72.28 C4.09 70.72, 3.54 69.02, 3.05 67.23 C2.56 65.44, 2.12 63.53, 1.74 61.56 C1.36 59.6, 1.04 57.53, 0.78 55.43 C0.52 53.33, 0.33 51.15, 0.2 48.97 C0.07 46.78, 0 44.55, 0 42.34 C0 40.13, 0.07 37.9, 0.2 35.72 C0.33 33.54, 0.52 31.36, 0.78 29.26 C1.04 27.16, 1.36 25.09, 1.74 23.12 C2.12 21.15, 2.56 19.24, 3.05 17.45 C3.54 15.67, 4.09 13.96, 4.68 12.4 C5.27 10.84, 5.92 9.38, 6.59 8.09 C7.27 6.79, 7.99 5.62, 8.73 4.61 C9.47 3.61, 10.25 2.75, 11.05 2.07 C11.84 1.39, 12.66 0.87, 13.49 0.52 C14.31 0.18, 15.15 0, 15.99 0 C16.82 0, 17.67 0.18, 18.49 0.52 C19.31 0.87, 20.14 1.39, 20.93 2.07 C21.72 2.75, 22.5 3.61, 23.25 4.61 C23.99 5.62, 24.71 6.79, 25.39 8.09 C26.06 9.38, 26.7 10.84, 27.29 12.4 C27.88 13.96, 28.43 15.67, 28.92 17.45 C29.41 19.24, 29.86 21.15, 30.23 23.12 C30.61 25.09, 30.94 27.16, 31.19 29.26 C31.45 31.36, 31.65 33.54, 31.78 35.72 C31.91 37.9, 31.94 41.24, 31.98 42.34 C32.01 43.45, 32.01 41.24, 31.98 42.34" stroke="none" stroke-width="0" fill="#000000"></path><path d="M31.98 42.34 C31.98 44.55, 31.91 46.78, 31.78 48.97 C31.65 51.15, 31.45 53.33, 31.19 55.43 C30.94 57.53, 30.61 59.6, 30.23 61.56 C29.86 63.53, 29.41 65.44, 28.92 67.23 C28.43 69.02, 27.88 70.72, 27.29 72.28 C26.7 73.84, 26.06 75.3, 25.39 76.6 C24.71 77.89, 23.99 79.07, 23.25 80.07 C22.5 81.07, 21.72 81.93, 20.93 82.61 C20.14 83.29, 19.31 83.82, 18.49 84.16 C17.67 84.51, 16.82 84.68, 15.99 84.68 C15.15 84.68, 14.31 84.51, 13.49 84.16 C12.66 83.82, 11.84 83.29, 11.05 82.61 C10.25 81.93, 9.47 81.07, 8.73 80.07 C7.99 79.07, 7.27 77.89, 6.59 76.6 C5.92 75.3, 5.27 73.84, 4.68 72.28 C4.09 70.72, 3.54 69.02, 3.05 67.23 C2.56 65.44, 2.12 63.53, 1.74 61.56 C1.36 59.6, 1.04 57.53, 0.78 55.43 C0.52 53.33, 0.33 51.15, 0.2 48.97 C0.07 46.78, 0 44.55, 0 42.34 C0 40.13, 0.07 37.9, 0.2 35.72 C0.33 33.54, 0.52 31.36, 0.78 29.26 C1.04 27.16, 1.36 25.09, 1.74 23.12 C2.12 21.15, 2.56 19.24, 3.05 17.45 C3.54 15.67, 4.09 13.96, 4.68 12.4 C5.27 10.84, 5.92 9.38, 6.59 8.09 C7.27 6.79, 7.99 5.62, 8.73 4.61 C9.47 3.61, 10.25 2.75, 11.05 2.07 C11.84 1.39, 12.66 0.87, 13.49 0.52 C14.31 0.18, 15.15 0, 15.99 0 C16.82 0, 17.67 0.18, 18.49 0.52 C19.31 0.87, 20.14 1.39, 20.93 2.07 C21.72 2.75, 22.5 3.61, 23.25 4.61 C23.99 5.62, 24.71 6.79, 25.39 8.09 C26.06 9.38, 26.7 10.84, 27.29 12.4 C27.88 13.96, 28.43 15.67, 28.92 17.45 C29.41 19.24, 29.86 21.15, 30.23 23.12 C30.61 25.09, 30.94 27.16, 31.19 29.26 C31.45 31.36, 31.65 33.54, 31.78 35.72 C31.91 37.9, 31.94 41.24, 31.98 42.34 C32.01 43.45, 32.01 41.24, 31.98 42.34" stroke="transparent" stroke-width="4" fill="none"></path></g><g stroke-linecap="round" transform="translate(779.7888104014 265.82053657456345) rotate(0 49.007568647109906 20.902396036517302)"><path d="M98.02 20.9 C98.02 21.99, 97.81 23.1, 97.41 24.17 C97.01 25.25, 96.41 26.32, 95.62 27.36 C94.83 28.4, 93.83 29.42, 92.67 30.39 C91.51 31.36, 90.16 32.31, 88.66 33.19 C87.15 34.07, 85.47 34.91, 83.66 35.68 C81.85 36.45, 79.88 37.17, 77.81 37.81 C75.75 38.45, 73.53 39.03, 71.26 39.53 C68.98 40.02, 66.58 40.44, 64.15 40.78 C61.72 41.12, 59.2 41.38, 56.67 41.55 C54.15 41.72, 51.56 41.8, 49.01 41.8 C46.45 41.8, 43.87 41.72, 41.34 41.55 C38.82 41.38, 36.29 41.12, 33.86 40.78 C31.43 40.44, 29.04 40.02, 26.76 39.53 C24.48 39.03, 22.27 38.45, 20.2 37.81 C18.13 37.17, 16.16 36.45, 14.35 35.68 C12.55 34.91, 10.86 34.07, 9.36 33.19 C7.86 32.31, 6.5 31.36, 5.34 30.39 C4.18 29.42, 3.19 28.4, 2.4 27.36 C1.61 26.32, 1 25.25, 0.6 24.17 C0.2 23.1, 0 21.99, 0 20.9 C0 19.81, 0.2 18.71, 0.6 17.63 C1 16.56, 1.61 15.48, 2.4 14.44 C3.19 13.41, 4.18 12.38, 5.34 11.41 C6.5 10.44, 7.86 9.5, 9.36 8.62 C10.86 7.73, 12.55 6.89, 14.35 6.12 C16.16 5.35, 18.13 4.63, 20.2 3.99 C22.27 3.35, 24.48 2.77, 26.76 2.28 C29.04 1.78, 31.43 1.36, 33.86 1.02 C36.29 0.69, 38.82 0.43, 41.34 0.26 C43.87 0.09, 46.45 0, 49.01 0 C51.56 0, 54.15 0.09, 56.67 0.26 C59.2 0.43, 61.72 0.69, 64.15 1.02 C66.58 1.36, 68.98 1.78, 71.26 2.28 C73.53 2.77, 75.75 3.35, 77.81 3.99 C79.88 4.63, 81.85 5.35, 83.66 6.12 C85.47 6.89, 87.15 7.73, 88.66 8.62 C90.16 9.5, 91.51 10.44, 92.67 11.41 C93.83 12.38, 94.83 13.41, 95.62 14.44 C96.41 15.48, 97.01 16.56, 97.41 17.63 C97.81 18.71, 97.91 20.36, 98.02 20.9 C98.12 21.45, 98.12 20.36, 98.02 20.9" stroke="none" stroke-width="0" fill="#000000"></path><path d="M98.02 20.9 C98.02 21.99, 97.81 23.1, 97.41 24.17 C97.01 25.25, 96.41 26.32, 95.62 27.36 C94.83 28.4, 93.83 29.42, 92.67 30.39 C91.51 31.36, 90.16 32.31, 88.66 33.19 C87.15 34.07, 85.47 34.91, 83.66 35.68 C81.85 36.45, 79.88 37.17, 77.81 37.81 C75.75 38.45, 73.53 39.03, 71.26 39.53 C68.98 40.02, 66.58 40.44, 64.15 40.78 C61.72 41.12, 59.2 41.38, 56.67 41.55 C54.15 41.72, 51.56 41.8, 49.01 41.8 C46.45 41.8, 43.87 41.72, 41.34 41.55 C38.82 41.38, 36.29 41.12, 33.86 40.78 C31.43 40.44, 29.04 40.02, 26.76 39.53 C24.48 39.03, 22.27 38.45, 20.2 37.81 C18.13 37.17, 16.16 36.45, 14.35 35.68 C12.55 34.91, 10.86 34.07, 9.36 33.19 C7.86 32.31, 6.5 31.36, 5.34 30.39 C4.18 29.42, 3.19 28.4, 2.4 27.36 C1.61 26.32, 1 25.25, 0.6 24.17 C0.2 23.1, 0 21.99, 0 20.9 C0 19.81, 0.2 18.71, 0.6 17.63 C1 16.56, 1.61 15.48, 2.4 14.44 C3.19 13.41, 4.18 12.38, 5.34 11.41 C6.5 10.44, 7.86 9.5, 9.36 8.62 C10.86 7.73, 12.55 6.89, 14.35 6.12 C16.16 5.35, 18.13 4.63, 20.2 3.99 C22.27 3.35, 24.48 2.77, 26.76 2.28 C29.04 1.78, 31.43 1.36, 33.86 1.02 C36.29 0.69, 38.82 0.43, 41.34 0.26 C43.87 0.09, 46.45 0, 49.01 0 C51.56 0, 54.15 0.09, 56.67 0.26 C59.2 0.43, 61.72 0.69, 64.15 1.02 C66.58 1.36, 68.98 1.78, 71.26 2.28 C73.53 2.77, 75.75 3.35, 77.81 3.99 C79.88 4.63, 81.85 5.35, 83.66 6.12 C85.47 6.89, 87.15 7.73, 88.66 8.62 C90.16 9.5, 91.51 10.44, 92.67 11.41 C93.83 12.38, 94.83 13.41, 95.62 14.44 C96.41 15.48, 97.01 16.56, 97.41 17.63 C97.81 18.71, 97.91 20.36, 98.02 20.9 C98.12 21.45, 98.12 20.36, 98.02 20.9" stroke="#000000" stroke-width="4" fill="none"></path></g><g stroke-linecap="round" transform="translate(783.3653971375895 276.9583028087186) rotate(89.00790761471441 12.897623798611107 19.89502800049695)"><path d="M25.8 19.9 C25.8 21.05, 25.73 22.22, 25.6 23.35 C25.47 24.48, 25.27 25.62, 25.02 26.7 C24.76 27.78, 24.44 28.85, 24.07 29.84 C23.69 30.84, 23.26 31.8, 22.78 32.68 C22.3 33.57, 21.76 34.4, 21.19 35.14 C20.62 35.88, 19.99 36.55, 19.35 37.12 C18.7 37.7, 18.01 38.2, 17.31 38.59 C16.61 38.98, 15.87 39.29, 15.14 39.49 C14.4 39.69, 13.64 39.79, 12.9 39.79 C12.15 39.79, 11.39 39.69, 10.66 39.49 C9.92 39.29, 9.19 38.98, 8.49 38.59 C7.78 38.2, 7.1 37.7, 6.45 37.12 C5.8 36.55, 5.18 35.88, 4.61 35.14 C4.04 34.4, 3.5 33.57, 3.02 32.68 C2.54 31.8, 2.1 30.84, 1.73 29.84 C1.35 28.85, 1.03 27.78, 0.78 26.7 C0.52 25.62, 0.33 24.48, 0.2 23.35 C0.07 22.22, 0 21.05, 0 19.9 C0 18.74, 0.07 17.57, 0.2 16.44 C0.33 15.31, 0.52 14.17, 0.78 13.09 C1.03 12.01, 1.35 10.94, 1.73 9.95 C2.1 8.95, 2.54 7.99, 3.02 7.11 C3.5 6.22, 4.04 5.39, 4.61 4.65 C5.18 3.91, 5.8 3.24, 6.45 2.67 C7.1 2.09, 7.78 1.59, 8.49 1.2 C9.19 0.81, 9.92 0.5, 10.66 0.3 C11.39 0.1, 12.15 0, 12.9 0 C13.64 0, 14.4 0.1, 15.14 0.3 C15.87 0.5, 16.61 0.81, 17.31 1.2 C18.01 1.59, 18.7 2.09, 19.35 2.67 C19.99 3.24, 20.62 3.91, 21.19 4.65 C21.76 5.39, 22.3 6.22, 22.78 7.11 C23.26 7.99, 23.69 8.95, 24.07 9.95 C24.44 10.94, 24.76 12.01, 25.02 13.09 C25.27 14.17, 25.47 15.31, 25.6 16.44 C25.73 17.57, 25.76 19.32, 25.8 19.9 C25.83 20.47, 25.83 19.32, 25.8 19.9" stroke="none" stroke-width="0" fill="#fff"></path><path d="M25.8 19.9 C25.8 21.05, 25.73 22.22, 25.6 23.35 C25.47 24.48, 25.27 25.62, 25.02 26.7 C24.76 27.78, 24.44 28.85, 24.07 29.84 C23.69 30.84, 23.26 31.8, 22.78 32.68 C22.3 33.57, 21.76 34.4, 21.19 35.14 C20.62 35.88, 19.99 36.55, 19.35 37.12 C18.7 37.7, 18.01 38.2, 17.31 38.59 C16.61 38.98, 15.87 39.29, 15.14 39.49 C14.4 39.69, 13.64 39.79, 12.9 39.79 C12.15 39.79, 11.39 39.69, 10.66 39.49 C9.92 39.29, 9.19 38.98, 8.49 38.59 C7.78 38.2, 7.1 37.7, 6.45 37.12 C5.8 36.55, 5.18 35.88, 4.61 35.14 C4.04 34.4, 3.5 33.57, 3.02 32.68 C2.54 31.8, 2.1 30.84, 1.73 29.84 C1.35 28.85, 1.03 27.78, 0.78 26.7 C0.52 25.62, 0.33 24.48, 0.2 23.35 C0.07 22.22, 0 21.05, 0 19.9 C0 18.74, 0.07 17.57, 0.2 16.44 C0.33 15.31, 0.52 14.17, 0.78 13.09 C1.03 12.01, 1.35 10.94, 1.73 9.95 C2.1 8.95, 2.54 7.99, 3.02 7.11 C3.5 6.22, 4.04 5.39, 4.61 4.65 C5.18 3.91, 5.8 3.24, 6.45 2.67 C7.1 2.09, 7.78 1.59, 8.49 1.2 C9.19 0.81, 9.92 0.5, 10.66 0.3 C11.39 0.1, 12.15 0, 12.9 0 C13.64 0, 14.4 0.1, 15.14 0.3 C15.87 0.5, 16.61 0.81, 17.31 1.2 C18.01 1.59, 18.7 2.09, 19.35 2.67 C19.99 3.24, 20.62 3.91, 21.19 4.65 C21.76 5.39, 22.3 6.22, 22.78 7.11 C23.26 7.99, 23.69 8.95, 24.07 9.95 C24.44 10.94, 24.76 12.01, 25.02 13.09 C25.27 14.17, 25.47 15.31, 25.6 16.44 C25.73 17.57, 25.76 19.32, 25.8 19.9 C25.83 20.47, 25.83 19.32, 25.8 19.9" stroke="transparent" stroke-width="4" fill="none"></path></g><g stroke-linecap="round" transform="translate(801.8789164923053 289.73202361955146) rotate(0 7.694945090915212 10.493886597860637)"><path d="M15.39 10.49 C15.39 11.1, 15.35 11.72, 15.27 12.32 C15.2 12.91, 15.08 13.51, 14.93 14.08 C14.77 14.65, 14.58 15.21, 14.36 15.74 C14.14 16.27, 13.88 16.77, 13.59 17.24 C13.3 17.7, 12.98 18.14, 12.64 18.53 C12.3 18.92, 11.93 19.28, 11.54 19.58 C11.16 19.89, 10.75 20.15, 10.33 20.35 C9.91 20.56, 9.47 20.72, 9.03 20.83 C8.59 20.93, 8.14 20.99, 7.69 20.99 C7.25 20.99, 6.8 20.93, 6.36 20.83 C5.92 20.72, 5.48 20.56, 5.06 20.35 C4.64 20.15, 4.23 19.89, 3.85 19.58 C3.46 19.28, 3.09 18.92, 2.75 18.53 C2.41 18.14, 2.09 17.7, 1.8 17.24 C1.51 16.77, 1.25 16.27, 1.03 15.74 C0.81 15.21, 0.62 14.65, 0.46 14.08 C0.31 13.51, 0.19 12.91, 0.12 12.32 C0.04 11.72, 0 11.1, 0 10.49 C0 9.89, 0.04 9.27, 0.12 8.67 C0.19 8.07, 0.31 7.48, 0.46 6.9 C0.62 6.33, 0.81 5.77, 1.03 5.25 C1.25 4.72, 1.51 4.21, 1.8 3.75 C2.09 3.28, 2.41 2.85, 2.75 2.46 C3.09 2.06, 3.46 1.71, 3.85 1.41 C4.23 1.1, 4.64 0.84, 5.06 0.63 C5.48 0.43, 5.92 0.26, 6.36 0.16 C6.8 0.05, 7.25 0, 7.69 0 C8.14 0, 8.59 0.05, 9.03 0.16 C9.47 0.26, 9.91 0.43, 10.33 0.63 C10.75 0.84, 11.16 1.1, 11.54 1.41 C11.93 1.71, 12.3 2.06, 12.64 2.46 C12.98 2.85, 13.3 3.28, 13.59 3.75 C13.88 4.21, 14.14 4.72, 14.36 5.25 C14.58 5.77, 14.77 6.33, 14.93 6.9 C15.08 7.48, 15.2 8.07, 15.27 8.67 C15.35 9.27, 15.37 10.19, 15.39 10.49 C15.41 10.8, 15.41 10.19, 15.39 10.49" stroke="none" stroke-width="0" fill="#fff"></path><path d="M15.39 10.49 C15.39 11.1, 15.35 11.72, 15.27 12.32 C15.2 12.91, 15.08 13.51, 14.93 14.08 C14.77 14.65, 14.58 15.21, 14.36 15.74 C14.14 16.27, 13.88 16.77, 13.59 17.24 C13.3 17.7, 12.98 18.14, 12.64 18.53 C12.3 18.92, 11.93 19.28, 11.54 19.58 C11.16 19.89, 10.75 20.15, 10.33 20.35 C9.91 20.56, 9.47 20.72, 9.03 20.83 C8.59 20.93, 8.14 20.99, 7.69 20.99 C7.25 20.99, 6.8 20.93, 6.36 20.83 C5.92 20.72, 5.48 20.56, 5.06 20.35 C4.64 20.15, 4.23 19.89, 3.85 19.58 C3.46 19.28, 3.09 18.92, 2.75 18.53 C2.41 18.14, 2.09 17.7, 1.8 17.24 C1.51 16.77, 1.25 16.27, 1.03 15.74 C0.81 15.21, 0.62 14.65, 0.46 14.08 C0.31 13.51, 0.19 12.91, 0.12 12.32 C0.04 11.72, 0 11.1, 0 10.49 C0 9.89, 0.04 9.27, 0.12 8.67 C0.19 8.07, 0.31 7.48, 0.46 6.9 C0.62 6.33, 0.81 5.77, 1.03 5.25 C1.25 4.72, 1.51 4.21, 1.8 3.75 C2.09 3.28, 2.41 2.85, 2.75 2.46 C3.09 2.06, 3.46 1.71, 3.85 1.41 C4.23 1.1, 4.64 0.84, 5.06 0.63 C5.48 0.43, 5.92 0.26, 6.36 0.16 C6.8 0.05, 7.25 0, 7.69 0 C8.14 0, 8.59 0.05, 9.03 0.16 C9.47 0.26, 9.91 0.43, 10.33 0.63 C10.75 0.84, 11.16 1.1, 11.54 1.41 C11.93 1.71, 12.3 2.06, 12.64 2.46 C12.98 2.85, 13.3 3.28, 13.59 3.75 C13.88 4.21, 14.14 4.72, 14.36 5.25 C14.58 5.77, 14.77 6.33, 14.93 6.9 C15.08 7.48, 15.2 8.07, 15.27 8.67 C15.35 9.27, 15.37 10.19, 15.39 10.49 C15.41 10.8, 15.41 10.19, 15.39 10.49" stroke="transparent" stroke-width="4" fill="none"></path></g><g stroke-linecap="round" transform="translate(838.2050373746583 289.640433466222) rotate(0 7.694945090915212 10.493886597860637)"><path d="M15.39 10.49 C15.39 11.1, 15.35 11.72, 15.27 12.32 C15.2 12.91, 15.08 13.51, 14.93 14.08 C14.77 14.65, 14.58 15.21, 14.36 15.74 C14.14 16.27, 13.88 16.77, 13.59 17.24 C13.3 17.7, 12.98 18.14, 12.64 18.53 C12.3 18.92, 11.93 19.28, 11.54 19.58 C11.16 19.89, 10.75 20.15, 10.33 20.35 C9.91 20.56, 9.47 20.72, 9.03 20.83 C8.59 20.93, 8.14 20.99, 7.69 20.99 C7.25 20.99, 6.8 20.93, 6.36 20.83 C5.92 20.72, 5.48 20.56, 5.06 20.35 C4.64 20.15, 4.23 19.89, 3.85 19.58 C3.46 19.28, 3.09 18.92, 2.75 18.53 C2.41 18.14, 2.09 17.7, 1.8 17.24 C1.51 16.77, 1.25 16.27, 1.03 15.74 C0.81 15.21, 0.62 14.65, 0.46 14.08 C0.31 13.51, 0.19 12.91, 0.12 12.32 C0.04 11.72, 0 11.1, 0 10.49 C0 9.89, 0.04 9.27, 0.12 8.67 C0.19 8.07, 0.31 7.48, 0.46 6.9 C0.62 6.33, 0.81 5.77, 1.03 5.25 C1.25 4.72, 1.51 4.21, 1.8 3.75 C2.09 3.28, 2.41 2.85, 2.75 2.46 C3.09 2.06, 3.46 1.71, 3.85 1.41 C4.23 1.1, 4.64 0.84, 5.06 0.63 C5.48 0.43, 5.92 0.26, 6.36 0.16 C6.8 0.05, 7.25 0, 7.69 0 C8.14 0, 8.59 0.05, 9.03 0.16 C9.47 0.26, 9.91 0.43, 10.33 0.63 C10.75 0.84, 11.16 1.1, 11.54 1.41 C11.93 1.71, 12.3 2.06, 12.64 2.46 C12.98 2.85, 13.3 3.28, 13.59 3.75 C13.88 4.21, 14.14 4.72, 14.36 5.25 C14.58 5.77, 14.77 6.33, 14.93 6.9 C15.08 7.48, 15.2 8.07, 15.27 8.67 C15.35 9.27, 15.37 10.19, 15.39 10.49 C15.41 10.8, 15.41 10.19, 15.39 10.49" stroke="none" stroke-width="0" fill="#fff"></path><path d="M15.39 10.49 C15.39 11.1, 15.35 11.72, 15.27 12.32 C15.2 12.91, 15.08 13.51, 14.93 14.08 C14.77 14.65, 14.58 15.21, 14.36 15.74 C14.14 16.27, 13.88 16.77, 13.59 17.24 C13.3 17.7, 12.98 18.14, 12.64 18.53 C12.3 18.92, 11.93 19.28, 11.54 19.58 C11.16 19.89, 10.75 20.15, 10.33 20.35 C9.91 20.56, 9.47 20.72, 9.03 20.83 C8.59 20.93, 8.14 20.99, 7.69 20.99 C7.25 20.99, 6.8 20.93, 6.36 20.83 C5.92 20.72, 5.48 20.56, 5.06 20.35 C4.64 20.15, 4.23 19.89, 3.85 19.58 C3.46 19.28, 3.09 18.92, 2.75 18.53 C2.41 18.14, 2.09 17.7, 1.8 17.24 C1.51 16.77, 1.25 16.27, 1.03 15.74 C0.81 15.21, 0.62 14.65, 0.46 14.08 C0.31 13.51, 0.19 12.91, 0.12 12.32 C0.04 11.72, 0 11.1, 0 10.49 C0 9.89, 0.04 9.27, 0.12 8.67 C0.19 8.07, 0.31 7.48, 0.46 6.9 C0.62 6.33, 0.81 5.77, 1.03 5.25 C1.25 4.72, 1.51 4.21, 1.8 3.75 C2.09 3.28, 2.41 2.85, 2.75 2.46 C3.09 2.06, 3.46 1.71, 3.85 1.41 C4.23 1.1, 4.64 0.84, 5.06 0.63 C5.48 0.43, 5.92 0.26, 6.36 0.16 C6.8 0.05, 7.25 0, 7.69 0 C8.14 0, 8.59 0.05, 9.03 0.16 C9.47 0.26, 9.91 0.43, 10.33 0.63 C10.75 0.84, 11.16 1.1, 11.54 1.41 C11.93 1.71, 12.3 2.06, 12.64 2.46 C12.98 2.85, 13.3 3.28, 13.59 3.75 C13.88 4.21, 14.14 4.72, 14.36 5.25 C14.58 5.77, 14.77 6.33, 14.93 6.9 C15.08 7.48, 15.2 8.07, 15.27 8.67 C15.35 9.27, 15.37 10.19, 15.39 10.49 C15.41 10.8, 15.41 10.19, 15.39 10.49" stroke="transparent" stroke-width="4" fill="none"></path></g><g stroke-linecap="round" transform="translate(845.3602209378491 278.0494679433741) rotate(89.00790761471441 12.897623798611107 19.89502800049695)"><path d="M25.8 19.9 C25.8 21.05, 25.73 22.22, 25.6 23.35 C25.47 24.48, 25.27 25.62, 25.02 26.7 C24.76 27.78, 24.44 28.85, 24.07 29.84 C23.69 30.84, 23.26 31.8, 22.78 32.68 C22.3 33.57, 21.76 34.4, 21.19 35.14 C20.62 35.88, 19.99 36.55, 19.35 37.12 C18.7 37.7, 18.01 38.2, 17.31 38.59 C16.61 38.98, 15.87 39.29, 15.14 39.49 C14.4 39.69, 13.64 39.79, 12.9 39.79 C12.15 39.79, 11.39 39.69, 10.66 39.49 C9.92 39.29, 9.19 38.98, 8.49 38.59 C7.78 38.2, 7.1 37.7, 6.45 37.12 C5.8 36.55, 5.18 35.88, 4.61 35.14 C4.04 34.4, 3.5 33.57, 3.02 32.68 C2.54 31.8, 2.1 30.84, 1.73 29.84 C1.35 28.85, 1.03 27.78, 0.78 26.7 C0.52 25.62, 0.33 24.48, 0.2 23.35 C0.07 22.22, 0 21.05, 0 19.9 C0 18.74, 0.07 17.57, 0.2 16.44 C0.33 15.31, 0.52 14.17, 0.78 13.09 C1.03 12.01, 1.35 10.94, 1.73 9.95 C2.1 8.95, 2.54 7.99, 3.02 7.11 C3.5 6.22, 4.04 5.39, 4.61 4.65 C5.18 3.91, 5.8 3.24, 6.45 2.67 C7.1 2.09, 7.78 1.59, 8.49 1.2 C9.19 0.81, 9.92 0.5, 10.66 0.3 C11.39 0.1, 12.15 0, 12.9 0 C13.64 0, 14.4 0.1, 15.14 0.3 C15.87 0.5, 16.61 0.81, 17.31 1.2 C18.01 1.59, 18.7 2.09, 19.35 2.67 C19.99 3.24, 20.62 3.91, 21.19 4.65 C21.76 5.39, 22.3 6.22, 22.78 7.11 C23.26 7.99, 23.69 8.95, 24.07 9.95 C24.44 10.94, 24.76 12.01, 25.02 13.09 C25.27 14.17, 25.47 15.31, 25.6 16.44 C25.73 17.57, 25.76 19.32, 25.8 19.9 C25.83 20.47, 25.83 19.32, 25.8 19.9" stroke="none" stroke-width="0" fill="#fff"></path><path d="M25.8 19.9 C25.8 21.05, 25.73 22.22, 25.6 23.35 C25.47 24.48, 25.27 25.62, 25.02 26.7 C24.76 27.78, 24.44 28.85, 24.07 29.84 C23.69 30.84, 23.26 31.8, 22.78 32.68 C22.3 33.57, 21.76 34.4, 21.19 35.14 C20.62 35.88, 19.99 36.55, 19.35 37.12 C18.7 37.7, 18.01 38.2, 17.31 38.59 C16.61 38.98, 15.87 39.29, 15.14 39.49 C14.4 39.69, 13.64 39.79, 12.9 39.79 C12.15 39.79, 11.39 39.69, 10.66 39.49 C9.92 39.29, 9.19 38.98, 8.49 38.59 C7.78 38.2, 7.1 37.7, 6.45 37.12 C5.8 36.55, 5.18 35.88, 4.61 35.14 C4.04 34.4, 3.5 33.57, 3.02 32.68 C2.54 31.8, 2.1 30.84, 1.73 29.84 C1.35 28.85, 1.03 27.78, 0.78 26.7 C0.52 25.62, 0.33 24.48, 0.2 23.35 C0.07 22.22, 0 21.05, 0 19.9 C0 18.74, 0.07 17.57, 0.2 16.44 C0.33 15.31, 0.52 14.17, 0.78 13.09 C1.03 12.01, 1.35 10.94, 1.73 9.95 C2.1 8.95, 2.54 7.99, 3.02 7.11 C3.5 6.22, 4.04 5.39, 4.61 4.65 C5.18 3.91, 5.8 3.24, 6.45 2.67 C7.1 2.09, 7.78 1.59, 8.49 1.2 C9.19 0.81, 9.92 0.5, 10.66 0.3 C11.39 0.1, 12.15 0, 12.9 0 C13.64 0, 14.4 0.1, 15.14 0.3 C15.87 0.5, 16.61 0.81, 17.31 1.2 C18.01 1.59, 18.7 2.09, 19.35 2.67 C19.99 3.24, 20.62 3.91, 21.19 4.65 C21.76 5.39, 22.3 6.22, 22.78 7.11 C23.26 7.99, 23.69 8.95, 24.07 9.95 C24.44 10.94, 24.76 12.01, 25.02 13.09 C25.27 14.17, 25.47 15.31, 25.6 16.44 C25.73 17.57, 25.76 19.32, 25.8 19.9 C25.83 20.47, 25.83 19.32, 25.8 19.9" stroke="transparent" stroke-width="4" fill="none"></path></g><g stroke-linecap="round" transform="translate(808.830867315123 295.257112789915) rotate(0 4.202097735530629 8.048474348090394)"><path d="M2.1 0 C3.35 0, 4.59 0, 6.3 0 C7.7 0, 8.4 0.7, 8.4 2.1 C8.4 5.09, 8.4 8.08, 8.4 14 C8.4 15.4, 7.7 16.1, 6.3 16.1 C5.02 16.1, 3.73 16.1, 2.1 16.1 C0.7 16.1, 0 15.4, 0 14 C0 10.49, 0 6.99, 0 2.1 C0 0.7, 0.7 0, 2.1 0" stroke="none" stroke-width="0" fill="#fff"></path><path d="M2.1 0 C3.57 0, 5.04 0, 6.3 0 M2.1 0 C3.49 0, 4.87 0, 6.3 0 M6.3 0 C7.7 0, 8.4 0.7, 8.4 2.1 M6.3 0 C7.7 0, 8.4 0.7, 8.4 2.1 M8.4 2.1 C8.4 5.56, 8.4 9.02, 8.4 14 M8.4 2.1 C8.4 5.51, 8.4 8.92, 8.4 14 M8.4 14 C8.4 15.4, 7.7 16.1, 6.3 16.1 M8.4 14 C8.4 15.4, 7.7 16.1, 6.3 16.1 M6.3 16.1 C5.2 16.1, 4.09 16.1, 2.1 16.1 M6.3 16.1 C4.68 16.1, 3.06 16.1, 2.1 16.1 M2.1 16.1 C0.7 16.1, 0 15.4, 0 14 M2.1 16.1 C0.7 16.1, 0 15.4, 0 14 M0 14 C0 10.03, 0 6.06, 0 2.1 M0 14 C0 10.05, 0 6.1, 0 2.1 M0 2.1 C0 0.7, 0.7 0, 2.1 0 M0 2.1 C0 0.7, 0.7 0, 2.1 0" stroke="transparent" stroke-width="4" fill="none"></path></g><g stroke-linecap="round" transform="translate(838.0124927970633 296.88216318182685) rotate(0 4.202097735530629 7.372922228220432)"><path d="M2.1 0 C3.17 0, 4.24 0, 6.3 0 C7.7 0, 8.4 0.7, 8.4 2.1 C8.4 5.14, 8.4 8.17, 8.4 12.64 C8.4 14.05, 7.7 14.75, 6.3 14.75 C4.99 14.75, 3.67 14.75, 2.1 14.75 C0.7 14.75, 0 14.05, 0 12.64 C0 10.37, 0 8.09, 0 2.1 C0 0.7, 0.7 0, 2.1 0" stroke="none" stroke-width="0" fill="#fff"></path><path d="M2.1 0 C3.65 0, 5.19 0, 6.3 0 M2.1 0 C3.49 0, 4.88 0, 6.3 0 M6.3 0 C7.7 0, 8.4 0.7, 8.4 2.1 M6.3 0 C7.7 0, 8.4 0.7, 8.4 2.1 M8.4 2.1 C8.4 4.3, 8.4 6.51, 8.4 12.64 M8.4 2.1 C8.4 5.94, 8.4 9.78, 8.4 12.64 M8.4 12.64 C8.4 14.05, 7.7 14.75, 6.3 14.75 M8.4 12.64 C8.4 14.05, 7.7 14.75, 6.3 14.75 M6.3 14.75 C5.39 14.75, 4.47 14.75, 2.1 14.75 M6.3 14.75 C5.43 14.75, 4.56 14.75, 2.1 14.75 M2.1 14.75 C0.7 14.75, 0 14.05, 0 12.64 M2.1 14.75 C0.7 14.75, 0 14.05, 0 12.64 M0 12.64 C0 9.13, 0 5.61, 0 2.1 M0 12.64 C0 8.83, 0 5.01, 0 2.1 M0 2.1 C0 0.7, 0.7 0, 2.1 0 M0 2.1 C0 0.7, 0.7 0, 2.1 0" stroke="transparent" stroke-width="4" fill="none"></path></g><g stroke-opacity="0.6" fill-opacity="0.6" stroke-linecap="round" transform="translate(10 187.52487706303145) rotate(0 258.32214718199566 189.18563422348666)"><path d="M32 0 C143.46 0, 254.93 0, 484.64 0 C505.98 0, 516.64 10.67, 516.64 32 C516.64 103.89, 516.64 175.78, 516.64 346.37 C516.64 367.7, 505.98 378.37, 484.64 378.37 C379.93 378.37, 275.22 378.37, 32 378.37 C10.67 378.37, 0 367.7, 0 346.37 C0 256.86, 0 167.35, 0 32 C0 10.67, 10.67 0, 32 0" stroke="none" stroke-width="0" fill="#b2f2bb"></path><path d="M32 0 C183.74 0, 335.48 0, 484.64 0 M32 0 C168.44 0, 304.89 0, 484.64 0 M484.64 0 C505.98 0, 516.64 10.67, 516.64 32 M484.64 0 C505.98 0, 516.64 10.67, 516.64 32 M516.64 32 C516.64 128.37, 516.64 224.75, 516.64 346.37 M516.64 32 C516.64 138.7, 516.64 245.4, 516.64 346.37 M516.64 346.37 C516.64 367.7, 505.98 378.37, 484.64 378.37 M516.64 346.37 C516.64 367.7, 505.98 378.37, 484.64 378.37 M484.64 378.37 C363.5 378.37, 242.36 378.37, 32 378.37 M484.64 378.37 C341.83 378.37, 199.01 378.37, 32 378.37 M32 378.37 C10.67 378.37, 0 367.7, 0 346.37 M32 378.37 C10.67 378.37, 0 367.7, 0 346.37 M0 346.37 C0 254.89, 0 163.41, 0 32 M0 346.37 C0 257.54, 0 168.72, 0 32 M0 32 C0 10.67, 10.67 0, 32 0 M0 32 C0 10.67, 10.67 0, 32 0" stroke="#d1f7d6" stroke-width="2" fill="none"></path></g><g stroke-linecap="round"><g stroke-opacity="0.5" fill-opacity="0.5" transform="translate(845.8990499181016 318.00166707023664) rotate(0 -175.71632761552394 -23.09064511384804)"><path d="M-0.76 -1.25 C-99.25 -12.53, -197 -24.38, -352.96 -46.85 M-0.75 1.18 C-140.55 -20.53, -281.49 -39.38, -351.35 -46.3" stroke="#e03131" stroke-width="4" fill="none"></path></g><g stroke-opacity="0.5" fill-opacity="0.5" transform="translate(845.8990499181016 318.00166707023664) rotate(0 -175.71632761552394 -23.09064511384804)"><path d="M-349.39 -47.19 L-338.84 -51.63 L-339.63 -38.59 L-352.64 -47.24" stroke="none" stroke-width="0" fill="#e03131" fill-rule="evenodd"></path><path d="M-351.79 -47.03 C-347.25 -46.95, -342.04 -47.57, -338.01 -51.44 M-351.78 -45.61 C-345.85 -48.12, -340.6 -50.27, -337.07 -51.12 M-337.4 -50.98 C-337.07 -46.86, -338.58 -40.54, -337.44 -38.75 M-336.6 -50.58 C-337.85 -45.43, -338.31 -41.46, -338.77 -38.49 M-337.82 -39.46 C-343.4 -40.6, -349.37 -45.65, -350.54 -47.25 M-339.25 -37.97 C-342.99 -40.47, -347.18 -43.04, -351.42 -46.62 M-351.35 -46.3 C-351.35 -46.3, -351.35 -46.3, -351.35 -46.3 M-351.35 -46.3 C-351.35 -46.3, -351.35 -46.3, -351.35 -46.3" stroke="#e03131" stroke-width="4" fill="none"></path></g></g><mask></mask><g stroke-linecap="round"><g stroke-opacity="0.5" fill-opacity="0.5" transform="translate(804.2589608999731 330.9316631777215) rotate(0 -146.6608575011188 -3.0999192320359725)"><path d="M0.04 1.34 C-81.81 -1.11, -170.15 -6.46, -290.37 -6.07 M-0.36 0.01 C-75.41 1.96, -148.4 0.73, -292.11 -4.97" stroke="#e03131" stroke-width="4" fill="none"></path></g><g stroke-opacity="0.5" fill-opacity="0.5" transform="translate(804.2589608999731 330.9316631777215) rotate(0 -146.6608575011188 -3.0999192320359725)"><path d="M-293.82 -5.56 L-279.36 -10.97 L-280.03 0.9 L-292.06 -6.4" stroke="none" stroke-width="0" fill="#e03131" fill-rule="evenodd"></path><path d="M-292.08 -4.3 C-286.93 -5.17, -285.05 -8.66, -276.81 -10.76 M-292.29 -4.97 C-289.18 -6.83, -285.03 -8.14, -277.68 -10.21 M-277.8 -11.44 C-278.91 -6.17, -277.47 -3.6, -277.51 2.61 M-278.53 -10.2 C-278.41 -8.36, -278.6 -5.11, -278.16 2.29 M-278.51 2.69 C-284.4 -1.87, -287.77 -4.2, -291.64 -5.03 M-278.94 2.4 C-283.05 0.38, -287.16 -2.68, -292.45 -5.38 M-292.11 -4.97 C-292.11 -4.97, -292.11 -4.97, -292.11 -4.97 M-292.11 -4.97 C-292.11 -4.97, -292.11 -4.97, -292.11 -4.97" stroke="#e03131" stroke-width="4" fill="none"></path></g></g><mask></mask><g stroke-linecap="round" transform="translate(964.4172947085885 10) rotate(0 33.00458836252477 32.988525390625)"><path d="M38.79 0.02 C44.69 0.74, 51.33 5.37, 55.88 9.89 C60.44 14.41, 65.13 20.89, 66.12 27.13 C67.11 33.38, 64.81 41.63, 61.84 47.37 C58.87 53.1, 53.89 58.64, 48.29 61.55 C42.68 64.47, 34.79 65.67, 28.21 64.85 C21.64 64.03, 13.55 60.96, 8.82 56.65 C4.1 52.34, 0.67 45.58, -0.11 38.98 C-0.89 32.39, 1.29 23.13, 4.17 17.07 C7.04 11.01, 10.95 5.24, 17.13 2.63 C23.3 0.03, 36.67 1.38, 41.23 1.44 C45.78 1.49, 44.49 2.46, 44.44 2.99 M45.56 1.35 C51.16 3.56, 56.41 10.65, 59.82 16.04 C63.22 21.43, 66.15 27.14, 65.99 33.68 C65.83 40.23, 63.23 50.19, 58.86 55.31 C54.5 60.43, 46.02 62.92, 39.8 64.43 C33.59 65.93, 27.42 66.52, 21.56 64.34 C15.71 62.16, 8.04 56.88, 4.68 51.34 C1.33 45.81, 1.14 37.61, 1.42 31.13 C1.7 24.65, 2.33 17.67, 6.36 12.47 C10.39 7.26, 19.2 1.71, 25.61 -0.09 C32.01 -1.9, 41.46 1.28, 44.78 1.63 C48.1 1.97, 45.47 1.47, 45.52 2" stroke="none" stroke-width="0" fill="#fff"></path><path d="M48.74 2.94 C54.34 5.36, 59.03 11.98, 61.91 18.13 C64.8 24.28, 67.14 33.54, 66.05 39.85 C64.96 46.16, 60.19 51.75, 55.38 55.97 C50.56 60.18, 43.5 64.24, 37.15 65.14 C30.81 66.05, 23.03 64.37, 17.3 61.4 C11.58 58.43, 5.72 52.98, 2.8 47.34 C-0.11 41.69, -1.5 34.04, -0.18 27.55 C1.13 21.06, 5.89 12.82, 10.69 8.41 C15.5 4, 21.3 0.9, 28.64 1.06 C35.99 1.22, 49.52 6.93, 54.77 9.38 C60.02 11.83, 60.42 15.61, 60.14 15.77 M19.76 2.55 C24.77 -0.54, 32.21 -1.22, 38.2 0.12 C44.19 1.46, 50.9 5.81, 55.71 10.57 C60.52 15.34, 65.82 22.24, 67.04 28.7 C68.27 35.16, 66.42 43.68, 63.07 49.33 C59.71 54.98, 52.87 60.07, 46.93 62.6 C40.99 65.14, 33.96 65.87, 27.41 64.52 C20.86 63.18, 12.19 59.04, 7.63 54.55 C3.07 50.06, 0.86 43.65, 0.04 37.56 C-0.79 31.48, -0.46 23.98, 2.68 18.03 C5.81 12.09, 16.02 4.18, 18.85 1.9 C21.67 -0.37, 19.26 3.76, 19.62 4.38" stroke="#000000" stroke-width="1" fill="none"></path></g><g stroke-linecap="round" transform="translate(978.2684550946183 15.212986366421319) rotate(0 40.130859375 40.111328125)"><path d="M42.55 -0.59 C49.43 -0.66, 58.69 2.82, 64.64 7.17 C70.59 11.51, 75.93 18.47, 78.25 25.46 C80.57 32.46, 80.28 41.8, 78.57 49.13 C76.85 56.47, 72.86 64.59, 67.95 69.48 C63.04 74.37, 56.26 77.27, 49.1 78.48 C41.95 79.7, 31.86 79.08, 25.04 76.75 C18.21 74.43, 12.16 70.08, 8.16 64.53 C4.16 58.99, 1.46 50.7, 1.05 43.48 C0.63 36.26, 2.23 27.61, 5.68 21.23 C9.13 14.85, 15.26 8.64, 21.73 5.2 C28.19 1.75, 40.26 1.29, 44.48 0.56 C48.69 -0.18, 46.85 0.16, 47 0.79 M19.78 4.26 C25.62 0.42, 36.66 0.06, 44.02 0.83 C51.38 1.61, 58.1 4.6, 63.96 8.9 C69.82 13.2, 76.81 19.86, 79.16 26.62 C81.5 33.38, 79.7 42.62, 78.02 49.44 C76.33 56.26, 74.07 62.66, 69.06 67.53 C64.05 72.39, 55.08 77.1, 47.97 78.62 C40.86 80.14, 32.92 79.19, 26.41 76.64 C19.9 74.1, 13.4 68.83, 8.92 63.34 C4.44 57.86, 0.03 50.91, -0.47 43.75 C-0.98 36.58, 2.41 26.88, 5.87 20.35 C9.33 13.82, 17.52 6.88, 20.3 4.59 C23.08 2.29, 22.33 5.95, 22.55 6.59" stroke="none" stroke-width="0" fill="#fff"></path><path d="M39.61 -0.54 C46.56 -0.72, 56.53 3.61, 62.65 7.51 C68.76 11.41, 73.5 16.52, 76.31 22.86 C79.13 29.21, 80.54 38.4, 79.52 45.58 C78.5 52.77, 75 60.44, 70.19 65.96 C65.39 71.48, 57.74 76.54, 50.68 78.71 C43.62 80.87, 34.58 81.17, 27.82 78.95 C21.06 76.74, 14.67 70.85, 10.11 65.41 C5.55 59.96, 1.58 53.19, 0.45 46.28 C-0.69 39.38, 0.24 30.54, 3.32 23.98 C6.39 17.42, 12.28 11.02, 18.92 6.93 C25.55 2.83, 38.85 0.25, 43.13 -0.58 C47.41 -1.42, 44.66 1.05, 44.6 1.91 M31.37 0.79 C38.41 -0.98, 49.43 -0.04, 56.55 2.73 C63.68 5.51, 70.2 11.51, 74.14 17.42 C78.07 23.33, 79.95 31.16, 80.17 38.18 C80.38 45.19, 79.28 53.4, 75.43 59.52 C71.57 65.64, 63.64 71.41, 57.04 74.91 C50.45 78.41, 43.09 80.94, 35.86 80.53 C28.64 80.13, 19.34 77.28, 13.69 72.5 C8.04 67.71, 3.99 58.7, 1.95 51.8 C-0.08 44.9, -0.37 37.99, 1.51 31.09 C3.38 24.2, 8.17 15.51, 13.21 10.41 C18.26 5.3, 28.4 1.73, 31.77 0.46 C35.13 -0.81, 33.34 1.97, 33.4 2.79" stroke="#000000" stroke-width="1" fill="none"></path></g><g stroke-linecap="round" transform="translate(1009.1283183758683 14.504739200368931) rotate(0 40.130859375 40.111328125)"><path d="M24.69 2.37 C30.95 -0.85, 40.29 -1.56, 47.23 -0.16 C54.17 1.25, 61.14 5.69, 66.33 10.82 C71.52 15.95, 76.29 23.86, 78.38 30.63 C80.48 37.4, 81.16 44.86, 78.89 51.44 C76.61 58.02, 70.35 65.28, 64.72 70.1 C59.1 74.92, 52 79.26, 45.14 80.38 C38.29 81.5, 30.01 79.95, 23.59 76.79 C17.17 73.64, 10.42 67.64, 6.62 61.43 C2.82 55.22, 0.89 46.79, 0.77 39.53 C0.65 32.27, 1.02 24.39, 5.89 17.87 C10.75 11.35, 24.65 3.22, 29.95 0.4 C35.25 -2.42, 37.59 0.11, 37.7 0.94 M56.74 3.96 C63.43 6.36, 68.83 12.48, 72.97 18.4 C77.11 24.32, 81.57 32.29, 81.6 39.48 C81.62 46.68, 76.99 55.65, 73.11 61.58 C69.24 67.52, 64.74 72.15, 58.37 75.09 C52 78.03, 42.1 80.05, 34.88 79.21 C27.67 78.37, 20.41 74.65, 15.09 70.07 C9.77 65.48, 5.33 58.25, 2.95 51.69 C0.57 45.13, -1.03 37.65, 0.81 30.72 C2.65 23.79, 8.68 15.15, 14 10.08 C19.31 5.02, 25.52 1.3, 32.69 0.34 C39.86 -0.62, 53.42 3.7, 57.01 4.32 C60.59 4.94, 54.75 3.5, 54.2 4.07" stroke="none" stroke-width="0" fill="#fff"></path><path d="M21.48 5.88 C27.3 2.04, 35.49 -1.02, 42.56 -0.76 C49.63 -0.49, 58.05 3.1, 63.9 7.47 C69.75 11.84, 75.17 18.6, 77.67 25.46 C80.16 32.33, 80.52 41.43, 78.87 48.68 C77.23 55.92, 72.74 63.94, 67.78 68.92 C62.83 73.91, 56.09 76.98, 49.15 78.57 C42.22 80.16, 33.1 80.72, 26.17 78.45 C19.24 76.18, 11.87 70.73, 7.56 64.94 C3.25 59.14, 0.75 51.14, 0.33 43.68 C-0.09 36.22, 1 26.88, 5.03 20.19 C9.07 13.5, 20.31 6.48, 24.54 3.54 C28.76 0.6, 30.05 2.15, 30.38 2.53 M35.05 0.28 C42.17 -1.32, 50.97 0.85, 57.37 3.73 C63.77 6.62, 69.54 11.79, 73.47 17.6 C77.39 23.41, 81 31.48, 80.92 38.59 C80.84 45.7, 76.94 53.9, 72.98 60.27 C69.03 66.64, 63.75 73.39, 57.19 76.83 C50.63 80.27, 40.8 82.1, 33.63 80.91 C26.47 79.71, 19.43 74.35, 14.18 69.65 C8.93 64.96, 4.16 59.51, 2.14 52.72 C0.11 45.94, 0.34 36.06, 2.04 28.94 C3.75 21.82, 6.98 14.53, 12.35 10.01 C17.71 5.5, 30.89 3.15, 34.24 1.83 C37.6 0.5, 32.57 1.75, 32.5 2.06" stroke="#000000" stroke-width="1" fill="none"></path></g><g stroke-linecap="round" transform="translate(1045.9720683758683 14.504739200368931) rotate(0 40.130859375 40.111328125)"><path d="M26.81 1.75 C32.87 -0.93, 41.23 -0.47, 48.13 1.39 C55.02 3.24, 62.87 7.93, 68.17 12.86 C73.47 17.79, 78.5 24.21, 79.91 30.97 C81.32 37.73, 79.27 46.46, 76.65 53.43 C74.04 60.4, 69.69 68.26, 64.2 72.81 C58.71 77.35, 50.84 80.25, 43.71 80.72 C36.59 81.19, 27.79 79.15, 21.43 75.61 C15.07 72.07, 9.28 65.86, 5.56 59.46 C1.84 53.07, -1.18 44.61, -0.86 37.23 C-0.55 29.84, 2.53 21.05, 7.47 15.15 C12.41 9.25, 25.08 3.95, 28.76 1.81 C32.45 -0.33, 29.33 1.82, 29.59 2.31 M32.55 1.41 C39.3 -0.43, 50.25 0.62, 56.79 3.35 C63.32 6.08, 67.76 12.08, 71.78 17.78 C75.81 23.47, 80.54 30.52, 80.94 37.52 C81.34 44.53, 77.91 53.56, 74.2 59.8 C70.48 66.05, 64.87 71.72, 58.66 74.98 C52.45 78.25, 44.31 79.81, 36.94 79.37 C29.57 78.94, 20.1 76.86, 14.43 72.38 C8.76 67.89, 5.26 59.55, 2.93 52.49 C0.59 45.43, -1.38 36.8, 0.44 30.03 C2.25 23.26, 8.63 16.76, 13.82 11.87 C19 6.99, 28.43 2.34, 31.54 0.74 C34.64 -0.87, 32.2 1.39, 32.46 2.25" stroke="none" stroke-width="0" fill="#fff"></path><path d="M29.03 0.58 C35.36 -2.04, 44.83 -0.9, 51.79 1.29 C58.76 3.48, 66.22 8.08, 70.83 13.71 C75.44 19.35, 78.67 27.75, 79.47 35.1 C80.28 42.45, 78.59 51.43, 75.64 57.83 C72.68 64.22, 67.78 69.62, 61.76 73.47 C55.74 77.33, 46.92 80.84, 39.53 80.98 C32.15 81.11, 23.42 78.3, 17.43 74.29 C11.44 70.27, 6.38 63.75, 3.58 56.88 C0.78 50, -0.34 40.18, 0.63 33.05 C1.59 25.92, 4.32 19.33, 9.37 14.08 C14.42 8.83, 27.14 3.78, 30.92 1.57 C34.71 -0.63, 31.99 0.44, 32.09 0.85 M42.8 0.41 C49.46 0.09, 57.16 3.01, 63.01 6.93 C68.86 10.86, 75.34 17.4, 77.89 23.97 C80.45 30.53, 79.79 38.99, 78.35 46.33 C76.91 53.67, 74.21 62.4, 69.25 68.01 C64.28 73.62, 55.55 78.51, 48.55 80 C41.55 81.49, 33.79 79.3, 27.22 76.95 C20.66 74.6, 13.56 71.42, 9.16 65.9 C4.76 60.39, 1.81 51.17, 0.82 43.83 C-0.16 36.49, 0.04 28.03, 3.27 21.88 C6.5 15.72, 14.03 10.42, 20.19 6.9 C26.35 3.39, 36.77 1.93, 40.23 0.78 C43.7 -0.36, 40.74 -0.65, 40.98 0.02" stroke="#000000" stroke-width="1" fill="none"></path></g><g stroke-linecap="round" transform="translate(1090.7103496258683 14.504739200368931) rotate(0 40.130859375 40.111328125)"><path d="M22.24 4.26 C28.05 1.09, 37.46 0.56, 44.84 1.29 C52.23 2.02, 61.1 4.28, 66.54 8.63 C71.99 12.98, 75.42 20.29, 77.49 27.41 C79.57 34.54, 80.6 44.16, 78.98 51.37 C77.35 58.58, 73.06 65.88, 67.74 70.67 C62.42 75.47, 54.25 79.07, 47.08 80.15 C39.9 81.22, 31.58 80.09, 24.68 77.13 C17.78 74.18, 9.89 68.64, 5.66 62.43 C1.44 56.22, -0.81 47.13, -0.67 39.88 C-0.53 32.62, 2.09 25.11, 6.53 18.89 C10.97 12.67, 21.71 5.54, 25.96 2.55 C30.22 -0.44, 31.72 0.28, 32.04 0.95 M50.97 1.46 C57.63 2.5, 63.03 8.04, 67.91 13.04 C72.79 18.04, 78.75 24.56, 80.25 31.44 C81.75 38.32, 79.63 47.58, 76.9 54.32 C74.18 61.05, 69.54 67.62, 63.9 71.83 C58.26 76.04, 50.46 78.89, 43.06 79.55 C35.66 80.22, 25.77 79.4, 19.48 75.83 C13.19 72.26, 8.65 64.75, 5.3 58.12 C1.95 51.5, -1.34 43.02, -0.61 36.06 C0.12 29.1, 5.3 22.01, 9.67 16.38 C14.04 10.75, 19.07 4.69, 25.62 2.29 C32.17 -0.12, 45.11 1.79, 48.98 1.95 C52.85 2.1, 48.71 2.49, 48.82 3.21" stroke="none" stroke-width="0" fill="#fff"></path><path d="M58.75 4.2 C65.14 6.97, 71.61 13.52, 75.11 19.92 C78.6 26.33, 80.27 35.23, 79.72 42.63 C79.16 50.03, 75.88 58.6, 71.76 64.29 C67.64 69.99, 61.62 74.18, 55 76.82 C48.38 79.46, 39.28 81.36, 32.04 80.15 C24.8 78.93, 16.71 74.61, 11.58 69.53 C6.44 64.46, 2.73 57.01, 1.22 49.72 C-0.29 42.42, 0.24 32.54, 2.52 25.75 C4.8 18.96, 9.18 13.15, 14.91 8.97 C20.65 4.78, 28.93 1, 36.94 0.62 C44.96 0.24, 58.07 5.09, 62.99 6.7 C67.91 8.3, 66.76 9.45, 66.45 10.25 M37.01 -0.15 C43.73 -1.44, 53.69 0.64, 59.85 3.96 C66.02 7.27, 70.64 13.19, 74 19.75 C77.35 26.3, 80.47 35.75, 79.96 43.29 C79.45 50.83, 75.23 59.47, 70.93 64.99 C66.63 70.52, 60.64 73.92, 54.17 76.42 C47.7 78.92, 39.06 81.41, 32.11 80.02 C25.17 78.64, 17.86 73.34, 12.5 68.11 C7.14 62.87, 1.55 55.36, -0.05 48.61 C-1.64 41.86, 0.51 34.22, 2.94 27.6 C5.37 20.98, 8.94 13.59, 14.53 8.88 C20.11 4.16, 32.65 0.51, 36.46 -0.7 C40.26 -1.9, 37.4 0.99, 37.35 1.67" stroke="#000000" stroke-width="1" fill="none"></path></g><g stroke-linecap="round" transform="translate(1137.4876933758683 14.504739200368931) rotate(0 40.130859375 40.111328125)"><path d="M25.81 3.4 C32.28 0.3, 42.41 -1.14, 49.39 0.12 C56.36 1.39, 62.63 5.63, 67.66 10.99 C72.7 16.34, 77.77 24.92, 79.59 32.24 C81.42 39.56, 81.08 48.16, 78.61 54.91 C76.13 61.66, 70.59 68.5, 64.74 72.76 C58.9 77.01, 51.04 80.02, 43.54 80.46 C36.04 80.91, 26.3 79.09, 19.73 75.42 C13.16 71.74, 7.33 64.8, 4.14 58.41 C0.94 52.02, 0.04 44.1, 0.54 37.07 C1.05 30.05, 2.08 22.35, 7.14 16.23 C12.21 10.12, 26.49 2.8, 30.94 0.39 C35.38 -2.01, 33.7 1.04, 33.81 1.79 M49 1.89 C55.68 2.85, 65.34 6.74, 70.37 11.84 C75.4 16.94, 77.98 25.34, 79.19 32.49 C80.4 39.63, 80.18 48.02, 77.63 54.7 C75.08 61.38, 70.02 68.15, 63.87 72.57 C57.73 76.98, 48.03 80.94, 40.77 81.2 C33.51 81.47, 26.55 78.07, 20.31 74.15 C14.07 70.22, 6.51 63.89, 3.35 57.65 C0.18 51.4, 0.61 43.81, 1.33 36.68 C2.04 29.54, 3.33 20.5, 7.61 14.85 C11.9 9.2, 20.03 4.83, 27.04 2.79 C34.05 0.75, 45.67 2.51, 49.67 2.6 C53.67 2.68, 51.01 2.78, 51.02 3.29" stroke="none" stroke-width="0" fill="#fff"></path><path d="M23.35 3 C29.34 -0.28, 38.28 -0.78, 45.33 0.43 C52.39 1.63, 60.04 5.61, 65.67 10.21 C71.3 14.81, 76.95 21.04, 79.13 28.03 C81.3 35.02, 80.91 44.94, 78.73 52.14 C76.54 59.33, 71.44 66.47, 66 71.2 C60.57 75.93, 53.17 79.74, 46.11 80.53 C39.04 81.32, 30.38 78.92, 23.61 75.93 C16.85 72.94, 9.45 68.45, 5.52 62.57 C1.59 56.69, -0.03 48.11, 0.04 40.64 C0.12 33.17, 1.52 24.32, 5.98 17.75 C10.44 11.18, 22.61 3.73, 26.81 1.23 C31.02 -1.28, 30.98 1.78, 31.23 2.7 M45.84 -0.53 C52.53 -0.35, 59.24 3.53, 64.64 8.4 C70.04 13.27, 76.11 21.46, 78.23 28.69 C80.35 35.92, 79.29 45.09, 77.37 51.78 C75.46 58.46, 71.83 64.01, 66.74 68.78 C61.64 73.55, 53.83 79.12, 46.82 80.39 C39.81 81.65, 31.52 79.41, 24.67 76.36 C17.82 73.32, 9.76 67.84, 5.73 62.13 C1.7 56.42, 0.67 49.16, 0.49 42.1 C0.3 35.03, 1 26.25, 4.62 19.75 C8.25 13.25, 15.45 6.21, 22.24 3.09 C29.04 -0.02, 41.8 1.53, 45.4 1.07 C49 0.61, 44.16 -0.31, 43.86 0.33" stroke="#000000" stroke-width="1" fill="none"></path></g><g stroke-linecap="round" transform="translate(966.3860447085885 53.318158318015776) rotate(0 40.130859375 40.111328125)"><path d="M49 0.04 C55.75 0.61, 62.29 5.4, 67.38 10.7 C72.46 16.01, 77.61 24.54, 79.51 31.85 C81.4 39.15, 81.15 47.76, 78.75 54.54 C76.34 61.31, 70.86 68.2, 65.06 72.52 C59.26 76.83, 51.44 79.92, 43.94 80.44 C36.44 80.95, 26.68 79.22, 20.08 75.61 C13.48 72, 7.59 65.11, 4.33 58.76 C1.07 52.4, 0.09 44.51, 0.52 37.47 C0.95 30.44, 2.53 22.51, 6.9 16.55 C11.28 10.6, 19.6 4.18, 26.74 1.72 C33.88 -0.74, 45.55 1.71, 49.76 1.8 C53.96 1.88, 52 1.51, 51.98 2.22 M45.08 -0.88 C52.11 -0.93, 59.2 3.57, 64.8 8.12 C70.41 12.67, 76.16 19.56, 78.71 26.43 C81.25 33.3, 82.03 42.03, 80.07 49.36 C78.11 56.7, 72.27 65.46, 66.95 70.44 C61.63 75.41, 55.31 78.15, 48.15 79.24 C41 80.33, 30.67 79.5, 24.02 76.97 C17.37 74.45, 12.5 69.99, 8.26 64.11 C4.03 58.22, -0.84 48.95, -1.39 41.68 C-1.94 34.41, 1.14 26.51, 4.96 20.49 C8.77 14.47, 14.79 8.73, 21.52 5.55 C28.24 2.38, 41.44 2.11, 45.32 1.44 C49.19 0.77, 44.91 0.91, 44.77 1.51" stroke="none" stroke-width="0" fill="#fff"></path><path d="M29.07 1.45 C35.44 -0.73, 44.37 0.24, 51.43 2.28 C58.5 4.32, 66.68 8.06, 71.44 13.67 C76.21 19.27, 79.29 28.47, 80.03 35.9 C80.77 43.33, 78.98 51.74, 75.88 58.25 C72.78 64.76, 67.49 71.42, 61.43 74.97 C55.36 78.52, 46.92 79.66, 39.51 79.53 C32.09 79.4, 22.96 78.02, 16.94 74.19 C10.92 70.37, 6.16 63.46, 3.37 56.59 C0.57 49.72, -0.95 40.33, 0.15 32.96 C1.25 25.59, 4.65 17.56, 9.97 12.35 C15.3 7.14, 28 3.42, 32.08 1.69 C36.16 -0.04, 34.3 1.47, 34.46 1.97 M35.31 -0.81 C41.95 -1.75, 52.15 1.41, 58.53 5.09 C64.91 8.77, 69.98 15.28, 73.57 21.28 C77.15 27.27, 80.12 33.91, 80.03 41.07 C79.93 48.23, 77.09 58.28, 72.99 64.26 C68.89 70.24, 62.36 74.44, 55.41 76.94 C48.46 79.43, 38.4 80.34, 31.28 79.23 C24.17 78.12, 18 75.14, 12.74 70.29 C7.47 65.43, 1.52 57.47, -0.32 50.08 C-2.16 42.69, -1 32.76, 1.68 25.94 C4.36 19.12, 10.13 13.6, 15.74 9.18 C21.35 4.75, 32.04 0.65, 35.35 -0.62 C38.66 -1.89, 35.54 0.64, 35.58 1.56" stroke="#000000" stroke-width="1" fill="none"></path></g><g stroke-linecap="round" transform="translate(964.4172947085885 101.15478515625) rotate(0 33.00458836252477 32.988525390625)"><path d="M21.14 2.97 C26.96 0.23, 36.4 -1.04, 42.54 0.42 C48.67 1.87, 54.02 6.4, 57.96 11.7 C61.9 17, 65.62 25.49, 66.19 32.2 C66.76 38.9, 64.88 46.58, 61.36 51.95 C57.85 57.31, 51.21 62.18, 45.11 64.36 C39.01 66.55, 31.26 66.85, 24.75 65.05 C18.24 63.25, 10.3 58.83, 6.07 53.57 C1.83 48.31, -0.64 39.97, -0.65 33.49 C-0.66 27, 1.89 20.02, 6.02 14.65 C10.15 9.28, 20.19 3.72, 24.11 1.29 C28.03 -1.14, 29.32 -0.5, 29.55 0.07 M42.16 1.25 C48.08 2.24, 52.81 7.54, 56.89 12.23 C60.96 16.92, 66 23.17, 66.62 29.4 C67.25 35.62, 64.05 44.06, 60.62 49.58 C57.19 55.1, 51.78 60.06, 46.05 62.53 C40.33 65.01, 32.71 65.62, 26.25 64.42 C19.79 63.22, 11.5 60.21, 7.28 55.33 C3.06 50.45, 1.47 41.78, 0.95 35.13 C0.42 28.49, 0.69 20.72, 4.12 15.45 C7.55 10.19, 15.66 5.96, 21.54 3.55 C27.42 1.15, 36.31 1.22, 39.39 1.02 C42.47 0.83, 40.01 1.65, 40.01 2.39" stroke="none" stroke-width="0" fill="#fff"></path><path d="M21.84 2.14 C27.68 -0.36, 37.15 -1.21, 43.45 0.79 C49.75 2.79, 55.94 8.69, 59.62 14.14 C63.31 19.6, 65.49 27.06, 65.57 33.52 C65.65 39.98, 63.76 47.87, 60.09 52.88 C56.43 57.89, 49.89 61.54, 43.58 63.59 C37.26 65.64, 28.37 66.94, 22.19 65.19 C16.01 63.44, 10.26 58.53, 6.51 53.09 C2.75 47.65, -0.25 39.25, -0.37 32.55 C-0.48 25.85, 1.49 18.02, 5.83 12.88 C10.17 7.74, 21.86 3.56, 25.66 1.7 C29.46 -0.16, 28.48 1.33, 28.63 1.72 M28.81 -0.83 C34.75 -1.59, 44.23 1.55, 49.74 5.2 C55.26 8.85, 59.38 15.39, 61.92 21.05 C64.46 26.71, 66.15 32.91, 65 39.15 C63.85 45.4, 59.76 54.16, 55.02 58.52 C50.27 62.89, 43.2 64.92, 36.54 65.34 C29.87 65.76, 20.62 64.09, 15.05 61.07 C9.48 58.06, 5.73 53.03, 3.13 47.25 C0.53 41.46, -1.82 33.03, -0.56 26.38 C0.7 19.72, 5.56 11.56, 10.7 7.31 C15.84 3.07, 27.26 2.1, 30.29 0.88 C33.33 -0.34, 29.08 -0.52, 28.92 0.01" stroke="#000000" stroke-width="1" fill="none"></path></g><g stroke-linecap="round" transform="translate(1001.4915996258683 86.18930951286893) rotate(0 40.130859375 40.111328125)"><path d="M24 3.92 C30.37 0.86, 39.92 -0.04, 47.16 1.05 C54.39 2.13, 62.03 5.7, 67.42 10.45 C72.81 15.19, 77.81 22.57, 79.5 29.49 C81.19 36.42, 79.89 45.23, 77.55 51.97 C75.21 58.71, 70.73 65.27, 65.46 69.92 C60.18 74.58, 53.12 78.76, 45.9 79.9 C38.68 81.04, 28.62 79.99, 22.14 76.77 C15.65 73.56, 10.73 66.7, 6.98 60.61 C3.23 54.53, -0.37 47.41, -0.36 40.28 C-0.35 33.15, 1.54 24.28, 7.05 17.85 C12.56 11.42, 27.02 4.67, 32.71 1.69 C38.4 -1.29, 41.07 -0.63, 41.18 -0.04 M26.2 1.72 C32.66 -1.26, 42.37 -1.59, 49.27 0.2 C56.18 1.99, 62.49 7.33, 67.63 12.43 C72.77 17.53, 78.52 23.96, 80.1 30.81 C81.68 37.65, 79.51 46.46, 77.09 53.5 C74.68 60.54, 71.45 68.59, 65.61 73.03 C59.76 77.48, 49.52 79.62, 42.02 80.18 C34.53 80.73, 26.9 79.53, 20.65 76.34 C14.4 73.15, 7.79 67.26, 4.51 61.02 C1.24 54.78, 0.4 46.26, 1.01 38.91 C1.63 31.56, 4.01 22.82, 8.22 16.92 C12.43 11.03, 23.17 5.55, 26.26 3.55 C29.35 1.55, 26.51 4.35, 26.75 4.92" stroke="none" stroke-width="0" fill="#fff"></path><path d="M41.13 -0.74 C48.14 -1.16, 56.44 3.16, 62.32 7.4 C68.2 11.64, 73.45 18.09, 76.4 24.7 C79.35 31.3, 81.03 40.13, 80.01 47.03 C78.98 53.92, 75.24 60.65, 70.25 66.06 C65.27 71.47, 57.06 77.33, 50.09 79.48 C43.11 81.63, 35.22 81.31, 28.39 78.95 C21.57 76.58, 13.84 71.05, 9.11 65.3 C4.38 59.54, 0.89 51.3, 0.02 44.39 C-0.84 37.49, 0.8 30.11, 3.91 23.86 C7.02 17.61, 12.14 10.85, 18.7 6.89 C25.26 2.92, 38.86 0.95, 43.26 0.06 C47.66 -0.82, 45.28 1.05, 45.09 1.58 M26 3.06 C32.34 0.07, 42.56 -1.69, 49.86 0.04 C57.17 1.77, 64.75 8.04, 69.81 13.44 C74.87 18.84, 79.15 25.5, 80.22 32.47 C81.29 39.43, 78.99 48.24, 76.21 55.22 C73.42 62.21, 69.52 70.08, 63.51 74.37 C57.51 78.66, 47.6 81.05, 40.19 80.95 C32.78 80.86, 25.01 77.49, 19.06 73.8 C13.1 70.12, 7.81 65.29, 4.47 58.83 C1.13 52.37, -1.55 42.27, -0.99 35.06 C-0.43 27.85, 3.3 20.94, 7.82 15.56 C12.34 10.18, 22.98 5.1, 26.12 2.79 C29.26 0.48, 26.1 1.29, 26.64 1.68" stroke="#000000" stroke-width="1" fill="none"></path></g><g stroke-linecap="round" transform="translate(1038.3353496258683 86.18930951286893) rotate(0 40.130859375 40.111328125)"><path d="M23.41 4.68 C29.42 1.14, 38.33 -0.12, 45.48 0.67 C52.63 1.46, 61.02 4.87, 66.33 9.42 C71.63 13.96, 75.34 21.26, 77.33 27.96 C79.32 34.66, 79.87 42.65, 78.26 49.61 C76.65 56.57, 73.05 64.67, 67.66 69.73 C62.28 74.79, 53.01 78.9, 45.95 79.97 C38.88 81.05, 31.84 78.96, 25.28 76.17 C18.73 73.38, 10.75 69.12, 6.62 63.25 C2.49 57.38, 0.55 48.12, 0.49 40.95 C0.44 33.78, 2.43 26.63, 6.3 20.26 C10.17 13.9, 20.55 5.4, 23.72 2.75 C26.88 0.1, 25.14 3.66, 25.26 4.35 M31.51 0.56 C37.87 -1.32, 45.68 0.76, 52.5 3.14 C59.31 5.51, 67.94 9.35, 72.4 14.81 C76.86 20.27, 78.5 28.45, 79.27 35.88 C80.03 43.31, 80.35 52.89, 76.97 59.39 C73.58 65.88, 65.49 71.23, 58.96 74.83 C52.43 78.43, 44.88 81.1, 37.79 81 C30.7 80.89, 22.06 78.29, 16.41 74.2 C10.76 70.1, 6.44 63.26, 3.89 56.43 C1.35 49.6, -0.1 40.38, 1.17 33.22 C2.44 26.05, 6.5 18.54, 11.51 13.44 C16.53 8.35, 27.96 4.49, 31.24 2.66 C34.52 0.84, 31.32 2.12, 31.22 2.49" stroke="none" stroke-width="0" fill="#fff"></path><path d="M48.97 1.73 C55.64 2.94, 63.13 7.58, 68.24 12.72 C73.35 17.85, 78.03 25.72, 79.62 32.54 C81.21 39.36, 80.52 46.9, 77.77 53.67 C75.01 60.43, 68.94 68.61, 63.11 73.11 C57.29 77.6, 49.93 80.4, 42.8 80.63 C35.67 80.86, 26.71 78.23, 20.32 74.49 C13.93 70.75, 7.83 64.29, 4.48 58.19 C1.12 52.08, -0.39 44.79, 0.19 37.87 C0.78 30.95, 3.6 22.58, 8 16.67 C12.39 10.76, 19.45 4.86, 26.58 2.41 C33.72 -0.05, 46.53 1.99, 50.8 1.93 C55.06 1.87, 52.45 1.5, 52.2 2.05 M46.84 -0.61 C54 -0.04, 62.16 6.25, 67.61 11.26 C73.06 16.27, 77.94 22.6, 79.55 29.44 C81.16 36.29, 79.54 45.15, 77.28 52.32 C75.02 59.5, 71.65 67.77, 65.99 72.51 C60.32 77.24, 50.64 80.26, 43.27 80.72 C35.91 81.18, 28 78.47, 21.78 75.28 C15.56 72.08, 9.79 67.73, 5.96 61.54 C2.14 55.35, -1.2 45.4, -1.2 38.15 C-1.2 30.9, 1.9 23.75, 5.97 18.04 C10.04 12.33, 16.56 6.98, 23.22 3.88 C29.89 0.78, 41.91 -0.01, 45.96 -0.55 C50 -1.09, 47.21 -0.34, 47.5 0.64" stroke="#000000" stroke-width="1" fill="none"></path></g><g stroke-linecap="round" transform="translate(1083.0736308758683 86.18930951286893) rotate(0 40.130859375 40.111328125)"><path d="M49.75 1.4 C56.54 2.33, 64.74 7.21, 69.52 12.34 C74.31 17.46, 77.2 25.25, 78.44 32.15 C79.67 39.04, 79.28 47.01, 76.93 53.73 C74.58 60.45, 70.2 68.02, 64.31 72.48 C58.43 76.93, 48.8 80.18, 41.64 80.48 C34.49 80.77, 27.6 77.75, 21.39 74.27 C15.18 70.78, 7.84 65.82, 4.38 59.55 C0.91 53.28, -0.12 43.76, 0.61 36.62 C1.33 29.48, 4.39 22.53, 8.74 16.68 C13.08 10.84, 19.34 3.94, 26.66 1.55 C33.99 -0.84, 48.05 2.04, 52.68 2.36 C57.31 2.68, 54.79 2.86, 54.44 3.48 M26.8 3.08 C33.1 0.41, 43.83 -0.69, 50.81 0.88 C57.78 2.45, 63.66 6.97, 68.64 12.49 C73.61 18, 79.48 26.81, 80.68 33.97 C81.87 41.13, 78.87 48.81, 75.83 55.45 C72.8 62.09, 68.26 69.47, 62.47 73.81 C56.67 78.15, 48.02 81.14, 41.06 81.49 C34.1 81.83, 26.73 79.68, 20.69 75.88 C14.64 72.07, 8.09 65.17, 4.78 58.65 C1.46 52.14, -0.01 43.81, 0.79 36.79 C1.59 29.77, 5.07 22.2, 9.59 16.51 C14.11 10.81, 25.04 4.93, 27.92 2.61 C30.79 0.3, 26.92 2.04, 26.83 2.62" stroke="none" stroke-width="0" fill="#fff"></path><path d="M25.16 3.52 C31.38 0.51, 41.17 0.33, 48.35 1.52 C55.53 2.72, 63.24 5.63, 68.24 10.68 C73.23 15.72, 76.73 24.56, 78.35 31.79 C79.97 39.03, 80.31 47.54, 77.96 54.11 C75.61 60.67, 70.04 67.01, 64.25 71.18 C58.46 75.35, 50.35 78.27, 43.22 79.14 C36.09 80.02, 27.82 79.52, 21.46 76.43 C15.09 73.34, 8.54 67.04, 5.02 60.6 C1.5 54.15, -0.09 45.03, 0.32 37.76 C0.73 30.48, 2.19 23.28, 7.5 16.96 C12.81 10.64, 26.85 2.56, 32.18 -0.16 C37.52 -2.87, 39.24 0.02, 39.52 0.66 M53.63 2.9 C60.44 4.74, 68.07 9.32, 72.32 14.86 C76.56 20.4, 78.42 28.64, 79.08 36.14 C79.74 43.64, 79.64 53.28, 76.25 59.87 C72.86 66.45, 65.2 72.39, 58.75 75.64 C52.3 78.89, 44.5 79.72, 37.55 79.36 C30.59 79, 23.01 77.69, 17.02 73.5 C11.04 69.3, 4.52 60.92, 1.63 54.18 C-1.26 47.44, -1.68 39.9, -0.32 33.06 C1.05 26.22, 4.81 18.63, 9.81 13.12 C14.81 7.6, 22.32 1.92, 29.68 -0.02 C37.03 -1.96, 49.81 0.85, 53.95 1.48 C58.08 2.11, 55.01 3.25, 54.48 3.76" stroke="#000000" stroke-width="1" fill="none"></path></g><g stroke-linecap="round" transform="translate(1129.8509746258683 86.18930951286893) rotate(0 40.130859375 40.111328125)"><path d="M52.42 2.02 C58.87 3.42, 65.16 8.91, 69.63 14.22 C74.09 19.53, 77.99 26.76, 79.21 33.89 C80.44 41.02, 80.06 50.28, 76.97 57.02 C73.87 63.76, 66.69 70.59, 60.65 74.31 C54.6 78.03, 47.84 79.36, 40.71 79.35 C33.58 79.34, 24 78.11, 17.88 74.27 C11.77 70.42, 6.83 62.83, 4.01 56.3 C1.19 49.77, -0.07 42.32, 0.95 35.07 C1.98 27.83, 5.42 18.32, 10.16 12.82 C14.91 7.31, 21.22 3.32, 29.44 2.03 C37.66 0.74, 53.28 3.43, 59.48 5.07 C65.68 6.71, 66.97 11.13, 66.65 11.88 M32.68 0.53 C39.25 -1.65, 46.78 -0.4, 53.58 2.4 C60.38 5.2, 69.27 11.48, 73.47 17.34 C77.66 23.2, 78.57 30.4, 78.76 37.57 C78.95 44.74, 77.97 53.82, 74.6 60.35 C71.23 66.87, 64.65 73.22, 58.55 76.72 C52.44 80.21, 45.01 82.01, 37.98 81.32 C30.95 80.63, 22.2 77, 16.38 72.57 C10.55 68.15, 5.46 61.39, 3.02 54.77 C0.58 48.15, 0.17 39.95, 1.74 32.84 C3.32 25.73, 7.6 17.48, 12.48 12.11 C17.36 6.74, 28 2.35, 31.05 0.64 C34.09 -1.08, 30.35 1.05, 30.76 1.84" stroke="none" stroke-width="0" fill="#fff"></path><path d="M55.3 3.6 C61.98 5.39, 68.95 10.28, 72.95 16.18 C76.96 22.07, 79.02 31.55, 79.34 38.97 C79.67 46.39, 78.45 54.67, 74.92 60.68 C71.38 66.7, 64.62 72, 58.13 75.07 C51.64 78.14, 43.1 79.53, 35.97 79.1 C28.85 78.67, 21.03 76.67, 15.38 72.48 C9.72 68.3, 4.38 60.97, 2.05 53.99 C-0.29 47.01, -0.32 37.67, 1.39 30.59 C3.09 23.51, 7.18 16.62, 12.28 11.51 C17.38 6.39, 24.44 1.1, 31.99 -0.12 C39.54 -1.34, 52.73 3.2, 57.6 4.17 C62.46 5.15, 61.28 5.14, 61.19 5.74 M25.06 2.68 C30.94 -0.67, 38.81 -1.17, 45.92 0.36 C53.02 1.88, 62.44 6.8, 67.71 11.84 C72.98 16.89, 75.87 23.99, 77.54 30.62 C79.2 37.25, 79.66 44.77, 77.7 51.64 C75.75 58.52, 71.49 67.29, 65.8 71.88 C60.1 76.47, 50.94 78.36, 43.54 79.17 C36.15 79.98, 27.93 79.66, 21.42 76.73 C14.91 73.8, 8.21 68.08, 4.47 61.6 C0.73 55.13, -1.56 45.35, -1.04 37.88 C-0.52 30.41, 3.12 22.42, 7.6 16.77 C12.09 11.11, 23.23 6.35, 25.88 3.96 C28.53 1.57, 23.72 1.89, 23.51 2.43" stroke="#000000" stroke-width="1" fill="none"></path></g><g stroke-linecap="round" transform="translate(1167.3323337710885 10) rotate(0 33.00458836252477 32.988525390625)"><path d="M41.05 1.23 C47.1 2.11, 54.62 6.76, 58.6 11.59 C62.57 16.42, 64.54 23.94, 64.89 30.2 C65.24 36.46, 63.76 43.61, 60.68 49.14 C57.61 54.66, 52.43 60.62, 46.44 63.34 C40.44 66.07, 30.95 67.07, 24.71 65.49 C18.47 63.91, 13.14 58.68, 8.98 53.85 C4.83 49.02, 0.42 42.85, -0.22 36.52 C-0.87 30.18, 1.67 21.33, 5.13 15.83 C8.59 10.34, 14.12 6.08, 20.51 3.57 C26.9 1.06, 39.19 0.74, 43.48 0.78 C47.78 0.82, 46.6 3.19, 46.27 3.8 M26.1 0.35 C31.78 -1.24, 38.88 0.94, 44.84 3.41 C50.8 5.89, 58.49 9.91, 61.87 15.2 C65.25 20.48, 65.56 28.43, 65.13 35.11 C64.71 41.8, 63.6 50.31, 59.33 55.3 C55.07 60.3, 46.1 63.58, 39.54 65.1 C32.98 66.61, 25.83 66.6, 19.97 64.37 C14.11 62.14, 7.54 57.15, 4.38 51.73 C1.23 46.31, 0.38 38.45, 1.02 31.86 C1.67 25.28, 4.13 17.25, 8.23 12.25 C12.33 7.24, 22.67 3.36, 25.63 1.83 C28.59 0.31, 25.86 2.62, 25.99 3.09" stroke="none" stroke-width="0" fill="#fff"></path><path d="M45.98 1.92 C51.63 3.91, 57.07 10.97, 60.4 16.71 C63.72 22.44, 66.4 30.12, 65.93 36.32 C65.46 42.51, 61.87 49.25, 57.57 53.89 C53.27 58.54, 46.37 62.46, 40.15 64.19 C33.92 65.91, 26.15 66.46, 20.22 64.23 C14.29 62, 7.89 56.48, 4.58 50.8 C1.27 45.11, -0.18 36.61, 0.37 30.11 C0.93 23.62, 3.79 16.84, 7.89 11.82 C11.99 6.8, 18.23 1.32, 24.97 0.01 C31.71 -1.29, 43.84 3.06, 48.33 3.98 C52.81 4.89, 51.92 5.04, 51.87 5.52 M20.72 2.11 C25.98 -0.84, 33.15 -1.13, 39.43 0.63 C45.71 2.39, 54.22 7.63, 58.4 12.67 C62.58 17.71, 64.11 24.79, 64.49 30.88 C64.87 36.96, 63.74 43.63, 60.68 49.17 C57.62 54.71, 52.17 61.58, 46.11 64.11 C40.06 66.64, 30.87 65.83, 24.36 64.35 C17.84 62.87, 11.3 59.85, 7.04 55.23 C2.78 50.6, -0.64 43.32, -1.2 36.59 C-1.76 29.86, 0.01 20.64, 3.66 14.85 C7.32 9.07, 17.72 3.68, 20.74 1.87 C23.77 0.06, 21.9 3.62, 21.8 4" stroke="#000000" stroke-width="1" fill="none"></path></g><g stroke-linecap="round" transform="translate(1156.0149509585885 53.108197380515776) rotate(0 40.130859375 40.111328125)"><path d="M46.05 -0.2 C53.15 0.35, 62.2 5.39, 67.5 10.42 C72.81 15.45, 75.94 23.17, 77.89 30 C79.84 36.82, 81.27 44.46, 79.19 51.39 C77.1 58.31, 71 66.82, 65.37 71.54 C59.75 76.25, 52.47 78.73, 45.44 79.66 C38.4 80.6, 29.72 80.36, 23.17 77.12 C16.61 73.87, 9.91 66.43, 6.11 60.19 C2.32 53.95, 0.4 46.83, 0.4 39.7 C0.4 32.56, 2.23 23.38, 6.12 17.37 C10.02 11.35, 15.78 5.92, 23.79 3.61 C31.79 1.29, 47.91 2.92, 54.18 3.48 C60.45 4.04, 61.46 6.36, 61.43 6.96 M36.64 1.34 C43.3 0.05, 50.23 1.06, 56.43 4.21 C62.64 7.36, 70 13.83, 73.86 20.22 C77.73 26.61, 79.58 35.27, 79.63 42.56 C79.69 49.85, 78.09 58.14, 74.19 63.97 C70.29 69.81, 62.95 74.8, 56.23 77.55 C49.5 80.31, 40.93 81.56, 33.85 80.49 C26.77 79.42, 19.09 76.08, 13.76 71.14 C8.43 66.19, 3.97 58.1, 1.88 50.82 C-0.22 43.55, -0.75 34.4, 1.19 27.47 C3.13 20.54, 7.63 13.68, 13.5 9.24 C19.37 4.8, 32.6 2.34, 36.39 0.81 C40.18 -0.71, 36.53 -0.61, 36.24 0.08" stroke="none" stroke-width="0" fill="#fff"></path><path d="M53.41 3.32 C60.02 5.41, 67.98 11.12, 72.38 16.68 C76.78 22.24, 79.37 29.71, 79.8 36.68 C80.23 43.65, 78.38 51.93, 74.97 58.52 C71.55 65.11, 65.65 72.51, 59.32 76.24 C52.98 79.97, 44.16 81.58, 36.98 80.89 C29.8 80.2, 22 76.51, 16.22 72.1 C10.44 67.69, 4.95 61.36, 2.3 54.44 C-0.34 47.53, -1.11 37.76, 0.38 30.61 C1.86 23.45, 5.92 16.62, 11.21 11.51 C16.49 6.4, 23.73 0.92, 32.08 -0.08 C40.43 -1.07, 55.81 3.74, 61.3 5.51 C66.79 7.29, 65.4 9.9, 65.03 10.57 M33.86 1.89 C40.48 0.34, 47.97 1.48, 54.45 3.96 C60.92 6.43, 68.36 10.76, 72.7 16.74 C77.04 22.71, 80.38 32.58, 80.47 39.81 C80.56 47.04, 77.19 53.97, 73.23 60.12 C69.27 66.28, 63.21 73.32, 56.7 76.75 C50.18 80.18, 41.32 81.81, 34.14 80.68 C26.96 79.55, 18.86 74.8, 13.6 69.96 C8.34 65.13, 4.37 58.23, 2.56 51.67 C0.76 45.11, 1.22 37.71, 2.77 30.6 C4.31 23.49, 6.93 13.95, 11.81 9 C16.68 4.05, 28.28 1.91, 32.01 0.88 C35.74 -0.16, 33.7 1.99, 34.19 2.79" stroke="#000000" stroke-width="1" fill="none"></path></g><g stroke-linecap="round" transform="translate(1167.3323337710885 101.15478515625) rotate(0 33.00458836252477 32.988525390625)"><path d="M38.68 0.88 C44.55 1.51, 52.13 5.27, 56.72 10.02 C61.31 14.77, 65.57 22.77, 66.23 29.37 C66.9 35.97, 63.84 44.17, 60.7 49.63 C57.57 55.1, 53.21 59.47, 47.43 62.17 C41.64 64.87, 32.37 67.04, 25.98 65.83 C19.6 64.63, 13.3 59.66, 9.09 54.95 C4.88 50.23, 1.47 44.06, 0.71 37.54 C-0.05 31.02, 1.35 21.51, 4.53 15.82 C7.71 10.13, 12.79 5.56, 19.78 3.41 C26.78 1.26, 40.95 2.08, 46.49 2.9 C52.04 3.73, 53.28 7.69, 53.05 8.35 M27.03 0.37 C32.91 -1.54, 39.73 -0.22, 45.67 2.65 C51.61 5.53, 59.55 11.95, 62.67 17.61 C65.8 23.26, 65.38 30.18, 64.41 36.56 C63.44 42.94, 61.07 50.9, 56.87 55.9 C52.67 60.9, 45.29 65.15, 39.22 66.56 C33.16 67.96, 26.21 67.09, 20.49 64.32 C14.77 61.56, 8.18 55.6, 4.89 49.94 C1.6 44.28, 0.03 36.63, 0.76 30.37 C1.49 24.11, 4.94 17.23, 9.27 12.37 C13.6 7.52, 24.03 3.11, 26.74 1.24 C29.45 -0.63, 25.72 0.65, 25.53 1.13" stroke="none" stroke-width="0" fill="#fff"></path><path d="M21.94 2.42 C27.66 -0.31, 35.77 -0.96, 41.91 0.62 C48.06 2.2, 54.78 6.51, 58.81 11.89 C62.84 17.27, 65.85 26.13, 66.07 32.88 C66.29 39.63, 63.72 47.19, 60.11 52.38 C56.49 57.56, 50.46 61.89, 44.37 64.01 C38.27 66.13, 29.89 67.04, 23.55 65.09 C17.21 63.14, 10.34 57.52, 6.31 52.31 C2.28 47.1, -0.59 40.29, -0.63 33.81 C-0.67 27.33, 1.3 19, 6.09 13.42 C10.89 7.85, 23.75 2.44, 28.14 0.35 C32.52 -1.74, 32.35 0.24, 32.4 0.87 M27.94 1.79 C33.85 0.48, 40.63 1.67, 46.24 4.18 C51.86 6.69, 58.35 11.13, 61.62 16.85 C64.89 22.57, 66.92 32.11, 65.88 38.51 C64.85 44.91, 60.13 50.65, 55.4 55.25 C50.67 59.85, 43.89 64.77, 37.5 66.11 C31.11 67.45, 22.85 66.44, 17.05 63.29 C11.25 60.13, 5.4 53.14, 2.72 47.17 C0.04 41.2, -0.37 33.54, 0.98 27.47 C2.32 21.39, 6.61 15.47, 10.81 10.72 C15.02 5.97, 23.63 0.52, 26.2 -1.02 C28.76 -2.57, 25.78 0.4, 26.2 1.42" stroke="#000000" stroke-width="1" fill="none"></path></g><g stroke-linecap="round" transform="translate(991.4722526654409 22.309318193423678) rotate(0 106.55744280133865 69.5)"><path d="M0 0 L213.11 0 L213.11 139 L0 139" stroke="none" stroke-width="0" fill="#fff"></path><path d="M0 0 C79.3 0, 158.6 0, 213.11 0 M0 0 C56.08 0, 112.15 0, 213.11 0 M213.11 0 C213.11 52.59, 213.11 105.19, 213.11 139 M213.11 0 C213.11 32.76, 213.11 65.51, 213.11 139 M213.11 139 C144.67 139, 76.23 139, 0 139 M213.11 139 C130.45 139, 47.78 139, 0 139 M0 139 C0 108.58, 0 78.16, 0 0 M0 139 C0 107.86, 0 76.73, 0 0" stroke="#fff" stroke-width="1" fill="none"></path></g><g transform="translate(997.6302814042796 59.60931819342386) rotate(0 100.3994140625 32.200000000000045)"><text x="100.3994140625" y="25.760546874999996" font-family="Helvetica, Segoe UI Emoji" font-size="28px" fill="#1e1e1e" text-anchor="middle" style="white-space: pre;" direction="ltr" dominant-baseline="alphabetic">A nice shade of </text><text x="100.3994140625" y="57.96054687499999" font-family="Helvetica, Segoe UI Emoji" font-size="28px" fill="#1e1e1e" text-anchor="middle" style="white-space: pre;" direction="ltr" dominant-baseline="alphabetic">gold!</text></g><g stroke-linecap="round" transform="translate(938.4806954861592 166.81315843987068) rotate(89.99999999999994 16.93115234375 16.93115234375)"><path d="M13.99 0.69 C17.35 0.02, 22.12 0.91, 25.28 2.64 C28.44 4.37, 31.7 7.7, 32.95 11.08 C34.2 14.46, 34.07 19.56, 32.77 22.9 C31.47 26.25, 28.33 29.38, 25.15 31.15 C21.97 32.93, 17.21 34.17, 13.71 33.54 C10.21 32.91, 6.39 30.14, 4.16 27.37 C1.93 24.6, 0.44 20.45, 0.33 16.92 C0.23 13.39, 1.13 8.95, 3.53 6.19 C5.94 3.43, 12.85 1.38, 14.76 0.37 C16.67 -0.64, 15.01 -0.18, 15 0.1 M20.32 0 C23.86 0.54, 28.34 4.14, 30.49 7.02 C32.64 9.9, 33.51 13.69, 33.24 17.31 C32.97 20.92, 31.33 25.89, 28.87 28.69 C26.41 31.49, 22.05 33.76, 18.45 34.09 C14.86 34.41, 10.18 32.7, 7.28 30.63 C4.39 28.55, 1.97 24.92, 1.09 21.62 C0.21 18.32, 0.77 14.23, 2.01 10.82 C3.25 7.4, 5.52 2.86, 8.51 1.15 C11.5 -0.56, 17.88 0.51, 19.94 0.56 C22 0.61, 20.76 1.11, 20.88 1.45" stroke="#000000" stroke-width="1" fill="none"></path></g><g stroke-linecap="round" transform="translate(907.9899728299092 201.09730853456676) rotate(89.99999999999994 12.57154060132575 12.57154060132575)"><path d="M9.58 0.74 C12.04 -0.09, 15.92 0.13, 18.32 1.31 C20.73 2.49, 23.02 5.39, 24.02 7.8 C25.02 10.2, 25.14 13.21, 24.34 15.74 C23.53 18.27, 21.35 21.52, 19.17 22.99 C17 24.47, 13.87 24.89, 11.3 24.58 C8.74 24.27, 5.72 23.01, 3.77 21.15 C1.83 19.3, -0.2 16.07, -0.38 13.43 C-0.56 10.78, 1 7.53, 2.7 5.28 C4.4 3.03, 8.54 0.71, 9.8 -0.06 C11.07 -0.84, 10.12 0.43, 10.27 0.62 M14.26 0.47 C16.77 0.64, 19.47 1.68, 21.19 3.64 C22.91 5.61, 24.48 9.45, 24.6 12.26 C24.72 15.08, 23.55 18.54, 21.92 20.54 C20.29 22.54, 17.29 23.79, 14.82 24.26 C12.36 24.73, 9.32 24.45, 7.13 23.38 C4.95 22.3, 2.89 20.37, 1.69 17.83 C0.49 15.28, -0.63 10.71, -0.06 8.1 C0.5 5.49, 2.66 3.37, 5.08 2.15 C7.51 0.94, 12.91 1.02, 14.49 0.81 C16.07 0.6, 14.59 0.71, 14.56 0.9" stroke="#000000" stroke-width="1" fill="none"></path></g><g stroke-linecap="round" transform="translate(1196.2498306526527 44.30956620929646) rotate(0 13.890032087053896 39.10330636160711)"><path d="M0 0 L27.78 0 L27.78 78.21 L0 78.21" stroke="none" stroke-width="0" fill="#fff"></path><path d="M0 0 C6.37 0, 12.73 0, 27.78 0 M0 0 C9.04 0, 18.07 0, 27.78 0 M27.78 0 C27.78 22.36, 27.78 44.71, 27.78 78.21 M27.78 0 C27.78 26.98, 27.78 53.95, 27.78 78.21 M27.78 78.21 C22.03 78.21, 16.27 78.21, 0 78.21 M27.78 78.21 C20.89 78.21, 14.01 78.21, 0 78.21 M0 78.21 C0 51.47, 0 24.73, 0 0 M0 78.21 C0 53.16, 0 28.12, 0 0" stroke="#fff" stroke-width="1" fill="none"></path></g><g stroke-linecap="round" transform="translate(976.3279556526518 25.325191209296463) rotate(0 8.564658415037911 49.55671037946422)"><path d="M0 0 L17.13 0 L17.13 99.11 L0 99.11" stroke="none" stroke-width="0" fill="#fff"></path><path d="M0 0 C3.53 0, 7.07 0, 17.13 0 M0 0 C4.83 0, 9.67 0, 17.13 0 M17.13 0 C17.13 20.19, 17.13 40.39, 17.13 99.11 M17.13 0 C17.13 26.38, 17.13 52.77, 17.13 99.11 M17.13 99.11 C12.69 99.11, 8.25 99.11, 0 99.11 M17.13 99.11 C11.3 99.11, 5.48 99.11, 0 99.11 M0 99.11 C0 59.98, 0 20.85, 0 0 M0 99.11 C0 59.97, 0 20.83, 0 0" stroke="#fff" stroke-width="1" fill="none"></path></g></svg>