<svg version="1.1" xmlns="http://www.w3.org/2000/svg" viewBox="0 0 519.1666666666667 61.895348678170876" width="519.1666666666667" height="61.895348678170876" filter="invert(93%) hue-rotate(180deg)">
  <!-- svg-source:excalidraw -->
  
  <defs>
    <style class="style-fonts">
      @font-face {
        font-family: "Virgil";
        src: url("https://excalidraw.com/Virgil.woff2");
      }
      @font-face {
        font-family: "Cascadia";
        src: url("https://excalidraw.com/Cascadia.woff2");
      }
    </style>
  </defs>
  <g stroke-linecap="round" transform="translate(69.9282466713131 13.186554164904805) rotate(0 94.38668294348275 5.992463699301595)"><path d="M0 0 C0 0, 0 0, 0 0 M0 0 C0 0, 0 0, 0 0 M-0.72 6.17 C1.32 5.44, 2.18 3.37, 5.39 -0.23 M-0.17 6.64 C0.82 4.64, 2.34 3.44, 5.32 0.66 M0.33 13.49 C3.83 9.87, 5.81 7.8, 9.84 1.05 M0.38 11.59 C2.87 9.61, 5.87 6.76, 10.42 0.53 M5.44 11.9 C6.84 8.33, 9.13 8.08, 14.89 0.44 M5.22 12.94 C9.57 8.3, 13.7 2.24, 16.15 -0.46 M10.72 12.64 C11.69 9.29, 14.62 7.03, 21.26 0.86 M10.34 11.89 C13.62 7.65, 17.55 3.21, 21.69 -0.51 M15.9 13.19 C19.54 9.64, 20.92 4.61, 26.15 1.28 M15.62 12.81 C20.16 8.5, 24 3.32, 25.57 -0.38 M20.06 12.82 C24.34 10.24, 26.75 5.23, 33.03 1.18 M20.89 11.93 C24.32 9.08, 26.6 4.97, 31.19 -0.68 M26.92 13.79 C31.39 8.26, 34.8 4.14, 36.17 0.03 M26.98 11.91 C30.03 8.36, 33.42 4.33, 37.46 0.68 M33.43 11.87 C35.26 9.3, 37.75 6.06, 42.81 -0.93 M32.1 12.23 C36.72 7.62, 40.44 2.99, 42.4 -0.35 M38.28 13.47 C42.09 6.69, 45.08 4.2, 48.09 0.87 M37.72 12.53 C41.17 8.59, 43.79 4.61, 48.23 -0.13 M43.28 13.46 C47.44 7.87, 49.83 4.39, 54.03 -1.77 M43.34 12.61 C45.94 7.98, 49.59 4.3, 53.7 0.58 M49.1 12.21 C51.31 10.46, 53.47 4.8, 57.23 -0.61 M47.57 12.6 C50.53 8.25, 55.4 3.52, 57.62 0.84 M53.44 12.67 C55.61 6.94, 59.58 2.35, 64.7 0.95 M52.51 11.36 C56.53 6.8, 61.08 2.91, 64 0.3 M59.51 11.81 C61.88 10.92, 63.58 8.36, 68.7 0.22 M58.4 12.98 C61.41 7.66, 65.54 4.52, 69.5 0.14 M64.68 10.45 C65.2 8.49, 68.25 5.48, 75.4 0.18 M63.21 12.47 C66.68 9.06, 68.96 7.05, 75.09 -0.91 M68.97 11.12 C73.29 6.87, 75.59 2.57, 79.76 -0.6 M68.54 11.8 C70.48 9.64, 73.65 6.49, 79.83 0.78 M73.2 11.92 C75.53 10.47, 79.89 6.07, 84.5 0.26 M74.36 12.01 C78.72 7.3, 81.74 4.36, 84.51 0.12 M77.96 10.77 C82.87 8.01, 85.35 8.33, 91.06 -1.2 M80.09 11.67 C84.53 7.68, 87.32 3.39, 90.29 0.28 M84.94 12.06 C89.43 7.24, 91.87 3.34, 96.13 -0.62 M85.78 11.75 C89.34 7.19, 91.94 3.9, 95.89 -0.95 M89.51 11.67 C91.92 9.36, 96.68 4.01, 101.82 1.32 M90.02 12.5 C92.07 9.05, 95.76 6.29, 101.06 -0.57 M94.83 13.27 C99.44 5.94, 102.37 1.66, 105.81 0.76 M95.83 11.93 C99.51 7.97, 102.98 4.17, 106.97 -0.79 M101.22 13.32 C104.6 9.91, 105.63 6.23, 111.45 -0.32 M100.63 12.28 C104.9 8.61, 108.32 3.84, 111.66 -0.08 M106.89 11.72 C109.46 9.53, 109.6 6.07, 117.36 -1.03 M106.29 12.84 C108.84 8.15, 112.88 3.99, 116.17 0.4 M110.09 12.25 C115.01 8.8, 117.14 5.57, 121.12 0.43 M110.73 12.69 C113.4 9.2, 117.6 5.62, 121.7 0.33 M116.13 11.94 C120.75 8.56, 122.25 4.82, 127.95 0.97 M116.25 12.6 C118.7 9.74, 121.75 7.18, 127.56 -0.18 M120.48 13.22 C126.4 7.89, 131.4 3.14, 132.18 -0.07 M122.85 11.9 C124.91 9.07, 128.52 4.25, 133.31 0.12 M128.53 13.77 C132.03 9.55, 133.17 3.79, 138.57 0.19 M126.92 12.48 C130.19 9.34, 131.69 5.96, 138.18 0.63 M132.92 11.61 C135.86 8.82, 137 5.73, 144.54 -1.23 M132.81 11.76 C134.36 9.68, 136.56 7.62, 143.93 0.44 M136.51 10.9 C142.87 8.42, 143.84 2.66, 148.62 0.74 M137.1 13.08 C140.29 8.98, 141.57 7.52, 147.83 0.12 M142.52 11.03 C145.74 6.89, 151.06 5.54, 155.1 0.19 M143.38 12.22 C145.64 8.26, 149.01 6.26, 153.51 0.12 M148.67 12.45 C152.18 10.08, 154.48 4.55, 160.1 0.56 M148.1 12.67 C151.23 8.58, 154.61 4.35, 159.2 0.87 M153.37 12.12 C156.52 9.25, 162.12 5.31, 165.75 -1.17 M153.8 12.11 C156.84 8.84, 159.16 4.81, 163.72 -0.32 M159.39 12.57 C160.62 8.63, 166.39 5.38, 169.55 -0.59 M158.13 12.85 C161.18 9.27, 164.48 6.06, 169.14 0.36 M164.12 10.93 C169.73 8.49, 172.42 2.62, 175.32 -1.64 M163.86 11.54 C167.43 8.25, 171.99 4.33, 175.55 0.54 M169.62 11.22 C174.12 7.76, 175.89 5.13, 179.32 0.46 M169.52 12.85 C174.1 8.24, 178.18 3.36, 180.56 -0.26 M176.02 13.34 C177.31 9.85, 178.8 7.16, 184.45 0.26 M174.63 11.12 C178.69 7.92, 180.21 5.78, 185.28 -0.6 M178.95 12.58 C183.65 7.11, 185.92 3.55, 188.94 -0.05 M179.93 12.06 C183.41 8.4, 186.02 4.82, 189.88 0.62 M185.47 11.54 C187.11 10.6, 187.62 8.89, 190.06 7.04 M185.94 11.56 C186.73 10.87, 187.23 10.15, 189.84 7.48" stroke="#3177b3" stroke-width="0.5" fill="none"></path><path d="M-0.81 -1.36 C44.64 2.04, 92.68 -0.42, 186.89 0.84 M0.52 -0.71 C64.46 -0.44, 130.37 0.57, 189.08 -0.04 M187.94 -0.89 C188.38 4.42, 188.11 7.82, 188.34 11.01 M188.48 -0.53 C188.17 4.26, 188.95 9.68, 188.38 11.99 M189.43 10.81 C122.95 10.84, 52.14 12.47, -1.91 11.8 M188.33 12.52 C139.8 10.81, 92.64 10.74, 0.36 11.45 M0.16 12.05 C-0.59 8.53, 0.8 6.12, 0.1 -0.16 M0.24 11.85 C-0.46 7.51, 0.11 3.12, -0.33 -0.53" stroke="transparent" stroke-width="1" fill="none"></path></g><g stroke-linecap="round" transform="translate(261.44598154595155 12.942159143311414) rotate(0 94.38668294348275 5.992463699301595)"><path d="M0 0 C0 0, 0 0, 0 0 M0 0 C0 0, 0 0, 0 0 M0.13 6.23 C1.06 4.37, 2.28 2.68, 4.22 1.05 M-0.59 6.04 C1.41 4.21, 3.37 2.33, 5.1 0.49 M-0.25 11.63 C2.9 6.78, 8.48 4.2, 9.55 -0.13 M-0.56 11.95 C3.05 8.55, 6.33 4.7, 10.34 0.04 M6.61 11.99 C10.61 6.76, 12.13 4.47, 15.03 1.58 M5.44 13.2 C8.09 8.31, 11.41 5.03, 16.13 0.74 M12.33 11.03 C14.15 10.72, 16.37 6.7, 20.82 -0.75 M10.77 11.26 C13.74 8.71, 17.32 3.4, 21.46 0.09 M16.04 12.29 C21.06 8.8, 21.89 2.3, 24.66 -0.83 M15.92 12.15 C19.31 8.96, 22.42 5.49, 26.88 -0.44 M22.59 10.78 C22.92 7.13, 28.24 5.37, 32.14 -0.61 M21.76 12.14 C24.64 7.75, 28 5.42, 32.65 -0.06 M26.99 11.71 C28.42 9.75, 33.02 4.95, 36.37 0.41 M26.57 13.08 C30.17 9.18, 31.96 4.96, 36.56 -0.12 M33.45 13.07 C34.99 7.91, 38.2 7.73, 41.8 -1.07 M31.26 12.03 C35.78 8.29, 39.03 3.21, 43.16 -0.88 M36.66 11.56 C39.85 10.07, 44.47 4.13, 47.12 -1.38 M36.39 11.78 C39.51 9.87, 41.39 7.07, 47.18 0.19 M44 10.74 C46.06 8.5, 49.29 7.43, 53.07 0.7 M42.62 12.07 C45.84 7.1, 49.99 2.7, 52.36 0.45 M47.22 10.99 C50.36 8.36, 52.06 6.93, 58.1 1.78 M47.7 12.13 C49.56 9.09, 51.91 6.09, 58.07 0.24 M54.28 11.25 C54.61 7.67, 59.77 6.08, 63 0.56 M53.32 11.48 C57.3 7.01, 61.29 2.71, 63.73 -0.35 M57.82 11.77 C62.94 9.52, 63.14 6.76, 69.82 -1.14 M58.93 12.48 C60.12 9.25, 62.65 7.32, 68.26 0.29 M63.75 12.68 C67.45 8.33, 71.86 0.87, 73.62 -1.37 M63.74 11.55 C66.23 8.8, 69.35 5.68, 74.46 0.51 M69.38 13.5 C71.86 8.52, 76.82 2.74, 80.61 -0.13 M68.61 12.88 C70.72 9.1, 73.66 5.85, 78.89 0.3 M76 11.74 C79.06 6.76, 81.75 2.22, 83.92 0.82 M74.79 11.68 C77.45 9.83, 78.47 6.32, 84.25 -0.27 M79.79 12 C84.78 7.41, 85.7 5.1, 91.34 -0.95 M79.41 12.67 C82.87 8.12, 84.67 5, 89.24 0.68 M84.42 11.77 C89.33 8.16, 90.88 3.25, 94.68 1.28 M85.47 11.75 C88.13 8.67, 88.79 7, 96.12 0.47 M88.74 13.71 C93.89 6.59, 98.29 3.64, 100.68 -1.15 M90.89 12.88 C94.35 7.97, 97.18 4.5, 100.66 -0.05 M96.18 11.51 C98.2 8.47, 102.76 5.26, 106.84 -0.04 M95.3 11.33 C98.64 9.55, 100.68 5.79, 106.01 0.39 M99.27 11.71 C104.01 9.67, 106.29 5.04, 109.87 -1.25 M100.33 12.21 C103.97 9.01, 106.55 5.48, 111.05 0.33 M104.36 13.92 C110.75 7.31, 113.15 3.92, 116.07 1.84 M106.07 12.83 C109.17 8.52, 111.92 4.73, 115.69 -0.39 M113 12.89 C114.35 9.04, 117.49 5.12, 121.11 0.07 M111.51 12.66 C114.16 8.8, 117.86 4.52, 122 0.5 M117.77 11.88 C119.68 7.23, 122.39 3.19, 126.58 -0.59 M115.64 12.88 C118.31 9.9, 121.66 6.54, 126.63 0.04 M122.14 10.77 C124.21 10.09, 126.35 7.22, 132.78 1.14 M122.76 12.33 C125.7 7.78, 130.5 2.16, 133.23 -0.36 M126.64 13.58 C130.51 6.75, 135.98 4.05, 135.99 1.29 M127.6 12.46 C129.69 10.38, 131.04 7.17, 136.84 -0.43 M133.45 12.69 C136.85 6.99, 137.03 3.79, 144.26 -1.09 M132.47 12.58 C136.44 6.8, 141.24 2.41, 143.36 -0.18 M138.85 12.29 C141.82 7.77, 145.02 5.93, 149.14 -1.27 M137.13 13.1 C141.09 8.71, 143.1 5.12, 147.5 1.01 M144.28 12.63 C148.25 6.92, 152.19 1.22, 154.27 0.17 M143.18 12.47 C144.93 9.41, 147.25 7.48, 153.92 0.4 M148.81 11.09 C153.1 7.35, 155.13 5.19, 159.87 0.03 M148.72 12 C151.84 9.23, 154.74 4.57, 158.31 0.86 M153.75 11.99 C158.59 7.05, 160.96 4.26, 165.73 0.72 M154.34 11.16 C156.3 8.73, 158.83 4.93, 163.76 0.42 M158.35 11.68 C161.74 8.48, 166.65 4.81, 168.56 0.12 M159.37 12.46 C162.66 8.92, 164.97 4.37, 169.86 -0.31 M164.37 11.58 C166.8 7.53, 169.77 4.7, 174.52 -0.19 M164.69 11.88 C168.71 7.58, 172.74 2.8, 174.64 -0.59 M168.64 12.81 C174.43 6.54, 177.26 1.93, 180.59 1.35 M168.98 11.84 C173.37 8.48, 177.49 3.17, 179.68 -0.2 M174.01 13.25 C178.5 8.1, 180.38 5.51, 187.11 -1.51 M174.71 11.56 C178.75 9.03, 181.25 4.39, 185.64 -0.21 M178.75 11.84 C183.28 8.79, 185.85 6.44, 191.18 -0.11 M179.62 12.04 C183.23 8.16, 186.95 3.19, 190.31 0.33 M186.31 11.83 C186.71 11.18, 187.91 9.85, 189.84 7.85 M185.81 11.59 C187.49 10.52, 188.54 8.54, 189.47 7.26" stroke="#3177b3" stroke-width="0.5" fill="none"></path><path d="M0.74 -1.26 C57.74 -0.68, 113.68 1.97, 189.87 -1.73 M-0.05 0.23 C52.02 0.77, 102.84 0.3, 189.52 0.65 M188.8 0.18 C189.66 1.55, 187.92 4.84, 189.07 12.82 M188.64 0.58 C188.59 4.07, 189.08 7.34, 188.58 12.11 M188.28 12.5 C144.16 12.27, 99.89 10.77, 0.79 13.5 M188.83 11.23 C136.48 11.17, 85.95 9.85, -0.9 11.95 M-0.21 11.46 C0.2 7.06, 1.07 2.52, -0.79 1.16 M-0.55 12.33 C0.18 7.82, -0.42 4.94, -0.3 0.39" stroke="transparent" stroke-width="1" fill="none"></path></g><g stroke-linecap="round"><g transform="translate(10 18.333333333333258) rotate(0 249.58333333333337 0)"><path d="M0 0 C172.11 0, 344.23 0, 499.17 0 M0 0 C187.69 0, 375.37 0, 499.17 0" stroke="#000000" stroke-width="2" fill="none"></path></g><g transform="translate(10 18.333333333333258) rotate(0 249.58333333333337 0)"><path d="M28.19 -10.26 C18.47 -6.72, 8.75 -3.18, 0 0 M28.19 -10.26 C17.59 -6.4, 6.99 -2.54, 0 0" stroke="#000000" stroke-width="2" fill="none"></path></g><g transform="translate(10 18.333333333333258) rotate(0 249.58333333333337 0)"><path d="M28.19 10.26 C18.47 6.72, 8.75 3.18, 0 0 M28.19 10.26 C17.59 6.4, 6.99 2.54, 0 0" stroke="#000000" stroke-width="2" fill="none"></path></g><g transform="translate(10 18.333333333333258) rotate(0 249.58333333333337 0)"><path d="M470.98 10.26 C480.7 6.72, 490.42 3.18, 499.17 0 M470.98 10.26 C481.58 6.4, 492.18 2.54, 499.17 0" stroke="#000000" stroke-width="2" fill="none"></path></g><g transform="translate(10 18.333333333333258) rotate(0 249.58333333333337 0)"><path d="M470.98 -10.26 C480.7 -6.72, 490.42 -3.18, 499.17 0 M470.98 -10.26 C481.58 -6.4, 492.18 -2.54, 499.17 0" stroke="#000000" stroke-width="2" fill="none"></path></g></g><mask></mask><g stroke-linecap="round"><g transform="translate(334.4722222222231 10) rotate(0 0 8.333333333333314)"><path d="M0 0 C0 4.18, 0 8.36, 0 16.67 M0 0 C0 5.69, 0 11.37, 0 16.67" stroke="#000000" stroke-width="2" fill="none"></path></g></g><mask></mask><g stroke-linecap="round"><g transform="translate(109.80555555555429 10) rotate(0 0 8.333333333333314)"><path d="M0 0 C0 4.57, 0 9.14, 0 16.67 M0 0 C0 5.99, 0 11.98, 0 16.67" stroke="#000000" stroke-width="2" fill="none"></path></g></g><mask></mask><g stroke-linecap="round"><g transform="translate(409.3611111111127 10) rotate(0 0 8.333333333333314)"><path d="M0 0 C0 4.15, 0 8.29, 0 16.67 M0 0 C0 4.46, 0 8.92, 0 16.67" stroke="#000000" stroke-width="2" fill="none"></path></g></g><mask></mask><g stroke-linecap="round"><g transform="translate(184.6944444444439 10) rotate(0 0 8.333333333333314)"><path d="M0 0 C0 3.66, 0 7.32, 0 16.67 M0 0 C0 5.56, 0 11.11, 0 16.67" stroke="#000000" stroke-width="2" fill="none"></path></g></g><mask></mask><g stroke-linecap="round"><g transform="translate(222.1388888888887 10) rotate(0 0 8.333333333333314)"><path d="M0 0 C0 4.43, 0 8.85, 0 16.67 M0 0 C0 4.71, 0 9.42, 0 16.67" stroke="#000000" stroke-width="2" fill="none"></path></g></g><mask></mask><g stroke-linecap="round"><g transform="translate(72.3611111111095 10) rotate(0 0 8.333333333333314)"><path d="M0 0 C0 3.69, 0 7.38, 0 16.67 M0 0 C0 3.8, 0 7.61, 0 16.67" stroke="#000000" stroke-width="2" fill="none"></path></g></g><mask></mask><g stroke-linecap="round"><g transform="translate(371.9166666666679 10) rotate(0 0 8.333333333333314)"><path d="M0 0 C0 4.98, 0 9.96, 0 16.67 M0 0 C0 4.96, 0 9.91, 0 16.67" stroke="#000000" stroke-width="2" fill="none"></path></g></g><mask></mask><g stroke-linecap="round"><g transform="translate(147.2499999999991 10) rotate(0 0 8.333333333333314)"><path d="M0 0 C0 3.48, 0 6.97, 0 16.67 M0 0 C0 6, 0 12.01, 0 16.67" stroke="#000000" stroke-width="2" fill="none"></path></g></g><mask></mask><g stroke-linecap="round"><g transform="translate(446.8055555555575 10) rotate(0 0 8.333333333333314)"><path d="M0 0 C0 6.41, 0 12.82, 0 16.67 M0 0 C0 4.3, 0 8.61, 0 16.67" stroke="#000000" stroke-width="2" fill="none"></path></g></g><mask></mask><g stroke-linecap="round"><g transform="translate(297.0277777777783 10) rotate(0 0 8.333333333333314)"><path d="M0 0 C0 5.02, 0 10.04, 0 16.67 M0 0 C0 5.53, 0 11.05, 0 16.67" stroke="#000000" stroke-width="2" fill="none"></path></g></g><mask></mask><g stroke-linecap="round"><g transform="translate(259.5833333333335 10) rotate(0 0 8.333333333333314)"><path d="M0 0 C0 4.98, 0 9.96, 0 16.67 M0 0 C0 4.13, 0 8.27, 0 16.67" stroke="#000000" stroke-width="2" fill="none"></path></g></g><mask></mask><g transform="translate(58.47408189408566 31.895348678170876) rotate(0 10.959991455078125 10)"><text x="0" y="0" font-family="Virgil, Segoe UI Emoji" font-size="16px" fill="#1e1e1e" text-anchor="start" style="white-space: pre;" direction="ltr" dominant-baseline="text-before-edge">-10</text></g><g transform="translate(440.42084535272716 31.895348678170876) rotate(0 7.6719970703125 10)"><text x="0" y="0" font-family="Virgil, Segoe UI Emoji" font-size="16px" fill="#1e1e1e" text-anchor="start" style="white-space: pre;" direction="ltr" dominant-baseline="text-before-edge">10</text></g><g transform="translate(96.11116743699358 31.895348678170876) rotate(0 9.407989501953125 10)"><text x="0" y="0" font-family="Virgil, Segoe UI Emoji" font-size="16px" fill="#1e1e1e" text-anchor="start" style="white-space: pre;" direction="ltr" dominant-baseline="text-before-edge">-8</text></g><g transform="translate(136.11534202648045 31.895348678170876) rotate(0 8.407989501953125 10)"><text x="0" y="0" font-family="Virgil, Segoe UI Emoji" font-size="16px" fill="#1e1e1e" text-anchor="start" style="white-space: pre;" direction="ltr" dominant-baseline="text-before-edge">-6</text></g><g transform="translate(172.7252142879936 31.895348678170876) rotate(0 8.407989501953125 10)"><text x="0" y="0" font-family="Virgil, Segoe UI Emoji" font-size="16px" fill="#1e1e1e" text-anchor="start" style="white-space: pre;" direction="ltr" dominant-baseline="text-before-edge">-4</text></g><g transform="translate(211.36873512741454 31.895348678170876) rotate(0 8.983993530273438 10)"><text x="0" y="0" font-family="Virgil, Segoe UI Emoji" font-size="16px" fill="#1e1e1e" text-anchor="start" style="white-space: pre;" direction="ltr" dominant-baseline="text-before-edge">-2</text></g><g transform="translate(253.70822838543563 31.895348678170876) rotate(0 5.503997802734375 10)"><text x="0" y="0" font-family="Virgil, Segoe UI Emoji" font-size="16px" fill="#1e1e1e" text-anchor="start" style="white-space: pre;" direction="ltr" dominant-baseline="text-before-edge">0</text></g><g transform="translate(289.9941682311046 31.895348678170876) rotate(0 5.6959991455078125 10)"><text x="0" y="0" font-family="Virgil, Segoe UI Emoji" font-size="16px" fill="#1e1e1e" text-anchor="start" style="white-space: pre;" direction="ltr" dominant-baseline="text-before-edge">2</text></g><g transform="translate(328.3438670860364 31.895348678170876) rotate(0 5.1199951171875 10)"><text x="0" y="0" font-family="Virgil, Segoe UI Emoji" font-size="16px" fill="#1e1e1e" text-anchor="start" style="white-space: pre;" direction="ltr" dominant-baseline="text-before-edge">4</text></g><g transform="translate(366.67574441376246 31.895348678170876) rotate(0 5.1199951171875 10)"><text x="0" y="0" font-family="Virgil, Segoe UI Emoji" font-size="16px" fill="#1e1e1e" text-anchor="start" style="white-space: pre;" direction="ltr" dominant-baseline="text-before-edge">6</text></g><g transform="translate(403.0717583488113 31.895348678170876) rotate(0 6.1199951171875 10)"><text x="0" y="0" font-family="Virgil, Segoe UI Emoji" font-size="16px" fill="#1e1e1e" text-anchor="start" style="white-space: pre;" direction="ltr" dominant-baseline="text-before-edge">8</text></g><g stroke-linecap="round" transform="translate(66.5713576187934 13.500232604693906) rotate(0 4.766094436196852 4.766094436196852)"><path d="M9.53 4.77 C9.53 5.04, 9.51 5.32, 9.46 5.59 C9.41 5.87, 9.34 6.14, 9.24 6.4 C9.15 6.66, 9.03 6.91, 8.89 7.15 C8.76 7.39, 8.59 7.62, 8.42 7.83 C8.24 8.04, 8.04 8.24, 7.83 8.42 C7.62 8.59, 7.39 8.76, 7.15 8.89 C6.91 9.03, 6.66 9.15, 6.4 9.24 C6.14 9.34, 5.87 9.41, 5.59 9.46 C5.32 9.51, 5.04 9.53, 4.77 9.53 C4.49 9.53, 4.21 9.51, 3.94 9.46 C3.67 9.41, 3.4 9.34, 3.14 9.24 C2.88 9.15, 2.62 9.03, 2.38 8.89 C2.14 8.76, 1.91 8.59, 1.7 8.42 C1.49 8.24, 1.29 8.04, 1.12 7.83 C0.94 7.62, 0.78 7.39, 0.64 7.15 C0.5 6.91, 0.38 6.66, 0.29 6.4 C0.19 6.14, 0.12 5.87, 0.07 5.59 C0.02 5.32, 0 5.04, 0 4.77 C0 4.49, 0.02 4.21, 0.07 3.94 C0.12 3.67, 0.19 3.4, 0.29 3.14 C0.38 2.88, 0.5 2.62, 0.64 2.38 C0.78 2.14, 0.94 1.91, 1.12 1.7 C1.29 1.49, 1.49 1.29, 1.7 1.12 C1.91 0.94, 2.14 0.78, 2.38 0.64 C2.62 0.5, 2.88 0.38, 3.14 0.29 C3.4 0.19, 3.67 0.12, 3.94 0.07 C4.21 0.02, 4.49 0, 4.77 0 C5.04 0, 5.32 0.02, 5.59 0.07 C5.87 0.12, 6.14 0.19, 6.4 0.29 C6.66 0.38, 6.91 0.5, 7.15 0.64 C7.39 0.78, 7.62 0.94, 7.83 1.12 C8.04 1.29, 8.24 1.49, 8.42 1.7 C8.59 1.91, 8.76 2.14, 8.89 2.38 C9.03 2.62, 9.15 2.88, 9.24 3.14 C9.34 3.4, 9.41 3.67, 9.46 3.94 C9.51 4.21, 9.52 4.63, 9.53 4.77 C9.54 4.9, 9.54 4.63, 9.53 4.77" stroke="none" stroke-width="0" fill="#fff"></path><path d="M9.53 4.77 C9.53 5.04, 9.51 5.32, 9.46 5.59 C9.41 5.87, 9.34 6.14, 9.24 6.4 C9.15 6.66, 9.03 6.91, 8.89 7.15 C8.76 7.39, 8.59 7.62, 8.42 7.83 C8.24 8.04, 8.04 8.24, 7.83 8.42 C7.62 8.59, 7.39 8.76, 7.15 8.89 C6.91 9.03, 6.66 9.15, 6.4 9.24 C6.14 9.34, 5.87 9.41, 5.59 9.46 C5.32 9.51, 5.04 9.53, 4.77 9.53 C4.49 9.53, 4.21 9.51, 3.94 9.46 C3.67 9.41, 3.4 9.34, 3.14 9.24 C2.88 9.15, 2.62 9.03, 2.38 8.89 C2.14 8.76, 1.91 8.59, 1.7 8.42 C1.49 8.24, 1.29 8.04, 1.12 7.83 C0.94 7.62, 0.78 7.39, 0.64 7.15 C0.5 6.91, 0.38 6.66, 0.29 6.4 C0.19 6.14, 0.12 5.87, 0.07 5.59 C0.02 5.32, 0 5.04, 0 4.77 C0 4.49, 0.02 4.21, 0.07 3.94 C0.12 3.67, 0.19 3.4, 0.29 3.14 C0.38 2.88, 0.5 2.62, 0.64 2.38 C0.78 2.14, 0.94 1.91, 1.12 1.7 C1.29 1.49, 1.49 1.29, 1.7 1.12 C1.91 0.94, 2.14 0.78, 2.38 0.64 C2.62 0.5, 2.88 0.38, 3.14 0.29 C3.4 0.19, 3.67 0.12, 3.94 0.07 C4.21 0.02, 4.49 0, 4.77 0 C5.04 0, 5.32 0.02, 5.59 0.07 C5.87 0.12, 6.14 0.19, 6.4 0.29 C6.66 0.38, 6.91 0.5, 7.15 0.64 C7.39 0.78, 7.62 0.94, 7.83 1.12 C8.04 1.29, 8.24 1.49, 8.42 1.7 C8.59 1.91, 8.76 2.14, 8.89 2.38 C9.03 2.62, 9.15 2.88, 9.24 3.14 C9.34 3.4, 9.41 3.67, 9.46 3.94 C9.51 4.21, 9.52 4.63, 9.53 4.77 C9.54 4.9, 9.54 4.63, 9.53 4.77" stroke="#3177b3" stroke-width="2" fill="none"></path></g><g stroke-linecap="round"><g transform="translate(78.10474271130886 18.877648085532996) rotate(0 88.87120372572207 0.055960961815742394)"><path d="M-0.64 0.58 C50.83 1.82, 102.51 0.27, 177.61 -1.5 M-0.99 0.76 C41.08 2.14, 83.97 1.85, 178.73 -0.19" stroke="#3177b3" stroke-width="1" fill="none"></path></g><g transform="translate(78.10474271130886 18.877648085532996) rotate(0 88.87120372572207 0.055960961815742394)"><path d="M179.68 0.66 L163.54 5.91 L165.1 -7.96 L180.5 -1.05" stroke="none" stroke-width="0" fill="#3177b3" fill-rule="evenodd"></path><path d="M178.25 0.25 C175.2 2.61, 172.36 3.31, 164.5 5.28 M177.99 0.38 C174.78 1.83, 172.22 3.16, 165.34 6.26 M164.58 6.63 C164.73 0.56, 163.89 -3.14, 165.55 -6.96 M165.82 6.5 C164.97 2.49, 165.13 -0.88, 165.26 -5.97 M165.08 -6.99 C168.9 -2.86, 174.61 -2.16, 178.19 -0.1 M165.54 -5.93 C169.03 -3.93, 172.39 -3.03, 178.41 -0.49 M178.73 -0.19 C178.73 -0.19, 178.73 -0.19, 178.73 -0.19 M178.73 -0.19 C178.73 -0.19, 178.73 -0.19, 178.73 -0.19" stroke="#3177b3" stroke-width="1" fill="none"></path></g></g><mask></mask><g stroke-linecap="round"><g transform="translate(445.81547199286706 19.020255161619275) rotate(0 -92.67258415486822 0.3375536371022463)"><path d="M-1.69 -0.67 C-43.2 -0.52, -86.6 -0.03, -183.11 1.34 M-0.51 0.45 C-62.95 -0.01, -127.17 -0.5, -184.83 -0.02" stroke="#3177b3" stroke-width="1" fill="none"></path></g><g transform="translate(445.81547199286706 19.020255161619275) rotate(0 -92.67258415486822 0.3375536371022463)"><path d="M-183.53 -1.63 L-171.07 -5.17 L-171.75 4.81 L-186.05 1.08" stroke="none" stroke-width="0" fill="#3177b3" fill-rule="evenodd"></path><path d="M-186.11 -0.52 C-182.3 -1.88, -179.95 -2.99, -170.62 -5.4 M-185.22 0.32 C-179.55 -2.63, -175.23 -5.21, -171.91 -6.42 M-171.48 -5.3 C-170.99 -3.06, -170.52 0.78, -171.11 5.18 M-171.28 -6.7 C-171.73 -2.17, -170.77 1.73, -170.68 6.65 M-172.38 5.94 C-175.28 4.15, -179.42 3.8, -185.35 -0.73 M-170.86 5.93 C-174.3 5.04, -178.15 3.53, -184.81 0.57 M-184.83 -0.02 C-184.83 -0.02, -184.83 -0.02, -184.83 -0.02 M-184.83 -0.02 C-184.83 -0.02, -184.83 -0.02, -184.83 -0.02" stroke="#3177b3" stroke-width="1" fill="none"></path></g></g><mask></mask><g stroke-linecap="round" transform="translate(442.0149668072669 13.443893221886583) rotate(0 4.766094436196852 4.766094436196852)"><path d="M9.53 4.77 C9.53 5.04, 9.51 5.32, 9.46 5.59 C9.41 5.87, 9.34 6.14, 9.24 6.4 C9.15 6.66, 9.03 6.91, 8.89 7.15 C8.76 7.39, 8.59 7.62, 8.42 7.83 C8.24 8.04, 8.04 8.24, 7.83 8.42 C7.62 8.59, 7.39 8.76, 7.15 8.89 C6.91 9.03, 6.66 9.15, 6.4 9.24 C6.14 9.34, 5.87 9.41, 5.59 9.46 C5.32 9.51, 5.04 9.53, 4.77 9.53 C4.49 9.53, 4.21 9.51, 3.94 9.46 C3.67 9.41, 3.4 9.34, 3.14 9.24 C2.88 9.15, 2.62 9.03, 2.38 8.89 C2.14 8.76, 1.91 8.59, 1.7 8.42 C1.49 8.24, 1.29 8.04, 1.12 7.83 C0.94 7.62, 0.78 7.39, 0.64 7.15 C0.5 6.91, 0.38 6.66, 0.29 6.4 C0.19 6.14, 0.12 5.87, 0.07 5.59 C0.02 5.32, 0 5.04, 0 4.77 C0 4.49, 0.02 4.21, 0.07 3.94 C0.12 3.67, 0.19 3.4, 0.29 3.14 C0.38 2.88, 0.5 2.62, 0.64 2.38 C0.78 2.14, 0.94 1.91, 1.12 1.7 C1.29 1.49, 1.49 1.29, 1.7 1.12 C1.91 0.94, 2.14 0.78, 2.38 0.64 C2.62 0.5, 2.88 0.38, 3.14 0.29 C3.4 0.19, 3.67 0.12, 3.94 0.07 C4.21 0.02, 4.49 0, 4.77 0 C5.04 0, 5.32 0.02, 5.59 0.07 C5.87 0.12, 6.14 0.19, 6.4 0.29 C6.66 0.38, 6.91 0.5, 7.15 0.64 C7.39 0.78, 7.62 0.94, 7.83 1.12 C8.04 1.29, 8.24 1.49, 8.42 1.7 C8.59 1.91, 8.76 2.14, 8.89 2.38 C9.03 2.62, 9.15 2.88, 9.24 3.14 C9.34 3.4, 9.41 3.67, 9.46 3.94 C9.51 4.21, 9.52 4.63, 9.53 4.77 C9.54 4.9, 9.54 4.63, 9.53 4.77" stroke="none" stroke-width="0" fill="#ffffff"></path><path d="M9.53 4.77 C9.53 5.04, 9.51 5.32, 9.46 5.59 C9.41 5.87, 9.34 6.14, 9.24 6.4 C9.15 6.66, 9.03 6.91, 8.89 7.15 C8.76 7.39, 8.59 7.62, 8.42 7.83 C8.24 8.04, 8.04 8.24, 7.83 8.42 C7.62 8.59, 7.39 8.76, 7.15 8.89 C6.91 9.03, 6.66 9.15, 6.4 9.24 C6.14 9.34, 5.87 9.41, 5.59 9.46 C5.32 9.51, 5.04 9.53, 4.77 9.53 C4.49 9.53, 4.21 9.51, 3.94 9.46 C3.67 9.41, 3.4 9.34, 3.14 9.24 C2.88 9.15, 2.62 9.03, 2.38 8.89 C2.14 8.76, 1.91 8.59, 1.7 8.42 C1.49 8.24, 1.29 8.04, 1.12 7.83 C0.94 7.62, 0.78 7.39, 0.64 7.15 C0.5 6.91, 0.38 6.66, 0.29 6.4 C0.19 6.14, 0.12 5.87, 0.07 5.59 C0.02 5.32, 0 5.04, 0 4.77 C0 4.49, 0.02 4.21, 0.07 3.94 C0.12 3.67, 0.19 3.4, 0.29 3.14 C0.38 2.88, 0.5 2.62, 0.64 2.38 C0.78 2.14, 0.94 1.91, 1.12 1.7 C1.29 1.49, 1.49 1.29, 1.7 1.12 C1.91 0.94, 2.14 0.78, 2.38 0.64 C2.62 0.5, 2.88 0.38, 3.14 0.29 C3.4 0.19, 3.67 0.12, 3.94 0.07 C4.21 0.02, 4.49 0, 4.77 0 C5.04 0, 5.32 0.02, 5.59 0.07 C5.87 0.12, 6.14 0.19, 6.4 0.29 C6.66 0.38, 6.91 0.5, 7.15 0.64 C7.39 0.78, 7.62 0.94, 7.83 1.12 C8.04 1.29, 8.24 1.49, 8.42 1.7 C8.59 1.91, 8.76 2.14, 8.89 2.38 C9.03 2.62, 9.15 2.88, 9.24 3.14 C9.34 3.4, 9.41 3.67, 9.46 3.94 C9.51 4.21, 9.52 4.63, 9.53 4.77 C9.54 4.9, 9.54 4.63, 9.53 4.77" stroke="#3177b3" stroke-width="2" fill="none"></path></g></svg>