<svg xmlns="http://www.w3.org/2000/svg" width="579.522" height="544.736"><defs><style>@font-face{font-family:&quot;Virgil&quot;;src:url(https://excalidraw.com/Virgil.woff2)}@font-face{font-family:&quot;Cascadia&quot;;src:url(https://excalidraw.com/Cascadia.woff2)}@font-face{font-family:&quot;Assistant&quot;;src:url(https://excalidraw.com/Assistant-Regular.woff2)}</style></defs><path fill="none" stroke="#1e1e1e" stroke-linecap="round" stroke-width="4" d="M260.872 394.546c9.698-6.526 44.896-28.965 58.49-38.205 13.587-9.248 19.09-14.4 23.052-17.258m-81.15 53.29c9.454-6.807 42.841-27.734 56.73-36.837 13.897-9.11 22.324-15.165 26.62-17.81M108.223 397.594c-6.737-9.042-30-43.092-39.918-56.492-9.926-13.395-16.3-19.902-19.63-23.886m59.627 79.41c-6.674-8.587-29.725-39.728-39.887-53.04a1162 1162 0 0 0-21.055-26.808"/><g stroke-linecap="round"><path fill="#fff" stroke-width="0" d="M287.888 431.424c0 3.17-.14 6.37-.44 9.53-.29 3.16-.73 6.33-1.32 9.45-.58 3.12-1.31 6.23-2.18 9.29s-1.89 6.09-3.03 9.05a104.3 104.3 0 0 1-8.5 17.07c-1.67 2.7-3.48 5.33-5.4 7.87-1.91 2.53-3.95 4.99-6.09 7.34s-4.4 4.61-6.75 6.75-4.81 4.18-7.34 6.09c-2.54 1.92-5.17 3.73-7.87 5.4a104.6 104.6 0 0 1-17.07 8.5c-2.96 1.14-5.99 2.16-9.05 3.03s-6.17 1.6-9.29 2.18c-3.12.59-6.29 1.03-9.45 1.32-3.16.3-6.36.44-9.53.44-3.18 0-6.37-.14-9.54-.44-3.16-.29-6.32-.73-9.45-1.32-3.12-.58-6.23-1.31-9.29-2.18-3.05-.87-6.08-1.89-9.05-3.03a104 104 0 0 1-8.73-3.86c-2.84-1.41-5.63-2.97-8.33-4.64s-5.34-3.48-7.88-5.4c-2.53-1.91-4.99-3.95-7.34-6.09s-4.6-4.4-6.75-6.75c-2.14-2.35-4.18-4.81-6.09-7.34-1.92-2.54-3.72-5.17-5.39-7.87-1.68-2.71-3.23-5.5-4.65-8.34-1.42-2.85-2.71-5.77-3.85-8.73a102.3 102.3 0 0 1-5.22-18.34c-.58-3.12-1.03-6.29-1.32-9.45s-.44-6.36-.44-9.53c0-3.18.15-6.37.44-9.54a104 104 0 0 1 3.5-18.74c.87-3.05 1.89-6.08 3.04-9.05 1.14-2.96 2.43-5.88 3.85-8.73 1.42-2.84 2.97-5.63 4.65-8.33 1.67-2.7 3.47-5.34 5.39-7.88 1.91-2.53 3.95-4.99 6.09-7.34q3.225-3.525 6.75-6.75c2.35-2.14 4.81-4.18 7.34-6.09 2.54-1.92 5.18-3.72 7.88-5.39 2.7-1.68 5.49-3.23 8.33-4.65 2.85-1.42 5.77-2.71 8.73-3.85 2.97-1.15 6-2.17 9.05-3.04a104.215 104.215 0 0 1 18.74-3.5c3.17-.29 6.36-.44 9.54-.44 3.17 0 6.37.15 9.53.44s6.33.74 9.45 1.32 6.23 1.31 9.29 2.18 6.09 1.89 9.05 3.04c2.96 1.14 5.88 2.43 8.73 3.85 2.84 1.42 5.63 2.97 8.34 4.65 2.7 1.67 5.33 3.47 7.87 5.39 2.53 1.91 4.99 3.95 7.34 6.09 2.35 2.15 4.61 4.4 6.75 6.75a104 104 0 0 1 11.49 15.22c1.67 2.7 3.23 5.49 4.64 8.33 1.42 2.85 2.71 5.77 3.86 8.73 1.14 2.97 2.16 6 3.03 9.05.87 3.06 1.6 6.17 2.18 9.29.59 3.13 1.03 6.29 1.32 9.45.3 3.17.37 7.95.44 9.54.08 1.59.08-1.59 0 0"/><path fill="none" stroke="#1e1e1e" stroke-width="4" d="M287.888 431.424c0 3.17-.14 6.37-.44 9.53-.29 3.16-.73 6.33-1.32 9.45-.58 3.12-1.31 6.23-2.18 9.29s-1.89 6.09-3.03 9.05a104.3 104.3 0 0 1-8.5 17.07c-1.67 2.7-3.48 5.33-5.4 7.87-1.91 2.53-3.95 4.99-6.09 7.34s-4.4 4.61-6.75 6.75-4.81 4.18-7.34 6.09c-2.54 1.92-5.17 3.73-7.87 5.4a104.6 104.6 0 0 1-17.07 8.5c-2.96 1.14-5.99 2.16-9.05 3.03s-6.17 1.6-9.29 2.18c-3.12.59-6.29 1.03-9.45 1.32-3.16.3-6.36.44-9.53.44-3.18 0-6.37-.14-9.54-.44-3.16-.29-6.32-.73-9.45-1.32-3.12-.58-6.23-1.31-9.29-2.18-3.05-.87-6.08-1.89-9.05-3.03a104 104 0 0 1-8.73-3.86c-2.84-1.41-5.63-2.97-8.33-4.64s-5.34-3.48-7.88-5.4c-2.53-1.91-4.99-3.95-7.34-6.09s-4.6-4.4-6.75-6.75c-2.14-2.35-4.18-4.81-6.09-7.34-1.92-2.54-3.72-5.17-5.39-7.87-1.68-2.71-3.23-5.5-4.65-8.34-1.42-2.85-2.71-5.77-3.85-8.73a102.3 102.3 0 0 1-5.22-18.34c-.58-3.12-1.03-6.29-1.32-9.45s-.44-6.36-.44-9.53c0-3.18.15-6.37.44-9.54a104 104 0 0 1 3.5-18.74c.87-3.05 1.89-6.08 3.04-9.05 1.14-2.96 2.43-5.88 3.85-8.73 1.42-2.84 2.97-5.63 4.65-8.33 1.67-2.7 3.47-5.34 5.39-7.88 1.91-2.53 3.95-4.99 6.09-7.34q3.225-3.525 6.75-6.75c2.35-2.14 4.81-4.18 7.34-6.09 2.54-1.92 5.18-3.72 7.88-5.39 2.7-1.68 5.49-3.23 8.33-4.65 2.85-1.42 5.77-2.71 8.73-3.85 2.97-1.15 6-2.17 9.05-3.04a104.215 104.215 0 0 1 18.74-3.5c3.17-.29 6.36-.44 9.54-.44 3.17 0 6.37.15 9.53.44s6.33.74 9.45 1.32 6.23 1.31 9.29 2.18 6.09 1.89 9.05 3.04c2.96 1.14 5.88 2.43 8.73 3.85 2.84 1.42 5.63 2.97 8.34 4.65 2.7 1.67 5.33 3.47 7.87 5.39 2.53 1.91 4.99 3.95 7.34 6.09 2.35 2.15 4.61 4.4 6.75 6.75a104 104 0 0 1 11.49 15.22c1.67 2.7 3.23 5.49 4.64 8.33 1.42 2.85 2.71 5.77 3.86 8.73 1.14 2.97 2.16 6 3.03 9.05.87 3.06 1.6 6.17 2.18 9.29.59 3.13 1.03 6.29 1.32 9.45.3 3.17.37 7.95.44 9.54.08 1.59.08-1.59 0 0"/></g><g stroke-linecap="round"><path fill="#fff" stroke-width="0" d="M252.728 303.321c0 2.7-.15 5.41-.46 8.1-.3 2.68-.75 5.36-1.36 7.99a71.964 71.964 0 0 1-5.34 15.29 74 74 0 0 1-3.93 7.1c-1.43 2.29-3.01 4.5-4.69 6.62a73.8 73.8 0 0 1-11.45 11.45 73 73 0 0 1-6.62 4.69 74 74 0 0 1-7.1 3.93 72 72 0 0 1-15.29 5.34c-2.63.61-5.31 1.06-7.99 1.36-2.69.31-5.4.46-8.1.46s-5.42-.15-8.1-.46c-2.68-.3-5.36-.75-8-1.36a71.964 71.964 0 0 1-15.28-5.34 72 72 0 0 1-7.1-3.93 71 71 0 0 1-6.62-4.69c-2.11-1.69-4.14-3.5-6.05-5.41a74 74 0 0 1-5.4-6.04 73 73 0 0 1-4.69-6.62 72 72 0 0 1-3.93-7.1 72 72 0 0 1-3.1-7.49c-.89-2.55-1.65-5.16-2.25-7.8-.6-2.63-1.05-5.31-1.36-7.99a73 73 0 0 1 0-16.2c.31-2.68.76-5.36 1.36-8a73 73 0 0 1 5.35-15.28c1.17-2.44 2.49-4.82 3.93-7.1a71 71 0 0 1 4.69-6.62c1.68-2.11 3.5-4.14 5.4-6.05 1.91-1.9 3.94-3.72 6.05-5.4a71 71 0 0 1 6.62-4.69c2.28-1.44 4.66-2.76 7.1-3.93a72.911 72.911 0 0 1 15.28-5.35c2.64-.6 5.32-1.05 8-1.36a73 73 0 0 1 16.2 0c2.68.31 5.36.76 7.99 1.36 2.64.6 5.25 1.36 7.8 2.25s5.06 1.93 7.49 3.1a72 72 0 0 1 7.1 3.93c2.29 1.43 4.5 3.01 6.62 4.69a74 74 0 0 1 6.04 5.4c1.91 1.91 3.72 3.94 5.41 6.05a71 71 0 0 1 4.69 6.62c1.44 2.28 2.75 4.66 3.93 7.1a72 72 0 0 1 5.34 15.28c.61 2.64 1.06 5.32 1.36 8 .31 2.68.38 6.75.46 8.1.07 1.35.07-1.35 0 0"/><path fill="none" stroke="#1e1e1e" stroke-width="4" d="M252.728 303.321c0 2.7-.15 5.41-.46 8.1-.3 2.68-.75 5.36-1.36 7.99a71.964 71.964 0 0 1-5.34 15.29 74 74 0 0 1-3.93 7.1c-1.43 2.29-3.01 4.5-4.69 6.62a73.8 73.8 0 0 1-11.45 11.45 73 73 0 0 1-6.62 4.69 74 74 0 0 1-7.1 3.93 72 72 0 0 1-15.29 5.34c-2.63.61-5.31 1.06-7.99 1.36-2.69.31-5.4.46-8.1.46s-5.42-.15-8.1-.46c-2.68-.3-5.36-.75-8-1.36a71.964 71.964 0 0 1-15.28-5.34 72 72 0 0 1-7.1-3.93 71 71 0 0 1-6.62-4.69c-2.11-1.69-4.14-3.5-6.05-5.41a74 74 0 0 1-5.4-6.04 73 73 0 0 1-4.69-6.62 72 72 0 0 1-3.93-7.1 72 72 0 0 1-3.1-7.49c-.89-2.55-1.65-5.16-2.25-7.8-.6-2.63-1.05-5.31-1.36-7.99a73 73 0 0 1 0-16.2c.31-2.68.76-5.36 1.36-8a73 73 0 0 1 5.35-15.28c1.17-2.44 2.49-4.82 3.93-7.1a71 71 0 0 1 4.69-6.62c1.68-2.11 3.5-4.14 5.4-6.05 1.91-1.9 3.94-3.72 6.05-5.4a71 71 0 0 1 6.62-4.69c2.28-1.44 4.66-2.76 7.1-3.93a72.911 72.911 0 0 1 15.28-5.35c2.64-.6 5.32-1.05 8-1.36a73 73 0 0 1 16.2 0c2.68.31 5.36.76 7.99 1.36 2.64.6 5.25 1.36 7.8 2.25s5.06 1.93 7.49 3.1a72 72 0 0 1 7.1 3.93c2.29 1.43 4.5 3.01 6.62 4.69a74 74 0 0 1 6.04 5.4c1.91 1.91 3.72 3.94 5.41 6.05a71 71 0 0 1 4.69 6.62c1.44 2.28 2.75 4.66 3.93 7.1a72 72 0 0 1 5.34 15.28c.61 2.64 1.06 5.32 1.36 8 .31 2.68.38 6.75.46 8.1.07 1.35.07-1.35 0 0"/></g><g stroke-linecap="round"><path fill="#fff" stroke-width="0" d="M231.446 359.08c0 1.2-.21 2.42-.62 3.62-.41 1.19-1.03 2.38-1.84 3.53s-1.83 2.28-3.02 3.36a31.4 31.4 0 0 1-4.12 3.1c-1.54.97-3.27 1.9-5.13 2.76a61 61 0 0 1-6 2.36c-2.12.71-4.39 1.35-6.73 1.9-2.33.54-4.79 1.01-7.29 1.39-2.49.37-5.08.66-7.67.85-2.59.18-5.24.28-7.86.28-2.63 0-5.28-.1-7.87-.28-2.59-.19-5.18-.48-7.67-.85-2.5-.38-4.96-.85-7.29-1.39-2.34-.55-4.61-1.19-6.73-1.9a61 61 0 0 1-6-2.36c-1.86-.86-3.59-1.79-5.13-2.76-1.54-.98-2.93-2.03-4.12-3.1-1.19-1.08-2.21-2.21-3.02-3.36s-1.43-2.34-1.84-3.53a11.2 11.2 0 0 1-.62-3.62c0-1.21.21-2.43.62-3.63.41-1.19 1.03-2.38 1.84-3.53s1.83-2.28 3.02-3.36c1.19-1.07 2.58-2.12 4.12-3.1 1.54-.97 3.27-1.9 5.13-2.76a61 61 0 0 1 6-2.36c2.12-.71 4.39-1.35 6.73-1.9 2.33-.54 4.79-1.01 7.29-1.39 2.49-.37 5.08-.66 7.67-.84 2.59-.19 5.24-.29 7.87-.29 2.62 0 5.27.1 7.86.29 2.59.18 5.18.47 7.67.84 2.5.38 4.96.85 7.29 1.39 2.34.55 4.61 1.19 6.73 1.9s4.15 1.51 6 2.36c1.86.86 3.59 1.79 5.13 2.76 1.54.98 2.93 2.03 4.12 3.1 1.19 1.08 2.21 2.21 3.02 3.36s1.43 2.34 1.84 3.53c.41 1.2.52 3.02.62 3.63.1.6.1-.61 0 0"/><path fill="none" stroke="transparent" stroke-width="2" d="M231.446 359.08c0 1.2-.21 2.42-.62 3.62-.41 1.19-1.03 2.38-1.84 3.53s-1.83 2.28-3.02 3.36a31.4 31.4 0 0 1-4.12 3.1c-1.54.97-3.27 1.9-5.13 2.76a61 61 0 0 1-6 2.36c-2.12.71-4.39 1.35-6.73 1.9-2.33.54-4.79 1.01-7.29 1.39-2.49.37-5.08.66-7.67.85-2.59.18-5.24.28-7.86.28-2.63 0-5.28-.1-7.87-.28-2.59-.19-5.18-.48-7.67-.85-2.5-.38-4.96-.85-7.29-1.39-2.34-.55-4.61-1.19-6.73-1.9a61 61 0 0 1-6-2.36c-1.86-.86-3.59-1.79-5.13-2.76-1.54-.98-2.93-2.03-4.12-3.1-1.19-1.08-2.21-2.21-3.02-3.36s-1.43-2.34-1.84-3.53a11.2 11.2 0 0 1-.62-3.62c0-1.21.21-2.43.62-3.63.41-1.19 1.03-2.38 1.84-3.53s1.83-2.28 3.02-3.36c1.19-1.07 2.58-2.12 4.12-3.1 1.54-.97 3.27-1.9 5.13-2.76a61 61 0 0 1 6-2.36c2.12-.71 4.39-1.35 6.73-1.9 2.33-.54 4.79-1.01 7.29-1.39 2.49-.37 5.08-.66 7.67-.84 2.59-.19 5.24-.29 7.87-.29 2.62 0 5.27.1 7.86.29 2.59.18 5.18.47 7.67.84 2.5.38 4.96.85 7.29 1.39 2.34.55 4.61 1.19 6.73 1.9s4.15 1.51 6 2.36c1.86.86 3.59 1.79 5.13 2.76 1.54.98 2.93 2.03 4.12 3.1 1.19 1.08 2.21 2.21 3.02 3.36s1.43 2.34 1.84 3.53c.41 1.2.52 3.02.62 3.63.1.6.1-.61 0 0"/></g><g stroke-linecap="round"><path stroke-width="0" d="M202.217 281.877c0 .37-.04.75-.1 1.12-.07.37-.17.74-.29 1.09-.13.35-.29.7-.48 1.02-.19.33-.41.64-.65.92-.24.29-.51.56-.8.8-.28.24-.59.46-.92.65-.32.19-.67.35-1.02.48-.35.12-.72.22-1.09.29-.37.06-.75.1-1.12.1-.38 0-.76-.04-1.13-.1-.36-.07-.73-.17-1.08-.29-.36-.13-.7-.29-1.03-.48-.32-.19-.63-.41-.92-.65s-.56-.51-.8-.8c-.24-.28-.46-.59-.64-.92a6.3 6.3 0 0 1-.77-2.11c-.07-.37-.1-.75-.1-1.12 0-.38.03-.76.1-1.13.06-.36.16-.73.29-1.08.13-.36.29-.7.48-1.03a6.3 6.3 0 0 1 1.44-1.72c.29-.24.6-.46.92-.64.33-.19.67-.35 1.03-.48.35-.13.72-.23 1.08-.29.37-.07.75-.1 1.13-.1.37 0 .75.03 1.12.1a6.329 6.329 0 0 1 2.11.77c.33.18.64.4.92.64.29.24.56.51.8.8s.46.6.65.92c.19.33.35.67.48 1.03.12.35.22.72.29 1.08.06.37.08.94.1 1.13.01.18.01-.19 0 0"/><path fill="none" stroke="transparent" stroke-width="2" d="M202.217 281.877c0 .37-.04.75-.1 1.12-.07.37-.17.74-.29 1.09-.13.35-.29.7-.48 1.02-.19.33-.41.64-.65.92-.24.29-.51.56-.8.8-.28.24-.59.46-.92.65-.32.19-.67.35-1.02.48-.35.12-.72.22-1.09.29-.37.06-.75.1-1.12.1-.38 0-.76-.04-1.13-.1-.36-.07-.73-.17-1.08-.29-.36-.13-.7-.29-1.03-.48-.32-.19-.63-.41-.92-.65s-.56-.51-.8-.8c-.24-.28-.46-.59-.64-.92a6.3 6.3 0 0 1-.77-2.11c-.07-.37-.1-.75-.1-1.12 0-.38.03-.76.1-1.13.06-.36.16-.73.29-1.08.13-.36.29-.7.48-1.03a6.3 6.3 0 0 1 1.44-1.72c.29-.24.6-.46.92-.64.33-.19.67-.35 1.03-.48.35-.13.72-.23 1.08-.29.37-.07.75-.1 1.13-.1.37 0 .75.03 1.12.1a6.329 6.329 0 0 1 2.11.77c.33.18.64.4.92.64.29.24.56.51.8.8s.46.6.65.92c.19.33.35.67.48 1.03.12.35.22.72.29 1.08.06.37.08.94.1 1.13.01.18.01-.19 0 0"/></g><g stroke-linecap="round"><path stroke-width="0" d="M174.234 283.046c0 .37-.04.75-.1 1.12-.07.37-.17.74-.29 1.09-.13.35-.29.7-.48 1.02-.19.33-.41.64-.65.92-.24.29-.51.56-.8.8-.28.24-.59.46-.92.65-.32.19-.67.35-1.02.48-.35.12-.72.22-1.09.29-.37.06-.75.1-1.12.1-.38 0-.76-.04-1.13-.1-.36-.07-.73-.17-1.08-.29-.36-.13-.7-.29-1.03-.48-.32-.19-.63-.41-.92-.65s-.56-.51-.8-.8c-.24-.28-.46-.59-.64-.92a6.3 6.3 0 0 1-.77-2.11c-.07-.37-.1-.75-.1-1.12 0-.38.03-.76.1-1.13.06-.36.16-.73.29-1.08.13-.36.29-.7.48-1.03a6.3 6.3 0 0 1 1.44-1.72c.29-.24.6-.46.92-.64.33-.19.67-.35 1.03-.48.35-.13.72-.23 1.08-.29.37-.07.75-.1 1.13-.1.37 0 .75.03 1.12.1a6.329 6.329 0 0 1 2.11.77c.33.18.64.4.92.64.29.24.56.51.8.8s.46.6.65.92c.19.33.35.67.48 1.03.12.35.22.72.29 1.08.06.37.08.94.1 1.13.01.18.01-.19 0 0"/><path fill="none" stroke="transparent" stroke-width="2" d="M174.234 283.046c0 .37-.04.75-.1 1.12-.07.37-.17.74-.29 1.09-.13.35-.29.7-.48 1.02-.19.33-.41.64-.65.92-.24.29-.51.56-.8.8-.28.24-.59.46-.92.65-.32.19-.67.35-1.02.48-.35.12-.72.22-1.09.29-.37.06-.75.1-1.12.1-.38 0-.76-.04-1.13-.1-.36-.07-.73-.17-1.08-.29-.36-.13-.7-.29-1.03-.48-.32-.19-.63-.41-.92-.65s-.56-.51-.8-.8c-.24-.28-.46-.59-.64-.92a6.3 6.3 0 0 1-.77-2.11c-.07-.37-.1-.75-.1-1.12 0-.38.03-.76.1-1.13.06-.36.16-.73.29-1.08.13-.36.29-.7.48-1.03a6.3 6.3 0 0 1 1.44-1.72c.29-.24.6-.46.92-.64.33-.19.67-.35 1.03-.48.35-.13.72-.23 1.08-.29.37-.07.75-.1 1.13-.1.37 0 .75.03 1.12.1a6.329 6.329 0 0 1 2.11.77c.33.18.64.4.92.64.29.24.56.51.8.8s.46.6.65.92c.19.33.35.67.48 1.03.12.35.22.72.29 1.08.06.37.08.94.1 1.13.01.18.01-.19 0 0"/></g><g stroke-linecap="round"><path fill="#f08c00" stroke-width="0" d="M189.387 299.648q0 .54-.09 1.08c-.07.35-.16.7-.28 1.04-.13.34-.28.67-.46.98s-.39.61-.62.89c-.23.27-.49.53-.76.76-.28.23-.58.44-.89.62s-.64.33-.98.46c-.34.12-.69.21-1.04.28a6.6 6.6 0 0 1-2.16 0c-.35-.07-.7-.16-1.04-.28-.34-.13-.67-.28-.98-.46s-.61-.39-.89-.62c-.27-.23-.53-.49-.76-.76-.23-.28-.44-.58-.62-.89s-.33-.64-.46-.98c-.12-.34-.21-.69-.28-1.04a6.6 6.6 0 0 1 0-2.16c.07-.35.16-.7.28-1.04.13-.34.28-.67.46-.98s.39-.61.62-.89c.23-.27.49-.53.76-.76.28-.23.58-.44.89-.62s.64-.33.98-.46c.34-.12.69-.21 1.04-.28a6.6 6.6 0 0 1 2.16 0c.35.07.7.16 1.04.28.34.13.67.28.98.46s.61.39.89.62c.27.23.53.49.76.76.23.28.44.58.62.89s.33.64.46.98c.12.34.21.69.28 1.04.06.36.08.9.09 1.08.02.18.02-.18 0 0"/><path fill="none" stroke="#f08c00" stroke-width="2" d="M189.387 299.648q0 .54-.09 1.08c-.07.35-.16.7-.28 1.04-.13.34-.28.67-.46.98s-.39.61-.62.89c-.23.27-.49.53-.76.76-.28.23-.58.44-.89.62s-.64.33-.98.46c-.34.12-.69.21-1.04.28a6.6 6.6 0 0 1-2.16 0c-.35-.07-.7-.16-1.04-.28-.34-.13-.67-.28-.98-.46s-.61-.39-.89-.62c-.27-.23-.53-.49-.76-.76-.23-.28-.44-.58-.62-.89s-.33-.64-.46-.98c-.12-.34-.21-.69-.28-1.04a6.6 6.6 0 0 1 0-2.16c.07-.35.16-.7.28-1.04.13-.34.28-.67.46-.98s.39-.61.62-.89c.23-.27.49-.53.76-.76.28-.23.58-.44.89-.62s.64-.33.98-.46c.34-.12.69-.21 1.04-.28a6.6 6.6 0 0 1 2.16 0c.35.07.7.16 1.04.28.34.13.67.28.98.46s.61.39.89.62c.27.23.53.49.76.76.23.28.44.58.62.89s.33.64.46.98c.12.34.21.69.28 1.04.06.36.08.9.09 1.08.02.18.02-.18 0 0"/></g><path fill="none" stroke="#f08c00" stroke-linecap="round" stroke-width="2" d="M183.705 293.429c8.24 2.32 16.48 4.65 25.45 7.18m-25.45-7.18c6.64 1.87 13.27 3.74 25.45 7.18"/><path fill="none" stroke="#f08c00" stroke-linecap="round" stroke-width="2" d="m183.724 305.755 25.51-5.23m-25.51 5.23c6.9-1.42 13.79-2.83 25.51-5.23"/><path fill="none" stroke="#f08c00" stroke-linecap="round" stroke-width="4" d="M189.367 299.889c4.8.1 9.6.2 14.4.31m-14.4-.31c4.31.09 8.62.18 14.4.31M188.437 296.142c2.4.68 4.8 1.35 7.29 2.05m-7.29-2.05c1.79.5 3.58 1.01 7.29 2.05M189.068 302.476c2.77-.55 5.53-1.1 9.53-1.89m-9.53 1.89c2.2-.44 4.39-.87 9.53-1.89"/><g stroke-linecap="round"><path stroke-width="0" d="M193.316 399.541c0 .37-.04.75-.1 1.12-.07.37-.17.74-.29 1.09-.13.35-.29.7-.48 1.02-.19.33-.41.64-.65.92-.24.29-.51.56-.8.8-.28.24-.59.46-.92.65-.32.19-.67.35-1.02.48-.35.12-.72.22-1.09.29-.37.06-.75.1-1.12.1-.38 0-.76-.04-1.13-.1-.36-.07-.73-.17-1.08-.29-.36-.13-.7-.29-1.03-.48-.32-.19-.63-.41-.92-.65s-.56-.51-.8-.8c-.24-.28-.46-.59-.64-.92a6.3 6.3 0 0 1-.77-2.11c-.07-.37-.1-.75-.1-1.12 0-.38.03-.76.1-1.13.06-.36.16-.73.29-1.08.13-.36.29-.7.48-1.03a6.3 6.3 0 0 1 1.44-1.72c.29-.24.6-.46.92-.64.33-.19.67-.35 1.03-.48.35-.13.72-.23 1.08-.29.37-.07.75-.1 1.13-.1.37 0 .75.03 1.12.1a6.329 6.329 0 0 1 2.11.77c.33.18.64.4.92.64.29.24.56.51.8.8s.46.6.65.92c.19.33.35.67.48 1.03.12.35.22.72.29 1.08.06.37.08.94.1 1.13.01.18.01-.19 0 0"/><path fill="none" stroke="transparent" stroke-width="2" d="M193.316 399.541c0 .37-.04.75-.1 1.12-.07.37-.17.74-.29 1.09-.13.35-.29.7-.48 1.02-.19.33-.41.64-.65.92-.24.29-.51.56-.8.8-.28.24-.59.46-.92.65-.32.19-.67.35-1.02.48-.35.12-.72.22-1.09.29-.37.06-.75.1-1.12.1-.38 0-.76-.04-1.13-.1-.36-.07-.73-.17-1.08-.29-.36-.13-.7-.29-1.03-.48-.32-.19-.63-.41-.92-.65s-.56-.51-.8-.8c-.24-.28-.46-.59-.64-.92a6.3 6.3 0 0 1-.77-2.11c-.07-.37-.1-.75-.1-1.12 0-.38.03-.76.1-1.13.06-.36.16-.73.29-1.08.13-.36.29-.7.48-1.03a6.3 6.3 0 0 1 1.44-1.72c.29-.24.6-.46.92-.64.33-.19.67-.35 1.03-.48.35-.13.72-.23 1.08-.29.37-.07.75-.1 1.13-.1.37 0 .75.03 1.12.1a6.329 6.329 0 0 1 2.11.77c.33.18.64.4.92.64.29.24.56.51.8.8s.46.6.65.92c.19.33.35.67.48 1.03.12.35.22.72.29 1.08.06.37.08.94.1 1.13.01.18.01-.19 0 0"/></g><g stroke-linecap="round"><path stroke-width="0" d="M194.156 423.634c0 .37-.04.75-.1 1.12-.07.37-.17.74-.29 1.09-.13.35-.29.7-.48 1.02-.19.33-.41.64-.65.92-.24.29-.51.56-.8.8-.28.24-.59.46-.92.65-.32.19-.67.35-1.02.48-.35.12-.72.22-1.09.29-.37.06-.75.1-1.12.1-.38 0-.76-.04-1.13-.1-.36-.07-.73-.17-1.08-.29-.36-.13-.7-.29-1.03-.48-.32-.19-.63-.41-.92-.65s-.56-.51-.8-.8c-.24-.28-.46-.59-.64-.92a6.3 6.3 0 0 1-.77-2.11c-.07-.37-.1-.75-.1-1.12 0-.38.03-.76.1-1.13.06-.36.16-.73.29-1.08.13-.36.29-.7.48-1.03a6.3 6.3 0 0 1 1.44-1.72c.29-.24.6-.46.92-.64.33-.19.67-.35 1.03-.48.35-.13.72-.23 1.08-.29.37-.07.75-.1 1.13-.1.37 0 .75.03 1.12.1a6.329 6.329 0 0 1 2.11.77c.33.18.64.4.92.64.29.24.56.51.8.8s.46.6.65.92c.19.33.35.67.48 1.03.12.35.22.72.29 1.08.06.37.08.94.1 1.13.01.18.01-.19 0 0"/><path fill="none" stroke="transparent" stroke-width="2" d="M194.156 423.634c0 .37-.04.75-.1 1.12-.07.37-.17.74-.29 1.09-.13.35-.29.7-.48 1.02-.19.33-.41.64-.65.92-.24.29-.51.56-.8.8-.28.24-.59.46-.92.65-.32.19-.67.35-1.02.48-.35.12-.72.22-1.09.29-.37.06-.75.1-1.12.1-.38 0-.76-.04-1.13-.1-.36-.07-.73-.17-1.08-.29-.36-.13-.7-.29-1.03-.48-.32-.19-.63-.41-.92-.65s-.56-.51-.8-.8c-.24-.28-.46-.59-.64-.92a6.3 6.3 0 0 1-.77-2.11c-.07-.37-.1-.75-.1-1.12 0-.38.03-.76.1-1.13.06-.36.16-.73.29-1.08.13-.36.29-.7.48-1.03a6.3 6.3 0 0 1 1.44-1.72c.29-.24.6-.46.92-.64.33-.19.67-.35 1.03-.48.35-.13.72-.23 1.08-.29.37-.07.75-.1 1.13-.1.37 0 .75.03 1.12.1a6.329 6.329 0 0 1 2.11.77c.33.18.64.4.92.64.29.24.56.51.8.8s.46.6.65.92c.19.33.35.67.48 1.03.12.35.22.72.29 1.08.06.37.08.94.1 1.13.01.18.01-.19 0 0"/></g><path fill="none" stroke="#1e1e1e" stroke-linecap="round" stroke-width="4" d="M45.712 317.809c-2.7.427-14.117 1.595-16.917 1.908m15.92-1.452c-2.804.47-13.944 1.229-16.67 1.473M45.935 315.045c-2.117-2.425-10.072-11.798-12.244-14.085m12.254 15.41c-2.266-2.437-11.01-12.884-12.94-15.385M47.266 315.844c1.163-2.557 5.59-12.744 6.853-15.386m-6.786 16.721c1.384-2.537 6.91-13.795 8.058-16.67M346.434 340.964c2.456 1.241 12.252 5.494 14.741 6.635m-14.158-7.214c2.416 1.356 11.455 6.498 13.82 7.832M346.811 337.73c2.716-1.672 13.647-7.76 16.405-9.2m-15.235 9.72c2.694-1.62 12.57-7.354 15.01-9.009M345.354 338.253c-.31-2.774-1.636-13.953-2.028-16.844m3.307 17.47c-.407-2.852-3.447-15.126-4.089-18.022"/><path fill="none" stroke="#e03131" stroke-linecap="round" d="M61.103 298.781c0 .34-.03.69-.09 1.02-.06.34-.15.68-.27 1-.11.32-.26.63-.43.93s-.37.58-.59.84-.47.51-.73.73-.54.42-.84.59-.61.32-.93.43c-.32.12-.66.21-1 .27a5.8 5.8 0 0 1-2.04 0c-.34-.06-.68-.15-1-.27-.32-.11-.63-.26-.93-.43s-.58-.37-.84-.59a6.3 6.3 0 0 1-.73-.73c-.22-.26-.42-.54-.59-.84s-.32-.61-.43-.93c-.12-.32-.21-.66-.27-1a5.8 5.8 0 0 1 0-2.04c.06-.34.15-.68.27-1 .11-.32.26-.63.43-.93s.37-.58.59-.84.47-.51.73-.73.54-.42.84-.59.61-.32.93-.43c.32-.12.66-.21 1-.27a5.8 5.8 0 0 1 2.04 0c.34.06.68.15 1 .27.32.11.63.26.93.43s.58.37.84.59.51.47.73.73.42.54.59.84.32.61.43.93c.12.32.21.66.27 1 .06.33.08.85.09 1.02.02.17.02-.17 0 0M38.17 300.515c0 .34-.03.69-.09 1.02-.06.34-.15.68-.27 1-.11.32-.26.63-.43.93s-.37.58-.59.84-.47.51-.73.73-.54.42-.84.59-.61.32-.93.43c-.32.12-.66.21-1 .27a5.8 5.8 0 0 1-2.04 0c-.34-.06-.68-.15-1-.27-.32-.11-.63-.26-.93-.43s-.58-.37-.84-.59a6.3 6.3 0 0 1-.73-.73c-.22-.26-.42-.54-.59-.84s-.32-.61-.43-.93c-.12-.32-.21-.66-.27-1a5.8 5.8 0 0 1 0-2.04c.06-.34.15-.68.27-1 .11-.32.26-.63.43-.93s.37-.58.59-.84.47-.51.73-.73.54-.42.84-.59.61-.32.93-.43c.32-.12.66-.21 1-.27a5.8 5.8 0 0 1 2.04 0c.34.06.68.15 1 .27.32.11.63.26.93.43s.58.37.84.59.51.47.73.73.42.54.59.84.32.61.43.93c.12.32.21.66.27 1 .06.33.08.85.09 1.02.02.17.02-.17 0 0M32.638 319.988c0 .34-.03.69-.09 1.02-.06.34-.15.68-.27 1-.11.32-.26.63-.43.93s-.37.58-.59.84-.47.51-.73.73-.54.42-.84.59-.61.32-.93.43c-.32.12-.66.21-1 .27a5.8 5.8 0 0 1-2.04 0c-.34-.06-.68-.15-1-.27-.32-.11-.63-.26-.93-.43s-.58-.37-.84-.59a6.3 6.3 0 0 1-.73-.73c-.22-.26-.42-.54-.59-.84s-.32-.61-.43-.93c-.12-.32-.21-.66-.27-1a5.8 5.8 0 0 1 0-2.04c.06-.34.15-.68.27-1 .11-.32.26-.63.43-.93s.37-.58.59-.84.47-.51.73-.73.54-.42.84-.59.61-.32.93-.43c.32-.12.66-.21 1-.27a5.8 5.8 0 0 1 2.04 0c.34.06.68.15 1 .27.32.11.63.26.93.43s.58.37.84.59.51.47.73.73.42.54.59.84.32.61.43.93c.12.32.21.66.27 1 .06.33.08.85.09 1.02.02.17.02-.17 0 0"/><text y="14.72" fill="#e03131" dominant-baseline="alphabetic" font-family="Helvetica, Segoe UI Emoji" font-size="16" style="white-space:pre" transform="translate(49.364 275.356)">1</text><text y="14.72" fill="#e03131" dominant-baseline="alphabetic" font-family="Helvetica, Segoe UI Emoji" font-size="16" style="white-space:pre" transform="translate(20.217 277.584)">2</text><text y="14.72" fill="#e03131" dominant-baseline="alphabetic" font-family="Helvetica, Segoe UI Emoji" font-size="16" style="white-space:pre" transform="translate(10 306.04)">3</text><path fill="none" stroke="#e03131" stroke-linecap="round" d="M349.854 319.73c0 .34-.03.69-.09 1.02-.06.34-.15.68-.27 1-.11.32-.26.63-.43.93s-.37.58-.59.84-.47.51-.73.73-.54.42-.84.59-.61.32-.93.43c-.32.12-.66.21-1 .27a5.8 5.8 0 0 1-2.04 0c-.34-.06-.68-.15-1-.27-.32-.11-.63-.26-.93-.43s-.58-.37-.84-.59a6.3 6.3 0 0 1-.73-.73c-.22-.26-.42-.54-.59-.84s-.32-.61-.43-.93c-.12-.32-.21-.66-.27-1a5.8 5.8 0 0 1 0-2.04c.06-.34.15-.68.27-1 .11-.32.26-.63.43-.93s.37-.58.59-.84.47-.51.73-.73.54-.42.84-.59.61-.32.93-.43c.32-.12.66-.21 1-.27a5.8 5.8 0 0 1 2.04 0c.34.06.68.15 1 .27.32.11.63.26.93.43s.58.37.84.59.51.47.73.73.42.54.59.84.32.61.43.93c.12.32.21.66.27 1 .06.33.08.85.09 1.02.02.17.02-.17 0 0"/><text y="14.72" fill="#e03131" dominant-baseline="alphabetic" font-family="Helvetica, Segoe UI Emoji" font-size="16" style="white-space:pre" transform="translate(345.479 298.835)">4</text><g stroke-linecap="round"><path fill="#fff" stroke-width="0" d="M326.502 10.43c6.12-1.34 14.79-.48 20.32 2.74 5.54 3.22 10.21 10.68 12.89 16.58 2.68 5.89 4.25 12.6 3.21 18.8-1.05 6.21-4.87 13.77-9.48 18.45-4.61 4.67-11.65 8.64-18.19 9.6s-15.28-.44-21.04-3.84c-5.76-3.41-10.99-10.7-13.52-16.58-2.53-5.89-3.02-12.54-1.67-18.72s4.25-13.7 9.78-18.37 18.8-8.26 23.42-9.67c4.63-1.41 4.47.7 4.31 1.2m-18.61.92c5.49-3.15 14.08-3.62 20.48-1.85s13.73 7.42 17.91 12.49c4.18 5.06 6.78 11.55 7.19 17.9.41 6.36-1.36 14.62-4.73 20.24-3.38 5.63-9.83 10.82-15.5 13.53-5.68 2.71-12.42 4.05-18.58 2.74-6.15-1.32-13.88-5.57-18.37-10.62-4.49-5.06-7.61-13.32-8.56-19.69-.95-6.38-.51-13.13 2.86-18.56 3.38-5.43 14.6-11.63 17.38-14.01 2.79-2.39-.76-.75-.67-.3"/><path fill="none" stroke="#000" d="M317.172 12.39c5.63-3.02 15.32-3.7 21.67-2.14s12.44 6.56 16.44 11.5c4.01 4.95 6.94 11.8 7.59 18.18.65 6.37-.47 14.34-3.71 20.06-3.24 5.71-9.59 11.56-15.72 14.24-6.12 2.69-14.67 3.53-21.03 1.88s-12.92-6.81-17.13-11.78c-4.2-4.98-7.54-11.78-8.11-18.06s.73-13.66 4.7-19.61 15.09-13.64 19.11-16.1c4.01-2.46 4.8.65 4.99 1.34m-10.29-.39c5.67-2.79 15.44-1.51 21.75.1 6.32 1.62 11.73 5.23 16.14 9.6 4.42 4.37 9.17 10.18 10.37 16.62 1.19 6.44-.06 16.37-3.22 22.01s-9.74 9.19-15.73 11.85c-5.98 2.67-13.89 5.23-20.18 4.17s-12.95-5.72-17.54-10.54c-4.59-4.81-8.98-11.73-9.99-18.34-1-6.61.42-15.57 3.94-21.33 3.53-5.76 14.74-11.15 17.2-13.25 2.46-2.09-2.21.25-2.43.68"/></g><g stroke-linecap="round"><path fill="#fff" stroke-width="0" d="M333.843 18.673c6.09-3.66 15.35-4.32 22.64-3.23s15.62 5.03 21.08 9.76c5.47 4.74 9.59 12.08 11.72 18.67 2.12 6.59 2.67 13.92 1.04 20.87s-5.63 15.8-10.83 20.84c-5.2 5.05-13.15 8.42-20.36 9.43s-16-.41-22.88-3.38c-6.87-2.96-14.18-8.41-18.39-14.43-4.2-6.03-6.6-14.69-6.83-21.73-.23-7.03.67-14.21 5.43-20.5 4.76-6.28 18.48-14.27 23.11-17.21 4.64-2.94 4.62-1.11 4.7-.43m25.92 3.88c6.11 2.79 11.86 9.33 15.54 15.69 3.67 6.37 6.85 15.31 6.53 22.49-.33 7.19-4.05 15.09-8.49 20.6-4.44 5.5-11.19 9.84-18.17 12.42-6.99 2.58-16.87 4.39-23.74 3.07-6.88-1.33-12.62-5.74-17.51-11.03-4.88-5.29-10.13-13.61-11.81-20.72s-.66-15.27 1.73-21.94c2.39-6.68 6.97-13.94 12.64-18.11 5.66-4.17 13.8-6.37 21.33-6.9 7.53-.54 20.26 2.97 23.85 3.7 3.58.73-1.95.27-2.35.67"/><path fill="none" stroke="#000" d="M363.033 16.043c6.83 1.39 13.6 7.46 18.19 12.91s8.12 12.73 9.35 19.79c1.24 7.07.84 15.81-1.96 22.61s-8.64 14.02-14.83 18.19c-6.18 4.17-14.99 6.9-22.27 6.83-7.29-.08-15.32-3.38-21.42-7.28-6.11-3.89-12.1-9.74-15.22-16.09s-4.37-14.68-3.48-22.02c.88-7.33 4.06-16.49 8.78-21.99 4.73-5.51 12.14-9.17 19.56-11.04 7.42-1.88 20.47-.31 24.96-.23 4.49.09 2.13.28 1.97.73m-35.21 1.93c5.86-4.1 16.39-7.07 24.06-6.44 7.66.62 16.17 5.78 21.93 10.2 5.75 4.43 10.28 9.56 12.61 16.35 2.34 6.79 2.99 17.14 1.41 24.41s-5.49 14.2-10.88 19.2c-5.4 4.99-14.15 9.52-21.51 10.77-7.36 1.26-16.25-.5-22.66-3.26-6.4-2.75-11.41-7.5-15.76-13.24s-9.45-13.92-10.33-21.2c-.87-7.29 1.35-16.4 5.11-22.51 3.75-6.11 14.51-11.78 17.42-14.18 2.91-2.39-.26-.68.02-.2"/></g><g stroke-linecap="round"><path fill="#fff" stroke-width="0" d="M398.393 17.665c6.64 2.42 13.8 9.14 17.74 15.27 3.95 6.12 5.84 14.55 5.93 21.49.1 6.94-1.83 13.98-5.35 20.13-3.53 6.14-9.45 13.41-15.81 16.75-6.35 3.34-15.08 4.35-22.34 3.3s-15.41-4.87-21.22-9.6-11.28-11.84-13.64-18.77c-2.35-6.94-2.29-16.01-.48-22.81s5.91-13.37 11.36-17.99c5.44-4.61 13.98-8.66 21.32-9.71 7.34-1.06 18.71 2.57 22.71 3.38s1.24.99 1.28 1.46m-7.17-3.58c6.95 1.43 15.79 7.21 20.71 12.65 4.91 5.43 7.86 13.1 8.77 19.96.91 6.87-.1 14.61-3.32 21.23s-10.11 14.39-16 18.5c-5.9 4.1-12.35 6.32-19.35 6.13s-16.42-3.32-22.64-7.28-11.53-10-14.66-16.48c-3.12-6.48-5-15.39-4.09-22.37.91-6.99 4.51-14.06 9.56-19.53 5.06-5.47 13.87-11.07 20.78-13.28 6.9-2.22 17 .03 20.64-.02 3.65-.05 1.32-1.03 1.23-.29"/><path fill="none" stroke="#000" d="M376.393 15.475c6.45-1.48 15.27-.36 21.92 2.54 6.64 2.9 13.94 8.65 17.95 14.87s6.25 15.09 6.1 22.45c-.14 7.36-3.04 15.85-6.97 21.72-3.92 5.88-10.09 10.6-16.59 13.53-6.5 2.92-15.28 4.84-22.42 4.01-7.13-.83-14.92-4.13-20.41-9-5.48-4.86-10.53-13.31-12.5-20.18s-1.36-14.23.68-21.02 5.72-14.6 11.57-19.72c5.85-5.13 18.87-9.31 23.52-11.01s4.38-.04 4.4.8m11.87.63c7.16 1.62 14.88 9.22 19.47 14.85 4.58 5.63 7.34 11.75 8.04 18.92.7 7.18-.69 17.41-3.85 24.11s-8.7 12.44-15.13 16.1c-6.42 3.67-15.91 6.3-23.41 5.88s-15.99-4.17-21.6-8.41c-5.62-4.23-9.21-10.44-12.1-17.01-2.88-6.56-6.01-15.2-5.2-22.38.8-7.19 4.93-15.61 10.05-20.74 5.11-5.12 13.48-8.31 20.63-10.01 7.14-1.7 18.55-.33 22.24-.19 3.7.13.03.27-.08 1.02"/></g><g stroke-linecap="round"><path fill="#fff" stroke-width="0" d="M407.627 17.275c6.26-2.47 14.71-2.12 21.6-.53s14.66 4.75 19.74 10.07 9.41 14.55 10.74 21.85.17 15.51-2.76 21.94-8.62 12.75-14.84 16.66c-6.21 3.9-15.09 6.65-22.46 6.76-7.36.11-15.51-2.51-21.72-6.09-6.22-3.59-12.51-9.15-15.56-15.4-3.04-6.25-3.56-14.97-2.71-22.09s2.51-14.88 7.82-20.62c5.31-5.73 18.91-11.38 24.05-13.79 5.14-2.4 6.48-1.08 6.8-.64m16.19 3.12c6.78 1.94 13.15 7.66 17.28 13.22s7.31 12.88 7.5 20.15c.2 7.26-2.96 16.94-6.32 23.43-3.37 6.49-7.71 12.34-13.87 15.52-6.17 3.18-15.78 4.25-23.12 3.57-7.34-.67-15.07-3.29-20.92-7.61-5.85-4.31-11.62-11.65-14.17-18.29s-3.07-14.49-1.11-21.54 7.72-15.53 12.87-20.74c5.15-5.22 11.04-8.96 18.04-10.57 7.01-1.61 20.18.35 23.98.89 3.81.54-.68 1.59-1.15 2.37"/><path fill="none" stroke="#000" d="M407.627 16.035c6.5-2.5 16.4-1.93 23.39.31 6.99 2.25 14.04 7.51 18.56 13.14 4.51 5.63 7.61 13.69 8.54 20.62s.03 14.54-2.95 20.98c-2.99 6.44-8.88 13.63-14.97 17.66-6.08 4.02-14.3 6.71-21.52 6.5-7.23-.2-15.87-3.85-21.83-7.74-5.95-3.89-10.98-9.16-13.89-15.6-2.92-6.43-4.52-15.59-3.62-23.03.89-7.44 3.07-15.8 8.99-21.63 5.93-5.83 21.2-11.39 26.58-13.35s5.52.96 5.69 1.61m6.96.21c6.89.64 14.36 3.19 19.59 8.07 5.22 4.88 9.86 13.99 11.74 21.21s2.01 15.27-.45 22.1c-2.46 6.82-8.43 14.47-14.3 18.85-5.88 4.38-14.12 6.74-20.96 7.42-6.85.68-13.54-.25-20.12-3.34s-15.17-8.96-19.35-15.22-6.14-15.31-5.72-22.35 4-14.04 8.23-19.89c4.24-5.85 10.53-12.29 17.17-15.21 6.63-2.92 18.81-2.11 22.64-2.29 3.82-.18.62.75.31 1.21"/></g><g stroke-linecap="round"><path fill="#fff" stroke-width="0" d="M462.745 15.375c6.76-.99 15.88.47 22.26 4.22 6.38 3.76 12.76 11.62 16.03 18.3s4.57 14.84 3.61 21.8c-.97 6.97-4.56 14.57-9.41 19.99-4.85 5.41-12.66 10.37-19.69 12.5-7.04 2.12-15.48 1.94-22.5.22-7.02-1.71-14.89-5.39-19.62-10.5-4.74-5.11-7.61-13.09-8.79-20.16-1.19-7.08-1.07-15.69 1.67-22.28 2.74-6.6 7.79-13.14 14.78-17.28 7-4.13 22.08-6.41 27.16-7.52 5.09-1.12 3.46.3 3.36.84m3.71 1.28c6.64 1.1 14.42 5.55 18.95 11.06 4.53 5.5 7 14.61 8.23 21.97 1.24 7.35 1.93 15.76-.83 22.15-2.77 6.39-9.53 12.33-15.74 16.2s-14.19 6.89-21.55 7c-7.35.11-16.38-2.61-22.59-6.34s-11.97-9.46-14.67-16.04c-2.69-6.58-2.48-16.1-1.5-23.44.99-7.34 2.76-14.95 7.41-20.6 4.64-5.65 13.42-11.35 20.45-13.31 7.04-1.95 18.26 1.32 21.76 1.6 3.5.29-.57-.48-.74.12"/><path fill="none" stroke="#000" d="M474.755 16.065c6.84 1.42 14.21 7.14 18.87 12.64s7.96 13.46 9.07 20.37c1.12 6.91.45 14.54-2.36 21.06-2.82 6.51-8.54 13.85-14.52 18.04-5.98 4.18-14.14 7.08-21.36 7.07-7.22-.02-15.93-3.45-21.99-7.18-6.05-3.74-11.25-8.85-14.33-15.21-3.09-6.36-4.91-15.48-4.2-22.95s3.77-16.13 8.46-21.86c4.68-5.74 12.26-10.7 19.65-12.54 7.38-1.84 19.83 1.1 24.64 1.5 4.82.39 4.23.18 4.23.84m-34.44-.26c5.76-3.64 15.06-3.28 22.3-2.34 7.25.94 15.73 3.54 21.18 7.99 5.45 4.44 9.45 12.01 11.52 18.66 2.06 6.65 2.26 14.35.86 21.23-1.39 6.88-3.88 14.99-9.22 20.06-5.35 5.07-15.29 9.08-22.85 10.36-7.55 1.27-16-.2-22.49-2.73-6.5-2.53-12.47-6.65-16.49-12.45-4.03-5.79-7.32-14.97-7.67-22.3-.34-7.33 1.85-15.55 5.59-21.68 3.75-6.13 14.28-12.44 16.89-15.11 2.6-2.66-1.72-1.38-1.25-.9"/></g><g stroke-linecap="round"><path fill="#fff" stroke-width="0" d="M527.873 17.475c6.67 2.39 13.82 10.23 17.79 16.52 3.98 6.3 6.22 14.24 6.06 21.26-.17 7.02-2.85 14.97-7.06 20.86-4.2 5.89-11.43 11.62-18.18 14.5-6.75 2.87-15.12 3.65-22.31 2.72-7.19-.92-15.52-3.75-20.82-8.29s-9.01-12.06-10.98-18.96-2.82-15.58-.83-22.45 6.92-13.97 12.77-18.77c5.85-4.79 14.08-9.32 22.32-9.99 8.25-.66 21.91 4.34 27.17 6.01s4.75 3.32 4.37 4.01m-11-7.35c6.29 2.34 11.86 9.85 16 16.11 4.15 6.25 8.59 14.38 8.87 21.42.29 7.04-3.17 14.77-7.17 20.83s-10.16 12.37-16.85 15.52c-6.68 3.15-15.96 4.18-23.25 3.37-7.28-.81-15.29-3.52-20.47-8.23-5.18-4.7-8.49-12.89-10.61-20s-4.02-15.5-2.12-22.63c1.91-7.13 8.02-15.48 13.55-20.16 5.53-4.67 12.72-6.98 19.65-7.9 6.92-.92 18.2 1.82 21.89 2.41 3.7.59.32.69.29 1.15"/><path fill="none" stroke="#000" d="M510.123 15.455c6.68-.51 14.97 2.5 21.05 6.11s12.28 9.11 15.42 15.53c3.14 6.43 4.35 15.68 3.43 23.01-.92 7.32-4.28 15.58-8.94 20.94-4.67 5.36-12.24 9.03-19.05 11.2-6.81 2.18-14.89 3.65-21.81 1.85s-14.73-6.94-19.71-12.64c-4.97-5.7-9.1-14.25-10.16-21.57-1.05-7.32.92-15.92 3.83-22.36 2.9-6.44 7.04-12.28 13.62-16.27 6.58-3.98 21.17-6.74 25.85-7.64 4.69-.89 2.54 1.32 2.24 2.29m3.85-.02c6.89 1.07 15.22 5.13 20.16 10.14 4.95 5.02 8.17 13.09 9.5 19.94 1.33 6.86.61 14.55-1.52 21.21-2.12 6.66-5.38 14.27-11.22 18.75-5.84 4.49-16.15 7.66-23.81 8.18-7.66.51-15.96-1.86-22.14-5.08-6.17-3.22-11.53-8.04-14.91-14.24-3.38-6.19-5.79-15.63-5.37-22.95s3.49-15.28 7.87-20.99c4.39-5.71 11.87-10.5 18.43-13.29s17.04-3.16 20.93-3.44c3.88-.28 2.47.86 2.4 1.76"/></g><g stroke-linecap="round"><path fill="#fff" stroke-width="0" d="M357.291 57.628c6.62 2.53 13.19 8.46 17.01 14.34s6.14 13.86 5.9 20.95c-.23 7.09-3.27 15.56-7.33 21.58s-10.39 11.37-17.01 14.55c-6.63 3.17-15.71 5.29-22.76 4.51-7.04-.79-14.06-4.54-19.54-9.23-5.47-4.69-11.13-11.99-13.29-18.89-2.15-6.9-2.01-15.45.37-22.51s8.23-14.9 13.9-19.84c5.68-4.94 12.55-8.91 20.17-9.8s20.9 3.14 25.53 4.47c4.62 1.34 2.53 2.86 2.22 3.56m-15.12-6.05c7.02 1.17 16.8 5.81 22.11 10.78 5.3 4.97 8.36 12.01 9.7 19.04s1.04 16.28-1.67 23.13-8.65 13.52-14.6 17.98c-5.95 4.45-14.2 8.28-21.1 8.73-6.9.44-13.96-2.38-20.31-6.08-6.35-3.71-14.32-9.6-17.81-16.16-3.49-6.55-3.84-16.07-3.16-23.19.68-7.11 3.08-13.89 7.24-19.47 4.16-5.59 10.9-11.54 17.71-14.04 6.82-2.5 19.21-.74 23.19-.99s.63-1.29.69-.51"/><path fill="none" stroke="#000" d="M341.731 54.368c6.84-.28 15.74 2.35 21.58 6.58 5.83 4.23 10.92 11.86 13.46 18.79 2.53 6.94 3.31 15.93 1.77 22.83-1.55 6.9-6.04 13.42-11.06 18.57-5.02 5.16-12.04 10.69-19.07 12.37-7.02 1.67-16.14.53-23.09-2.31s-14.33-8.74-18.6-14.71c-4.26-5.98-6.46-14.11-6.98-21.15s.29-14.73 3.87-21.08 10.24-13.72 17.64-17.02c7.39-3.31 21.72-2.79 26.72-2.82 4.99-.04 3.36 1.92 3.24 2.59m-27.47.11c5.77-3.46 13.94-3.97 20.84-3.19 6.89.79 14.67 3.33 20.52 7.88 5.84 4.56 12.53 12.43 14.53 19.45 2 7.03-.1 15.8-2.53 22.68-2.43 6.89-6.85 13.66-12.07 18.62-5.23 4.96-12.27 9.95-19.27 11.15-7.01 1.19-16.13-.9-22.76-3.96-6.64-3.06-13.18-8.47-17.04-14.41-3.85-5.94-5.83-13.78-6.08-21.21s.57-17.13 4.59-23.35 16.59-11.84 19.55-13.96c2.95-2.12-1.87.49-1.8 1.25"/></g><g stroke-linecap="round"><path fill="#fff" stroke-width="0" d="M344.632 103.445c5.97 2.19 12.5 9.65 15.75 15.48 3.25 5.84 4.65 13.33 3.75 19.53-.89 6.2-4.46 13.12-9.11 17.69-4.66 4.57-12.31 8.56-18.8 9.71-6.49 1.16-14.24-.21-20.13-2.78s-12.21-7.22-15.22-12.63c-3-5.4-3.6-13.47-2.8-19.82s3.3-13.63 7.6-18.29c4.29-4.67 10.73-8.84 18.19-9.71 7.47-.88 21.62 3.12 26.61 4.44s3.68 3.16 3.33 3.49m-13.9-7.4c5.9 1 13.02 5.18 16.76 10.34 3.75 5.16 5.3 13.96 5.69 20.62s.04 14.19-3.37 19.34c-3.41 5.16-10.86 9.45-17.08 11.58-6.23 2.13-13.92 2.92-20.25 1.21-6.33-1.72-13.66-6.55-17.74-11.49s-6.84-11.7-6.72-18.17c.13-6.47 3.86-15.12 7.47-20.64 3.6-5.53 8.17-10.14 14.17-12.5s18.37-1.77 21.84-1.67-.66 1.57-1.04 2.26"/><path fill="none" stroke="#000" d="M345.082 104.335c5.74 2.27 11.41 9.17 14.37 15.09s4.4 14.19 3.39 20.41c-1.01 6.23-4.97 12.3-9.44 16.93-4.46 4.62-11.03 9.66-17.37 10.82-6.35 1.17-14.75-.6-20.69-3.84-5.94-3.23-12.07-9.61-14.95-15.55-2.87-5.94-3.3-13.87-2.31-20.08 1-6.21 3.61-12.59 8.28-17.18 4.68-4.58 12.68-9.63 19.79-10.32s18.87 4.65 22.86 6.2c4 1.55 1.39 2.64 1.11 3.12m-32.46-5.65c5.16-3.05 12.65-3.32 18.72-2.27 6.07 1.04 12.97 3.94 17.72 8.53s10.08 12.5 10.77 19.02c.7 6.51-3.01 14.5-6.6 20.09-3.58 5.58-9.26 10.5-14.91 13.41-5.66 2.92-12.82 5.2-19.02 4.08s-13.76-5.97-18.2-10.81c-4.44-4.83-7.76-11.91-8.44-18.21-.68-6.31 1.41-13.74 4.35-19.59 2.95-5.85 10.62-13.19 13.31-15.52 2.69-2.32 2.54.82 2.85 1.57"/></g><g stroke-linecap="round"><path fill="#fff" stroke-width="0" d="M388.017 87.69c6.47 1.53 13.22 7.28 17.6 12.88s7.98 13.33 8.68 20.7c.7 7.38-1.32 16.87-4.48 23.57-3.15 6.71-8.22 12.97-14.47 16.69s-15.68 5.89-23.04 5.64-15.51-2.86-21.11-7.13c-5.6-4.28-9.94-11.6-12.47-18.51-2.54-6.91-4.02-15.71-2.75-22.94 1.27-7.24 5.43-15.35 10.38-20.49 4.95-5.13 11.57-8.97 19.32-10.32s22.1 1.39 27.17 2.23c5.07.85 3.73 2.38 3.25 2.84m-8.62-4.83c6.57 1.55 14.33 7.7 18.77 13.41s7.18 13.49 7.86 20.84c.68 7.36-.86 16.82-3.76 23.29-2.89 6.47-7.35 12-13.59 15.53-6.24 3.54-16.53 6.07-23.85 5.66-7.31-.41-14.18-4.1-20.04-8.1s-12.09-9.41-15.12-15.91c-3.03-6.51-4.3-15.96-3.03-23.12s5.5-14.37 10.65-19.83 13.06-11.22 20.26-12.92c7.2-1.69 19.26 2.53 22.93 2.75 3.67.23-.59-1.59-.92-1.41"/><path fill="none" stroke="#000" d="M392.507 90.83c6.4 2.79 12.99 9.74 16.63 15.82 3.64 6.09 5.45 13.43 5.23 20.71-.21 7.28-2.39 16.9-6.52 22.96s-11.39 10.98-18.27 13.39-15.98 2.62-23.03 1.09c-7.05-1.52-13.99-5.44-19.26-10.24-5.27-4.79-10.74-11.51-12.36-18.54-1.63-7.04.05-16.85 2.61-23.66s7.36-13.01 12.76-17.19c5.41-4.18 12.3-7.3 19.68-7.9 7.39-.6 20.64 3.36 24.63 4.3 4 .94-.31.73-.64 1.34m-19.24-7.82c7.22-.6 17.83 3.11 23.76 7.21 5.94 4.1 9.4 10.82 11.87 17.37 2.46 6.55 3.82 14.6 2.9 21.93-.93 7.32-3.79 16.51-8.46 22.02-4.67 5.5-12.55 9.2-19.55 11.03s-15.63 1.96-22.44-.06c-6.8-2.02-13.54-6.34-18.39-12.07s-9.95-15.03-10.71-22.3c-.77-7.28 2.93-15.07 6.1-21.35 3.18-6.29 7-12.68 12.92-16.35 5.93-3.66 18.65-4.59 22.65-5.65 4.01-1.06 1.16-1.23 1.37-.71"/></g><g stroke-linecap="round"><path fill="#fff" stroke-width="0" d="M414.11 85.61c6.76-.1 15.54 3.22 21.27 7.76s10.51 12.44 13.12 19.48 4.12 15.64 2.54 22.76-6.75 14.81-12.01 19.94c-5.27 5.14-12.82 9.48-19.57 10.86-6.75 1.39-14.34.23-20.91-2.54-6.56-2.77-14.12-8.14-18.48-14.07-4.35-5.93-7.16-14.44-7.65-21.52s1.2-14.73 4.71-20.94c3.5-6.21 8.5-13.09 16.32-16.33 7.81-3.24 24.29-3.17 30.56-3.11 6.28.07 7.26 2.75 7.09 3.51m-9.51-3.61c6.68 1.2 13.8 5.96 18.65 11.39 4.84 5.42 8.77 14.06 10.43 21.16 1.65 7.09 2.25 14.9-.51 21.41-2.76 6.52-10.03 13.69-16.02 17.68-6 3.98-12.83 5.83-19.95 6.23-7.13.41-16.34-.32-22.81-3.8-6.48-3.48-12.78-10.6-16.04-17.08-3.27-6.48-4.54-14.45-3.57-21.79s4.67-16.71 9.36-22.24c4.7-5.54 12.02-8.63 18.81-10.98 6.79-2.36 18.31-2.66 21.92-3.15s.17-.81-.27.2"/><path fill="none" stroke="#000" d="M402.8 87.62c6.61-2.16 15.51-2.19 22.39.4s14.52 9.19 18.89 15.14 7 13.63 7.33 20.54c.33 6.92-1.94 14.79-5.35 20.95-3.42 6.17-8.77 12.39-15.14 16.02s-15.98 6.31-23.09 5.77-14-4.69-19.57-9c-5.56-4.31-11.04-10.37-13.82-16.84s-4.43-14.94-2.88-21.98c1.56-7.05 6.55-15.02 12.21-20.29 5.67-5.27 17.42-9.54 21.8-11.32 4.39-1.77 4.3.14 4.54.65m6.37-1.9c6.8.11 13.1 3.89 18.39 8.22s10.7 10.77 13.35 17.76c2.66 6.98 4.06 17 2.58 24.15-1.47 7.16-6.21 13.86-11.42 18.8-5.2 4.94-12.81 9.29-19.79 10.86s-15.14 1.36-22.08-1.44-15.46-9.42-19.56-15.37c-4.11-5.94-4.73-13.32-5.09-20.29s-.4-15.35 2.93-21.5c3.32-6.15 10.27-11.82 17.03-15.39 6.77-3.58 19.63-5.3 23.53-6.07 3.91-.76.4.47-.09 1.47"/></g><g stroke-linecap="round"><path fill="#fff" stroke-width="0" d="M444.059 87.08c6.35-2.38 15.17-1.19 22.25 1 7.07 2.19 15.41 6.69 20.21 12.14 4.8 5.44 7.6 13.37 8.6 20.55 1.01 7.18.02 16.02-2.56 22.52-2.57 6.49-7.08 12.67-12.9 16.45s-14.75 6.26-22.02 6.24c-7.27-.01-15.48-2.67-21.62-6.35s-12.16-9.31-15.24-15.72c-3.09-6.41-4.19-15.48-3.29-22.73.9-7.24 3.25-14.85 8.68-20.75s18.77-12.53 23.91-14.65c5.13-2.12 6.68 1.1 6.92 1.91m-3.46-1c6.71-.78 15.57 2.61 22.18 6.16 6.62 3.55 14.16 8.93 17.5 15.14 3.33 6.21 3.22 15.11 2.51 22.13s-2.45 14.18-6.77 19.99c-4.32 5.82-12.12 12.31-19.16 14.9s-16.06 2.3-23.09.62c-7.02-1.68-14.27-5.37-19.06-10.7-4.79-5.34-8.45-14.33-9.68-21.29-1.23-6.97-.29-13.72 2.28-20.48 2.57-6.75 7.42-15.36 13.15-20.06s17.94-7.39 21.22-8.15c3.27-.77-1.63 2.47-1.57 3.56"/><path fill="none" stroke="#000" d="M460.739 85.77c6.99.33 15.95 5.76 21.56 10.53 5.61 4.78 10.08 11.52 12.08 18.11 2.01 6.6 1.78 14.67-.05 21.47s-5.57 14.3-10.95 19.32c-5.39 5.02-14.33 9.64-21.36 10.81-7.03 1.16-14.41-.99-20.83-3.82-6.42-2.84-13.39-7.49-17.69-13.18s-7.97-13.77-8.12-20.98c-.14-7.21 3.48-16.05 7.27-22.28s8.63-12.05 15.49-15.1 21.13-2.72 25.67-3.22c4.55-.51 1.75-.28 1.6.2m-24.63.75c5.76-3.06 15.25-3.99 22.54-2.34s15.87 7.05 21.18 12.22c5.32 5.17 9.11 11.87 10.7 18.8 1.58 6.94 1.14 15.91-1.21 22.82-2.35 6.92-6.96 14.47-12.9 18.67-5.94 4.19-15.67 6.02-22.72 6.5-7.05.49-13.26-.45-19.57-3.6-6.31-3.14-14.55-9.13-18.29-15.28-3.74-6.16-4.99-14.23-4.17-21.63.81-7.4 4.56-16.8 9.05-22.77 4.5-5.97 15.33-11.24 17.93-13.07 2.61-1.83-2.47 1.25-2.29 2.08"/></g><g stroke-linecap="round"><path fill="#fff" stroke-width="0" d="M488.726 89.02c6.37-2.61 16.54-2.85 23.57-1.18 7.04 1.66 13.7 5.97 18.63 11.17 4.93 5.21 9.16 13.09 10.95 20.05 1.8 6.95 2.2 15.14-.19 21.67-2.4 6.53-8.29 13.35-14.16 17.5-5.88 4.14-13.88 6.79-21.09 7.37-7.22.58-15.93-.49-22.23-3.9-6.29-3.41-12.13-10.09-15.55-16.55s-5.38-14.84-4.98-22.19c.39-7.34 2.6-16.16 7.35-21.89 4.76-5.72 17.31-10.31 21.18-12.45 3.88-2.15 2.01-.96 2.07-.41m14.27-.14c7.2.43 16.88 3.81 22.29 8.37 5.42 4.56 8.28 12.25 10.22 19.01 1.93 6.76 3.35 14.52 1.39 21.54-1.95 7.03-7.42 15.73-13.12 20.61-5.71 4.88-13.96 7.71-21.11 8.68-7.14.98-15.43.32-21.76-2.84-6.32-3.17-12.49-10.18-16.18-16.14-3.7-5.97-5.95-12.41-5.99-19.66s1.95-17.31 5.75-23.84 10.74-12.71 17.04-15.33 17.04-.43 20.78-.4c3.73.02 1.56.29 1.63.55"/><path fill="none" stroke="#000" d="M513.786 88.41c6.82 1.38 14.08 6.05 18.78 11.1 4.69 5.04 8.11 12.24 9.37 19.19 1.27 6.94 1.07 15.67-1.79 22.49-2.85 6.82-9.48 14.39-15.36 18.43-5.88 4.05-12.91 5.62-19.92 5.84-7.01.21-15.7-1.11-22.14-4.56-6.44-3.46-13.36-9.67-16.52-16.15s-3.28-15.5-2.42-22.74c.86-7.25 3-15.19 7.59-20.73 4.59-5.55 12.37-10.36 19.95-12.55 7.57-2.18 20.77-.79 25.51-.57 4.74.23 3.29 1.08 2.94 1.93m-25.37-4.16c6.84-1.66 16.88.96 23.73 3.76 6.86 2.8 13.25 7.28 17.42 13.06 4.16 5.78 7.11 14.29 7.55 21.63.45 7.33-1.07 16.32-4.88 22.38-3.82 6.06-11.72 10.78-17.99 13.98s-12.51 5.68-19.64 5.24c-7.12-.45-17.22-3.57-23.12-7.89-5.89-4.32-10.25-11-12.24-18.01-1.99-7.02-1.62-16.92.32-24.09 1.93-7.16 6.48-14.25 11.28-18.9 4.81-4.65 14.21-7.63 17.53-9.01 3.32-1.39 2.04.17 2.41.71"/></g><g stroke-linecap="round"><path fill="#fff" stroke-width="0" d="M523.307 10.57c5.69-2.05 13.8-.72 20.03 1.62s13.63 7.07 17.35 12.41c3.71 5.33 5.15 13.11 4.94 19.61-.22 6.51-2.7 14.35-6.25 19.41-3.54 5.05-9.04 9.21-15.01 10.91-5.98 1.7-14.66 1.48-20.83-.73-6.16-2.21-12.43-7.37-16.17-12.52-3.73-5.14-6.32-12-6.22-18.34s2.1-14.26 6.84-19.71c4.73-5.45 17.18-10.76 21.54-13 4.37-2.24 4.53-1.1 4.63-.43m7.6 1.6c5.94 1.14 12.38 5.66 16.43 10.77 4.04 5.12 7.05 13.48 7.83 19.92s.3 13.41-3.15 18.72c-3.46 5.3-11.49 10.85-17.57 13.1s-12.72 1.86-18.9.4c-6.17-1.46-13.78-4.37-18.17-9.15-4.4-4.78-7.74-13.06-8.19-19.54-.44-6.49 1.85-13.74 5.51-19.37 3.67-5.63 10.28-12.12 16.47-14.43s17.37.74 20.68.58c3.3-.16-.58-1.61-.83-1.53"/><path fill="none" stroke="#000" d="M521.647 12.33c5.41-2.87 13.56-3.59 19.85-2.05 6.29 1.53 13.88 6.05 17.9 11.27 4.01 5.23 5.79 13.64 6.18 20.08.4 6.44-.47 13.15-3.81 18.58-3.34 5.42-9.92 11.4-16.23 13.98-6.32 2.58-15.45 3.19-21.67 1.49-6.22-1.71-11.65-6.57-15.67-11.69s-8.16-12.61-8.46-19.03c-.3-6.43 2.52-13.83 6.65-19.51s14.64-12.13 18.14-14.57c3.49-2.43 2.82-.81 2.84-.06m-1.26-1.21c6.15-1.41 15.46 1.27 21.46 4.13 6 2.85 11.45 7.47 14.54 13.02s4.72 13.75 4.02 20.28-3.59 14.37-8.2 18.89c-4.62 4.52-13.29 7.12-19.48 8.23s-11.89.94-17.67-1.56c-5.78-2.49-13.69-7.9-17.02-13.41-3.33-5.5-4.16-13.02-2.98-19.61 1.17-6.6 5.39-15.11 10.04-19.97 4.64-4.86 15.26-7.99 17.83-9.19 2.56-1.2-2.51 1.24-2.46 1.99"/></g><g stroke-linecap="round"><path fill="#fff" stroke-width="0" d="M537.13 54.848c6.7.98 14.7 6.01 20.11 11.02 5.42 5 10.69 12.17 12.4 19.02 1.71 6.86.46 15.45-2.14 22.08-2.59 6.64-7.64 13.28-13.45 17.72-5.81 4.45-14.2 8.34-21.4 8.94-7.2.61-15.44-1.74-21.8-5.31-6.35-3.56-12.68-9.6-16.32-16.1-3.63-6.5-6.05-15.82-5.47-22.9s4.45-13.96 8.94-19.57 11.12-11.57 18.01-14.1 19.19-1 23.34-1.09 1.64-.01 1.54.55m6.58 3.03c6.25 2.53 14 8.32 17.64 14.72 3.65 6.39 4.88 16.27 4.23 23.64-.65 7.38-3.9 14.82-8.15 20.62-4.24 5.8-10.82 11.73-17.31 14.19-6.5 2.47-14.78 1.92-21.67.6s-14.42-3.47-19.65-8.53c-5.24-5.07-10.01-14.38-11.76-21.88s-.91-16.69 1.25-23.13 5.95-11.51 11.71-15.5c5.76-3.98 15.46-7.4 22.84-8.41 7.38-1 17.94 1.78 21.44 2.37 3.51.59-.25.57-.4 1.17"/><path fill="none" stroke="#000" d="M545.29 55.858c6.53 2.18 14.05 8.63 17.92 14.9 3.88 6.26 5.25 15.47 5.34 22.68.09 7.22-1.11 14.5-4.81 20.6-3.71 6.1-10.57 12.73-17.42 16.03-6.85 3.29-16.53 4.75-23.68 3.72-7.14-1.02-13.75-5.08-19.19-9.89-5.44-4.82-11.43-12.08-13.46-18.99s-.92-15.38 1.28-22.46c2.21-7.07 6.49-15.09 11.94-20 5.44-4.9 13.13-8.93 20.73-9.42s20.2 5.24 24.86 6.47 3.37.64 3.1.92m-35.74-5.5c6.3-2.84 15.65-2.52 22.77-.65s15.2 6.8 19.96 11.87 7.12 11.55 8.6 18.55c1.47 7 2.92 16.51.25 23.45-2.66 6.94-10.1 13.89-16.23 18.19-6.13 4.31-13.71 7.54-20.56 7.65s-14.54-3.2-20.55-7c-6.02-3.8-11.82-9.69-15.52-15.81-3.7-6.11-7.38-13.9-6.7-20.88.69-6.98 6.06-15.23 10.82-21 4.77-5.76 14.95-11.23 17.76-13.6 2.82-2.37-.87-1.04-.87-.61"/></g><g stroke-linecap="round"><path fill="#fff" stroke-width="0" d="M519.257 105.145c5.3-3.04 12.85-3.86 19.09-2.7 6.23 1.16 13.5 5.14 18.32 9.66s9.49 11.29 10.59 17.47c1.11 6.18-.88 14.04-3.96 19.62-3.07 5.58-8.68 10.88-14.49 13.85s-14.02 4.98-20.38 3.98c-6.35-1-13.22-5.25-17.74-9.98-4.51-4.72-8.25-11.83-9.34-18.38-1.1-6.54-.61-15.15 2.77-20.87s14.25-11.08 17.5-13.44c3.25-2.37 1.91-1.16 2-.74m14.26-.65c6.46.44 15.43 3.63 20.02 7.96 4.59 4.34 6.51 11.84 7.51 18.03s1.27 13.22-1.5 19.11-9.15 13.05-15.11 16.21c-5.95 3.17-14.23 3.75-20.61 2.78-6.38-.98-13.29-3.96-17.67-8.62s-7.72-13.1-8.61-19.35.47-12.31 3.28-18.13c2.81-5.81 7.98-13.3 13.58-16.76s16.97-3.9 20.02-4-1.65 2.45-1.71 3.42"/><path fill="none" stroke="#000" d="M537.217 100.495c6.14.41 12.72 5.04 17.6 9.38 4.89 4.33 10.19 10.27 11.72 16.63s.39 15.34-2.53 21.53c-2.92 6.2-9.41 12.43-15.02 15.65-5.6 3.22-12.2 4.45-18.62 3.67-6.41-.78-15.08-4.02-19.87-8.33-4.79-4.32-7.71-11.1-8.87-17.57s-.73-15.21 1.9-21.28 7.72-12.3 13.87-15.16 18.53-1.67 23.03-2.01c4.51-.34 4.04-.26 3.98-.02m-21.77-.39c5.65-2.5 14.29-2.02 20.57.02 6.27 2.04 13.43 7.23 17.1 12.21 3.67 4.99 4.68 11.35 4.91 17.7.24 6.36.17 14.92-3.5 20.44s-12.15 10.48-18.49 12.7c-6.34 2.23-13.73 2.76-19.53.65s-11.63-7.98-15.26-13.3c-3.64-5.33-6.05-12.52-6.57-18.65-.51-6.13-.19-13.07 3.5-18.13s15.61-10.21 18.62-12.25c3.02-2.04-.4-.19-.54 0"/></g><path fill="none" stroke="#000" stroke-linecap="round" d="M305.088 179.443c.99 3.36.79 8.96-.87 12.3s-5.61 6.47-9.1 7.76c-3.49 1.28-8.37 1.02-11.85-.04-3.48-1.05-7.08-3.25-9.02-6.29-1.94-3.03-3.06-8.32-2.64-11.92.43-3.61 2.46-7.31 5.19-9.71 2.72-2.4 7.45-4.49 11.16-4.69 3.72-.21 8.32 1.27 11.12 3.45s4.62 7.91 5.67 9.61.76.5.64.59m.12.31c.83 3.35-.36 8.29-2.27 11.46-1.91 3.18-5.84 6.47-9.17 7.57-3.32 1.11-7.43.26-10.77-.94s-7.37-3.13-9.27-6.26c-1.91-3.13-2.74-8.82-2.15-12.49.6-3.67 2.81-7.42 5.71-9.53 2.89-2.12 7.98-3.3 11.68-3.15 3.7.16 7.92 1.93 10.51 4.07 2.58 2.15 4.22 7.15 5 8.81.79 1.67-.08 1.02-.3 1.19M266.558 211.317c.69 2.57-.38 6.12-1.78 8.37-1.41 2.25-4.15 4.12-6.65 5.14-2.5 1.03-5.83 1.84-8.36 1.02-2.53-.81-5.37-3.62-6.83-5.9-1.45-2.28-2.33-5.19-1.9-7.79.43-2.59 2.42-5.95 4.51-7.78 2.08-1.82 5.42-3.02 8-3.19 2.57-.17 5.29.51 7.47 2.17 2.17 1.66 4.66 6.42 5.56 7.79.89 1.36.08.39-.19.4m-.06 3.31c-.16 2.61-2.13 6.19-3.97 7.96-1.83 1.78-4.41 2.44-7.04 2.71s-6.45.47-8.76-1.07c-2.3-1.54-4.35-5.47-5.08-8.19-.73-2.71-.59-5.88.68-8.12 1.27-2.23 4.4-4.31 6.93-5.29 2.53-.99 5.82-1.15 8.25-.63 2.42.52 4.89 1.55 6.29 3.75 1.41 2.2 1.77 7.96 2.14 9.47.36 1.51.1-.22.06-.4"/><g stroke-linecap="round"><path fill="#fff" stroke-width="0" d="M508.354 44.31h48.92v78.21h-48.92"/><path fill="none" stroke="#fff" d="M508.354 44.31h48.92m-48.92 0h48.92m0 0v78.21m0-78.21v78.21m0 0h-48.92m48.92 0h-48.92m0 0V44.31m0 78.21V44.31"/></g><g stroke-linecap="round"><path fill="#fff" stroke-width="0" d="M309.573 25.325h17.13v99.11h-17.13"/><path fill="none" stroke="#fff" d="M309.573 25.325h17.13m-17.13 0h17.13m0 0v99.11m0-99.11v99.11m0 0h-17.13m17.13 0h-17.13m0 0v-99.11m0 99.11v-99.11"/></g><g stroke-linecap="round"><path fill="#fff" stroke-width="0" d="M325.548 24.663h218.3v135.36h-218.3"/><path fill="none" stroke="#fff" d="M325.548 24.663h218.3m-218.3 0h218.3m0 0v135.36m0-135.36v135.36m0 0h-218.3m218.3 0h-218.3m0 0V24.663m0 135.36V24.663"/></g><text x="99.194" y="18.4" fill="#1e1e1e" dominant-baseline="alphabetic" font-family="Helvetica, Segoe UI Emoji" font-size="20" style="white-space:pre" text-anchor="middle" transform="translate(335.504 46.341)">10...but I&apos;ve run out of </text><text x="99.194" y="41.4" fill="#1e1e1e" dominant-baseline="alphabetic" font-family="Helvetica, Segoe UI Emoji" font-size="20" style="white-space:pre" text-anchor="middle" transform="translate(335.504 46.341)">counting twigs once </text><text x="99.194" y="64.4" fill="#1e1e1e" dominant-baseline="alphabetic" font-family="Helvetica, Segoe UI Emoji" font-size="20" style="white-space:pre" text-anchor="middle" transform="translate(335.504 46.341)">already. Therefore,</text><text x="99.194" y="87.4" fill="#1e1e1e" dominant-baseline="alphabetic" font-family="Helvetica, Segoe UI Emoji" font-size="20" style="white-space:pre" text-anchor="middle" transform="translate(335.504 46.341)">10 + 10 = 20</text><path fill="none" stroke="#e03131" stroke-linecap="round" d="M369.066 327.5c0 .34-.03.69-.09 1.02-.06.34-.15.68-.27 1-.11.32-.26.63-.43.93s-.37.58-.59.84-.47.51-.73.73-.54.42-.84.59-.61.32-.93.43c-.32.12-.66.21-1 .27a5.8 5.8 0 0 1-2.04 0c-.34-.06-.68-.15-1-.27-.32-.11-.63-.26-.93-.43s-.58-.37-.84-.59a6.3 6.3 0 0 1-.73-.73c-.22-.26-.42-.54-.59-.84s-.32-.61-.43-.93c-.12-.32-.21-.66-.27-1a5.8 5.8 0 0 1 0-2.04c.06-.34.15-.68.27-1 .11-.32.26-.63.43-.93s.37-.58.59-.84.47-.51.73-.73.54-.42.84-.59.61-.32.93-.43c.32-.12.66-.21 1-.27a5.8 5.8 0 0 1 2.04 0c.34.06.68.15 1 .27.32.11.63.26.93.43s.58.37.84.59.51.47.73.73.42.54.59.84.32.61.43.93c.12.32.21.66.27 1 .06.33.08.85.09 1.02.02.17.02-.17 0 0"/><text y="14.72" fill="#e03131" dominant-baseline="alphabetic" font-family="Helvetica, Segoe UI Emoji" font-size="16" style="white-space:pre" transform="translate(369.594 313.677)">5</text><path fill="none" stroke="#e03131" stroke-linecap="round" d="M368.9 348.354c0 .34-.03.69-.09 1.02-.06.34-.15.68-.27 1-.11.32-.26.63-.43.93s-.37.58-.59.84-.47.51-.73.73-.54.42-.84.59-.61.32-.93.43c-.32.12-.66.21-1 .27a5.8 5.8 0 0 1-2.04 0c-.34-.06-.68-.15-1-.27-.32-.11-.63-.26-.93-.43s-.58-.37-.84-.59a6.3 6.3 0 0 1-.73-.73c-.22-.26-.42-.54-.59-.84s-.32-.61-.43-.93c-.12-.32-.21-.66-.27-1a5.8 5.8 0 0 1 0-2.04c.06-.34.15-.68.27-1 .11-.32.26-.63.43-.93s.37-.58.59-.84.47-.51.73-.73.54-.42.84-.59.61-.32.93-.43c.32-.12.66-.21 1-.27a5.8 5.8 0 0 1 2.04 0c.34.06.68.15 1 .27.32.11.63.26.93.43s.58.37.84.59.51.47.73.73.42.54.59.84.32.61.43.93c.12.32.21.66.27 1 .06.33.08.85.09 1.02.02.17.02-.17 0 0"/><text y="14.72" fill="#e03131" dominant-baseline="alphabetic" font-family="Helvetica, Segoe UI Emoji" font-size="16" style="white-space:pre" transform="translate(371.83 341.912)">10</text></svg>