<svg xmlns="http://www.w3.org/2000/svg" width="354.843" height="323.745"><defs><style>@font-face{font-family:&quot;Virgil&quot;;src:url(https://excalidraw.com/Virgil.woff2)}@font-face{font-family:&quot;Cascadia&quot;;src:url(https://excalidraw.com/Cascadia.woff2)}@font-face{font-family:&quot;Assistant&quot;;src:url(https://excalidraw.com/Assistant-Regular.woff2)}</style></defs><path fill="none" stroke="#1e1e1e" stroke-linecap="round" stroke-width="4" d="M242.547 173.72c9.487-6.477 43.946-29.398 57.781-38.619s21.144-13.776 25.252-16.703m-82.474 53.234c9.145-6.725 42.263-28.42 55.673-37.464 13.41-9.042 20.279-14.019 24.79-16.777M90.441 175.053c-6.805-8.78-30.956-40.61-41.254-53.783S32.023 100.057 28.67 96.018m62.319 77.254c-7.027-8.735-33.509-39.582-43.424-52.247-9.912-12.657-13.353-19.617-16.078-23.72"/><g stroke-linecap="round"><path fill="#fff" stroke-width="0" d="M269.224 210.432c0 3.17-.14 6.37-.44 9.53-.29 3.16-.73 6.33-1.32 9.45-.58 3.12-1.31 6.23-2.18 9.29s-1.89 6.09-3.03 9.05a104.3 104.3 0 0 1-8.5 17.07c-1.67 2.7-3.48 5.33-5.4 7.87-1.91 2.53-3.95 4.99-6.09 7.34s-4.4 4.61-6.75 6.75-4.81 4.18-7.34 6.09c-2.54 1.92-5.17 3.73-7.87 5.4a104.6 104.6 0 0 1-17.07 8.5c-2.96 1.14-5.99 2.16-9.05 3.03s-6.17 1.6-9.29 2.18c-3.12.59-6.29 1.03-9.45 1.32-3.16.3-6.36.44-9.53.44-3.18 0-6.37-.14-9.54-.44-3.16-.29-6.32-.73-9.45-1.32-3.12-.58-6.23-1.31-9.29-2.18-3.05-.87-6.08-1.89-9.05-3.03a104 104 0 0 1-8.73-3.86c-2.84-1.41-5.63-2.97-8.33-4.64s-5.34-3.48-7.88-5.4c-2.53-1.91-4.99-3.95-7.34-6.09s-4.6-4.4-6.75-6.75c-2.14-2.35-4.18-4.81-6.09-7.34-1.92-2.54-3.72-5.17-5.39-7.87-1.68-2.71-3.23-5.5-4.65-8.34-1.42-2.85-2.71-5.77-3.85-8.73a102.3 102.3 0 0 1-5.22-18.34c-.58-3.12-1.03-6.29-1.32-9.45s-.44-6.36-.44-9.53c0-3.18.15-6.37.44-9.54a104 104 0 0 1 3.5-18.74c.87-3.05 1.89-6.08 3.04-9.05 1.14-2.96 2.43-5.88 3.85-8.73 1.42-2.84 2.97-5.63 4.65-8.33 1.67-2.7 3.47-5.34 5.39-7.88 1.91-2.53 3.95-4.99 6.09-7.34q3.225-3.525 6.75-6.75c2.35-2.14 4.81-4.18 7.34-6.09 2.54-1.92 5.18-3.72 7.88-5.39 2.7-1.68 5.49-3.23 8.33-4.65 2.85-1.42 5.77-2.71 8.73-3.85 2.97-1.15 6-2.17 9.05-3.04a104.215 104.215 0 0 1 18.74-3.5c3.17-.29 6.36-.44 9.54-.44 3.17 0 6.37.15 9.53.44s6.33.74 9.45 1.32 6.23 1.31 9.29 2.18 6.09 1.89 9.05 3.04c2.96 1.14 5.88 2.43 8.73 3.85 2.84 1.42 5.63 2.97 8.34 4.65 2.7 1.67 5.33 3.47 7.87 5.39 2.53 1.91 4.99 3.95 7.34 6.09 2.35 2.15 4.61 4.4 6.75 6.75a104 104 0 0 1 11.49 15.22c1.67 2.7 3.23 5.49 4.64 8.33 1.42 2.85 2.71 5.77 3.86 8.73 1.14 2.97 2.16 6 3.03 9.05.87 3.06 1.6 6.17 2.18 9.29.59 3.13 1.03 6.29 1.32 9.45.3 3.17.37 7.95.44 9.54.08 1.59.08-1.59 0 0"/><path fill="none" stroke="#1e1e1e" stroke-width="4" d="M269.224 210.432c0 3.17-.14 6.37-.44 9.53-.29 3.16-.73 6.33-1.32 9.45-.58 3.12-1.31 6.23-2.18 9.29s-1.89 6.09-3.03 9.05a104.3 104.3 0 0 1-8.5 17.07c-1.67 2.7-3.48 5.33-5.4 7.87-1.91 2.53-3.95 4.99-6.09 7.34s-4.4 4.61-6.75 6.75-4.81 4.18-7.34 6.09c-2.54 1.92-5.17 3.73-7.87 5.4a104.6 104.6 0 0 1-17.07 8.5c-2.96 1.14-5.99 2.16-9.05 3.03s-6.17 1.6-9.29 2.18c-3.12.59-6.29 1.03-9.45 1.32-3.16.3-6.36.44-9.53.44-3.18 0-6.37-.14-9.54-.44-3.16-.29-6.32-.73-9.45-1.32-3.12-.58-6.23-1.31-9.29-2.18-3.05-.87-6.08-1.89-9.05-3.03a104 104 0 0 1-8.73-3.86c-2.84-1.41-5.63-2.97-8.33-4.64s-5.34-3.48-7.88-5.4c-2.53-1.91-4.99-3.95-7.34-6.09s-4.6-4.4-6.75-6.75c-2.14-2.35-4.18-4.81-6.09-7.34-1.92-2.54-3.72-5.17-5.39-7.87-1.68-2.71-3.23-5.5-4.65-8.34-1.42-2.85-2.71-5.77-3.85-8.73a102.3 102.3 0 0 1-5.22-18.34c-.58-3.12-1.03-6.29-1.32-9.45s-.44-6.36-.44-9.53c0-3.18.15-6.37.44-9.54a104 104 0 0 1 3.5-18.74c.87-3.05 1.89-6.08 3.04-9.05 1.14-2.96 2.43-5.88 3.85-8.73 1.42-2.84 2.97-5.63 4.65-8.33 1.67-2.7 3.47-5.34 5.39-7.88 1.91-2.53 3.95-4.99 6.09-7.34q3.225-3.525 6.75-6.75c2.35-2.14 4.81-4.18 7.34-6.09 2.54-1.92 5.18-3.72 7.88-5.39 2.7-1.68 5.49-3.23 8.33-4.65 2.85-1.42 5.77-2.71 8.73-3.85 2.97-1.15 6-2.17 9.05-3.04a104.215 104.215 0 0 1 18.74-3.5c3.17-.29 6.36-.44 9.54-.44 3.17 0 6.37.15 9.53.44s6.33.74 9.45 1.32 6.23 1.31 9.29 2.18 6.09 1.89 9.05 3.04c2.96 1.14 5.88 2.43 8.73 3.85 2.84 1.42 5.63 2.97 8.34 4.65 2.7 1.67 5.33 3.47 7.87 5.39 2.53 1.91 4.99 3.95 7.34 6.09 2.35 2.15 4.61 4.4 6.75 6.75a104 104 0 0 1 11.49 15.22c1.67 2.7 3.23 5.49 4.64 8.33 1.42 2.85 2.71 5.77 3.86 8.73 1.14 2.97 2.16 6 3.03 9.05.87 3.06 1.6 6.17 2.18 9.29.59 3.13 1.03 6.29 1.32 9.45.3 3.17.37 7.95.44 9.54.08 1.59.08-1.59 0 0"/></g><g stroke-linecap="round"><path fill="#fff" stroke-width="0" d="M234.065 82.33c0 2.7-.15 5.41-.46 8.1-.3 2.68-.75 5.36-1.36 7.99a71.964 71.964 0 0 1-5.34 15.29 74 74 0 0 1-3.93 7.1c-1.43 2.29-3.01 4.5-4.69 6.62a73.8 73.8 0 0 1-11.45 11.45 73 73 0 0 1-6.62 4.69 74 74 0 0 1-7.1 3.93 72 72 0 0 1-15.29 5.34c-2.63.61-5.31 1.06-7.99 1.36-2.69.31-5.4.46-8.1.46s-5.42-.15-8.1-.46c-2.68-.3-5.36-.75-8-1.36a71.964 71.964 0 0 1-15.28-5.34 72 72 0 0 1-7.1-3.93 71 71 0 0 1-6.62-4.69c-2.11-1.69-4.14-3.5-6.05-5.41a74 74 0 0 1-5.4-6.04 73 73 0 0 1-4.69-6.62 72 72 0 0 1-3.93-7.1 72 72 0 0 1-3.1-7.49c-.89-2.55-1.65-5.16-2.25-7.8-.6-2.63-1.05-5.31-1.36-7.99a73 73 0 0 1 0-16.2c.31-2.68.76-5.36 1.36-8a73 73 0 0 1 5.35-15.28c1.17-2.44 2.49-4.82 3.93-7.1a71 71 0 0 1 4.69-6.62c1.68-2.11 3.5-4.14 5.4-6.05 1.91-1.9 3.94-3.72 6.05-5.4a71 71 0 0 1 6.62-4.69c2.28-1.44 4.66-2.76 7.1-3.93a72.911 72.911 0 0 1 15.28-5.35c2.64-.6 5.32-1.05 8-1.36a73 73 0 0 1 16.2 0c2.68.31 5.36.76 7.99 1.36 2.64.6 5.25 1.36 7.8 2.25s5.06 1.93 7.49 3.1a72 72 0 0 1 7.1 3.93c2.29 1.43 4.5 3.01 6.62 4.69a74 74 0 0 1 6.04 5.4c1.91 1.91 3.72 3.94 5.41 6.05a71 71 0 0 1 4.69 6.62c1.44 2.28 2.75 4.66 3.93 7.1a72 72 0 0 1 5.34 15.28c.61 2.64 1.06 5.32 1.36 8 .31 2.68.38 6.75.46 8.1.07 1.35.07-1.35 0 0"/><path fill="none" stroke="#1e1e1e" stroke-width="4" d="M234.065 82.33c0 2.7-.15 5.41-.46 8.1-.3 2.68-.75 5.36-1.36 7.99a71.964 71.964 0 0 1-5.34 15.29 74 74 0 0 1-3.93 7.1c-1.43 2.29-3.01 4.5-4.69 6.62a73.8 73.8 0 0 1-11.45 11.45 73 73 0 0 1-6.62 4.69 74 74 0 0 1-7.1 3.93 72 72 0 0 1-15.29 5.34c-2.63.61-5.31 1.06-7.99 1.36-2.69.31-5.4.46-8.1.46s-5.42-.15-8.1-.46c-2.68-.3-5.36-.75-8-1.36a71.964 71.964 0 0 1-15.28-5.34 72 72 0 0 1-7.1-3.93 71 71 0 0 1-6.62-4.69c-2.11-1.69-4.14-3.5-6.05-5.41a74 74 0 0 1-5.4-6.04 73 73 0 0 1-4.69-6.62 72 72 0 0 1-3.93-7.1 72 72 0 0 1-3.1-7.49c-.89-2.55-1.65-5.16-2.25-7.8-.6-2.63-1.05-5.31-1.36-7.99a73 73 0 0 1 0-16.2c.31-2.68.76-5.36 1.36-8a73 73 0 0 1 5.35-15.28c1.17-2.44 2.49-4.82 3.93-7.1a71 71 0 0 1 4.69-6.62c1.68-2.11 3.5-4.14 5.4-6.05 1.91-1.9 3.94-3.72 6.05-5.4a71 71 0 0 1 6.62-4.69c2.28-1.44 4.66-2.76 7.1-3.93a72.911 72.911 0 0 1 15.28-5.35c2.64-.6 5.32-1.05 8-1.36a73 73 0 0 1 16.2 0c2.68.31 5.36.76 7.99 1.36 2.64.6 5.25 1.36 7.8 2.25s5.06 1.93 7.49 3.1a72 72 0 0 1 7.1 3.93c2.29 1.43 4.5 3.01 6.62 4.69a74 74 0 0 1 6.04 5.4c1.91 1.91 3.72 3.94 5.41 6.05a71 71 0 0 1 4.69 6.62c1.44 2.28 2.75 4.66 3.93 7.1a72 72 0 0 1 5.34 15.28c.61 2.64 1.06 5.32 1.36 8 .31 2.68.38 6.75.46 8.1.07 1.35.07-1.35 0 0"/></g><g stroke-linecap="round"><path fill="#fff" stroke-width="0" d="M212.782 138.09c0 1.2-.21 2.42-.62 3.62-.41 1.19-1.03 2.38-1.84 3.53s-1.83 2.28-3.02 3.36a31.4 31.4 0 0 1-4.12 3.1c-1.54.97-3.27 1.9-5.13 2.76a61 61 0 0 1-6 2.36c-2.12.71-4.39 1.35-6.73 1.9-2.33.54-4.79 1.01-7.29 1.39-2.49.37-5.08.66-7.67.85-2.59.18-5.24.28-7.86.28-2.63 0-5.28-.1-7.87-.28-2.59-.19-5.18-.48-7.67-.85-2.5-.38-4.96-.85-7.29-1.39-2.34-.55-4.61-1.19-6.73-1.9a61 61 0 0 1-6-2.36c-1.86-.86-3.59-1.79-5.13-2.76-1.54-.98-2.93-2.03-4.12-3.1-1.19-1.08-2.21-2.21-3.02-3.36s-1.43-2.34-1.84-3.53a11.2 11.2 0 0 1-.62-3.62c0-1.21.21-2.43.62-3.63.41-1.19 1.03-2.38 1.84-3.53s1.83-2.28 3.02-3.36c1.19-1.07 2.58-2.12 4.12-3.1 1.54-.97 3.27-1.9 5.13-2.76a61 61 0 0 1 6-2.36c2.12-.71 4.39-1.35 6.73-1.9 2.33-.54 4.79-1.01 7.29-1.39 2.49-.37 5.08-.66 7.67-.84 2.59-.19 5.24-.29 7.87-.29 2.62 0 5.27.1 7.86.29 2.59.18 5.18.47 7.67.84 2.5.38 4.96.85 7.29 1.39 2.34.55 4.61 1.19 6.73 1.9s4.15 1.51 6 2.36c1.86.86 3.59 1.79 5.13 2.76 1.54.98 2.93 2.03 4.12 3.1 1.19 1.08 2.21 2.21 3.02 3.36s1.43 2.34 1.84 3.53c.41 1.2.52 3.02.62 3.63.1.6.1-.61 0 0"/><path fill="none" stroke="transparent" stroke-width="2" d="M212.782 138.09c0 1.2-.21 2.42-.62 3.62-.41 1.19-1.03 2.38-1.84 3.53s-1.83 2.28-3.02 3.36a31.4 31.4 0 0 1-4.12 3.1c-1.54.97-3.27 1.9-5.13 2.76a61 61 0 0 1-6 2.36c-2.12.71-4.39 1.35-6.73 1.9-2.33.54-4.79 1.01-7.29 1.39-2.49.37-5.08.66-7.67.85-2.59.18-5.24.28-7.86.28-2.63 0-5.28-.1-7.87-.28-2.59-.19-5.18-.48-7.67-.85-2.5-.38-4.96-.85-7.29-1.39-2.34-.55-4.61-1.19-6.73-1.9a61 61 0 0 1-6-2.36c-1.86-.86-3.59-1.79-5.13-2.76-1.54-.98-2.93-2.03-4.12-3.1-1.19-1.08-2.21-2.21-3.02-3.36s-1.43-2.34-1.84-3.53a11.2 11.2 0 0 1-.62-3.62c0-1.21.21-2.43.62-3.63.41-1.19 1.03-2.38 1.84-3.53s1.83-2.28 3.02-3.36c1.19-1.07 2.58-2.12 4.12-3.1 1.54-.97 3.27-1.9 5.13-2.76a61 61 0 0 1 6-2.36c2.12-.71 4.39-1.35 6.73-1.9 2.33-.54 4.79-1.01 7.29-1.39 2.49-.37 5.08-.66 7.67-.84 2.59-.19 5.24-.29 7.87-.29 2.62 0 5.27.1 7.86.29 2.59.18 5.18.47 7.67.84 2.5.38 4.96.85 7.29 1.39 2.34.55 4.61 1.19 6.73 1.9s4.15 1.51 6 2.36c1.86.86 3.59 1.79 5.13 2.76 1.54.98 2.93 2.03 4.12 3.1 1.19 1.08 2.21 2.21 3.02 3.36s1.43 2.34 1.84 3.53c.41 1.2.52 3.02.62 3.63.1.6.1-.61 0 0"/></g><g stroke-linecap="round"><path stroke-width="0" d="M183.554 60.885c0 .37-.04.75-.1 1.12-.07.37-.17.74-.29 1.09-.13.35-.29.7-.48 1.02-.19.33-.41.64-.65.92-.24.29-.51.56-.8.8-.28.24-.59.46-.92.65-.32.19-.67.35-1.02.48-.35.12-.72.22-1.09.29-.37.06-.75.1-1.12.1-.38 0-.76-.04-1.13-.1-.36-.07-.73-.17-1.08-.29-.36-.13-.7-.29-1.03-.48-.32-.19-.63-.41-.92-.65s-.56-.51-.8-.8c-.24-.28-.46-.59-.64-.92a6.3 6.3 0 0 1-.77-2.11c-.07-.37-.1-.75-.1-1.12 0-.38.03-.76.1-1.13.06-.36.16-.73.29-1.08.13-.36.29-.7.48-1.03a6.3 6.3 0 0 1 1.44-1.72c.29-.24.6-.46.92-.64.33-.19.67-.35 1.03-.48.35-.13.72-.23 1.08-.29.37-.07.75-.1 1.13-.1.37 0 .75.03 1.12.1a6.329 6.329 0 0 1 2.11.77c.33.18.64.4.92.64.29.24.56.51.8.8s.46.6.65.92c.19.33.35.67.48 1.03.12.35.22.72.29 1.08.06.37.08.94.1 1.13.01.18.01-.19 0 0"/><path fill="none" stroke="transparent" stroke-width="2" d="M183.554 60.885c0 .37-.04.75-.1 1.12-.07.37-.17.74-.29 1.09-.13.35-.29.7-.48 1.02-.19.33-.41.64-.65.92-.24.29-.51.56-.8.8-.28.24-.59.46-.92.65-.32.19-.67.35-1.02.48-.35.12-.72.22-1.09.29-.37.06-.75.1-1.12.1-.38 0-.76-.04-1.13-.1-.36-.07-.73-.17-1.08-.29-.36-.13-.7-.29-1.03-.48-.32-.19-.63-.41-.92-.65s-.56-.51-.8-.8c-.24-.28-.46-.59-.64-.92a6.3 6.3 0 0 1-.77-2.11c-.07-.37-.1-.75-.1-1.12 0-.38.03-.76.1-1.13.06-.36.16-.73.29-1.08.13-.36.29-.7.48-1.03a6.3 6.3 0 0 1 1.44-1.72c.29-.24.6-.46.92-.64.33-.19.67-.35 1.03-.48.35-.13.72-.23 1.08-.29.37-.07.75-.1 1.13-.1.37 0 .75.03 1.12.1a6.329 6.329 0 0 1 2.11.77c.33.18.64.4.92.64.29.24.56.51.8.8s.46.6.65.92c.19.33.35.67.48 1.03.12.35.22.72.29 1.08.06.37.08.94.1 1.13.01.18.01-.19 0 0"/></g><g stroke-linecap="round"><path stroke-width="0" d="M155.57 62.055c0 .37-.04.75-.1 1.12-.07.37-.17.74-.29 1.09-.13.35-.29.7-.48 1.02-.19.33-.41.64-.65.92-.24.29-.51.56-.8.8-.28.24-.59.46-.92.65-.32.19-.67.35-1.02.48-.35.12-.72.22-1.09.29-.37.06-.75.1-1.12.1-.38 0-.76-.04-1.13-.1-.36-.07-.73-.17-1.08-.29-.36-.13-.7-.29-1.03-.48-.32-.19-.63-.41-.92-.65s-.56-.51-.8-.8c-.24-.28-.46-.59-.64-.92a6.3 6.3 0 0 1-.77-2.11c-.07-.37-.1-.75-.1-1.12 0-.38.03-.76.1-1.13.06-.36.16-.73.29-1.08.13-.36.29-.7.48-1.03a6.3 6.3 0 0 1 1.44-1.72c.29-.24.6-.46.92-.64.33-.19.67-.35 1.03-.48.35-.13.72-.23 1.08-.29.37-.07.75-.1 1.13-.1.37 0 .75.03 1.12.1a6.329 6.329 0 0 1 2.11.77c.33.18.64.4.92.64.29.24.56.51.8.8s.46.6.65.92c.19.33.35.67.48 1.03.12.35.22.72.29 1.08.06.37.08.94.1 1.13.01.18.01-.19 0 0"/><path fill="none" stroke="transparent" stroke-width="2" d="M155.57 62.055c0 .37-.04.75-.1 1.12-.07.37-.17.74-.29 1.09-.13.35-.29.7-.48 1.02-.19.33-.41.64-.65.92-.24.29-.51.56-.8.8-.28.24-.59.46-.92.65-.32.19-.67.35-1.02.48-.35.12-.72.22-1.09.29-.37.06-.75.1-1.12.1-.38 0-.76-.04-1.13-.1-.36-.07-.73-.17-1.08-.29-.36-.13-.7-.29-1.03-.48-.32-.19-.63-.41-.92-.65s-.56-.51-.8-.8c-.24-.28-.46-.59-.64-.92a6.3 6.3 0 0 1-.77-2.11c-.07-.37-.1-.75-.1-1.12 0-.38.03-.76.1-1.13.06-.36.16-.73.29-1.08.13-.36.29-.7.48-1.03a6.3 6.3 0 0 1 1.44-1.72c.29-.24.6-.46.92-.64.33-.19.67-.35 1.03-.48.35-.13.72-.23 1.08-.29.37-.07.75-.1 1.13-.1.37 0 .75.03 1.12.1a6.329 6.329 0 0 1 2.11.77c.33.18.64.4.92.64.29.24.56.51.8.8s.46.6.65.92c.19.33.35.67.48 1.03.12.35.22.72.29 1.08.06.37.08.94.1 1.13.01.18.01-.19 0 0"/></g><g stroke-linecap="round"><path fill="#f08c00" stroke-width="0" d="M170.723 78.656q0 .54-.09 1.08c-.07.35-.16.7-.28 1.04-.13.34-.28.67-.46.98s-.39.61-.62.89c-.23.27-.49.53-.76.76-.28.23-.58.44-.89.62s-.64.33-.98.46c-.34.12-.69.21-1.04.28a6.6 6.6 0 0 1-2.16 0c-.35-.07-.7-.16-1.04-.28-.34-.13-.67-.28-.98-.46s-.61-.39-.89-.62c-.27-.23-.53-.49-.76-.76-.23-.28-.44-.58-.62-.89s-.33-.64-.46-.98c-.12-.34-.21-.69-.28-1.04a6.6 6.6 0 0 1 0-2.16c.07-.35.16-.7.28-1.04.13-.34.28-.67.46-.98s.39-.61.62-.89c.23-.27.49-.53.76-.76.28-.23.58-.44.89-.62s.64-.33.98-.46c.34-.12.69-.21 1.04-.28a6.6 6.6 0 0 1 2.16 0c.35.07.7.16 1.04.28.34.13.67.28.98.46s.61.39.89.62c.27.23.53.49.76.76.23.28.44.58.62.89s.33.64.46.98c.12.34.21.69.28 1.04.06.36.08.9.09 1.08.02.18.02-.18 0 0"/><path fill="none" stroke="#f08c00" stroke-width="2" d="M170.723 78.656q0 .54-.09 1.08c-.07.35-.16.7-.28 1.04-.13.34-.28.67-.46.98s-.39.61-.62.89c-.23.27-.49.53-.76.76-.28.23-.58.44-.89.62s-.64.33-.98.46c-.34.12-.69.21-1.04.28a6.6 6.6 0 0 1-2.16 0c-.35-.07-.7-.16-1.04-.28-.34-.13-.67-.28-.98-.46s-.61-.39-.89-.62c-.27-.23-.53-.49-.76-.76-.23-.28-.44-.58-.62-.89s-.33-.64-.46-.98c-.12-.34-.21-.69-.28-1.04a6.6 6.6 0 0 1 0-2.16c.07-.35.16-.7.28-1.04.13-.34.28-.67.46-.98s.39-.61.62-.89c.23-.27.49-.53.76-.76.28-.23.58-.44.89-.62s.64-.33.98-.46c.34-.12.69-.21 1.04-.28a6.6 6.6 0 0 1 2.16 0c.35.07.7.16 1.04.28.34.13.67.28.98.46s.61.39.89.62c.27.23.53.49.76.76.23.28.44.58.62.89s.33.64.46.98c.12.34.21.69.28 1.04.06.36.08.9.09 1.08.02.18.02-.18 0 0"/></g><path fill="none" stroke="#f08c00" stroke-linecap="round" stroke-width="2" d="M165.04 72.437c9.87 2.79 19.75 5.57 25.45 7.18m-25.45-7.18c6.25 1.76 12.49 3.52 25.45 7.18"/><path fill="none" stroke="#f08c00" stroke-linecap="round" stroke-width="2" d="M165.06 84.763c5.12-1.05 10.23-2.1 25.51-5.23m-25.51 5.23c8.11-1.66 16.22-3.33 25.51-5.23"/><path fill="none" stroke="#f08c00" stroke-linecap="round" stroke-width="4" d="m170.704 78.897 14.4.31m-14.4-.31c3.16.07 6.33.13 14.4.31M169.773 75.15c2.67.75 5.34 1.51 7.29 2.05m-7.29-2.05c2.1.59 4.2 1.18 7.29 2.05M170.405 81.484c3.42-.68 6.85-1.36 9.53-1.89m-9.53 1.89c2.25-.45 4.5-.89 9.53-1.89"/><g stroke-linecap="round"><path stroke-width="0" d="M174.653 178.55c0 .37-.04.75-.1 1.12-.07.37-.17.74-.29 1.09-.13.35-.29.7-.48 1.02-.19.33-.41.64-.65.92-.24.29-.51.56-.8.8-.28.24-.59.46-.92.65-.32.19-.67.35-1.02.48-.35.12-.72.22-1.09.29-.37.06-.75.1-1.12.1-.38 0-.76-.04-1.13-.1-.36-.07-.73-.17-1.08-.29-.36-.13-.7-.29-1.03-.48-.32-.19-.63-.41-.92-.65s-.56-.51-.8-.8c-.24-.28-.46-.59-.64-.92a6.3 6.3 0 0 1-.77-2.11c-.07-.37-.1-.75-.1-1.12 0-.38.03-.76.1-1.13.06-.36.16-.73.29-1.08.13-.36.29-.7.48-1.03a6.3 6.3 0 0 1 1.44-1.72c.29-.24.6-.46.92-.64.33-.19.67-.35 1.03-.48.35-.13.72-.23 1.08-.29.37-.07.75-.1 1.13-.1.37 0 .75.03 1.12.1a6.329 6.329 0 0 1 2.11.77c.33.18.64.4.92.64.29.24.56.51.8.8s.46.6.65.92c.19.33.35.67.48 1.03.12.35.22.72.29 1.08.06.37.08.94.1 1.13.01.18.01-.19 0 0"/><path fill="none" stroke="transparent" stroke-width="2" d="M174.653 178.55c0 .37-.04.75-.1 1.12-.07.37-.17.74-.29 1.09-.13.35-.29.7-.48 1.02-.19.33-.41.64-.65.92-.24.29-.51.56-.8.8-.28.24-.59.46-.92.65-.32.19-.67.35-1.02.48-.35.12-.72.22-1.09.29-.37.06-.75.1-1.12.1-.38 0-.76-.04-1.13-.1-.36-.07-.73-.17-1.08-.29-.36-.13-.7-.29-1.03-.48-.32-.19-.63-.41-.92-.65s-.56-.51-.8-.8c-.24-.28-.46-.59-.64-.92a6.3 6.3 0 0 1-.77-2.11c-.07-.37-.1-.75-.1-1.12 0-.38.03-.76.1-1.13.06-.36.16-.73.29-1.08.13-.36.29-.7.48-1.03a6.3 6.3 0 0 1 1.44-1.72c.29-.24.6-.46.92-.64.33-.19.67-.35 1.03-.48.35-.13.72-.23 1.08-.29.37-.07.75-.1 1.13-.1.37 0 .75.03 1.12.1a6.329 6.329 0 0 1 2.11.77c.33.18.64.4.92.64.29.24.56.51.8.8s.46.6.65.92c.19.33.35.67.48 1.03.12.35.22.72.29 1.08.06.37.08.94.1 1.13.01.18.01-.19 0 0"/></g><g stroke-linecap="round"><path stroke-width="0" d="M175.492 202.643c0 .37-.04.75-.1 1.12-.07.37-.17.74-.29 1.09-.13.35-.29.7-.48 1.02-.19.33-.41.64-.65.92-.24.29-.51.56-.8.8-.28.24-.59.46-.92.65-.32.19-.67.35-1.02.48-.35.12-.72.22-1.09.29-.37.06-.75.1-1.12.1-.38 0-.76-.04-1.13-.1-.36-.07-.73-.17-1.08-.29-.36-.13-.7-.29-1.03-.48-.32-.19-.63-.41-.92-.65s-.56-.51-.8-.8c-.24-.28-.46-.59-.64-.92a6.3 6.3 0 0 1-.77-2.11c-.07-.37-.1-.75-.1-1.12 0-.38.03-.76.1-1.13.06-.36.16-.73.29-1.08.13-.36.29-.7.48-1.03a6.3 6.3 0 0 1 1.44-1.72c.29-.24.6-.46.92-.64.33-.19.67-.35 1.03-.48.35-.13.72-.23 1.08-.29.37-.07.75-.1 1.13-.1.37 0 .75.03 1.12.1a6.329 6.329 0 0 1 2.11.77c.33.18.64.4.92.64.29.24.56.51.8.8s.46.6.65.92c.19.33.35.67.48 1.03.12.35.22.72.29 1.08.06.37.08.94.1 1.13.01.18.01-.19 0 0"/><path fill="none" stroke="transparent" stroke-width="2" d="M175.492 202.643c0 .37-.04.75-.1 1.12-.07.37-.17.74-.29 1.09-.13.35-.29.7-.48 1.02-.19.33-.41.64-.65.92-.24.29-.51.56-.8.8-.28.24-.59.46-.92.65-.32.19-.67.35-1.02.48-.35.12-.72.22-1.09.29-.37.06-.75.1-1.12.1-.38 0-.76-.04-1.13-.1-.36-.07-.73-.17-1.08-.29-.36-.13-.7-.29-1.03-.48-.32-.19-.63-.41-.92-.65s-.56-.51-.8-.8c-.24-.28-.46-.59-.64-.92a6.3 6.3 0 0 1-.77-2.11c-.07-.37-.1-.75-.1-1.12 0-.38.03-.76.1-1.13.06-.36.16-.73.29-1.08.13-.36.29-.7.48-1.03a6.3 6.3 0 0 1 1.44-1.72c.29-.24.6-.46.92-.64.33-.19.67-.35 1.03-.48.35-.13.72-.23 1.08-.29.37-.07.75-.1 1.13-.1.37 0 .75.03 1.12.1a6.329 6.329 0 0 1 2.11.77c.33.18.64.4.92.64.29.24.56.51.8.8s.46.6.65.92c.19.33.35.67.48 1.03.12.35.22.72.29 1.08.06.37.08.94.1 1.13.01.18.01-.19 0 0"/></g><path fill="none" stroke="#1e1e1e" stroke-linecap="round" stroke-width="4" d="M25.962 96.904c-2.692.327-12.732 1.85-15.425 2.177m16.221-1.826c-2.792.32-14.006 1.559-16.76 2.032M27.554 94.141c-1.95-2.358-10.156-11.764-12.324-14.115m11.223 14.4C24.44 92.08 16.549 82.286 14.638 80.08M28.805 94.91c1.158-2.628 5.732-13.058 6.93-15.717m-8.011 15.98c1.192-2.425 6.853-12.289 8.336-14.818M328.667 119.577c2.536 1.252 12.028 6.335 14.421 7.506m-14.922-7.644c2.439 1.097 11.78 5.69 14.238 6.964M328.724 117.213c2.62-1.643 13.434-8.244 16.117-9.892m-16.82 9.762c2.538-1.576 13.936-7.608 16.737-9.153M326.979 117.044c-.381-2.972-1.71-14.518-2.17-17.37m2.054 18.523c-.408-2.907-1.89-14.876-2.132-17.927"/></svg>