<svg version="1.1" xmlns="http://www.w3.org/2000/svg" viewBox="0 0 579.5216712445635 544.7364610458917" width="579.5216712445635" height="544.7364610458917">
  <!-- svg-source:excalidraw -->
  
  <defs>
    <style class="style-fonts">
      @font-face {
        font-family: "Virgil";
        src: url("https://excalidraw.com/Virgil.woff2");
      }
      @font-face {
        font-family: "Cascadia";
        src: url("https://excalidraw.com/Cascadia.woff2");
      }
      @font-face {
        font-family: "Assistant";
        src: url("https://excalidraw.com/Assistant-Regular.woff2");
      }
    </style>
    
  </defs>
  <g stroke-linecap="round"><g transform="translate(254.5519327088059 355.3247600589966) rotate(312.85682425947084 48.11548863844655 11.477978174430064)"><path d="M-0.65 -0.29 C10.73 2.38, 51.12 12.92, 67.14 16.6 C83.16 20.27, 90.68 20.8, 95.47 21.76 M1.21 -1.48 C12.63 0.82, 50.68 11.06, 66.8 15.05 C82.93 19.04, 93.1 21.1, 97.96 22.45" stroke="#1e1e1e" stroke-width="4" fill="none"></path></g></g><mask></mask><g stroke-linecap="round"><g transform="translate(126.63771792195621 345.4383996139841) rotate(65.75566307527386 -48.11548863844655 11.477978174430064)"><path d="M1.17 1.1 C-9.84 3.53, -50.44 10.76, -66.73 14.3 C-83.02 17.85, -91.57 20.99, -96.57 22.39 M0.32 0.63 C-10.25 3.19, -48.11 11.42, -64.42 15.22 C-80.72 19.01, -92.13 22, -97.51 23.41" stroke="#1e1e1e" stroke-width="4" fill="none"></path></g></g><mask></mask><g stroke-linecap="round" transform="translate(81.25795850058057 328.10358809924946) rotate(0 103.31643647332112 103.31643647332112)"><path d="M206.63 103.32 C206.63 106.49, 206.49 109.69, 206.19 112.85 C205.9 116.01, 205.46 119.18, 204.87 122.3 C204.29 125.42, 203.56 128.53, 202.69 131.59 C201.82 134.65, 200.8 137.68, 199.66 140.64 C198.51 143.6, 197.22 146.52, 195.8 149.37 C194.39 152.21, 192.83 155, 191.16 157.71 C189.49 160.41, 187.68 163.04, 185.76 165.58 C183.85 168.11, 181.81 170.57, 179.67 172.92 C177.53 175.27, 175.27 177.53, 172.92 179.67 C170.57 181.81, 168.11 183.85, 165.58 185.76 C163.04 187.68, 160.41 189.49, 157.71 191.16 C155 192.83, 152.21 194.39, 149.37 195.8 C146.52 197.22, 143.6 198.51, 140.64 199.66 C137.68 200.8, 134.65 201.82, 131.59 202.69 C128.53 203.56, 125.42 204.29, 122.3 204.87 C119.18 205.46, 116.01 205.9, 112.85 206.19 C109.69 206.49, 106.49 206.63, 103.32 206.63 C100.14 206.63, 96.95 206.49, 93.78 206.19 C90.62 205.9, 87.46 205.46, 84.33 204.87 C81.21 204.29, 78.1 203.56, 75.04 202.69 C71.99 201.82, 68.96 200.8, 65.99 199.66 C63.03 198.51, 60.11 197.22, 57.26 195.8 C54.42 194.39, 51.63 192.83, 48.93 191.16 C46.23 189.49, 43.59 187.68, 41.05 185.76 C38.52 183.85, 36.06 181.81, 33.71 179.67 C31.36 177.53, 29.11 175.27, 26.96 172.92 C24.82 170.57, 22.78 168.11, 20.87 165.58 C18.95 163.04, 17.15 160.41, 15.48 157.71 C13.8 155, 12.25 152.21, 10.83 149.37 C9.41 146.52, 8.12 143.6, 6.98 140.64 C5.83 137.68, 4.81 134.65, 3.94 131.59 C3.07 128.53, 2.34 125.42, 1.76 122.3 C1.18 119.18, 0.73 116.01, 0.44 112.85 C0.15 109.69, 0 106.49, 0 103.32 C0 100.14, 0.15 96.95, 0.44 93.78 C0.73 90.62, 1.18 87.46, 1.76 84.33 C2.34 81.21, 3.07 78.1, 3.94 75.04 C4.81 71.99, 5.83 68.96, 6.98 65.99 C8.12 63.03, 9.41 60.11, 10.83 57.26 C12.25 54.42, 13.8 51.63, 15.48 48.93 C17.15 46.23, 18.95 43.59, 20.87 41.05 C22.78 38.52, 24.82 36.06, 26.96 33.71 C29.11 31.36, 31.36 29.11, 33.71 26.96 C36.06 24.82, 38.52 22.78, 41.05 20.87 C43.59 18.95, 46.23 17.15, 48.93 15.48 C51.63 13.8, 54.42 12.25, 57.26 10.83 C60.11 9.41, 63.03 8.12, 65.99 6.98 C68.96 5.83, 71.99 4.81, 75.04 3.94 C78.1 3.07, 81.21 2.34, 84.33 1.76 C87.46 1.18, 90.62 0.73, 93.78 0.44 C96.95 0.15, 100.14 0, 103.32 0 C106.49 0, 109.69 0.15, 112.85 0.44 C116.01 0.73, 119.18 1.18, 122.3 1.76 C125.42 2.34, 128.53 3.07, 131.59 3.94 C134.65 4.81, 137.68 5.83, 140.64 6.98 C143.6 8.12, 146.52 9.41, 149.37 10.83 C152.21 12.25, 155 13.8, 157.71 15.48 C160.41 17.15, 163.04 18.95, 165.58 20.87 C168.11 22.78, 170.57 24.82, 172.92 26.96 C175.27 29.11, 177.53 31.36, 179.67 33.71 C181.81 36.06, 183.85 38.52, 185.76 41.05 C187.68 43.59, 189.49 46.23, 191.16 48.93 C192.83 51.63, 194.39 54.42, 195.8 57.26 C197.22 60.11, 198.51 63.03, 199.66 65.99 C200.8 68.96, 201.82 71.99, 202.69 75.04 C203.56 78.1, 204.29 81.21, 204.87 84.33 C205.46 87.46, 205.9 90.62, 206.19 93.78 C206.49 96.95, 206.56 101.73, 206.63 103.32 C206.71 104.91, 206.71 101.73, 206.63 103.32" stroke="none" stroke-width="0" fill="#fff"></path><path d="M206.63 103.32 C206.63 106.49, 206.49 109.69, 206.19 112.85 C205.9 116.01, 205.46 119.18, 204.87 122.3 C204.29 125.42, 203.56 128.53, 202.69 131.59 C201.82 134.65, 200.8 137.68, 199.66 140.64 C198.51 143.6, 197.22 146.52, 195.8 149.37 C194.39 152.21, 192.83 155, 191.16 157.71 C189.49 160.41, 187.68 163.04, 185.76 165.58 C183.85 168.11, 181.81 170.57, 179.67 172.92 C177.53 175.27, 175.27 177.53, 172.92 179.67 C170.57 181.81, 168.11 183.85, 165.58 185.76 C163.04 187.68, 160.41 189.49, 157.71 191.16 C155 192.83, 152.21 194.39, 149.37 195.8 C146.52 197.22, 143.6 198.51, 140.64 199.66 C137.68 200.8, 134.65 201.82, 131.59 202.69 C128.53 203.56, 125.42 204.29, 122.3 204.87 C119.18 205.46, 116.01 205.9, 112.85 206.19 C109.69 206.49, 106.49 206.63, 103.32 206.63 C100.14 206.63, 96.95 206.49, 93.78 206.19 C90.62 205.9, 87.46 205.46, 84.33 204.87 C81.21 204.29, 78.1 203.56, 75.04 202.69 C71.99 201.82, 68.96 200.8, 65.99 199.66 C63.03 198.51, 60.11 197.22, 57.26 195.8 C54.42 194.39, 51.63 192.83, 48.93 191.16 C46.23 189.49, 43.59 187.68, 41.05 185.76 C38.52 183.85, 36.06 181.81, 33.71 179.67 C31.36 177.53, 29.11 175.27, 26.96 172.92 C24.82 170.57, 22.78 168.11, 20.87 165.58 C18.95 163.04, 17.15 160.41, 15.48 157.71 C13.8 155, 12.25 152.21, 10.83 149.37 C9.41 146.52, 8.12 143.6, 6.98 140.64 C5.83 137.68, 4.81 134.65, 3.94 131.59 C3.07 128.53, 2.34 125.42, 1.76 122.3 C1.18 119.18, 0.73 116.01, 0.44 112.85 C0.15 109.69, 0 106.49, 0 103.32 C0 100.14, 0.15 96.95, 0.44 93.78 C0.73 90.62, 1.18 87.46, 1.76 84.33 C2.34 81.21, 3.07 78.1, 3.94 75.04 C4.81 71.99, 5.83 68.96, 6.98 65.99 C8.12 63.03, 9.41 60.11, 10.83 57.26 C12.25 54.42, 13.8 51.63, 15.48 48.93 C17.15 46.23, 18.95 43.59, 20.87 41.05 C22.78 38.52, 24.82 36.06, 26.96 33.71 C29.11 31.36, 31.36 29.11, 33.71 26.96 C36.06 24.82, 38.52 22.78, 41.05 20.87 C43.59 18.95, 46.23 17.15, 48.93 15.48 C51.63 13.8, 54.42 12.25, 57.26 10.83 C60.11 9.41, 63.03 8.12, 65.99 6.98 C68.96 5.83, 71.99 4.81, 75.04 3.94 C78.1 3.07, 81.21 2.34, 84.33 1.76 C87.46 1.18, 90.62 0.73, 93.78 0.44 C96.95 0.15, 100.14 0, 103.32 0 C106.49 0, 109.69 0.15, 112.85 0.44 C116.01 0.73, 119.18 1.18, 122.3 1.76 C125.42 2.34, 128.53 3.07, 131.59 3.94 C134.65 4.81, 137.68 5.83, 140.64 6.98 C143.6 8.12, 146.52 9.41, 149.37 10.83 C152.21 12.25, 155 13.8, 157.71 15.48 C160.41 17.15, 163.04 18.95, 165.58 20.87 C168.11 22.78, 170.57 24.82, 172.92 26.96 C175.27 29.11, 177.53 31.36, 179.67 33.71 C181.81 36.06, 183.85 38.52, 185.76 41.05 C187.68 43.59, 189.49 46.23, 191.16 48.93 C192.83 51.63, 194.39 54.42, 195.8 57.26 C197.22 60.11, 198.51 63.03, 199.66 65.99 C200.8 68.96, 201.82 71.99, 202.69 75.04 C203.56 78.1, 204.29 81.21, 204.87 84.33 C205.46 87.46, 205.9 90.62, 206.19 93.78 C206.49 96.95, 206.56 101.73, 206.63 103.32 C206.71 104.91, 206.71 101.73, 206.63 103.32" stroke="#1e1e1e" stroke-width="4" fill="none"></path></g><g stroke-linecap="round" transform="translate(108.06849974232864 230.9914300260407) rotate(0 72.3289848642421 72.3289848642421)"><path d="M144.66 72.33 C144.66 75.03, 144.51 77.74, 144.2 80.43 C143.9 83.11, 143.45 85.79, 142.84 88.42 C142.24 91.06, 141.49 93.67, 140.6 96.22 C139.71 98.77, 138.67 101.28, 137.5 103.71 C136.32 106.14, 135.01 108.52, 133.57 110.81 C132.14 113.1, 130.56 115.31, 128.88 117.43 C127.19 119.54, 125.38 121.56, 123.47 123.47 C121.56 125.38, 119.54 127.19, 117.43 128.88 C115.31 130.56, 113.1 132.14, 110.81 133.57 C108.52 135.01, 106.14 136.32, 103.71 137.5 C101.28 138.67, 98.77 139.71, 96.22 140.6 C93.67 141.49, 91.06 142.24, 88.42 142.84 C85.79 143.45, 83.11 143.9, 80.43 144.2 C77.74 144.51, 75.03 144.66, 72.33 144.66 C69.63 144.66, 66.91 144.51, 64.23 144.2 C61.55 143.9, 58.87 143.45, 56.23 142.84 C53.6 142.24, 50.99 141.49, 48.44 140.6 C45.89 139.71, 43.38 138.67, 40.95 137.5 C38.51 136.32, 36.13 135.01, 33.85 133.57 C31.56 132.14, 29.34 130.56, 27.23 128.88 C25.12 127.19, 23.09 125.38, 21.18 123.47 C19.28 121.56, 17.46 119.54, 15.78 117.43 C14.1 115.31, 12.52 113.1, 11.09 110.81 C9.65 108.52, 8.33 106.14, 7.16 103.71 C5.99 101.28, 4.95 98.77, 4.06 96.22 C3.17 93.67, 2.41 91.06, 1.81 88.42 C1.21 85.79, 0.76 83.11, 0.45 80.43 C0.15 77.74, 0 75.03, 0 72.33 C0 69.63, 0.15 66.91, 0.45 64.23 C0.76 61.55, 1.21 58.87, 1.81 56.23 C2.41 53.6, 3.17 50.99, 4.06 48.44 C4.95 45.89, 5.99 43.38, 7.16 40.95 C8.33 38.51, 9.65 36.13, 11.09 33.85 C12.52 31.56, 14.1 29.34, 15.78 27.23 C17.46 25.12, 19.28 23.09, 21.18 21.18 C23.09 19.28, 25.12 17.46, 27.23 15.78 C29.34 14.1, 31.56 12.52, 33.85 11.09 C36.13 9.65, 38.51 8.33, 40.95 7.16 C43.38 5.99, 45.89 4.95, 48.44 4.06 C50.99 3.17, 53.6 2.41, 56.23 1.81 C58.87 1.21, 61.55 0.76, 64.23 0.45 C66.91 0.15, 69.63 0, 72.33 0 C75.03 0, 77.74 0.15, 80.43 0.45 C83.11 0.76, 85.79 1.21, 88.42 1.81 C91.06 2.41, 93.67 3.17, 96.22 4.06 C98.77 4.95, 101.28 5.99, 103.71 7.16 C106.14 8.33, 108.52 9.65, 110.81 11.09 C113.1 12.52, 115.31 14.1, 117.43 15.78 C119.54 17.46, 121.56 19.28, 123.47 21.18 C125.38 23.09, 127.19 25.12, 128.88 27.23 C130.56 29.34, 132.14 31.56, 133.57 33.85 C135.01 36.13, 136.32 38.51, 137.5 40.95 C138.67 43.38, 139.71 45.89, 140.6 48.44 C141.49 50.99, 142.24 53.6, 142.84 56.23 C143.45 58.87, 143.9 61.55, 144.2 64.23 C144.51 66.91, 144.58 70.98, 144.66 72.33 C144.73 73.68, 144.73 70.98, 144.66 72.33" stroke="none" stroke-width="0" fill="#fff"></path><path d="M144.66 72.33 C144.66 75.03, 144.51 77.74, 144.2 80.43 C143.9 83.11, 143.45 85.79, 142.84 88.42 C142.24 91.06, 141.49 93.67, 140.6 96.22 C139.71 98.77, 138.67 101.28, 137.5 103.71 C136.32 106.14, 135.01 108.52, 133.57 110.81 C132.14 113.1, 130.56 115.31, 128.88 117.43 C127.19 119.54, 125.38 121.56, 123.47 123.47 C121.56 125.38, 119.54 127.19, 117.43 128.88 C115.31 130.56, 113.1 132.14, 110.81 133.57 C108.52 135.01, 106.14 136.32, 103.71 137.5 C101.28 138.67, 98.77 139.71, 96.22 140.6 C93.67 141.49, 91.06 142.24, 88.42 142.84 C85.79 143.45, 83.11 143.9, 80.43 144.2 C77.74 144.51, 75.03 144.66, 72.33 144.66 C69.63 144.66, 66.91 144.51, 64.23 144.2 C61.55 143.9, 58.87 143.45, 56.23 142.84 C53.6 142.24, 50.99 141.49, 48.44 140.6 C45.89 139.71, 43.38 138.67, 40.95 137.5 C38.51 136.32, 36.13 135.01, 33.85 133.57 C31.56 132.14, 29.34 130.56, 27.23 128.88 C25.12 127.19, 23.09 125.38, 21.18 123.47 C19.28 121.56, 17.46 119.54, 15.78 117.43 C14.1 115.31, 12.52 113.1, 11.09 110.81 C9.65 108.52, 8.33 106.14, 7.16 103.71 C5.99 101.28, 4.95 98.77, 4.06 96.22 C3.17 93.67, 2.41 91.06, 1.81 88.42 C1.21 85.79, 0.76 83.11, 0.45 80.43 C0.15 77.74, 0 75.03, 0 72.33 C0 69.63, 0.15 66.91, 0.45 64.23 C0.76 61.55, 1.21 58.87, 1.81 56.23 C2.41 53.6, 3.17 50.99, 4.06 48.44 C4.95 45.89, 5.99 43.38, 7.16 40.95 C8.33 38.51, 9.65 36.13, 11.09 33.85 C12.52 31.56, 14.1 29.34, 15.78 27.23 C17.46 25.12, 19.28 23.09, 21.18 21.18 C23.09 19.28, 25.12 17.46, 27.23 15.78 C29.34 14.1, 31.56 12.52, 33.85 11.09 C36.13 9.65, 38.51 8.33, 40.95 7.16 C43.38 5.99, 45.89 4.95, 48.44 4.06 C50.99 3.17, 53.6 2.41, 56.23 1.81 C58.87 1.21, 61.55 0.76, 64.23 0.45 C66.91 0.15, 69.63 0, 72.33 0 C75.03 0, 77.74 0.15, 80.43 0.45 C83.11 0.76, 85.79 1.21, 88.42 1.81 C91.06 2.41, 93.67 3.17, 96.22 4.06 C98.77 4.95, 101.28 5.99, 103.71 7.16 C106.14 8.33, 108.52 9.65, 110.81 11.09 C113.1 12.52, 115.31 14.1, 117.43 15.78 C119.54 17.46, 121.56 19.28, 123.47 21.18 C125.38 23.09, 127.19 25.12, 128.88 27.23 C130.56 29.34, 132.14 31.56, 133.57 33.85 C135.01 36.13, 136.32 38.51, 137.5 40.95 C138.67 43.38, 139.71 45.89, 140.6 48.44 C141.49 50.99, 142.24 53.6, 142.84 56.23 C143.45 58.87, 143.9 61.55, 144.2 64.23 C144.51 66.91, 144.58 70.98, 144.66 72.33 C144.73 73.68, 144.73 70.98, 144.66 72.33" stroke="#1e1e1e" stroke-width="4" fill="none"></path></g><g stroke-linecap="round" transform="translate(130.87593923836357 335.9207085372582) rotate(0 50.28568862960083 23.155255811964707)"><path d="M100.57 23.16 C100.57 24.36, 100.36 25.58, 99.95 26.78 C99.54 27.97, 98.92 29.16, 98.11 30.31 C97.3 31.46, 96.28 32.59, 95.09 33.67 C93.9 34.74, 92.51 35.79, 90.97 36.77 C89.43 37.74, 87.7 38.67, 85.84 39.53 C83.99 40.38, 81.96 41.18, 79.84 41.89 C77.72 42.6, 75.45 43.24, 73.11 43.79 C70.78 44.33, 68.32 44.8, 65.82 45.18 C63.33 45.55, 60.74 45.84, 58.15 46.03 C55.56 46.21, 52.91 46.31, 50.29 46.31 C47.66 46.31, 45.01 46.21, 42.42 46.03 C39.83 45.84, 37.24 45.55, 34.75 45.18 C32.25 44.8, 29.79 44.33, 27.46 43.79 C25.12 43.24, 22.85 42.6, 20.73 41.89 C18.61 41.18, 16.58 40.38, 14.73 39.53 C12.87 38.67, 11.14 37.74, 9.6 36.77 C8.06 35.79, 6.67 34.74, 5.48 33.67 C4.29 32.59, 3.27 31.46, 2.46 30.31 C1.65 29.16, 1.03 27.97, 0.62 26.78 C0.21 25.58, 0 24.36, 0 23.16 C0 21.95, 0.21 20.73, 0.62 19.53 C1.03 18.34, 1.65 17.15, 2.46 16 C3.27 14.85, 4.29 13.72, 5.48 12.64 C6.67 11.57, 8.06 10.52, 9.6 9.54 C11.14 8.57, 12.87 7.64, 14.73 6.78 C16.58 5.93, 18.61 5.13, 20.73 4.42 C22.85 3.71, 25.12 3.07, 27.46 2.52 C29.79 1.98, 32.25 1.51, 34.75 1.13 C37.24 0.76, 39.83 0.47, 42.42 0.29 C45.01 0.1, 47.66 0, 50.29 0 C52.91 0, 55.56 0.1, 58.15 0.29 C60.74 0.47, 63.33 0.76, 65.82 1.13 C68.32 1.51, 70.78 1.98, 73.11 2.52 C75.45 3.07, 77.72 3.71, 79.84 4.42 C81.96 5.13, 83.99 5.93, 85.84 6.78 C87.7 7.64, 89.43 8.57, 90.97 9.54 C92.51 10.52, 93.9 11.57, 95.09 12.64 C96.28 13.72, 97.3 14.85, 98.11 16 C98.92 17.15, 99.54 18.34, 99.95 19.53 C100.36 20.73, 100.47 22.55, 100.57 23.16 C100.67 23.76, 100.67 22.55, 100.57 23.16" stroke="none" stroke-width="0" fill="#fff"></path><path d="M100.57 23.16 C100.57 24.36, 100.36 25.58, 99.95 26.78 C99.54 27.97, 98.92 29.16, 98.11 30.31 C97.3 31.46, 96.28 32.59, 95.09 33.67 C93.9 34.74, 92.51 35.79, 90.97 36.77 C89.43 37.74, 87.7 38.67, 85.84 39.53 C83.99 40.38, 81.96 41.18, 79.84 41.89 C77.72 42.6, 75.45 43.24, 73.11 43.79 C70.78 44.33, 68.32 44.8, 65.82 45.18 C63.33 45.55, 60.74 45.84, 58.15 46.03 C55.56 46.21, 52.91 46.31, 50.29 46.31 C47.66 46.31, 45.01 46.21, 42.42 46.03 C39.83 45.84, 37.24 45.55, 34.75 45.18 C32.25 44.8, 29.79 44.33, 27.46 43.79 C25.12 43.24, 22.85 42.6, 20.73 41.89 C18.61 41.18, 16.58 40.38, 14.73 39.53 C12.87 38.67, 11.14 37.74, 9.6 36.77 C8.06 35.79, 6.67 34.74, 5.48 33.67 C4.29 32.59, 3.27 31.46, 2.46 30.31 C1.65 29.16, 1.03 27.97, 0.62 26.78 C0.21 25.58, 0 24.36, 0 23.16 C0 21.95, 0.21 20.73, 0.62 19.53 C1.03 18.34, 1.65 17.15, 2.46 16 C3.27 14.85, 4.29 13.72, 5.48 12.64 C6.67 11.57, 8.06 10.52, 9.6 9.54 C11.14 8.57, 12.87 7.64, 14.73 6.78 C16.58 5.93, 18.61 5.13, 20.73 4.42 C22.85 3.71, 25.12 3.07, 27.46 2.52 C29.79 1.98, 32.25 1.51, 34.75 1.13 C37.24 0.76, 39.83 0.47, 42.42 0.29 C45.01 0.1, 47.66 0, 50.29 0 C52.91 0, 55.56 0.1, 58.15 0.29 C60.74 0.47, 63.33 0.76, 65.82 1.13 C68.32 1.51, 70.78 1.98, 73.11 2.52 C75.45 3.07, 77.72 3.71, 79.84 4.42 C81.96 5.13, 83.99 5.93, 85.84 6.78 C87.7 7.64, 89.43 8.57, 90.97 9.54 C92.51 10.52, 93.9 11.57, 95.09 12.64 C96.28 13.72, 97.3 14.85, 98.11 16 C98.92 17.15, 99.54 18.34, 99.95 19.53 C100.36 20.73, 100.47 22.55, 100.57 23.16 C100.67 23.76, 100.67 22.55, 100.57 23.16" stroke="transparent" stroke-width="2" fill="none"></path></g><g stroke-linecap="round" transform="translate(189.27727316649907 275.4068746453195) rotate(0 6.467653228563449 6.467653228563449)"><path d="M12.94 6.47 C12.94 6.84, 12.9 7.22, 12.84 7.59 C12.77 7.96, 12.67 8.33, 12.55 8.68 C12.42 9.03, 12.26 9.38, 12.07 9.7 C11.88 10.03, 11.66 10.34, 11.42 10.62 C11.18 10.91, 10.91 11.18, 10.62 11.42 C10.34 11.66, 10.03 11.88, 9.7 12.07 C9.38 12.26, 9.03 12.42, 8.68 12.55 C8.33 12.67, 7.96 12.77, 7.59 12.84 C7.22 12.9, 6.84 12.94, 6.47 12.94 C6.09 12.94, 5.71 12.9, 5.34 12.84 C4.98 12.77, 4.61 12.67, 4.26 12.55 C3.9 12.42, 3.56 12.26, 3.23 12.07 C2.91 11.88, 2.6 11.66, 2.31 11.42 C2.02 11.18, 1.75 10.91, 1.51 10.62 C1.27 10.34, 1.05 10.03, 0.87 9.7 C0.68 9.38, 0.52 9.03, 0.39 8.68 C0.26 8.33, 0.16 7.96, 0.1 7.59 C0.03 7.22, 0 6.84, 0 6.47 C0 6.09, 0.03 5.71, 0.1 5.34 C0.16 4.98, 0.26 4.61, 0.39 4.26 C0.52 3.9, 0.68 3.56, 0.87 3.23 C1.05 2.91, 1.27 2.6, 1.51 2.31 C1.75 2.02, 2.02 1.75, 2.31 1.51 C2.6 1.27, 2.91 1.05, 3.23 0.87 C3.56 0.68, 3.9 0.52, 4.26 0.39 C4.61 0.26, 4.98 0.16, 5.34 0.1 C5.71 0.03, 6.09 0, 6.47 0 C6.84 0, 7.22 0.03, 7.59 0.1 C7.96 0.16, 8.33 0.26, 8.68 0.39 C9.03 0.52, 9.38 0.68, 9.7 0.87 C10.03 1.05, 10.34 1.27, 10.62 1.51 C10.91 1.75, 11.18 2.02, 11.42 2.31 C11.66 2.6, 11.88 2.91, 12.07 3.23 C12.26 3.56, 12.42 3.9, 12.55 4.26 C12.67 4.61, 12.77 4.98, 12.84 5.34 C12.9 5.71, 12.92 6.28, 12.94 6.47 C12.95 6.65, 12.95 6.28, 12.94 6.47" stroke="none" stroke-width="0" fill="#000000"></path><path d="M12.94 6.47 C12.94 6.84, 12.9 7.22, 12.84 7.59 C12.77 7.96, 12.67 8.33, 12.55 8.68 C12.42 9.03, 12.26 9.38, 12.07 9.7 C11.88 10.03, 11.66 10.34, 11.42 10.62 C11.18 10.91, 10.91 11.18, 10.62 11.42 C10.34 11.66, 10.03 11.88, 9.7 12.07 C9.38 12.26, 9.03 12.42, 8.68 12.55 C8.33 12.67, 7.96 12.77, 7.59 12.84 C7.22 12.9, 6.84 12.94, 6.47 12.94 C6.09 12.94, 5.71 12.9, 5.34 12.84 C4.98 12.77, 4.61 12.67, 4.26 12.55 C3.9 12.42, 3.56 12.26, 3.23 12.07 C2.91 11.88, 2.6 11.66, 2.31 11.42 C2.02 11.18, 1.75 10.91, 1.51 10.62 C1.27 10.34, 1.05 10.03, 0.87 9.7 C0.68 9.38, 0.52 9.03, 0.39 8.68 C0.26 8.33, 0.16 7.96, 0.1 7.59 C0.03 7.22, 0 6.84, 0 6.47 C0 6.09, 0.03 5.71, 0.1 5.34 C0.16 4.98, 0.26 4.61, 0.39 4.26 C0.52 3.9, 0.68 3.56, 0.87 3.23 C1.05 2.91, 1.27 2.6, 1.51 2.31 C1.75 2.02, 2.02 1.75, 2.31 1.51 C2.6 1.27, 2.91 1.05, 3.23 0.87 C3.56 0.68, 3.9 0.52, 4.26 0.39 C4.61 0.26, 4.98 0.16, 5.34 0.1 C5.71 0.03, 6.09 0, 6.47 0 C6.84 0, 7.22 0.03, 7.59 0.1 C7.96 0.16, 8.33 0.26, 8.68 0.39 C9.03 0.52, 9.38 0.68, 9.7 0.87 C10.03 1.05, 10.34 1.27, 10.62 1.51 C10.91 1.75, 11.18 2.02, 11.42 2.31 C11.66 2.6, 11.88 2.91, 12.07 3.23 C12.26 3.56, 12.42 3.9, 12.55 4.26 C12.67 4.61, 12.77 4.98, 12.84 5.34 C12.9 5.71, 12.92 6.28, 12.94 6.47 C12.95 6.65, 12.95 6.28, 12.94 6.47" stroke="transparent" stroke-width="2" fill="none"></path></g><g stroke-linecap="round" transform="translate(161.29386659919328 276.5763847075741) rotate(0 6.467653228563449 6.467653228563449)"><path d="M12.94 6.47 C12.94 6.84, 12.9 7.22, 12.84 7.59 C12.77 7.96, 12.67 8.33, 12.55 8.68 C12.42 9.03, 12.26 9.38, 12.07 9.7 C11.88 10.03, 11.66 10.34, 11.42 10.62 C11.18 10.91, 10.91 11.18, 10.62 11.42 C10.34 11.66, 10.03 11.88, 9.7 12.07 C9.38 12.26, 9.03 12.42, 8.68 12.55 C8.33 12.67, 7.96 12.77, 7.59 12.84 C7.22 12.9, 6.84 12.94, 6.47 12.94 C6.09 12.94, 5.71 12.9, 5.34 12.84 C4.98 12.77, 4.61 12.67, 4.26 12.55 C3.9 12.42, 3.56 12.26, 3.23 12.07 C2.91 11.88, 2.6 11.66, 2.31 11.42 C2.02 11.18, 1.75 10.91, 1.51 10.62 C1.27 10.34, 1.05 10.03, 0.87 9.7 C0.68 9.38, 0.52 9.03, 0.39 8.68 C0.26 8.33, 0.16 7.96, 0.1 7.59 C0.03 7.22, 0 6.84, 0 6.47 C0 6.09, 0.03 5.71, 0.1 5.34 C0.16 4.98, 0.26 4.61, 0.39 4.26 C0.52 3.9, 0.68 3.56, 0.87 3.23 C1.05 2.91, 1.27 2.6, 1.51 2.31 C1.75 2.02, 2.02 1.75, 2.31 1.51 C2.6 1.27, 2.91 1.05, 3.23 0.87 C3.56 0.68, 3.9 0.52, 4.26 0.39 C4.61 0.26, 4.98 0.16, 5.34 0.1 C5.71 0.03, 6.09 0, 6.47 0 C6.84 0, 7.22 0.03, 7.59 0.1 C7.96 0.16, 8.33 0.26, 8.68 0.39 C9.03 0.52, 9.38 0.68, 9.7 0.87 C10.03 1.05, 10.34 1.27, 10.62 1.51 C10.91 1.75, 11.18 2.02, 11.42 2.31 C11.66 2.6, 11.88 2.91, 12.07 3.23 C12.26 3.56, 12.42 3.9, 12.55 4.26 C12.67 4.61, 12.77 4.98, 12.84 5.34 C12.9 5.71, 12.92 6.28, 12.94 6.47 C12.95 6.65, 12.95 6.28, 12.94 6.47" stroke="none" stroke-width="0" fill="#000000"></path><path d="M12.94 6.47 C12.94 6.84, 12.9 7.22, 12.84 7.59 C12.77 7.96, 12.67 8.33, 12.55 8.68 C12.42 9.03, 12.26 9.38, 12.07 9.7 C11.88 10.03, 11.66 10.34, 11.42 10.62 C11.18 10.91, 10.91 11.18, 10.62 11.42 C10.34 11.66, 10.03 11.88, 9.7 12.07 C9.38 12.26, 9.03 12.42, 8.68 12.55 C8.33 12.67, 7.96 12.77, 7.59 12.84 C7.22 12.9, 6.84 12.94, 6.47 12.94 C6.09 12.94, 5.71 12.9, 5.34 12.84 C4.98 12.77, 4.61 12.67, 4.26 12.55 C3.9 12.42, 3.56 12.26, 3.23 12.07 C2.91 11.88, 2.6 11.66, 2.31 11.42 C2.02 11.18, 1.75 10.91, 1.51 10.62 C1.27 10.34, 1.05 10.03, 0.87 9.7 C0.68 9.38, 0.52 9.03, 0.39 8.68 C0.26 8.33, 0.16 7.96, 0.1 7.59 C0.03 7.22, 0 6.84, 0 6.47 C0 6.09, 0.03 5.71, 0.1 5.34 C0.16 4.98, 0.26 4.61, 0.39 4.26 C0.52 3.9, 0.68 3.56, 0.87 3.23 C1.05 2.91, 1.27 2.6, 1.51 2.31 C1.75 2.02, 2.02 1.75, 2.31 1.51 C2.6 1.27, 2.91 1.05, 3.23 0.87 C3.56 0.68, 3.9 0.52, 4.26 0.39 C4.61 0.26, 4.98 0.16, 5.34 0.1 C5.71 0.03, 6.09 0, 6.47 0 C6.84 0, 7.22 0.03, 7.59 0.1 C7.96 0.16, 8.33 0.26, 8.68 0.39 C9.03 0.52, 9.38 0.68, 9.7 0.87 C10.03 1.05, 10.34 1.27, 10.62 1.51 C10.91 1.75, 11.18 2.02, 11.42 2.31 C11.66 2.6, 11.88 2.91, 12.07 3.23 C12.26 3.56, 12.42 3.9, 12.55 4.26 C12.67 4.61, 12.77 4.98, 12.84 5.34 C12.9 5.71, 12.92 6.28, 12.94 6.47 C12.95 6.65, 12.95 6.28, 12.94 6.47" stroke="transparent" stroke-width="2" fill="none"></path></g><g stroke-linecap="round" transform="translate(176.9869813368241 293.44777809073094) rotate(0 6.200694668730648 6.200694668730648)"><path d="M12.4 6.2 C12.4 6.56, 12.37 6.92, 12.31 7.28 C12.24 7.63, 12.15 7.98, 12.03 8.32 C11.9 8.66, 11.75 8.99, 11.57 9.3 C11.39 9.61, 11.18 9.91, 10.95 10.19 C10.72 10.46, 10.46 10.72, 10.19 10.95 C9.91 11.18, 9.61 11.39, 9.3 11.57 C8.99 11.75, 8.66 11.9, 8.32 12.03 C7.98 12.15, 7.63 12.24, 7.28 12.31 C6.92 12.37, 6.56 12.4, 6.2 12.4 C5.84 12.4, 5.48 12.37, 5.12 12.31 C4.77 12.24, 4.42 12.15, 4.08 12.03 C3.74 11.9, 3.41 11.75, 3.1 11.57 C2.79 11.39, 2.49 11.18, 2.21 10.95 C1.94 10.72, 1.68 10.46, 1.45 10.19 C1.22 9.91, 1.01 9.61, 0.83 9.3 C0.65 8.99, 0.5 8.66, 0.37 8.32 C0.25 7.98, 0.16 7.63, 0.09 7.28 C0.03 6.92, 0 6.56, 0 6.2 C0 5.84, 0.03 5.48, 0.09 5.12 C0.16 4.77, 0.25 4.42, 0.37 4.08 C0.5 3.74, 0.65 3.41, 0.83 3.1 C1.01 2.79, 1.22 2.49, 1.45 2.21 C1.68 1.94, 1.94 1.68, 2.21 1.45 C2.49 1.22, 2.79 1.01, 3.1 0.83 C3.41 0.65, 3.74 0.5, 4.08 0.37 C4.42 0.25, 4.77 0.16, 5.12 0.09 C5.48 0.03, 5.84 0, 6.2 0 C6.56 0, 6.92 0.03, 7.28 0.09 C7.63 0.16, 7.98 0.25, 8.32 0.37 C8.66 0.5, 8.99 0.65, 9.3 0.83 C9.61 1.01, 9.91 1.22, 10.19 1.45 C10.46 1.68, 10.72 1.94, 10.95 2.21 C11.18 2.49, 11.39 2.79, 11.57 3.1 C11.75 3.41, 11.9 3.74, 12.03 4.08 C12.15 4.42, 12.24 4.77, 12.31 5.12 C12.37 5.48, 12.39 6.02, 12.4 6.2 C12.42 6.38, 12.42 6.02, 12.4 6.2" stroke="none" stroke-width="0" fill="#f08c00"></path><path d="M12.4 6.2 C12.4 6.56, 12.37 6.92, 12.31 7.28 C12.24 7.63, 12.15 7.98, 12.03 8.32 C11.9 8.66, 11.75 8.99, 11.57 9.3 C11.39 9.61, 11.18 9.91, 10.95 10.19 C10.72 10.46, 10.46 10.72, 10.19 10.95 C9.91 11.18, 9.61 11.39, 9.3 11.57 C8.99 11.75, 8.66 11.9, 8.32 12.03 C7.98 12.15, 7.63 12.24, 7.28 12.31 C6.92 12.37, 6.56 12.4, 6.2 12.4 C5.84 12.4, 5.48 12.37, 5.12 12.31 C4.77 12.24, 4.42 12.15, 4.08 12.03 C3.74 11.9, 3.41 11.75, 3.1 11.57 C2.79 11.39, 2.49 11.18, 2.21 10.95 C1.94 10.72, 1.68 10.46, 1.45 10.19 C1.22 9.91, 1.01 9.61, 0.83 9.3 C0.65 8.99, 0.5 8.66, 0.37 8.32 C0.25 7.98, 0.16 7.63, 0.09 7.28 C0.03 6.92, 0 6.56, 0 6.2 C0 5.84, 0.03 5.48, 0.09 5.12 C0.16 4.77, 0.25 4.42, 0.37 4.08 C0.5 3.74, 0.65 3.41, 0.83 3.1 C1.01 2.79, 1.22 2.49, 1.45 2.21 C1.68 1.94, 1.94 1.68, 2.21 1.45 C2.49 1.22, 2.79 1.01, 3.1 0.83 C3.41 0.65, 3.74 0.5, 4.08 0.37 C4.42 0.25, 4.77 0.16, 5.12 0.09 C5.48 0.03, 5.84 0, 6.2 0 C6.56 0, 6.92 0.03, 7.28 0.09 C7.63 0.16, 7.98 0.25, 8.32 0.37 C8.66 0.5, 8.99 0.65, 9.3 0.83 C9.61 1.01, 9.91 1.22, 10.19 1.45 C10.46 1.68, 10.72 1.94, 10.95 2.21 C11.18 2.49, 11.39 2.79, 11.57 3.1 C11.75 3.41, 11.9 3.74, 12.03 4.08 C12.15 4.42, 12.24 4.77, 12.31 5.12 C12.37 5.48, 12.39 6.02, 12.4 6.2 C12.42 6.38, 12.42 6.02, 12.4 6.2" stroke="#f08c00" stroke-width="2" fill="none"></path></g><g stroke-linecap="round"><g transform="translate(183.70469059031166 293.4285465529356) rotate(0 12.724128506514262 3.58888051213944)"><path d="M0 0 C8.24 2.32, 16.48 4.65, 25.45 7.18 M0 0 C6.64 1.87, 13.27 3.74, 25.45 7.18" stroke="#f08c00" stroke-width="2" fill="none"></path></g></g><mask></mask><g stroke-linecap="round"><g transform="translate(183.72414502777974 305.7546310928228) rotate(0 12.75377336360998 -2.617393841068406)"><path d="M0 0 C9.17 -1.88, 18.34 -3.76, 25.51 -5.23 M0 0 C6.9 -1.42, 13.79 -2.83, 25.51 -5.23" stroke="#f08c00" stroke-width="2" fill="none"></path></g></g><mask></mask><g stroke-linecap="round"><g transform="translate(189.36747589676816 299.8886549950239) rotate(0 7.197833062938116 0.15347389558928626)"><path d="M0 0 C4.8 0.1, 9.6 0.2, 14.4 0.31 M0 0 C4.31 0.09, 8.62 0.18, 14.4 0.31" stroke="#f08c00" stroke-width="4" fill="none"></path></g></g><mask></mask><g stroke-linecap="round"><g transform="translate(188.43691688819672 296.1417504398105) rotate(0 3.6426534830461605 1.0272653164633994)"><path d="M0 0 C2.4 0.68, 4.8 1.35, 7.29 2.05 M0 0 C1.79 0.5, 3.58 1.01, 7.29 2.05" stroke="#f08c00" stroke-width="4" fill="none"></path></g></g><mask></mask><g stroke-linecap="round"><g transform="translate(189.0683631830143 302.47584899406866) rotate(0 4.765611310237546 -0.9456159923747691)"><path d="M0 0 C2.77 -0.55, 5.53 -1.1, 9.53 -1.89 M0 0 C2.2 -0.44, 4.39 -0.87, 9.53 -1.89" stroke="#f08c00" stroke-width="4" fill="none"></path></g></g><mask></mask><g stroke-linecap="round" transform="translate(180.3762766941254 393.07139313725565) rotate(0 6.467653228563449 6.467653228563449)"><path d="M12.94 6.47 C12.94 6.84, 12.9 7.22, 12.84 7.59 C12.77 7.96, 12.67 8.33, 12.55 8.68 C12.42 9.03, 12.26 9.38, 12.07 9.7 C11.88 10.03, 11.66 10.34, 11.42 10.62 C11.18 10.91, 10.91 11.18, 10.62 11.42 C10.34 11.66, 10.03 11.88, 9.7 12.07 C9.38 12.26, 9.03 12.42, 8.68 12.55 C8.33 12.67, 7.96 12.77, 7.59 12.84 C7.22 12.9, 6.84 12.94, 6.47 12.94 C6.09 12.94, 5.71 12.9, 5.34 12.84 C4.98 12.77, 4.61 12.67, 4.26 12.55 C3.9 12.42, 3.56 12.26, 3.23 12.07 C2.91 11.88, 2.6 11.66, 2.31 11.42 C2.02 11.18, 1.75 10.91, 1.51 10.62 C1.27 10.34, 1.05 10.03, 0.87 9.7 C0.68 9.38, 0.52 9.03, 0.39 8.68 C0.26 8.33, 0.16 7.96, 0.1 7.59 C0.03 7.22, 0 6.84, 0 6.47 C0 6.09, 0.03 5.71, 0.1 5.34 C0.16 4.98, 0.26 4.61, 0.39 4.26 C0.52 3.9, 0.68 3.56, 0.87 3.23 C1.05 2.91, 1.27 2.6, 1.51 2.31 C1.75 2.02, 2.02 1.75, 2.31 1.51 C2.6 1.27, 2.91 1.05, 3.23 0.87 C3.56 0.68, 3.9 0.52, 4.26 0.39 C4.61 0.26, 4.98 0.16, 5.34 0.1 C5.71 0.03, 6.09 0, 6.47 0 C6.84 0, 7.22 0.03, 7.59 0.1 C7.96 0.16, 8.33 0.26, 8.68 0.39 C9.03 0.52, 9.38 0.68, 9.7 0.87 C10.03 1.05, 10.34 1.27, 10.62 1.51 C10.91 1.75, 11.18 2.02, 11.42 2.31 C11.66 2.6, 11.88 2.91, 12.07 3.23 C12.26 3.56, 12.42 3.9, 12.55 4.26 C12.67 4.61, 12.77 4.98, 12.84 5.34 C12.9 5.71, 12.92 6.28, 12.94 6.47 C12.95 6.65, 12.95 6.28, 12.94 6.47" stroke="none" stroke-width="0" fill="#000000"></path><path d="M12.94 6.47 C12.94 6.84, 12.9 7.22, 12.84 7.59 C12.77 7.96, 12.67 8.33, 12.55 8.68 C12.42 9.03, 12.26 9.38, 12.07 9.7 C11.88 10.03, 11.66 10.34, 11.42 10.62 C11.18 10.91, 10.91 11.18, 10.62 11.42 C10.34 11.66, 10.03 11.88, 9.7 12.07 C9.38 12.26, 9.03 12.42, 8.68 12.55 C8.33 12.67, 7.96 12.77, 7.59 12.84 C7.22 12.9, 6.84 12.94, 6.47 12.94 C6.09 12.94, 5.71 12.9, 5.34 12.84 C4.98 12.77, 4.61 12.67, 4.26 12.55 C3.9 12.42, 3.56 12.26, 3.23 12.07 C2.91 11.88, 2.6 11.66, 2.31 11.42 C2.02 11.18, 1.75 10.91, 1.51 10.62 C1.27 10.34, 1.05 10.03, 0.87 9.7 C0.68 9.38, 0.52 9.03, 0.39 8.68 C0.26 8.33, 0.16 7.96, 0.1 7.59 C0.03 7.22, 0 6.84, 0 6.47 C0 6.09, 0.03 5.71, 0.1 5.34 C0.16 4.98, 0.26 4.61, 0.39 4.26 C0.52 3.9, 0.68 3.56, 0.87 3.23 C1.05 2.91, 1.27 2.6, 1.51 2.31 C1.75 2.02, 2.02 1.75, 2.31 1.51 C2.6 1.27, 2.91 1.05, 3.23 0.87 C3.56 0.68, 3.9 0.52, 4.26 0.39 C4.61 0.26, 4.98 0.16, 5.34 0.1 C5.71 0.03, 6.09 0, 6.47 0 C6.84 0, 7.22 0.03, 7.59 0.1 C7.96 0.16, 8.33 0.26, 8.68 0.39 C9.03 0.52, 9.38 0.68, 9.7 0.87 C10.03 1.05, 10.34 1.27, 10.62 1.51 C10.91 1.75, 11.18 2.02, 11.42 2.31 C11.66 2.6, 11.88 2.91, 12.07 3.23 C12.26 3.56, 12.42 3.9, 12.55 4.26 C12.67 4.61, 12.77 4.98, 12.84 5.34 C12.9 5.71, 12.92 6.28, 12.94 6.47 C12.95 6.65, 12.95 6.28, 12.94 6.47" stroke="transparent" stroke-width="2" fill="none"></path></g><g stroke-linecap="round" transform="translate(181.215505628581 417.16443284851084) rotate(0 6.467653228563449 6.467653228563449)"><path d="M12.94 6.47 C12.94 6.84, 12.9 7.22, 12.84 7.59 C12.77 7.96, 12.67 8.33, 12.55 8.68 C12.42 9.03, 12.26 9.38, 12.07 9.7 C11.88 10.03, 11.66 10.34, 11.42 10.62 C11.18 10.91, 10.91 11.18, 10.62 11.42 C10.34 11.66, 10.03 11.88, 9.7 12.07 C9.38 12.26, 9.03 12.42, 8.68 12.55 C8.33 12.67, 7.96 12.77, 7.59 12.84 C7.22 12.9, 6.84 12.94, 6.47 12.94 C6.09 12.94, 5.71 12.9, 5.34 12.84 C4.98 12.77, 4.61 12.67, 4.26 12.55 C3.9 12.42, 3.56 12.26, 3.23 12.07 C2.91 11.88, 2.6 11.66, 2.31 11.42 C2.02 11.18, 1.75 10.91, 1.51 10.62 C1.27 10.34, 1.05 10.03, 0.87 9.7 C0.68 9.38, 0.52 9.03, 0.39 8.68 C0.26 8.33, 0.16 7.96, 0.1 7.59 C0.03 7.22, 0 6.84, 0 6.47 C0 6.09, 0.03 5.71, 0.1 5.34 C0.16 4.98, 0.26 4.61, 0.39 4.26 C0.52 3.9, 0.68 3.56, 0.87 3.23 C1.05 2.91, 1.27 2.6, 1.51 2.31 C1.75 2.02, 2.02 1.75, 2.31 1.51 C2.6 1.27, 2.91 1.05, 3.23 0.87 C3.56 0.68, 3.9 0.52, 4.26 0.39 C4.61 0.26, 4.98 0.16, 5.34 0.1 C5.71 0.03, 6.09 0, 6.47 0 C6.84 0, 7.22 0.03, 7.59 0.1 C7.96 0.16, 8.33 0.26, 8.68 0.39 C9.03 0.52, 9.38 0.68, 9.7 0.87 C10.03 1.05, 10.34 1.27, 10.62 1.51 C10.91 1.75, 11.18 2.02, 11.42 2.31 C11.66 2.6, 11.88 2.91, 12.07 3.23 C12.26 3.56, 12.42 3.9, 12.55 4.26 C12.67 4.61, 12.77 4.98, 12.84 5.34 C12.9 5.71, 12.92 6.28, 12.94 6.47 C12.95 6.65, 12.95 6.28, 12.94 6.47" stroke="none" stroke-width="0" fill="#000000"></path><path d="M12.94 6.47 C12.94 6.84, 12.9 7.22, 12.84 7.59 C12.77 7.96, 12.67 8.33, 12.55 8.68 C12.42 9.03, 12.26 9.38, 12.07 9.7 C11.88 10.03, 11.66 10.34, 11.42 10.62 C11.18 10.91, 10.91 11.18, 10.62 11.42 C10.34 11.66, 10.03 11.88, 9.7 12.07 C9.38 12.26, 9.03 12.42, 8.68 12.55 C8.33 12.67, 7.96 12.77, 7.59 12.84 C7.22 12.9, 6.84 12.94, 6.47 12.94 C6.09 12.94, 5.71 12.9, 5.34 12.84 C4.98 12.77, 4.61 12.67, 4.26 12.55 C3.9 12.42, 3.56 12.26, 3.23 12.07 C2.91 11.88, 2.6 11.66, 2.31 11.42 C2.02 11.18, 1.75 10.91, 1.51 10.62 C1.27 10.34, 1.05 10.03, 0.87 9.7 C0.68 9.38, 0.52 9.03, 0.39 8.68 C0.26 8.33, 0.16 7.96, 0.1 7.59 C0.03 7.22, 0 6.84, 0 6.47 C0 6.09, 0.03 5.71, 0.1 5.34 C0.16 4.98, 0.26 4.61, 0.39 4.26 C0.52 3.9, 0.68 3.56, 0.87 3.23 C1.05 2.91, 1.27 2.6, 1.51 2.31 C1.75 2.02, 2.02 1.75, 2.31 1.51 C2.6 1.27, 2.91 1.05, 3.23 0.87 C3.56 0.68, 3.9 0.52, 4.26 0.39 C4.61 0.26, 4.98 0.16, 5.34 0.1 C5.71 0.03, 6.09 0, 6.47 0 C6.84 0, 7.22 0.03, 7.59 0.1 C7.96 0.16, 8.33 0.26, 8.68 0.39 C9.03 0.52, 9.38 0.68, 9.7 0.87 C10.03 1.05, 10.34 1.27, 10.62 1.51 C10.91 1.75, 11.18 2.02, 11.42 2.31 C11.66 2.6, 11.88 2.91, 12.07 3.23 C12.26 3.56, 12.42 3.9, 12.55 4.26 C12.67 4.61, 12.77 4.98, 12.84 5.34 C12.9 5.71, 12.92 6.28, 12.94 6.47 C12.95 6.65, 12.95 6.28, 12.94 6.47" stroke="transparent" stroke-width="2" fill="none"></path></g><g stroke-linecap="round"><g transform="translate(42.35378086395394 312.68326488808816) rotate(401.2075710929845 -5.411851472170838 6.303501568678712)"><path d="M0.41 -0.36 C-1.34 1.74, -9.16 10.14, -11.06 12.22 M-0.04 0.64 C-1.84 2.84, -9.72 10.75, -11.61 12.73" stroke="#1e1e1e" stroke-width="4" fill="none"></path></g></g><mask></mask><g stroke-linecap="round"><g transform="translate(48.96603244578364 309.6701861479323) rotate(401.2075710929845 -9.283922797219475 -1.2277963458873273)"><path d="M-0.23 -0.38 C-3.42 -0.81, -15.58 -2.62, -18.72 -2.91 M0.65 0.61 C-2.66 0.27, -16.12 -1.83, -19.22 -2.44" stroke="#1e1e1e" stroke-width="4" fill="none"></path></g></g><mask></mask><g stroke-linecap="round"><g transform="translate(53.2143782182975 316.83588318285547) rotate(401.2075710929845 -2.328669237894701 -8.432257265249063)"><path d="M-0.15 -0.45 C-0.96 -3.14, -4.34 -13.72, -5.13 -16.54 M0.78 0.51 C0.15 -2.31, -3.11 -14.42, -4.14 -17.34" stroke="#1e1e1e" stroke-width="4" fill="none"></path></g></g><mask></mask><g stroke-linecap="round"><g transform="translate(348.75156695960686 337.92442714143544) rotate(337.40491624176013 5.411851472170838 6.303501568678712)"><path d="M-0.47 0.32 C1.32 2.41, 8.73 10.1, 10.59 12.11 M0.29 0.01 C2 2.19, 8.37 10.41, 10.04 12.55" stroke="#1e1e1e" stroke-width="4" fill="none"></path></g></g><mask></mask><g stroke-linecap="round"><g transform="translate(346.03121537774496 334.62995601238435) rotate(337.40491624176013 9.283922797219475 -1.2277963458873273)"><path d="M-0.23 -0.5 C2.92 -1, 15.35 -2.42, 18.45 -2.69 M0.65 0.43 C3.76 -0.03, 15.08 -1.53, 17.97 -2.12" stroke="#1e1e1e" stroke-width="4" fill="none"></path></g></g><mask></mask><g stroke-linecap="round"><g transform="translate(342.1290310606928 338.18452101831645) rotate(337.40491624176013 2.328669237894701 -8.432257265249063)"><path d="M-0.11 -0.24 C0.67 -2.92, 3.74 -13.75, 4.49 -16.57 M0.83 0.83 C1.55 -1.96, 3.46 -14.46, 3.98 -17.38" stroke="#1e1e1e" stroke-width="4" fill="none"></path></g></g><mask></mask><g stroke-linecap="round" transform="translate(49.302566715272405 292.88125900445084) rotate(0 5.9002718712058595 5.9002718712058595)"><path d="M11.8 5.9 C11.8 6.24, 11.77 6.59, 11.71 6.92 C11.65 7.26, 11.56 7.6, 11.44 7.92 C11.33 8.24, 11.18 8.55, 11.01 8.85 C10.84 9.15, 10.64 9.43, 10.42 9.69 C10.2 9.95, 9.95 10.2, 9.69 10.42 C9.43 10.64, 9.15 10.84, 8.85 11.01 C8.55 11.18, 8.24 11.33, 7.92 11.44 C7.6 11.56, 7.26 11.65, 6.92 11.71 C6.59 11.77, 6.24 11.8, 5.9 11.8 C5.56 11.8, 5.21 11.77, 4.88 11.71 C4.54 11.65, 4.2 11.56, 3.88 11.44 C3.56 11.33, 3.25 11.18, 2.95 11.01 C2.65 10.84, 2.37 10.64, 2.11 10.42 C1.85 10.2, 1.6 9.95, 1.38 9.69 C1.16 9.43, 0.96 9.15, 0.79 8.85 C0.62 8.55, 0.47 8.24, 0.36 7.92 C0.24 7.6, 0.15 7.26, 0.09 6.92 C0.03 6.59, 0 6.24, 0 5.9 C0 5.56, 0.03 5.21, 0.09 4.88 C0.15 4.54, 0.24 4.2, 0.36 3.88 C0.47 3.56, 0.62 3.25, 0.79 2.95 C0.96 2.65, 1.16 2.37, 1.38 2.11 C1.6 1.85, 1.85 1.6, 2.11 1.38 C2.37 1.16, 2.65 0.96, 2.95 0.79 C3.25 0.62, 3.56 0.47, 3.88 0.36 C4.2 0.24, 4.54 0.15, 4.88 0.09 C5.21 0.03, 5.56 0, 5.9 0 C6.24 0, 6.59 0.03, 6.92 0.09 C7.26 0.15, 7.6 0.24, 7.92 0.36 C8.24 0.47, 8.55 0.62, 8.85 0.79 C9.15 0.96, 9.43 1.16, 9.69 1.38 C9.95 1.6, 10.2 1.85, 10.42 2.11 C10.64 2.37, 10.84 2.65, 11.01 2.95 C11.18 3.25, 11.33 3.56, 11.44 3.88 C11.56 4.2, 11.65 4.54, 11.71 4.88 C11.77 5.21, 11.79 5.73, 11.8 5.9 C11.82 6.07, 11.82 5.73, 11.8 5.9" stroke="#e03131" stroke-width="1" fill="none"></path></g><g stroke-linecap="round" transform="translate(26.369079953179607 294.6149696598586) rotate(0 5.9002718712058595 5.9002718712058595)"><path d="M11.8 5.9 C11.8 6.24, 11.77 6.59, 11.71 6.92 C11.65 7.26, 11.56 7.6, 11.44 7.92 C11.33 8.24, 11.18 8.55, 11.01 8.85 C10.84 9.15, 10.64 9.43, 10.42 9.69 C10.2 9.95, 9.95 10.2, 9.69 10.42 C9.43 10.64, 9.15 10.84, 8.85 11.01 C8.55 11.18, 8.24 11.33, 7.92 11.44 C7.6 11.56, 7.26 11.65, 6.92 11.71 C6.59 11.77, 6.24 11.8, 5.9 11.8 C5.56 11.8, 5.21 11.77, 4.88 11.71 C4.54 11.65, 4.2 11.56, 3.88 11.44 C3.56 11.33, 3.25 11.18, 2.95 11.01 C2.65 10.84, 2.37 10.64, 2.11 10.42 C1.85 10.2, 1.6 9.95, 1.38 9.69 C1.16 9.43, 0.96 9.15, 0.79 8.85 C0.62 8.55, 0.47 8.24, 0.36 7.92 C0.24 7.6, 0.15 7.26, 0.09 6.92 C0.03 6.59, 0 6.24, 0 5.9 C0 5.56, 0.03 5.21, 0.09 4.88 C0.15 4.54, 0.24 4.2, 0.36 3.88 C0.47 3.56, 0.62 3.25, 0.79 2.95 C0.96 2.65, 1.16 2.37, 1.38 2.11 C1.6 1.85, 1.85 1.6, 2.11 1.38 C2.37 1.16, 2.65 0.96, 2.95 0.79 C3.25 0.62, 3.56 0.47, 3.88 0.36 C4.2 0.24, 4.54 0.15, 4.88 0.09 C5.21 0.03, 5.56 0, 5.9 0 C6.24 0, 6.59 0.03, 6.92 0.09 C7.26 0.15, 7.6 0.24, 7.92 0.36 C8.24 0.47, 8.55 0.62, 8.85 0.79 C9.15 0.96, 9.43 1.16, 9.69 1.38 C9.95 1.6, 10.2 1.85, 10.42 2.11 C10.64 2.37, 10.84 2.65, 11.01 2.95 C11.18 3.25, 11.33 3.56, 11.44 3.88 C11.56 4.2, 11.65 4.54, 11.71 4.88 C11.77 5.21, 11.79 5.73, 11.8 5.9 C11.82 6.07, 11.82 5.73, 11.8 5.9" stroke="#e03131" stroke-width="1" fill="none"></path></g><g stroke-linecap="round" transform="translate(20.83793976691959 314.08777916367035) rotate(0 5.9002718712058595 5.9002718712058595)"><path d="M11.8 5.9 C11.8 6.24, 11.77 6.59, 11.71 6.92 C11.65 7.26, 11.56 7.6, 11.44 7.92 C11.33 8.24, 11.18 8.55, 11.01 8.85 C10.84 9.15, 10.64 9.43, 10.42 9.69 C10.2 9.95, 9.95 10.2, 9.69 10.42 C9.43 10.64, 9.15 10.84, 8.85 11.01 C8.55 11.18, 8.24 11.33, 7.92 11.44 C7.6 11.56, 7.26 11.65, 6.92 11.71 C6.59 11.77, 6.24 11.8, 5.9 11.8 C5.56 11.8, 5.21 11.77, 4.88 11.71 C4.54 11.65, 4.2 11.56, 3.88 11.44 C3.56 11.33, 3.25 11.18, 2.95 11.01 C2.65 10.84, 2.37 10.64, 2.11 10.42 C1.85 10.2, 1.6 9.95, 1.38 9.69 C1.16 9.43, 0.96 9.15, 0.79 8.85 C0.62 8.55, 0.47 8.24, 0.36 7.92 C0.24 7.6, 0.15 7.26, 0.09 6.92 C0.03 6.59, 0 6.24, 0 5.9 C0 5.56, 0.03 5.21, 0.09 4.88 C0.15 4.54, 0.24 4.2, 0.36 3.88 C0.47 3.56, 0.62 3.25, 0.79 2.95 C0.96 2.65, 1.16 2.37, 1.38 2.11 C1.6 1.85, 1.85 1.6, 2.11 1.38 C2.37 1.16, 2.65 0.96, 2.95 0.79 C3.25 0.62, 3.56 0.47, 3.88 0.36 C4.2 0.24, 4.54 0.15, 4.88 0.09 C5.21 0.03, 5.56 0, 5.9 0 C6.24 0, 6.59 0.03, 6.92 0.09 C7.26 0.15, 7.6 0.24, 7.92 0.36 C8.24 0.47, 8.55 0.62, 8.85 0.79 C9.15 0.96, 9.43 1.16, 9.69 1.38 C9.95 1.6, 10.2 1.85, 10.42 2.11 C10.64 2.37, 10.84 2.65, 11.01 2.95 C11.18 3.25, 11.33 3.56, 11.44 3.88 C11.56 4.2, 11.65 4.54, 11.71 4.88 C11.77 5.21, 11.79 5.73, 11.8 5.9 C11.82 6.07, 11.82 5.73, 11.8 5.9" stroke="#e03131" stroke-width="1" fill="none"></path></g><g transform="translate(49.36400868267083 275.35581114412344) rotate(0 4.44921875 9.199999999999818)"><text x="0" y="14.720312499999999" font-family="Helvetica, Segoe UI Emoji" font-size="16px" fill="#e03131" text-anchor="start" style="white-space: pre;" direction="ltr" dominant-baseline="alphabetic">1</text></g><g transform="translate(20.216944856252667 277.583680445583) rotate(0 4.44921875 9.199999999999818)"><text x="0" y="14.720312499999999" font-family="Helvetica, Segoe UI Emoji" font-size="16px" fill="#e03131" text-anchor="start" style="white-space: pre;" direction="ltr" dominant-baseline="alphabetic">2</text></g><g transform="translate(10 306.0394131951871) rotate(0 4.44921875 9.199999999999818)"><text x="0" y="14.720312499999999" font-family="Helvetica, Segoe UI Emoji" font-size="16px" fill="#e03131" text-anchor="start" style="white-space: pre;" direction="ltr" dominant-baseline="alphabetic">3</text></g><g stroke-linecap="round" transform="translate(338.0535475263132 313.8306552428148) rotate(0 5.9002718712058595 5.9002718712058595)"><path d="M11.8 5.9 C11.8 6.24, 11.77 6.59, 11.71 6.92 C11.65 7.26, 11.56 7.6, 11.44 7.92 C11.33 8.24, 11.18 8.55, 11.01 8.85 C10.84 9.15, 10.64 9.43, 10.42 9.69 C10.2 9.95, 9.95 10.2, 9.69 10.42 C9.43 10.64, 9.15 10.84, 8.85 11.01 C8.55 11.18, 8.24 11.33, 7.92 11.44 C7.6 11.56, 7.26 11.65, 6.92 11.71 C6.59 11.77, 6.24 11.8, 5.9 11.8 C5.56 11.8, 5.21 11.77, 4.88 11.71 C4.54 11.65, 4.2 11.56, 3.88 11.44 C3.56 11.33, 3.25 11.18, 2.95 11.01 C2.65 10.84, 2.37 10.64, 2.11 10.42 C1.85 10.2, 1.6 9.95, 1.38 9.69 C1.16 9.43, 0.96 9.15, 0.79 8.85 C0.62 8.55, 0.47 8.24, 0.36 7.92 C0.24 7.6, 0.15 7.26, 0.09 6.92 C0.03 6.59, 0 6.24, 0 5.9 C0 5.56, 0.03 5.21, 0.09 4.88 C0.15 4.54, 0.24 4.2, 0.36 3.88 C0.47 3.56, 0.62 3.25, 0.79 2.95 C0.96 2.65, 1.16 2.37, 1.38 2.11 C1.6 1.85, 1.85 1.6, 2.11 1.38 C2.37 1.16, 2.65 0.96, 2.95 0.79 C3.25 0.62, 3.56 0.47, 3.88 0.36 C4.2 0.24, 4.54 0.15, 4.88 0.09 C5.21 0.03, 5.56 0, 5.9 0 C6.24 0, 6.59 0.03, 6.92 0.09 C7.26 0.15, 7.6 0.24, 7.92 0.36 C8.24 0.47, 8.55 0.62, 8.85 0.79 C9.15 0.96, 9.43 1.16, 9.69 1.38 C9.95 1.6, 10.2 1.85, 10.42 2.11 C10.64 2.37, 10.84 2.65, 11.01 2.95 C11.18 3.25, 11.33 3.56, 11.44 3.88 C11.56 4.2, 11.65 4.54, 11.71 4.88 C11.77 5.21, 11.79 5.73, 11.8 5.9 C11.82 6.07, 11.82 5.73, 11.8 5.9" stroke="#e03131" stroke-width="1" fill="none"></path></g><g transform="translate(345.4788348937873 298.83548544835867) rotate(0 4.44921875 9.199999999999818)"><text x="0" y="14.720312499999999" font-family="Helvetica, Segoe UI Emoji" font-size="16px" fill="#e03131" text-anchor="start" style="white-space: pre;" direction="ltr" dominant-baseline="alphabetic">4</text></g><g stroke-linecap="round" transform="translate(297.66229624456355 10) rotate(0 33.00458836252483 32.988525390625)"><path d="M28.84 0.43 C34.96 -0.91, 43.63 -0.05, 49.16 3.17 C54.7 6.39, 59.37 13.85, 62.05 19.75 C64.73 25.64, 66.3 32.35, 65.26 38.55 C64.21 44.76, 60.39 52.32, 55.78 57 C51.17 61.67, 44.13 65.64, 37.59 66.6 C31.05 67.56, 22.31 66.16, 16.55 62.76 C10.79 59.35, 5.56 52.06, 3.03 46.18 C0.5 40.29, 0.01 33.64, 1.36 27.46 C2.71 21.28, 5.61 13.76, 11.14 9.09 C16.67 4.42, 29.94 0.83, 34.56 -0.58 C39.19 -1.99, 39.03 0.12, 38.87 0.62 M20.26 1.54 C25.75 -1.61, 34.34 -2.08, 40.74 -0.31 C47.14 1.46, 54.47 7.11, 58.65 12.18 C62.83 17.24, 65.43 23.73, 65.84 30.08 C66.25 36.44, 64.48 44.7, 61.11 50.32 C57.73 55.95, 51.28 61.14, 45.61 63.85 C39.93 66.56, 33.19 67.9, 27.03 66.59 C20.88 65.27, 13.15 61.02, 8.66 55.97 C4.17 50.91, 1.05 42.65, 0.1 36.28 C-0.85 29.9, -0.41 23.15, 2.96 17.72 C6.34 12.29, 17.56 6.09, 20.34 3.71 C23.13 1.32, 19.58 2.96, 19.67 3.41" stroke="none" stroke-width="0" fill="#fff"></path><path d="M19.51 2.39 C25.14 -0.63, 34.83 -1.31, 41.18 0.25 C47.53 1.81, 53.62 6.81, 57.62 11.75 C61.63 16.7, 64.56 23.55, 65.21 29.93 C65.86 36.3, 64.74 44.27, 61.5 49.99 C58.26 55.7, 51.91 61.55, 45.78 64.23 C39.66 66.92, 31.11 67.76, 24.75 66.11 C18.39 64.46, 11.83 59.3, 7.62 54.33 C3.42 49.35, 0.08 42.55, -0.49 36.27 C-1.06 29.99, 0.24 22.61, 4.21 16.66 C8.18 10.71, 19.3 3.02, 23.32 0.56 C27.33 -1.9, 28.12 1.21, 28.31 1.9 M18.02 1.51 C23.69 -1.28, 33.46 0, 39.77 1.61 C46.09 3.23, 51.5 6.84, 55.91 11.21 C60.33 15.58, 65.08 21.39, 66.28 27.83 C67.47 34.27, 66.22 44.2, 63.06 49.84 C59.9 55.48, 53.32 59.03, 47.33 61.69 C41.35 64.36, 33.44 66.92, 27.15 65.86 C20.86 64.8, 14.2 60.14, 9.61 55.32 C5.02 50.51, 0.63 43.59, -0.38 36.98 C-1.38 30.37, 0.04 21.41, 3.56 15.65 C7.09 9.89, 18.3 4.5, 20.76 2.4 C23.22 0.31, 18.55 2.65, 18.33 3.08" stroke="#000000" stroke-width="1" fill="none"></path></g><g stroke-linecap="round" transform="translate(311.51345663059146 15.2129863664195) rotate(0 40.130859375 40.111328125)"><path d="M22.33 3.46 C28.42 -0.2, 37.68 -0.86, 44.97 0.23 C52.26 1.32, 60.59 5.26, 66.05 9.99 C71.52 14.73, 75.64 22.07, 77.77 28.66 C79.89 35.25, 80.44 42.58, 78.81 49.53 C77.18 56.48, 73.18 65.33, 67.98 70.37 C62.78 75.42, 54.83 78.79, 47.62 79.8 C40.41 80.81, 31.62 79.39, 24.74 76.42 C17.87 73.46, 10.56 68.01, 6.35 61.99 C2.15 55.96, -0.25 47.3, -0.48 40.26 C-0.71 33.23, 0.19 26.05, 4.95 19.76 C9.71 13.48, 23.43 5.49, 28.06 2.55 C32.7 -0.39, 32.68 1.44, 32.76 2.12 M58.68 6 C64.79 8.79, 70.54 15.33, 74.22 21.69 C77.89 28.06, 81.07 37, 80.75 44.18 C80.42 51.37, 76.7 59.27, 72.26 64.78 C67.82 70.28, 61.07 74.62, 54.09 77.2 C47.1 79.78, 37.22 81.59, 30.35 80.27 C23.47 78.94, 17.73 74.53, 12.84 69.24 C7.96 63.95, 2.71 55.63, 1.03 48.52 C-0.65 41.41, 0.37 33.25, 2.76 26.58 C5.15 19.9, 9.73 12.64, 15.4 8.47 C21.06 4.3, 29.2 2.1, 36.73 1.57 C44.26 1.03, 56.99 4.54, 60.58 5.27 C64.16 6, 58.63 5.54, 58.23 5.94" stroke="none" stroke-width="0" fill="#fff"></path><path d="M51.52 0.83 C58.35 2.22, 65.12 8.29, 69.71 13.74 C74.3 19.19, 77.83 26.47, 79.06 33.53 C80.3 40.6, 79.9 49.34, 77.1 56.14 C74.3 62.94, 68.46 70.16, 62.27 74.33 C56.09 78.5, 47.28 81.23, 40 81.16 C32.71 81.08, 24.68 77.78, 18.58 73.88 C12.47 69.99, 6.48 64.14, 3.36 57.79 C0.24 51.44, -1.01 43.11, -0.12 35.77 C0.76 28.44, 3.94 19.28, 8.66 13.78 C13.39 8.27, 20.8 4.61, 28.22 2.74 C35.64 0.86, 48.69 2.43, 53.18 2.51 C57.67 2.6, 55.31 2.79, 55.15 3.24 M19.94 5.17 C25.8 1.07, 36.33 -1.9, 44 -1.27 C51.66 -0.65, 60.17 4.51, 65.93 8.93 C71.68 13.36, 76.21 18.49, 78.54 25.28 C80.88 32.07, 81.53 42.42, 79.95 49.69 C78.37 56.96, 74.46 63.89, 69.07 68.89 C63.67 73.88, 54.92 78.41, 47.56 79.66 C40.2 80.92, 31.31 79.16, 24.9 76.4 C18.5 73.65, 13.49 68.9, 9.14 63.16 C4.79 57.42, -0.31 49.24, -1.19 41.96 C-2.06 34.67, 0.16 25.56, 3.92 19.45 C7.67 13.34, 18.43 7.67, 21.34 5.27 C24.25 2.88, 21.08 4.59, 21.36 5.07" stroke="#000000" stroke-width="1" fill="none"></path></g><g stroke-linecap="round" transform="translate(342.37331991184146 14.504739200368931) rotate(0 40.130859375 40.111328125)"><path d="M56.02 3.16 C62.66 5.58, 69.82 12.3, 73.76 18.43 C77.71 24.55, 79.6 32.98, 79.69 39.92 C79.79 46.86, 77.86 53.9, 74.34 60.05 C70.81 66.19, 64.89 73.46, 58.53 76.8 C52.18 80.14, 43.45 81.15, 36.19 80.1 C28.93 79.05, 20.78 75.23, 14.97 70.5 C9.16 65.77, 3.69 58.66, 1.33 51.73 C-1.02 44.79, -0.96 35.72, 0.85 28.92 C2.66 22.12, 6.76 15.55, 12.21 10.93 C17.65 6.32, 26.19 2.27, 33.53 1.22 C40.87 0.16, 52.24 3.79, 56.24 4.6 C60.24 5.41, 57.48 5.59, 57.52 6.06 M50.35 2.48 C57.3 3.91, 66.14 9.69, 71.06 15.13 C75.97 20.56, 78.92 28.23, 79.83 35.09 C80.74 41.96, 79.73 49.7, 76.51 56.32 C73.29 62.94, 66.4 70.71, 60.51 74.82 C54.61 78.92, 48.16 81.14, 41.16 80.95 C34.16 80.76, 24.74 77.63, 18.52 73.67 C12.3 69.71, 6.99 63.67, 3.86 57.19 C0.74 50.71, -1.14 41.8, -0.23 34.82 C0.68 27.83, 4.28 20.76, 9.33 15.29 C14.39 9.82, 23.2 4.22, 30.11 2.01 C37.01 -0.21, 47.11 2.04, 50.75 1.99 C54.4 1.94, 52.07 0.96, 51.98 1.7" stroke="none" stroke-width="0" fill="#fff"></path><path d="M34.02 0.97 C40.47 -0.51, 49.29 0.61, 55.94 3.51 C62.58 6.41, 69.88 12.16, 73.89 18.38 C77.9 24.6, 80.14 33.47, 79.99 40.83 C79.85 48.19, 76.95 56.68, 73.02 62.55 C69.1 68.43, 62.93 73.15, 56.43 76.08 C49.93 79, 41.15 80.92, 34.01 80.09 C26.88 79.26, 19.09 75.96, 13.6 71.09 C8.12 66.23, 3.07 57.78, 1.1 50.91 C-0.87 44.04, -0.26 36.68, 1.78 29.89 C3.82 23.1, 7.5 15.29, 13.35 10.17 C19.2 5.04, 32.22 0.86, 36.87 -0.84 C41.52 -2.54, 41.25 -0.88, 41.27 -0.04 M53.14 0.59 C60.3 2.21, 68.02 9.81, 72.61 15.44 C77.19 21.07, 79.95 27.19, 80.65 34.36 C81.35 41.54, 79.96 51.77, 76.8 58.47 C73.64 65.17, 68.1 70.91, 61.67 74.57 C55.25 78.24, 45.76 80.87, 38.26 80.45 C30.76 80.03, 22.27 76.28, 16.66 72.04 C11.04 67.81, 7.45 61.6, 4.56 55.03 C1.68 48.47, -1.45 39.83, -0.64 32.65 C0.16 25.46, 4.29 17.04, 9.41 11.91 C14.52 6.79, 22.89 3.6, 30.04 1.9 C37.18 0.2, 48.59 1.57, 52.28 1.71 C55.98 1.84, 52.31 1.98, 52.2 2.73" stroke="#000000" stroke-width="1" fill="none"></path></g><g stroke-linecap="round" transform="translate(379.21706991184146 14.504739200368931) rotate(0 40.130859375 40.111328125)"><path d="M28.41 2.77 C34.67 0.3, 43.12 0.65, 50.01 2.24 C56.9 3.83, 64.67 6.99, 69.75 12.31 C74.83 17.63, 79.16 26.86, 80.49 34.16 C81.82 41.46, 80.66 49.67, 77.73 56.1 C74.8 62.53, 69.11 68.85, 62.89 72.76 C56.68 76.66, 47.8 79.41, 40.43 79.52 C33.07 79.63, 24.92 77.01, 18.71 73.43 C12.49 69.84, 6.2 64.28, 3.15 58.03 C0.11 51.78, -0.41 43.06, 0.44 35.94 C1.29 28.82, 2.95 21.06, 8.26 15.32 C13.57 9.59, 27.17 3.94, 32.31 1.53 C37.45 -0.87, 38.79 0.45, 39.11 0.89 M55.3 4.01 C62.08 5.95, 68.45 11.67, 72.58 17.23 C76.71 22.79, 79.89 30.11, 80.08 37.38 C80.28 44.64, 77.12 54.32, 73.76 60.81 C70.39 67.3, 66.05 73.15, 59.89 76.33 C53.72 79.51, 44.11 80.58, 36.77 79.9 C29.43 79.23, 21.7 76.61, 15.85 72.29 C10 67.98, 4.23 60.64, 1.68 54 C-0.87 47.36, -1.39 39.51, 0.57 32.46 C2.53 25.41, 8.29 16.93, 13.44 11.72 C18.59 6.5, 24.48 2.76, 31.48 1.15 C38.49 -0.46, 51.66 1.5, 55.46 2.04 C59.27 2.58, 54.78 3.63, 54.31 4.41" stroke="none" stroke-width="0" fill="#fff"></path><path d="M28.41 1.53 C34.91 -0.97, 44.81 -0.4, 51.8 1.84 C58.79 4.09, 65.84 9.35, 70.36 14.98 C74.87 20.61, 77.97 28.67, 78.9 35.6 C79.83 42.53, 78.93 50.14, 75.95 56.58 C72.96 63.02, 67.07 70.21, 60.98 74.24 C54.9 78.26, 46.68 80.95, 39.46 80.74 C32.23 80.54, 23.59 76.89, 17.63 73 C11.68 69.11, 6.65 63.84, 3.74 57.4 C0.82 50.97, -0.78 41.81, 0.12 34.37 C1.01 26.93, 3.19 18.57, 9.11 12.74 C15.04 6.91, 30.31 1.35, 35.69 -0.61 C41.07 -2.57, 41.21 0.35, 41.38 1 M48.34 1.21 C55.23 1.85, 62.7 4.4, 67.93 9.28 C73.15 14.16, 77.79 23.27, 79.67 30.49 C81.55 37.71, 81.68 45.76, 79.22 52.59 C76.76 59.41, 70.79 67.06, 64.92 71.44 C59.04 75.82, 50.8 78.18, 43.96 78.86 C37.11 79.54, 30.42 78.61, 23.84 75.52 C17.26 72.43, 8.67 66.56, 4.49 60.3 C0.31 54.04, -1.65 44.99, -1.23 37.95 C-0.81 30.91, 2.77 23.91, 7 18.06 C11.24 12.21, 17.53 5.77, 24.17 2.85 C30.8 -0.07, 42.98 0.74, 46.81 0.56 C50.63 0.38, 47.43 1.31, 47.12 1.77" stroke="#000000" stroke-width="1" fill="none"></path></g><g stroke-linecap="round" transform="translate(423.95535116184146 14.504739200368931) rotate(0 40.130859375 40.111328125)"><path d="M38.79 0.87 C45.55 -0.12, 54.67 1.34, 61.05 5.09 C67.43 8.85, 73.81 16.71, 77.08 23.39 C80.35 30.07, 81.65 38.23, 80.69 45.19 C79.72 52.16, 76.13 59.76, 71.28 65.18 C66.43 70.59, 58.62 75.55, 51.59 77.68 C44.55 79.8, 36.11 79.62, 29.09 77.9 C22.07 76.19, 14.2 72.51, 9.47 67.4 C4.73 62.29, 1.86 54.31, 0.68 47.24 C-0.51 40.16, -0.39 31.55, 2.35 24.96 C5.09 18.36, 10.14 11.82, 17.13 7.68 C24.13 3.55, 39.21 1.27, 44.29 0.16 C49.38 -0.96, 47.75 0.46, 47.65 1 M51.36 2.28 C58 3.38, 65.78 7.83, 70.31 13.34 C74.84 18.84, 77.31 27.95, 78.54 35.31 C79.78 42.66, 80.47 51.07, 77.71 57.46 C74.94 63.85, 68.18 69.79, 61.97 73.66 C55.76 77.53, 47.78 80.55, 40.42 80.66 C33.07 80.77, 24.04 78.05, 17.83 74.32 C11.62 70.59, 5.86 64.86, 3.16 58.28 C0.47 51.7, 0.68 42.18, 1.66 34.84 C2.65 27.5, 4.42 19.89, 9.07 14.24 C13.71 8.59, 22.49 2.89, 29.52 0.93 C36.56 -1.02, 47.78 2.25, 51.28 2.53 C54.78 2.82, 50.71 2.05, 50.54 2.65" stroke="none" stroke-width="0" fill="#fff"></path><path d="M50.8 1.56 C57.64 2.98, 65.01 8.7, 69.67 14.2 C74.33 19.7, 77.63 27.66, 78.74 34.57 C79.86 41.48, 79.19 49.11, 76.38 55.63 C73.56 62.14, 67.84 69.48, 61.86 73.67 C55.88 77.85, 47.72 80.75, 40.5 80.74 C33.28 80.72, 24.57 77.29, 18.51 73.56 C12.46 69.82, 7.26 64.71, 4.18 58.35 C1.09 51.99, -0.73 42.87, -0.02 35.4 C0.69 27.93, 3.75 19.27, 8.44 13.54 C13.12 7.8, 20.7 2.84, 28.09 1 C35.47 -0.84, 47.92 2.1, 52.73 2.5 C57.55 2.89, 56.96 2.68, 56.96 3.34 M22.52 3.08 C28.28 -0.56, 37.58 -0.2, 44.82 0.74 C52.07 1.68, 60.55 4.28, 66 8.73 C71.45 13.17, 75.45 20.74, 77.52 27.39 C79.58 34.04, 79.78 41.74, 78.38 48.62 C76.99 55.5, 74.5 63.61, 69.16 68.68 C63.81 73.75, 53.87 77.76, 46.31 79.04 C38.76 80.31, 30.31 78.84, 23.82 76.31 C17.32 73.78, 11.35 69.66, 7.33 63.86 C3.3 58.07, 0.01 48.89, -0.34 41.56 C-0.68 34.23, 1.51 26.01, 5.25 19.88 C9 13.75, 19.53 7.44, 22.14 4.77 C24.74 2.11, 20.42 3.39, 20.89 3.87" stroke="#000000" stroke-width="1" fill="none"></path></g><g stroke-linecap="round" transform="translate(470.73269491184146 14.504739200368931) rotate(0 40.130859375 40.111328125)"><path d="M57.14 2.97 C63.81 5.36, 70.96 13.2, 74.93 19.49 C78.91 25.79, 81.15 33.73, 80.99 40.75 C80.82 47.77, 78.14 55.72, 73.93 61.61 C69.73 67.5, 62.5 73.23, 55.75 76.11 C49 78.98, 40.63 79.76, 33.44 78.83 C26.25 77.91, 17.92 75.08, 12.62 70.54 C7.32 66, 3.61 58.48, 1.64 51.58 C-0.33 44.68, -1.18 36, 0.81 29.13 C2.8 22.26, 7.73 15.16, 13.58 10.36 C19.43 5.57, 27.66 1.04, 35.9 0.37 C44.15 -0.29, 57.81 4.71, 63.07 6.38 C68.33 8.05, 67.82 9.7, 67.44 10.39 M56.44 3.04 C62.73 5.38, 68.3 12.89, 72.44 19.15 C76.59 25.4, 81.03 33.53, 81.31 40.57 C81.6 47.61, 78.14 55.34, 74.14 61.4 C70.14 67.46, 63.98 73.77, 57.29 76.92 C50.61 80.07, 41.33 81.1, 34.04 80.29 C26.76 79.48, 18.75 76.77, 13.57 72.06 C8.39 67.36, 5.08 59.17, 2.96 52.06 C0.84 44.95, -1.06 36.56, 0.84 29.43 C2.75 22.3, 8.86 13.95, 14.39 9.27 C19.92 4.6, 27.11 2.29, 34.04 1.37 C40.96 0.45, 52.24 3.19, 55.93 3.78 C59.63 4.37, 56.25 4.47, 56.22 4.93" stroke="none" stroke-width="0" fill="#fff"></path><path d="M39.39 0.95 C46.07 0.44, 54.36 3.45, 60.44 7.06 C66.52 10.67, 72.72 16.17, 75.86 22.59 C79 29.02, 80.21 38.27, 79.29 45.6 C78.37 52.92, 75.01 61.18, 70.35 66.54 C65.68 71.9, 58.11 75.57, 51.3 77.74 C44.49 79.92, 36.41 81.39, 29.49 79.59 C22.57 77.79, 14.76 72.65, 9.78 66.95 C4.81 61.25, 0.68 52.7, -0.38 45.38 C-1.43 38.06, 0.54 29.46, 3.45 23.02 C6.35 16.58, 10.49 10.74, 17.07 6.75 C23.65 2.77, 38.24 0.01, 42.92 -0.89 C47.61 -1.78, 45.46 0.43, 45.16 1.4 M49.01 1.38 C55.9 2.45, 64.23 6.51, 69.17 11.52 C74.12 16.54, 77.34 24.61, 78.67 31.46 C80 38.32, 79.28 46.01, 77.15 52.67 C75.03 59.33, 71.77 66.94, 65.93 71.42 C60.09 75.91, 49.78 79.08, 42.12 79.6 C34.46 80.11, 26.16 77.74, 19.98 74.52 C13.81 71.3, 8.45 66.48, 5.07 60.28 C1.69 54.09, -0.72 44.65, -0.3 37.33 C0.12 30.01, 3.19 22.05, 7.57 16.34 C11.96 10.63, 19.44 5.84, 26 3.05 C32.56 0.26, 43.04 -0.11, 46.93 -0.39 C50.81 -0.67, 49.4 0.47, 49.33 1.37" stroke="#000000" stroke-width="1" fill="none"></path></g><g stroke-linecap="round" transform="translate(299.63104624456355 53.318158318015776) rotate(0 40.130859375 40.111328125)"><path d="M57.66 4.31 C64.28 6.84, 70.85 12.77, 74.67 18.65 C78.49 24.53, 80.81 32.51, 80.57 39.6 C80.34 46.69, 77.3 55.16, 73.24 61.18 C69.18 67.2, 62.85 72.55, 56.23 75.73 C49.6 78.9, 40.52 81.02, 33.47 80.24 C26.43 79.45, 19.41 75.7, 13.93 71.01 C8.46 66.32, 2.8 59.02, 0.64 52.12 C-1.51 45.22, -1.37 36.67, 1.01 29.61 C3.39 22.55, 9.24 14.71, 14.91 9.77 C20.59 4.83, 27.46 0.86, 35.08 -0.03 C42.7 -0.92, 55.98 3.11, 60.61 4.44 C65.23 5.78, 63.14 7.3, 62.83 8 M47.71 1.95 C54.73 3.12, 64.51 7.76, 69.82 12.73 C75.12 17.7, 78.18 24.74, 79.52 31.77 C80.86 38.8, 80.56 48.05, 77.85 54.9 C75.14 61.75, 69.2 68.42, 63.25 72.88 C57.3 77.33, 49.05 81.16, 42.15 81.61 C35.25 82.05, 28.19 79.23, 21.84 75.53 C15.49 71.82, 7.52 65.93, 4.03 59.37 C0.54 52.82, 0.19 43.3, 0.87 36.18 C1.55 29.07, 3.95 22.29, 8.11 16.71 C12.27 11.12, 19.01 5.17, 25.82 2.67 C32.64 0.17, 45.03 1.93, 49.01 1.68 C52.99 1.43, 49.64 0.39, 49.7 1.17" stroke="none" stroke-width="0" fill="#fff"></path><path d="M42.1 1.05 C48.94 0.77, 57.84 3.4, 63.68 7.63 C69.51 11.86, 74.6 19.49, 77.14 26.42 C79.67 33.36, 80.45 42.35, 78.91 49.25 C77.36 56.15, 72.87 62.67, 67.85 67.82 C62.83 72.98, 55.81 78.51, 48.78 80.19 C41.76 81.86, 32.64 80.72, 25.69 77.88 C18.74 75.04, 11.36 69.14, 7.09 63.17 C2.83 57.19, 0.63 49.06, 0.11 42.02 C-0.41 34.98, 0.4 27.29, 3.98 20.94 C7.56 14.59, 14.22 7.22, 21.62 3.92 C29.01 0.61, 43.34 1.13, 48.34 1.1 C53.33 1.06, 51.7 3.02, 51.58 3.69 M24.11 3.8 C29.88 0.34, 38.05 -0.17, 44.95 0.61 C51.84 1.4, 59.62 3.94, 65.47 8.49 C71.31 13.05, 78 20.92, 80 27.94 C82 34.97, 79.9 43.74, 77.47 50.62 C75.04 57.51, 70.62 64.28, 65.4 69.24 C60.17 74.2, 53.13 79.19, 46.13 80.39 C39.12 81.58, 30 79.49, 23.37 76.43 C16.73 73.37, 10.19 67.96, 6.33 62.02 C2.48 56.08, 0.5 48.24, 0.25 40.81 C0 33.38, 0.82 23.68, 4.84 17.46 C8.86 11.24, 21.43 5.62, 24.39 3.5 C27.34 1.38, 22.52 3.99, 22.59 4.75" stroke="#000000" stroke-width="1" fill="none"></path></g><g stroke-linecap="round" transform="translate(297.66229624456355 101.15478515625) rotate(0 33.00458836252483 32.988525390625)"><path d="M46.97 2.29 C52.94 4.48, 59.47 11.94, 62.72 17.77 C65.97 23.61, 67.37 31.1, 66.47 37.3 C65.58 43.5, 62.01 50.42, 57.36 54.99 C52.7 59.56, 45.05 63.55, 38.56 64.7 C32.07 65.86, 24.32 64.49, 18.43 61.92 C12.54 59.35, 6.22 54.7, 3.21 49.29 C0.21 43.89, -0.39 35.82, 0.41 29.47 C1.21 23.12, 3.71 15.84, 8.01 11.18 C12.3 6.51, 18.74 2.34, 26.2 1.47 C33.67 0.59, 47.82 4.59, 52.81 5.91 C57.8 7.23, 56.49 9.07, 56.14 9.4 M42.24 2 C48.14 3, 55.26 7.18, 59 12.34 C62.75 17.5, 64.3 26.3, 64.69 32.96 C65.08 39.62, 64.73 47.15, 61.32 52.3 C57.91 57.46, 50.46 61.75, 44.24 63.88 C38.01 66.01, 30.32 66.8, 23.99 65.09 C17.66 63.37, 10.33 58.54, 6.25 53.6 C2.17 48.66, -0.59 41.9, -0.47 35.43 C-0.34 28.96, 3.39 20.31, 7 14.79 C10.6 9.26, 15.17 4.65, 21.17 2.29 C27.17 -0.07, 39.54 0.52, 43.01 0.62 C46.48 0.72, 42.35 2.19, 41.97 2.88" stroke="none" stroke-width="0" fill="#fff"></path><path d="M47.42 3.18 C53.16 5.45, 58.83 12.35, 61.79 18.27 C64.75 24.19, 66.19 32.46, 65.18 38.68 C64.17 44.91, 60.21 50.98, 55.74 55.61 C51.28 60.23, 44.71 65.27, 38.37 66.43 C32.02 67.6, 23.62 65.83, 17.68 62.59 C11.74 59.36, 5.61 52.98, 2.73 47.04 C-0.14 41.1, -0.57 33.17, 0.42 26.96 C1.42 20.75, 4.03 14.37, 8.7 9.78 C13.38 5.2, 21.38 0.15, 28.49 -0.54 C35.6 -1.23, 47.36 4.11, 51.35 5.66 C55.35 7.21, 52.74 8.3, 52.46 8.78 M20 3.13 C25.16 0.08, 32.65 -0.19, 38.72 0.86 C44.79 1.9, 51.69 4.8, 56.44 9.39 C61.19 13.98, 66.52 21.89, 67.21 28.41 C67.91 34.92, 64.2 42.91, 60.61 48.5 C57.03 54.08, 51.35 59, 45.7 61.91 C40.04 64.83, 32.88 67.11, 26.68 65.99 C20.48 64.87, 12.92 60.02, 8.48 55.18 C4.04 50.35, 0.72 43.27, 0.04 36.97 C-0.64 30.66, 1.45 23.23, 4.39 17.38 C7.34 11.53, 15.01 4.19, 17.7 1.86 C20.39 -0.46, 20.24 2.68, 20.55 3.43" stroke="#000000" stroke-width="1" fill="none"></path></g><g stroke-linecap="round" transform="translate(334.73660116184146 86.18930951286893) rotate(0 40.130859375 40.111328125)"><path d="M53.28 1.5 C59.75 3.03, 66.5 8.78, 70.88 14.38 C75.26 19.98, 78.86 27.71, 79.56 35.08 C80.26 42.46, 78.24 51.95, 75.08 58.65 C71.93 65.36, 66.86 71.62, 60.61 75.34 C54.36 79.06, 44.93 81.23, 37.57 80.98 C30.21 80.73, 22.06 78.12, 16.46 73.85 C10.86 69.57, 6.52 62.25, 3.99 55.34 C1.45 48.43, -0.03 39.63, 1.24 32.4 C2.51 25.16, 6.67 17.05, 11.62 11.91 C16.57 6.78, 23.19 2.94, 30.94 1.59 C38.69 0.24, 53.04 2.98, 58.11 3.82 C63.18 4.67, 61.84 6.2, 61.36 6.66 M52.74 1.83 C59.31 3.38, 67.07 9.53, 71.51 15.24 C75.95 20.95, 78.69 28.73, 79.37 36.08 C80.05 43.44, 78.51 52.9, 75.61 59.37 C72.72 65.84, 68.26 71.37, 62.02 74.9 C55.78 78.44, 45.49 80.97, 38.17 80.56 C30.86 80.15, 23.99 76.46, 18.13 72.46 C12.27 68.46, 6.04 63.05, 3.01 56.55 C-0.02 50.04, -1.29 40.59, -0.02 33.43 C1.25 26.27, 5.48 19.06, 10.63 13.6 C15.78 8.14, 23.69 2.38, 30.89 0.68 C38.09 -1.01, 50.15 3.21, 53.82 3.43 C57.49 3.66, 53.23 1.84, 52.9 2.02" stroke="none" stroke-width="0" fill="#fff"></path><path d="M57.77 4.64 C64.17 7.43, 70.76 14.38, 74.4 20.46 C78.04 26.55, 79.85 33.89, 79.63 41.17 C79.42 48.45, 77.24 58.07, 73.11 64.13 C68.98 70.19, 61.72 75.11, 54.84 77.52 C47.96 79.93, 38.86 80.14, 31.81 78.61 C24.76 77.09, 17.82 73.17, 12.55 68.37 C7.28 63.58, 1.81 56.86, 0.19 49.83 C-1.44 42.79, 0.24 32.98, 2.8 26.17 C5.36 19.36, 10.16 13.16, 15.56 8.98 C20.97 4.8, 27.86 1.68, 35.24 1.08 C42.63 0.48, 55.88 4.44, 59.87 5.38 C63.87 6.32, 59.56 6.11, 59.23 6.72 M39.99 -1.1 C47.21 -1.7, 57.82 2.01, 63.75 6.11 C69.69 10.21, 73.15 16.93, 75.62 23.48 C78.08 30.03, 79.44 38.08, 78.52 45.41 C77.59 52.73, 74.73 61.92, 70.06 67.43 C65.39 72.93, 57.51 76.63, 50.51 78.46 C43.51 80.29, 34.88 80.42, 28.07 78.4 C21.27 76.38, 14.53 72.06, 9.68 66.33 C4.83 60.6, -0.27 51.3, -1.03 44.03 C-1.8 36.75, 1.9 28.96, 5.07 22.68 C8.25 16.39, 12.07 10, 17.99 6.33 C23.92 2.67, 36.64 1.74, 40.64 0.68 C44.65 -0.38, 41.8 -0.55, 42.01 -0.03" stroke="#000000" stroke-width="1" fill="none"></path></g><g stroke-linecap="round" transform="translate(371.58035116184146 86.18930951286893) rotate(0 40.130859375 40.111328125)"><path d="M42.53 -0.58 C49.29 -0.68, 58.07 2.64, 63.8 7.18 C69.53 11.72, 74.31 19.62, 76.92 26.66 C79.53 33.7, 81.04 42.3, 79.46 49.42 C77.88 56.54, 72.71 64.23, 67.45 69.36 C62.18 74.5, 54.63 78.84, 47.88 80.22 C41.13 81.61, 33.54 80.45, 26.97 77.68 C20.41 74.91, 12.85 69.54, 8.49 63.61 C4.14 57.68, 1.33 49.17, 0.84 42.09 C0.35 35.01, 2.04 27.36, 5.55 21.15 C9.05 14.94, 14.05 8.06, 21.87 4.82 C29.68 1.58, 46.16 1.65, 52.43 1.71 C58.71 1.78, 59.69 4.46, 59.52 5.22 M50.01 1.61 C56.69 2.81, 63.81 7.57, 68.66 13 C73.5 18.42, 77.43 27.06, 79.09 34.16 C80.74 41.25, 81.34 49.06, 78.58 55.57 C75.82 62.09, 68.55 69.26, 62.56 73.25 C56.56 77.23, 49.73 79.08, 42.61 79.48 C35.48 79.89, 26.27 79.16, 19.8 75.68 C13.32 72.2, 7.02 65.08, 3.76 58.6 C0.49 52.12, -0.78 44.15, 0.19 36.81 C1.16 29.47, 4.86 20.1, 9.55 14.57 C14.25 9.03, 21.57 5.94, 28.36 3.59 C35.15 1.23, 46.67 0.93, 50.28 0.44 C53.89 -0.05, 50.45 -0.37, 50.01 0.64" stroke="none" stroke-width="0" fill="#fff"></path><path d="M31.22 1.43 C37.83 -0.73, 46.73 -0.76, 53.61 1.83 C60.49 4.42, 68.13 11.02, 72.5 16.97 C76.87 22.92, 79.5 30.6, 79.83 37.51 C80.16 44.43, 77.89 52.3, 74.48 58.46 C71.06 64.63, 65.71 70.85, 59.34 74.48 C52.97 78.11, 43.36 80.79, 36.25 80.25 C29.14 79.71, 22.25 75.56, 16.68 71.25 C11.12 66.94, 5.64 60.88, 2.86 54.41 C0.08 47.94, -1.57 39.47, -0.02 32.43 C1.54 25.38, 6.53 17.41, 12.19 12.14 C17.86 6.87, 29.61 2.6, 33.99 0.82 C38.38 -0.95, 38.29 0.96, 38.53 1.47 M44.9 -0.43 C51.7 -0.32, 58 3.46, 63.29 7.79 C68.58 12.12, 73.99 18.56, 76.64 25.55 C79.3 32.53, 80.7 42.55, 79.22 49.7 C77.75 56.86, 73.01 63.56, 67.8 68.5 C62.6 73.44, 54.99 77.79, 48.01 79.36 C41.03 80.93, 32.87 80.72, 25.93 77.92 C18.99 75.12, 10.47 68.5, 6.37 62.55 C2.26 56.61, 1.64 49.23, 1.28 42.26 C0.92 35.29, 0.88 26.91, 4.21 20.76 C7.53 14.61, 14.48 8.94, 21.24 5.37 C28.01 1.79, 40.87 0.07, 44.77 -0.7 C48.68 -1.46, 45.17 -0.23, 44.68 0.77" stroke="#000000" stroke-width="1" fill="none"></path></g><g stroke-linecap="round" transform="translate(416.31863241184146 86.18930951286893) rotate(0 40.130859375 40.111328125)"><path d="M27.74 0.89 C34.09 -1.49, 42.91 -0.3, 49.99 1.89 C57.06 4.08, 65.4 8.58, 70.2 14.03 C75 19.47, 77.8 27.4, 78.8 34.58 C79.81 41.76, 78.82 50.6, 76.24 57.1 C73.67 63.59, 69.16 69.77, 63.34 73.55 C57.52 77.33, 48.59 79.81, 41.32 79.79 C34.05 79.78, 25.84 77.12, 19.7 73.44 C13.56 69.76, 7.54 64.13, 4.46 57.72 C1.37 51.31, 0.27 42.24, 1.17 34.99 C2.07 27.75, 4.42 20.14, 9.85 14.24 C15.28 8.34, 28.62 1.71, 33.76 -0.41 C38.89 -2.53, 40.44 0.69, 40.68 1.5 M37.22 0.5 C43.93 -0.28, 52.79 3.11, 59.4 6.66 C66.02 10.21, 73.56 15.59, 76.9 21.8 C80.23 28.01, 80.12 36.91, 79.41 43.93 C78.7 50.95, 76.96 58.11, 72.64 63.92 C68.32 69.74, 60.52 76.23, 53.48 78.82 C46.44 81.41, 37.42 81.12, 30.39 79.44 C23.37 77.76, 16.12 74.07, 11.33 68.74 C6.54 63.4, 2.88 54.41, 1.65 47.45 C0.42 40.48, 1.36 33.73, 3.93 26.97 C6.5 20.22, 11.35 11.61, 17.08 6.91 C22.81 2.21, 35.02 -0.48, 38.3 -1.24 C41.57 -2.01, 36.67 1.23, 36.73 2.32" stroke="none" stroke-width="0" fill="#fff"></path><path d="M44.42 -0.42 C51.41 -0.09, 60.37 5.34, 65.98 10.11 C71.59 14.89, 76.06 21.63, 78.06 28.22 C80.07 34.82, 79.84 42.89, 78.01 49.69 C76.18 56.49, 72.44 63.99, 67.06 69.01 C61.67 74.03, 52.73 78.65, 45.7 79.82 C38.67 80.98, 31.29 78.83, 24.87 76 C18.45 73.16, 11.48 68.51, 7.18 62.82 C2.88 57.13, -0.79 49.05, -0.94 41.84 C-1.08 34.63, 2.54 25.79, 6.33 19.56 C10.12 13.33, 14.96 7.51, 21.82 4.46 C28.68 1.41, 42.95 1.74, 47.49 1.24 C52.04 0.73, 49.24 0.96, 49.09 1.44 M24.46 2.19 C30.22 -0.87, 39.71 -1.8, 47 -0.15 C54.29 1.5, 62.87 6.9, 68.18 12.07 C73.5 17.24, 77.29 23.94, 78.88 30.87 C80.46 37.81, 80.02 46.78, 77.67 53.69 C75.32 60.61, 70.71 68.16, 64.77 72.36 C58.83 76.55, 49.1 78.38, 42.05 78.86 C35 79.35, 28.79 78.41, 22.48 75.26 C16.17 72.12, 7.93 66.13, 4.19 59.98 C0.45 53.82, -0.8 45.75, 0.02 38.35 C0.83 30.95, 4.58 21.55, 9.07 15.58 C13.57 9.61, 24.4 4.34, 27 2.51 C29.61 0.68, 24.53 3.76, 24.71 4.59" stroke="#000000" stroke-width="1" fill="none"></path></g><g stroke-linecap="round" transform="translate(463.09597616184146 86.18930951286893) rotate(0 40.130859375 40.111328125)"><path d="M25.63 2.83 C32 0.22, 42.17 -0.02, 49.2 1.65 C56.24 3.31, 62.9 7.62, 67.83 12.82 C72.76 18.03, 76.99 25.91, 78.78 32.87 C80.58 39.82, 80.98 48.01, 78.59 54.54 C76.19 61.07, 70.3 67.89, 64.43 72.04 C58.55 76.18, 50.55 78.83, 43.34 79.41 C36.12 79.99, 27.41 78.92, 21.11 75.51 C14.82 72.1, 8.98 65.42, 5.56 58.96 C2.14 52.5, 0.18 44.12, 0.58 36.77 C0.97 29.43, 3.18 20.61, 7.93 14.88 C12.69 9.16, 25.24 4.57, 29.11 2.43 C32.99 0.28, 31.12 1.47, 31.18 2.02 M45.45 1.88 C52.65 2.31, 62.33 5.69, 67.74 10.25 C73.16 14.81, 76.02 22.5, 77.96 29.26 C79.89 36.02, 81.31 43.78, 79.35 50.8 C77.4 57.83, 71.93 66.53, 66.23 71.41 C60.52 76.29, 52.27 79.12, 45.12 80.09 C37.98 81.07, 29.69 80.41, 23.36 77.25 C17.04 74.08, 10.87 67.07, 7.18 61.11 C3.48 55.14, 1.23 48.7, 1.19 41.45 C1.15 34.2, 3.14 24.14, 6.94 17.61 C10.74 11.08, 17.68 4.9, 23.98 2.28 C30.28 -0.34, 41.02 1.85, 44.76 1.88 C48.49 1.9, 46.32 2.17, 46.39 2.43" stroke="none" stroke-width="0" fill="#fff"></path><path d="M50.69 2.22 C57.51 3.6, 64.77 8.27, 69.47 13.32 C74.16 18.36, 77.58 25.56, 78.84 32.51 C80.11 39.45, 79.91 48.18, 77.05 55 C74.2 61.82, 67.57 69.39, 61.69 73.43 C55.81 77.48, 48.78 79.05, 41.77 79.27 C34.76 79.48, 26.07 78.16, 19.63 74.71 C13.19 71.25, 6.27 65.04, 3.11 58.56 C-0.05 52.08, -0.17 43.06, 0.69 35.82 C1.55 28.57, 3.69 20.63, 8.28 15.09 C12.87 9.54, 20.65 4.73, 28.23 2.54 C35.8 0.36, 49 1.75, 53.74 1.97 C58.48 2.2, 57.03 3.05, 56.68 3.9 M31.31 -0.26 C38.15 -1.92, 48.19 0.7, 55.04 3.5 C61.9 6.3, 68.29 10.78, 72.46 16.56 C76.62 22.34, 79.57 30.85, 80.01 38.19 C80.46 45.52, 78.94 54.51, 75.13 60.57 C71.31 66.63, 63.41 71.35, 57.14 74.55 C50.87 77.75, 44.63 80.23, 37.5 79.79 C30.38 79.34, 20.28 76.22, 14.38 71.9 C8.49 67.58, 4.13 60.9, 2.14 53.89 C0.15 46.87, 0.52 36.97, 2.46 29.8 C4.39 22.64, 8.94 15.55, 13.74 10.9 C18.55 6.25, 27.95 3.27, 31.27 1.89 C34.59 0.5, 33.31 2.06, 33.68 2.6" stroke="#000000" stroke-width="1" fill="none"></path></g><g stroke-linecap="round" transform="translate(500.57733530706355 10) rotate(0 33.00458836252483 32.988525390625)"><path d="M22.73 0.57 C28.42 -1.48, 36.53 -0.15, 42.76 2.19 C48.99 4.53, 56.39 9.26, 60.11 14.6 C63.82 19.93, 65.26 27.71, 65.05 34.21 C64.83 40.72, 62.35 48.56, 58.8 53.62 C55.26 58.67, 49.76 62.83, 43.79 64.53 C37.81 66.23, 29.13 66.01, 22.96 63.8 C16.8 61.59, 10.53 56.43, 6.79 51.28 C3.06 46.14, 0.47 39.28, 0.57 32.94 C0.67 26.6, 2.67 18.68, 7.41 13.23 C12.14 7.78, 24.59 2.47, 28.95 0.23 C33.32 -2.01, 33.48 -0.87, 33.58 -0.2 M41.18 1.4 C47.12 2.54, 53.56 7.06, 57.61 12.17 C61.65 17.29, 64.66 25.65, 65.44 32.09 C66.22 38.53, 65.74 45.5, 62.29 50.81 C58.83 56.11, 50.8 61.66, 44.72 63.91 C38.64 66.16, 32 65.77, 25.82 64.31 C19.65 62.85, 12.04 59.94, 7.65 55.16 C3.25 50.38, -0.09 42.1, -0.54 35.62 C-0.98 29.13, 1.31 21.88, 4.97 16.25 C8.64 10.62, 15.25 4.13, 21.44 1.82 C27.63 -0.49, 38.81 2.56, 42.12 2.4 C45.42 2.24, 41.54 0.79, 41.29 0.87" stroke="none" stroke-width="0" fill="#fff"></path><path d="M21.07 2.33 C26.48 -0.54, 34.63 -1.26, 40.92 0.28 C47.21 1.81, 54.8 6.33, 58.82 11.55 C62.83 16.78, 64.61 25.19, 65 31.63 C65.4 38.07, 64.53 44.78, 61.19 50.21 C57.85 55.63, 51.27 61.61, 44.96 64.19 C38.64 66.77, 29.51 67.38, 23.29 65.68 C17.07 63.97, 11.64 59.11, 7.62 53.99 C3.6 48.87, -0.54 41.38, -0.84 34.96 C-1.14 28.53, 1.68 21.13, 5.81 15.45 C9.94 9.77, 20.45 3.32, 23.95 0.88 C27.44 -1.55, 26.77 0.07, 26.79 0.82 M25.53 -0.39 C31.68 -1.8, 40.99 0.88, 46.99 3.74 C52.99 6.59, 58.44 11.21, 61.53 16.76 C64.62 22.31, 66.25 30.51, 65.55 37.04 C64.85 43.57, 61.96 51.41, 57.35 55.93 C52.73 60.45, 44.06 63.05, 37.87 64.16 C31.68 65.27, 25.98 65.1, 20.2 62.6 C14.42 60.11, 6.51 54.7, 3.18 49.19 C-0.15 43.69, -0.98 36.17, 0.2 29.58 C1.37 22.98, 5.59 14.47, 10.24 9.61 C14.88 4.75, 25.5 1.62, 28.07 0.42 C30.63 -0.78, 25.56 1.66, 25.61 2.41" stroke="#000000" stroke-width="1" fill="none"></path></g><g stroke-linecap="round" transform="translate(489.25995249456355 53.108197380515776) rotate(0 40.130859375 40.111328125)"><path d="M47.87 1.74 C54.57 2.72, 62.57 7.75, 67.98 12.76 C73.4 17.76, 78.67 24.93, 80.38 31.78 C82.09 38.64, 80.84 47.23, 78.24 53.86 C75.65 60.5, 70.6 67.14, 64.79 71.58 C58.98 76.03, 50.59 79.92, 43.39 80.52 C36.19 81.13, 27.95 78.78, 21.59 75.21 C15.24 71.65, 8.91 65.61, 5.27 59.11 C1.64 52.61, -0.78 43.29, -0.2 36.21 C0.38 29.13, 4.25 22.25, 8.74 16.64 C13.23 11.03, 19.86 5.07, 26.75 2.54 C33.64 0.01, 45.94 1.54, 50.09 1.45 C54.24 1.36, 51.73 1.44, 51.63 2 M58.21 5.03 C64.46 7.56, 72.21 13.35, 75.85 19.75 C79.5 26.14, 80.73 36.02, 80.08 43.39 C79.43 50.77, 76.18 58.21, 71.93 64.01 C67.69 69.81, 61.11 75.74, 54.62 78.2 C48.12 80.67, 39.84 80.12, 32.95 78.8 C26.06 77.48, 18.53 75.33, 13.3 70.27 C8.06 65.2, 3.29 55.89, 1.54 48.39 C-0.21 40.89, 0.63 31.7, 2.79 25.26 C4.95 18.82, 8.74 13.75, 14.5 9.76 C20.26 5.78, 29.96 2.36, 37.34 1.35 C44.72 0.35, 55.28 3.13, 58.78 3.72 C62.29 4.31, 58.53 4.29, 58.38 4.89" stroke="none" stroke-width="0" fill="#fff"></path><path d="M56.03 2.75 C62.56 4.93, 70.08 11.38, 73.95 17.65 C77.83 23.91, 79.2 33.12, 79.29 40.33 C79.38 47.55, 78.18 54.83, 74.48 60.93 C70.77 67.03, 63.91 73.66, 57.06 76.96 C50.21 80.25, 40.53 81.71, 33.38 80.68 C26.24 79.66, 19.63 75.6, 14.19 70.79 C8.75 65.97, 2.76 58.71, 0.73 51.8 C-1.3 44.89, -0.19 36.42, 2.01 29.34 C4.22 22.27, 8.5 14.25, 13.95 9.34 C19.39 4.44, 27.08 0.41, 34.68 -0.08 C42.28 -0.57, 54.88 5.16, 59.54 6.39 C64.2 7.62, 62.91 7.03, 62.64 7.31 M26.9 1.81 C33.2 -1.03, 42.55 -0.71, 49.67 1.16 C56.79 3.03, 64.87 7.96, 69.63 13.03 C74.39 18.1, 76.75 24.58, 78.23 31.58 C79.7 38.58, 81.15 48.09, 78.48 55.03 C75.82 61.97, 68.38 68.92, 62.25 73.22 C56.12 77.53, 48.54 80.76, 41.69 80.87 C34.84 80.98, 27.15 77.67, 21.14 73.87 C15.12 70.07, 9.32 64.18, 5.62 58.06 C1.92 51.95, -1.76 44.16, -1.08 37.18 C-0.39 30.2, 4.98 21.95, 9.74 16.18 C14.51 10.42, 24.69 4.95, 27.5 2.58 C30.32 0.21, 26.63 1.54, 26.63 1.97" stroke="#000000" stroke-width="1" fill="none"></path></g><g stroke-linecap="round" transform="translate(500.57733530706355 101.15478515625) rotate(0 33.00458836252483 32.988525390625)"><path d="M18.68 3.99 C23.98 0.95, 31.53 0.13, 37.77 1.29 C44 2.45, 51.27 6.43, 56.09 10.95 C60.91 15.47, 65.58 22.24, 66.68 28.42 C67.79 34.6, 65.8 42.46, 62.72 48.04 C59.65 53.62, 54.04 58.92, 48.23 61.89 C42.42 64.86, 34.21 66.87, 27.85 65.87 C21.5 64.87, 14.63 60.62, 10.11 55.89 C5.6 51.17, 1.86 44.06, 0.77 37.51 C-0.33 30.97, 0.16 22.36, 3.54 16.64 C6.92 10.92, 17.79 5.56, 21.04 3.2 C24.29 0.83, 22.95 2.04, 23.04 2.46 M37.3 1.81 C43.76 2.25, 52.73 5.44, 57.32 9.77 C61.91 14.11, 63.83 21.61, 64.83 27.8 C65.83 33.99, 66.1 41.02, 63.33 46.91 C60.56 52.8, 54.18 59.96, 48.22 63.12 C42.27 66.29, 33.99 66.87, 27.61 65.9 C21.23 64.92, 14.32 61.94, 9.94 57.28 C5.56 52.62, 2.22 44.18, 1.33 37.93 C0.44 31.68, 1.8 25.62, 4.61 19.8 C7.42 13.99, 12.59 6.5, 18.19 3.04 C23.79 -0.42, 35.16 -0.86, 38.21 -0.96 C41.26 -1.06, 36.56 1.49, 36.5 2.46" stroke="none" stroke-width="0" fill="#fff"></path><path d="M36.64 -0.66 C42.78 -0.25, 49.36 4.38, 54.24 8.72 C59.13 13.05, 64.43 18.99, 65.96 25.35 C67.49 31.71, 66.35 40.69, 63.43 46.88 C60.51 53.08, 54.02 59.31, 48.41 62.53 C42.81 65.75, 36.21 66.98, 29.79 66.2 C23.38 65.42, 14.71 62.18, 9.92 57.87 C5.13 53.55, 2.21 46.77, 1.05 40.3 C-0.11 33.83, 0.32 25.09, 2.95 19.02 C5.58 12.95, 10.67 6.72, 16.82 3.86 C22.97 1, 35.35 2.19, 39.85 1.85 C44.36 1.51, 43.89 1.59, 43.83 1.83 M22.06 1.44 C27.71 -1.06, 36.35 -0.58, 42.63 1.46 C48.9 3.5, 56.06 8.69, 59.73 13.67 C63.4 18.66, 64.41 25.02, 64.64 31.37 C64.88 37.73, 64.81 46.29, 61.14 51.81 C57.47 57.33, 48.99 62.29, 42.65 64.51 C36.31 66.74, 28.92 67.27, 23.12 65.16 C17.32 63.05, 11.49 57.18, 7.86 51.86 C4.22 46.53, 1.81 39.34, 1.29 33.21 C0.78 27.08, 1.1 20.14, 4.79 15.08 C8.48 10.02, 20.4 4.87, 23.41 2.83 C26.43 0.79, 23.01 2.64, 22.87 2.83" stroke="#000000" stroke-width="1" fill="none"></path></g><g stroke-linecap="round" transform="translate(271.7256970221333 166.81315843986886) rotate(89.99999999999994 16.93115234375 16.93115234375)"><path d="M12.63 0.5 C15.99 -0.49, 21.59 -0.29, 24.93 1.37 C28.27 3.03, 31.4 6.98, 32.69 10.47 C33.97 13.96, 33.71 18.84, 32.65 22.32 C31.6 25.8, 29.4 29.4, 26.36 31.34 C23.33 33.28, 18.04 34.4, 14.44 33.98 C10.83 33.55, 7.13 31.52, 4.73 28.79 C2.33 26.07, 0.24 21.34, 0.04 17.63 C-0.17 13.91, 1.31 9.31, 3.49 6.51 C5.67 3.71, 11.4 1.89, 13.1 0.84 C14.8 -0.21, 13.6 0.08, 13.69 0.2 M14 0.08 C17.35 -0.75, 22.29 0.44, 25.46 2.35 C28.64 4.26, 31.93 8.19, 33.03 11.52 C34.14 14.84, 33.29 18.95, 32.09 22.29 C30.89 25.63, 28.96 29.66, 25.83 31.56 C22.7 33.47, 17.01 34.3, 13.34 33.71 C9.67 33.11, 5.92 30.9, 3.81 28 C1.69 25.11, 0.51 20.02, 0.66 16.32 C0.82 12.62, 2.59 8.4, 4.73 5.81 C6.88 3.23, 11.88 1.59, 13.54 0.81 C15.21 0.02, 14.56 0.89, 14.73 1.11" stroke="#000000" stroke-width="1" fill="none"></path></g><g stroke-linecap="round" transform="translate(241.23497436588332 201.09730853456495) rotate(89.99999999999994 12.571540601325523 12.571540601325523)"><path d="M10.22 -0.18 C12.79 -0.87, 16.34 0.2, 18.59 1.6 C20.84 3.01, 22.71 5.75, 23.73 8.25 C24.76 10.75, 25.57 14.08, 24.75 16.61 C23.94 19.14, 21.13 21.98, 18.85 23.44 C16.57 24.89, 13.66 25.77, 11.06 25.34 C8.47 24.91, 5.11 22.92, 3.28 20.83 C1.46 18.75, 0.26 15.41, 0.09 12.83 C-0.08 10.26, 0.6 7.54, 2.26 5.36 C3.92 3.19, 8.68 0.7, 10.05 -0.2 C11.41 -1.09, 10.44 -0.28, 10.45 -0.01 M13.76 0.05 C16.37 0.21, 19.95 2.18, 21.72 4.02 C23.5 5.85, 24.16 8.43, 24.43 11.06 C24.7 13.69, 24.9 17.51, 23.36 19.82 C21.82 22.12, 17.89 24.17, 15.17 24.9 C12.46 25.63, 9.29 25.49, 7.05 24.22 C4.82 22.95, 2.74 19.82, 1.76 17.29 C0.77 14.76, 0.61 11.47, 1.13 9.04 C1.65 6.62, 2.68 4.15, 4.88 2.75 C7.08 1.34, 12.84 0.98, 14.35 0.61 C15.86 0.25, 14.13 0.51, 13.95 0.55" stroke="#000000" stroke-width="1" fill="none"></path></g><g stroke-linecap="round" transform="translate(508.35449725057515 44.30956620929646) rotate(0 24.460199556078805 39.10330636160734)"><path d="M0 0 L48.92 0 L48.92 78.21 L0 78.21" stroke="none" stroke-width="0" fill="#fff"></path><path d="M0 0 C10.23 0, 20.46 0, 48.92 0 M0 0 C16.36 0, 32.72 0, 48.92 0 M48.92 0 C48.92 27.2, 48.92 54.39, 48.92 78.21 M48.92 0 C48.92 17.71, 48.92 35.43, 48.92 78.21 M48.92 78.21 C34.31 78.21, 19.71 78.21, 0 78.21 M48.92 78.21 C32.98 78.21, 17.03 78.21, 0 78.21 M0 78.21 C0 55.05, 0 31.89, 0 0 M0 78.21 C0 48.66, 0 19.12, 0 0" stroke="#fff" stroke-width="1" fill="none"></path></g><g stroke-linecap="round" transform="translate(309.57295718862406 25.325191209296463) rotate(0 8.564658415037684 49.55671037946422)"><path d="M0 0 L17.13 0 L17.13 99.11 L0 99.11" stroke="none" stroke-width="0" fill="#fff"></path><path d="M0 0 C3.67 0, 7.34 0, 17.13 0 M0 0 C3.52 0, 7.04 0, 17.13 0 M17.13 0 C17.13 35.9, 17.13 71.79, 17.13 99.11 M17.13 0 C17.13 25.97, 17.13 51.94, 17.13 99.11 M17.13 99.11 C12.42 99.11, 7.71 99.11, 0 99.11 M17.13 99.11 C13.39 99.11, 9.65 99.11, 0 99.11 M0 99.11 C0 60.64, 0 22.17, 0 0 M0 99.11 C0 62.15, 0 25.19, 0 0" stroke="#fff" stroke-width="1" fill="none"></path></g><g stroke-linecap="round" transform="translate(325.54753951285056 24.662666289235858) rotate(0 109.15056617056734 67.6787910931107)"><path d="M0 0 L218.3 0 L218.3 135.36 L0 135.36" stroke="none" stroke-width="0" fill="#fff"></path><path d="M0 0 C68.34 0, 136.67 0, 218.3 0 M0 0 C74.43 0, 148.86 0, 218.3 0 M218.3 0 C218.3 35.29, 218.3 70.59, 218.3 135.36 M218.3 0 C218.3 36.16, 218.3 72.33, 218.3 135.36 M218.3 135.36 C155.8 135.36, 93.3 135.36, 0 135.36 M218.3 135.36 C156.5 135.36, 94.71 135.36, 0 135.36 M0 135.36 C0 83.09, 0 30.83, 0 0 M0 135.36 C0 90.53, 0 45.71, 0 0" stroke="#fff" stroke-width="1" fill="none"></path></g><g transform="translate(335.50376974591745 46.34145738234656) rotate(0 99.1943359375 46)"><text x="99.1943359375" y="18.400390625" font-family="Helvetica, Segoe UI Emoji" font-size="20px" fill="#1e1e1e" text-anchor="middle" style="white-space: pre;" direction="ltr" dominant-baseline="alphabetic">10...but I've run out of </text><text x="99.1943359375" y="41.400390625" font-family="Helvetica, Segoe UI Emoji" font-size="20px" fill="#1e1e1e" text-anchor="middle" style="white-space: pre;" direction="ltr" dominant-baseline="alphabetic">counting twigs once </text><text x="99.1943359375" y="64.400390625" font-family="Helvetica, Segoe UI Emoji" font-size="20px" fill="#1e1e1e" text-anchor="middle" style="white-space: pre;" direction="ltr" dominant-baseline="alphabetic">already. Therefore,</text><text x="99.1943359375" y="87.400390625" font-family="Helvetica, Segoe UI Emoji" font-size="20px" fill="#1e1e1e" text-anchor="middle" style="white-space: pre;" direction="ltr" dominant-baseline="alphabetic">10 + 10 = 20</text></g><g stroke-linecap="round" transform="translate(357.2664917245602 321.5996734232531) rotate(0 5.9002718712058595 5.9002718712058595)"><path d="M11.8 5.9 C11.8 6.24, 11.77 6.59, 11.71 6.92 C11.65 7.26, 11.56 7.6, 11.44 7.92 C11.33 8.24, 11.18 8.55, 11.01 8.85 C10.84 9.15, 10.64 9.43, 10.42 9.69 C10.2 9.95, 9.95 10.2, 9.69 10.42 C9.43 10.64, 9.15 10.84, 8.85 11.01 C8.55 11.18, 8.24 11.33, 7.92 11.44 C7.6 11.56, 7.26 11.65, 6.92 11.71 C6.59 11.77, 6.24 11.8, 5.9 11.8 C5.56 11.8, 5.21 11.77, 4.88 11.71 C4.54 11.65, 4.2 11.56, 3.88 11.44 C3.56 11.33, 3.25 11.18, 2.95 11.01 C2.65 10.84, 2.37 10.64, 2.11 10.42 C1.85 10.2, 1.6 9.95, 1.38 9.69 C1.16 9.43, 0.96 9.15, 0.79 8.85 C0.62 8.55, 0.47 8.24, 0.36 7.92 C0.24 7.6, 0.15 7.26, 0.09 6.92 C0.03 6.59, 0 6.24, 0 5.9 C0 5.56, 0.03 5.21, 0.09 4.88 C0.15 4.54, 0.24 4.2, 0.36 3.88 C0.47 3.56, 0.62 3.25, 0.79 2.95 C0.96 2.65, 1.16 2.37, 1.38 2.11 C1.6 1.85, 1.85 1.6, 2.11 1.38 C2.37 1.16, 2.65 0.96, 2.95 0.79 C3.25 0.62, 3.56 0.47, 3.88 0.36 C4.2 0.24, 4.54 0.15, 4.88 0.09 C5.21 0.03, 5.56 0, 5.9 0 C6.24 0, 6.59 0.03, 6.92 0.09 C7.26 0.15, 7.6 0.24, 7.92 0.36 C8.24 0.47, 8.55 0.62, 8.85 0.79 C9.15 0.96, 9.43 1.16, 9.69 1.38 C9.95 1.6, 10.2 1.85, 10.42 2.11 C10.64 2.37, 10.84 2.65, 11.01 2.95 C11.18 3.25, 11.33 3.56, 11.44 3.88 C11.56 4.2, 11.65 4.54, 11.71 4.88 C11.77 5.21, 11.79 5.73, 11.8 5.9 C11.82 6.07, 11.82 5.73, 11.8 5.9" stroke="#e03131" stroke-width="1" fill="none"></path></g><g transform="translate(369.59353108700816 313.6765526632653) rotate(0 4.44921875 9.199999999999818)"><text x="0" y="14.720312499999999" font-family="Helvetica, Segoe UI Emoji" font-size="16px" fill="#e03131" text-anchor="start" style="white-space: pre;" direction="ltr" dominant-baseline="alphabetic">5</text></g><g stroke-linecap="round" transform="translate(357.1007949663308 342.45377366282537) rotate(0 5.9002718712058595 5.9002718712058595)"><path d="M11.8 5.9 C11.8 6.24, 11.77 6.59, 11.71 6.92 C11.65 7.26, 11.56 7.6, 11.44 7.92 C11.33 8.24, 11.18 8.55, 11.01 8.85 C10.84 9.15, 10.64 9.43, 10.42 9.69 C10.2 9.95, 9.95 10.2, 9.69 10.42 C9.43 10.64, 9.15 10.84, 8.85 11.01 C8.55 11.18, 8.24 11.33, 7.92 11.44 C7.6 11.56, 7.26 11.65, 6.92 11.71 C6.59 11.77, 6.24 11.8, 5.9 11.8 C5.56 11.8, 5.21 11.77, 4.88 11.71 C4.54 11.65, 4.2 11.56, 3.88 11.44 C3.56 11.33, 3.25 11.18, 2.95 11.01 C2.65 10.84, 2.37 10.64, 2.11 10.42 C1.85 10.2, 1.6 9.95, 1.38 9.69 C1.16 9.43, 0.96 9.15, 0.79 8.85 C0.62 8.55, 0.47 8.24, 0.36 7.92 C0.24 7.6, 0.15 7.26, 0.09 6.92 C0.03 6.59, 0 6.24, 0 5.9 C0 5.56, 0.03 5.21, 0.09 4.88 C0.15 4.54, 0.24 4.2, 0.36 3.88 C0.47 3.56, 0.62 3.25, 0.79 2.95 C0.96 2.65, 1.16 2.37, 1.38 2.11 C1.6 1.85, 1.85 1.6, 2.11 1.38 C2.37 1.16, 2.65 0.96, 2.95 0.79 C3.25 0.62, 3.56 0.47, 3.88 0.36 C4.2 0.24, 4.54 0.15, 4.88 0.09 C5.21 0.03, 5.56 0, 5.9 0 C6.24 0, 6.59 0.03, 6.92 0.09 C7.26 0.15, 7.6 0.24, 7.92 0.36 C8.24 0.47, 8.55 0.62, 8.85 0.79 C9.15 0.96, 9.43 1.16, 9.69 1.38 C9.95 1.6, 10.2 1.85, 10.42 2.11 C10.64 2.37, 10.84 2.65, 11.01 2.95 C11.18 3.25, 11.33 3.56, 11.44 3.88 C11.56 4.2, 11.65 4.54, 11.71 4.88 C11.77 5.21, 11.79 5.73, 11.8 5.9 C11.82 6.07, 11.82 5.73, 11.8 5.9" stroke="#e03131" stroke-width="1" fill="none"></path></g><g transform="translate(371.8292701258506 341.91198656362303) rotate(0 8.8984375 9.199999999999818)"><text x="0" y="14.720312499999999" font-family="Helvetica, Segoe UI Emoji" font-size="16px" fill="#e03131" text-anchor="start" style="white-space: pre;" direction="ltr" dominant-baseline="alphabetic">10</text></g></svg>