<svg version="1.1" xmlns="http://www.w3.org/2000/svg" viewBox="0 0 400.9044790613789 323.745031019851" width="400.9044790613789" height="323.745031019851">
  <!-- svg-source:excalidraw -->
  
  <defs>
    <style class="style-fonts">
      @font-face {
        font-family: "Virgil";
        src: url("https://excalidraw.com/Virgil.woff2");
      }
      @font-face {
        font-family: "Cascadia";
        src: url("https://excalidraw.com/Cascadia.woff2");
      }
      @font-face {
        font-family: "Assistant";
        src: url("https://excalidraw.com/Assistant-Regular.woff2");
      }
    </style>
    
  </defs>
  <g stroke-linecap="round"><g transform="translate(254.5519327088059 134.3333300329541) rotate(312.85682425947084 48.11548863844655 11.477978174430064)"><path d="M-0.54 0.07 C10.66 2.62, 50.9 12.29, 67.07 16.16 C83.24 20.03, 91.55 22.29, 96.49 23.31 M1.37 -0.94 C12.52 1.19, 50.95 10.71, 66.7 14.39 C82.45 18.07, 90.77 19.72, 95.86 21.15" stroke="#1e1e1e" stroke-width="4" fill="none"></path></g></g><mask></mask><g stroke-linecap="round"><g transform="translate(126.63771792195621 124.44696958794248) rotate(65.75566307527386 -48.11548863844655 11.477978174430064)"><path d="M0.12 -0.34 C-10.68 2.26, -49.62 11.21, -65.86 15.19 C-82.1 19.17, -92.25 22.13, -97.31 23.53 M-1.28 -1.57 C-12.13 1.25, -51.13 12.73, -66.75 16.57 C-82.36 20.41, -90.12 20.69, -94.98 21.49" stroke="#1e1e1e" stroke-width="4" fill="none"></path></g></g><mask></mask><g stroke-linecap="round" transform="translate(81.25795850058057 107.11215807320878) rotate(0 103.31643647332112 103.31643647332112)"><path d="M206.63 103.32 C206.63 106.49, 206.49 109.69, 206.19 112.85 C205.9 116.01, 205.46 119.18, 204.87 122.3 C204.29 125.42, 203.56 128.53, 202.69 131.59 C201.82 134.65, 200.8 137.68, 199.66 140.64 C198.51 143.6, 197.22 146.52, 195.8 149.37 C194.39 152.21, 192.83 155, 191.16 157.71 C189.49 160.41, 187.68 163.04, 185.76 165.58 C183.85 168.11, 181.81 170.57, 179.67 172.92 C177.53 175.27, 175.27 177.53, 172.92 179.67 C170.57 181.81, 168.11 183.85, 165.58 185.76 C163.04 187.68, 160.41 189.49, 157.71 191.16 C155 192.83, 152.21 194.39, 149.37 195.8 C146.52 197.22, 143.6 198.51, 140.64 199.66 C137.68 200.8, 134.65 201.82, 131.59 202.69 C128.53 203.56, 125.42 204.29, 122.3 204.87 C119.18 205.46, 116.01 205.9, 112.85 206.19 C109.69 206.49, 106.49 206.63, 103.32 206.63 C100.14 206.63, 96.95 206.49, 93.78 206.19 C90.62 205.9, 87.46 205.46, 84.33 204.87 C81.21 204.29, 78.1 203.56, 75.04 202.69 C71.99 201.82, 68.96 200.8, 65.99 199.66 C63.03 198.51, 60.11 197.22, 57.26 195.8 C54.42 194.39, 51.63 192.83, 48.93 191.16 C46.23 189.49, 43.59 187.68, 41.05 185.76 C38.52 183.85, 36.06 181.81, 33.71 179.67 C31.36 177.53, 29.11 175.27, 26.96 172.92 C24.82 170.57, 22.78 168.11, 20.87 165.58 C18.95 163.04, 17.15 160.41, 15.48 157.71 C13.8 155, 12.25 152.21, 10.83 149.37 C9.41 146.52, 8.12 143.6, 6.98 140.64 C5.83 137.68, 4.81 134.65, 3.94 131.59 C3.07 128.53, 2.34 125.42, 1.76 122.3 C1.18 119.18, 0.73 116.01, 0.44 112.85 C0.15 109.69, 0 106.49, 0 103.32 C0 100.14, 0.15 96.95, 0.44 93.78 C0.73 90.62, 1.18 87.46, 1.76 84.33 C2.34 81.21, 3.07 78.1, 3.94 75.04 C4.81 71.99, 5.83 68.96, 6.98 65.99 C8.12 63.03, 9.41 60.11, 10.83 57.26 C12.25 54.42, 13.8 51.63, 15.48 48.93 C17.15 46.23, 18.95 43.59, 20.87 41.05 C22.78 38.52, 24.82 36.06, 26.96 33.71 C29.11 31.36, 31.36 29.11, 33.71 26.96 C36.06 24.82, 38.52 22.78, 41.05 20.87 C43.59 18.95, 46.23 17.15, 48.93 15.48 C51.63 13.8, 54.42 12.25, 57.26 10.83 C60.11 9.41, 63.03 8.12, 65.99 6.98 C68.96 5.83, 71.99 4.81, 75.04 3.94 C78.1 3.07, 81.21 2.34, 84.33 1.76 C87.46 1.18, 90.62 0.73, 93.78 0.44 C96.95 0.15, 100.14 0, 103.32 0 C106.49 0, 109.69 0.15, 112.85 0.44 C116.01 0.73, 119.18 1.18, 122.3 1.76 C125.42 2.34, 128.53 3.07, 131.59 3.94 C134.65 4.81, 137.68 5.83, 140.64 6.98 C143.6 8.12, 146.52 9.41, 149.37 10.83 C152.21 12.25, 155 13.8, 157.71 15.48 C160.41 17.15, 163.04 18.95, 165.58 20.87 C168.11 22.78, 170.57 24.82, 172.92 26.96 C175.27 29.11, 177.53 31.36, 179.67 33.71 C181.81 36.06, 183.85 38.52, 185.76 41.05 C187.68 43.59, 189.49 46.23, 191.16 48.93 C192.83 51.63, 194.39 54.42, 195.8 57.26 C197.22 60.11, 198.51 63.03, 199.66 65.99 C200.8 68.96, 201.82 71.99, 202.69 75.04 C203.56 78.1, 204.29 81.21, 204.87 84.33 C205.46 87.46, 205.9 90.62, 206.19 93.78 C206.49 96.95, 206.56 101.73, 206.63 103.32 C206.71 104.91, 206.71 101.73, 206.63 103.32" stroke="none" stroke-width="0" fill="#fff"></path><path d="M206.63 103.32 C206.63 106.49, 206.49 109.69, 206.19 112.85 C205.9 116.01, 205.46 119.18, 204.87 122.3 C204.29 125.42, 203.56 128.53, 202.69 131.59 C201.82 134.65, 200.8 137.68, 199.66 140.64 C198.51 143.6, 197.22 146.52, 195.8 149.37 C194.39 152.21, 192.83 155, 191.16 157.71 C189.49 160.41, 187.68 163.04, 185.76 165.58 C183.85 168.11, 181.81 170.57, 179.67 172.92 C177.53 175.27, 175.27 177.53, 172.92 179.67 C170.57 181.81, 168.11 183.85, 165.58 185.76 C163.04 187.68, 160.41 189.49, 157.71 191.16 C155 192.83, 152.21 194.39, 149.37 195.8 C146.52 197.22, 143.6 198.51, 140.64 199.66 C137.68 200.8, 134.65 201.82, 131.59 202.69 C128.53 203.56, 125.42 204.29, 122.3 204.87 C119.18 205.46, 116.01 205.9, 112.85 206.19 C109.69 206.49, 106.49 206.63, 103.32 206.63 C100.14 206.63, 96.95 206.49, 93.78 206.19 C90.62 205.9, 87.46 205.46, 84.33 204.87 C81.21 204.29, 78.1 203.56, 75.04 202.69 C71.99 201.82, 68.96 200.8, 65.99 199.66 C63.03 198.51, 60.11 197.22, 57.26 195.8 C54.42 194.39, 51.63 192.83, 48.93 191.16 C46.23 189.49, 43.59 187.68, 41.05 185.76 C38.52 183.85, 36.06 181.81, 33.71 179.67 C31.36 177.53, 29.11 175.27, 26.96 172.92 C24.82 170.57, 22.78 168.11, 20.87 165.58 C18.95 163.04, 17.15 160.41, 15.48 157.71 C13.8 155, 12.25 152.21, 10.83 149.37 C9.41 146.52, 8.12 143.6, 6.98 140.64 C5.83 137.68, 4.81 134.65, 3.94 131.59 C3.07 128.53, 2.34 125.42, 1.76 122.3 C1.18 119.18, 0.73 116.01, 0.44 112.85 C0.15 109.69, 0 106.49, 0 103.32 C0 100.14, 0.15 96.95, 0.44 93.78 C0.73 90.62, 1.18 87.46, 1.76 84.33 C2.34 81.21, 3.07 78.1, 3.94 75.04 C4.81 71.99, 5.83 68.96, 6.98 65.99 C8.12 63.03, 9.41 60.11, 10.83 57.26 C12.25 54.42, 13.8 51.63, 15.48 48.93 C17.15 46.23, 18.95 43.59, 20.87 41.05 C22.78 38.52, 24.82 36.06, 26.96 33.71 C29.11 31.36, 31.36 29.11, 33.71 26.96 C36.06 24.82, 38.52 22.78, 41.05 20.87 C43.59 18.95, 46.23 17.15, 48.93 15.48 C51.63 13.8, 54.42 12.25, 57.26 10.83 C60.11 9.41, 63.03 8.12, 65.99 6.98 C68.96 5.83, 71.99 4.81, 75.04 3.94 C78.1 3.07, 81.21 2.34, 84.33 1.76 C87.46 1.18, 90.62 0.73, 93.78 0.44 C96.95 0.15, 100.14 0, 103.32 0 C106.49 0, 109.69 0.15, 112.85 0.44 C116.01 0.73, 119.18 1.18, 122.3 1.76 C125.42 2.34, 128.53 3.07, 131.59 3.94 C134.65 4.81, 137.68 5.83, 140.64 6.98 C143.6 8.12, 146.52 9.41, 149.37 10.83 C152.21 12.25, 155 13.8, 157.71 15.48 C160.41 17.15, 163.04 18.95, 165.58 20.87 C168.11 22.78, 170.57 24.82, 172.92 26.96 C175.27 29.11, 177.53 31.36, 179.67 33.71 C181.81 36.06, 183.85 38.52, 185.76 41.05 C187.68 43.59, 189.49 46.23, 191.16 48.93 C192.83 51.63, 194.39 54.42, 195.8 57.26 C197.22 60.11, 198.51 63.03, 199.66 65.99 C200.8 68.96, 201.82 71.99, 202.69 75.04 C203.56 78.1, 204.29 81.21, 204.87 84.33 C205.46 87.46, 205.9 90.62, 206.19 93.78 C206.49 96.95, 206.56 101.73, 206.63 103.32 C206.71 104.91, 206.71 101.73, 206.63 103.32" stroke="#1e1e1e" stroke-width="4" fill="none"></path></g><g stroke-linecap="round" transform="translate(108.06849974232864 9.99999999999909) rotate(0 72.3289848642421 72.3289848642421)"><path d="M144.66 72.33 C144.66 75.03, 144.51 77.74, 144.2 80.43 C143.9 83.11, 143.45 85.79, 142.84 88.42 C142.24 91.06, 141.49 93.67, 140.6 96.22 C139.71 98.77, 138.67 101.28, 137.5 103.71 C136.32 106.14, 135.01 108.52, 133.57 110.81 C132.14 113.1, 130.56 115.31, 128.88 117.43 C127.19 119.54, 125.38 121.56, 123.47 123.47 C121.56 125.38, 119.54 127.19, 117.43 128.88 C115.31 130.56, 113.1 132.14, 110.81 133.57 C108.52 135.01, 106.14 136.32, 103.71 137.5 C101.28 138.67, 98.77 139.71, 96.22 140.6 C93.67 141.49, 91.06 142.24, 88.42 142.84 C85.79 143.45, 83.11 143.9, 80.43 144.2 C77.74 144.51, 75.03 144.66, 72.33 144.66 C69.63 144.66, 66.91 144.51, 64.23 144.2 C61.55 143.9, 58.87 143.45, 56.23 142.84 C53.6 142.24, 50.99 141.49, 48.44 140.6 C45.89 139.71, 43.38 138.67, 40.95 137.5 C38.51 136.32, 36.13 135.01, 33.85 133.57 C31.56 132.14, 29.34 130.56, 27.23 128.88 C25.12 127.19, 23.09 125.38, 21.18 123.47 C19.28 121.56, 17.46 119.54, 15.78 117.43 C14.1 115.31, 12.52 113.1, 11.09 110.81 C9.65 108.52, 8.33 106.14, 7.16 103.71 C5.99 101.28, 4.95 98.77, 4.06 96.22 C3.17 93.67, 2.41 91.06, 1.81 88.42 C1.21 85.79, 0.76 83.11, 0.45 80.43 C0.15 77.74, 0 75.03, 0 72.33 C0 69.63, 0.15 66.91, 0.45 64.23 C0.76 61.55, 1.21 58.87, 1.81 56.23 C2.41 53.6, 3.17 50.99, 4.06 48.44 C4.95 45.89, 5.99 43.38, 7.16 40.95 C8.33 38.51, 9.65 36.13, 11.09 33.85 C12.52 31.56, 14.1 29.34, 15.78 27.23 C17.46 25.12, 19.28 23.09, 21.18 21.18 C23.09 19.28, 25.12 17.46, 27.23 15.78 C29.34 14.1, 31.56 12.52, 33.85 11.09 C36.13 9.65, 38.51 8.33, 40.95 7.16 C43.38 5.99, 45.89 4.95, 48.44 4.06 C50.99 3.17, 53.6 2.41, 56.23 1.81 C58.87 1.21, 61.55 0.76, 64.23 0.45 C66.91 0.15, 69.63 0, 72.33 0 C75.03 0, 77.74 0.15, 80.43 0.45 C83.11 0.76, 85.79 1.21, 88.42 1.81 C91.06 2.41, 93.67 3.17, 96.22 4.06 C98.77 4.95, 101.28 5.99, 103.71 7.16 C106.14 8.33, 108.52 9.65, 110.81 11.09 C113.1 12.52, 115.31 14.1, 117.43 15.78 C119.54 17.46, 121.56 19.28, 123.47 21.18 C125.38 23.09, 127.19 25.12, 128.88 27.23 C130.56 29.34, 132.14 31.56, 133.57 33.85 C135.01 36.13, 136.32 38.51, 137.5 40.95 C138.67 43.38, 139.71 45.89, 140.6 48.44 C141.49 50.99, 142.24 53.6, 142.84 56.23 C143.45 58.87, 143.9 61.55, 144.2 64.23 C144.51 66.91, 144.58 70.98, 144.66 72.33 C144.73 73.68, 144.73 70.98, 144.66 72.33" stroke="none" stroke-width="0" fill="#fff"></path><path d="M144.66 72.33 C144.66 75.03, 144.51 77.74, 144.2 80.43 C143.9 83.11, 143.45 85.79, 142.84 88.42 C142.24 91.06, 141.49 93.67, 140.6 96.22 C139.71 98.77, 138.67 101.28, 137.5 103.71 C136.32 106.14, 135.01 108.52, 133.57 110.81 C132.14 113.1, 130.56 115.31, 128.88 117.43 C127.19 119.54, 125.38 121.56, 123.47 123.47 C121.56 125.38, 119.54 127.19, 117.43 128.88 C115.31 130.56, 113.1 132.14, 110.81 133.57 C108.52 135.01, 106.14 136.32, 103.71 137.5 C101.28 138.67, 98.77 139.71, 96.22 140.6 C93.67 141.49, 91.06 142.24, 88.42 142.84 C85.79 143.45, 83.11 143.9, 80.43 144.2 C77.74 144.51, 75.03 144.66, 72.33 144.66 C69.63 144.66, 66.91 144.51, 64.23 144.2 C61.55 143.9, 58.87 143.45, 56.23 142.84 C53.6 142.24, 50.99 141.49, 48.44 140.6 C45.89 139.71, 43.38 138.67, 40.95 137.5 C38.51 136.32, 36.13 135.01, 33.85 133.57 C31.56 132.14, 29.34 130.56, 27.23 128.88 C25.12 127.19, 23.09 125.38, 21.18 123.47 C19.28 121.56, 17.46 119.54, 15.78 117.43 C14.1 115.31, 12.52 113.1, 11.09 110.81 C9.65 108.52, 8.33 106.14, 7.16 103.71 C5.99 101.28, 4.95 98.77, 4.06 96.22 C3.17 93.67, 2.41 91.06, 1.81 88.42 C1.21 85.79, 0.76 83.11, 0.45 80.43 C0.15 77.74, 0 75.03, 0 72.33 C0 69.63, 0.15 66.91, 0.45 64.23 C0.76 61.55, 1.21 58.87, 1.81 56.23 C2.41 53.6, 3.17 50.99, 4.06 48.44 C4.95 45.89, 5.99 43.38, 7.16 40.95 C8.33 38.51, 9.65 36.13, 11.09 33.85 C12.52 31.56, 14.1 29.34, 15.78 27.23 C17.46 25.12, 19.28 23.09, 21.18 21.18 C23.09 19.28, 25.12 17.46, 27.23 15.78 C29.34 14.1, 31.56 12.52, 33.85 11.09 C36.13 9.65, 38.51 8.33, 40.95 7.16 C43.38 5.99, 45.89 4.95, 48.44 4.06 C50.99 3.17, 53.6 2.41, 56.23 1.81 C58.87 1.21, 61.55 0.76, 64.23 0.45 C66.91 0.15, 69.63 0, 72.33 0 C75.03 0, 77.74 0.15, 80.43 0.45 C83.11 0.76, 85.79 1.21, 88.42 1.81 C91.06 2.41, 93.67 3.17, 96.22 4.06 C98.77 4.95, 101.28 5.99, 103.71 7.16 C106.14 8.33, 108.52 9.65, 110.81 11.09 C113.1 12.52, 115.31 14.1, 117.43 15.78 C119.54 17.46, 121.56 19.28, 123.47 21.18 C125.38 23.09, 127.19 25.12, 128.88 27.23 C130.56 29.34, 132.14 31.56, 133.57 33.85 C135.01 36.13, 136.32 38.51, 137.5 40.95 C138.67 43.38, 139.71 45.89, 140.6 48.44 C141.49 50.99, 142.24 53.6, 142.84 56.23 C143.45 58.87, 143.9 61.55, 144.2 64.23 C144.51 66.91, 144.58 70.98, 144.66 72.33 C144.73 73.68, 144.73 70.98, 144.66 72.33" stroke="#1e1e1e" stroke-width="4" fill="none"></path></g><g stroke-linecap="round" transform="translate(130.87593923836357 114.92927851121567) rotate(0 50.28568862960083 23.155255811964707)"><path d="M100.57 23.16 C100.57 24.36, 100.36 25.58, 99.95 26.78 C99.54 27.97, 98.92 29.16, 98.11 30.31 C97.3 31.46, 96.28 32.59, 95.09 33.67 C93.9 34.74, 92.51 35.79, 90.97 36.77 C89.43 37.74, 87.7 38.67, 85.84 39.53 C83.99 40.38, 81.96 41.18, 79.84 41.89 C77.72 42.6, 75.45 43.24, 73.11 43.79 C70.78 44.33, 68.32 44.8, 65.82 45.18 C63.33 45.55, 60.74 45.84, 58.15 46.03 C55.56 46.21, 52.91 46.31, 50.29 46.31 C47.66 46.31, 45.01 46.21, 42.42 46.03 C39.83 45.84, 37.24 45.55, 34.75 45.18 C32.25 44.8, 29.79 44.33, 27.46 43.79 C25.12 43.24, 22.85 42.6, 20.73 41.89 C18.61 41.18, 16.58 40.38, 14.73 39.53 C12.87 38.67, 11.14 37.74, 9.6 36.77 C8.06 35.79, 6.67 34.74, 5.48 33.67 C4.29 32.59, 3.27 31.46, 2.46 30.31 C1.65 29.16, 1.03 27.97, 0.62 26.78 C0.21 25.58, 0 24.36, 0 23.16 C0 21.95, 0.21 20.73, 0.62 19.53 C1.03 18.34, 1.65 17.15, 2.46 16 C3.27 14.85, 4.29 13.72, 5.48 12.64 C6.67 11.57, 8.06 10.52, 9.6 9.54 C11.14 8.57, 12.87 7.64, 14.73 6.78 C16.58 5.93, 18.61 5.13, 20.73 4.42 C22.85 3.71, 25.12 3.07, 27.46 2.52 C29.79 1.98, 32.25 1.51, 34.75 1.13 C37.24 0.76, 39.83 0.47, 42.42 0.29 C45.01 0.1, 47.66 0, 50.29 0 C52.91 0, 55.56 0.1, 58.15 0.29 C60.74 0.47, 63.33 0.76, 65.82 1.13 C68.32 1.51, 70.78 1.98, 73.11 2.52 C75.45 3.07, 77.72 3.71, 79.84 4.42 C81.96 5.13, 83.99 5.93, 85.84 6.78 C87.7 7.64, 89.43 8.57, 90.97 9.54 C92.51 10.52, 93.9 11.57, 95.09 12.64 C96.28 13.72, 97.3 14.85, 98.11 16 C98.92 17.15, 99.54 18.34, 99.95 19.53 C100.36 20.73, 100.47 22.55, 100.57 23.16 C100.67 23.76, 100.67 22.55, 100.57 23.16" stroke="none" stroke-width="0" fill="#fff"></path><path d="M100.57 23.16 C100.57 24.36, 100.36 25.58, 99.95 26.78 C99.54 27.97, 98.92 29.16, 98.11 30.31 C97.3 31.46, 96.28 32.59, 95.09 33.67 C93.9 34.74, 92.51 35.79, 90.97 36.77 C89.43 37.74, 87.7 38.67, 85.84 39.53 C83.99 40.38, 81.96 41.18, 79.84 41.89 C77.72 42.6, 75.45 43.24, 73.11 43.79 C70.78 44.33, 68.32 44.8, 65.82 45.18 C63.33 45.55, 60.74 45.84, 58.15 46.03 C55.56 46.21, 52.91 46.31, 50.29 46.31 C47.66 46.31, 45.01 46.21, 42.42 46.03 C39.83 45.84, 37.24 45.55, 34.75 45.18 C32.25 44.8, 29.79 44.33, 27.46 43.79 C25.12 43.24, 22.85 42.6, 20.73 41.89 C18.61 41.18, 16.58 40.38, 14.73 39.53 C12.87 38.67, 11.14 37.74, 9.6 36.77 C8.06 35.79, 6.67 34.74, 5.48 33.67 C4.29 32.59, 3.27 31.46, 2.46 30.31 C1.65 29.16, 1.03 27.97, 0.62 26.78 C0.21 25.58, 0 24.36, 0 23.16 C0 21.95, 0.21 20.73, 0.62 19.53 C1.03 18.34, 1.65 17.15, 2.46 16 C3.27 14.85, 4.29 13.72, 5.48 12.64 C6.67 11.57, 8.06 10.52, 9.6 9.54 C11.14 8.57, 12.87 7.64, 14.73 6.78 C16.58 5.93, 18.61 5.13, 20.73 4.42 C22.85 3.71, 25.12 3.07, 27.46 2.52 C29.79 1.98, 32.25 1.51, 34.75 1.13 C37.24 0.76, 39.83 0.47, 42.42 0.29 C45.01 0.1, 47.66 0, 50.29 0 C52.91 0, 55.56 0.1, 58.15 0.29 C60.74 0.47, 63.33 0.76, 65.82 1.13 C68.32 1.51, 70.78 1.98, 73.11 2.52 C75.45 3.07, 77.72 3.71, 79.84 4.42 C81.96 5.13, 83.99 5.93, 85.84 6.78 C87.7 7.64, 89.43 8.57, 90.97 9.54 C92.51 10.52, 93.9 11.57, 95.09 12.64 C96.28 13.72, 97.3 14.85, 98.11 16 C98.92 17.15, 99.54 18.34, 99.95 19.53 C100.36 20.73, 100.47 22.55, 100.57 23.16 C100.67 23.76, 100.67 22.55, 100.57 23.16" stroke="transparent" stroke-width="2" fill="none"></path></g><g stroke-linecap="round" transform="translate(189.27727316649998 54.41544461927788) rotate(0 6.467653228563449 6.467653228563449)"><path d="M12.94 6.47 C12.94 6.84, 12.9 7.22, 12.84 7.59 C12.77 7.96, 12.67 8.33, 12.55 8.68 C12.42 9.03, 12.26 9.38, 12.07 9.7 C11.88 10.03, 11.66 10.34, 11.42 10.62 C11.18 10.91, 10.91 11.18, 10.62 11.42 C10.34 11.66, 10.03 11.88, 9.7 12.07 C9.38 12.26, 9.03 12.42, 8.68 12.55 C8.33 12.67, 7.96 12.77, 7.59 12.84 C7.22 12.9, 6.84 12.94, 6.47 12.94 C6.09 12.94, 5.71 12.9, 5.34 12.84 C4.98 12.77, 4.61 12.67, 4.26 12.55 C3.9 12.42, 3.56 12.26, 3.23 12.07 C2.91 11.88, 2.6 11.66, 2.31 11.42 C2.02 11.18, 1.75 10.91, 1.51 10.62 C1.27 10.34, 1.05 10.03, 0.87 9.7 C0.68 9.38, 0.52 9.03, 0.39 8.68 C0.26 8.33, 0.16 7.96, 0.1 7.59 C0.03 7.22, 0 6.84, 0 6.47 C0 6.09, 0.03 5.71, 0.1 5.34 C0.16 4.98, 0.26 4.61, 0.39 4.26 C0.52 3.9, 0.68 3.56, 0.87 3.23 C1.05 2.91, 1.27 2.6, 1.51 2.31 C1.75 2.02, 2.02 1.75, 2.31 1.51 C2.6 1.27, 2.91 1.05, 3.23 0.87 C3.56 0.68, 3.9 0.52, 4.26 0.39 C4.61 0.26, 4.98 0.16, 5.34 0.1 C5.71 0.03, 6.09 0, 6.47 0 C6.84 0, 7.22 0.03, 7.59 0.1 C7.96 0.16, 8.33 0.26, 8.68 0.39 C9.03 0.52, 9.38 0.68, 9.7 0.87 C10.03 1.05, 10.34 1.27, 10.62 1.51 C10.91 1.75, 11.18 2.02, 11.42 2.31 C11.66 2.6, 11.88 2.91, 12.07 3.23 C12.26 3.56, 12.42 3.9, 12.55 4.26 C12.67 4.61, 12.77 4.98, 12.84 5.34 C12.9 5.71, 12.92 6.28, 12.94 6.47 C12.95 6.65, 12.95 6.28, 12.94 6.47" stroke="none" stroke-width="0" fill="#000000"></path><path d="M12.94 6.47 C12.94 6.84, 12.9 7.22, 12.84 7.59 C12.77 7.96, 12.67 8.33, 12.55 8.68 C12.42 9.03, 12.26 9.38, 12.07 9.7 C11.88 10.03, 11.66 10.34, 11.42 10.62 C11.18 10.91, 10.91 11.18, 10.62 11.42 C10.34 11.66, 10.03 11.88, 9.7 12.07 C9.38 12.26, 9.03 12.42, 8.68 12.55 C8.33 12.67, 7.96 12.77, 7.59 12.84 C7.22 12.9, 6.84 12.94, 6.47 12.94 C6.09 12.94, 5.71 12.9, 5.34 12.84 C4.98 12.77, 4.61 12.67, 4.26 12.55 C3.9 12.42, 3.56 12.26, 3.23 12.07 C2.91 11.88, 2.6 11.66, 2.31 11.42 C2.02 11.18, 1.75 10.91, 1.51 10.62 C1.27 10.34, 1.05 10.03, 0.87 9.7 C0.68 9.38, 0.52 9.03, 0.39 8.68 C0.26 8.33, 0.16 7.96, 0.1 7.59 C0.03 7.22, 0 6.84, 0 6.47 C0 6.09, 0.03 5.71, 0.1 5.34 C0.16 4.98, 0.26 4.61, 0.39 4.26 C0.52 3.9, 0.68 3.56, 0.87 3.23 C1.05 2.91, 1.27 2.6, 1.51 2.31 C1.75 2.02, 2.02 1.75, 2.31 1.51 C2.6 1.27, 2.91 1.05, 3.23 0.87 C3.56 0.68, 3.9 0.52, 4.26 0.39 C4.61 0.26, 4.98 0.16, 5.34 0.1 C5.71 0.03, 6.09 0, 6.47 0 C6.84 0, 7.22 0.03, 7.59 0.1 C7.96 0.16, 8.33 0.26, 8.68 0.39 C9.03 0.52, 9.38 0.68, 9.7 0.87 C10.03 1.05, 10.34 1.27, 10.62 1.51 C10.91 1.75, 11.18 2.02, 11.42 2.31 C11.66 2.6, 11.88 2.91, 12.07 3.23 C12.26 3.56, 12.42 3.9, 12.55 4.26 C12.67 4.61, 12.77 4.98, 12.84 5.34 C12.9 5.71, 12.92 6.28, 12.94 6.47 C12.95 6.65, 12.95 6.28, 12.94 6.47" stroke="transparent" stroke-width="2" fill="none"></path></g><g stroke-linecap="round" transform="translate(161.29386659919328 55.58495468153251) rotate(0 6.467653228563449 6.467653228563449)"><path d="M12.94 6.47 C12.94 6.84, 12.9 7.22, 12.84 7.59 C12.77 7.96, 12.67 8.33, 12.55 8.68 C12.42 9.03, 12.26 9.38, 12.07 9.7 C11.88 10.03, 11.66 10.34, 11.42 10.62 C11.18 10.91, 10.91 11.18, 10.62 11.42 C10.34 11.66, 10.03 11.88, 9.7 12.07 C9.38 12.26, 9.03 12.42, 8.68 12.55 C8.33 12.67, 7.96 12.77, 7.59 12.84 C7.22 12.9, 6.84 12.94, 6.47 12.94 C6.09 12.94, 5.71 12.9, 5.34 12.84 C4.98 12.77, 4.61 12.67, 4.26 12.55 C3.9 12.42, 3.56 12.26, 3.23 12.07 C2.91 11.88, 2.6 11.66, 2.31 11.42 C2.02 11.18, 1.75 10.91, 1.51 10.62 C1.27 10.34, 1.05 10.03, 0.87 9.7 C0.68 9.38, 0.52 9.03, 0.39 8.68 C0.26 8.33, 0.16 7.96, 0.1 7.59 C0.03 7.22, 0 6.84, 0 6.47 C0 6.09, 0.03 5.71, 0.1 5.34 C0.16 4.98, 0.26 4.61, 0.39 4.26 C0.52 3.9, 0.68 3.56, 0.87 3.23 C1.05 2.91, 1.27 2.6, 1.51 2.31 C1.75 2.02, 2.02 1.75, 2.31 1.51 C2.6 1.27, 2.91 1.05, 3.23 0.87 C3.56 0.68, 3.9 0.52, 4.26 0.39 C4.61 0.26, 4.98 0.16, 5.34 0.1 C5.71 0.03, 6.09 0, 6.47 0 C6.84 0, 7.22 0.03, 7.59 0.1 C7.96 0.16, 8.33 0.26, 8.68 0.39 C9.03 0.52, 9.38 0.68, 9.7 0.87 C10.03 1.05, 10.34 1.27, 10.62 1.51 C10.91 1.75, 11.18 2.02, 11.42 2.31 C11.66 2.6, 11.88 2.91, 12.07 3.23 C12.26 3.56, 12.42 3.9, 12.55 4.26 C12.67 4.61, 12.77 4.98, 12.84 5.34 C12.9 5.71, 12.92 6.28, 12.94 6.47 C12.95 6.65, 12.95 6.28, 12.94 6.47" stroke="none" stroke-width="0" fill="#000000"></path><path d="M12.94 6.47 C12.94 6.84, 12.9 7.22, 12.84 7.59 C12.77 7.96, 12.67 8.33, 12.55 8.68 C12.42 9.03, 12.26 9.38, 12.07 9.7 C11.88 10.03, 11.66 10.34, 11.42 10.62 C11.18 10.91, 10.91 11.18, 10.62 11.42 C10.34 11.66, 10.03 11.88, 9.7 12.07 C9.38 12.26, 9.03 12.42, 8.68 12.55 C8.33 12.67, 7.96 12.77, 7.59 12.84 C7.22 12.9, 6.84 12.94, 6.47 12.94 C6.09 12.94, 5.71 12.9, 5.34 12.84 C4.98 12.77, 4.61 12.67, 4.26 12.55 C3.9 12.42, 3.56 12.26, 3.23 12.07 C2.91 11.88, 2.6 11.66, 2.31 11.42 C2.02 11.18, 1.75 10.91, 1.51 10.62 C1.27 10.34, 1.05 10.03, 0.87 9.7 C0.68 9.38, 0.52 9.03, 0.39 8.68 C0.26 8.33, 0.16 7.96, 0.1 7.59 C0.03 7.22, 0 6.84, 0 6.47 C0 6.09, 0.03 5.71, 0.1 5.34 C0.16 4.98, 0.26 4.61, 0.39 4.26 C0.52 3.9, 0.68 3.56, 0.87 3.23 C1.05 2.91, 1.27 2.6, 1.51 2.31 C1.75 2.02, 2.02 1.75, 2.31 1.51 C2.6 1.27, 2.91 1.05, 3.23 0.87 C3.56 0.68, 3.9 0.52, 4.26 0.39 C4.61 0.26, 4.98 0.16, 5.34 0.1 C5.71 0.03, 6.09 0, 6.47 0 C6.84 0, 7.22 0.03, 7.59 0.1 C7.96 0.16, 8.33 0.26, 8.68 0.39 C9.03 0.52, 9.38 0.68, 9.7 0.87 C10.03 1.05, 10.34 1.27, 10.62 1.51 C10.91 1.75, 11.18 2.02, 11.42 2.31 C11.66 2.6, 11.88 2.91, 12.07 3.23 C12.26 3.56, 12.42 3.9, 12.55 4.26 C12.67 4.61, 12.77 4.98, 12.84 5.34 C12.9 5.71, 12.92 6.28, 12.94 6.47 C12.95 6.65, 12.95 6.28, 12.94 6.47" stroke="transparent" stroke-width="2" fill="none"></path></g><g stroke-linecap="round" transform="translate(176.986981336825 72.45634806468934) rotate(0 6.200694668730648 6.200694668730648)"><path d="M12.4 6.2 C12.4 6.56, 12.37 6.92, 12.31 7.28 C12.24 7.63, 12.15 7.98, 12.03 8.32 C11.9 8.66, 11.75 8.99, 11.57 9.3 C11.39 9.61, 11.18 9.91, 10.95 10.19 C10.72 10.46, 10.46 10.72, 10.19 10.95 C9.91 11.18, 9.61 11.39, 9.3 11.57 C8.99 11.75, 8.66 11.9, 8.32 12.03 C7.98 12.15, 7.63 12.24, 7.28 12.31 C6.92 12.37, 6.56 12.4, 6.2 12.4 C5.84 12.4, 5.48 12.37, 5.12 12.31 C4.77 12.24, 4.42 12.15, 4.08 12.03 C3.74 11.9, 3.41 11.75, 3.1 11.57 C2.79 11.39, 2.49 11.18, 2.21 10.95 C1.94 10.72, 1.68 10.46, 1.45 10.19 C1.22 9.91, 1.01 9.61, 0.83 9.3 C0.65 8.99, 0.5 8.66, 0.37 8.32 C0.25 7.98, 0.16 7.63, 0.09 7.28 C0.03 6.92, 0 6.56, 0 6.2 C0 5.84, 0.03 5.48, 0.09 5.12 C0.16 4.77, 0.25 4.42, 0.37 4.08 C0.5 3.74, 0.65 3.41, 0.83 3.1 C1.01 2.79, 1.22 2.49, 1.45 2.21 C1.68 1.94, 1.94 1.68, 2.21 1.45 C2.49 1.22, 2.79 1.01, 3.1 0.83 C3.41 0.65, 3.74 0.5, 4.08 0.37 C4.42 0.25, 4.77 0.16, 5.12 0.09 C5.48 0.03, 5.84 0, 6.2 0 C6.56 0, 6.92 0.03, 7.28 0.09 C7.63 0.16, 7.98 0.25, 8.32 0.37 C8.66 0.5, 8.99 0.65, 9.3 0.83 C9.61 1.01, 9.91 1.22, 10.19 1.45 C10.46 1.68, 10.72 1.94, 10.95 2.21 C11.18 2.49, 11.39 2.79, 11.57 3.1 C11.75 3.41, 11.9 3.74, 12.03 4.08 C12.15 4.42, 12.24 4.77, 12.31 5.12 C12.37 5.48, 12.39 6.02, 12.4 6.2 C12.42 6.38, 12.42 6.02, 12.4 6.2" stroke="none" stroke-width="0" fill="#f08c00"></path><path d="M12.4 6.2 C12.4 6.56, 12.37 6.92, 12.31 7.28 C12.24 7.63, 12.15 7.98, 12.03 8.32 C11.9 8.66, 11.75 8.99, 11.57 9.3 C11.39 9.61, 11.18 9.91, 10.95 10.19 C10.72 10.46, 10.46 10.72, 10.19 10.95 C9.91 11.18, 9.61 11.39, 9.3 11.57 C8.99 11.75, 8.66 11.9, 8.32 12.03 C7.98 12.15, 7.63 12.24, 7.28 12.31 C6.92 12.37, 6.56 12.4, 6.2 12.4 C5.84 12.4, 5.48 12.37, 5.12 12.31 C4.77 12.24, 4.42 12.15, 4.08 12.03 C3.74 11.9, 3.41 11.75, 3.1 11.57 C2.79 11.39, 2.49 11.18, 2.21 10.95 C1.94 10.72, 1.68 10.46, 1.45 10.19 C1.22 9.91, 1.01 9.61, 0.83 9.3 C0.65 8.99, 0.5 8.66, 0.37 8.32 C0.25 7.98, 0.16 7.63, 0.09 7.28 C0.03 6.92, 0 6.56, 0 6.2 C0 5.84, 0.03 5.48, 0.09 5.12 C0.16 4.77, 0.25 4.42, 0.37 4.08 C0.5 3.74, 0.65 3.41, 0.83 3.1 C1.01 2.79, 1.22 2.49, 1.45 2.21 C1.68 1.94, 1.94 1.68, 2.21 1.45 C2.49 1.22, 2.79 1.01, 3.1 0.83 C3.41 0.65, 3.74 0.5, 4.08 0.37 C4.42 0.25, 4.77 0.16, 5.12 0.09 C5.48 0.03, 5.84 0, 6.2 0 C6.56 0, 6.92 0.03, 7.28 0.09 C7.63 0.16, 7.98 0.25, 8.32 0.37 C8.66 0.5, 8.99 0.65, 9.3 0.83 C9.61 1.01, 9.91 1.22, 10.19 1.45 C10.46 1.68, 10.72 1.94, 10.95 2.21 C11.18 2.49, 11.39 2.79, 11.57 3.1 C11.75 3.41, 11.9 3.74, 12.03 4.08 C12.15 4.42, 12.24 4.77, 12.31 5.12 C12.37 5.48, 12.39 6.02, 12.4 6.2 C12.42 6.38, 12.42 6.02, 12.4 6.2" stroke="#f08c00" stroke-width="2" fill="none"></path></g><g stroke-linecap="round"><g transform="translate(183.70469059031257 72.43711652689399) rotate(0 12.724128506514262 3.58888051213944)"><path d="M0 0 C9.87 2.79, 19.75 5.57, 25.45 7.18 M0 0 C6.25 1.76, 12.49 3.52, 25.45 7.18" stroke="#f08c00" stroke-width="2" fill="none"></path></g></g><mask></mask><g stroke-linecap="round"><g transform="translate(183.72414502778065 84.76320106678122) rotate(0 12.75377336360998 -2.617393841068406)"><path d="M0 0 C5.12 -1.05, 10.23 -2.1, 25.51 -5.23 M0 0 C8.11 -1.66, 16.22 -3.33, 25.51 -5.23" stroke="#f08c00" stroke-width="2" fill="none"></path></g></g><mask></mask><g stroke-linecap="round"><g transform="translate(189.36747589676725 78.8972249689823) rotate(0 7.197833062938116 0.15347389558928626)"><path d="M0 0 C5.1 0.11, 10.2 0.22, 14.4 0.31 M0 0 C3.16 0.07, 6.33 0.13, 14.4 0.31" stroke="#f08c00" stroke-width="4" fill="none"></path></g></g><mask></mask><g stroke-linecap="round"><g transform="translate(188.43691688819763 75.1503204137689) rotate(0 3.6426534830461605 1.0272653164633994)"><path d="M0 0 C2.67 0.75, 5.34 1.51, 7.29 2.05 M0 0 C2.1 0.59, 4.2 1.18, 7.29 2.05" stroke="#f08c00" stroke-width="4" fill="none"></path></g></g><mask></mask><g stroke-linecap="round"><g transform="translate(189.0683631830143 81.48441896802706) rotate(0 4.765611310237546 -0.9456159923747691)"><path d="M0 0 C3.42 -0.68, 6.85 -1.36, 9.53 -1.89 M0 0 C2.25 -0.45, 4.5 -0.89, 9.53 -1.89" stroke="#f08c00" stroke-width="4" fill="none"></path></g></g><mask></mask><g stroke-linecap="round" transform="translate(180.3762766941254 172.07996311121315) rotate(0 6.467653228563449 6.467653228563449)"><path d="M12.94 6.47 C12.94 6.84, 12.9 7.22, 12.84 7.59 C12.77 7.96, 12.67 8.33, 12.55 8.68 C12.42 9.03, 12.26 9.38, 12.07 9.7 C11.88 10.03, 11.66 10.34, 11.42 10.62 C11.18 10.91, 10.91 11.18, 10.62 11.42 C10.34 11.66, 10.03 11.88, 9.7 12.07 C9.38 12.26, 9.03 12.42, 8.68 12.55 C8.33 12.67, 7.96 12.77, 7.59 12.84 C7.22 12.9, 6.84 12.94, 6.47 12.94 C6.09 12.94, 5.71 12.9, 5.34 12.84 C4.98 12.77, 4.61 12.67, 4.26 12.55 C3.9 12.42, 3.56 12.26, 3.23 12.07 C2.91 11.88, 2.6 11.66, 2.31 11.42 C2.02 11.18, 1.75 10.91, 1.51 10.62 C1.27 10.34, 1.05 10.03, 0.87 9.7 C0.68 9.38, 0.52 9.03, 0.39 8.68 C0.26 8.33, 0.16 7.96, 0.1 7.59 C0.03 7.22, 0 6.84, 0 6.47 C0 6.09, 0.03 5.71, 0.1 5.34 C0.16 4.98, 0.26 4.61, 0.39 4.26 C0.52 3.9, 0.68 3.56, 0.87 3.23 C1.05 2.91, 1.27 2.6, 1.51 2.31 C1.75 2.02, 2.02 1.75, 2.31 1.51 C2.6 1.27, 2.91 1.05, 3.23 0.87 C3.56 0.68, 3.9 0.52, 4.26 0.39 C4.61 0.26, 4.98 0.16, 5.34 0.1 C5.71 0.03, 6.09 0, 6.47 0 C6.84 0, 7.22 0.03, 7.59 0.1 C7.96 0.16, 8.33 0.26, 8.68 0.39 C9.03 0.52, 9.38 0.68, 9.7 0.87 C10.03 1.05, 10.34 1.27, 10.62 1.51 C10.91 1.75, 11.18 2.02, 11.42 2.31 C11.66 2.6, 11.88 2.91, 12.07 3.23 C12.26 3.56, 12.42 3.9, 12.55 4.26 C12.67 4.61, 12.77 4.98, 12.84 5.34 C12.9 5.71, 12.92 6.28, 12.94 6.47 C12.95 6.65, 12.95 6.28, 12.94 6.47" stroke="none" stroke-width="0" fill="#000000"></path><path d="M12.94 6.47 C12.94 6.84, 12.9 7.22, 12.84 7.59 C12.77 7.96, 12.67 8.33, 12.55 8.68 C12.42 9.03, 12.26 9.38, 12.07 9.7 C11.88 10.03, 11.66 10.34, 11.42 10.62 C11.18 10.91, 10.91 11.18, 10.62 11.42 C10.34 11.66, 10.03 11.88, 9.7 12.07 C9.38 12.26, 9.03 12.42, 8.68 12.55 C8.33 12.67, 7.96 12.77, 7.59 12.84 C7.22 12.9, 6.84 12.94, 6.47 12.94 C6.09 12.94, 5.71 12.9, 5.34 12.84 C4.98 12.77, 4.61 12.67, 4.26 12.55 C3.9 12.42, 3.56 12.26, 3.23 12.07 C2.91 11.88, 2.6 11.66, 2.31 11.42 C2.02 11.18, 1.75 10.91, 1.51 10.62 C1.27 10.34, 1.05 10.03, 0.87 9.7 C0.68 9.38, 0.52 9.03, 0.39 8.68 C0.26 8.33, 0.16 7.96, 0.1 7.59 C0.03 7.22, 0 6.84, 0 6.47 C0 6.09, 0.03 5.71, 0.1 5.34 C0.16 4.98, 0.26 4.61, 0.39 4.26 C0.52 3.9, 0.68 3.56, 0.87 3.23 C1.05 2.91, 1.27 2.6, 1.51 2.31 C1.75 2.02, 2.02 1.75, 2.31 1.51 C2.6 1.27, 2.91 1.05, 3.23 0.87 C3.56 0.68, 3.9 0.52, 4.26 0.39 C4.61 0.26, 4.98 0.16, 5.34 0.1 C5.71 0.03, 6.09 0, 6.47 0 C6.84 0, 7.22 0.03, 7.59 0.1 C7.96 0.16, 8.33 0.26, 8.68 0.39 C9.03 0.52, 9.38 0.68, 9.7 0.87 C10.03 1.05, 10.34 1.27, 10.62 1.51 C10.91 1.75, 11.18 2.02, 11.42 2.31 C11.66 2.6, 11.88 2.91, 12.07 3.23 C12.26 3.56, 12.42 3.9, 12.55 4.26 C12.67 4.61, 12.77 4.98, 12.84 5.34 C12.9 5.71, 12.92 6.28, 12.94 6.47 C12.95 6.65, 12.95 6.28, 12.94 6.47" stroke="transparent" stroke-width="2" fill="none"></path></g><g stroke-linecap="round" transform="translate(181.215505628581 196.17300282246924) rotate(0 6.467653228563449 6.467653228563449)"><path d="M12.94 6.47 C12.94 6.84, 12.9 7.22, 12.84 7.59 C12.77 7.96, 12.67 8.33, 12.55 8.68 C12.42 9.03, 12.26 9.38, 12.07 9.7 C11.88 10.03, 11.66 10.34, 11.42 10.62 C11.18 10.91, 10.91 11.18, 10.62 11.42 C10.34 11.66, 10.03 11.88, 9.7 12.07 C9.38 12.26, 9.03 12.42, 8.68 12.55 C8.33 12.67, 7.96 12.77, 7.59 12.84 C7.22 12.9, 6.84 12.94, 6.47 12.94 C6.09 12.94, 5.71 12.9, 5.34 12.84 C4.98 12.77, 4.61 12.67, 4.26 12.55 C3.9 12.42, 3.56 12.26, 3.23 12.07 C2.91 11.88, 2.6 11.66, 2.31 11.42 C2.02 11.18, 1.75 10.91, 1.51 10.62 C1.27 10.34, 1.05 10.03, 0.87 9.7 C0.68 9.38, 0.52 9.03, 0.39 8.68 C0.26 8.33, 0.16 7.96, 0.1 7.59 C0.03 7.22, 0 6.84, 0 6.47 C0 6.09, 0.03 5.71, 0.1 5.34 C0.16 4.98, 0.26 4.61, 0.39 4.26 C0.52 3.9, 0.68 3.56, 0.87 3.23 C1.05 2.91, 1.27 2.6, 1.51 2.31 C1.75 2.02, 2.02 1.75, 2.31 1.51 C2.6 1.27, 2.91 1.05, 3.23 0.87 C3.56 0.68, 3.9 0.52, 4.26 0.39 C4.61 0.26, 4.98 0.16, 5.34 0.1 C5.71 0.03, 6.09 0, 6.47 0 C6.84 0, 7.22 0.03, 7.59 0.1 C7.96 0.16, 8.33 0.26, 8.68 0.39 C9.03 0.52, 9.38 0.68, 9.7 0.87 C10.03 1.05, 10.34 1.27, 10.62 1.51 C10.91 1.75, 11.18 2.02, 11.42 2.31 C11.66 2.6, 11.88 2.91, 12.07 3.23 C12.26 3.56, 12.42 3.9, 12.55 4.26 C12.67 4.61, 12.77 4.98, 12.84 5.34 C12.9 5.71, 12.92 6.28, 12.94 6.47 C12.95 6.65, 12.95 6.28, 12.94 6.47" stroke="none" stroke-width="0" fill="#000000"></path><path d="M12.94 6.47 C12.94 6.84, 12.9 7.22, 12.84 7.59 C12.77 7.96, 12.67 8.33, 12.55 8.68 C12.42 9.03, 12.26 9.38, 12.07 9.7 C11.88 10.03, 11.66 10.34, 11.42 10.62 C11.18 10.91, 10.91 11.18, 10.62 11.42 C10.34 11.66, 10.03 11.88, 9.7 12.07 C9.38 12.26, 9.03 12.42, 8.68 12.55 C8.33 12.67, 7.96 12.77, 7.59 12.84 C7.22 12.9, 6.84 12.94, 6.47 12.94 C6.09 12.94, 5.71 12.9, 5.34 12.84 C4.98 12.77, 4.61 12.67, 4.26 12.55 C3.9 12.42, 3.56 12.26, 3.23 12.07 C2.91 11.88, 2.6 11.66, 2.31 11.42 C2.02 11.18, 1.75 10.91, 1.51 10.62 C1.27 10.34, 1.05 10.03, 0.87 9.7 C0.68 9.38, 0.52 9.03, 0.39 8.68 C0.26 8.33, 0.16 7.96, 0.1 7.59 C0.03 7.22, 0 6.84, 0 6.47 C0 6.09, 0.03 5.71, 0.1 5.34 C0.16 4.98, 0.26 4.61, 0.39 4.26 C0.52 3.9, 0.68 3.56, 0.87 3.23 C1.05 2.91, 1.27 2.6, 1.51 2.31 C1.75 2.02, 2.02 1.75, 2.31 1.51 C2.6 1.27, 2.91 1.05, 3.23 0.87 C3.56 0.68, 3.9 0.52, 4.26 0.39 C4.61 0.26, 4.98 0.16, 5.34 0.1 C5.71 0.03, 6.09 0, 6.47 0 C6.84 0, 7.22 0.03, 7.59 0.1 C7.96 0.16, 8.33 0.26, 8.68 0.39 C9.03 0.52, 9.38 0.68, 9.7 0.87 C10.03 1.05, 10.34 1.27, 10.62 1.51 C10.91 1.75, 11.18 2.02, 11.42 2.31 C11.66 2.6, 11.88 2.91, 12.07 3.23 C12.26 3.56, 12.42 3.9, 12.55 4.26 C12.67 4.61, 12.77 4.98, 12.84 5.34 C12.9 5.71, 12.92 6.28, 12.94 6.47 C12.95 6.65, 12.95 6.28, 12.94 6.47" stroke="transparent" stroke-width="2" fill="none"></path></g><g stroke-linecap="round"><g transform="translate(42.35378086395394 91.69183486204656) rotate(401.2075710929845 -5.411851472170838 6.303501568678712)"><path d="M-0.35 0.42 C-2.16 2.44, -8.71 10.2, -10.52 12.22 M0.48 0.16 C-1.41 2.24, -9.03 10.56, -10.79 12.73" stroke="#1e1e1e" stroke-width="4" fill="none"></path></g></g><mask></mask><g stroke-linecap="round"><g transform="translate(48.96603244578364 88.67875612189073) rotate(401.2075710929845 -9.283922797219475 -1.2277963458873273)"><path d="M0.04 -0.5 C-2.98 -0.99, -15.35 -2.66, -18.53 -3 M-0.6 0.44 C-3.66 0, -16.05 -2.17, -18.94 -2.57" stroke="#1e1e1e" stroke-width="4" fill="none"></path></g></g><mask></mask><g stroke-linecap="round"><g transform="translate(53.21437821829841 95.84445315681296) rotate(401.2075710929845 -2.328669237894701 -8.432257265249063)"><path d="M0.04 -0.54 C-0.82 -3.28, -4.25 -14.14, -5.1 -16.93 M-0.6 0.37 C-1.3 -2.24, -3.54 -13.39, -4.09 -16.27" stroke="#1e1e1e" stroke-width="4" fill="none"></path></g></g><mask></mask><g stroke-linecap="round"><g transform="translate(348.75156695960686 116.93299711539385) rotate(337.40491624176013 5.411851472170838 6.303501568678712)"><path d="M0.51 0.3 C2.37 2.43, 9.18 10.77, 10.94 12.77 M0.1 -0.02 C1.93 1.93, 8.79 9.76, 10.57 11.88" stroke="#1e1e1e" stroke-width="4" fill="none"></path></g></g><mask></mask><g stroke-linecap="round"><g transform="translate(346.03121537774587 113.63852598634367) rotate(337.40491624176013 9.283922797219475 -1.2277963458873273)"><path d="M0.12 0.16 C3.17 -0.35, 15.69 -2.29, 18.8 -2.78 M-0.48 -0.23 C2.47 -0.71, 15.31 -1.9, 18.49 -2.25" stroke="#1e1e1e" stroke-width="4" fill="none"></path></g></g><mask></mask><g stroke-linecap="round"><g transform="translate(342.1290310606937 117.19309099227394) rotate(337.40491624176013 2.328669237894701 -8.432257265249063)"><path d="M0.24 -0.33 C1.03 -3.22, 4.24 -14.39, 4.91 -17.2 M-0.31 0.69 C0.43 -2.15, 3.66 -13.77, 4.61 -16.68" stroke="#1e1e1e" stroke-width="4" fill="none"></path></g></g><mask></mask><g stroke-linecap="round" transform="translate(49.302566715271496 71.88982897840833) rotate(0 5.9002718712058595 5.9002718712058595)"><path d="M11.8 5.9 C11.8 6.24, 11.77 6.59, 11.71 6.92 C11.65 7.26, 11.56 7.6, 11.44 7.92 C11.33 8.24, 11.18 8.55, 11.01 8.85 C10.84 9.15, 10.64 9.43, 10.42 9.69 C10.2 9.95, 9.95 10.2, 9.69 10.42 C9.43 10.64, 9.15 10.84, 8.85 11.01 C8.55 11.18, 8.24 11.33, 7.92 11.44 C7.6 11.56, 7.26 11.65, 6.92 11.71 C6.59 11.77, 6.24 11.8, 5.9 11.8 C5.56 11.8, 5.21 11.77, 4.88 11.71 C4.54 11.65, 4.2 11.56, 3.88 11.44 C3.56 11.33, 3.25 11.18, 2.95 11.01 C2.65 10.84, 2.37 10.64, 2.11 10.42 C1.85 10.2, 1.6 9.95, 1.38 9.69 C1.16 9.43, 0.96 9.15, 0.79 8.85 C0.62 8.55, 0.47 8.24, 0.36 7.92 C0.24 7.6, 0.15 7.26, 0.09 6.92 C0.03 6.59, 0 6.24, 0 5.9 C0 5.56, 0.03 5.21, 0.09 4.88 C0.15 4.54, 0.24 4.2, 0.36 3.88 C0.47 3.56, 0.62 3.25, 0.79 2.95 C0.96 2.65, 1.16 2.37, 1.38 2.11 C1.6 1.85, 1.85 1.6, 2.11 1.38 C2.37 1.16, 2.65 0.96, 2.95 0.79 C3.25 0.62, 3.56 0.47, 3.88 0.36 C4.2 0.24, 4.54 0.15, 4.88 0.09 C5.21 0.03, 5.56 0, 5.9 0 C6.24 0, 6.59 0.03, 6.92 0.09 C7.26 0.15, 7.6 0.24, 7.92 0.36 C8.24 0.47, 8.55 0.62, 8.85 0.79 C9.15 0.96, 9.43 1.16, 9.69 1.38 C9.95 1.6, 10.2 1.85, 10.42 2.11 C10.64 2.37, 10.84 2.65, 11.01 2.95 C11.18 3.25, 11.33 3.56, 11.44 3.88 C11.56 4.2, 11.65 4.54, 11.71 4.88 C11.77 5.21, 11.79 5.73, 11.8 5.9 C11.82 6.07, 11.82 5.73, 11.8 5.9" stroke="#e03131" stroke-width="1" fill="none"></path></g><g stroke-linecap="round" transform="translate(26.369079953178698 73.62353963381611) rotate(0 5.9002718712058595 5.9002718712058595)"><path d="M11.8 5.9 C11.8 6.24, 11.77 6.59, 11.71 6.92 C11.65 7.26, 11.56 7.6, 11.44 7.92 C11.33 8.24, 11.18 8.55, 11.01 8.85 C10.84 9.15, 10.64 9.43, 10.42 9.69 C10.2 9.95, 9.95 10.2, 9.69 10.42 C9.43 10.64, 9.15 10.84, 8.85 11.01 C8.55 11.18, 8.24 11.33, 7.92 11.44 C7.6 11.56, 7.26 11.65, 6.92 11.71 C6.59 11.77, 6.24 11.8, 5.9 11.8 C5.56 11.8, 5.21 11.77, 4.88 11.71 C4.54 11.65, 4.2 11.56, 3.88 11.44 C3.56 11.33, 3.25 11.18, 2.95 11.01 C2.65 10.84, 2.37 10.64, 2.11 10.42 C1.85 10.2, 1.6 9.95, 1.38 9.69 C1.16 9.43, 0.96 9.15, 0.79 8.85 C0.62 8.55, 0.47 8.24, 0.36 7.92 C0.24 7.6, 0.15 7.26, 0.09 6.92 C0.03 6.59, 0 6.24, 0 5.9 C0 5.56, 0.03 5.21, 0.09 4.88 C0.15 4.54, 0.24 4.2, 0.36 3.88 C0.47 3.56, 0.62 3.25, 0.79 2.95 C0.96 2.65, 1.16 2.37, 1.38 2.11 C1.6 1.85, 1.85 1.6, 2.11 1.38 C2.37 1.16, 2.65 0.96, 2.95 0.79 C3.25 0.62, 3.56 0.47, 3.88 0.36 C4.2 0.24, 4.54 0.15, 4.88 0.09 C5.21 0.03, 5.56 0, 5.9 0 C6.24 0, 6.59 0.03, 6.92 0.09 C7.26 0.15, 7.6 0.24, 7.92 0.36 C8.24 0.47, 8.55 0.62, 8.85 0.79 C9.15 0.96, 9.43 1.16, 9.69 1.38 C9.95 1.6, 10.2 1.85, 10.42 2.11 C10.64 2.37, 10.84 2.65, 11.01 2.95 C11.18 3.25, 11.33 3.56, 11.44 3.88 C11.56 4.2, 11.65 4.54, 11.71 4.88 C11.77 5.21, 11.79 5.73, 11.8 5.9 C11.82 6.07, 11.82 5.73, 11.8 5.9" stroke="#e03131" stroke-width="1" fill="none"></path></g><g stroke-linecap="round" transform="translate(20.83793976691959 93.09634913762966) rotate(0 5.9002718712058595 5.9002718712058595)"><path d="M11.8 5.9 C11.8 6.24, 11.77 6.59, 11.71 6.92 C11.65 7.26, 11.56 7.6, 11.44 7.92 C11.33 8.24, 11.18 8.55, 11.01 8.85 C10.84 9.15, 10.64 9.43, 10.42 9.69 C10.2 9.95, 9.95 10.2, 9.69 10.42 C9.43 10.64, 9.15 10.84, 8.85 11.01 C8.55 11.18, 8.24 11.33, 7.92 11.44 C7.6 11.56, 7.26 11.65, 6.92 11.71 C6.59 11.77, 6.24 11.8, 5.9 11.8 C5.56 11.8, 5.21 11.77, 4.88 11.71 C4.54 11.65, 4.2 11.56, 3.88 11.44 C3.56 11.33, 3.25 11.18, 2.95 11.01 C2.65 10.84, 2.37 10.64, 2.11 10.42 C1.85 10.2, 1.6 9.95, 1.38 9.69 C1.16 9.43, 0.96 9.15, 0.79 8.85 C0.62 8.55, 0.47 8.24, 0.36 7.92 C0.24 7.6, 0.15 7.26, 0.09 6.92 C0.03 6.59, 0 6.24, 0 5.9 C0 5.56, 0.03 5.21, 0.09 4.88 C0.15 4.54, 0.24 4.2, 0.36 3.88 C0.47 3.56, 0.62 3.25, 0.79 2.95 C0.96 2.65, 1.16 2.37, 1.38 2.11 C1.6 1.85, 1.85 1.6, 2.11 1.38 C2.37 1.16, 2.65 0.96, 2.95 0.79 C3.25 0.62, 3.56 0.47, 3.88 0.36 C4.2 0.24, 4.54 0.15, 4.88 0.09 C5.21 0.03, 5.56 0, 5.9 0 C6.24 0, 6.59 0.03, 6.92 0.09 C7.26 0.15, 7.6 0.24, 7.92 0.36 C8.24 0.47, 8.55 0.62, 8.85 0.79 C9.15 0.96, 9.43 1.16, 9.69 1.38 C9.95 1.6, 10.2 1.85, 10.42 2.11 C10.64 2.37, 10.84 2.65, 11.01 2.95 C11.18 3.25, 11.33 3.56, 11.44 3.88 C11.56 4.2, 11.65 4.54, 11.71 4.88 C11.77 5.21, 11.79 5.73, 11.8 5.9 C11.82 6.07, 11.82 5.73, 11.8 5.9" stroke="#e03131" stroke-width="1" fill="none"></path></g><g transform="translate(49.36400868266992 54.36438111808093) rotate(0 4.44921875 9.199999999999818)"><text x="0" y="14.720312499999999" font-family="Helvetica, Segoe UI Emoji" font-size="16px" fill="#e03131" text-anchor="start" style="white-space: pre;" direction="ltr" dominant-baseline="alphabetic">1</text></g><g transform="translate(20.216944856251757 56.592250419540505) rotate(0 4.44921875 9.199999999999818)"><text x="0" y="14.720312499999999" font-family="Helvetica, Segoe UI Emoji" font-size="16px" fill="#e03131" text-anchor="start" style="white-space: pre;" direction="ltr" dominant-baseline="alphabetic">2</text></g><g transform="translate(10 85.04798316914639) rotate(0 4.44921875 9.199999999999818)"><text x="0" y="14.720312499999999" font-family="Helvetica, Segoe UI Emoji" font-size="16px" fill="#e03131" text-anchor="start" style="white-space: pre;" direction="ltr" dominant-baseline="alphabetic">3</text></g><g stroke-linecap="round" transform="translate(358.54482566008846 100.54322447176673) rotate(0 5.9002718712058595 5.9002718712058595)"><path d="M11.8 5.9 C11.8 6.24, 11.77 6.59, 11.71 6.92 C11.65 7.26, 11.56 7.6, 11.44 7.92 C11.33 8.24, 11.18 8.55, 11.01 8.85 C10.84 9.15, 10.64 9.43, 10.42 9.69 C10.2 9.95, 9.95 10.2, 9.69 10.42 C9.43 10.64, 9.15 10.84, 8.85 11.01 C8.55 11.18, 8.24 11.33, 7.92 11.44 C7.6 11.56, 7.26 11.65, 6.92 11.71 C6.59 11.77, 6.24 11.8, 5.9 11.8 C5.56 11.8, 5.21 11.77, 4.88 11.71 C4.54 11.65, 4.2 11.56, 3.88 11.44 C3.56 11.33, 3.25 11.18, 2.95 11.01 C2.65 10.84, 2.37 10.64, 2.11 10.42 C1.85 10.2, 1.6 9.95, 1.38 9.69 C1.16 9.43, 0.96 9.15, 0.79 8.85 C0.62 8.55, 0.47 8.24, 0.36 7.92 C0.24 7.6, 0.15 7.26, 0.09 6.92 C0.03 6.59, 0 6.24, 0 5.9 C0 5.56, 0.03 5.21, 0.09 4.88 C0.15 4.54, 0.24 4.2, 0.36 3.88 C0.47 3.56, 0.62 3.25, 0.79 2.95 C0.96 2.65, 1.16 2.37, 1.38 2.11 C1.6 1.85, 1.85 1.6, 2.11 1.38 C2.37 1.16, 2.65 0.96, 2.95 0.79 C3.25 0.62, 3.56 0.47, 3.88 0.36 C4.2 0.24, 4.54 0.15, 4.88 0.09 C5.21 0.03, 5.56 0, 5.9 0 C6.24 0, 6.59 0.03, 6.92 0.09 C7.26 0.15, 7.6 0.24, 7.92 0.36 C8.24 0.47, 8.55 0.62, 8.85 0.79 C9.15 0.96, 9.43 1.16, 9.69 1.38 C9.95 1.6, 10.2 1.85, 10.42 2.11 C10.64 2.37, 10.84 2.65, 11.01 2.95 C11.18 3.25, 11.33 3.56, 11.44 3.88 C11.56 4.2, 11.65 4.54, 11.71 4.88 C11.77 5.21, 11.79 5.73, 11.8 5.9 C11.82 6.07, 11.82 5.73, 11.8 5.9" stroke="#e03131" stroke-width="1" fill="none"></path></g><g stroke-linecap="round" transform="translate(338.0535475263132 92.83922521677232) rotate(0 5.9002718712058595 5.9002718712058595)"><path d="M11.8 5.9 C11.8 6.24, 11.77 6.59, 11.71 6.92 C11.65 7.26, 11.56 7.6, 11.44 7.92 C11.33 8.24, 11.18 8.55, 11.01 8.85 C10.84 9.15, 10.64 9.43, 10.42 9.69 C10.2 9.95, 9.95 10.2, 9.69 10.42 C9.43 10.64, 9.15 10.84, 8.85 11.01 C8.55 11.18, 8.24 11.33, 7.92 11.44 C7.6 11.56, 7.26 11.65, 6.92 11.71 C6.59 11.77, 6.24 11.8, 5.9 11.8 C5.56 11.8, 5.21 11.77, 4.88 11.71 C4.54 11.65, 4.2 11.56, 3.88 11.44 C3.56 11.33, 3.25 11.18, 2.95 11.01 C2.65 10.84, 2.37 10.64, 2.11 10.42 C1.85 10.2, 1.6 9.95, 1.38 9.69 C1.16 9.43, 0.96 9.15, 0.79 8.85 C0.62 8.55, 0.47 8.24, 0.36 7.92 C0.24 7.6, 0.15 7.26, 0.09 6.92 C0.03 6.59, 0 6.24, 0 5.9 C0 5.56, 0.03 5.21, 0.09 4.88 C0.15 4.54, 0.24 4.2, 0.36 3.88 C0.47 3.56, 0.62 3.25, 0.79 2.95 C0.96 2.65, 1.16 2.37, 1.38 2.11 C1.6 1.85, 1.85 1.6, 2.11 1.38 C2.37 1.16, 2.65 0.96, 2.95 0.79 C3.25 0.62, 3.56 0.47, 3.88 0.36 C4.2 0.24, 4.54 0.15, 4.88 0.09 C5.21 0.03, 5.56 0, 5.9 0 C6.24 0, 6.59 0.03, 6.92 0.09 C7.26 0.15, 7.6 0.24, 7.92 0.36 C8.24 0.47, 8.55 0.62, 8.85 0.79 C9.15 0.96, 9.43 1.16, 9.69 1.38 C9.95 1.6, 10.2 1.85, 10.42 2.11 C10.64 2.37, 10.84 2.65, 11.01 2.95 C11.18 3.25, 11.33 3.56, 11.44 3.88 C11.56 4.2, 11.65 4.54, 11.71 4.88 C11.77 5.21, 11.79 5.73, 11.8 5.9 C11.82 6.07, 11.82 5.73, 11.8 5.9" stroke="#e03131" stroke-width="1" fill="none"></path></g><g transform="translate(345.4788348937873 77.84405542231616) rotate(0 4.44921875 9.199999999999818)"><text x="0" y="14.720312499999999" font-family="Helvetica, Segoe UI Emoji" font-size="16px" fill="#e03131" text-anchor="start" style="white-space: pre;" direction="ltr" dominant-baseline="alphabetic">4</text></g><g transform="translate(370.87186502253644 92.62010371177894) rotate(0 4.44921875 9.199999999999818)"><text x="0" y="14.720312499999999" font-family="Helvetica, Segoe UI Emoji" font-size="16px" fill="#e03131" text-anchor="start" style="white-space: pre;" direction="ltr" dominant-baseline="alphabetic">5</text></g><g stroke-linecap="round" transform="translate(358.37912890186 121.3973247113372) rotate(0 5.9002718712058595 5.9002718712058595)"><path d="M11.8 5.9 C11.8 6.24, 11.77 6.59, 11.71 6.92 C11.65 7.26, 11.56 7.6, 11.44 7.92 C11.33 8.24, 11.18 8.55, 11.01 8.85 C10.84 9.15, 10.64 9.43, 10.42 9.69 C10.2 9.95, 9.95 10.2, 9.69 10.42 C9.43 10.64, 9.15 10.84, 8.85 11.01 C8.55 11.18, 8.24 11.33, 7.92 11.44 C7.6 11.56, 7.26 11.65, 6.92 11.71 C6.59 11.77, 6.24 11.8, 5.9 11.8 C5.56 11.8, 5.21 11.77, 4.88 11.71 C4.54 11.65, 4.2 11.56, 3.88 11.44 C3.56 11.33, 3.25 11.18, 2.95 11.01 C2.65 10.84, 2.37 10.64, 2.11 10.42 C1.85 10.2, 1.6 9.95, 1.38 9.69 C1.16 9.43, 0.96 9.15, 0.79 8.85 C0.62 8.55, 0.47 8.24, 0.36 7.92 C0.24 7.6, 0.15 7.26, 0.09 6.92 C0.03 6.59, 0 6.24, 0 5.9 C0 5.56, 0.03 5.21, 0.09 4.88 C0.15 4.54, 0.24 4.2, 0.36 3.88 C0.47 3.56, 0.62 3.25, 0.79 2.95 C0.96 2.65, 1.16 2.37, 1.38 2.11 C1.6 1.85, 1.85 1.6, 2.11 1.38 C2.37 1.16, 2.65 0.96, 2.95 0.79 C3.25 0.62, 3.56 0.47, 3.88 0.36 C4.2 0.24, 4.54 0.15, 4.88 0.09 C5.21 0.03, 5.56 0, 5.9 0 C6.24 0, 6.59 0.03, 6.92 0.09 C7.26 0.15, 7.6 0.24, 7.92 0.36 C8.24 0.47, 8.55 0.62, 8.85 0.79 C9.15 0.96, 9.43 1.16, 9.69 1.38 C9.95 1.6, 10.2 1.85, 10.42 2.11 C10.64 2.37, 10.84 2.65, 11.01 2.95 C11.18 3.25, 11.33 3.56, 11.44 3.88 C11.56 4.2, 11.65 4.54, 11.71 4.88 C11.77 5.21, 11.79 5.73, 11.8 5.9 C11.82 6.07, 11.82 5.73, 11.8 5.9" stroke="#e03131" stroke-width="1" fill="none"></path></g><g transform="translate(373.1076040613789 120.85553761213487) rotate(0 8.8984375 9.199999999999818)"><text x="0" y="14.720312499999999" font-family="Helvetica, Segoe UI Emoji" font-size="16px" fill="#e03131" text-anchor="start" style="white-space: pre;" direction="ltr" dominant-baseline="alphabetic">10</text></g></svg>