<svg class="excalidraw" version="1.1" xmlns="http://www.w3.org/2000/svg" viewBox="0 0 1277.678671259533 936.19140625" width="1277.678671259533" height="936.19140625">
  <!-- svg-source:excalidraw -->
  
  <defs>
    <style class="style-fonts">
      @font-face {
        font-family: "Virgil";
        src: url("https://excalidraw.com/Virgil.woff2");
      }
      @font-face {
        font-family: "Cascadia";
        src: url("https://excalidraw.com/Cascadia.woff2");
      }
    </style>
  </defs>
  <g stroke-linecap="round" transform="translate(183.87625524685245 10) rotate(0 458.095703125 458.095703125)"><path d="M262.54 42.97 C283 25.3, 313.78 23.37, 340.06 16.5 C366.33 9.63, 393.02 4.05, 420.18 1.74 C447.34 -0.58, 475.69 0.03, 503.02 2.64 C530.35 5.24, 557.99 9.89, 584.17 17.39 C610.34 24.9, 635.69 35.76, 660.06 47.66 C684.42 59.56, 708.48 72.89, 730.35 88.8 C752.22 104.7, 772.66 123.21, 791.27 143.08 C809.87 162.96, 827.2 184.94, 841.98 208.03 C856.75 231.11, 869.39 256.51, 879.91 281.6 C890.43 306.69, 899.16 331.87, 905.09 358.56 C911.03 385.24, 914.46 414.43, 915.5 441.7 C916.55 468.97, 915.2 495.34, 911.34 522.2 C907.48 549.06, 900.88 576.82, 892.33 602.88 C883.77 628.94, 872.89 654.48, 860 678.55 C847.1 702.61, 832.1 726.24, 814.94 747.26 C797.79 768.27, 777.76 786.98, 757.08 804.64 C736.39 822.29, 714.45 839.2, 690.85 853.18 C667.25 867.15, 641.26 879.25, 615.49 888.48 C589.71 897.72, 563.05 903.97, 536.19 908.58 C509.34 913.19, 481.6 916.28, 454.36 916.13 C427.12 915.99, 399.52 912.74, 372.75 907.72 C345.98 902.7, 319.12 895.79, 293.74 886.02 C268.35 876.24, 243.57 863.33, 220.44 849.06 C197.32 834.8, 175.45 818.53, 154.99 800.41 C134.52 782.29, 114.63 761.73, 97.66 740.32 C80.69 718.9, 65.8 695.91, 53.15 671.93 C40.51 647.95, 30.02 622.22, 21.78 596.43 C13.54 570.63, 7.3 544.1, 3.7 517.16 C0.1 490.23, -1.18 462.1, 0.18 434.83 C1.54 407.56, 5.55 380.35, 11.86 353.57 C18.16 326.78, 27.18 299.38, 38.01 274.11 C48.84 248.84, 61.7 224.56, 76.84 201.93 C91.97 179.31, 109.79 157.89, 128.81 138.36 C147.83 118.83, 166.22 101.66, 190.95 84.73 C215.68 67.81, 259.65 44.51, 277.17 36.81 C294.69 29.11, 293.08 31.33, 296.1 38.54 M459.03 0.84 C485.16 -6.38, 514.47 3.52, 541.08 8.26 C567.68 12.99, 593.13 19.86, 618.67 29.25 C644.2 38.64, 670.66 50.68, 694.3 64.6 C717.94 78.52, 740.35 94.88, 760.51 112.77 C780.67 130.66, 798.54 150.66, 815.27 171.93 C831.99 193.2, 847.52 216.44, 860.86 240.38 C874.2 264.32, 886.92 289.37, 895.31 315.56 C903.71 341.75, 907.59 370.29, 911.24 397.53 C914.88 424.76, 918.47 451.77, 917.19 478.95 C915.92 506.14, 909.95 534.05, 903.56 560.65 C897.17 587.25, 889.18 613.62, 878.84 638.55 C868.49 663.49, 856.42 687.68, 841.48 710.24 C826.54 732.81, 808.32 754.15, 789.2 773.94 C770.08 793.73, 748.75 812.67, 726.74 829 C704.74 845.33, 681.53 860.12, 657.17 871.92 C632.82 883.71, 607.23 892.56, 580.64 899.77 C554.05 906.99, 524.94 912.7, 497.62 915.23 C470.29 917.76, 443.49 917.4, 416.67 914.97 C389.85 912.53, 363.2 908.08, 336.7 900.62 C310.2 893.17, 282.14 882.15, 257.66 870.22 C233.18 858.29, 211.85 844.91, 189.84 829.06 C167.82 813.21, 144.63 794.98, 125.58 775.13 C106.53 755.28, 90.23 732.65, 75.55 709.97 C60.87 687.29, 48.17 664.27, 37.51 639.04 C26.84 613.81, 17.98 585.6, 11.56 558.59 C5.14 531.58, -0.01 504.15, -1.03 476.98 C-2.05 449.8, 1.61 422.55, 5.44 395.55 C9.28 368.54, 13.69 340.87, 21.96 314.93 C30.24 289, 42.28 263.95, 55.11 239.92 C67.93 215.89, 82.05 191.74, 98.89 170.76 C115.74 149.79, 135.57 131.67, 156.16 114.06 C176.74 96.44, 198.73 78.97, 222.41 65.06 C246.09 51.14, 272.6 40.03, 298.23 30.57 C323.86 21.11, 349.35 13.26, 376.17 8.29 C402.99 3.32, 445.25 0.73, 459.15 0.73 C473.05 0.73, 459.47 0.92, 459.57 8.31" stroke="none" stroke-width="0" fill="#ffffff"></path><path d="M411.99 2.45 C436.74 -7.66, 466.17 -1.22, 493.32 0.95 C520.47 3.11, 548.41 8.47, 574.91 15.45 C601.4 22.43, 627.75 31.29, 652.3 42.83 C676.85 54.37, 699.96 68.72, 722.22 84.7 C744.47 100.67, 766.67 119.34, 785.85 138.66 C805.02 157.98, 822.12 178.06, 837.27 200.6 C852.41 223.15, 865.77 248.72, 876.74 273.94 C887.71 299.15, 896.71 325.42, 903.07 351.9 C909.44 378.39, 913.26 405.75, 914.94 432.85 C916.63 459.96, 916.33 487.45, 913.19 514.55 C910.05 541.65, 904.35 569.38, 896.11 595.48 C887.88 621.58, 876.58 647.16, 863.76 671.14 C850.94 695.12, 836.04 717.78, 819.19 739.36 C802.35 760.93, 783.05 782.27, 762.7 800.57 C742.35 818.87, 720.23 834.97, 697.09 849.14 C673.95 863.31, 649.31 875.8, 623.87 885.6 C598.43 895.4, 571.37 902.9, 544.47 907.95 C517.57 913.01, 489.75 915.55, 462.46 915.92 C435.17 916.29, 407.52 914.73, 380.73 910.17 C353.94 905.61, 327.08 898.03, 301.72 888.56 C276.35 879.09, 251.95 866.87, 228.56 853.34 C205.16 839.82, 182.38 825.06, 161.33 807.38 C140.28 789.71, 119.49 768.58, 102.24 747.3 C84.99 726.01, 70.83 703.52, 57.82 679.67 C44.81 655.81, 32.95 629.82, 24.18 604.16 C15.41 578.51, 9.27 552.47, 5.22 525.73 C1.17 498.98, -0.99 470.99, -0.12 443.68 C0.74 416.38, 4.45 388.52, 10.4 361.89 C16.36 335.25, 25.15 309.02, 35.62 283.87 C46.1 258.71, 58.65 234.02, 73.24 210.94 C87.82 187.86, 104.72 165.45, 123.12 145.37 C141.53 125.3, 161.67 106.74, 183.66 90.5 C205.65 74.25, 230.38 60.06, 255.06 47.89 C279.73 35.73, 303.86 25.18, 331.7 17.53 C359.54 9.87, 405.07 3.26, 422.1 1.98 C439.13 0.7, 433.2 2.31, 433.88 9.84 M601.78 23.82 C628.42 24.67, 651.84 41.47, 675.58 54.33 C699.31 67.19, 722.88 83.87, 744.18 100.98 C765.48 118.08, 785.44 136.37, 803.39 156.96 C821.34 177.54, 837.68 200.85, 851.9 224.5 C866.12 248.14, 879.19 273.3, 888.71 298.85 C898.22 324.39, 904.37 350.82, 909 377.77 C913.63 404.72, 916.78 433.1, 916.49 460.54 C916.21 487.98, 912.51 515.9, 907.31 542.44 C902.1 568.98, 894.53 594.62, 885.28 619.77 C876.03 644.93, 865.5 669.73, 851.8 693.37 C838.11 717, 821.57 740.85, 803.13 761.59 C784.68 782.33, 762.72 801.17, 741.14 817.82 C719.56 834.47, 697.48 848.53, 673.66 861.47 C649.83 874.41, 624.26 886.83, 598.18 895.44 C572.1 904.05, 544.07 909.55, 517.17 913.1 C490.27 916.65, 463.78 918.18, 436.76 916.75 C409.75 915.32, 381.88 910.68, 355.06 904.54 C328.24 898.4, 300.71 890.91, 275.83 879.9 C250.95 868.9, 228.2 853.56, 205.78 838.5 C183.36 823.43, 161.15 808.5, 141.3 789.54 C121.45 770.58, 102.92 747.23, 86.7 724.75 C70.48 702.27, 55.75 679.2, 43.99 654.67 C32.22 630.14, 22.99 603.72, 16.13 577.57 C9.28 551.41, 5.39 524.76, 2.86 497.73 C0.33 470.69, -1.58 442.33, 0.95 415.36 C3.48 388.38, 10.53 362.31, 18.02 335.88 C25.52 309.45, 34 281.27, 45.91 256.78 C57.82 232.3, 73.3 210.84, 89.47 188.98 C105.65 167.11, 123.39 144.53, 142.95 125.6 C162.52 106.68, 184.13 90.08, 206.87 75.42 C229.61 60.75, 254.17 48.31, 279.39 37.61 C304.61 26.91, 331.78 17.5, 358.21 11.22 C384.64 4.95, 410.82 1.24, 437.99 -0.01 C465.16 -1.26, 494.11 -0.15, 521.23 3.74 C548.35 7.63, 587.89 18.75, 600.7 23.34 C613.51 27.92, 600.6 23.95, 598.09 31.25" stroke="#000000" stroke-width="4" fill="none"></path></g><g stroke-linecap="round" transform="translate(268.7948750385194 91.42903645833348) rotate(0 380.0162760416665 380.01627604166663)"><path d="M75.65 154.54 C75.65 154.54, 75.65 154.54, 75.65 154.54 M75.65 154.54 C75.65 154.54, 75.65 154.54, 75.65 154.54 M39.48 222.51 C72.37 180.71, 105.06 141.5, 135.69 108.1 M38.27 220.52 C61.39 195.78, 81.78 170.43, 136.28 109.31 M24.58 261.27 C82.5 194.19, 139.04 127.48, 195.67 63.25 M23.96 262.15 C70.21 210.33, 115.19 158.38, 195.91 64.45 M17.9 294.71 C70.65 234.91, 123.43 173.22, 252.43 24.67 M16.78 294.37 C84.26 219.73, 150.13 144.19, 252.71 23.88 M13.74 322.94 C68.45 259.19, 124.65 196.12, 280.71 16.35 M14.01 323.1 C90.54 233.36, 169 143.23, 280.62 16.41 M0.84 361.85 C74.78 275.4, 149.01 190.86, 306.94 10.2 M1.08 362.77 C73 280.19, 143.82 198.22, 307.26 10.24 M1.57 386.52 C117.77 252.12, 234.56 118.46, 329.74 8.89 M1.41 385.48 C127.68 241.97, 252.9 97.21, 329.89 8.26 M4.01 407.83 C79.8 323.64, 155.06 237.06, 352.28 8 M3.73 408.2 C124.01 269.52, 245.38 129.45, 351.49 7.52 M3.83 431.14 C86.04 337.66, 169.62 241.19, 373.18 6.65 M3.93 431.93 C120.45 300.3, 236.21 166.7, 373.33 6.9 M14.4 443.89 C139 300.69, 264.58 157.7, 399.6 0.91 M14.41 444.79 C169.45 267.9, 323.49 90.82, 399.77 1.63 M19.15 463.53 C124.12 339.35, 231.58 216.6, 418.93 4.82 M18.97 463.07 C150.64 312.58, 280.1 162.81, 417.81 4.26 M24.71 482.13 C113.49 378.32, 205.28 274.57, 436.66 7.11 M24.37 482.08 C177.49 308.06, 330.09 132.23, 437.6 6.45 M22.62 507.33 C131.3 385.87, 238.16 261.83, 455.76 9.96 M23.02 507.82 C119.94 396.67, 216.08 285.34, 455.81 9.64 M29.36 523.61 C166.25 367.09, 304.32 210.39, 473.97 12.08 M29.79 524.6 C187.64 342.66, 344.87 162.02, 474.67 12.48 M36.65 539.81 C195.31 361.34, 352.39 180.95, 491.01 17.88 M37.3 539.65 C157.18 400.33, 278.11 261.13, 490.78 18.29 M44.99 555.75 C169.95 412.97, 294.77 270.09, 506.36 25.22 M44.62 556.03 C163.59 417.43, 282.98 280.26, 506.72 24.69 M51.23 572.13 C173.63 432.4, 295.98 293.09, 522.31 31.14 M51.52 572.46 C182.17 418.79, 315.16 265.43, 522.8 30.12 M63.71 583.61 C223.34 398.91, 384.2 212.6, 538.99 35.97 M63.06 583.55 C204.4 419.95, 347.35 255.15, 538.8 36.61 M72.92 596 C212.24 434.69, 351.12 276.57, 551.5 44.73 M73.37 596.43 C242.2 400.39, 411.19 205.27, 552.55 45.47 M83.25 610.6 C189.45 485.59, 295.31 364.69, 566.19 53.93 M82.88 609.47 C234.25 437.01, 383.84 265.48, 565.32 54.05 M93.18 622.1 C219.75 472.41, 349.04 324.73, 580.37 63.03 M92.39 622.44 C253.33 437.74, 413.78 253.35, 579.81 62.33 M101.56 638.21 C288.87 424.37, 476.04 209.45, 593.01 71.22 M101.27 637.69 C209.15 509.8, 319.29 382.81, 593.54 70.71 M112.56 648.44 C221.73 520.74, 332.33 394.47, 609.3 78.34 M112.61 648.42 C266.76 469.7, 421.86 290.9, 608.91 77.78 M124.95 657.94 C297 459.37, 469.77 260.61, 620.45 88.3 M124.91 658.85 C320.73 436.96, 514.86 214.13, 621.27 87.93 M136.77 669.19 C287.06 494.5, 439.37 319.93, 633.17 97.92 M136.94 669.4 C322.91 454.87, 508.62 240.9, 633.08 98.58 M149.07 680.07 C258.46 553.67, 369.49 427.23, 643.89 109.65 M149.02 679.5 C287.29 525.34, 422.72 369.29, 644.45 109.99 M161.58 689.34 C304.5 526.51, 446.83 362.96, 657.17 119.94 M161.34 690.17 C283.52 551.81, 403.66 413.17, 657.02 119.93 M175.28 698.29 C352.16 494.71, 529.43 291.01, 669.45 130.81 M174.88 699.17 C344.75 502.12, 515.2 306.35, 668.36 130.79 M188.05 707.26 C308.16 570.53, 428.2 433.49, 678.94 144.32 M188.85 707.43 C291.46 591.13, 392.94 473.92, 678.62 143.92 M202.63 714.84 C341.12 556.88, 479.44 398.17, 687.52 156.34 M203.05 715.8 C388.69 501.74, 575.21 286.76, 687.87 156.97 M217.29 723.52 C344.15 578.97, 471.96 431.21, 698.07 170.63 M217.52 722.98 C323.27 603.39, 427.44 483.1, 697.34 170.61 M233.74 728.33 C414.86 521.37, 596.05 312.43, 705.64 185.06 M233.21 729.3 C415.75 516.94, 599.53 305.99, 705.62 185.56 M249.25 734.23 C417.47 544.85, 583.74 353.01, 713.84 201.45 M249.17 735.15 C427.94 529.99, 607.17 323.78, 713.03 201.02 M266.01 741.03 C362.2 630.85, 456.61 521.1, 720.56 217.29 M265.4 741.12 C385.79 605.8, 504.22 469.15, 721.18 217.22 M282.3 747.27 C437.28 566.97, 592.72 388.12, 728.21 232.88 M281.46 746.51 C410.21 599.65, 536.96 452.9, 728.67 232.79 M294.31 756.32 C460.19 563.69, 625.03 374.01, 735.2 248.06 M295.08 756.19 C432.88 597.46, 571.77 437.35, 735.7 249.06 M312.98 758.86 C472.09 577.05, 630.22 395.44, 746.96 260.01 M313.56 758.54 C421.65 636.08, 529.73 512.4, 746.16 260.51 M332.67 760.76 C440.48 635.02, 550.34 509.51, 751 278.81 M332.86 761.32 C492.26 577.84, 651.46 393.95, 751.78 279.52 M352.22 764.14 C498.13 594.49, 643.5 427.38, 757 298.96 M351.61 764.16 C460.85 637.2, 570.66 512.09, 756.13 298.11 M369.43 767.94 C490 628.01, 610.97 488.13, 761.2 318.53 M369.61 767.9 C484.03 633.94, 598.63 502.17, 760.84 317.92 M391.87 765.72 C540.77 594.35, 689.83 422.33, 767.13 335.81 M391.63 766.29 C507.49 634.1, 622.49 502.09, 766.27 335.45 M414.44 765.29 C530.09 631.66, 647.49 496.81, 768.81 357.98 M413.7 765.5 C484.94 682.98, 556.81 600.26, 768.58 357.5 M440.13 759.67 C554.81 628.51, 671.27 495.36, 769.18 380.79 M440.16 760.24 C560.83 618.91, 683.51 478.15, 770.05 380 M467.58 752.96 C587.34 616.84, 708.21 477.93, 768.54 405.64 M467.01 753.14 C547.76 662.05, 627.76 570.5, 768.63 406.21 M494.41 747.51 C551.57 681.06, 609.34 615.57, 763.87 435.54 M493.77 746.69 C561.56 671.86, 628.11 595.48, 764.36 434.86 M516.23 745.03 C595.27 652.63, 675.25 562.8, 750.85 474.87 M515.88 745.95 C598.23 648.43, 680.85 552.37, 752.12 474.61 M552.21 729.47 C625.93 646.07, 696.63 562.81, 735.81 516.63 M551.68 728.22 C619.49 650.73, 685.91 573.55, 735.02 517.5 M583.49 716.66 C624.4 672.47, 662.37 627.5, 731.05 547.59 M585.38 714.53 C633.98 657.89, 685.68 599.12, 729.27 547.61" stroke="#868e96" stroke-width="2" fill="none"></path><path d="M323.63 3.66 C345.91 -5.9, 373.83 -0.47, 398.65 0.77 C423.46 2.01, 448.7 5.1, 472.52 11.1 C496.35 17.09, 519.24 25.98, 541.6 36.74 C563.95 47.51, 586.71 61.13, 606.67 75.68 C626.62 90.23, 644.88 105.75, 661.35 124.03 C677.81 142.3, 692.78 163.86, 705.46 185.33 C718.13 206.79, 729.05 229.58, 737.38 252.83 C745.7 276.07, 751.62 300.46, 755.4 324.79 C759.17 349.12, 761.04 374.08, 760.05 398.81 C759.05 423.54, 755.51 449.11, 749.4 473.16 C743.29 497.2, 734.11 520.91, 723.37 543.08 C712.63 565.24, 699.76 586.23, 684.95 606.14 C670.15 626.05, 652.85 645.83, 634.51 662.55 C616.18 679.27, 596.04 693.84, 574.95 706.47 C553.86 719.09, 531.26 730.05, 507.97 738.3 C484.68 746.56, 459.8 752.5, 435.22 756.01 C410.64 759.51, 385.22 760.49, 360.51 759.33 C335.8 758.18, 310.85 755.08, 286.96 749.08 C263.08 743.07, 239.28 734.06, 217.22 723.31 C195.15 712.57, 174.24 699.13, 154.56 684.59 C134.87 670.06, 116.03 654.39, 99.12 636.11 C82.21 617.83, 65.79 596.26, 53.08 574.9 C40.36 553.54, 30.97 531.21, 22.83 507.95 C14.69 484.68, 7.9 459.59, 4.23 435.33 C0.55 411.06, -0.33 386.79, 0.8 362.34 C1.93 337.88, 5.05 312.63, 11.01 288.6 C16.96 264.57, 25.77 240.49, 36.53 218.16 C47.29 195.84, 60.8 174.45, 75.57 154.64 C90.33 134.82, 106.98 116.02, 125.12 99.27 C143.25 82.52, 163.39 66.97, 184.37 54.11 C205.36 41.25, 223.78 30.87, 251.02 22.12 C278.27 13.37, 327.79 4.09, 347.86 1.62 C367.94 -0.85, 371.04 0.93, 371.46 7.3 M453.53 8.11 C477.93 6.4, 502.78 18.72, 525.73 28.13 C548.68 37.54, 570.98 50.98, 591.25 64.58 C611.51 78.17, 630.03 92.41, 647.3 109.71 C664.58 127.01, 681.08 147.83, 694.89 168.39 C708.69 188.95, 720.58 210.25, 730.16 233.05 C739.74 255.86, 747.19 280.82, 752.37 305.24 C757.55 329.67, 761.17 354.91, 761.24 379.61 C761.3 404.31, 757.7 429.09, 752.78 453.44 C747.85 477.8, 741.29 502.69, 731.69 525.72 C722.08 548.75, 709.07 571.31, 695.14 591.62 C681.2 611.92, 665.09 630.36, 648.07 647.53 C631.04 664.7, 613.12 680.57, 592.97 694.62 C572.82 708.66, 550.4 722.03, 527.15 731.8 C503.9 741.57, 477.89 748.64, 453.46 753.23 C429.03 757.81, 405.03 759.16, 380.54 759.3 C356.06 759.44, 330.91 758.59, 306.54 754.08 C282.17 749.57, 257.05 741.67, 234.32 732.24 C211.6 722.81, 190.57 711.29, 170.21 697.48 C149.85 683.67, 129.94 666.83, 112.17 649.41 C94.4 631.98, 77.21 613.64, 63.6 592.91 C49.99 572.18, 39.72 547.8, 30.5 525.02 C21.28 502.24, 13.37 480.51, 8.3 456.23 C3.23 431.95, 0.4 404.42, 0.09 379.34 C-0.22 354.26, 1.66 329.93, 6.43 305.76 C11.19 281.58, 18.94 257, 28.67 234.3 C38.4 211.6, 51.28 190, 64.79 169.55 C78.31 149.11, 92.33 128.97, 109.76 111.63 C127.2 94.29, 148.73 79.48, 169.4 65.54 C190.08 51.6, 211.01 37.46, 233.82 28 C256.63 18.54, 281.97 13.52, 306.27 8.79 C330.58 4.07, 355.13 -0.15, 379.64 -0.35 C404.15 -0.55, 441.28 4.9, 453.33 7.62 C465.38 10.33, 453.04 9.8, 451.94 15.95" stroke="#1e1e1e" stroke-width="4" fill="none"></path></g><g stroke-linecap="round" transform="translate(362.2178069570755 189.9234110407192) rotate(0 283.955078125 283.955078125)"><path d="M188.95 16.56 C206.8 5.23, 229.92 4.86, 251.65 2.49 C273.37 0.12, 297.52 -0.19, 319.28 2.33 C341.04 4.84, 361.85 10.03, 382.22 17.56 C402.59 25.09, 423.16 35.33, 441.52 47.5 C459.88 59.66, 477.54 74.72, 492.39 90.56 C507.25 106.4, 520.02 123.64, 530.64 142.55 C541.27 161.46, 550.05 183.01, 556.13 204.03 C562.2 225.05, 565.85 246.9, 567.11 268.66 C568.36 290.43, 567.51 313.23, 563.64 334.63 C559.77 356.02, 552.6 376.91, 543.88 397.02 C535.16 417.13, 524.46 437.85, 511.34 455.27 C498.21 472.69, 482.16 487.73, 465.13 501.54 C448.09 515.34, 428.62 528.4, 409.13 538.08 C389.63 547.77, 369.16 554.54, 348.15 559.65 C327.14 564.77, 304.93 568.71, 283.04 568.79 C261.15 568.86, 238.04 565.31, 216.81 560.1 C195.59 554.88, 174.95 547.45, 155.69 537.52 C136.43 527.59, 117.95 514.56, 101.24 500.5 C84.54 486.44, 68.52 470.84, 55.46 453.16 C42.41 435.47, 31.51 414.75, 22.9 394.38 C14.28 374, 7.56 352.41, 3.79 330.92 C0.02 309.43, -1.03 287, 0.28 265.43 C1.58 243.87, 5.25 222.47, 11.61 201.53 C17.97 180.59, 27.35 158.58, 38.43 139.79 C49.5 121, 62.98 104.57, 78.06 88.8 C93.14 73.02, 107.83 58.09, 128.91 45.16 C149.99 32.23, 188.8 16.62, 204.53 11.23 C220.26 5.83, 221.76 8.1, 223.27 12.79 M304.54 0.15 C325.8 -3.22, 349.05 5.98, 369.64 12.54 C390.23 19.1, 409.4 28.3, 428.06 39.51 C446.72 50.72, 465.84 64.59, 481.59 79.81 C497.35 95.04, 510.78 112.38, 522.59 130.88 C534.4 149.39, 545.29 169.98, 552.47 190.86 C559.64 211.74, 563.55 234.54, 565.62 256.15 C567.69 277.77, 567.76 299.11, 564.87 320.56 C561.99 342, 556.02 364.29, 548.31 384.84 C540.61 405.38, 530.7 425.8, 518.64 443.85 C506.58 461.91, 491.73 478.62, 475.94 493.17 C460.15 507.72, 442.81 520.59, 423.92 531.14 C405.04 541.7, 383.68 550.46, 362.63 556.49 C341.58 562.52, 319.79 566.47, 297.61 567.33 C275.42 568.19, 251.4 565.82, 229.54 561.65 C207.68 557.48, 186.32 551.19, 166.42 542.31 C146.53 533.44, 127.45 521.6, 110.17 508.4 C92.89 495.2, 76.47 479.84, 62.77 463.13 C49.07 446.42, 37.52 427.78, 27.95 408.14 C18.38 388.51, 9.81 366.67, 5.37 345.32 C0.93 323.97, 0.89 301.94, 1.34 280.03 C1.79 258.11, 2.88 234.88, 8.08 213.85 C13.28 192.82, 22.27 172.95, 32.55 153.85 C42.84 134.75, 55.75 115.94, 69.79 99.26 C83.84 82.58, 99.11 66.77, 116.81 53.77 C134.52 40.77, 155.62 29.7, 176.03 21.25 C196.44 12.8, 218.07 6.62, 239.26 3.06 C260.45 -0.5, 292.52 -0.5, 303.17 -0.11 C313.82 0.29, 303.07 0.79, 303.17 5.43" stroke="none" stroke-width="0" fill="#ffffff"></path><path d="M299.49 0.74 C320.58 -2.7, 343.85 5.18, 364.64 11.36 C385.42 17.54, 405.24 26.77, 424.2 37.82 C443.16 48.86, 462.35 62.89, 478.39 77.65 C494.43 92.4, 508.5 108.17, 520.42 126.33 C532.35 144.49, 542.44 165.85, 549.95 186.61 C557.45 207.36, 562.83 229.21, 565.44 250.86 C568.04 272.51, 567.89 294.91, 565.58 316.49 C563.27 338.06, 558.77 359.73, 551.59 380.31 C544.41 400.89, 534.53 421.64, 522.49 439.99 C510.45 458.34, 495.35 475.56, 479.34 490.42 C463.34 505.28, 445.44 518.09, 426.48 529.13 C407.53 540.18, 386.53 550.21, 365.62 556.67 C344.7 563.13, 322.68 566.61, 301 567.88 C279.32 569.14, 257.06 568.04, 235.53 564.26 C214 560.47, 192.02 553.87, 171.82 545.17 C151.61 536.47, 131.88 524.98, 114.3 512.07 C96.72 499.15, 80.33 484.33, 66.33 467.66 C52.34 450.99, 39.9 431.69, 30.31 412.03 C20.72 392.38, 13.72 370.77, 8.78 349.73 C3.84 328.7, 1.06 307.62, 0.67 285.82 C0.27 264.02, 1.48 240.35, 6.43 218.93 C11.38 197.51, 20.46 176.82, 30.37 157.29 C40.29 137.75, 51.98 118.31, 65.91 101.72 C79.84 85.13, 96.56 70.59, 113.94 57.72 C131.32 44.86, 150.24 33.28, 170.2 24.51 C190.17 15.74, 209.85 8.77, 233.73 5.09 C257.61 1.42, 298.22 1.7, 313.49 2.44 C328.75 3.18, 325.98 4.99, 325.32 9.54 M154.42 32.23 C170.68 18.47, 193.93 13.13, 215.21 7.86 C236.49 2.59, 260.18 0.67, 282.11 0.6 C304.04 0.53, 325.63 2.55, 346.79 7.44 C367.94 12.33, 389.28 20.49, 409.04 29.94 C428.8 39.4, 448.38 50.3, 465.33 64.17 C482.29 78.03, 497.9 95.85, 510.79 113.14 C523.68 130.43, 534.08 148.09, 542.68 167.91 C551.29 187.73, 558.37 210.57, 562.41 232.06 C566.45 253.56, 567.89 275.08, 566.91 296.87 C565.93 318.67, 562.28 341.68, 556.54 362.85 C550.79 384.02, 543.14 404.88, 532.42 423.88 C521.71 442.87, 507.24 460.7, 492.26 476.82 C477.29 492.95, 460.88 508.29, 442.57 520.64 C424.25 532.98, 403.06 543.53, 382.38 550.92 C361.69 558.31, 339.7 562.57, 318.45 564.97 C297.21 567.38, 276.26 567.38, 254.93 565.33 C233.59 563.28, 211.46 559.68, 190.44 552.68 C169.42 545.67, 147.36 535.43, 128.8 523.32 C110.24 511.22, 94 495.7, 79.1 480.06 C64.19 464.42, 50.59 448.03, 39.37 429.5 C28.15 410.96, 18.12 389.73, 11.79 368.86 C5.45 347.99, 2.63 326.17, 1.37 304.28 C0.1 282.38, 0.89 259.02, 4.21 237.5 C7.53 215.98, 12.7 195.5, 21.31 175.16 C29.91 154.83, 42.72 133.09, 55.87 115.5 C69.02 97.9, 83.82 83.81, 100.21 69.57 C116.59 55.32, 144.88 35.69, 154.17 30.04 C163.46 24.39, 153.79 31.37, 155.95 35.66" stroke="#1e1e1e" stroke-width="4" fill="none"></path></g><g stroke-linecap="round" transform="translate(486.2262085683933 316.7571368907238) rotate(0 153.09846698113188 153.09846698113188)"><path d="M38.46 51.98 C38.46 51.98, 38.46 51.98, 38.46 51.98 M38.46 51.98 C38.46 51.98, 38.46 51.98, 38.46 51.98 M17.11 100.99 C34.51 80.07, 49.83 64.94, 82.17 27.62 M18.62 99.23 C31.47 83.46, 45.21 68.3, 81.11 27.81 M1.44 141.91 C30.55 110.69, 56.81 77.93, 121.99 6.96 M1.97 142.55 C35.49 106.17, 70.27 67.46, 121.18 6.29 M4.09 166.41 C51.51 107.95, 99.13 51.74, 143.06 3.27 M3.03 164.66 C35.45 128.93, 65.65 92.52, 143.58 4.34 M4.33 187.98 C59.2 124.55, 112.56 61.44, 166.21 0.51 M3.69 188.88 C47.52 139.87, 90.05 90.73, 166.45 1.75 M11.55 205.6 C50.06 162.31, 88.59 116.77, 183.5 7.48 M10.15 205.18 C60.12 150.48, 108.54 95.07, 183.85 6.5 M17.75 221.61 C55.17 177.85, 94.76 134.49, 202.29 10.05 M18.13 221.83 C70.14 159.99, 124.35 97.8, 202.18 10.13 M26.47 235.34 C72.52 181.37, 118.66 129.7, 216.93 17.04 M26.88 236.87 C71.94 185.08, 115.39 134.27, 217.47 17.11 M36.22 250.45 C105.4 169.57, 174.88 90.92, 231.33 25.8 M35.93 248.53 C111.76 163.96, 185.54 77.79, 231.62 24.64 M48.57 260.14 C91.86 213.83, 135.39 163.75, 246.52 33.91 M48.05 260.83 C115.91 182.63, 184.85 102.51, 245.08 33.03 M56.66 272.89 C101.06 223.91, 147.11 170.36, 258.07 41.94 M56.85 274.3 C120.79 203.33, 183.97 129.87, 258.34 42.38 M71.55 281.08 C135.14 208.1, 200.66 135.41, 269.85 53.23 M71.56 282.72 C151.68 191.73, 231.39 100.26, 270.15 54.54 M84.74 291.62 C135.19 229.95, 189.02 169.64, 281.25 67.75 M84.41 290.77 C150 217.06, 212.73 143.33, 279.17 66.72 M100.1 299.49 C139.31 251.66, 183.55 204.22, 288.44 80.7 M99.46 299.38 C170.3 219.96, 240.97 138.14, 290.21 79.47 M115.42 303.19 C161.98 254.4, 206.42 201.12, 296.11 97.07 M116.21 304.13 C157.1 257.85, 197.17 210.34, 296.21 96.45 M132.55 307.11 C184.71 247.71, 238.47 190.14, 302.07 111.96 M133.42 309.1 C193.83 238.52, 254.04 169.73, 303.48 112.77 M147.48 314.67 C205.24 252.46, 262.42 187.29, 312.28 126.64 M148.81 314.34 C191.58 265.02, 235.5 214.34, 311.81 127.46 M172.49 312.67 C210.08 269.24, 249.11 225.89, 312.46 152.13 M171.68 313.28 C207.8 270.08, 244.39 228.37, 313.25 150.97 M194.93 309.18 C225.52 275.37, 259.23 240.18, 312.44 176.32 M195.65 310.02 C227.61 271.68, 261.38 231.93, 313.68 173.78 M237.22 288.55 C255.42 264.99, 276.54 237.55, 299.29 214.92 M235.59 288.4 C253.88 266.51, 272.09 244.67, 298.83 216.51" stroke="#868e96" stroke-width="2" fill="none"></path><path d="M118.54 3.71 C132.43 -2.06, 149.52 -0.72, 165.25 0.82 C180.98 2.36, 198.28 7, 212.92 12.96 C227.56 18.92, 241.28 26.29, 253.07 36.58 C264.86 46.87, 275.55 60.9, 283.67 74.67 C291.78 88.45, 298.19 103.87, 301.77 119.21 C305.34 134.54, 306.31 151.08, 305.12 166.68 C303.93 182.28, 300.54 198.22, 294.62 212.8 C288.7 227.37, 280.03 242.13, 269.6 254.12 C259.17 266.12, 245.71 276.79, 232.03 284.77 C218.35 292.74, 202.99 298.32, 187.54 301.96 C172.09 305.6, 155.08 307.83, 139.34 306.61 C123.61 305.39, 107.54 300.87, 93.12 294.66 C78.7 288.44, 64.75 279.73, 52.8 269.34 C40.86 258.95, 29.73 245.93, 21.45 232.31 C13.17 218.69, 6.72 202.9, 3.11 187.6 C-0.49 172.3, -1.61 156.21, -0.18 140.5 C1.25 124.78, 5.31 108.04, 11.71 93.33 C18.11 78.61, 27.76 63.96, 38.25 52.23 C48.74 40.49, 60.59 31.22, 74.64 22.91 C88.7 14.6, 113.38 5.38, 122.6 2.37 C131.82 -0.64, 129.29 2.33, 129.96 4.84 M180.36 2.29 C195.46 2.73, 211.31 11.39, 225.29 18.79 C239.26 26.2, 253.17 35.71, 264.23 46.74 C275.28 57.77, 284.89 71.16, 291.63 84.98 C298.37 98.81, 302.63 113.92, 304.67 129.7 C306.7 145.48, 306.46 163.75, 303.84 179.67 C301.22 195.58, 296.35 211.39, 288.93 225.17 C281.51 238.94, 270.53 251.35, 259.32 262.32 C248.12 273.29, 235.74 283.87, 221.7 290.99 C207.66 298.1, 190.82 302.69, 175.08 305.01 C159.34 307.34, 142.66 307.76, 127.27 304.94 C111.89 302.12, 96.63 295.42, 82.78 288.07 C68.92 280.73, 55.46 272.26, 44.15 260.87 C32.83 249.48, 22.09 234.02, 14.88 219.74 C7.67 205.46, 3.11 190.75, 0.89 175.18 C-1.34 159.61, -1.21 141.86, 1.54 126.31 C4.29 110.77, 9.73 95.65, 17.39 81.89 C25.04 68.13, 36.15 54.77, 47.47 43.75 C58.78 32.74, 71.29 22.66, 85.28 15.79 C99.28 8.92, 116.01 4.62, 131.43 2.53 C146.84 0.45, 170.11 2.95, 177.76 3.29 C185.41 3.62, 177.34 2.37, 177.32 4.54" stroke="#1e1e1e" stroke-width="4" fill="none"></path></g><g stroke-linecap="round" transform="translate(554.5669765901412 386.20976612036634) rotate(0 85.2034198113206 85.2034198113206)"><path d="M66.43 2.91 C76.98 -0.77, 90.7 -0.58, 102.02 1.57 C113.34 3.72, 124.86 9.28, 134.36 15.82 C143.87 22.35, 153.02 31.03, 159.05 40.79 C165.08 50.55, 169.35 62.64, 170.53 74.39 C171.71 86.14, 169.77 99.99, 166.12 111.27 C162.47 122.55, 156.06 133.67, 148.63 142.06 C141.2 150.46, 131.85 156.94, 121.54 161.64 C111.22 166.34, 98.5 169.96, 86.76 170.27 C75.02 170.57, 61.65 168.1, 51.1 163.46 C40.55 158.82, 31.12 150.82, 23.45 142.43 C15.79 134.03, 8.83 123.88, 5.1 113.08 C1.37 102.29, 0.1 89.34, 1.08 77.66 C2.06 65.98, 5.31 53, 10.97 43.02 C16.62 33.04, 24.86 24.72, 34.99 17.81 C45.11 10.89, 64.28 4.16, 71.72 1.53 C79.15 -1.1, 79.44 0.79, 79.62 2.02 M62.97 3.33 C72.99 -0.8, 84.7 -1.14, 96.14 0.66 C107.57 2.45, 121.62 8.13, 131.56 14.1 C141.5 20.06, 149.35 26.81, 155.8 36.44 C162.24 46.07, 168.17 60.34, 170.23 71.86 C172.3 83.39, 171.21 94.51, 168.2 105.57 C165.19 116.63, 159.36 128.83, 152.17 138.2 C144.98 147.57, 135.16 156.47, 125.07 161.82 C114.98 167.16, 103.33 169.78, 91.63 170.28 C79.94 170.78, 65.83 168.9, 54.91 164.82 C43.99 160.75, 34.28 153.7, 26.1 145.81 C17.91 137.92, 10.15 128.15, 5.79 117.48 C1.43 106.81, -0.36 93.28, -0.07 81.79 C0.22 70.29, 2.3 58.88, 7.54 48.5 C12.79 38.12, 22.55 27.31, 31.38 19.53 C40.21 11.75, 55.42 4.24, 60.5 1.84 C65.58 -0.56, 61.49 3.38, 61.87 5.12" stroke="none" stroke-width="0" fill="#ffffff"></path><path d="M97.49 1.29 C108.55 1.9, 121.95 8.46, 131.76 14.57 C141.57 20.67, 150.16 28.25, 156.34 37.89 C162.52 47.53, 167.04 60.74, 168.83 72.41 C170.63 84.09, 170.08 96.81, 167.11 107.95 C164.14 119.09, 158.1 130.37, 151 139.25 C143.9 148.12, 134.57 155.9, 124.5 161.21 C114.43 166.52, 102.22 170.4, 90.57 171.1 C78.93 171.8, 65.6 169.7, 54.63 165.4 C43.66 161.11, 33.04 153.42, 24.76 145.33 C16.49 137.24, 9.18 127.51, 4.99 116.86 C0.81 106.21, -1.03 93.03, -0.34 81.41 C0.35 69.8, 3.92 57.53, 9.13 47.16 C14.33 36.78, 22.05 26.59, 30.88 19.18 C39.71 11.77, 50.02 5.47, 62.11 2.7 C74.21 -0.07, 95.63 2.18, 103.46 2.57 C111.29 2.96, 109.14 3.85, 109.09 5.06 M112.24 5.57 C122.79 8.2, 134.73 15.27, 143.18 23.09 C151.63 30.9, 158.17 41.95, 162.95 52.46 C167.72 62.98, 171.68 74.69, 171.81 86.17 C171.95 97.65, 168.72 110.58, 163.75 121.34 C158.78 132.1, 150.68 143.09, 141.98 150.73 C133.28 158.37, 122.54 164.07, 111.54 167.18 C100.54 170.28, 87.7 171.11, 76 169.37 C64.3 167.64, 51.46 162.57, 41.34 156.79 C31.21 151.01, 21.81 143.78, 15.24 134.69 C8.66 125.59, 4.17 113.73, 1.89 102.21 C-0.38 90.69, -1.11 76.85, 1.58 65.56 C4.28 54.27, 11.01 43.56, 18.06 34.47 C25.12 25.39, 33.96 16.59, 43.94 11.06 C53.91 5.53, 66.25 2.43, 77.91 1.27 C89.58 0.12, 108.07 3.15, 113.94 4.13 C119.81 5.12, 113.91 5.95, 113.14 7.2" stroke="#1e1e1e" stroke-width="4" fill="none"></path></g><g stroke-linecap="round" transform="translate(610.8853782594169 451.10566414873233) rotate(0 27.258254716981128 27.258254716981014)"><path d="M28.19 0.23 C33.99 -0.07, 41.4 2.4, 45.68 6.29 C49.97 10.19, 53.01 17.77, 53.9 23.6 C54.78 29.44, 53.92 36.4, 51 41.32 C48.08 46.23, 41.86 51.1, 36.38 53.1 C30.9 55.1, 23.66 55.36, 18.1 53.33 C12.55 51.31, 5.89 46.24, 3.06 40.93 C0.23 35.61, 0.07 27.32, 1.13 21.43 C2.18 15.54, 4.3 9.18, 9.4 5.59 C14.5 2.01, 27.5 0.57, 31.72 -0.09 C35.94 -0.75, 34.8 0.98, 34.72 1.64 M30.41 1.1 C35.78 1.51, 41.8 5.47, 45.61 9.4 C49.42 13.33, 52.46 19.19, 53.28 24.67 C54.1 30.16, 53.6 37.31, 50.54 42.31 C47.47 47.31, 40.99 53, 34.89 54.68 C28.78 56.36, 19.36 55.24, 13.9 52.4 C8.45 49.55, 4.31 42.86, 2.16 37.61 C0.01 32.37, -0.48 26.3, 1.01 20.95 C2.49 15.6, 6.11 8.8, 11.08 5.52 C16.05 2.23, 27.6 2.02, 30.82 1.24 C34.04 0.46, 30.72 0.39, 30.41 0.86" stroke="none" stroke-width="0" fill="#e03131"></path><path d="M23.67 1.18 C29.22 -0.12, 36.57 0.28, 41.4 3.32 C46.23 6.37, 50.87 13.63, 52.65 19.45 C54.44 25.26, 54.3 32.84, 52.13 38.24 C49.96 43.64, 44.61 49.19, 39.61 51.83 C34.62 54.48, 27.65 55.25, 22.15 54.1 C16.64 52.95, 10.31 49.45, 6.58 44.93 C2.86 40.41, -0.18 33.01, -0.17 27 C-0.17 20.98, 2.02 13.18, 6.64 8.85 C11.25 4.51, 23.2 2.19, 27.5 0.99 C31.81 -0.21, 32.39 1.29, 32.48 1.66 M19.14 0.02 C24.45 -1.75, 33.41 -0.99, 38.76 1.75 C44.12 4.48, 48.95 10.96, 51.29 16.44 C53.62 21.91, 53.85 29.4, 52.76 34.61 C51.68 39.81, 49.45 44.21, 44.8 47.67 C40.15 51.13, 30.93 55.46, 24.86 55.38 C18.78 55.3, 12.56 51.29, 8.33 47.2 C4.1 43.12, -0.13 36.79, -0.53 30.86 C-0.93 24.94, 2.38 16.6, 5.94 11.65 C9.51 6.71, 18.42 2.68, 20.86 1.21 C23.29 -0.26, 20.43 2.34, 20.58 2.84" stroke="#1e1e1e" stroke-width="4" fill="none"></path></g><g stroke-linecap="round"><g transform="translate(21.00213829279346 247.92414245246187) rotate(0 199.1707145297031 114.64303758765084)"><path d="M-0.34 -1.06 C66.04 37.3, 332.05 191.88, 398.68 230.34 M1.68 1 C67.9 38.96, 331.64 190.09, 397.9 228.4" stroke="#1e1e1e" stroke-width="4" fill="none"></path></g><g transform="translate(21.00213829279346 247.92414245246187) rotate(0 199.1707145297031 114.64303758765084)"><path d="M366.59 223.77 C378.72 226.85, 387.47 225.2, 396.9 229.8 M368.9 223.71 C376.14 225.47, 384.37 225.85, 398.5 228.1" stroke="#1e1e1e" stroke-width="4" fill="none"></path></g><g transform="translate(21.00213829279346 247.92414245246187) rotate(0 199.1707145297031 114.64303758765084)"><path d="M376.82 205.98 C385.6 214.92, 390.96 219.16, 396.9 229.8 M379.13 205.92 C383.9 212.19, 389.51 217.14, 398.5 228.1" stroke="#1e1e1e" stroke-width="4" fill="none"></path></g></g><mask></mask><g stroke-linecap="round"><g transform="translate(10.973336716368749 270.81226218077836) rotate(0 14.05859446909858 -5.9127591544576035)"><path d="M0.32 0.35 C5.22 -1.51, 24.63 -10.03, 29.09 -12.17 M-0.97 -0.52 C3.9 -2.1, 23.64 -8.95, 28.71 -10.78" stroke="#1e1e1e" stroke-width="4" fill="none"></path></g></g><mask></mask><g stroke-linecap="round"><g transform="translate(28.61901268199108 245.5891509408575) rotate(299.99999999999983 14.753041931955295 -6.386636357922043)"><path d="M1.09 -0.28 C5.55 -2.42, 22.45 -10.47, 27.08 -12.5 M0.2 -1.47 C5 -3.49, 24.59 -9.62, 29.31 -11.27" stroke="#1e1e1e" stroke-width="4" fill="none"></path></g></g><mask></mask><g stroke-linecap="round"><g transform="translate(22.984861579811877 278.53935363077153) rotate(0 13.956950513390893 -5.360430816132521)"><path d="M-0.92 -0.6 C3.7 -2.62, 23.85 -10.43, 28.84 -12.42 M0.79 1.7 C5.24 -0.14, 23.66 -8.95, 28.33 -11.16" stroke="#1e1e1e" stroke-width="4" fill="none"></path></g></g><mask></mask><g stroke-linecap="round"><g transform="translate(40.63053754543489 253.31624239085068) rotate(299.99999999999983 14.419111603019928 -5.351937720645196)"><path d="M0.84 -0.52 C5.83 -2.51, 24.39 -10.72, 29.02 -12.52 M-0.19 1.82 C4.82 0.03, 23.87 -8.78, 28.61 -11.31" stroke="#1e1e1e" stroke-width="4" fill="none"></path></g></g><mask></mask><g stroke-linecap="round"><g transform="translate(36.09614061565571 284.44110080139785) rotate(0 14.379323873190287 -5.748820075411231)"><path d="M1.02 -0.62 C5.66 -2.43, 24.13 -9.6, 28.66 -11.33 M0.1 1.66 C4.56 -0.45, 23.48 -10.74, 28.06 -13.16" stroke="#1e1e1e" stroke-width="4" fill="none"></path></g></g><mask></mask><g stroke-linecap="round"><g transform="translate(53.74181658127782 259.217989561477) rotate(299.99999999999983 13.872129179058788 -6.040361342597748)"><path d="M0.66 0.56 C5.19 -1.16, 23.48 -8.88, 28.2 -10.99 M-0.46 -0.19 C3.84 -2.19, 22.49 -10.85, 27.36 -12.64" stroke="#1e1e1e" stroke-width="4" fill="none"></path></g></g><mask></mask><g stroke-linecap="round"><g transform="translate(861.2810382041944 245.7673405319165) rotate(119.99999999999997 199.09659895146888 115.75950251782751)"><path d="M0.2 0.9 C66.65 39.1, 332.87 191.65, 399.35 229.77 M-1.16 0.33 C65.16 38.67, 332.28 192.79, 398.92 231.19" stroke="#1e1e1e" stroke-width="4" fill="none"></path></g><g transform="translate(861.2810382041944 245.7673405319165) rotate(119.99999999999997 199.09659895146888 115.75950251782751)"><path d="M370.88 227.64 C379.51 228.99, 389.76 229.16, 397.48 233.13 M369.86 225.42 C377.03 226.47, 384.24 227.94, 399.35 230.85" stroke="#1e1e1e" stroke-width="4" fill="none"></path></g><g transform="translate(861.2810382041944 245.7673405319165) rotate(119.99999999999997 199.09659895146888 115.75950251782751)"><path d="M381.13 209.86 C386.2 217.54, 392.82 224.01, 397.48 233.13 M380.12 207.64 C384.76 213.22, 389.35 219.23, 399.35 230.85" stroke="#1e1e1e" stroke-width="4" fill="none"></path></g></g><mask></mask><g stroke-linecap="round"><g transform="translate(1229.7121443696087 248.26777199618118) rotate(119.99999999999997 14.381886695740832 -6.243464260715996)"><path d="M0.98 -0.23 C5.74 -2.42, 24.27 -10.17, 28.72 -12.26 M0.04 -1.39 C4.68 -3.49, 23.69 -9.16, 28.15 -10.92" stroke="#1e1e1e" stroke-width="4" fill="none"></path></g></g><mask></mask><g stroke-linecap="round"><g transform="translate(1241.6144505792063 276.3927245867769) rotate(419.99999999999983 13.676287942199224 -6.564099352974381)"><path d="M0.72 -0.37 C5.17 -2.46, 22.97 -10.75, 27.72 -12.76 M-0.36 -1.6 C3.82 -3.54, 21.72 -10.05, 26.62 -11.68" stroke="#1e1e1e" stroke-width="4" fill="none"></path></g></g><mask></mask><g stroke-linecap="round"><g transform="translate(1216.038183516952 255.04788499996744) rotate(119.99999999999997 14.440716342000542 -5.569888540077841)"><path d="M-0.29 -0.87 C4.46 -2.88, 24.35 -10.58, 29.17 -12.43 M1.76 1.29 C6.39 -0.53, 24.43 -9.17, 28.83 -11.18" stroke="#1e1e1e" stroke-width="4" fill="none"></path></g></g><mask></mask><g stroke-linecap="round"><g transform="translate(1227.6642262271762 283.3686374863257) rotate(419.99999999999983 14.465319035617767 -5.102958788592332)"><path d="M1.17 -0.54 C5.98 -2.39, 24.04 -9.99, 28.61 -12 M0.32 1.8 C5.06 0.21, 23.35 -8.28, 27.98 -10.52" stroke="#1e1e1e" stroke-width="4" fill="none"></path></g></g><mask></mask><g stroke-linecap="round"><g transform="translate(1204.0690668400712 263.1354275568103) rotate(119.99999999999997 14.031352996347778 -6.346977072376717)"><path d="M0.61 -0.11 C5.18 -2.11, 24.01 -10.45, 28.59 -12.59 M-0.53 -1.21 C3.83 -3.03, 23.3 -9.58, 27.95 -11.41" stroke="#1e1e1e" stroke-width="4" fill="none"></path></g></g><mask></mask><g stroke-linecap="round"><g transform="translate(1215.7692527144745 291.3010974109809) rotate(419.99999999999983 13.775355816750107 -5.697496755141742)"><path d="M0.59 -0.69 C5.17 -2.83, 23.59 -10.94, 28.11 -12.95 M-0.56 1.56 C3.82 -0.46, 22.66 -9.73, 27.22 -11.97" stroke="#1e1e1e" stroke-width="4" fill="none"></path></g></g><mask></mask></svg>