<svg version="1.1" xmlns="http://www.w3.org/2000/svg" viewBox="0 0 431.82577046049425 187.11438228828956" width="431.82577046049425" height="187.11438228828956">
  <!-- svg-source:excalidraw -->
  
  <defs>
    <style class="style-fonts">
      @font-face {
        font-family: "Virgil";
        src: url("https://excalidraw.com/Virgil.woff2");
      }
      @font-face {
        font-family: "Cascadia";
        src: url("https://excalidraw.com/Cascadia.woff2");
      }
      @font-face {
        font-family: "Assistant";
        src: url("https://excalidraw.com/Assistant-Regular.woff2");
      }
    </style>
    
  </defs>
  <g stroke-linecap="round" transform="translate(15.235591594096604 59.255110690146466) rotate(0 37.23722138313519 52.86054153310306)"><path d="M6.93 21.48 C10.13 13.6, 16.6 4.07, 23.25 0.91 C29.9 -2.25, 39.78 0.21, 46.83 2.52 C53.89 4.84, 60.84 8.28, 65.55 14.8 C70.27 21.32, 74.32 31.87, 75.12 41.64 C75.92 51.41, 73.27 64.15, 70.35 73.41 C67.43 82.66, 62.66 91.86, 57.59 97.15 C52.52 102.45, 46.3 105.22, 39.93 105.2 C33.55 105.17, 25.31 101.58, 19.33 97.01 C13.36 92.44, 7.62 85.74, 4.09 77.79 C0.57 69.84, -5.88 61.75, -1.81 49.29 C2.26 36.83, 20.09 10.37, 28.51 3.03 C36.92 -4.3, 48.93 4.41, 48.7 5.28 M7.26 23.47 C10.07 15.51, 14.6 8.26, 21.07 4.32 C27.55 0.37, 39.32 -1.85, 46.12 -0.19 C52.92 1.47, 56.98 7.95, 61.9 14.26 C66.83 20.57, 74.38 27.83, 75.67 37.68 C76.96 47.53, 72.53 63.37, 69.65 73.34 C66.78 83.31, 63.34 91.96, 58.43 97.51 C53.51 103.06, 46.28 106.07, 40.16 106.64 C34.05 107.21, 27.75 105.11, 21.74 100.93 C15.74 96.76, 7.64 90.18, 4.12 81.6 C0.6 73.02, 0.51 59.23, 0.6 49.46 C0.69 39.7, 3.79 27.33, 4.66 23.01 C5.54 18.7, 4.77 22.73, 5.85 23.57" stroke="none" stroke-width="0" fill="#ccbdac"></path><path d="M58.49 10.69 C63.78 15.99, 70.19 26.48, 72.54 35.56 C74.89 44.64, 73.83 56.31, 72.58 65.16 C71.32 74.01, 69.63 82.37, 65.02 88.67 C60.42 94.97, 51.7 100.95, 44.94 102.96 C38.17 104.98, 30.88 103.97, 24.44 100.76 C18.01 97.55, 10.51 91.21, 6.33 83.69 C2.15 76.18, -0.25 64.84, -0.64 55.66 C-1.02 46.49, 1.06 37.01, 4.03 28.63 C7.01 20.25, 11.22 10.12, 17.23 5.36 C23.24 0.6, 30.29 -7.7, 40.12 0.07 C49.95 7.84, 72.84 36.4, 76.21 51.98 C79.58 67.57, 61.32 93.74, 60.34 93.56 M35.24 2.38 C41.49 2.1, 49.41 5.41, 55.45 10.45 C61.48 15.49, 68.72 24.39, 71.46 32.62 C74.2 40.86, 72.67 50.83, 71.89 59.88 C71.11 68.93, 71.22 79.35, 66.77 86.91 C62.33 94.46, 52.2 102.19, 45.23 105.22 C38.25 108.24, 31.18 108.4, 24.92 105.06 C18.65 101.71, 12.21 93.01, 7.64 85.17 C3.08 77.32, -1.96 66.81, -2.46 57.97 C-2.95 49.13, 1.52 40.3, 4.67 32.11 C7.82 23.93, 10.67 14.33, 16.44 8.87 C22.21 3.41, 36.32 0.47, 39.28 -0.65 C42.25 -1.77, 34.26 1.48, 34.22 2.14" stroke="#1e1e1e" stroke-width="1" fill="none"></path></g><g stroke-opacity="0.7" fill-opacity="0.7" stroke-linecap="round" transform="translate(15.470914887936942 59.231890978227966) rotate(0 36.57717281684563 52.86054153310306)"><path d="M33.51 -1.94 C40.05 -3.04, 49.9 3.54, 56.09 8.48 C62.28 13.42, 67.63 19.54, 70.66 27.68 C73.69 35.83, 75.43 47.48, 74.24 57.36 C73.06 67.24, 68.13 79.15, 63.56 86.97 C58.99 94.78, 52.69 101.48, 46.83 104.25 C40.98 107.02, 34.47 106.42, 28.41 103.58 C22.35 100.74, 15.15 93.97, 10.5 87.19 C5.86 80.41, 2.15 71.75, 0.54 62.89 C-1.07 54.03, -1.92 42.77, 0.83 34.03 C3.59 25.29, 9.81 15.68, 17.08 10.45 C24.35 5.21, 38.3 2.76, 44.45 2.64 C50.6 2.51, 54.23 8.96, 53.98 9.7 M53.26 8.44 C59.1 12.1, 68.14 20.35, 71.22 28.75 C74.29 37.14, 72.45 49.66, 71.73 58.82 C71.01 67.99, 71.39 75.82, 66.91 83.72 C62.43 91.63, 51.81 102.39, 44.87 106.25 C37.93 110.1, 31.26 109.64, 25.28 106.83 C19.3 104.03, 12.82 96.78, 8.97 89.42 C5.12 82.05, 3.32 71.8, 2.2 62.63 C1.07 53.45, -0.21 43.43, 2.22 34.38 C4.64 25.33, 11.52 13.88, 16.74 8.32 C21.95 2.76, 27.3 0.93, 33.5 1.01 C39.71 1.08, 50.15 6.98, 53.98 8.77 C57.81 10.55, 56.74 10.71, 56.47 11.71" stroke="none" stroke-width="0" fill="#6f4e37"></path><path d="M10.29 18.49 C14.12 11.54, 19.86 6, 26.36 3.16 C32.86 0.32, 42.95 -1.07, 49.3 1.43 C55.66 3.93, 60.57 10.85, 64.5 18.17 C68.43 25.49, 72.28 35.83, 72.87 45.34 C73.45 54.85, 71.08 66.65, 68.03 75.24 C64.97 83.83, 60.05 91.67, 54.54 96.87 C49.03 102.06, 41.74 106.71, 34.96 106.4 C28.18 106.1, 19.15 100.56, 13.88 95.02 C8.61 89.47, 5.27 81.79, 3.34 73.14 C1.41 64.48, -3.75 55.36, 2.31 43.1 C8.37 30.83, 29.24 3.28, 39.7 -0.47 C50.16 -4.22, 65.28 19.74, 65.07 20.6 M25.49 3.88 C31.79 0.78, 42.11 1.94, 48.31 4.48 C54.51 7.01, 58.37 12.1, 62.69 19.1 C67.01 26.09, 73.56 36.64, 74.24 46.44 C74.92 56.24, 70.23 69.06, 66.77 77.91 C63.31 86.77, 58.96 95.36, 53.5 99.58 C48.03 103.81, 40.71 104.21, 33.97 103.26 C27.23 102.31, 18.01 98.69, 13.05 93.89 C8.09 89.09, 6.4 82.74, 4.22 74.45 C2.04 66.17, -1.29 53.86, -0.03 44.19 C1.24 34.52, 7.74 23.33, 11.82 16.44 C15.89 9.54, 21.48 5.42, 24.4 2.81 C27.33 0.21, 28.63 -0.07, 29.38 0.8" stroke="#1e1e1e" stroke-width="4" fill="none"></path></g><g stroke-opacity="0.7" fill-opacity="0.7" transform="translate(60.0997182322908 73.36825959251473) rotate(0 -8.021533205310732 33.188913835720996)" stroke="none"><path fill="#1e1e1e" d="M 2.81,4.19 Q 2.81,4.19 1.49,5.18 0.18,6.17 -1.20,7.83 -2.60,9.49 -3.05,11.72 -3.50,13.96 -2.83,15.99 -2.16,18.02 -0.94,19.87 0.28,21.73 1.53,23.62 2.78,25.51 3.76,27.75 4.73,30.00 5.16,32.39 5.58,34.78 5.67,37.35 5.76,39.93 5.72,42.57 5.68,45.21 5.38,48.03 5.09,50.85 4.09,53.44 3.10,56.03 1.42,58.60 -0.25,61.17 -2.13,63.31 -4.01,65.44 -5.81,66.96 -7.61,68.47 -8.11,66.74 -8.61,65.02 -8.60,66.20 -8.59,67.38 -8.96,68.51 -9.33,69.63 -10.04,70.58 -10.75,71.53 -11.72,72.20 -12.69,72.87 -13.83,73.20 -14.97,73.52 -16.15,73.47 -17.33,73.42 -18.43,72.99 -19.53,72.56 -20.44,71.80 -21.35,71.04 -21.97,70.04 -22.59,69.03 -22.85,67.87 -23.12,66.72 -23.00,65.54 -22.88,64.37 -22.39,63.29 -21.91,62.21 -21.10,61.35 -20.29,60.48 -19.25,59.92 -18.21,59.35 -17.05,59.15 -15.88,58.95 -14.71,59.13 -13.54,59.31 -12.49,59.86 -11.44,60.40 -10.62,61.26 -9.80,62.11 -9.30,63.18 -8.79,64.25 -8.65,65.42 -8.52,66.60 -8.76,67.75 -9.00,68.91 -9.61,69.93 -10.21,70.95 -11.10,71.72 -12.00,72.50 -13.09,72.94 -14.19,73.39 -15.37,73.46 -16.55,73.54 -17.69,73.23 -18.83,72.92 -19.82,72.27 -20.80,71.61 -21.53,70.68 -22.25,69.74 -22.64,68.62 -23.02,67.51 -23.02,67.51 -23.02,67.51 -18.73,61.39 -14.44,55.28 -12.76,53.22 -11.07,51.16 -10.04,48.63 -9.01,46.11 -8.90,43.87 -8.80,41.64 -8.80,38.90 -8.81,36.15 -9.46,33.78 -10.11,31.41 -11.28,29.47 -12.45,27.53 -13.62,25.35 -14.79,23.18 -15.50,20.83 -16.21,18.49 -16.22,15.87 -16.23,13.25 -15.80,10.98 -15.37,8.71 -14.27,6.53 -13.18,4.35 -11.56,2.50 -9.94,0.65 -7.79,-0.92 -5.64,-2.51 -4.22,-3.35 -2.81,-4.19 -2.26,-4.46 -1.72,-4.74 -1.13,-4.88 -0.53,-5.01 0.06,-5.00 0.67,-5.00 1.26,-4.84 1.85,-4.69 2.38,-4.40 2.92,-4.11 3.37,-3.70 3.82,-3.29 4.16,-2.78 4.50,-2.28 4.70,-1.71 4.91,-1.14 4.98,-0.53 5.04,0.06 4.96,0.67 4.88,1.27 4.65,1.84 4.43,2.40 4.08,2.90 3.73,3.39 3.27,3.79 2.80,4.19 2.80,4.19 L 2.81,4.19 Z"></path></g><g stroke-opacity="0.7" fill-opacity="0.7" transform="translate(49.40889517825326 92.50518177080266) rotate(0 5.0640182330027415 17.67660713611258)" stroke="none"><path fill="#1e1e1e" d="M 4.47,-1.49 Q 4.47,-1.49 4.85,-0.67 5.23,0.15 6.46,2.00 7.69,3.85 9.05,5.57 10.40,7.28 11.76,9.28 13.11,11.27 13.97,13.41 14.82,15.56 15.14,17.89 15.45,20.23 15.24,22.47 15.02,24.71 14.45,26.94 13.88,29.18 13.31,31.25 12.75,33.32 12.77,33.31 12.79,33.31 12.51,34.12 12.23,34.94 11.76,35.66 11.30,36.39 10.67,36.98 10.04,37.57 9.29,38.00 8.54,38.42 7.71,38.65 6.88,38.89 6.02,38.91 5.16,38.94 4.32,38.76 3.47,38.58 2.70,38.20 1.92,37.83 1.26,37.28 0.60,36.73 0.09,36.03 -0.42,35.34 -0.75,34.54 -1.08,33.75 -1.21,32.90 -1.34,32.04 -1.26,31.19 -1.18,30.33 -0.39,28.08 0.39,25.84 0.90,23.76 1.40,21.68 1.39,19.36 1.38,17.04 0.50,14.95 -0.38,12.86 -1.80,11.13 -3.22,9.39 -4.55,7.70 -5.89,6.01 -6.74,3.86 -7.59,1.72 -7.74,-0.42 -7.89,-2.56 -7.50,-4.77 -7.10,-6.97 -6.08,-8.97 -5.06,-10.97 -4.09,-12.15 -3.12,-13.32 -2.41,-13.93 -1.70,-14.54 -0.86,-14.96 -0.03,-15.38 0.87,-15.59 1.79,-15.79 2.72,-15.78 3.66,-15.76 4.56,-15.52 5.46,-15.28 6.28,-14.83 7.10,-14.38 7.79,-13.75 8.48,-13.12 9.00,-12.34 9.52,-11.56 9.83,-10.68 10.15,-9.80 10.25,-8.87 10.34,-7.94 10.21,-7.02 10.09,-6.09 9.74,-5.22 9.39,-4.35 8.85,-3.59 8.30,-2.83 9.31,-5.34 10.32,-7.85 9.68,-5.71 9.04,-3.57 10.28,-1.70 11.51,0.16 12.50,2.15 13.48,4.14 14.03,6.20 14.58,8.26 12.97,6.06 11.35,3.86 13.02,5.52 14.69,7.18 15.44,9.30 16.18,11.42 16.95,13.74 17.72,16.05 18.04,18.44 18.36,20.83 18.46,22.98 18.56,25.13 18.26,27.46 17.95,29.79 17.09,31.78 16.22,33.78 14.81,35.58 13.39,37.39 11.95,39.03 10.51,40.67 8.95,42.21 7.40,43.74 7.64,43.51 7.87,43.27 7.21,43.96 6.55,44.65 5.74,45.16 4.93,45.67 4.02,45.98 3.12,46.28 2.16,46.35 1.21,46.43 0.27,46.28 -0.67,46.12 -1.55,45.75 -2.43,45.37 -3.19,44.80 -3.96,44.22 -4.56,43.48 -5.17,42.74 -5.58,41.88 -5.99,41.01 -6.18,40.08 -6.37,39.14 -6.33,38.18 -6.29,37.23 -6.03,36.31 -5.76,35.39 -5.28,34.56 -4.80,33.73 -3.27,32.20 -1.74,30.68 -0.45,28.63 0.82,26.59 1.72,24.39 2.63,22.18 2.95,19.90 3.28,17.61 2.42,15.58 1.55,13.55 -0.06,11.81 -1.69,10.06 -2.93,8.29 -4.17,6.52 -5.22,4.61 -6.27,2.70 -2.76,3.71 0.74,4.72 2.93,4.15 5.12,3.58 6.45,1.51 7.77,-0.55 9.40,1.03 11.02,2.61 12.27,4.51 13.51,6.40 14.64,8.47 15.76,10.53 16.39,12.82 17.03,15.10 17.20,17.32 17.38,19.54 17.36,21.96 17.33,24.39 17.11,26.70 16.90,29.01 16.24,31.34 15.58,33.67 14.53,35.76 13.48,37.84 12.31,39.62 11.15,41.41 9.83,43.32 8.52,45.23 6.55,47.05 4.57,48.87 3.82,49.46 3.07,50.05 2.20,50.45 1.34,50.84 0.40,51.01 -0.53,51.19 -1.48,51.13 -2.43,51.07 -3.34,50.79 -4.26,50.51 -5.07,50.02 -5.89,49.53 -6.56,48.85 -7.24,48.18 -7.73,47.37 -8.23,46.55 -8.51,45.64 -8.80,44.73 -8.86,43.78 -8.92,42.83 -8.75,41.89 -8.58,40.95 -8.19,40.08 -7.80,39.21 -7.21,38.46 -6.62,37.71 -7.74,41.05 -8.85,44.40 -8.83,43.12 -8.80,41.84 -8.36,40.64 -7.93,39.43 -7.13,38.43 -6.34,37.43 -5.26,36.74 -4.19,36.04 -2.95,35.73 -1.71,35.41 -0.43,35.51 0.84,35.60 2.01,36.10 3.19,36.60 4.15,37.45 5.11,38.30 5.74,39.41 6.38,40.52 6.63,41.78 6.88,43.03 6.71,44.30 6.54,45.57 5.98,46.72 5.42,47.87 4.52,48.78 3.62,49.69 2.47,50.27 1.33,50.84 0.06,51.02 -1.19,51.20 -2.45,50.96 -3.71,50.73 -4.83,50.11 -5.95,49.48 -6.80,48.53 -7.66,47.59 -8.18,46.41 -8.69,45.24 -8.80,43.96 -8.91,42.69 -8.61,41.45 -8.30,40.20 -7.62,39.12 -6.94,38.04 -5.94,37.23 -4.95,36.42 -3.75,35.98 -2.55,35.53 -1.27,35.49 0.00,35.45 1.22,35.82 2.45,36.19 3.49,36.93 4.53,37.67 5.29,38.70 6.04,39.74 5.31,44.31 4.57,48.87 3.82,49.46 3.07,50.05 2.21,50.45 1.34,50.84 0.40,51.01 -0.53,51.19 -1.48,51.13 -2.43,51.07 -3.34,50.79 -4.25,50.51 -5.07,50.02 -5.89,49.53 -6.56,48.85 -7.24,48.18 -7.73,47.37 -8.23,46.55 -8.51,45.64 -8.80,44.73 -8.86,43.78 -8.92,42.83 -8.75,41.89 -8.58,40.95 -8.19,40.08 -7.80,39.21 -7.21,38.46 -6.63,37.71 -4.64,35.64 -2.66,33.57 -1.34,31.62 -0.03,29.68 0.71,27.65 1.46,25.63 1.52,23.27 1.58,20.91 1.33,18.68 1.09,16.44 -0.00,14.61 -1.11,12.78 -2.45,11.03 -3.78,9.28 -5.08,7.30 -6.38,5.32 -7.12,2.91 -7.86,0.51 -7.73,-1.67 -7.61,-3.85 -6.35,-5.61 -5.09,-7.36 -2.85,-7.96 -0.61,-8.56 2.80,-7.70 6.21,-6.84 7.43,-4.81 8.64,-2.77 9.86,-1.01 11.07,0.74 12.61,2.44 14.15,4.15 15.37,6.08 16.59,8.00 17.41,10.15 18.23,12.29 18.61,14.93 19.00,17.56 18.91,19.79 18.82,22.01 18.32,24.26 17.83,26.51 16.91,29.01 15.99,31.52 14.93,33.62 13.88,35.72 12.58,37.71 11.28,39.71 9.58,41.49 7.87,43.27 7.21,43.96 6.55,44.65 5.74,45.16 4.93,45.67 4.02,45.98 3.12,46.28 2.16,46.35 1.21,46.43 0.27,46.28 -0.67,46.12 -1.55,45.75 -2.43,45.37 -3.19,44.80 -3.96,44.22 -4.56,43.48 -5.17,42.74 -5.58,41.88 -5.99,41.01 -6.18,40.08 -6.37,39.14 -6.33,38.18 -6.29,37.23 -6.03,36.31 -5.76,35.39 -5.28,34.56 -4.80,33.73 -4.67,33.56 -4.54,33.38 -2.92,31.75 -1.31,30.11 0.11,28.50 1.55,26.89 2.12,24.72 2.69,22.56 2.34,20.41 1.99,18.26 2.02,16.10 2.06,13.94 0.29,11.63 -1.47,9.33 -2.46,7.26 -3.45,5.19 -4.38,3.16 -5.31,1.14 -5.81,-1.23 -6.32,-3.61 -5.73,-5.93 -5.14,-8.25 -4.13,-10.79 -3.12,-13.32 -2.41,-13.93 -1.70,-14.54 -0.86,-14.96 -0.03,-15.38 0.87,-15.59 1.79,-15.79 2.72,-15.78 3.66,-15.76 4.56,-15.52 5.46,-15.28 6.28,-14.83 7.10,-14.39 7.79,-13.75 8.48,-13.12 9.00,-12.34 9.52,-11.56 9.83,-10.68 10.15,-9.80 10.25,-8.87 10.34,-7.94 10.21,-7.02 10.09,-6.09 9.74,-5.22 9.39,-4.35 8.85,-3.59 8.30,-2.83 7.81,-2.23 7.33,-1.63 8.70,0.04 10.08,1.71 11.34,3.47 12.60,5.22 13.62,7.30 14.64,9.38 15.24,11.45 15.84,13.52 16.04,15.71 16.24,17.90 16.09,20.60 15.94,23.29 15.28,26.04 14.63,28.79 13.71,31.05 12.79,33.31 12.51,34.12 12.23,34.94 11.76,35.66 11.30,36.39 10.67,36.98 10.04,37.57 9.29,38.00 8.54,38.42 7.71,38.65 6.88,38.89 6.02,38.91 5.16,38.94 4.32,38.76 3.48,38.58 2.70,38.20 1.92,37.83 1.26,37.28 0.60,36.73 0.09,36.03 -0.41,35.34 -0.75,34.54 -1.08,33.75 -1.21,32.90 -1.34,32.04 -1.26,31.19 -1.18,30.33 -0.95,29.50 -0.72,28.67 0.03,26.52 0.78,24.36 1.43,22.32 2.07,20.28 1.62,18.07 1.18,15.85 0.17,13.70 -0.83,11.55 -1.86,9.61 -2.89,7.67 -3.48,5.47 -4.08,3.26 -4.28,2.38 -4.47,1.49 -4.59,0.94 -4.70,0.38 -4.68,-0.18 -4.65,-0.75 -4.50,-1.29 -4.34,-1.84 -4.06,-2.33 -3.77,-2.83 -3.38,-3.24 -2.98,-3.65 -2.50,-3.95 -2.02,-4.26 -1.48,-4.44 -0.94,-4.62 -0.38,-4.67 0.18,-4.71 0.74,-4.62 1.30,-4.53 1.83,-4.31 2.35,-4.08 2.81,-3.74 3.26,-3.40 3.62,-2.96 3.98,-2.52 4.23,-2.01 4.47,-1.49 4.47,-1.49 L 4.47,-1.49 Z"></path></g><g stroke-linecap="round" transform="translate(97.15121147102855 59.255110690146466) rotate(0 37.23722138313525 52.86054153310306)"><path d="M56.66 5.4 C62.03 9.57, 65.88 19.94, 68.63 28.76 C71.37 37.57, 73.28 48.99, 73.15 58.27 C73.01 67.55, 71.56 77.31, 67.82 84.42 C64.08 91.54, 57.18 97.49, 50.71 100.95 C44.24 104.41, 35.99 106.77, 28.99 105.18 C21.99 103.6, 13.19 98.18, 8.7 91.44 C4.22 84.7, 3.34 74.16, 2.08 64.74 C0.82 55.32, -0.87 43.78, 1.13 34.91 C3.13 26.04, 8.78 17.26, 14.09 11.5 C19.4 5.75, 24.31 -0.7, 33 0.38 C41.68 1.46, 59.71 12.77, 66.21 17.98 C72.71 23.19, 72.57 30.9, 71.99 31.64 M25.06 1.17 C30.48 -2.43, 35.02 1.14, 40.98 3.78 C46.94 6.42, 55.49 10.83, 60.8 16.99 C66.11 23.15, 70.57 31.8, 72.83 40.72 C75.08 49.65, 76.48 61.26, 74.33 70.54 C72.18 79.82, 65.33 90.69, 59.93 96.39 C54.53 102.09, 48.85 103.93, 41.92 104.74 C34.99 105.54, 24.76 105.19, 18.37 101.22 C11.97 97.26, 6.41 88.8, 3.54 80.96 C0.67 73.12, 0.88 63.44, 1.14 54.17 C1.41 44.9, 1.57 33.62, 5.13 25.32 C8.68 17.01, 19.06 7.35, 22.49 4.34 C25.92 1.33, 25.39 5.99, 25.71 7.25" stroke="none" stroke-width="0" fill="#ccbdac"></path><path d="M62.04 12.65 C66.85 18.17, 71.68 28.64, 73.23 37.91 C74.77 47.18, 73.53 59.15, 71.31 68.26 C69.08 77.37, 64.97 86.24, 59.9 92.55 C54.84 98.86, 47.77 105.07, 40.91 106.12 C34.05 107.17, 24.6 103.23, 18.74 98.86 C12.89 94.48, 8.61 87.92, 5.78 79.88 C2.95 71.84, 1.45 60.21, 1.76 50.61 C2.07 41, 4.18 30.27, 7.64 22.24 C11.1 14.22, 16.51 6.15, 22.53 2.46 C28.55 -1.23, 36.09 -3.56, 43.77 0.1 C51.46 3.75, 63.59 18.01, 68.65 24.39 C73.7 30.78, 74.31 37.69, 74.1 38.4 M60.34 9.54 C65.75 14.58, 67.36 26.02, 69.27 35.2 C71.19 44.38, 72.95 55.95, 71.82 64.61 C70.69 73.27, 67.31 80.95, 62.5 87.13 C57.69 93.32, 48.99 98.96, 42.94 101.73 C36.89 104.5, 32.14 106.44, 26.2 103.77 C20.25 101.09, 11.24 93.48, 7.26 85.67 C3.28 77.86, 3.3 66.29, 2.31 56.92 C1.33 47.55, -1.73 38.1, 1.34 29.44 C4.4 20.78, 14.27 9.67, 20.69 4.98 C27.12 0.29, 33.94 0.43, 39.87 1.29 C45.81 2.16, 53.21 8.86, 56.31 10.18 C59.41 11.51, 58.06 9.03, 58.49 9.24" stroke="#1e1e1e" stroke-width="1" fill="none"></path></g><g stroke-opacity="0.7" fill-opacity="0.7" stroke-linecap="round" transform="translate(97.38653476486888 59.231890978227966) rotate(0 36.57717281684569 52.86054153310306)"><path d="M8.51 17.45 C12.01 10.77, 19.73 5.28, 26.53 2.76 C33.33 0.24, 42.73 -0.26, 49.3 2.34 C55.87 4.93, 62.01 10.68, 65.95 18.34 C69.89 26, 72.73 38.29, 72.94 48.29 C73.15 58.28, 69.97 69.77, 67.21 78.32 C64.44 86.86, 61.93 94.84, 56.35 99.56 C50.77 104.27, 40.71 106.98, 33.73 106.61 C26.75 106.24, 19.94 102.92, 14.45 97.33 C8.97 91.74, 2.93 82.07, 0.81 73.07 C-1.31 64.08, -4.44 55.8, 1.72 43.34 C7.88 30.89, 27.5 2.42, 37.77 -1.65 C48.05 -5.71, 63.68 17.9, 63.38 18.93 M27.76 3.72 C33.19 2.46, 42.8 3.77, 49.24 7.21 C55.68 10.65, 62.13 16.74, 66.4 24.33 C70.66 31.92, 74.75 42.99, 74.85 52.74 C74.96 62.49, 70.66 75, 67.04 82.83 C63.42 90.66, 59.33 95.81, 53.14 99.73 C46.96 103.65, 36.86 107.21, 29.93 106.35 C23 105.5, 16.08 100.32, 11.57 94.6 C7.06 88.87, 4.83 80.81, 2.87 71.99 C0.91 63.16, -1.65 51.32, -0.2 41.66 C1.25 32, 6.04 20.47, 11.58 14.02 C17.13 7.56, 29.87 4.46, 33.05 2.91 C36.23 1.36, 31.05 4.66, 30.67 4.74" stroke="none" stroke-width="0" fill="#6f4e37"></path><path d="M15.1 8.21 C19.75 2.36, 26.85 -0.67, 33.32 -1.12 C39.79 -1.58, 48.03 0.48, 53.91 5.51 C59.79 10.54, 65.74 20.6, 68.61 29.06 C71.48 37.51, 71.56 46.87, 71.12 56.24 C70.69 65.6, 69.44 77.57, 66 85.24 C62.57 92.91, 56.63 99.15, 50.49 102.24 C44.36 105.32, 35.98 106.13, 29.21 103.76 C22.44 101.38, 14.62 94.86, 9.87 87.98 C5.12 81.09, 2.01 71.75, 0.7 62.47 C-0.61 53.18, -5.67 42.63, 2.02 32.27 C9.72 21.91, 35.52 0.7, 46.85 0.3 C58.19 -0.11, 70.24 29.04, 70.03 29.85 M29.85 2.02 C35.48 0.58, 44.74 3.36, 50.83 6.89 C56.92 10.42, 63.16 15.71, 66.4 23.21 C69.65 30.7, 70 41.78, 70.28 51.88 C70.57 61.99, 71.44 75.48, 68.09 83.83 C64.74 92.18, 56.13 98.56, 50.19 101.97 C44.25 105.38, 39.33 105.81, 32.44 104.28 C25.56 102.76, 13.79 99.5, 8.89 92.83 C4 86.16, 4.14 73.46, 3.07 64.27 C1.99 55.07, 1.17 46.36, 2.45 37.66 C3.73 28.96, 5.78 18.56, 10.76 12.07 C15.75 5.59, 28.4 0.98, 32.37 -1.27 C36.34 -3.51, 34.98 -2.73, 34.57 -1.4" stroke="#1e1e1e" stroke-width="4" fill="none"></path></g><g stroke-opacity="0.7" fill-opacity="0.7" transform="translate(142.01533810922285 73.36825959251473) rotate(0 -8.021533205310732 33.188913835720996)" stroke="none"><path fill="#1e1e1e" d="M 2.81,4.19 Q 2.81,4.19 1.49,5.18 0.18,6.17 -1.20,7.83 -2.60,9.49 -3.05,11.72 -3.50,13.96 -2.83,15.99 -2.16,18.02 -0.94,19.87 0.28,21.73 1.53,23.62 2.78,25.51 3.76,27.75 4.73,30.00 5.16,32.39 5.58,34.78 5.67,37.35 5.76,39.93 5.72,42.57 5.68,45.21 5.38,48.03 5.09,50.85 4.09,53.44 3.10,56.03 1.42,58.60 -0.25,61.17 -2.13,63.31 -4.01,65.44 -5.81,66.96 -7.61,68.47 -8.11,66.74 -8.61,65.02 -8.60,66.20 -8.59,67.38 -8.96,68.51 -9.33,69.63 -10.04,70.58 -10.75,71.53 -11.72,72.20 -12.69,72.87 -13.83,73.20 -14.97,73.52 -16.15,73.47 -17.33,73.42 -18.43,72.99 -19.53,72.56 -20.44,71.80 -21.35,71.04 -21.97,70.04 -22.59,69.03 -22.85,67.87 -23.12,66.72 -23.00,65.54 -22.88,64.37 -22.39,63.29 -21.91,62.21 -21.10,61.35 -20.29,60.48 -19.25,59.92 -18.21,59.35 -17.05,59.15 -15.88,58.95 -14.71,59.13 -13.54,59.31 -12.49,59.86 -11.44,60.40 -10.62,61.26 -9.80,62.11 -9.30,63.18 -8.79,64.25 -8.65,65.42 -8.52,66.60 -8.76,67.75 -9.00,68.91 -9.61,69.93 -10.21,70.95 -11.10,71.72 -12.00,72.50 -13.09,72.94 -14.19,73.39 -15.37,73.46 -16.55,73.54 -17.69,73.23 -18.83,72.92 -19.82,72.27 -20.80,71.61 -21.53,70.68 -22.25,69.74 -22.64,68.62 -23.02,67.51 -23.02,67.51 -23.02,67.51 -18.73,61.39 -14.44,55.28 -12.76,53.22 -11.07,51.16 -10.04,48.63 -9.01,46.11 -8.90,43.87 -8.80,41.64 -8.80,38.90 -8.81,36.15 -9.46,33.78 -10.11,31.41 -11.28,29.47 -12.45,27.53 -13.62,25.35 -14.79,23.18 -15.50,20.83 -16.21,18.49 -16.22,15.87 -16.23,13.25 -15.80,10.98 -15.37,8.71 -14.27,6.53 -13.18,4.35 -11.56,2.50 -9.94,0.65 -7.79,-0.92 -5.64,-2.51 -4.22,-3.35 -2.81,-4.19 -2.26,-4.46 -1.72,-4.74 -1.13,-4.88 -0.53,-5.01 0.06,-5.00 0.67,-5.00 1.26,-4.84 1.85,-4.69 2.38,-4.40 2.92,-4.11 3.37,-3.70 3.82,-3.29 4.16,-2.78 4.50,-2.28 4.70,-1.71 4.91,-1.14 4.98,-0.53 5.04,0.06 4.96,0.67 4.88,1.27 4.65,1.84 4.43,2.40 4.08,2.90 3.73,3.39 3.27,3.79 2.80,4.19 2.80,4.19 L 2.81,4.19 Z"></path></g><g stroke-opacity="0.7" fill-opacity="0.7" transform="translate(131.3245150551844 92.50518177080266) rotate(0 5.064018233002798 17.67660713611258)" stroke="none"><path fill="#1e1e1e" d="M 4.47,-1.49 Q 4.47,-1.49 4.85,-0.67 5.23,0.15 6.46,2.00 7.69,3.85 9.05,5.57 10.40,7.28 11.76,9.28 13.11,11.27 13.97,13.41 14.82,15.56 15.14,17.89 15.45,20.23 15.24,22.47 15.02,24.71 14.45,26.94 13.88,29.18 13.31,31.25 12.75,33.32 12.77,33.31 12.79,33.31 12.51,34.12 12.23,34.94 11.76,35.66 11.30,36.39 10.67,36.98 10.04,37.57 9.29,38.00 8.54,38.42 7.71,38.65 6.88,38.89 6.02,38.91 5.16,38.94 4.32,38.76 3.47,38.58 2.70,38.20 1.92,37.83 1.26,37.28 0.60,36.73 0.09,36.03 -0.42,35.34 -0.75,34.54 -1.08,33.75 -1.21,32.90 -1.34,32.04 -1.26,31.19 -1.18,30.33 -0.39,28.08 0.39,25.84 0.90,23.76 1.40,21.68 1.39,19.36 1.38,17.04 0.50,14.95 -0.38,12.86 -1.80,11.13 -3.22,9.39 -4.55,7.70 -5.89,6.01 -6.74,3.86 -7.59,1.72 -7.74,-0.42 -7.89,-2.56 -7.50,-4.77 -7.10,-6.97 -6.08,-8.97 -5.06,-10.97 -4.09,-12.15 -3.12,-13.32 -2.41,-13.93 -1.70,-14.54 -0.86,-14.96 -0.03,-15.38 0.87,-15.59 1.79,-15.79 2.72,-15.78 3.66,-15.76 4.56,-15.52 5.46,-15.28 6.28,-14.83 7.10,-14.38 7.79,-13.75 8.48,-13.12 9.00,-12.34 9.52,-11.56 9.83,-10.68 10.15,-9.80 10.25,-8.87 10.34,-7.94 10.21,-7.02 10.09,-6.09 9.74,-5.22 9.39,-4.35 8.85,-3.59 8.30,-2.83 9.31,-5.34 10.32,-7.85 9.68,-5.71 9.04,-3.57 10.28,-1.70 11.51,0.16 12.50,2.15 13.48,4.14 14.03,6.20 14.58,8.26 12.97,6.06 11.35,3.86 13.02,5.52 14.69,7.18 15.44,9.30 16.18,11.42 16.95,13.74 17.72,16.05 18.04,18.44 18.36,20.83 18.46,22.98 18.56,25.13 18.26,27.46 17.95,29.79 17.09,31.78 16.22,33.78 14.81,35.58 13.39,37.39 11.95,39.03 10.51,40.67 8.95,42.21 7.40,43.74 7.64,43.51 7.87,43.27 7.21,43.96 6.55,44.65 5.74,45.16 4.93,45.67 4.02,45.98 3.12,46.28 2.16,46.35 1.21,46.43 0.27,46.28 -0.67,46.12 -1.55,45.75 -2.43,45.37 -3.19,44.80 -3.96,44.22 -4.56,43.48 -5.17,42.74 -5.58,41.88 -5.99,41.01 -6.18,40.08 -6.37,39.14 -6.33,38.18 -6.29,37.23 -6.03,36.31 -5.76,35.39 -5.28,34.56 -4.80,33.73 -3.27,32.20 -1.74,30.68 -0.45,28.63 0.82,26.59 1.72,24.39 2.63,22.18 2.95,19.90 3.28,17.61 2.42,15.58 1.55,13.55 -0.06,11.81 -1.69,10.06 -2.93,8.29 -4.17,6.52 -5.22,4.61 -6.27,2.70 -2.76,3.71 0.74,4.72 2.93,4.15 5.12,3.58 6.45,1.51 7.77,-0.55 9.40,1.03 11.02,2.61 12.27,4.51 13.51,6.40 14.64,8.47 15.76,10.53 16.39,12.82 17.03,15.10 17.20,17.32 17.38,19.54 17.36,21.96 17.33,24.39 17.11,26.70 16.90,29.01 16.24,31.34 15.58,33.67 14.53,35.76 13.48,37.84 12.31,39.62 11.15,41.41 9.83,43.32 8.52,45.23 6.55,47.05 4.57,48.87 3.82,49.46 3.07,50.05 2.20,50.45 1.34,50.84 0.40,51.01 -0.53,51.19 -1.48,51.13 -2.43,51.07 -3.34,50.79 -4.26,50.51 -5.07,50.02 -5.89,49.53 -6.56,48.85 -7.24,48.18 -7.73,47.37 -8.23,46.55 -8.51,45.64 -8.80,44.73 -8.86,43.78 -8.92,42.83 -8.75,41.89 -8.58,40.95 -8.19,40.08 -7.80,39.21 -7.21,38.46 -6.62,37.71 -7.74,41.05 -8.85,44.40 -8.83,43.12 -8.80,41.84 -8.36,40.64 -7.93,39.43 -7.13,38.43 -6.34,37.43 -5.26,36.74 -4.19,36.04 -2.95,35.73 -1.71,35.41 -0.43,35.51 0.84,35.60 2.01,36.10 3.19,36.60 4.15,37.45 5.11,38.30 5.74,39.41 6.38,40.52 6.63,41.78 6.88,43.03 6.71,44.30 6.54,45.57 5.98,46.72 5.42,47.87 4.52,48.78 3.62,49.69 2.47,50.27 1.33,50.84 0.06,51.02 -1.19,51.20 -2.45,50.96 -3.71,50.73 -4.83,50.11 -5.95,49.48 -6.80,48.53 -7.66,47.59 -8.18,46.41 -8.69,45.24 -8.80,43.96 -8.91,42.69 -8.61,41.45 -8.30,40.20 -7.62,39.12 -6.94,38.04 -5.94,37.23 -4.95,36.42 -3.75,35.98 -2.55,35.53 -1.27,35.49 0.00,35.45 1.22,35.82 2.45,36.19 3.49,36.93 4.53,37.67 5.29,38.70 6.04,39.74 5.31,44.31 4.57,48.87 3.82,49.46 3.07,50.05 2.21,50.45 1.34,50.84 0.40,51.01 -0.53,51.19 -1.48,51.13 -2.43,51.07 -3.34,50.79 -4.25,50.51 -5.07,50.02 -5.89,49.53 -6.56,48.85 -7.24,48.18 -7.73,47.37 -8.23,46.55 -8.51,45.64 -8.80,44.73 -8.86,43.78 -8.92,42.83 -8.75,41.89 -8.58,40.95 -8.19,40.08 -7.80,39.21 -7.21,38.46 -6.63,37.71 -4.64,35.64 -2.66,33.57 -1.34,31.62 -0.03,29.68 0.71,27.65 1.46,25.63 1.52,23.27 1.58,20.91 1.33,18.68 1.09,16.44 -0.00,14.61 -1.11,12.78 -2.45,11.03 -3.78,9.28 -5.08,7.30 -6.38,5.32 -7.12,2.91 -7.86,0.51 -7.73,-1.67 -7.61,-3.85 -6.35,-5.61 -5.09,-7.36 -2.85,-7.96 -0.61,-8.56 2.80,-7.70 6.21,-6.84 7.43,-4.81 8.64,-2.77 9.86,-1.01 11.07,0.74 12.61,2.44 14.15,4.15 15.37,6.08 16.59,8.00 17.41,10.15 18.23,12.29 18.61,14.93 19.00,17.56 18.91,19.79 18.82,22.01 18.32,24.26 17.83,26.51 16.91,29.01 15.99,31.52 14.93,33.62 13.88,35.72 12.58,37.71 11.28,39.71 9.58,41.49 7.87,43.27 7.21,43.96 6.55,44.65 5.74,45.16 4.93,45.67 4.02,45.98 3.12,46.28 2.16,46.35 1.21,46.43 0.27,46.28 -0.67,46.12 -1.55,45.75 -2.43,45.37 -3.19,44.80 -3.96,44.22 -4.56,43.48 -5.17,42.74 -5.58,41.88 -5.99,41.01 -6.18,40.08 -6.37,39.14 -6.33,38.18 -6.29,37.23 -6.03,36.31 -5.76,35.39 -5.28,34.56 -4.80,33.73 -4.67,33.56 -4.54,33.38 -2.92,31.75 -1.31,30.11 0.11,28.50 1.55,26.89 2.12,24.72 2.69,22.56 2.34,20.41 1.99,18.26 2.02,16.10 2.06,13.94 0.29,11.63 -1.47,9.33 -2.46,7.26 -3.45,5.19 -4.38,3.16 -5.31,1.14 -5.81,-1.23 -6.32,-3.61 -5.73,-5.93 -5.14,-8.25 -4.13,-10.79 -3.12,-13.32 -2.41,-13.93 -1.70,-14.54 -0.86,-14.96 -0.03,-15.38 0.87,-15.59 1.79,-15.79 2.72,-15.78 3.66,-15.76 4.56,-15.52 5.46,-15.28 6.28,-14.83 7.10,-14.39 7.79,-13.75 8.48,-13.12 9.00,-12.34 9.52,-11.56 9.83,-10.68 10.15,-9.80 10.25,-8.87 10.34,-7.94 10.21,-7.02 10.09,-6.09 9.74,-5.22 9.39,-4.35 8.85,-3.59 8.30,-2.83 7.81,-2.23 7.33,-1.63 8.70,0.04 10.08,1.71 11.34,3.47 12.60,5.22 13.62,7.30 14.64,9.38 15.24,11.45 15.84,13.52 16.04,15.71 16.24,17.90 16.09,20.60 15.94,23.29 15.28,26.04 14.63,28.79 13.71,31.05 12.79,33.31 12.51,34.12 12.23,34.94 11.76,35.66 11.30,36.39 10.67,36.98 10.04,37.57 9.29,38.00 8.54,38.42 7.71,38.65 6.88,38.89 6.02,38.91 5.16,38.94 4.32,38.76 3.48,38.58 2.70,38.20 1.92,37.83 1.26,37.28 0.60,36.73 0.09,36.03 -0.41,35.34 -0.75,34.54 -1.08,33.75 -1.21,32.90 -1.34,32.04 -1.26,31.19 -1.18,30.33 -0.95,29.50 -0.72,28.67 0.03,26.52 0.78,24.36 1.43,22.32 2.07,20.28 1.62,18.07 1.18,15.85 0.17,13.70 -0.83,11.55 -1.86,9.61 -2.89,7.67 -3.48,5.47 -4.08,3.26 -4.28,2.38 -4.47,1.49 -4.59,0.94 -4.70,0.38 -4.68,-0.18 -4.65,-0.75 -4.50,-1.29 -4.34,-1.84 -4.06,-2.33 -3.77,-2.83 -3.38,-3.24 -2.98,-3.65 -2.50,-3.95 -2.02,-4.26 -1.48,-4.44 -0.94,-4.62 -0.38,-4.67 0.18,-4.71 0.74,-4.62 1.30,-4.53 1.83,-4.31 2.35,-4.08 2.81,-3.74 3.26,-3.40 3.62,-2.96 3.98,-2.52 4.23,-2.01 4.47,-1.49 4.47,-1.49 L 4.47,-1.49 Z"></path></g><g stroke-linecap="round" transform="translate(180.1082140691143 59.255110690146466) rotate(0 37.23722138313519 52.86054153310306)"><path d="M58.97 7.59 C64.36 12.28, 69.33 23.69, 71.49 32.98 C73.66 42.27, 72.87 53.88, 71.95 63.32 C71.04 72.76, 70.42 82.7, 66 89.63 C61.58 96.56, 52.31 102.44, 45.43 104.9 C38.54 107.36, 31.17 107.42, 24.69 104.38 C18.21 101.34, 10.44 94.19, 6.55 86.65 C2.66 79.11, 1.65 68.92, 1.35 59.13 C1.05 49.35, 1.93 36.35, 4.77 27.96 C7.6 19.56, 12.92 13.54, 18.37 8.75 C23.82 3.97, 29.78 -2.4, 37.45 -0.75 C45.12 0.91, 59.44 14.25, 64.39 18.68 C69.34 23.11, 67.23 25.68, 67.16 25.84 M70.03 24.93 C73.92 32.3, 73.79 45.5, 73.68 54.72 C73.57 63.94, 73.17 72.41, 69.36 80.24 C65.54 88.06, 57.24 97.34, 50.78 101.67 C44.33 106, 36.71 107.12, 30.64 106.21 C24.56 105.3, 19.39 102.11, 14.32 96.21 C9.25 90.31, 2.42 80.36, 0.2 70.8 C-2.02 61.23, -1.46 48.04, 1.02 38.82 C3.5 29.61, 9.99 21.38, 15.08 15.51 C20.17 9.63, 25.41 5.85, 31.56 3.59 C37.71 1.34, 46 -1.52, 51.98 1.96 C57.96 5.45, 64.73 20.87, 67.45 24.52 C70.18 28.16, 69 23.16, 68.35 23.81" stroke="none" stroke-width="0" fill="#ccbdac"></path><path d="M15.83 9.96 C20.6 4.25, 27.41 -0.89, 34.26 -1.29 C41.12 -1.7, 50.63 2.49, 56.98 7.54 C63.33 12.6, 69.33 20.58, 72.38 29.04 C75.43 37.5, 76.38 49.03, 75.26 58.3 C74.15 67.58, 70.1 77.34, 65.68 84.69 C61.27 92.04, 55.16 99.39, 48.76 102.4 C42.36 105.41, 33.51 105.23, 27.28 102.74 C21.05 100.24, 15.62 94.17, 11.41 87.41 C7.19 80.65, 3.19 71.6, 1.98 62.17 C0.78 52.74, 1.12 40.11, 4.18 30.83 C7.23 21.55, 16.82 11.28, 20.31 6.49 C23.8 1.71, 24.62 1.68, 25.12 2.11 M51.47 3.32 C57.85 7.39, 67.12 18.77, 70.85 27.52 C74.58 36.27, 74.05 46.57, 73.86 55.8 C73.68 65.03, 74.01 75.03, 69.72 82.9 C65.43 90.78, 54.43 99.72, 48.15 103.03 C41.87 106.35, 38.04 104.6, 32.05 102.81 C26.05 101.03, 17.78 98.53, 12.16 92.31 C6.54 86.09, 0.04 75.21, -1.67 65.48 C-3.37 55.75, -1.03 43.43, 1.96 33.94 C4.94 24.44, 11.46 13.93, 16.26 8.51 C21.06 3.08, 24.17 1.5, 30.76 1.4 C37.36 1.29, 52.39 6.66, 55.85 7.89 C59.31 9.13, 52.39 8.7, 51.54 8.79" stroke="#1e1e1e" stroke-width="1" fill="none"></path></g><g stroke-opacity="0.7" fill-opacity="0.7" stroke-linecap="round" transform="translate(180.34353736295645 59.231890978227966) rotate(0 36.57717281684563 52.86054153310306)"><path d="M28.06 2.21 C33.58 -0.09, 40.25 1.29, 46.69 4.49 C53.13 7.69, 62.54 14.01, 66.71 21.42 C70.87 28.83, 71.47 39.46, 71.68 48.97 C71.88 58.48, 71.08 70.14, 67.94 78.48 C64.8 86.82, 58.21 94.45, 52.85 99.01 C47.5 103.57, 41.91 106.63, 35.8 105.82 C29.7 105.02, 21.69 99.55, 16.22 94.16 C10.75 88.76, 5.7 82.15, 2.98 73.44 C0.26 64.73, -1.25 51.19, -0.11 41.9 C1.04 32.61, 1.02 23.81, 9.86 17.71 C18.71 11.62, 42.44 2.08, 52.96 5.31 C63.47 8.54, 72.6 36.08, 72.95 37.1 M49.36 6.28 C55.17 8.64, 63.34 14.01, 66.91 21.51 C70.48 29.02, 70.84 41.53, 70.78 51.31 C70.71 61.09, 69.23 71.62, 66.52 80.2 C63.8 88.79, 60.29 98.19, 54.48 102.81 C48.68 107.43, 38.5 109.27, 31.69 107.91 C24.87 106.56, 18.14 100.6, 13.62 94.67 C9.11 88.74, 6.68 80.9, 4.59 72.35 C2.5 63.81, 0.03 53.44, 1.1 43.39 C2.17 33.34, 6.4 19.02, 11.01 12.08 C15.62 5.14, 22.14 3.2, 28.77 1.73 C35.4 0.26, 47.57 2.46, 50.81 3.25 C54.06 4.04, 48.82 5.51, 48.24 6.48" stroke="none" stroke-width="0" fill="#6f4e37"></path><path d="M10.98 11.29 C15.57 4.73, 25.09 1.57, 32.23 0.44 C39.36 -0.69, 47.75 0.56, 53.8 4.51 C59.86 8.46, 65.39 16.25, 68.55 24.12 C71.71 31.99, 72.99 42.23, 72.76 51.73 C72.53 61.22, 70.8 73.08, 67.17 81.11 C63.53 89.13, 56.72 96.08, 50.96 99.88 C45.21 103.68, 38.83 105.08, 32.64 103.9 C26.45 102.71, 18.81 99.12, 13.81 92.77 C8.81 86.42, 4.72 74.89, 2.64 65.82 C0.56 56.76, -1.44 48.66, 1.35 38.4 C4.14 28.14, 14.82 10.41, 19.36 4.25 C23.9 -1.9, 28.11 0.56, 28.6 1.46 M11.39 17.55 C15.7 10.96, 20.75 4.47, 27.29 1.91 C33.82 -0.65, 44.76 -1, 50.61 2.21 C56.45 5.42, 58.32 13.9, 62.36 21.15 C66.4 28.41, 73.62 36.24, 74.86 45.74 C76.09 55.24, 73.54 69.33, 69.77 78.17 C66.01 87, 58.07 94.44, 52.25 98.76 C46.42 103.07, 40.64 104.99, 34.84 104.07 C29.04 103.14, 23.32 98.27, 17.47 93.22 C11.61 88.18, 2.25 81.84, -0.3 73.8 C-2.85 65.77, 0.85 54.23, 2.17 45.01 C3.48 35.78, 6.51 23.44, 7.59 18.45 C8.67 13.46, 7.58 15.08, 8.64 15.06" stroke="#1e1e1e" stroke-width="4" fill="none"></path></g><g stroke-opacity="0.7" fill-opacity="0.7" transform="translate(224.97234070730894 73.36825959251473) rotate(0 -8.021533205310789 33.188913835720996)" stroke="none"><path fill="#1e1e1e" d="M 2.81,4.19 Q 2.81,4.19 1.49,5.18 0.18,6.17 -1.20,7.83 -2.60,9.49 -3.05,11.72 -3.50,13.96 -2.83,15.99 -2.16,18.02 -0.94,19.87 0.28,21.73 1.53,23.62 2.78,25.51 3.76,27.75 4.73,30.00 5.16,32.39 5.58,34.78 5.67,37.35 5.76,39.93 5.72,42.57 5.68,45.21 5.38,48.03 5.09,50.85 4.09,53.44 3.10,56.03 1.42,58.60 -0.25,61.17 -2.13,63.31 -4.01,65.44 -5.81,66.96 -7.61,68.47 -8.11,66.74 -8.61,65.02 -8.60,66.20 -8.59,67.38 -8.96,68.51 -9.33,69.63 -10.04,70.58 -10.75,71.53 -11.72,72.20 -12.69,72.87 -13.83,73.20 -14.97,73.52 -16.15,73.47 -17.33,73.42 -18.43,72.99 -19.53,72.56 -20.44,71.80 -21.35,71.04 -21.97,70.04 -22.59,69.03 -22.85,67.87 -23.12,66.72 -23.00,65.54 -22.88,64.37 -22.39,63.29 -21.91,62.21 -21.10,61.35 -20.29,60.48 -19.25,59.92 -18.21,59.35 -17.05,59.15 -15.88,58.95 -14.71,59.13 -13.54,59.31 -12.49,59.86 -11.44,60.40 -10.62,61.26 -9.80,62.11 -9.30,63.18 -8.79,64.25 -8.65,65.42 -8.52,66.60 -8.76,67.75 -9.00,68.91 -9.61,69.93 -10.21,70.95 -11.10,71.72 -12.00,72.50 -13.09,72.94 -14.19,73.39 -15.37,73.46 -16.55,73.54 -17.69,73.23 -18.83,72.92 -19.82,72.27 -20.80,71.61 -21.53,70.68 -22.25,69.74 -22.64,68.62 -23.02,67.51 -23.02,67.51 -23.02,67.51 -18.73,61.39 -14.44,55.28 -12.76,53.22 -11.07,51.16 -10.04,48.63 -9.01,46.11 -8.90,43.87 -8.80,41.64 -8.80,38.90 -8.81,36.15 -9.46,33.78 -10.11,31.41 -11.28,29.47 -12.45,27.53 -13.62,25.35 -14.79,23.18 -15.50,20.83 -16.21,18.49 -16.22,15.87 -16.23,13.25 -15.80,10.98 -15.37,8.71 -14.27,6.53 -13.18,4.35 -11.56,2.50 -9.94,0.65 -7.79,-0.92 -5.64,-2.51 -4.22,-3.35 -2.81,-4.19 -2.26,-4.46 -1.72,-4.74 -1.13,-4.88 -0.53,-5.01 0.06,-5.00 0.67,-5.00 1.26,-4.84 1.85,-4.69 2.38,-4.40 2.92,-4.11 3.37,-3.70 3.82,-3.29 4.16,-2.78 4.50,-2.28 4.70,-1.71 4.91,-1.14 4.98,-0.53 5.04,0.06 4.96,0.67 4.88,1.27 4.65,1.84 4.43,2.40 4.08,2.90 3.73,3.39 3.27,3.79 2.80,4.19 2.80,4.19 L 2.81,4.19 Z"></path></g><g stroke-opacity="0.7" fill-opacity="0.7" transform="translate(214.2815176532714 92.50518177080266) rotate(0 5.064018233002798 17.67660713611258)" stroke="none"><path fill="#1e1e1e" d="M 4.47,-1.49 Q 4.47,-1.49 4.85,-0.67 5.23,0.15 6.46,2.00 7.69,3.85 9.05,5.57 10.40,7.28 11.76,9.28 13.11,11.27 13.97,13.41 14.82,15.56 15.14,17.89 15.45,20.23 15.24,22.47 15.02,24.71 14.45,26.94 13.88,29.18 13.31,31.25 12.75,33.32 12.77,33.31 12.79,33.31 12.51,34.12 12.23,34.94 11.76,35.66 11.30,36.39 10.67,36.98 10.04,37.57 9.29,38.00 8.54,38.42 7.71,38.65 6.88,38.89 6.02,38.91 5.16,38.94 4.32,38.76 3.47,38.58 2.70,38.20 1.92,37.83 1.26,37.28 0.60,36.73 0.09,36.03 -0.42,35.34 -0.75,34.54 -1.08,33.75 -1.21,32.90 -1.34,32.04 -1.26,31.19 -1.18,30.33 -0.39,28.08 0.39,25.84 0.90,23.76 1.40,21.68 1.39,19.36 1.38,17.04 0.50,14.95 -0.38,12.86 -1.80,11.13 -3.22,9.39 -4.55,7.70 -5.89,6.01 -6.74,3.86 -7.59,1.72 -7.74,-0.42 -7.89,-2.56 -7.50,-4.77 -7.10,-6.97 -6.08,-8.97 -5.06,-10.97 -4.09,-12.15 -3.12,-13.32 -2.41,-13.93 -1.70,-14.54 -0.86,-14.96 -0.03,-15.38 0.87,-15.59 1.79,-15.79 2.72,-15.78 3.66,-15.76 4.56,-15.52 5.46,-15.28 6.28,-14.83 7.10,-14.38 7.79,-13.75 8.48,-13.12 9.00,-12.34 9.52,-11.56 9.83,-10.68 10.15,-9.80 10.25,-8.87 10.34,-7.94 10.21,-7.02 10.09,-6.09 9.74,-5.22 9.39,-4.35 8.85,-3.59 8.30,-2.83 9.31,-5.34 10.32,-7.85 9.68,-5.71 9.04,-3.57 10.28,-1.70 11.51,0.16 12.50,2.15 13.48,4.14 14.03,6.20 14.58,8.26 12.97,6.06 11.35,3.86 13.02,5.52 14.69,7.18 15.44,9.30 16.18,11.42 16.95,13.74 17.72,16.05 18.04,18.44 18.36,20.83 18.46,22.98 18.56,25.13 18.26,27.46 17.95,29.79 17.09,31.78 16.22,33.78 14.81,35.58 13.39,37.39 11.95,39.03 10.51,40.67 8.95,42.21 7.40,43.74 7.64,43.51 7.87,43.27 7.21,43.96 6.55,44.65 5.74,45.16 4.93,45.67 4.02,45.98 3.12,46.28 2.16,46.35 1.21,46.43 0.27,46.28 -0.67,46.12 -1.55,45.75 -2.43,45.37 -3.19,44.80 -3.96,44.22 -4.56,43.48 -5.17,42.74 -5.58,41.88 -5.99,41.01 -6.18,40.08 -6.37,39.14 -6.33,38.18 -6.29,37.23 -6.03,36.31 -5.76,35.39 -5.28,34.56 -4.80,33.73 -3.27,32.20 -1.74,30.68 -0.45,28.63 0.82,26.59 1.72,24.39 2.63,22.18 2.95,19.90 3.28,17.61 2.42,15.58 1.55,13.55 -0.06,11.81 -1.69,10.06 -2.93,8.29 -4.17,6.52 -5.22,4.61 -6.27,2.70 -2.76,3.71 0.74,4.72 2.93,4.15 5.12,3.58 6.45,1.51 7.77,-0.55 9.40,1.03 11.02,2.61 12.27,4.51 13.51,6.40 14.64,8.47 15.76,10.53 16.39,12.82 17.03,15.10 17.20,17.32 17.38,19.54 17.36,21.96 17.33,24.39 17.11,26.70 16.90,29.01 16.24,31.34 15.58,33.67 14.53,35.76 13.48,37.84 12.31,39.62 11.15,41.41 9.83,43.32 8.52,45.23 6.55,47.05 4.57,48.87 3.82,49.46 3.07,50.05 2.20,50.45 1.34,50.84 0.40,51.01 -0.53,51.19 -1.48,51.13 -2.43,51.07 -3.34,50.79 -4.26,50.51 -5.07,50.02 -5.89,49.53 -6.56,48.85 -7.24,48.18 -7.73,47.37 -8.23,46.55 -8.51,45.64 -8.80,44.73 -8.86,43.78 -8.92,42.83 -8.75,41.89 -8.58,40.95 -8.19,40.08 -7.80,39.21 -7.21,38.46 -6.62,37.71 -7.74,41.05 -8.85,44.40 -8.83,43.12 -8.80,41.84 -8.36,40.64 -7.93,39.43 -7.13,38.43 -6.34,37.43 -5.26,36.74 -4.19,36.04 -2.95,35.73 -1.71,35.41 -0.43,35.51 0.84,35.60 2.01,36.10 3.19,36.60 4.15,37.45 5.11,38.30 5.74,39.41 6.38,40.52 6.63,41.78 6.88,43.03 6.71,44.30 6.54,45.57 5.98,46.72 5.42,47.87 4.52,48.78 3.62,49.69 2.47,50.27 1.33,50.84 0.06,51.02 -1.19,51.20 -2.45,50.96 -3.71,50.73 -4.83,50.11 -5.95,49.48 -6.80,48.53 -7.66,47.59 -8.18,46.41 -8.69,45.24 -8.80,43.96 -8.91,42.69 -8.61,41.45 -8.30,40.20 -7.62,39.12 -6.94,38.04 -5.94,37.23 -4.95,36.42 -3.75,35.98 -2.55,35.53 -1.27,35.49 0.00,35.45 1.22,35.82 2.45,36.19 3.49,36.93 4.53,37.67 5.29,38.70 6.04,39.74 5.31,44.31 4.57,48.87 3.82,49.46 3.07,50.05 2.21,50.45 1.34,50.84 0.40,51.01 -0.53,51.19 -1.48,51.13 -2.43,51.07 -3.34,50.79 -4.25,50.51 -5.07,50.02 -5.89,49.53 -6.56,48.85 -7.24,48.18 -7.73,47.37 -8.23,46.55 -8.51,45.64 -8.80,44.73 -8.86,43.78 -8.92,42.83 -8.75,41.89 -8.58,40.95 -8.19,40.08 -7.80,39.21 -7.21,38.46 -6.63,37.71 -4.64,35.64 -2.66,33.57 -1.34,31.62 -0.03,29.68 0.71,27.65 1.46,25.63 1.52,23.27 1.58,20.91 1.33,18.68 1.09,16.44 -0.00,14.61 -1.11,12.78 -2.45,11.03 -3.78,9.28 -5.08,7.30 -6.38,5.32 -7.12,2.91 -7.86,0.51 -7.73,-1.67 -7.61,-3.85 -6.35,-5.61 -5.09,-7.36 -2.85,-7.96 -0.61,-8.56 2.80,-7.70 6.21,-6.84 7.43,-4.81 8.64,-2.77 9.86,-1.01 11.07,0.74 12.61,2.44 14.15,4.15 15.37,6.08 16.59,8.00 17.41,10.15 18.23,12.29 18.61,14.93 19.00,17.56 18.91,19.79 18.82,22.01 18.32,24.26 17.83,26.51 16.91,29.01 15.99,31.52 14.93,33.62 13.88,35.72 12.58,37.71 11.28,39.71 9.58,41.49 7.87,43.27 7.21,43.96 6.55,44.65 5.74,45.16 4.93,45.67 4.02,45.98 3.12,46.28 2.16,46.35 1.21,46.43 0.27,46.28 -0.67,46.12 -1.55,45.75 -2.43,45.37 -3.19,44.80 -3.96,44.22 -4.56,43.48 -5.17,42.74 -5.58,41.88 -5.99,41.01 -6.18,40.08 -6.37,39.14 -6.33,38.18 -6.29,37.23 -6.03,36.31 -5.76,35.39 -5.28,34.56 -4.80,33.73 -4.67,33.56 -4.54,33.38 -2.92,31.75 -1.31,30.11 0.11,28.50 1.55,26.89 2.12,24.72 2.69,22.56 2.34,20.41 1.99,18.26 2.02,16.10 2.06,13.94 0.29,11.63 -1.47,9.33 -2.46,7.26 -3.45,5.19 -4.38,3.16 -5.31,1.14 -5.81,-1.23 -6.32,-3.61 -5.73,-5.93 -5.14,-8.25 -4.13,-10.79 -3.12,-13.32 -2.41,-13.93 -1.70,-14.54 -0.86,-14.96 -0.03,-15.38 0.87,-15.59 1.79,-15.79 2.72,-15.78 3.66,-15.76 4.56,-15.52 5.46,-15.28 6.28,-14.83 7.10,-14.39 7.79,-13.75 8.48,-13.12 9.00,-12.34 9.52,-11.56 9.83,-10.68 10.15,-9.80 10.25,-8.87 10.34,-7.94 10.21,-7.02 10.09,-6.09 9.74,-5.22 9.39,-4.35 8.85,-3.59 8.30,-2.83 7.81,-2.23 7.33,-1.63 8.70,0.04 10.08,1.71 11.34,3.47 12.60,5.22 13.62,7.30 14.64,9.38 15.24,11.45 15.84,13.52 16.04,15.71 16.24,17.90 16.09,20.60 15.94,23.29 15.28,26.04 14.63,28.79 13.71,31.05 12.79,33.31 12.51,34.12 12.23,34.94 11.76,35.66 11.30,36.39 10.67,36.98 10.04,37.57 9.29,38.00 8.54,38.42 7.71,38.65 6.88,38.89 6.02,38.91 5.16,38.94 4.32,38.76 3.48,38.58 2.70,38.20 1.92,37.83 1.26,37.28 0.60,36.73 0.09,36.03 -0.41,35.34 -0.75,34.54 -1.08,33.75 -1.21,32.90 -1.34,32.04 -1.26,31.19 -1.18,30.33 -0.95,29.50 -0.72,28.67 0.03,26.52 0.78,24.36 1.43,22.32 2.07,20.28 1.62,18.07 1.18,15.85 0.17,13.70 -0.83,11.55 -1.86,9.61 -2.89,7.67 -3.48,5.47 -4.08,3.26 -4.28,2.38 -4.47,1.49 -4.59,0.94 -4.70,0.38 -4.68,-0.18 -4.65,-0.75 -4.50,-1.29 -4.34,-1.84 -4.06,-2.33 -3.77,-2.83 -3.38,-3.24 -2.98,-3.65 -2.50,-3.95 -2.02,-4.26 -1.48,-4.44 -0.94,-4.62 -0.38,-4.67 0.18,-4.71 0.74,-4.62 1.30,-4.53 1.83,-4.31 2.35,-4.08 2.81,-3.74 3.26,-3.40 3.62,-2.96 3.98,-2.52 4.23,-2.01 4.47,-1.49 4.47,-1.49 L 4.47,-1.49 Z"></path></g><g stroke-linecap="round" transform="translate(262.02383394604715 59.255110690146466) rotate(0 37.23722138313519 52.86054153310306)"><path d="M61.56 15.48 C66.15 21.2, 70.83 32.39, 72.32 41.53 C73.82 50.68, 72.37 61.5, 70.55 70.33 C68.73 79.17, 66.2 88.95, 61.41 94.53 C56.62 100.11, 48.6 102.75, 41.81 103.83 C35.01 104.91, 26.9 105.21, 20.64 101.01 C14.38 96.8, 7.72 86.79, 4.23 78.6 C0.74 70.42, -0.41 61.6, -0.3 51.91 C-0.18 42.22, 0.64 28.66, 4.91 20.46 C9.18 12.25, 18.44 5.99, 25.32 2.68 C32.2 -0.62, 39.54 -1.91, 46.2 0.64 C52.85 3.18, 61.91 14.84, 65.24 17.96 C68.57 21.09, 66.49 18.91, 66.19 19.38 M27.39 2.21 C34.08 -0.15, 44.85 2.69, 51.2 6.23 C57.55 9.76, 61.7 16.26, 65.5 23.4 C69.3 30.54, 72.82 39.61, 74 49.07 C75.18 58.52, 75.69 71.3, 72.58 80.14 C69.46 88.97, 61.67 98.27, 55.32 102.09 C48.96 105.91, 41.3 104.05, 34.45 103.06 C27.6 102.06, 19.44 101.44, 14.21 96.11 C8.98 90.77, 5.58 79.81, 3.07 71.06 C0.57 62.31, -1.87 52.77, -0.83 43.6 C0.22 34.43, 4.15 23.23, 9.33 16.05 C14.51 8.88, 26.62 2.79, 30.24 0.53 C33.87 -1.72, 31.53 1.65, 31.07 2.52" stroke="none" stroke-width="0" fill="#ccbdac"></path><path d="M37.6 -0.54 C43.61 -1.64, 50.88 1.31, 56.41 6.29 C61.95 11.26, 67.95 20.67, 70.82 29.33 C73.7 37.98, 74.24 48.83, 73.67 58.19 C73.1 67.56, 71.38 77.98, 67.4 85.54 C63.42 93.11, 56.26 100.77, 49.8 103.57 C43.34 106.38, 35.38 104.78, 28.63 102.36 C21.89 99.94, 14.05 96.19, 9.31 89.06 C4.57 81.93, 1.03 69.34, 0.18 59.57 C-0.66 49.8, 1.33 39.08, 4.22 30.47 C7.11 21.85, 10.05 12.7, 17.5 7.89 C24.96 3.08, 41.81 0.28, 48.96 1.61 C56.12 2.95, 60.26 14.82, 60.42 15.9 M39.1 1.52 C45.44 1.73, 57.37 4.32, 63.09 10.47 C68.82 16.63, 72.23 29, 73.45 38.46 C74.67 47.92, 72.32 58.51, 70.4 67.21 C68.48 75.92, 66.14 84.86, 61.92 90.71 C57.71 96.55, 52.19 100.34, 45.09 102.29 C37.98 104.24, 25.53 105.45, 19.3 102.41 C13.07 99.38, 11.35 91.88, 7.73 84.08 C4.11 76.27, -1.77 65.8, -2.44 55.58 C-3.11 45.36, -0.46 31.48, 3.7 22.76 C7.87 14.05, 15.86 6.76, 22.54 3.28 C29.22 -0.2, 40.69 1.99, 43.8 1.88 C46.91 1.77, 41.99 1.99, 41.21 2.62" stroke="#1e1e1e" stroke-width="1" fill="none"></path></g><g stroke-opacity="0.7" fill-opacity="0.7" stroke-linecap="round" transform="translate(262.2591572398866 59.231890978227966) rotate(0 36.57717281684563 52.86054153310306)"><path d="M54.29 8.74 C59.83 12.64, 64.17 21.31, 67.46 29.67 C70.75 38.03, 74.28 49.76, 74.03 58.9 C73.78 68.05, 70.2 77, 65.93 84.55 C61.66 92.1, 54.95 101.09, 48.39 104.21 C41.83 107.32, 33.09 105.59, 26.59 103.26 C20.09 100.92, 14.03 97.37, 9.37 90.19 C4.7 83.02, -0.65 70.03, -1.4 60.21 C-2.16 50.4, 1.62 39.83, 4.83 31.29 C8.03 22.76, 12.59 14.03, 17.82 9.01 C23.04 3.99, 26.9 -4.76, 36.19 1.17 C45.47 7.09, 68.77 30.07, 73.55 44.54 C78.32 59.01, 65.64 88.02, 64.83 87.98 M49.65 5.88 C55.79 8.39, 60.05 15.57, 63.88 22.6 C67.71 29.62, 71.33 38.61, 72.62 48.05 C73.92 57.49, 74.61 70.31, 71.67 79.23 C68.72 88.16, 61.14 97.61, 54.95 101.59 C48.77 105.57, 41.28 103.93, 34.54 103.11 C27.8 102.3, 19.72 101.89, 14.51 96.7 C9.3 91.52, 5.87 80.69, 3.29 72.01 C0.7 63.32, -1.87 53.8, -0.98 44.6 C-0.09 35.4, 3.64 24.09, 8.65 16.79 C13.65 9.48, 22.1 3.04, 29.04 0.77 C35.98 -1.51, 47.49 2.72, 50.29 3.12 C53.09 3.53, 46.15 2.75, 45.83 3.21" stroke="none" stroke-width="0" fill="#6f4e37"></path><path d="M27.74 -0.18 C33.55 -3.01, 42.51 -0.95, 48.71 2.27 C54.91 5.49, 60.62 11.71, 64.93 19.14 C69.25 26.58, 73.68 37.15, 74.59 46.89 C75.51 56.63, 73.54 69.19, 70.44 77.59 C67.33 85.99, 61.95 92.47, 55.95 97.29 C49.95 102.12, 41.26 107.07, 34.42 106.53 C27.58 105.98, 20.04 99.94, 14.91 94.02 C9.79 88.09, 5.88 79.7, 3.67 70.96 C1.46 62.22, 0.83 51.02, 1.65 41.57 C2.47 32.12, 0.09 19.93, 8.61 14.28 C17.13 8.64, 42.33 3.98, 52.79 7.69 C63.25 11.39, 71.35 35.65, 71.38 36.51 M30.62 -0.72 C37.22 -3.36, 44.52 0.85, 49.94 4.52 C55.35 8.19, 59.27 14.15, 63.11 21.3 C66.95 28.45, 71.69 38.39, 72.96 47.39 C74.23 56.4, 74.36 66.5, 70.73 75.33 C67.11 84.16, 57.07 94.99, 51.21 100.37 C45.34 105.75, 42.05 108.12, 35.56 107.6 C29.07 107.07, 18.12 103.58, 12.26 97.2 C6.41 90.81, 2.11 78.81, 0.41 69.26 C-1.29 59.71, 0.07 48.61, 2.08 39.9 C4.09 31.19, 8.14 23.25, 12.46 17 C16.79 10.74, 25.7 4.82, 28.04 2.36 C30.38 -0.1, 26.06 2.05, 26.5 2.22" stroke="#1e1e1e" stroke-width="4" fill="none"></path></g><g stroke-opacity="0.7" fill-opacity="0.7" transform="translate(306.8879605842409 73.36825959251473) rotate(0 -8.021533205310789 33.188913835720996)" stroke="none"><path fill="#1e1e1e" d="M 2.81,4.19 Q 2.81,4.19 1.49,5.18 0.18,6.17 -1.20,7.83 -2.60,9.49 -3.05,11.72 -3.50,13.96 -2.83,15.99 -2.16,18.02 -0.94,19.87 0.28,21.73 1.53,23.62 2.78,25.51 3.76,27.75 4.73,30.00 5.16,32.39 5.58,34.78 5.67,37.35 5.76,39.93 5.72,42.57 5.68,45.21 5.38,48.03 5.09,50.85 4.09,53.44 3.10,56.03 1.42,58.60 -0.25,61.17 -2.13,63.31 -4.01,65.44 -5.81,66.96 -7.61,68.47 -8.11,66.74 -8.61,65.02 -8.60,66.20 -8.59,67.38 -8.96,68.51 -9.33,69.63 -10.04,70.58 -10.75,71.53 -11.72,72.20 -12.69,72.87 -13.83,73.20 -14.97,73.52 -16.15,73.47 -17.33,73.42 -18.43,72.99 -19.53,72.56 -20.44,71.80 -21.35,71.04 -21.97,70.04 -22.59,69.03 -22.85,67.87 -23.12,66.72 -23.00,65.54 -22.88,64.37 -22.39,63.29 -21.91,62.21 -21.10,61.35 -20.29,60.48 -19.25,59.92 -18.21,59.35 -17.05,59.15 -15.88,58.95 -14.71,59.13 -13.54,59.31 -12.49,59.86 -11.44,60.40 -10.62,61.26 -9.80,62.11 -9.30,63.18 -8.79,64.25 -8.65,65.42 -8.52,66.60 -8.76,67.75 -9.00,68.91 -9.61,69.93 -10.21,70.95 -11.10,71.72 -12.00,72.50 -13.09,72.94 -14.19,73.39 -15.37,73.46 -16.55,73.54 -17.69,73.23 -18.83,72.92 -19.82,72.27 -20.80,71.61 -21.53,70.68 -22.25,69.74 -22.64,68.62 -23.02,67.51 -23.02,67.51 -23.02,67.51 -18.73,61.39 -14.44,55.28 -12.76,53.22 -11.07,51.16 -10.04,48.63 -9.01,46.11 -8.90,43.87 -8.80,41.64 -8.80,38.90 -8.81,36.15 -9.46,33.78 -10.11,31.41 -11.28,29.47 -12.45,27.53 -13.62,25.35 -14.79,23.18 -15.50,20.83 -16.21,18.49 -16.22,15.87 -16.23,13.25 -15.80,10.98 -15.37,8.71 -14.27,6.53 -13.18,4.35 -11.56,2.50 -9.94,0.65 -7.79,-0.92 -5.64,-2.51 -4.22,-3.35 -2.81,-4.19 -2.26,-4.46 -1.72,-4.74 -1.13,-4.88 -0.53,-5.01 0.06,-5.00 0.67,-5.00 1.26,-4.84 1.85,-4.69 2.38,-4.40 2.92,-4.11 3.37,-3.70 3.82,-3.29 4.16,-2.78 4.50,-2.28 4.70,-1.71 4.91,-1.14 4.98,-0.53 5.04,0.06 4.96,0.67 4.88,1.27 4.65,1.84 4.43,2.40 4.08,2.90 3.73,3.39 3.27,3.79 2.80,4.19 2.80,4.19 L 2.81,4.19 Z"></path></g><g stroke-opacity="0.7" fill-opacity="0.7" transform="translate(296.19713753020335 92.50518177080266) rotate(0 5.064018233002798 17.67660713611258)" stroke="none"><path fill="#1e1e1e" d="M 4.47,-1.49 Q 4.47,-1.49 4.85,-0.67 5.23,0.15 6.46,2.00 7.69,3.85 9.05,5.57 10.40,7.28 11.76,9.28 13.11,11.27 13.97,13.41 14.82,15.56 15.14,17.89 15.45,20.23 15.24,22.47 15.02,24.71 14.45,26.94 13.88,29.18 13.31,31.25 12.75,33.32 12.77,33.31 12.79,33.31 12.51,34.12 12.23,34.94 11.76,35.66 11.30,36.39 10.67,36.98 10.04,37.57 9.29,38.00 8.54,38.42 7.71,38.65 6.88,38.89 6.02,38.91 5.16,38.94 4.32,38.76 3.47,38.58 2.70,38.20 1.92,37.83 1.26,37.28 0.60,36.73 0.09,36.03 -0.42,35.34 -0.75,34.54 -1.08,33.75 -1.21,32.90 -1.34,32.04 -1.26,31.19 -1.18,30.33 -0.39,28.08 0.39,25.84 0.90,23.76 1.40,21.68 1.39,19.36 1.38,17.04 0.50,14.95 -0.38,12.86 -1.80,11.13 -3.22,9.39 -4.55,7.70 -5.89,6.01 -6.74,3.86 -7.59,1.72 -7.74,-0.42 -7.89,-2.56 -7.50,-4.77 -7.10,-6.97 -6.08,-8.97 -5.06,-10.97 -4.09,-12.15 -3.12,-13.32 -2.41,-13.93 -1.70,-14.54 -0.86,-14.96 -0.03,-15.38 0.87,-15.59 1.79,-15.79 2.72,-15.78 3.66,-15.76 4.56,-15.52 5.46,-15.28 6.28,-14.83 7.10,-14.38 7.79,-13.75 8.48,-13.12 9.00,-12.34 9.52,-11.56 9.83,-10.68 10.15,-9.80 10.25,-8.87 10.34,-7.94 10.21,-7.02 10.09,-6.09 9.74,-5.22 9.39,-4.35 8.85,-3.59 8.30,-2.83 9.31,-5.34 10.32,-7.85 9.68,-5.71 9.04,-3.57 10.28,-1.70 11.51,0.16 12.50,2.15 13.48,4.14 14.03,6.20 14.58,8.26 12.97,6.06 11.35,3.86 13.02,5.52 14.69,7.18 15.44,9.30 16.18,11.42 16.95,13.74 17.72,16.05 18.04,18.44 18.36,20.83 18.46,22.98 18.56,25.13 18.26,27.46 17.95,29.79 17.09,31.78 16.22,33.78 14.81,35.58 13.39,37.39 11.95,39.03 10.51,40.67 8.95,42.21 7.40,43.74 7.64,43.51 7.87,43.27 7.21,43.96 6.55,44.65 5.74,45.16 4.93,45.67 4.02,45.98 3.12,46.28 2.16,46.35 1.21,46.43 0.27,46.28 -0.67,46.12 -1.55,45.75 -2.43,45.37 -3.19,44.80 -3.96,44.22 -4.56,43.48 -5.17,42.74 -5.58,41.88 -5.99,41.01 -6.18,40.08 -6.37,39.14 -6.33,38.18 -6.29,37.23 -6.03,36.31 -5.76,35.39 -5.28,34.56 -4.80,33.73 -3.27,32.20 -1.74,30.68 -0.45,28.63 0.82,26.59 1.72,24.39 2.63,22.18 2.95,19.90 3.28,17.61 2.42,15.58 1.55,13.55 -0.06,11.81 -1.69,10.06 -2.93,8.29 -4.17,6.52 -5.22,4.61 -6.27,2.70 -2.76,3.71 0.74,4.72 2.93,4.15 5.12,3.58 6.45,1.51 7.77,-0.55 9.40,1.03 11.02,2.61 12.27,4.51 13.51,6.40 14.64,8.47 15.76,10.53 16.39,12.82 17.03,15.10 17.20,17.32 17.38,19.54 17.36,21.96 17.33,24.39 17.11,26.70 16.90,29.01 16.24,31.34 15.58,33.67 14.53,35.76 13.48,37.84 12.31,39.62 11.15,41.41 9.83,43.32 8.52,45.23 6.55,47.05 4.57,48.87 3.82,49.46 3.07,50.05 2.20,50.45 1.34,50.84 0.40,51.01 -0.53,51.19 -1.48,51.13 -2.43,51.07 -3.34,50.79 -4.26,50.51 -5.07,50.02 -5.89,49.53 -6.56,48.85 -7.24,48.18 -7.73,47.37 -8.23,46.55 -8.51,45.64 -8.80,44.73 -8.86,43.78 -8.92,42.83 -8.75,41.89 -8.58,40.95 -8.19,40.08 -7.80,39.21 -7.21,38.46 -6.62,37.71 -7.74,41.05 -8.85,44.40 -8.83,43.12 -8.80,41.84 -8.36,40.64 -7.93,39.43 -7.13,38.43 -6.34,37.43 -5.26,36.74 -4.19,36.04 -2.95,35.73 -1.71,35.41 -0.43,35.51 0.84,35.60 2.01,36.10 3.19,36.60 4.15,37.45 5.11,38.30 5.74,39.41 6.38,40.52 6.63,41.78 6.88,43.03 6.71,44.30 6.54,45.57 5.98,46.72 5.42,47.87 4.52,48.78 3.62,49.69 2.47,50.27 1.33,50.84 0.06,51.02 -1.19,51.20 -2.45,50.96 -3.71,50.73 -4.83,50.11 -5.95,49.48 -6.80,48.53 -7.66,47.59 -8.18,46.41 -8.69,45.24 -8.80,43.96 -8.91,42.69 -8.61,41.45 -8.30,40.20 -7.62,39.12 -6.94,38.04 -5.94,37.23 -4.95,36.42 -3.75,35.98 -2.55,35.53 -1.27,35.49 0.00,35.45 1.22,35.82 2.45,36.19 3.49,36.93 4.53,37.67 5.29,38.70 6.04,39.74 5.31,44.31 4.57,48.87 3.82,49.46 3.07,50.05 2.21,50.45 1.34,50.84 0.40,51.01 -0.53,51.19 -1.48,51.13 -2.43,51.07 -3.34,50.79 -4.25,50.51 -5.07,50.02 -5.89,49.53 -6.56,48.85 -7.24,48.18 -7.73,47.37 -8.23,46.55 -8.51,45.64 -8.80,44.73 -8.86,43.78 -8.92,42.83 -8.75,41.89 -8.58,40.95 -8.19,40.08 -7.80,39.21 -7.21,38.46 -6.63,37.71 -4.64,35.64 -2.66,33.57 -1.34,31.62 -0.03,29.68 0.71,27.65 1.46,25.63 1.52,23.27 1.58,20.91 1.33,18.68 1.09,16.44 -0.00,14.61 -1.11,12.78 -2.45,11.03 -3.78,9.28 -5.08,7.30 -6.38,5.32 -7.12,2.91 -7.86,0.51 -7.73,-1.67 -7.61,-3.85 -6.35,-5.61 -5.09,-7.36 -2.85,-7.96 -0.61,-8.56 2.80,-7.70 6.21,-6.84 7.43,-4.81 8.64,-2.77 9.86,-1.01 11.07,0.74 12.61,2.44 14.15,4.15 15.37,6.08 16.59,8.00 17.41,10.15 18.23,12.29 18.61,14.93 19.00,17.56 18.91,19.79 18.82,22.01 18.32,24.26 17.83,26.51 16.91,29.01 15.99,31.52 14.93,33.62 13.88,35.72 12.58,37.71 11.28,39.71 9.58,41.49 7.87,43.27 7.21,43.96 6.55,44.65 5.74,45.16 4.93,45.67 4.02,45.98 3.12,46.28 2.16,46.35 1.21,46.43 0.27,46.28 -0.67,46.12 -1.55,45.75 -2.43,45.37 -3.19,44.80 -3.96,44.22 -4.56,43.48 -5.17,42.74 -5.58,41.88 -5.99,41.01 -6.18,40.08 -6.37,39.14 -6.33,38.18 -6.29,37.23 -6.03,36.31 -5.76,35.39 -5.28,34.56 -4.80,33.73 -4.67,33.56 -4.54,33.38 -2.92,31.75 -1.31,30.11 0.11,28.50 1.55,26.89 2.12,24.72 2.69,22.56 2.34,20.41 1.99,18.26 2.02,16.10 2.06,13.94 0.29,11.63 -1.47,9.33 -2.46,7.26 -3.45,5.19 -4.38,3.16 -5.31,1.14 -5.81,-1.23 -6.32,-3.61 -5.73,-5.93 -5.14,-8.25 -4.13,-10.79 -3.12,-13.32 -2.41,-13.93 -1.70,-14.54 -0.86,-14.96 -0.03,-15.38 0.87,-15.59 1.79,-15.79 2.72,-15.78 3.66,-15.76 4.56,-15.52 5.46,-15.28 6.28,-14.83 7.10,-14.39 7.79,-13.75 8.48,-13.12 9.00,-12.34 9.52,-11.56 9.83,-10.68 10.15,-9.80 10.25,-8.87 10.34,-7.94 10.21,-7.02 10.09,-6.09 9.74,-5.22 9.39,-4.35 8.85,-3.59 8.30,-2.83 7.81,-2.23 7.33,-1.63 8.70,0.04 10.08,1.71 11.34,3.47 12.60,5.22 13.62,7.30 14.64,9.38 15.24,11.45 15.84,13.52 16.04,15.71 16.24,17.90 16.09,20.60 15.94,23.29 15.28,26.04 14.63,28.79 13.71,31.05 12.79,33.31 12.51,34.12 12.23,34.94 11.76,35.66 11.30,36.39 10.67,36.98 10.04,37.57 9.29,38.00 8.54,38.42 7.71,38.65 6.88,38.89 6.02,38.91 5.16,38.94 4.32,38.76 3.48,38.58 2.70,38.20 1.92,37.83 1.26,37.28 0.60,36.73 0.09,36.03 -0.41,35.34 -0.75,34.54 -1.08,33.75 -1.21,32.90 -1.34,32.04 -1.26,31.19 -1.18,30.33 -0.95,29.50 -0.72,28.67 0.03,26.52 0.78,24.36 1.43,22.32 2.07,20.28 1.62,18.07 1.18,15.85 0.17,13.70 -0.83,11.55 -1.86,9.61 -2.89,7.67 -3.48,5.47 -4.08,3.26 -4.28,2.38 -4.47,1.49 -4.59,0.94 -4.70,0.38 -4.68,-0.18 -4.65,-0.75 -4.50,-1.29 -4.34,-1.84 -4.06,-2.33 -3.77,-2.83 -3.38,-3.24 -2.98,-3.65 -2.50,-3.95 -2.02,-4.26 -1.48,-4.44 -0.94,-4.62 -0.38,-4.67 0.18,-4.71 0.74,-4.62 1.30,-4.53 1.83,-4.31 2.35,-4.08 2.81,-3.74 3.26,-3.40 3.62,-2.96 3.98,-2.52 4.23,-2.01 4.47,-1.49 4.47,-1.49 L 4.47,-1.49 Z"></path></g><g stroke-linecap="round" transform="translate(344.582273930671 59.255110690146466) rotate(0 37.23722138313519 52.86054153310306)"><path d="M43.23 -1.16 C49.5 -0.52, 57.01 7.44, 61.82 13.78 C66.63 20.11, 70.28 27.65, 72.09 36.83 C73.91 46.01, 74.74 59.87, 72.71 68.85 C70.67 77.84, 64.52 84.88, 59.87 90.74 C55.22 96.6, 50.77 102.31, 44.79 103.99 C38.81 105.67, 30.32 104.32, 23.99 100.8 C17.67 97.29, 10.69 90.92, 6.82 82.91 C2.95 74.89, 0.69 62.38, 0.79 52.73 C0.9 43.07, 4.05 33.2, 7.43 24.98 C10.81 16.76, 14.66 7.53, 21.08 3.38 C27.5 -0.77, 41.34 -0.04, 45.94 0.08 C50.53 0.2, 48.54 3.22, 48.63 4.11 M66.77 18.58 C71.62 25.07, 73.09 37.28, 73.88 45.85 C74.67 54.42, 74.14 61.51, 71.49 69.99 C68.83 78.47, 63.26 90.85, 57.96 96.71 C52.65 102.57, 46.48 104.54, 39.65 105.14 C32.81 105.75, 23.12 104.96, 16.96 100.34 C10.8 95.73, 5.3 86.32, 2.68 77.44 C0.07 68.56, 0.09 56.58, 1.27 47.07 C2.45 37.56, 6.18 27.86, 9.74 20.38 C13.3 12.9, 16.4 5.69, 22.62 2.21 C28.84 -1.28, 40.51 -2.76, 47.05 -0.54 C53.6 1.69, 58.74 12.53, 61.9 15.55 C65.06 18.58, 66.36 16.47, 66.03 17.64" stroke="none" stroke-width="0" fill="#ccbdac"></path><path d="M25.64 2.21 C31.74 -1.44, 39.9 -0.51, 46.41 1.42 C52.92 3.36, 60.2 7.02, 64.69 13.82 C69.18 20.63, 72.16 33, 73.36 42.25 C74.56 51.51, 73.98 60.77, 71.89 69.35 C69.8 77.93, 65.97 87.86, 60.82 93.73 C55.68 99.59, 48.18 103.92, 41.03 104.55 C33.88 105.17, 24.28 101.68, 17.93 97.48 C11.58 93.27, 5.78 87.41, 2.92 79.32 C0.07 71.24, 0.01 58.38, 0.79 48.97 C1.56 39.55, 2.02 31.29, 7.58 22.83 C13.13 14.37, 27.76 1.41, 34.14 -1.8 C40.53 -5.02, 45.98 2.27, 45.88 3.54 M51.85 2.7 C58.7 5.1, 66.86 12.16, 70.13 20.52 C73.41 28.88, 71.44 42.53, 71.51 52.85 C71.57 63.17, 73.94 74.19, 70.53 82.45 C67.11 90.71, 57.62 98.95, 51.01 102.41 C44.39 105.86, 36.88 104.95, 30.83 103.18 C24.79 101.4, 19.29 97.23, 14.74 91.75 C10.19 86.27, 5.9 78.91, 3.54 70.32 C1.19 61.73, -0.47 49.67, 0.58 40.23 C1.63 30.78, 4.56 20.73, 9.84 13.65 C15.12 6.57, 24.88 -1.02, 32.27 -2.26 C39.67 -3.49, 50.73 5.32, 54.23 6.24 C57.73 7.17, 53.67 3.07, 53.28 3.28" stroke="#1e1e1e" stroke-width="1" fill="none"></path></g><g stroke-opacity="0.7" fill-opacity="0.7" stroke-linecap="round" transform="translate(344.81759722451227 59.231890978227966) rotate(0 36.57717281684563 52.86054153310306)"><path d="M40.15 1.32 C46.14 1.51, 53.06 4.38, 58.15 10.27 C63.24 16.15, 68.69 27.82, 70.7 36.62 C72.72 45.42, 71.35 54.23, 70.24 63.07 C69.12 71.91, 68.1 82.79, 64.03 89.67 C59.95 96.55, 52.45 102.11, 45.78 104.38 C39.11 106.64, 30.37 106.74, 24.03 103.24 C17.7 99.74, 11.47 91.2, 7.76 83.36 C4.04 75.52, 2.3 65.88, 1.73 56.19 C1.15 46.51, 1.23 33.81, 4.31 25.26 C7.39 16.72, 10.54 6.61, 20.21 4.92 C29.87 3.23, 53.32 8.56, 62.29 15.14 C71.26 21.71, 74.28 43.88, 74.03 44.36 M39.54 3.12 C45.34 2.31, 53.32 2.83, 58.41 8.24 C63.5 13.64, 67.66 26.25, 70.08 35.54 C72.5 44.83, 74.5 54.52, 72.92 63.97 C71.34 73.42, 65.65 85.41, 60.61 92.24 C55.56 99.08, 48.63 103.44, 42.63 104.98 C36.64 106.53, 30.26 104.94, 24.63 101.52 C19.01 98.09, 13.4 92.1, 8.89 84.44 C4.39 76.78, -1.84 65.42, -2.39 55.54 C-2.93 45.66, 2.39 33.49, 5.62 25.14 C8.85 16.79, 10.95 9.5, 16.99 5.42 C23.02 1.34, 38.36 0.95, 41.83 0.67 C45.3 0.39, 38.23 2.66, 37.82 3.74" stroke="none" stroke-width="0" fill="#6f4e37"></path><path d="M16.52 10.36 C21.23 4.39, 29.44 -0.95, 35.75 -1.39 C42.05 -1.83, 48.86 3.07, 54.35 7.72 C59.83 12.36, 65.34 18.39, 68.63 26.46 C71.93 34.52, 74.5 46.49, 74.14 56.1 C73.79 65.71, 70.98 76.69, 66.49 84.13 C62.01 91.57, 53.89 97.23, 47.24 100.75 C40.58 104.27, 32.6 107.15, 26.57 105.25 C20.54 103.34, 15.31 96.06, 11.05 89.31 C6.78 82.57, 2.48 74.39, 0.98 64.79 C-0.51 55.19, -1.95 41.82, 2.06 31.73 C6.08 21.65, 19.86 9.33, 25.07 4.3 C30.29 -0.73, 33.14 1.24, 33.35 1.56 M40.95 -2.67 C46.75 -2.37, 50.11 5.03, 55.33 11.48 C60.55 17.93, 69.85 27, 72.28 36.04 C74.71 45.07, 71.86 57.06, 69.93 65.69 C68 74.32, 64.71 81.66, 60.7 87.81 C56.69 93.97, 51.67 99.92, 45.86 102.62 C40.05 105.31, 32.35 106.74, 25.83 103.96 C19.31 101.19, 11.43 93.8, 6.75 85.97 C2.06 78.14, -2.07 67.15, -2.28 56.97 C-2.49 46.78, 1.6 32.94, 5.5 24.88 C9.4 16.82, 15.26 13.05, 21.1 8.59 C26.94 4.13, 37.35 -0.37, 40.55 -1.88 C43.74 -3.39, 40.29 -1.2, 40.29 -0.46" stroke="#1e1e1e" stroke-width="4" fill="none"></path></g><g stroke-opacity="0.7" fill-opacity="0.7" transform="translate(389.44640056886567 73.36825959251473) rotate(0 -8.021533205310789 33.188913835720996)" stroke="none"><path fill="#1e1e1e" d="M 2.81,4.19 Q 2.81,4.19 1.49,5.18 0.18,6.17 -1.20,7.83 -2.60,9.49 -3.05,11.72 -3.50,13.96 -2.83,15.99 -2.16,18.02 -0.94,19.87 0.28,21.73 1.53,23.62 2.78,25.51 3.76,27.75 4.73,30.00 5.16,32.39 5.58,34.78 5.67,37.35 5.76,39.93 5.72,42.57 5.68,45.21 5.38,48.03 5.09,50.85 4.09,53.44 3.10,56.03 1.42,58.60 -0.25,61.17 -2.13,63.31 -4.01,65.44 -5.81,66.96 -7.61,68.47 -8.11,66.74 -8.61,65.02 -8.60,66.20 -8.59,67.38 -8.96,68.51 -9.33,69.63 -10.04,70.58 -10.75,71.53 -11.72,72.20 -12.69,72.87 -13.83,73.20 -14.97,73.52 -16.15,73.47 -17.33,73.42 -18.43,72.99 -19.53,72.56 -20.44,71.80 -21.35,71.04 -21.97,70.04 -22.59,69.03 -22.85,67.87 -23.12,66.72 -23.00,65.54 -22.88,64.37 -22.39,63.29 -21.91,62.21 -21.10,61.35 -20.29,60.48 -19.25,59.92 -18.21,59.35 -17.05,59.15 -15.88,58.95 -14.71,59.13 -13.54,59.31 -12.49,59.86 -11.44,60.40 -10.62,61.26 -9.80,62.11 -9.30,63.18 -8.79,64.25 -8.65,65.42 -8.52,66.60 -8.76,67.75 -9.00,68.91 -9.61,69.93 -10.21,70.95 -11.10,71.72 -12.00,72.50 -13.09,72.94 -14.19,73.39 -15.37,73.46 -16.55,73.54 -17.69,73.23 -18.83,72.92 -19.82,72.27 -20.80,71.61 -21.53,70.68 -22.25,69.74 -22.64,68.62 -23.02,67.51 -23.02,67.51 -23.02,67.51 -18.73,61.39 -14.44,55.28 -12.76,53.22 -11.07,51.16 -10.04,48.63 -9.01,46.11 -8.90,43.87 -8.80,41.64 -8.80,38.90 -8.81,36.15 -9.46,33.78 -10.11,31.41 -11.28,29.47 -12.45,27.53 -13.62,25.35 -14.79,23.18 -15.50,20.83 -16.21,18.49 -16.22,15.87 -16.23,13.25 -15.80,10.98 -15.37,8.71 -14.27,6.53 -13.18,4.35 -11.56,2.50 -9.94,0.65 -7.79,-0.92 -5.64,-2.51 -4.22,-3.35 -2.81,-4.19 -2.26,-4.46 -1.72,-4.74 -1.13,-4.88 -0.53,-5.01 0.06,-5.00 0.67,-5.00 1.26,-4.84 1.85,-4.69 2.38,-4.40 2.92,-4.11 3.37,-3.70 3.82,-3.29 4.16,-2.78 4.50,-2.28 4.70,-1.71 4.91,-1.14 4.98,-0.53 5.04,0.06 4.96,0.67 4.88,1.27 4.65,1.84 4.43,2.40 4.08,2.90 3.73,3.39 3.27,3.79 2.80,4.19 2.80,4.19 L 2.81,4.19 Z"></path></g><g stroke-opacity="0.7" fill-opacity="0.7" transform="translate(378.75557751482813 92.50518177080266) rotate(0 5.064018233002798 17.67660713611258)" stroke="none"><path fill="#1e1e1e" d="M 4.47,-1.49 Q 4.47,-1.49 4.85,-0.67 5.23,0.15 6.46,2.00 7.69,3.85 9.05,5.57 10.40,7.28 11.76,9.28 13.11,11.27 13.97,13.41 14.82,15.56 15.14,17.89 15.45,20.23 15.24,22.47 15.02,24.71 14.45,26.94 13.88,29.18 13.31,31.25 12.75,33.32 12.77,33.31 12.79,33.31 12.51,34.12 12.23,34.94 11.76,35.66 11.30,36.39 10.67,36.98 10.04,37.57 9.29,38.00 8.54,38.42 7.71,38.65 6.88,38.89 6.02,38.91 5.16,38.94 4.32,38.76 3.47,38.58 2.70,38.20 1.92,37.83 1.26,37.28 0.60,36.73 0.09,36.03 -0.42,35.34 -0.75,34.54 -1.08,33.75 -1.21,32.90 -1.34,32.04 -1.26,31.19 -1.18,30.33 -0.39,28.08 0.39,25.84 0.90,23.76 1.40,21.68 1.39,19.36 1.38,17.04 0.50,14.95 -0.38,12.86 -1.80,11.13 -3.22,9.39 -4.55,7.70 -5.89,6.01 -6.74,3.86 -7.59,1.72 -7.74,-0.42 -7.89,-2.56 -7.50,-4.77 -7.10,-6.97 -6.08,-8.97 -5.06,-10.97 -4.09,-12.15 -3.12,-13.32 -2.41,-13.93 -1.70,-14.54 -0.86,-14.96 -0.03,-15.38 0.87,-15.59 1.79,-15.79 2.72,-15.78 3.66,-15.76 4.56,-15.52 5.46,-15.28 6.28,-14.83 7.10,-14.38 7.79,-13.75 8.48,-13.12 9.00,-12.34 9.52,-11.56 9.83,-10.68 10.15,-9.80 10.25,-8.87 10.34,-7.94 10.21,-7.02 10.09,-6.09 9.74,-5.22 9.39,-4.35 8.85,-3.59 8.30,-2.83 9.31,-5.34 10.32,-7.85 9.68,-5.71 9.04,-3.57 10.28,-1.70 11.51,0.16 12.50,2.15 13.48,4.14 14.03,6.20 14.58,8.26 12.97,6.06 11.35,3.86 13.02,5.52 14.69,7.18 15.44,9.30 16.18,11.42 16.95,13.74 17.72,16.05 18.04,18.44 18.36,20.83 18.46,22.98 18.56,25.13 18.26,27.46 17.95,29.79 17.09,31.78 16.22,33.78 14.81,35.58 13.39,37.39 11.95,39.03 10.51,40.67 8.95,42.21 7.40,43.74 7.64,43.51 7.87,43.27 7.21,43.96 6.55,44.65 5.74,45.16 4.93,45.67 4.02,45.98 3.12,46.28 2.16,46.35 1.21,46.43 0.27,46.28 -0.67,46.12 -1.55,45.75 -2.43,45.37 -3.19,44.80 -3.96,44.22 -4.56,43.48 -5.17,42.74 -5.58,41.88 -5.99,41.01 -6.18,40.08 -6.37,39.14 -6.33,38.18 -6.29,37.23 -6.03,36.31 -5.76,35.39 -5.28,34.56 -4.80,33.73 -3.27,32.20 -1.74,30.68 -0.45,28.63 0.82,26.59 1.72,24.39 2.63,22.18 2.95,19.90 3.28,17.61 2.42,15.58 1.55,13.55 -0.06,11.81 -1.69,10.06 -2.93,8.29 -4.17,6.52 -5.22,4.61 -6.27,2.70 -2.76,3.71 0.74,4.72 2.93,4.15 5.12,3.58 6.45,1.51 7.77,-0.55 9.40,1.03 11.02,2.61 12.27,4.51 13.51,6.40 14.64,8.47 15.76,10.53 16.39,12.82 17.03,15.10 17.20,17.32 17.38,19.54 17.36,21.96 17.33,24.39 17.11,26.70 16.90,29.01 16.24,31.34 15.58,33.67 14.53,35.76 13.48,37.84 12.31,39.62 11.15,41.41 9.83,43.32 8.52,45.23 6.55,47.05 4.57,48.87 3.82,49.46 3.07,50.05 2.20,50.45 1.34,50.84 0.40,51.01 -0.53,51.19 -1.48,51.13 -2.43,51.07 -3.34,50.79 -4.26,50.51 -5.07,50.02 -5.89,49.53 -6.56,48.85 -7.24,48.18 -7.73,47.37 -8.23,46.55 -8.51,45.64 -8.80,44.73 -8.86,43.78 -8.92,42.83 -8.75,41.89 -8.58,40.95 -8.19,40.08 -7.80,39.21 -7.21,38.46 -6.62,37.71 -7.74,41.05 -8.85,44.40 -8.83,43.12 -8.80,41.84 -8.36,40.64 -7.93,39.43 -7.13,38.43 -6.34,37.43 -5.26,36.74 -4.19,36.04 -2.95,35.73 -1.71,35.41 -0.43,35.51 0.84,35.60 2.01,36.10 3.19,36.60 4.15,37.45 5.11,38.30 5.74,39.41 6.38,40.52 6.63,41.78 6.88,43.03 6.71,44.30 6.54,45.57 5.98,46.72 5.42,47.87 4.52,48.78 3.62,49.69 2.47,50.27 1.33,50.84 0.06,51.02 -1.19,51.20 -2.45,50.96 -3.71,50.73 -4.83,50.11 -5.95,49.48 -6.80,48.53 -7.66,47.59 -8.18,46.41 -8.69,45.24 -8.80,43.96 -8.91,42.69 -8.61,41.45 -8.30,40.20 -7.62,39.12 -6.94,38.04 -5.94,37.23 -4.95,36.42 -3.75,35.98 -2.55,35.53 -1.27,35.49 0.00,35.45 1.22,35.82 2.45,36.19 3.49,36.93 4.53,37.67 5.29,38.70 6.04,39.74 5.31,44.31 4.57,48.87 3.82,49.46 3.07,50.05 2.21,50.45 1.34,50.84 0.40,51.01 -0.53,51.19 -1.48,51.13 -2.43,51.07 -3.34,50.79 -4.25,50.51 -5.07,50.02 -5.89,49.53 -6.56,48.85 -7.24,48.18 -7.73,47.37 -8.23,46.55 -8.51,45.64 -8.80,44.73 -8.86,43.78 -8.92,42.83 -8.75,41.89 -8.58,40.95 -8.19,40.08 -7.80,39.21 -7.21,38.46 -6.63,37.71 -4.64,35.64 -2.66,33.57 -1.34,31.62 -0.03,29.68 0.71,27.65 1.46,25.63 1.52,23.27 1.58,20.91 1.33,18.68 1.09,16.44 -0.00,14.61 -1.11,12.78 -2.45,11.03 -3.78,9.28 -5.08,7.30 -6.38,5.32 -7.12,2.91 -7.86,0.51 -7.73,-1.67 -7.61,-3.85 -6.35,-5.61 -5.09,-7.36 -2.85,-7.96 -0.61,-8.56 2.80,-7.70 6.21,-6.84 7.43,-4.81 8.64,-2.77 9.86,-1.01 11.07,0.74 12.61,2.44 14.15,4.15 15.37,6.08 16.59,8.00 17.41,10.15 18.23,12.29 18.61,14.93 19.00,17.56 18.91,19.79 18.82,22.01 18.32,24.26 17.83,26.51 16.91,29.01 15.99,31.52 14.93,33.62 13.88,35.72 12.58,37.71 11.28,39.71 9.58,41.49 7.87,43.27 7.21,43.96 6.55,44.65 5.74,45.16 4.93,45.67 4.02,45.98 3.12,46.28 2.16,46.35 1.21,46.43 0.27,46.28 -0.67,46.12 -1.55,45.75 -2.43,45.37 -3.19,44.80 -3.96,44.22 -4.56,43.48 -5.17,42.74 -5.58,41.88 -5.99,41.01 -6.18,40.08 -6.37,39.14 -6.33,38.18 -6.29,37.23 -6.03,36.31 -5.76,35.39 -5.28,34.56 -4.80,33.73 -4.67,33.56 -4.54,33.38 -2.92,31.75 -1.31,30.11 0.11,28.50 1.55,26.89 2.12,24.72 2.69,22.56 2.34,20.41 1.99,18.26 2.02,16.10 2.06,13.94 0.29,11.63 -1.47,9.33 -2.46,7.26 -3.45,5.19 -4.38,3.16 -5.31,1.14 -5.81,-1.23 -6.32,-3.61 -5.73,-5.93 -5.14,-8.25 -4.13,-10.79 -3.12,-13.32 -2.41,-13.93 -1.70,-14.54 -0.86,-14.96 -0.03,-15.38 0.87,-15.59 1.79,-15.79 2.72,-15.78 3.66,-15.76 4.56,-15.52 5.46,-15.28 6.28,-14.83 7.10,-14.39 7.79,-13.75 8.48,-13.12 9.00,-12.34 9.52,-11.56 9.83,-10.68 10.15,-9.80 10.25,-8.87 10.34,-7.94 10.21,-7.02 10.09,-6.09 9.74,-5.22 9.39,-4.35 8.85,-3.59 8.30,-2.83 7.81,-2.23 7.33,-1.63 8.70,0.04 10.08,1.71 11.34,3.47 12.60,5.22 13.62,7.30 14.64,9.38 15.24,11.45 15.84,13.52 16.04,15.71 16.24,17.90 16.09,20.60 15.94,23.29 15.28,26.04 14.63,28.79 13.71,31.05 12.79,33.31 12.51,34.12 12.23,34.94 11.76,35.66 11.30,36.39 10.67,36.98 10.04,37.57 9.29,38.00 8.54,38.42 7.71,38.65 6.88,38.89 6.02,38.91 5.16,38.94 4.32,38.76 3.48,38.58 2.70,38.20 1.92,37.83 1.26,37.28 0.60,36.73 0.09,36.03 -0.41,35.34 -0.75,34.54 -1.08,33.75 -1.21,32.90 -1.34,32.04 -1.26,31.19 -1.18,30.33 -0.95,29.50 -0.72,28.67 0.03,26.52 0.78,24.36 1.43,22.32 2.07,20.28 1.62,18.07 1.18,15.85 0.17,13.70 -0.83,11.55 -1.86,9.61 -2.89,7.67 -3.48,5.47 -4.08,3.26 -4.28,2.38 -4.47,1.49 -4.59,0.94 -4.70,0.38 -4.68,-0.18 -4.65,-0.75 -4.50,-1.29 -4.34,-1.84 -4.06,-2.33 -3.77,-2.83 -3.38,-3.24 -2.98,-3.65 -2.50,-3.95 -2.02,-4.26 -1.48,-4.44 -0.94,-4.62 -0.38,-4.67 0.18,-4.71 0.74,-4.62 1.30,-4.53 1.83,-4.31 2.35,-4.08 2.81,-3.74 3.26,-3.40 3.62,-2.96 3.98,-2.52 4.23,-2.01 4.47,-1.49 4.47,-1.49 L 4.47,-1.49 Z"></path></g><g stroke-linecap="round" transform="translate(10 46.190690372104655) rotate(0 205.91288523024713 65.46184595809245)"><path d="M0 0 C98.49 0, 196.99 0, 411.83 0 M0 0 C117.45 0, 234.91 0, 411.83 0 M411.83 0 C411.83 26.83, 411.83 53.65, 411.83 130.92 M411.83 0 C411.83 36.45, 411.83 72.9, 411.83 130.92 M411.83 130.92 C325.47 130.92, 239.12 130.92, 0 130.92 M411.83 130.92 C272.36 130.92, 132.9 130.92, 0 130.92 M0 130.92 C0 86.16, 0 41.4, 0 0 M0 130.92 C0 91.82, 0 52.71, 0 0" stroke="#e03131" stroke-width="2" fill="none"></path></g><g transform="translate(202.0617809423353 10) rotate(0 7.7861328125 16.100000000000364)"><text x="0" y="0" font-family="Helvetica, Segoe UI Emoji" font-size="28px" fill="#e03131" text-anchor="start" style="white-space: pre;" direction="ltr" dominant-baseline="text-before-edge">5</text></g></svg>