<svg xmlns="http://www.w3.org/2000/svg" width="577.605" height="545.11"><defs><style>@font-face{font-family:&quot;Virgil&quot;;src:url(https://excalidraw.com/Virgil.woff2)}@font-face{font-family:&quot;Cascadia&quot;;src:url(https://excalidraw.com/Cascadia.woff2)}@font-face{font-family:&quot;Assistant&quot;;src:url(https://excalidraw.com/Assistant-Regular.woff2)}</style></defs><path fill="none" stroke="#1e1e1e" stroke-linecap="round" stroke-width="4" d="M167.37 235.131c7.52-3.7 19.18-4.53 28.49-3.65s19.92 4.46 27.37 8.92 14.09 11.32 17.31 17.85 4.3 14.44 2 21.34-8.86 15.13-15.78 20.08c-6.92 4.94-16.84 8.32-25.75 9.59s-18.97.49-27.71-1.98c-8.73-2.46-19.03-7.22-24.72-12.82-5.68-5.6-8.94-13.58-9.39-20.76-.44-7.18.3-15.52 6.74-22.33 6.44-6.8 24.88-15.3 31.9-18.5 7.02-3.19 10.08-1.42 10.2-.67m11.88-1.03c8.85.69 19.87 6.27 27 11.07s13.45 10.71 15.76 17.71c2.32 7 1.24 17.17-1.87 24.29-3.11 7.11-9.83 14.16-16.78 18.41-6.95 4.24-15.94 6.19-24.93 7.04-9 .86-20.6 1.01-29.02-1.91s-16.45-9.43-21.48-15.61c-5.04-6.19-8.55-14.34-8.76-21.5s2.46-15.47 7.5-21.47c5.05-6 14.26-11.65 22.78-14.55 8.53-2.89 23.44-2.4 28.4-2.84s1.04-.28 1.37.21"/><path fill="none" stroke="#1e1e1e" stroke-linecap="round" stroke-width="4" d="M156.882 272.663c5.19 1.68 22.52 11.24 32.87 11.26 10.36.03 24.27-9.32 29.28-11.13m-60.55-1.44c5.03 1.78 20.1 13.44 30.6 13.83 10.51.39 27.28-9.6 32.43-11.48M169.14 261.018c.98-.71 3.94-4.29 5.42-4.24 1.49.04 2.87 3.74 3.49 4.52m-9.26.41c1.13-.66 4.95-4.58 6.45-4.6 1.51-.02 2.04 3.73 2.57 4.5M197.84 261.112c.94-.69 4.45-4.17 6.03-4.09s2.92 3.76 3.48 4.56m-8.98.18c.88-.63 3.74-4.4 5.21-4.37 1.48.04 3.02 3.94 3.64 4.56M174.736 330.663c-10.76 2.7-44.25 9.83-65.26 15.92-21.02 6.08-50.47 17.41-60.82 20.61m124.6-37.83c-10.79 2.96-43.5 12.74-64.38 18.71s-50.6 14.05-60.91 17.11M198.263 327.942c11.14 2.28 44.65 7.75 66.1 13.28 21.44 5.54 52.03 16.58 62.6 19.95m-129.81-34.32c11 1.98 44.32 6.72 66.34 12.59s55.06 18.84 65.77 22.64M189.386 342.484c-.72 12.69-3.5 46.11-3.79 75.44-.29 29.34 1.83 83.55 2.03 100.59m.38-176.74c-.42 12.84-.06 47.65-.28 77.29-.22 29.63-.83 83.97-1.04 100.5M172.4 532.906c-8.74-.27-42.49-.41-51.16-.16m52.78 2.36c-8.94-.15-45.35-.68-53.91-1.09M195.588 532.538c8.99.22 44.3 1.21 53.2 1.03m-51.18-2.34c9.44-.02 44.32.64 53.27.82"/><path fill="none" stroke="#1e1e1e" stroke-linecap="round" stroke-width="4" d="M328.413 361.956c1.76-2.14 8.99-11.32 10.91-13.57m-10.18 13.36c1.93-2.06 9.43-10.74 11.18-12.88M329.195 361.947c3.11-1.53 15.43-6.81 18.56-8.19m-17.79 9.16c3.09-1.23 14.44-7.16 17.42-8.63"/><path fill="none" stroke="#1e1e1e" stroke-linecap="round" stroke-width="4" d="M329.613 362.805c3.33.38 16.22 1.73 19.41 2.22m-20.01-1.2c3.32.48 16.52 1.51 19.76 1.69"/><path fill="none" stroke="#1e1e1e" stroke-linecap="round" stroke-width="4" d="M330.265 362.782c1.98 1.65 9.72 8.31 11.64 9.99m-12.12-9.01c1.91 1.52 9.78 6.84 11.72 8.22M328.657 363.826c.56 2.58 3.04 12.35 3.64 14.72m-4.27-15.02c.45 2.47 3.18 11.76 3.83 14.28M48.492 366.93c-.812 2.602-4.107 12.935-4.834 15.532m4.12-15.481c-.855 2.7-3.548 13.845-4.247 16.286M47.612 365.911c-2.117 2.44-10.354 12.568-12.464 15.049m11.633-15.208c-2.232 2.262-10.25 11.905-12.217 14.507M46.829 365.016c-3.018.95-15.409 4.751-18.565 5.687m17.98-5.837c-3.027 1.052-14.886 5.512-17.966 6.567"/><path fill="none" stroke="#1e1e1e" stroke-linecap="round" stroke-width="4" d="M46.785 365.264c-2.537-.621-12.617-2.977-15.055-3.501m14.37 3.254c-2.617-.509-12.112-1.944-14.543-2.549M47.882 364.32c-1.566-1.913-7.526-9.425-9.04-11.416m8.849 12.657c-1.692-2.02-8.015-11.17-9.489-13.289"/><path fill="none" stroke="#e03131" stroke-linecap="round" d="M45.006 351.912c0 .34-.03.69-.09 1.02-.06.34-.15.68-.27 1-.11.32-.26.63-.43.93s-.37.58-.59.84-.47.51-.73.73-.54.42-.84.59-.61.32-.93.43c-.32.12-.66.21-1 .27a5.8 5.8 0 0 1-2.04 0c-.34-.06-.68-.15-1-.27-.32-.11-.63-.26-.93-.43s-.58-.37-.84-.59a6.3 6.3 0 0 1-.73-.73c-.22-.26-.42-.54-.59-.84s-.32-.61-.43-.93c-.12-.32-.21-.66-.27-1a5.8 5.8 0 0 1 0-2.04c.06-.34.15-.68.27-1 .11-.32.26-.63.43-.93s.37-.58.59-.84.47-.51.73-.73.54-.42.84-.59.61-.32.93-.43c.32-.12.66-.21 1-.27a5.8 5.8 0 0 1 2.04 0c.34.06.68.15 1 .27.32.11.63.26.93.43s.58.37.84.59.51.47.73.73.42.54.59.84.32.61.43.93c.12.32.21.66.27 1 .06.33.08.85.09 1.02.02.17.02-.17 0 0"/><path fill="none" stroke="#e03131" stroke-linecap="round" d="M37.286 360.32c0 .34-.03.69-.09 1.02-.06.34-.15.68-.27 1-.11.32-.26.63-.43.93s-.37.58-.59.84-.47.51-.73.73-.54.42-.84.59-.61.32-.93.43c-.32.12-.66.21-1 .27a5.8 5.8 0 0 1-2.04 0c-.34-.06-.68-.15-1-.27-.32-.11-.63-.26-.93-.43s-.58-.37-.84-.59a6.3 6.3 0 0 1-.73-.73c-.22-.26-.42-.54-.59-.84s-.32-.61-.43-.93c-.12-.32-.21-.66-.27-1a5.8 5.8 0 0 1 0-2.04c.06-.34.15-.68.27-1 .11-.32.26-.63.43-.93s.37-.58.59-.84.47-.51.73-.73.54-.42.84-.59.61-.32.93-.43c.32-.12.66-.21 1-.27a5.8 5.8 0 0 1 2.04 0c.34.06.68.15 1 .27.32.11.63.26.93.43s.58.37.84.59.51.47.73.73.42.54.59.84.32.61.43.93c.12.32.21.66.27 1 .06.33.08.85.09 1.02.02.17.02-.17 0 0M32.638 371.262c0 .34-.03.69-.09 1.02-.06.34-.15.68-.27 1-.11.32-.26.63-.43.93s-.37.58-.59.84-.47.51-.73.73-.54.42-.84.59-.61.32-.93.43c-.32.12-.66.21-1 .27a5.8 5.8 0 0 1-2.04 0c-.34-.06-.68-.15-1-.27-.32-.11-.63-.26-.93-.43s-.58-.37-.84-.59a6.3 6.3 0 0 1-.73-.73c-.22-.26-.42-.54-.59-.84s-.32-.61-.43-.93c-.12-.32-.21-.66-.27-1a5.8 5.8 0 0 1 0-2.04c.06-.34.15-.68.27-1 .11-.32.26-.63.43-.93s.37-.58.59-.84.47-.51.73-.73.54-.42.84-.59.61-.32.93-.43c.32-.12.66-.21 1-.27a5.8 5.8 0 0 1 2.04 0c.34.06.68.15 1 .27.32.11.63.26.93.43s.58.37.84.59.51.47.73.73.42.54.59.84.32.61.43.93c.12.32.21.66.27 1 .06.33.08.85.09 1.02.02.17.02-.17 0 0M38.68 381.89c0 .34-.03.69-.09 1.02-.06.34-.15.68-.27 1-.11.32-.26.63-.43.93s-.37.58-.59.84-.47.51-.73.73-.54.42-.84.59-.61.32-.93.43c-.32.12-.66.21-1 .27a5.8 5.8 0 0 1-2.04 0c-.34-.06-.68-.15-1-.27-.32-.11-.63-.26-.93-.43s-.58-.37-.84-.59a6.3 6.3 0 0 1-.73-.73c-.22-.26-.42-.54-.59-.84s-.32-.61-.43-.93c-.12-.32-.21-.66-.27-1a5.8 5.8 0 0 1 0-2.04c.06-.34.15-.68.27-1 .11-.32.26-.63.43-.93s.37-.58.59-.84.47-.51.73-.73.54-.42.84-.59.61-.32.93-.43c.32-.12.66-.21 1-.27a5.8 5.8 0 0 1 2.04 0c.34.06.68.15 1 .27.32.11.63.26.93.43s.58.37.84.59.51.47.73.73.42.54.59.84.32.61.43.93c.12.32.21.66.27 1 .06.33.08.85.09 1.02.02.17.02-.17 0 0M49.957 385.87c0 .34-.03.69-.09 1.02-.06.34-.15.68-.27 1-.11.32-.26.63-.43.93s-.37.58-.59.84-.47.51-.73.73-.54.42-.84.59-.61.32-.93.43c-.32.12-.66.21-1 .27a5.8 5.8 0 0 1-2.04 0c-.34-.06-.68-.15-1-.27-.32-.11-.63-.26-.93-.43s-.58-.37-.84-.59a6.3 6.3 0 0 1-.73-.73c-.22-.26-.42-.54-.59-.84s-.32-.61-.43-.93c-.12-.32-.21-.66-.27-1a5.8 5.8 0 0 1 0-2.04c.06-.34.15-.68.27-1 .11-.32.26-.63.43-.93s.37-.58.59-.84.47-.51.73-.73.54-.42.84-.59.61-.32.93-.43c.32-.12.66-.21 1-.27a5.8 5.8 0 0 1 2.04 0c.34.06.68.15 1 .27.32.11.63.26.93.43s.58.37.84.59.51.47.73.73.42.54.59.84.32.61.43.93c.12.32.21.66.27 1 .06.33.08.85.09 1.02.02.17.02-.17 0 0M337.776 379.05c0 .34-.03.69-.09 1.02-.06.34-.15.68-.27 1-.11.32-.26.63-.43.93s-.37.58-.59.84-.47.51-.73.73-.54.42-.84.59-.61.32-.93.43c-.32.12-.66.21-1 .27a5.8 5.8 0 0 1-2.04 0c-.34-.06-.68-.15-1-.27-.32-.11-.63-.26-.93-.43s-.58-.37-.84-.59a6.3 6.3 0 0 1-.73-.73c-.22-.26-.42-.54-.59-.84s-.32-.61-.43-.93c-.12-.32-.21-.66-.27-1a5.8 5.8 0 0 1 0-2.04c.06-.34.15-.68.27-1 .11-.32.26-.63.43-.93s.37-.58.59-.84.47-.51.73-.73.54-.42.84-.59.61-.32.93-.43c.32-.12.66-.21 1-.27a5.8 5.8 0 0 1 2.04 0c.34.06.68.15 1 .27.32.11.63.26.93.43s.58.37.84.59.51.47.73.73.42.54.59.84.32.61.43.93c.12.32.21.66.27 1 .06.33.08.85.09 1.02.02.17.02-.17 0 0M349.294 374.754c0 .34-.03.69-.09 1.02-.06.34-.15.68-.27 1-.11.32-.26.63-.43.93s-.37.58-.59.84-.47.51-.73.73-.54.42-.84.59-.61.32-.93.43c-.32.12-.66.21-1 .27a5.8 5.8 0 0 1-2.04 0c-.34-.06-.68-.15-1-.27-.32-.11-.63-.26-.93-.43s-.58-.37-.84-.59a6.3 6.3 0 0 1-.73-.73c-.22-.26-.42-.54-.59-.84s-.32-.61-.43-.93c-.12-.32-.21-.66-.27-1a5.8 5.8 0 0 1 0-2.04c.06-.34.15-.68.27-1 .11-.32.26-.63.43-.93s.37-.58.59-.84.47-.51.73-.73.54-.42.84-.59.61-.32.93-.43c.32-.12.66-.21 1-.27a5.8 5.8 0 0 1 2.04 0c.34.06.68.15 1 .27.32.11.63.26.93.43s.58.37.84.59.51.47.73.73.42.54.59.84.32.61.43.93c.12.32.21.66.27 1 .06.33.08.85.09 1.02.02.17.02-.17 0 0M357.266 364.42c0 .34-.03.69-.09 1.02-.06.34-.15.68-.27 1-.11.32-.26.63-.43.93s-.37.58-.59.84-.47.51-.73.73-.54.42-.84.59-.61.32-.93.43c-.32.12-.66.21-1 .27a5.8 5.8 0 0 1-2.04 0c-.34-.06-.68-.15-1-.27-.32-.11-.63-.26-.93-.43s-.58-.37-.84-.59a6.3 6.3 0 0 1-.73-.73c-.22-.26-.42-.54-.59-.84s-.32-.61-.43-.93c-.12-.32-.21-.66-.27-1a5.8 5.8 0 0 1 0-2.04c.06-.34.15-.68.27-1 .11-.32.26-.63.43-.93s.37-.58.59-.84.47-.51.73-.73.54-.42.84-.59.61-.32.93-.43c.32-.12.66-.21 1-.27a5.8 5.8 0 0 1 2.04 0c.34.06.68.15 1 .27.32.11.63.26.93.43s.58.37.84.59.51.47.73.73.42.54.59.84.32.61.43.93c.12.32.21.66.27 1 .06.33.08.85.09 1.02.02.17.02-.17 0 0M356.388 351.905c0 .34-.03.69-.09 1.02-.06.34-.15.68-.27 1-.11.32-.26.63-.43.93s-.37.58-.59.84-.47.51-.73.73-.54.42-.84.59-.61.32-.93.43c-.32.12-.66.21-1 .27a5.8 5.8 0 0 1-2.04 0c-.34-.06-.68-.15-1-.27-.32-.11-.63-.26-.93-.43s-.58-.37-.84-.59a6.3 6.3 0 0 1-.73-.73c-.22-.26-.42-.54-.59-.84s-.32-.61-.43-.93c-.12-.32-.21-.66-.27-1a5.8 5.8 0 0 1 0-2.04c.06-.34.15-.68.27-1 .11-.32.26-.63.43-.93s.37-.58.59-.84.47-.51.73-.73.54-.42.84-.59.61-.32.93-.43c.32-.12.66-.21 1-.27a5.8 5.8 0 0 1 2.04 0c.34.06.68.15 1 .27.32.11.63.26.93.43s.58.37.84.59.51.47.73.73.42.54.59.84.32.61.43.93c.12.32.21.66.27 1 .06.33.08.85.09 1.02.02.17.02-.17 0 0M345.758 345.02c0 .34-.03.69-.09 1.02-.06.34-.15.68-.27 1-.11.32-.26.63-.43.93s-.37.58-.59.84-.47.51-.73.73-.54.42-.84.59-.61.32-.93.43c-.32.12-.66.21-1 .27a5.8 5.8 0 0 1-2.04 0c-.34-.06-.68-.15-1-.27-.32-.11-.63-.26-.93-.43s-.58-.37-.84-.59a6.3 6.3 0 0 1-.73-.73c-.22-.26-.42-.54-.59-.84s-.32-.61-.43-.93c-.12-.32-.21-.66-.27-1a5.8 5.8 0 0 1 0-2.04c.06-.34.15-.68.27-1 .11-.32.26-.63.43-.93s.37-.58.59-.84.47-.51.73-.73.54-.42.84-.59.61-.32.93-.43c.32-.12.66-.21 1-.27a5.8 5.8 0 0 1 2.04 0c.34.06.68.15 1 .27.32.11.63.26.93.43s.58.37.84.59.51.47.73.73.42.54.59.84.32.61.43.93c.12.32.21.66.27 1 .06.33.08.85.09 1.02.02.17.02-.17 0 0"/><text y="14.72" fill="#e03131" dominant-baseline="alphabetic" font-family="Helvetica, Segoe UI Emoji" font-size="16" style="white-space:pre" transform="translate(33.267 328.486)">1</text><text y="14.72" fill="#e03131" dominant-baseline="alphabetic" font-family="Helvetica, Segoe UI Emoji" font-size="16" style="white-space:pre" transform="translate(19.334 337.388)">2</text><text y="14.72" fill="#e03131" dominant-baseline="alphabetic" font-family="Helvetica, Segoe UI Emoji" font-size="16" style="white-space:pre" transform="translate(10 357.314)">3</text><text y="14.72" fill="#e03131" dominant-baseline="alphabetic" font-family="Helvetica, Segoe UI Emoji" font-size="16" style="white-space:pre" transform="translate(15.988 379.56)">4</text><text y="14.72" fill="#e03131" dominant-baseline="alphabetic" font-family="Helvetica, Segoe UI Emoji" font-size="16" style="white-space:pre" transform="translate(35.268 391.652)">5</text><text y="14.72" fill="#e03131" dominant-baseline="alphabetic" font-family="Helvetica, Segoe UI Emoji" font-size="16" style="white-space:pre" transform="translate(341.383 324.124)">6</text><text y="14.72" fill="#e03131" dominant-baseline="alphabetic" font-family="Helvetica, Segoe UI Emoji" font-size="16" style="white-space:pre" transform="translate(356.915 338.082)">7</text><text y="14.72" fill="#e03131" dominant-baseline="alphabetic" font-family="Helvetica, Segoe UI Emoji" font-size="16" style="white-space:pre" transform="translate(358.652 358.769)">8</text><text y="14.72" fill="#e03131" dominant-baseline="alphabetic" font-family="Helvetica, Segoe UI Emoji" font-size="16" style="white-space:pre" transform="translate(347.613 376.717)">9</text><text y="14.72" fill="#e03131" dominant-baseline="alphabetic" font-family="Helvetica, Segoe UI Emoji" font-size="16" style="white-space:pre" transform="translate(324.039 385.314)">10</text><g stroke-linecap="round"><path fill="#fff" stroke-width="0" d="M325.146 10.01c5.96-1.29 13.67.61 19.3 3.92 5.64 3.3 11.73 9.88 14.51 15.89 2.78 6.02 3.35 13.86 2.16 20.22-1.19 6.35-4.68 13.53-9.28 17.91-4.61 4.38-11.9 7.82-18.36 8.38s-14.53-1.79-20.43-5.01c-5.89-3.21-12.18-8.46-14.94-14.29-2.77-5.82-3.1-14.19-1.65-20.65 1.45-6.47 4.97-13.7 10.33-18.15 5.35-4.46 17.74-7.29 21.8-8.58 4.05-1.3 2.46.1 2.52.82m-16.2.81c5.79-2.96 15.59-1.9 22.13-.19 6.53 1.7 12.77 5.6 17.08 10.42s8.1 12.08 8.79 18.52c.69 6.43-1.23 14.77-4.66 20.1-3.42 5.33-9.55 9.34-15.88 11.89-6.34 2.55-15.99 4.65-22.15 3.4-6.15-1.25-10.64-6.19-14.8-10.9-4.17-4.72-9.31-11-10.18-17.37-.88-6.37 1.68-15.21 4.94-20.88 3.27-5.67 12.1-10.91 14.66-13.14s.46-.45.69-.24"/><path fill="none" stroke="#000" d="M315.126 13.7c5.5-2.9 13.38-4.21 19.57-2.96 6.18 1.24 12.97 5.85 17.53 10.45 4.57 4.6 8.99 11.02 9.85 17.14s-1.35 13.93-4.67 19.59c-3.32 5.65-9.54 11.58-15.26 14.36s-12.76 3.3-19.07 2.32-14.42-3.65-18.78-8.22c-4.37-4.57-6.52-12.58-7.42-19.21-.89-6.64-2.21-14.48 2.04-20.63s18.34-13.8 23.49-16.29c5.15-2.48 7.45.73 7.43 1.39m3.5-2.02c5.68.46 12.98 5.78 17.78 10.44 4.8 4.67 10.11 10.9 11.02 17.55.9 6.65-2.38 16.41-5.57 22.37-3.19 5.95-7.96 10.99-13.56 13.36-5.6 2.36-13.84 2.01-20.03.82-6.2-1.18-12.64-3.39-17.15-7.93-4.52-4.53-9.12-12.89-9.94-19.26-.83-6.38 1.85-13.22 4.98-19.01 3.13-5.78 8.12-12.76 13.8-15.7 5.67-2.93 17-1.88 20.24-1.92 3.24-.03-.6 1.22-.81 1.7"/></g><g stroke-linecap="round"><path fill="#fff" stroke-width="0" d="M344.767 16.203c6.8-1.4 16.31.63 22.96 3.74 6.65 3.12 13.2 9 16.95 14.94 3.75 5.95 5.92 13.57 5.54 20.73-.39 7.16-3.79 16.17-7.86 22.22-4.07 6.04-10.14 11.3-16.58 14.05-6.43 2.75-14.9 3.63-22.03 2.44-7.14-1.18-15.16-4.75-20.78-9.55s-11.09-12.45-12.95-19.26c-1.85-6.8-.38-14.65 1.82-21.58 2.2-6.92 5.27-15.13 11.38-19.98 6.1-4.86 20.81-7.95 25.26-9.14s1.48 1.17 1.44 1.99m6.08-.84c6.74.1 14.95 2.87 20.07 7.5 5.12 4.64 8.34 13.25 10.62 20.31 2.28 7.05 4.88 14.94 3.06 22.03-1.83 7.09-8.37 15.63-14.03 20.49s-12.75 7.65-19.91 8.67-16.39.44-23.04-2.56c-6.64-3-12.87-9.11-16.84-15.43s-7.02-15.44-6.97-22.51 3.4-13.76 7.27-19.91 9.32-13.61 15.95-17c6.63-3.4 20.25-3.06 23.83-3.39 3.58-.32-1.91.33-2.35 1.43"/><path fill="none" stroke="#000" d="M334.337 18.493c5.95-3.06 14.84-2.86 22.06-1.66 7.21 1.19 15.94 4.21 21.24 8.84s9 11.98 10.55 18.95c1.55 6.96.89 16.02-1.27 22.86-2.17 6.84-6.15 13.46-11.72 18.19-5.57 4.72-14.61 9.24-21.7 10.13s-14.33-1.36-20.83-4.82c-6.51-3.45-14.42-9.69-18.19-15.93-3.78-6.24-4.82-14.6-4.47-21.53s2.4-14.16 6.58-20.06c4.18-5.89 15.02-12.9 18.48-15.31 3.45-2.42 1.83.38 2.26.81m1.27-2.87c6.43-2.31 13.82-.2 20.65 2 6.84 2.21 15.32 6.27 20.35 11.22s8.54 11.39 9.83 18.49c1.3 7.1.87 17.36-2.09 24.11-2.95 6.74-9.66 12.35-15.64 16.36s-13.08 7.71-20.23 7.72c-7.16.01-16.42-3.72-22.71-7.67-6.28-3.95-11.8-9.81-15-16.03s-5.03-14.06-4.2-21.29c.82-7.23 4.25-16.33 9.15-22.09s17.06-10.65 20.24-12.47-1.29.72-1.16 1.53"/></g><g stroke-linecap="round"><path fill="#fff" stroke-width="0" d="M395.157 17.785c6.77 1.84 13.98 7.75 18.28 13.31 4.3 5.57 7.25 12.95 7.54 20.09.28 7.14-2.33 16.36-5.83 22.75s-9.02 12.24-15.16 15.6c-6.14 3.35-14.47 5.03-21.68 4.51-7.21-.51-15.55-3.34-21.59-7.62-6.05-4.28-12.2-11.47-14.69-18.07-2.5-6.6-1.83-14.42-.28-21.52s4.44-15.77 9.58-21.08 13.49-9.76 21.28-10.76 20.4 3.5 25.47 4.78c5.08 1.27 5.07 2.26 4.97 2.87m-19.18-9.26c6.48-.1 13.4 4.85 19.35 9.33 5.95 4.47 13.68 10.62 16.33 17.52 2.66 6.89 1.38 16.74-.41 23.87-1.78 7.12-5.16 13.85-10.28 18.87-5.12 5.01-13.36 9.75-20.45 11.22-7.1 1.46-15.37.37-22.13-2.44-6.76-2.82-14.24-8.81-18.44-14.44-4.2-5.62-6.27-12.09-6.75-19.32-.49-7.23.28-17.42 3.84-24.08 3.55-6.66 11.25-12.53 17.47-15.88 6.22-3.34 16.52-3.95 19.84-4.18 3.32-.24-.23 2.02.08 2.76"/><path fill="none" stroke="#000" d="M388.967 16.465c6.92.88 15.7 4.86 20.78 9.72 5.08 4.85 8.46 12.38 9.7 19.42s.21 16.08-2.26 22.81c-2.46 6.74-6.75 13.14-12.51 17.61s-14.94 8.65-22.06 9.22c-7.11.57-14.28-2.04-20.64-5.78-6.35-3.73-14-10.24-17.5-16.64-3.51-6.4-4.18-14.83-3.52-21.75.67-6.91 3.28-14.1 7.51-19.73s10.27-11.77 17.88-14.06c7.62-2.3 22.47.1 27.82.28 5.35.19 4.69.51 4.31.84m-20.33-2.48c6.72-.5 16.62 1.7 23.03 4.98 6.42 3.28 12.12 8.26 15.48 14.7 3.36 6.45 5.55 16.66 4.69 23.97-.86 7.32-5.33 14.29-9.85 19.91-4.52 5.63-10.48 11.68-17.28 13.83-6.81 2.15-16.39 1.03-23.53-.93-7.15-1.96-14.34-5.8-19.34-10.81s-9.33-12.05-10.68-19.23c-1.34-7.19-.45-16.98 2.6-23.88 3.05-6.89 9.72-13.54 15.69-17.5 5.96-3.95 16.58-5.37 20.11-6.22 3.52-.86 1.02.56 1.04 1.1"/></g><g stroke-linecap="round"><path fill="#fff" stroke-width="0" d="M431.59 17.395c6.62 1.54 13.73 6.51 17.91 12.15 4.19 5.64 6.61 14.46 7.2 21.7s-.48 15.46-3.63 21.74c-3.16 6.28-9.03 12.36-15.31 15.92-6.29 3.55-14.93 5.76-22.4 5.41-7.47-.36-16.6-3.48-22.42-7.55-5.81-4.06-9.86-10.07-12.47-16.84-2.62-6.76-4.67-16.45-3.21-23.72 1.45-7.27 6.95-14.93 11.95-19.91 5-4.97 10.21-8.82 18.05-9.95 7.83-1.13 23.41 1.96 28.98 3.17 5.58 1.21 4.77 3.44 4.45 4.08m-19.19-8.49c7.04.52 17.78 3.87 23.4 8.7 5.61 4.82 8.47 13.28 10.3 20.26s2.69 14.78.68 21.63-7.26 14.77-12.73 19.46c-5.46 4.69-12.94 7.89-20.08 8.67-7.13.78-16.27-1.18-22.73-3.98-6.46-2.81-12.1-6.77-16.01-12.85s-7.5-16.09-7.46-23.63c.05-7.54 3.98-15.63 7.73-21.61s8.54-11.67 14.75-14.28 18.43-1.03 22.5-1.38 1.86-1.21 1.92-.73"/><path fill="none" stroke="#000" d="M422.11 14.465c6.89-.14 14.52 3.59 19.92 8.06s10.06 11.94 12.49 18.77c2.43 6.82 3.78 14.99 2.08 22.18-1.69 7.19-7.08 15.89-12.25 20.95-5.16 5.05-11.59 8.3-18.74 9.39-7.14 1.09-17.33-.1-24.1-2.86-6.78-2.76-12.48-8.09-16.53-13.71-4.05-5.63-7.34-12.92-7.78-20.01s1.43-16.3 5.16-22.56c3.74-6.26 9.72-11.69 17.26-15s22.74-4.44 28.01-4.87c5.27-.44 3.9 1.4 3.61 2.27m-25.77-.13c6.62-3.02 15.65-4.16 22.79-2.26 7.13 1.9 15.24 8.12 20.02 13.65 4.77 5.53 7.44 12.35 8.62 19.51 1.18 7.17 1.31 16.95-1.53 23.48-2.83 6.53-9.31 11.83-15.49 15.7s-14.23 7.1-21.57 7.52-16.23-1.13-22.48-5.02c-6.25-3.88-12.15-11.52-15.01-18.28-2.86-6.77-3.08-15.29-2.16-22.33.93-7.04 3.12-14.57 7.72-19.92 4.59-5.35 16.68-10.1 19.87-12.19 3.18-2.08-.79-.92-.77-.3"/></g><g stroke-linecap="round"><path fill="#fff" stroke-width="0" d="M477.83 17.045c6.32 2.03 12.47 8.84 16.56 14.81s7.5 13.92 7.97 21.02c.47 7.09-1.47 15.36-5.15 21.57-3.68 6.2-10.2 12.37-16.91 15.65-6.71 3.29-16.2 4.63-23.34 4.04-7.15-.59-13.91-3.03-19.52-7.59s-11.89-12.72-14.15-19.76c-2.25-7.04-1.13-15.68.62-22.47 1.75-6.78 4.68-13.45 9.89-18.24s12.8-9.89 21.38-10.48c8.59-.6 24.13 4.77 30.12 6.93s6.19 5.57 5.81 6.02m-43.41-11.12c6.21-3.1 13.53-2.64 20.41-1.39s15.55 4.12 20.89 8.88c5.35 4.76 9.33 12.76 11.18 19.66s2.1 15.16-.08 21.75c-2.18 6.6-7.55 13.07-12.99 17.83-5.43 4.77-12.46 9.93-19.6 10.77-7.15.85-16.84-2.24-23.26-5.71-6.42-3.46-11.36-9.02-15.26-15.07-3.9-6.04-7.94-14.4-8.12-21.19-.19-6.79 2.59-13.65 6.99-19.57 4.41-5.91 16.35-13.47 19.45-15.93 3.09-2.47-.93.3-.85 1.16"/><path fill="none" stroke="#000" d="M480.87 18.625c6.05 2.74 11.94 9.89 15.54 16.2 3.59 6.31 6.47 14.27 6.03 21.66-.43 7.39-4.43 16.75-8.65 22.65-4.21 5.91-9.82 10.46-16.62 12.77-6.8 2.32-17.01 2.68-24.16 1.13-7.15-1.54-13.7-5.59-18.72-10.39-5.03-4.8-9.73-11.47-11.44-18.4-1.7-6.92-1.35-16.37 1.23-23.17 2.58-6.81 8.31-13.11 14.28-17.66 5.96-4.54 13.98-9.09 21.53-9.63 7.55-.55 19.33 4.63 23.76 6.37 4.44 1.74 3.23 3.51 2.86 4.08m-6.18-6.71c6.55 2.55 13.69 10.8 17.32 17.16s4.68 13.76 4.45 21c-.23 7.25-1.77 16.65-5.84 22.49-4.07 5.83-11.74 9.91-18.59 12.53-6.84 2.62-15.23 4.18-22.46 3.18-7.22-.99-15.48-4.14-20.87-9.14-5.39-5.01-9.91-13.65-11.44-20.9-1.52-7.25-.03-15.86 2.27-22.58 2.31-6.73 5.99-13.41 11.57-17.75 5.59-4.34 14.75-7.4 21.95-8.28 7.2-.87 17.76 2.24 21.24 3.02 3.47.79-.33.99-.4 1.67"/></g><g stroke-linecap="round"><path fill="#fff" stroke-width="0" d="M519.946 16.425c6.69 1.5 14.81 6.61 19.69 12 4.88 5.38 8.62 13.17 9.58 20.31.96 7.15-.52 15.99-3.84 22.57s-10 12.9-16.08 16.91-13.17 7.27-20.37 7.16c-7.21-.1-16.85-3.65-22.85-7.8-6-4.16-10.21-10.74-13.17-17.12-2.96-6.39-5.62-14.2-4.59-21.19 1.03-7 5.78-15.4 10.78-20.79 5-5.4 10.79-10.32 19.21-11.59 8.41-1.28 24.88 2.29 31.29 3.96 6.42 1.66 7.7 5.73 7.2 6.03m-25.53-11.27c6.64.01 15.94 2.74 21.7 6.98 5.76 4.25 10.41 11.81 12.88 18.51 2.48 6.71 3.52 14.94 1.98 21.71-1.55 6.77-6.24 13.65-11.23 18.9s-11.68 11.13-18.71 12.62c-7.04 1.49-16.83-.81-23.51-3.67-6.67-2.86-12.12-7.81-16.56-13.48-4.45-5.68-9.24-13.79-10.09-20.57s1.17-13.84 5.01-20.1c3.85-6.26 11.56-13.84 18.06-17.46 6.5-3.63 17.45-3.9 20.95-4.31s.17 1.42.03 1.85"/><path fill="none" stroke="#000" d="M503.206 14.355c6.85-1.4 16.88-.01 23.45 3.31 6.56 3.32 12.05 10.35 15.93 16.62 3.87 6.27 7.51 13.99 7.32 20.98s-4.35 15.01-8.46 20.97c-4.12 5.96-9.72 11.64-16.25 14.79-6.54 3.15-15.7 5.18-22.97 4.12s-15.38-5.59-20.66-10.47-9.32-11.61-11.01-18.79c-1.69-7.17-1.16-17.07.88-24.25 2.03-7.19 4.3-14.47 11.31-18.87s24.23-6.55 30.74-7.54c6.52-.99 8.28 1.05 8.37 1.62m-3.39-.99c6.8 1.06 13.61 4.82 18.76 9.97 5.16 5.15 10.57 13.95 12.16 20.93 1.6 6.98.1 14.3-2.59 20.95-2.7 6.64-7.66 14.28-13.57 18.91s-14.57 8.45-21.9 8.89c-7.32.43-15.95-2.57-22.05-6.28-6.1-3.72-11.12-9.8-14.57-16.03-3.45-6.22-6.61-14.29-6.14-21.32.47-7.04 4.63-14.96 8.98-20.86 4.35-5.91 10.52-12.04 17.14-14.57 6.61-2.53 18.56-.57 22.52-.61 3.97-.04 1.18-.38 1.27.36"/></g><g stroke-linecap="round"><path fill="#fff" stroke-width="0" d="M328.345 54.238c6.74-2.32 16.15-1.66 22.99.66 6.85 2.32 13.83 7.57 18.08 13.28 4.24 5.7 6.61 13.58 7.37 20.94s.45 16.82-2.82 23.23c-3.26 6.4-10.55 11.74-16.76 15.19s-13.25 5.62-20.5 5.52-17.02-2.08-23-6.11-10.36-11.37-12.86-18.05c-2.51-6.69-3.5-15-2.17-22.06 1.34-7.06 4.01-14.77 10.18-20.29 6.16-5.52 21.33-10.68 26.81-12.86 5.47-2.18 6.01-.99 6.03-.22m-8.53.12c6.75-1.44 15.2 1.12 21.66 4.24 6.46 3.11 13.33 8.55 17.08 14.45s5.48 13.57 5.41 20.96c-.07 7.38-1.78 17.39-5.83 23.34-4.05 5.94-11.89 9.81-18.46 12.31-6.58 2.49-13.73 3.79-20.98 2.68s-16.85-4.9-22.53-9.35c-5.68-4.46-10.06-10.48-11.53-17.39-1.48-6.92.29-17.07 2.68-24.12 2.38-7.06 6.18-13.9 11.61-18.23 5.42-4.32 17.53-6.16 20.92-7.73s-.74-1.92-.58-1.69"/><path fill="none" stroke="#000" d="M324.035 55.008c6.29-2.75 14.56-1.81 21.73-.17 7.16 1.63 16.19 5.1 21.28 9.97 5.08 4.88 7.77 12.24 9.23 19.27 1.47 7.03 1.98 15.84-.44 22.91-2.41 7.07-8.13 15.03-14.06 19.5-5.92 4.46-14.35 6.78-21.48 7.28s-15.15-.64-21.31-4.3c-6.15-3.66-11.99-10.99-15.62-17.63s-6.53-15.22-6.15-22.21c.38-7 3.64-13.84 8.43-19.76 4.8-5.93 16.2-13.3 20.35-15.79s4.2.05 4.56.84m-9.64 1.56c6.05-3.35 16.51-3.13 23.75-2.21 7.23.92 14.33 3.15 19.66 7.75s10.36 12.59 12.31 19.83c1.95 7.25 1.5 16.77-.63 23.65s-6.93 13.11-12.15 17.63c-5.21 4.51-12 8.26-19.16 9.44s-17.14.42-23.78-2.39c-6.65-2.81-12.19-8.26-16.11-14.46s-7.24-15.49-7.43-22.74 2.15-14.75 6.28-20.75c4.13-6.01 15.36-13.01 18.49-15.27s-.01.89.29 1.7"/></g><g stroke-linecap="round"><path fill="#fff" stroke-width="0" d="M337.676 102.765c5.96 1.4 13.41 6.23 17.51 11.26 4.09 5.04 6.93 12.49 7.05 18.94.12 6.44-2.38 14.39-6.34 19.73-3.95 5.33-11.31 9.99-17.37 12.26-6.07 2.28-12.85 3.31-19.01 1.39-6.16-1.91-14.08-7.55-17.93-12.89-3.86-5.34-5.05-12.92-5.2-19.16-.14-6.24.71-13.14 4.34-18.29 3.64-5.15 9.82-11.12 17.46-12.61s22.63 2.09 28.37 3.68c5.75 1.58 6.39 5.47 6.1 5.84m-35.56-9.42c5.59-2.71 12.21-2.03 18.27-.54 6.06 1.48 13.82 4.69 18.07 9.45s6.88 12.75 7.44 19.11c.56 6.35-.78 13.78-4.07 19.04s-9.87 9.83-15.67 12.54-12.87 5.16-19.15 3.71c-6.27-1.45-14.31-7.24-18.48-12.41s-5.84-12.31-6.56-18.62-.7-14.13 2.26-19.25c2.95-5.12 12.51-9.41 15.47-11.48 2.96-2.06 1.92-1.24 2.28-.92"/><path fill="none" stroke="#000" d="M320.966 102.555c6-1.67 15.83-1.26 21.73 1.08 5.91 2.33 10.47 7.39 13.69 12.92s6.11 13.53 5.61 20.26c-.51 6.73-4.21 15.13-8.63 20.11-4.41 4.98-11.63 8.36-17.86 9.75-6.23 1.38-13.78 1.33-19.52-1.44-5.73-2.76-11.47-9.28-14.92-15.14-3.45-5.87-6.25-13.81-5.77-20.03s4.17-12.42 8.65-17.29c4.47-4.87 14.7-10.14 18.2-11.92 3.51-1.78 2.55.54 2.83 1.23m-10.18 1.58c5.44-2.94 15.22-2.49 21.63-1.31 6.42 1.18 12.63 3.76 16.86 8.39 4.24 4.63 7.91 12.64 8.56 19.38.64 6.73-1.42 15.46-4.69 21.03-3.28 5.58-9.32 9.95-14.96 12.41s-12.54 3.52-18.88 2.38-14.74-4.64-19.18-9.21c-4.45-4.57-6.75-11.68-7.5-18.23s0-15.4 2.99-21.06c3-5.66 12.19-10.76 14.96-12.88 2.78-2.12 1.25-.41 1.71.18"/></g><g stroke-linecap="round"><path fill="#fff" stroke-width="0" d="M368.14 86.14c6.5-1.37 14.65.35 21.22 3.65 6.56 3.3 14.36 10.04 18.17 16.16 3.82 6.13 4.83 13.55 4.72 20.6-.1 7.04-1.29 15.44-5.34 21.66-4.06 6.23-12.29 12.66-19 15.67-6.71 3.02-14.33 3.59-21.26 2.44-6.93-1.16-14.94-4.57-20.32-9.37s-10.07-12.35-11.96-19.42c-1.9-7.07-1.43-15.84.58-23.01 2.02-7.16 5.12-15.42 11.52-19.99 6.41-4.57 21.65-6.16 26.92-7.42 5.27-1.27 4.62-.7 4.7-.19m-5.3-1.19c6.89-.82 15.13 1.46 21.34 5.55s12.9 12.43 15.91 18.99c3.02 6.56 3.15 13.55 2.18 20.39s-3.1 15.07-7.98 20.64-14.02 10.33-21.32 12.78c-7.29 2.44-15.9 3.87-22.47 1.88s-12.38-8.16-16.95-13.82-9.3-13.25-10.48-20.17c-1.18-6.91.46-14.5 3.39-21.3 2.94-6.8 8.02-15.2 14.21-19.52 6.18-4.31 19.03-5.66 22.9-6.39 3.88-.73.36.91.34 2.03"/><path fill="none" stroke="#000" d="M357.38 89.46c6.01-3.56 13.71-4.67 20.79-3.62 7.08 1.04 16.13 4.83 21.66 9.9 5.54 5.06 9.72 13.42 11.57 20.5s1.54 15.07-.46 21.97c-2.01 6.9-6.27 14.92-11.57 19.42-5.31 4.5-12.94 6.9-20.26 7.58-7.33.68-17-.67-23.69-3.51-6.69-2.83-12.58-7.41-16.44-13.5-3.87-6.09-6.98-15.72-6.76-23.04s3.24-14.69 8.06-20.86 16.85-13.5 20.86-16.16c4-2.65 2.99-.39 3.17.22m2.2-2.63c6.53-1.83 15.95.35 22.49 3.5s12.82 9.48 16.77 15.4 6.53 13.11 6.95 20.1-.68 15.54-4.44 21.84c-3.75 6.31-11.53 12.66-18.09 16-6.57 3.35-14.1 5.06-21.28 4.08-7.17-.97-16.04-5.32-21.8-9.93s-10.76-10.95-12.73-17.75c-1.98-6.79-1.24-16.12.85-23.02 2.1-6.89 6.34-13.67 11.7-18.34 5.36-4.68 17.09-8.1 20.47-9.69 3.39-1.58.06-.12-.15.17"/></g><g stroke-linecap="round"><path fill="#fff" stroke-width="0" d="M397.264 87.52c6.47-2.35 17.02-1.08 24 .88s13.07 5.64 17.88 10.89 9.93 13.25 10.98 20.62c1.04 7.37-1.66 16.86-4.7 23.6s-7.67 12.88-13.53 16.84c-5.85 3.96-14.36 6.84-21.6 6.93s-15.75-2.44-21.85-6.4c-6.11-3.97-11.58-10.58-14.78-17.41s-5.4-16.52-4.44-23.57c.97-7.06 4.52-13.15 10.23-18.77 5.72-5.62 18.98-12.56 24.07-14.93 5.1-2.37 6.37.06 6.51.71m4.27-1.75c7.02.48 16.3 6.32 21.86 10.95 5.57 4.63 9.32 10.25 11.54 16.85 2.23 6.59 3.88 15.62 1.81 22.71-2.06 7.09-8.45 14.57-14.2 19.82-5.75 5.24-13.51 10.44-20.29 11.64-6.79 1.21-13.93-1.33-20.41-4.42-6.47-3.1-14.28-8.35-18.45-14.13-4.18-5.78-6.39-13.07-6.59-20.54s1.48-17.7 5.39-24.27c3.91-6.56 11.27-12.24 18.06-15.15s18.99-2.3 22.68-2.3c3.69-.01-.49 1.61-.55 2.29"/><path fill="none" stroke="#000" d="M420.964 87.2c6.65 1.48 15.22 7.07 19.98 12.9 4.75 5.84 7.75 14.81 8.53 22.11.77 7.3-.86 15.19-3.89 21.69-3.04 6.5-8.35 13.71-14.3 17.32-5.95 3.62-14.03 4.77-21.42 4.35s-16.77-3.06-22.92-6.85c-6.15-3.8-11.09-9.3-13.98-15.91-2.9-6.6-4.7-16.5-3.39-23.72 1.31-7.23 6.27-14.4 11.27-19.63 5-5.24 11.74-10.08 18.72-11.79 6.98-1.7 18.86 1.17 23.17 1.56 4.3.38 2.78.09 2.64.75m-7.83-3.27c6.75 1.03 14.3 6.41 19.45 11.32 5.14 4.9 9.45 11.33 11.41 18.11 1.97 6.78 2.74 15.61.4 22.58s-8.71 14.56-14.43 19.23c-5.73 4.67-12.75 8.2-19.94 8.78-7.19.59-16.61-1.95-23.22-5.26-6.62-3.3-13.06-8.42-16.46-14.58-3.41-6.16-4.53-15.23-3.99-22.37.55-7.13 3.08-14.71 7.27-20.41 4.19-5.71 11.19-11.04 17.87-13.82s18.81-2.25 22.21-2.86c3.41-.61-1.53-1.4-1.76-.81"/></g><g stroke-linecap="round"><path fill="#fff" stroke-width="0" d="M447.842 87.47c6.69-1.8 14.54-1.36 21.26 1.23s14.96 8.15 19.06 14.31c4.09 6.17 5.33 15.3 5.51 22.67.17 7.37-.95 15.33-4.44 21.56s-10.03 12.54-16.51 15.82c-6.48 3.27-15.19 4.7-22.38 3.82-7.19-.87-14.96-4.27-20.75-9.08-5.78-4.81-11.66-13.05-13.96-19.8-2.3-6.76-1.72-13.82.18-20.74 1.89-6.92 5.16-15.62 11.18-20.79 6.01-5.17 20.23-8.57 24.91-10.23s3.17-.38 3.16.26m-6.08.64c6.74-1.62 14.76-1.61 21.46 1.02 6.69 2.63 14.87 8.59 18.71 14.76s4.61 14.6 4.33 22.26c-.29 7.66-2.54 17.52-6.04 23.71-3.49 6.19-8.52 10.55-14.93 13.43-6.4 2.88-16.16 4.57-23.51 3.85-7.35-.71-14.96-3.22-20.57-8.14-5.6-4.93-11.05-14.04-13.07-21.4-2.01-7.35-1.25-15.94.98-22.71 2.23-6.76 6.99-13.56 12.39-17.9 5.41-4.33 16.57-6.63 20.04-8.08 3.46-1.45.79-1.1.73-.61"/><path fill="none" stroke="#000" d="M450.142 86.04c6.87-1.09 15.42 1.85 21.78 5.14 6.37 3.28 12.59 8.42 16.44 14.57 3.84 6.15 6.62 15.29 6.65 22.32.02 7.03-2.3 14.18-6.51 19.87s-11.98 11.2-18.76 14.27c-6.78 3.06-14.78 5.28-21.91 4.1-7.14-1.17-15.7-6.22-20.89-11.17-5.18-4.95-8.53-11.69-10.24-18.53-1.7-6.83-1.86-15.7.04-22.47 1.9-6.78 4.27-13.54 11.37-18.17 7.11-4.63 24.68-8.66 31.26-9.63s8.27 3.09 8.21 3.8m-26.92-.75c6.17-2.9 15.32-4.11 22.6-2.71s16.04 5.8 21.07 11.11c5.04 5.31 7.79 13.49 9.17 20.76 1.38 7.26 1.71 16.2-.91 22.81-2.61 6.61-8.78 12.6-14.8 16.83s-14.34 8.05-21.33 8.55c-6.98.5-14.52-2.07-20.59-5.54-6.07-3.46-12.45-9.04-15.81-15.23s-4.94-14.65-4.34-21.92c.59-7.27 3.81-15.59 7.91-21.69 4.1-6.09 13.69-12.73 16.68-14.89s.97 1.02 1.25 1.94"/></g><g stroke-linecap="round"><path fill="#fff" stroke-width="0" d="M493.15 86.31c6.69-2 17.28-.55 23.95 2.4s11.99 9.24 16.08 15.3c4.08 6.06 7.93 13.84 8.43 21.07.51 7.24-1.75 16.08-5.41 22.37-3.67 6.28-10.14 12.15-16.59 15.32-6.44 3.18-14.74 4.73-22.1 3.73-7.35-1.01-16.34-5.36-22.02-9.76s-9.81-9.88-12.04-16.65c-2.22-6.76-3.14-16.76-1.31-23.94 1.84-7.18 6.82-14.14 12.32-19.14 5.5-4.99 16.97-9.18 20.66-10.83 3.7-1.66 1.45.24 1.51.92m-13.31 1.64c6.02-3.83 16.73-4.63 23.79-3.66 7.05.98 13.31 4.48 18.54 9.52 5.23 5.03 10.26 13.71 12.83 20.67s4.3 14.27 2.58 21.07-7.39 14.62-12.91 19.74c-5.53 5.11-13.02 9.98-20.25 10.94-7.23.97-16.56-1.88-23.12-5.15-6.57-3.28-12.46-8.69-16.27-14.49-3.8-5.8-6.36-13.52-6.56-20.3-.19-6.77 1.6-14.18 5.39-20.34 3.78-6.16 14.65-14.03 17.33-16.62s-1.58.33-1.23 1.1"/><path fill="none" stroke="#000" d="M485.5 90.34c5.96-3.07 14.94-4.44 22.15-3.24s15.57 5.75 21.11 10.43c5.53 4.68 10.39 10.99 12.08 17.68s.41 15.37-1.94 22.46c-2.36 7.09-6.6 15.49-12.19 20.1-5.6 4.6-14.34 6.78-21.36 7.52-7.02.75-14.43-.01-20.75-3.04-6.33-3.03-13.14-9.07-17.19-15.14-4.04-6.07-7.25-14.05-7.08-21.3s3.65-16.16 8.09-22.21 15.03-11.67 18.57-14.09 2.49-.97 2.67-.45m8.95-3.35c7.06-1.2 17.11 1.41 23.41 5.08 6.3 3.68 11.07 10.39 14.39 16.95 3.33 6.57 6.16 15.37 5.55 22.45-.6 7.07-4.59 14.29-9.17 20s-11.73 11.73-18.3 14.26-14.32 2.44-21.14.91c-6.81-1.54-14.72-5.14-19.75-10.12-5.03-4.97-8.96-12.59-10.43-19.74s-.69-16.03 1.61-23.14c2.29-7.11 6.43-15.2 12.16-19.53 5.74-4.33 18.66-5.6 22.27-6.44 3.62-.84-.43.73-.58 1.4"/></g><g stroke-linecap="round"><path fill="#fff" stroke-width="0" d="M526.231 11.17c6-1.55 13.13-1.07 18.99 1.56 5.87 2.64 13.15 8.32 16.18 14.24s2.94 14.73 1.99 21.28-3.44 13.34-7.71 18.02-11.55 8.87-17.93 10.06c-6.37 1.18-14.51-.03-20.32-2.95-5.82-2.91-11.38-8.56-14.59-14.53s-5.54-14.99-4.68-21.29 4.7-11.85 9.84-16.5c5.15-4.66 16.82-9.67 21.04-11.42 4.23-1.74 4.25.41 4.33.95m1.89-1.68c6.28.51 14.86 6.17 19.59 10.59 4.74 4.41 7.54 9.86 8.82 15.9 1.29 6.04 1.78 14.37-1.12 20.34-2.9 5.96-10.23 11.92-16.26 15.45-6.02 3.53-13.85 6.48-19.91 5.73-6.05-.76-11.85-5.64-16.4-10.26-4.56-4.63-9.57-11.37-10.94-17.47-1.37-6.11.03-13.09 2.71-19.17 2.67-6.08 7.57-13.78 13.33-17.31 5.77-3.53 17.66-3.54 21.24-3.87s.34.88.26 1.88"/><path fill="none" stroke="#000" d="M524.041 11.12c5.98-1.79 14.97.05 21.1 2.42s12.54 6.56 15.67 11.83c3.13 5.26 3.86 13.12 3.11 19.77-.74 6.65-3.28 15.26-7.56 20.13-4.28 4.86-11.96 7.74-18.1 9.06-6.15 1.32-13.01 1.27-18.78-1.15-5.76-2.42-12.21-7.91-15.8-13.37-3.58-5.45-6.32-12.88-5.73-19.34.58-6.46 4.28-14.51 9.24-19.42s16.37-8.34 20.51-10.05c4.14-1.7 4.32-.6 4.32-.15m-2.64-1.34c6.34-1.04 15.67 1.54 21.11 5.15 5.45 3.61 9.26 10.33 11.55 16.53 2.3 6.2 3.85 14.53 2.22 20.65s-6.83 12.02-12 16.1-12.81 7.91-19.03 8.37c-6.22.47-13.08-2.18-18.3-5.57-5.21-3.39-10.64-8.97-12.98-14.79s-2.66-13.81-1.05-20.13c1.62-6.32 6.03-13.32 10.72-17.79 4.68-4.47 14.31-7.83 17.38-9.03s.93 1 1.02 1.85"/></g><g stroke-linecap="round"><path fill="#fff" stroke-width="0" d="M515.374 55.448c6.38-2.3 16.66-2.31 23.79-.23 7.14 2.09 14.32 7.21 19.02 12.74s8.18 13.38 9.18 20.44c1 7.07 0 15.66-3.19 21.95s-9.85 11.8-15.97 15.78c-6.13 3.99-13.63 8.07-20.77 8.12-7.13.04-16.06-3.73-22.04-7.83-5.98-4.11-10.91-10.19-13.84-16.79-2.94-6.6-4.76-15.63-3.77-22.8 1-7.17 4.72-14.71 9.74-20.23 5.03-5.51 16.77-10.9 20.42-12.84 3.65-1.95 1.2.48 1.46 1.16m-12.35 2.34c5.41-3.35 14.66-3.42 22.24-2.83 7.57.59 17.27 2.22 23.21 6.37 5.93 4.15 10.04 11.5 12.39 18.52s3.33 16.77 1.7 23.6c-1.64 6.82-6.48 12.67-11.51 17.34-5.03 4.68-11.85 9-18.66 10.72-6.81 1.73-15.42 1.69-22.21-.38s-14.25-6.28-18.55-12.05c-4.31-5.77-6.61-15.2-7.29-22.58s-.3-15.53 3.22-21.71c3.51-6.17 15.15-12.92 17.86-15.35 2.71-2.42-1.57.12-1.6.78"/><path fill="none" stroke="#000" d="M546.344 58.458c6.55 2.47 13.25 8.02 16.69 13.99 3.43 5.98 4.42 14.42 3.92 21.86-.5 7.43-2.72 16.86-6.93 22.75-4.22 5.89-11.81 10.03-18.37 12.6-6.56 2.58-14.06 4.09-20.98 2.84-6.93-1.24-15.05-5.41-20.56-10.31-5.52-4.89-10.83-12-12.53-19.06-1.71-7.06-.19-16.49 2.29-23.28 2.47-6.78 6.85-13.04 12.57-17.44s14.09-8.47 21.73-8.94c7.65-.48 19.63 4.73 24.14 6.1 4.51 1.38 3.07 1.67 2.92 2.16m-31.43-7.73c6.6-1.62 16.82 0 23.52 2.61s12.69 7.13 16.67 13.03 6.68 15.05 7.21 22.36c.52 7.31-.63 15.18-4.06 21.5s-10.09 12.98-16.52 16.45c-6.44 3.46-14.87 5.14-22.08 4.34-7.22-.81-15.25-4.29-21.22-9.17-5.97-4.89-12.17-13.2-14.59-20.11-2.42-6.92-1.75-14.68.07-21.4 1.82-6.71 5.74-13.94 10.82-18.89 5.08-4.94 16.31-8.85 19.67-10.79s.31-1.58.49-.85"/></g><g stroke-linecap="round"><path fill="#fff" stroke-width="0" d="M542.881 102.445c5.94 1.77 11.08 7.98 14.75 13.4 3.66 5.42 7.11 12.65 7.24 19.13s-2.6 14.52-6.48 19.75c-3.87 5.22-10.59 9.79-16.76 11.62-6.18 1.82-13.98 1.68-20.27-.66-6.28-2.34-13.68-8.24-17.44-13.41s-5.28-11.23-5.11-17.61c.18-6.39 2.21-15.33 6.16-20.68s10.62-9.78 17.53-11.42c6.92-1.64 19.34.8 23.96 1.59 4.63.8 4.11 2.65 3.81 3.16m-33.48-4.33c5.42-3.4 15.45-3.96 21.69-2.71 6.25 1.25 11.62 5.13 15.76 10.22 4.14 5.08 7.81 13.82 9.07 20.3 1.25 6.47 1.36 13.02-1.54 18.55-2.9 5.52-9.85 11.5-15.84 14.58-6 3.07-13.65 5.24-20.12 3.87-6.46-1.36-14.27-6.99-18.67-12.07-4.4-5.09-7.1-12.23-7.74-18.45-.64-6.21.87-13.59 3.9-18.85 3.02-5.25 11.71-10.41 14.23-12.65 2.52-2.25.82-1.14.9-.82"/><path fill="none" stroke="#000" d="M537.841 100.765c5.97.28 12.36 4.46 16.77 9.29 4.4 4.82 8.68 13.25 9.64 19.66.95 6.42-1.09 13.16-3.91 18.81-2.82 5.64-7.4 12.03-13.01 15.06-5.62 3.04-14 4.09-20.68 3.14-6.67-.96-14.83-4.23-19.39-8.86-4.56-4.64-7.1-12.6-7.97-18.95-.86-6.36-.24-13.51 2.76-19.2 3-5.68 8.94-12.05 15.26-14.9 6.32-2.86 18.25-2.06 22.65-2.21 4.4-.14 3.68.87 3.74 1.33m-18.4-2.01c5.89-1.38 15.4.31 21.24 2.96 5.84 2.66 10.88 7.31 13.79 12.97s4.3 14.5 3.69 20.99c-.62 6.5-3.13 13.2-7.35 17.98s-11.64 9.32-17.98 10.7c-6.34 1.37-14.21.41-20.07-2.44-5.85-2.85-11.67-8.61-15.07-14.66-3.41-6.05-6.07-15.17-5.33-21.65s5.26-12.82 9.77-17.21 14.48-7.61 17.3-9.12-.46-.11-.39.06"/></g><path fill="none" stroke="#000" stroke-linecap="round" d="M303.602 179.393c1.08 3.38.05 8.94-1.63 12.28-1.67 3.35-5.04 6.46-8.41 7.78-3.37 1.31-8.36 1.15-11.83.12-3.47-1.02-6.96-3.3-9-6.27s-3.59-7.95-3.23-11.55c.37-3.59 2.75-7.49 5.42-10.04 2.67-2.54 6.93-4.92 10.58-5.21 3.66-.28 8.38 1.21 11.36 3.51 2.98 2.31 5.55 8.62 6.52 10.33.97 1.72-.44-.03-.72-.04m1.28 3.89c.09 3.37-2.36 7.91-4.84 10.72-2.47 2.81-6.38 5.52-10.02 6.13-3.64.62-8.64-.53-11.81-2.45s-6.15-5.6-7.23-9.06-.81-8.2.74-11.72 5.33-7.65 8.57-9.4c3.24-1.74 7.48-1.88 10.87-1.09 3.4.79 7.29 3.07 9.51 5.84 2.23 2.77 3.13 8.95 3.85 10.77s.8.14.49.16M264.422 215.567c-.21 2.64-1.89 5.74-3.9 7.44s-5.49 2.63-8.17 2.78c-2.67.15-5.7-.32-7.89-1.88-2.18-1.56-4.55-4.87-5.2-7.48s.03-5.75 1.29-8.19c1.25-2.43 3.72-5.33 6.23-6.44 2.5-1.12 6.19-1.11 8.81-.24s5.5 3.19 6.9 5.47 1.22 6.8 1.5 8.21c.28 1.42.36.27.17.28m.06-.95c-.11 2.68-1.47 6.49-3.42 8.51-1.95 2.03-5.49 3.38-8.27 3.62-2.79.25-6.25-.58-8.43-2.14-2.17-1.55-4.11-4.42-4.62-7.18-.52-2.76.37-6.88 1.54-9.37 1.17-2.5 3.19-4.49 5.48-5.6s5.66-1.67 8.26-1.07 5.61 2.48 7.34 4.67c1.74 2.19 2.76 7.07 3.06 8.48.29 1.41-1.06-.14-1.29-.03"/><g stroke-linecap="round"><path fill="#fff" stroke-width="0" d="M506.438 44.31h48.92v78.21h-48.92"/><path fill="none" stroke="#fff" d="M506.438 44.31h48.92m-48.92 0h48.92m0 0v78.21m0-78.21v78.21m0 0h-48.92m48.92 0h-48.92m0 0V44.31m0 78.21V44.31"/></g><g stroke-linecap="round"><path fill="#fff" stroke-width="0" d="M307.657 25.325h17.13v99.11h-17.13"/><path fill="none" stroke="#fff" d="M307.657 25.325h17.13m-17.13 0h17.13m0 0v99.11m0-99.11v99.11m0 0h-17.13m17.13 0h-17.13m0 0v-99.11m0 99.11v-99.11"/></g><g stroke-linecap="round"><path fill="#fff" stroke-width="0" d="M323.631 24.685h218.3v135.36h-218.3"/><path fill="none" stroke="#fff" d="M323.631 24.685h218.3m-218.3 0h218.3m0 0v135.36m0-135.36v135.36m0 0h-218.3m218.3 0h-218.3m0 0V24.685m0 135.36V24.685"/></g><text x="99.194" y="18.4" fill="#1e1e1e" dominant-baseline="alphabetic" font-family="Helvetica, Segoe UI Emoji" font-size="20" style="white-space:pre" text-anchor="middle" transform="translate(333.588 46.363)">10...but I&apos;ve run out of </text><text x="99.194" y="41.4" fill="#1e1e1e" dominant-baseline="alphabetic" font-family="Helvetica, Segoe UI Emoji" font-size="20" style="white-space:pre" text-anchor="middle" transform="translate(333.588 46.363)">counting fingers once </text><text x="99.194" y="64.4" fill="#1e1e1e" dominant-baseline="alphabetic" font-family="Helvetica, Segoe UI Emoji" font-size="20" style="white-space:pre" text-anchor="middle" transform="translate(333.588 46.363)">already. Therefore,</text><text x="99.194" y="87.4" fill="#1e1e1e" dominant-baseline="alphabetic" font-family="Helvetica, Segoe UI Emoji" font-size="20" style="white-space:pre" text-anchor="middle" transform="translate(333.588 46.363)">10 + 10 = 20</text></svg>