<svg version="1.1" xmlns="http://www.w3.org/2000/svg" viewBox="0 0 377.55093231021783 322.71296669720505" width="377.55093231021783" height="322.71296669720505">
  <!-- svg-source:excalidraw -->
  
  <defs>
    <style class="style-fonts">
      @font-face {
        font-family: "Virgil";
        src: url("https://excalidraw.com/Virgil.woff2");
      }
      @font-face {
        font-family: "Cascadia";
        src: url("https://excalidraw.com/Cascadia.woff2");
      }
      @font-face {
        font-family: "Assistant";
        src: url("https://excalidraw.com/Assistant-Regular.woff2");
      }
    </style>
    
  </defs>
  <g stroke-linecap="round" transform="translate(139.73933324518111 10.00000000000091) rotate(0 51.86181255625024 39.81014841786464)"><path d="M52.04 -0.21 C60.86 -0.89, 72.09 1.44, 79.88 5.39 C87.67 9.35, 95.05 17.1, 98.79 23.54 C102.52 29.98, 103.42 37.07, 102.29 44.06 C101.16 51.04, 97.93 59.81, 92.02 65.47 C86.12 71.12, 75.95 76.01, 66.86 78.01 C57.76 80.02, 46.51 79.62, 37.45 77.51 C28.39 75.4, 18.49 70.54, 12.51 65.35 C6.53 60.16, 2.78 53.19, 1.55 46.35 C0.32 39.51, 1.5 31.07, 5.13 24.29 C8.75 17.51, 15.06 9.67, 23.29 5.68 C31.52 1.7, 48.47 1.26, 54.51 0.37 C60.56 -0.53, 59.56 -0.34, 59.56 0.29 M35.42 1.85 C43.29 -1.27, 54.25 -0.96, 63.11 0.66 C71.97 2.28, 82.22 6.58, 88.58 11.55 C94.93 16.52, 99.52 23.26, 101.26 30.46 C103.01 37.67, 102.04 47.96, 99.04 54.79 C96.03 61.62, 90.31 67.3, 83.24 71.46 C76.18 75.62, 65.97 79.46, 56.66 79.75 C47.35 80.04, 35.61 76.83, 27.38 73.19 C19.14 69.54, 11.87 63.73, 7.23 57.89 C2.6 52.05, -0.95 45.39, -0.43 38.15 C0.1 30.9, 4.42 20.25, 10.38 14.41 C16.34 8.58, 31.52 4.97, 35.32 3.16 C39.12 1.34, 32.9 2.83, 33.17 3.54" stroke="#1e1e1e" stroke-width="4" fill="none"></path></g><g stroke-linecap="round"><g transform="translate(158.022026181412 51.8116434806916) rotate(0 30.890059159239172 5.654451799589879)"><path d="M-0.03 1 C5 3.16, 20.42 12.28, 30.68 12.28 C40.94 12.29, 56.48 3.01, 61.53 1.04 M-1.5 0.48 C3.27 2.38, 19.1 10.91, 29.45 10.67 C39.81 10.43, 55.4 0.54, 60.63 -0.98" stroke="#1e1e1e" stroke-width="4" fill="none"></path></g></g><mask></mask><g stroke-linecap="round"><g transform="translate(168.98044514534195 39.8374487310366) rotate(0 4.539199335629746 -1.9551314481741429)"><path d="M-0.16 0.29 C0.8 -0.43, 4.24 -3.99, 5.74 -3.99 C7.24 -3.99, 8.24 -0.38, 8.84 0.27 M0.41 0.13 C1.31 -0.54, 3.89 -4.61, 5.42 -4.52 C6.95 -4.43, 8.88 -0.1, 9.57 0.66" stroke="#1e1e1e" stroke-width="4" fill="none"></path></g></g><mask></mask><g stroke-linecap="round"><g transform="translate(198.07093562492628 40.00091330897976) rotate(0 4.539199335629746 -1.9551314481741429)"><path d="M-0.07 0.18 C0.88 -0.56, 4.01 -4.12, 5.57 -4.17 C7.14 -4.21, 8.8 -0.86, 9.33 -0.09 M0.53 -0.03 C1.61 -0.74, 4.8 -3.74, 6.25 -3.72 C7.7 -3.69, 8.83 -0.47, 9.23 0.12" stroke="#1e1e1e" stroke-width="4" fill="none"></path></g></g><mask></mask><g stroke-linecap="round"><g transform="translate(174.7759606350155 109.82212726611124) rotate(0 -63.14137842875334 17.696338293529607)"><path d="M-0.8 0.02 C-11.61 2.3, -44.02 8.3, -65.12 14.31 C-86.22 20.32, -117.21 32.59, -127.41 36.06 M0.98 -1.02 C-9.89 1.31, -44.61 9.37, -65.63 15.22 C-86.64 21.07, -115.03 30.59, -125.11 34.07" stroke="#1e1e1e" stroke-width="4" fill="none"></path></g></g><mask></mask><g stroke-linecap="round"><g transform="translate(197.60318877854115 106.68075556855274) rotate(0 65.23561664045019 16.963355398769636)"><path d="M0.85 -1.19 C11.89 1.01, 43.87 7.42, 65.47 13.23 C87.06 19.04, 119.55 30.29, 130.41 33.66 M-0.17 0.8 C11.3 2.66, 45.95 5.79, 67.58 11.46 C89.22 17.13, 119.05 31.04, 129.62 34.84" stroke="#1e1e1e" stroke-width="4" fill="none"></path></g></g><mask></mask><g stroke-linecap="round"><g transform="translate(189.2262167584031 120.5027488564383) rotate(0 -1.256544844353357 88.58641632024637)"><path d="M-1.13 0.67 C-1.7 13.63, -2.58 47.26, -2.57 76.59 C-2.56 105.93, -1.18 160.04, -1.08 176.69 M0.48 -0.03 C-0.33 13.22, -3.18 48.36, -3.55 77.99 C-3.92 107.62, -1.99 161.21, -1.76 177.75" stroke="#1e1e1e" stroke-width="4" fill="none"></path></g></g><mask></mask><g stroke-linecap="round"><g transform="translate(173.51940620398636 312.3352729454991) rotate(0 -25.96859025440972 -0.20942573850516055)"><path d="M-0.06 -0.26 C-8.5 -0.53, -42.99 -0.76, -51.76 -0.9 M-1.55 -1.45 C-10.03 -1.61, -44.51 0.16, -52.62 0.38" stroke="#1e1e1e" stroke-width="4" fill="none"></path></g></g><mask></mask><g stroke-linecap="round"><g transform="translate(195.92780204385417 311.70700052332086) rotate(0 27.015714153596036 -0.31413621108822554)"><path d="M0.17 -0.49 C9.06 -0.66, 44.47 -1.48, 53.27 -1.32 M-1.2 -1.79 C8.08 -1.79, 46.17 -0.22, 55.58 -0.14" stroke="#1e1e1e" stroke-width="4" fill="none"></path></g></g><mask></mask><g stroke-linecap="round"><g transform="translate(328.95311807044163 140.0850150247361) rotate(0 5.411851472170838 -6.303501568678712)"><path d="M-0.35 -0.31 C1.36 -2.29, 8.43 -10.11, 10.33 -12.1 M0.47 0.71 C2.34 -1.39, 9.59 -10.5, 11.32 -12.8" stroke="#1e1e1e" stroke-width="4" fill="none"></path></g></g><mask></mask><g stroke-linecap="round"><g transform="translate(329.6553130686134 141.0362382709327) rotate(0 8.9946810212723 -4.143865401053972)"><path d="M-0.49 0.51 C2.6 -0.75, 15.07 -6.44, 18.21 -7.9 M0.26 0.3 C3.33 -1.09, 14.91 -7.34, 17.89 -8.67" stroke="#1e1e1e" stroke-width="4" fill="none"></path></g></g><mask></mask><g stroke-linecap="round"><g transform="translate(329.50305988696346 141.7936882957374) rotate(0 9.581522215615678 1.1524152074948688)"><path d="M0.22 0.38 C3.55 0.68, 16.41 2.03, 19.48 2.3 M-0.33 0.11 C2.99 0.73, 15.87 2.61, 19.21 3" stroke="#1e1e1e" stroke-width="4" fill="none"></path></g></g><mask></mask><g stroke-linecap="round"><g transform="translate(329.9154542259221 141.8505054133575) rotate(0 5.9663193927631255 4.618395246292039)"><path d="M0.32 0 C2.19 1.43, 9.48 7.33, 11.44 8.95 M-0.18 -0.48 C1.83 0.98, 10.42 7.94, 12.42 9.5" stroke="#1e1e1e" stroke-width="4" fill="none"></path></g></g><mask></mask><g stroke-linecap="round"><g transform="translate(328.5974441055314 142.13504254607233) rotate(0 1.8594501524544285 7.311968730333774)"><path d="M-0.49 -0.29 C0.1 2.23, 3.26 12.64, 3.88 15.11 M0.25 0.75 C0.76 3.13, 2.85 12.01, 3.53 14.39" stroke="#1e1e1e" stroke-width="4" fill="none"></path></g></g><mask></mask><g stroke-linecap="round"><g transform="translate(51.43141995701626 146.8497715317635) rotate(335.4519080177106 -5.411851472170838 6.303501568678712)"><path d="M0.16 0.48 C-1.64 2.61, -9.47 10.53, -11.3 12.49 M-0.42 0.26 C-2.01 2.49, -8.52 11.07, -10.3 13.13" stroke="#1e1e1e" stroke-width="4" fill="none"></path></g></g><mask></mask><g stroke-linecap="round"><g transform="translate(50.19990083735502 147.95209503423848) rotate(335.4519080177106 -8.9946810212723 4.143865401053972)"><path d="M-0.47 -0.12 C-3.49 1.12, -15.09 6.43, -17.94 7.9 M0.29 -0.66 C-2.81 0.88, -15.35 6.98, -18.34 8.4" stroke="#1e1e1e" stroke-width="4" fill="none"></path></g></g><mask></mask><g stroke-linecap="round"><g transform="translate(46.81405874427401 147.74577501221302) rotate(335.4519080177106 -9.581522215615678 -1.1524152074948688)"><path d="M0.05 -0.39 C-2.99 -0.68, -15.61 -1.51, -18.72 -1.87 M-0.59 0.6 C-3.62 0.18, -15.9 -2.17, -18.93 -2.61" stroke="#1e1e1e" stroke-width="4" fill="none"></path></g></g><mask></mask><g stroke-linecap="round"><g transform="translate(45.1810910689328 146.97728584886408) rotate(335.4519080177106 -5.9663193927631255 -4.618395246292039)"><path d="M0.44 0.43 C-1.47 -1.08, -9.35 -7.82, -11.42 -9.45 M0 0.18 C-1.94 -1.22, -9.53 -7.36, -11.58 -8.86" stroke="#1e1e1e" stroke-width="4" fill="none"></path></g></g><mask></mask><g stroke-linecap="round"><g transform="translate(45.143675093331694 144.6270681079668) rotate(335.4519080177106 -1.8594501524544285 -7.311968730333774)"><path d="M0.52 -0.21 C-0.18 -2.74, -3.03 -12.32, -3.74 -14.73 M0.12 -0.8 C-0.69 -3.28, -3.47 -11.86, -4.19 -14.09" stroke="#1e1e1e" stroke-width="4" fill="none"></path></g></g><mask></mask><g stroke-linecap="round" transform="translate(33.20566752497325 124.67072247692249) rotate(0 5.9002718712058595 5.9002718712058595)"><path d="M11.8 5.9 C11.8 6.24, 11.77 6.59, 11.71 6.92 C11.65 7.26, 11.56 7.6, 11.44 7.92 C11.33 8.24, 11.18 8.55, 11.01 8.85 C10.84 9.15, 10.64 9.43, 10.42 9.69 C10.2 9.95, 9.95 10.2, 9.69 10.42 C9.43 10.64, 9.15 10.84, 8.85 11.01 C8.55 11.18, 8.24 11.33, 7.92 11.44 C7.6 11.56, 7.26 11.65, 6.92 11.71 C6.59 11.77, 6.24 11.8, 5.9 11.8 C5.56 11.8, 5.21 11.77, 4.88 11.71 C4.54 11.65, 4.2 11.56, 3.88 11.44 C3.56 11.33, 3.25 11.18, 2.95 11.01 C2.65 10.84, 2.37 10.64, 2.11 10.42 C1.85 10.2, 1.6 9.95, 1.38 9.69 C1.16 9.43, 0.96 9.15, 0.79 8.85 C0.62 8.55, 0.47 8.24, 0.36 7.92 C0.24 7.6, 0.15 7.26, 0.09 6.92 C0.03 6.59, 0 6.24, 0 5.9 C0 5.56, 0.03 5.21, 0.09 4.88 C0.15 4.54, 0.24 4.2, 0.36 3.88 C0.47 3.56, 0.62 3.25, 0.79 2.95 C0.96 2.65, 1.16 2.37, 1.38 2.11 C1.6 1.85, 1.85 1.6, 2.11 1.38 C2.37 1.16, 2.65 0.96, 2.95 0.79 C3.25 0.62, 3.56 0.47, 3.88 0.36 C4.2 0.24, 4.54 0.15, 4.88 0.09 C5.21 0.03, 5.56 0, 5.9 0 C6.24 0, 6.59 0.03, 6.92 0.09 C7.26 0.15, 7.6 0.24, 7.92 0.36 C8.24 0.47, 8.55 0.62, 8.85 0.79 C9.15 0.96, 9.43 1.16, 9.69 1.38 C9.95 1.6, 10.2 1.85, 10.42 2.11 C10.64 2.37, 10.84 2.65, 11.01 2.95 C11.18 3.25, 11.33 3.56, 11.44 3.88 C11.56 4.2, 11.65 4.54, 11.71 4.88 C11.77 5.21, 11.79 5.73, 11.8 5.9 C11.82 6.07, 11.82 5.73, 11.8 5.9" stroke="#e03131" stroke-width="1" fill="none"></path></g><g stroke-linecap="round" transform="translate(25.486172560622435 133.07819837206534) rotate(0 5.9002718712058595 5.9002718712058595)"><path d="M11.8 5.9 C11.8 6.24, 11.77 6.59, 11.71 6.92 C11.65 7.26, 11.56 7.6, 11.44 7.92 C11.33 8.24, 11.18 8.55, 11.01 8.85 C10.84 9.15, 10.64 9.43, 10.42 9.69 C10.2 9.95, 9.95 10.2, 9.69 10.42 C9.43 10.64, 9.15 10.84, 8.85 11.01 C8.55 11.18, 8.24 11.33, 7.92 11.44 C7.6 11.56, 7.26 11.65, 6.92 11.71 C6.59 11.77, 6.24 11.8, 5.9 11.8 C5.56 11.8, 5.21 11.77, 4.88 11.71 C4.54 11.65, 4.2 11.56, 3.88 11.44 C3.56 11.33, 3.25 11.18, 2.95 11.01 C2.65 10.84, 2.37 10.64, 2.11 10.42 C1.85 10.2, 1.6 9.95, 1.38 9.69 C1.16 9.43, 0.96 9.15, 0.79 8.85 C0.62 8.55, 0.47 8.24, 0.36 7.92 C0.24 7.6, 0.15 7.26, 0.09 6.92 C0.03 6.59, 0 6.24, 0 5.9 C0 5.56, 0.03 5.21, 0.09 4.88 C0.15 4.54, 0.24 4.2, 0.36 3.88 C0.47 3.56, 0.62 3.25, 0.79 2.95 C0.96 2.65, 1.16 2.37, 1.38 2.11 C1.6 1.85, 1.85 1.6, 2.11 1.38 C2.37 1.16, 2.65 0.96, 2.95 0.79 C3.25 0.62, 3.56 0.47, 3.88 0.36 C4.2 0.24, 4.54 0.15, 4.88 0.09 C5.21 0.03, 5.56 0, 5.9 0 C6.24 0, 6.59 0.03, 6.92 0.09 C7.26 0.15, 7.6 0.24, 7.92 0.36 C8.24 0.47, 8.55 0.62, 8.85 0.79 C9.15 0.96, 9.43 1.16, 9.69 1.38 C9.95 1.6, 10.2 1.85, 10.42 2.11 C10.64 2.37, 10.84 2.65, 11.01 2.95 C11.18 3.25, 11.33 3.56, 11.44 3.88 C11.56 4.2, 11.65 4.54, 11.71 4.88 C11.77 5.21, 11.79 5.73, 11.8 5.9 C11.82 6.07, 11.82 5.73, 11.8 5.9" stroke="#e03131" stroke-width="1" fill="none"></path></g><g stroke-linecap="round" transform="translate(20.83793976691686 144.02141875633333) rotate(0 5.9002718712058595 5.9002718712058595)"><path d="M11.8 5.9 C11.8 6.24, 11.77 6.59, 11.71 6.92 C11.65 7.26, 11.56 7.6, 11.44 7.92 C11.33 8.24, 11.18 8.55, 11.01 8.85 C10.84 9.15, 10.64 9.43, 10.42 9.69 C10.2 9.95, 9.95 10.2, 9.69 10.42 C9.43 10.64, 9.15 10.84, 8.85 11.01 C8.55 11.18, 8.24 11.33, 7.92 11.44 C7.6 11.56, 7.26 11.65, 6.92 11.71 C6.59 11.77, 6.24 11.8, 5.9 11.8 C5.56 11.8, 5.21 11.77, 4.88 11.71 C4.54 11.65, 4.2 11.56, 3.88 11.44 C3.56 11.33, 3.25 11.18, 2.95 11.01 C2.65 10.84, 2.37 10.64, 2.11 10.42 C1.85 10.2, 1.6 9.95, 1.38 9.69 C1.16 9.43, 0.96 9.15, 0.79 8.85 C0.62 8.55, 0.47 8.24, 0.36 7.92 C0.24 7.6, 0.15 7.26, 0.09 6.92 C0.03 6.59, 0 6.24, 0 5.9 C0 5.56, 0.03 5.21, 0.09 4.88 C0.15 4.54, 0.24 4.2, 0.36 3.88 C0.47 3.56, 0.62 3.25, 0.79 2.95 C0.96 2.65, 1.16 2.37, 1.38 2.11 C1.6 1.85, 1.85 1.6, 2.11 1.38 C2.37 1.16, 2.65 0.96, 2.95 0.79 C3.25 0.62, 3.56 0.47, 3.88 0.36 C4.2 0.24, 4.54 0.15, 4.88 0.09 C5.21 0.03, 5.56 0, 5.9 0 C6.24 0, 6.59 0.03, 6.92 0.09 C7.26 0.15, 7.6 0.24, 7.92 0.36 C8.24 0.47, 8.55 0.62, 8.85 0.79 C9.15 0.96, 9.43 1.16, 9.69 1.38 C9.95 1.6, 10.2 1.85, 10.42 2.11 C10.64 2.37, 10.84 2.65, 11.01 2.95 C11.18 3.25, 11.33 3.56, 11.44 3.88 C11.56 4.2, 11.65 4.54, 11.71 4.88 C11.77 5.21, 11.79 5.73, 11.8 5.9 C11.82 6.07, 11.82 5.73, 11.8 5.9" stroke="#e03131" stroke-width="1" fill="none"></path></g><g stroke-linecap="round" transform="translate(26.88033898928188 154.6498518348908) rotate(0 5.9002718712058595 5.9002718712058595)"><path d="M11.8 5.9 C11.8 6.24, 11.77 6.59, 11.71 6.92 C11.65 7.26, 11.56 7.6, 11.44 7.92 C11.33 8.24, 11.18 8.55, 11.01 8.85 C10.84 9.15, 10.64 9.43, 10.42 9.69 C10.2 9.95, 9.95 10.2, 9.69 10.42 C9.43 10.64, 9.15 10.84, 8.85 11.01 C8.55 11.18, 8.24 11.33, 7.92 11.44 C7.6 11.56, 7.26 11.65, 6.92 11.71 C6.59 11.77, 6.24 11.8, 5.9 11.8 C5.56 11.8, 5.21 11.77, 4.88 11.71 C4.54 11.65, 4.2 11.56, 3.88 11.44 C3.56 11.33, 3.25 11.18, 2.95 11.01 C2.65 10.84, 2.37 10.64, 2.11 10.42 C1.85 10.2, 1.6 9.95, 1.38 9.69 C1.16 9.43, 0.96 9.15, 0.79 8.85 C0.62 8.55, 0.47 8.24, 0.36 7.92 C0.24 7.6, 0.15 7.26, 0.09 6.92 C0.03 6.59, 0 6.24, 0 5.9 C0 5.56, 0.03 5.21, 0.09 4.88 C0.15 4.54, 0.24 4.2, 0.36 3.88 C0.47 3.56, 0.62 3.25, 0.79 2.95 C0.96 2.65, 1.16 2.37, 1.38 2.11 C1.6 1.85, 1.85 1.6, 2.11 1.38 C2.37 1.16, 2.65 0.96, 2.95 0.79 C3.25 0.62, 3.56 0.47, 3.88 0.36 C4.2 0.24, 4.54 0.15, 4.88 0.09 C5.21 0.03, 5.56 0, 5.9 0 C6.24 0, 6.59 0.03, 6.92 0.09 C7.26 0.15, 7.6 0.24, 7.92 0.36 C8.24 0.47, 8.55 0.62, 8.85 0.79 C9.15 0.96, 9.43 1.16, 9.69 1.38 C9.95 1.6, 10.2 1.85, 10.42 2.11 C10.64 2.37, 10.84 2.65, 11.01 2.95 C11.18 3.25, 11.33 3.56, 11.44 3.88 C11.56 4.2, 11.65 4.54, 11.71 4.88 C11.77 5.21, 11.79 5.73, 11.8 5.9 C11.82 6.07, 11.82 5.73, 11.8 5.9" stroke="#e03131" stroke-width="1" fill="none"></path></g><g stroke-linecap="round" transform="translate(38.156551246336676 158.62982531213765) rotate(0 5.9002718712058595 5.9002718712058595)"><path d="M11.8 5.9 C11.8 6.24, 11.77 6.59, 11.71 6.92 C11.65 7.26, 11.56 7.6, 11.44 7.92 C11.33 8.24, 11.18 8.55, 11.01 8.85 C10.84 9.15, 10.64 9.43, 10.42 9.69 C10.2 9.95, 9.95 10.2, 9.69 10.42 C9.43 10.64, 9.15 10.84, 8.85 11.01 C8.55 11.18, 8.24 11.33, 7.92 11.44 C7.6 11.56, 7.26 11.65, 6.92 11.71 C6.59 11.77, 6.24 11.8, 5.9 11.8 C5.56 11.8, 5.21 11.77, 4.88 11.71 C4.54 11.65, 4.2 11.56, 3.88 11.44 C3.56 11.33, 3.25 11.18, 2.95 11.01 C2.65 10.84, 2.37 10.64, 2.11 10.42 C1.85 10.2, 1.6 9.95, 1.38 9.69 C1.16 9.43, 0.96 9.15, 0.79 8.85 C0.62 8.55, 0.47 8.24, 0.36 7.92 C0.24 7.6, 0.15 7.26, 0.09 6.92 C0.03 6.59, 0 6.24, 0 5.9 C0 5.56, 0.03 5.21, 0.09 4.88 C0.15 4.54, 0.24 4.2, 0.36 3.88 C0.47 3.56, 0.62 3.25, 0.79 2.95 C0.96 2.65, 1.16 2.37, 1.38 2.11 C1.6 1.85, 1.85 1.6, 2.11 1.38 C2.37 1.16, 2.65 0.96, 2.95 0.79 C3.25 0.62, 3.56 0.47, 3.88 0.36 C4.2 0.24, 4.54 0.15, 4.88 0.09 C5.21 0.03, 5.56 0, 5.9 0 C6.24 0, 6.59 0.03, 6.92 0.09 C7.26 0.15, 7.6 0.24, 7.92 0.36 C8.24 0.47, 8.55 0.62, 8.85 0.79 C9.15 0.96, 9.43 1.16, 9.69 1.38 C9.95 1.6, 10.2 1.85, 10.42 2.11 C10.64 2.37, 10.84 2.65, 11.01 2.95 C11.18 3.25, 11.33 3.56, 11.44 3.88 C11.56 4.2, 11.65 4.54, 11.71 4.88 C11.77 5.21, 11.79 5.73, 11.8 5.9 C11.82 6.07, 11.82 5.73, 11.8 5.9" stroke="#e03131" stroke-width="1" fill="none"></path></g><g stroke-linecap="round" transform="translate(325.97644492162726 151.80856079602927) rotate(0 5.9002718712058595 5.9002718712058595)"><path d="M11.8 5.9 C11.8 6.24, 11.77 6.59, 11.71 6.92 C11.65 7.26, 11.56 7.6, 11.44 7.92 C11.33 8.24, 11.18 8.55, 11.01 8.85 C10.84 9.15, 10.64 9.43, 10.42 9.69 C10.2 9.95, 9.95 10.2, 9.69 10.42 C9.43 10.64, 9.15 10.84, 8.85 11.01 C8.55 11.18, 8.24 11.33, 7.92 11.44 C7.6 11.56, 7.26 11.65, 6.92 11.71 C6.59 11.77, 6.24 11.8, 5.9 11.8 C5.56 11.8, 5.21 11.77, 4.88 11.71 C4.54 11.65, 4.2 11.56, 3.88 11.44 C3.56 11.33, 3.25 11.18, 2.95 11.01 C2.65 10.84, 2.37 10.64, 2.11 10.42 C1.85 10.2, 1.6 9.95, 1.38 9.69 C1.16 9.43, 0.96 9.15, 0.79 8.85 C0.62 8.55, 0.47 8.24, 0.36 7.92 C0.24 7.6, 0.15 7.26, 0.09 6.92 C0.03 6.59, 0 6.24, 0 5.9 C0 5.56, 0.03 5.21, 0.09 4.88 C0.15 4.54, 0.24 4.2, 0.36 3.88 C0.47 3.56, 0.62 3.25, 0.79 2.95 C0.96 2.65, 1.16 2.37, 1.38 2.11 C1.6 1.85, 1.85 1.6, 2.11 1.38 C2.37 1.16, 2.65 0.96, 2.95 0.79 C3.25 0.62, 3.56 0.47, 3.88 0.36 C4.2 0.24, 4.54 0.15, 4.88 0.09 C5.21 0.03, 5.56 0, 5.9 0 C6.24 0, 6.59 0.03, 6.92 0.09 C7.26 0.15, 7.6 0.24, 7.92 0.36 C8.24 0.47, 8.55 0.62, 8.85 0.79 C9.15 0.96, 9.43 1.16, 9.69 1.38 C9.95 1.6, 10.2 1.85, 10.42 2.11 C10.64 2.37, 10.84 2.65, 11.01 2.95 C11.18 3.25, 11.33 3.56, 11.44 3.88 C11.56 4.2, 11.65 4.54, 11.71 4.88 C11.77 5.21, 11.79 5.73, 11.8 5.9 C11.82 6.07, 11.82 5.73, 11.8 5.9" stroke="#e03131" stroke-width="1" fill="none"></path></g><g stroke-linecap="round" transform="translate(337.4944593771388 147.5126488084734) rotate(0 5.9002718712058595 5.9002718712058595)"><path d="M11.8 5.9 C11.8 6.24, 11.77 6.59, 11.71 6.92 C11.65 7.26, 11.56 7.6, 11.44 7.92 C11.33 8.24, 11.18 8.55, 11.01 8.85 C10.84 9.15, 10.64 9.43, 10.42 9.69 C10.2 9.95, 9.95 10.2, 9.69 10.42 C9.43 10.64, 9.15 10.84, 8.85 11.01 C8.55 11.18, 8.24 11.33, 7.92 11.44 C7.6 11.56, 7.26 11.65, 6.92 11.71 C6.59 11.77, 6.24 11.8, 5.9 11.8 C5.56 11.8, 5.21 11.77, 4.88 11.71 C4.54 11.65, 4.2 11.56, 3.88 11.44 C3.56 11.33, 3.25 11.18, 2.95 11.01 C2.65 10.84, 2.37 10.64, 2.11 10.42 C1.85 10.2, 1.6 9.95, 1.38 9.69 C1.16 9.43, 0.96 9.15, 0.79 8.85 C0.62 8.55, 0.47 8.24, 0.36 7.92 C0.24 7.6, 0.15 7.26, 0.09 6.92 C0.03 6.59, 0 6.24, 0 5.9 C0 5.56, 0.03 5.21, 0.09 4.88 C0.15 4.54, 0.24 4.2, 0.36 3.88 C0.47 3.56, 0.62 3.25, 0.79 2.95 C0.96 2.65, 1.16 2.37, 1.38 2.11 C1.6 1.85, 1.85 1.6, 2.11 1.38 C2.37 1.16, 2.65 0.96, 2.95 0.79 C3.25 0.62, 3.56 0.47, 3.88 0.36 C4.2 0.24, 4.54 0.15, 4.88 0.09 C5.21 0.03, 5.56 0, 5.9 0 C6.24 0, 6.59 0.03, 6.92 0.09 C7.26 0.15, 7.6 0.24, 7.92 0.36 C8.24 0.47, 8.55 0.62, 8.85 0.79 C9.15 0.96, 9.43 1.16, 9.69 1.38 C9.95 1.6, 10.2 1.85, 10.42 2.11 C10.64 2.37, 10.84 2.65, 11.01 2.95 C11.18 3.25, 11.33 3.56, 11.44 3.88 C11.56 4.2, 11.65 4.54, 11.71 4.88 C11.77 5.21, 11.79 5.73, 11.8 5.9 C11.82 6.07, 11.82 5.73, 11.8 5.9" stroke="#e03131" stroke-width="1" fill="none"></path></g><g stroke-linecap="round" transform="translate(345.4655029253463 137.17917515521458) rotate(0 5.9002718712058595 5.9002718712058595)"><path d="M11.8 5.9 C11.8 6.24, 11.77 6.59, 11.71 6.92 C11.65 7.26, 11.56 7.6, 11.44 7.92 C11.33 8.24, 11.18 8.55, 11.01 8.85 C10.84 9.15, 10.64 9.43, 10.42 9.69 C10.2 9.95, 9.95 10.2, 9.69 10.42 C9.43 10.64, 9.15 10.84, 8.85 11.01 C8.55 11.18, 8.24 11.33, 7.92 11.44 C7.6 11.56, 7.26 11.65, 6.92 11.71 C6.59 11.77, 6.24 11.8, 5.9 11.8 C5.56 11.8, 5.21 11.77, 4.88 11.71 C4.54 11.65, 4.2 11.56, 3.88 11.44 C3.56 11.33, 3.25 11.18, 2.95 11.01 C2.65 10.84, 2.37 10.64, 2.11 10.42 C1.85 10.2, 1.6 9.95, 1.38 9.69 C1.16 9.43, 0.96 9.15, 0.79 8.85 C0.62 8.55, 0.47 8.24, 0.36 7.92 C0.24 7.6, 0.15 7.26, 0.09 6.92 C0.03 6.59, 0 6.24, 0 5.9 C0 5.56, 0.03 5.21, 0.09 4.88 C0.15 4.54, 0.24 4.2, 0.36 3.88 C0.47 3.56, 0.62 3.25, 0.79 2.95 C0.96 2.65, 1.16 2.37, 1.38 2.11 C1.6 1.85, 1.85 1.6, 2.11 1.38 C2.37 1.16, 2.65 0.96, 2.95 0.79 C3.25 0.62, 3.56 0.47, 3.88 0.36 C4.2 0.24, 4.54 0.15, 4.88 0.09 C5.21 0.03, 5.56 0, 5.9 0 C6.24 0, 6.59 0.03, 6.92 0.09 C7.26 0.15, 7.6 0.24, 7.92 0.36 C8.24 0.47, 8.55 0.62, 8.85 0.79 C9.15 0.96, 9.43 1.16, 9.69 1.38 C9.95 1.6, 10.2 1.85, 10.42 2.11 C10.64 2.37, 10.84 2.65, 11.01 2.95 C11.18 3.25, 11.33 3.56, 11.44 3.88 C11.56 4.2, 11.65 4.54, 11.71 4.88 C11.77 5.21, 11.79 5.73, 11.8 5.9 C11.82 6.07, 11.82 5.73, 11.8 5.9" stroke="#e03131" stroke-width="1" fill="none"></path></g><g stroke-linecap="round" transform="translate(344.588282187151 124.66431482585267) rotate(0 5.9002718712058595 5.9002718712058595)"><path d="M11.8 5.9 C11.8 6.24, 11.77 6.59, 11.71 6.92 C11.65 7.26, 11.56 7.6, 11.44 7.92 C11.33 8.24, 11.18 8.55, 11.01 8.85 C10.84 9.15, 10.64 9.43, 10.42 9.69 C10.2 9.95, 9.95 10.2, 9.69 10.42 C9.43 10.64, 9.15 10.84, 8.85 11.01 C8.55 11.18, 8.24 11.33, 7.92 11.44 C7.6 11.56, 7.26 11.65, 6.92 11.71 C6.59 11.77, 6.24 11.8, 5.9 11.8 C5.56 11.8, 5.21 11.77, 4.88 11.71 C4.54 11.65, 4.2 11.56, 3.88 11.44 C3.56 11.33, 3.25 11.18, 2.95 11.01 C2.65 10.84, 2.37 10.64, 2.11 10.42 C1.85 10.2, 1.6 9.95, 1.38 9.69 C1.16 9.43, 0.96 9.15, 0.79 8.85 C0.62 8.55, 0.47 8.24, 0.36 7.92 C0.24 7.6, 0.15 7.26, 0.09 6.92 C0.03 6.59, 0 6.24, 0 5.9 C0 5.56, 0.03 5.21, 0.09 4.88 C0.15 4.54, 0.24 4.2, 0.36 3.88 C0.47 3.56, 0.62 3.25, 0.79 2.95 C0.96 2.65, 1.16 2.37, 1.38 2.11 C1.6 1.85, 1.85 1.6, 2.11 1.38 C2.37 1.16, 2.65 0.96, 2.95 0.79 C3.25 0.62, 3.56 0.47, 3.88 0.36 C4.2 0.24, 4.54 0.15, 4.88 0.09 C5.21 0.03, 5.56 0, 5.9 0 C6.24 0, 6.59 0.03, 6.92 0.09 C7.26 0.15, 7.6 0.24, 7.92 0.36 C8.24 0.47, 8.55 0.62, 8.85 0.79 C9.15 0.96, 9.43 1.16, 9.69 1.38 C9.95 1.6, 10.2 1.85, 10.42 2.11 C10.64 2.37, 10.84 2.65, 11.01 2.95 C11.18 3.25, 11.33 3.56, 11.44 3.88 C11.56 4.2, 11.65 4.54, 11.71 4.88 C11.77 5.21, 11.79 5.73, 11.8 5.9 C11.82 6.07, 11.82 5.73, 11.8 5.9" stroke="#e03131" stroke-width="1" fill="none"></path></g><g stroke-linecap="round" transform="translate(333.9580466245852 117.77859863777758) rotate(0 5.9002718712058595 5.9002718712058595)"><path d="M11.8 5.9 C11.8 6.24, 11.77 6.59, 11.71 6.92 C11.65 7.26, 11.56 7.6, 11.44 7.92 C11.33 8.24, 11.18 8.55, 11.01 8.85 C10.84 9.15, 10.64 9.43, 10.42 9.69 C10.2 9.95, 9.95 10.2, 9.69 10.42 C9.43 10.64, 9.15 10.84, 8.85 11.01 C8.55 11.18, 8.24 11.33, 7.92 11.44 C7.6 11.56, 7.26 11.65, 6.92 11.71 C6.59 11.77, 6.24 11.8, 5.9 11.8 C5.56 11.8, 5.21 11.77, 4.88 11.71 C4.54 11.65, 4.2 11.56, 3.88 11.44 C3.56 11.33, 3.25 11.18, 2.95 11.01 C2.65 10.84, 2.37 10.64, 2.11 10.42 C1.85 10.2, 1.6 9.95, 1.38 9.69 C1.16 9.43, 0.96 9.15, 0.79 8.85 C0.62 8.55, 0.47 8.24, 0.36 7.92 C0.24 7.6, 0.15 7.26, 0.09 6.92 C0.03 6.59, 0 6.24, 0 5.9 C0 5.56, 0.03 5.21, 0.09 4.88 C0.15 4.54, 0.24 4.2, 0.36 3.88 C0.47 3.56, 0.62 3.25, 0.79 2.95 C0.96 2.65, 1.16 2.37, 1.38 2.11 C1.6 1.85, 1.85 1.6, 2.11 1.38 C2.37 1.16, 2.65 0.96, 2.95 0.79 C3.25 0.62, 3.56 0.47, 3.88 0.36 C4.2 0.24, 4.54 0.15, 4.88 0.09 C5.21 0.03, 5.56 0, 5.9 0 C6.24 0, 6.59 0.03, 6.92 0.09 C7.26 0.15, 7.6 0.24, 7.92 0.36 C8.24 0.47, 8.55 0.62, 8.85 0.79 C9.15 0.96, 9.43 1.16, 9.69 1.38 C9.95 1.6, 10.2 1.85, 10.42 2.11 C10.64 2.37, 10.84 2.65, 11.01 2.95 C11.18 3.25, 11.33 3.56, 11.44 3.88 C11.56 4.2, 11.65 4.54, 11.71 4.88 C11.77 5.21, 11.79 5.73, 11.8 5.9 C11.82 6.07, 11.82 5.73, 11.8 5.9" stroke="#e03131" stroke-width="1" fill="none"></path></g><g transform="translate(33.267109492368945 107.14527461659509) rotate(0 4.44921875 9.199999999999818)"><text x="0" y="14.720312499999999" font-family="Helvetica, Segoe UI Emoji" font-size="16px" fill="#e03131" text-anchor="start" style="white-space: pre;" direction="ltr" dominant-baseline="alphabetic">1</text></g><g transform="translate(19.334037463696404 116.04690915779065) rotate(0 4.44921875 9.199999999999818)"><text x="0" y="14.720312499999999" font-family="Helvetica, Segoe UI Emoji" font-size="16px" fill="#e03131" text-anchor="start" style="white-space: pre;" direction="ltr" dominant-baseline="alphabetic">2</text></g><g transform="translate(10 135.9730527878528) rotate(0 4.44921875 9.199999999999818)"><text x="0" y="14.720312499999999" font-family="Helvetica, Segoe UI Emoji" font-size="16px" fill="#e03131" text-anchor="start" style="white-space: pre;" direction="ltr" dominant-baseline="alphabetic">3</text></g><g transform="translate(15.98751069075388 158.21878059590836) rotate(0 4.44921875 9.199999999999818)"><text x="0" y="14.720312499999999" font-family="Helvetica, Segoe UI Emoji" font-size="16px" fill="#e03131" text-anchor="start" style="white-space: pre;" direction="ltr" dominant-baseline="alphabetic">4</text></g><g transform="translate(35.26797376781633 170.3106455083207) rotate(0 4.44921875 9.199999999999818)"><text x="0" y="14.720312499999999" font-family="Helvetica, Segoe UI Emoji" font-size="16px" fill="#e03131" text-anchor="start" style="white-space: pre;" direction="ltr" dominant-baseline="alphabetic">5</text></g><g transform="translate(341.3833339920593 102.7834288433196) rotate(0 4.44921875 9.199999999999818)"><text x="0" y="14.720312499999999" font-family="Helvetica, Segoe UI Emoji" font-size="16px" fill="#e03131" text-anchor="start" style="white-space: pre;" direction="ltr" dominant-baseline="alphabetic">6</text></g><g transform="translate(356.9153215496008 116.74119406586578) rotate(0 4.44921875 9.199999999999818)"><text x="0" y="14.720312499999999" font-family="Helvetica, Segoe UI Emoji" font-size="16px" fill="#e03131" text-anchor="start" style="white-space: pre;" direction="ltr" dominant-baseline="alphabetic">7</text></g><g transform="translate(358.65249481021783 137.42795956508417) rotate(0 4.44921875 9.199999999999818)"><text x="0" y="14.720312499999999" font-family="Helvetica, Segoe UI Emoji" font-size="16px" fill="#e03131" text-anchor="start" style="white-space: pre;" direction="ltr" dominant-baseline="alphabetic">8</text></g><g transform="translate(347.61256959953334 155.37584008682552) rotate(0 4.44921875 9.199999999999818)"><text x="0" y="14.720312499999999" font-family="Helvetica, Segoe UI Emoji" font-size="16px" fill="#e03131" text-anchor="start" style="white-space: pre;" direction="ltr" dominant-baseline="alphabetic">9</text></g><g transform="translate(324.0385173870054 163.97295633220165) rotate(0 8.8984375 9.199999999999818)"><text x="0" y="14.720312499999999" font-family="Helvetica, Segoe UI Emoji" font-size="16px" fill="#e03131" text-anchor="start" style="white-space: pre;" direction="ltr" dominant-baseline="alphabetic">10</text></g></svg>