<svg xmlns="http://www.w3.org/2000/svg" width="577.605" height="544.853"><defs><style>@font-face{font-family:&quot;Virgil&quot;;src:url(https://excalidraw.com/Virgil.woff2)}@font-face{font-family:&quot;Cascadia&quot;;src:url(https://excalidraw.com/Cascadia.woff2)}@font-face{font-family:&quot;Assistant&quot;;src:url(https://excalidraw.com/Assistant-Regular.woff2)}</style></defs><path fill="none" stroke="#1e1e1e" stroke-linecap="round" stroke-width="4" d="M188.22 231.921c8.82-.95 21.37 1.03 29.51 4.39 8.15 3.35 15.03 9.29 19.36 15.75s7.5 15.86 6.62 23.01c-.89 7.14-5.99 14.29-11.91 19.86-5.92 5.58-14.87 11.01-23.62 13.6-8.75 2.58-19.85 3.39-28.86 1.92-9.01-1.48-18.83-5.37-25.19-10.76s-11.15-14.41-12.97-21.58-1.44-15.05 2.05-21.44c3.5-6.39 11.11-12.84 18.91-16.91s22.71-6.21 27.89-7.51c5.17-1.3 3.24-.95 3.18-.29m20.52 4.11c8.31 2.46 15.61 6.88 20.67 13.02 5.06 6.15 9.5 16.74 9.69 23.86s-3.5 12.86-8.54 18.87c-5.05 6.01-13.13 13.85-21.72 17.18-8.58 3.33-20.33 4.26-29.81 2.8-9.48-1.47-19.87-6.79-27.08-11.59s-13.92-10.33-16.17-17.21c-2.26-6.88-.47-17 2.63-24.07s9.22-13.75 15.99-18.34c6.76-4.59 15.77-8.17 24.58-9.21s23.51 2.48 28.27 2.98.25-.59.27.04"/><path fill="none" stroke="#1e1e1e" stroke-linecap="round" stroke-width="4" d="M157.892 273.953c5.09 1.97 20.71 9.9 31.13 9.95 10.42.06 26.31-7.83 31.4-9.63m-64.06-.95c4.87 2.23 21 12 31.61 11.83 10.6-.17 26.72-10.98 32-12.85M168.92 261.018c1.01-.7 4.54-3.85 6.05-3.81 1.52.05 2.54 3.36 3.02 4.09m-9.53.4c.98-.82 4.78-4.99 6.33-5 1.54-.02 2.43 4.21 2.94 4.92M198.25 261.552c.97-.69 4.11-4.56 5.56-4.53 1.45.04 2.56 4.03 3.15 4.74m-9.04-.41c.92-.63 4.13-3.91 5.58-3.95 1.45-.03 2.47 3.07 3.13 3.75M174.536 330.683c-11.2 2.56-45.47 10.69-66.38 16.5s-49.04 15.29-59.09 18.36m123.89-36.15c-10.87 2.13-41.7 9.79-62.43 15.95-20.73 6.15-51.46 17.51-61.93 20.99M196.953 328.552c11.23 2 46.08 5.62 67.82 11.02 21.74 5.41 52.11 17.78 62.63 21.41m-128.59-33.2c11.14 2.16 44.06 7.13 65.31 12.8s51.51 17.61 62.17 21.21M189.796 340.834c-.42 12.56-3.42 47.3-3.75 76.9s1.34 83.87 1.76 100.7m.83-175.52c.03 12.64.05 46.43-.23 75.85s-1.57 83.86-1.44 100.68M172.85 532.706c-8.78 0-42.99-.08-51.43-.04m53.28 2.15c-9 .24-45.49-.8-54.31-.92M195.768 532.458c9.22.01 45.63-.41 54.82-.34m-56.36 2.65c9.18.27 46.34-.61 55.75-1.27M329.243 361.286c1.89-2.02 9.31-10.16 10.98-12.25m-11.49 11.71c1.86-2.17 9.36-10.67 11.29-12.56M330.105 362.597c2.87-1.37 14.12-7.22 17.04-8.55m-17.47 8.18c3-1.26 15.51-6.1 18.45-7.5M329.003 363.095c3.12.43 16.31 2.53 19.66 2.88m-18.92-3.38c3.01.28 15.28 2.18 18.49 2.68M329.915 363.722c2.15 1.5 10.32 6.88 12.39 8.41m-13.06-8.61c2.16 1.56 10.7 7.73 12.87 9.15M329.057 363.176c.7 2.42 3.23 12.96 3.76 15.36m-4.19-14.33c.68 2.51 3.48 11.31 4.01 13.59M48.961 366.705c-.872 2.663-4.8 12.647-5.57 15.318m5.09-15.385c-.95 2.786-4.59 13.398-5.351 15.966M47.346 365.472c-2.152 2.51-9.777 13.183-11.964 15.71M47.069 366.6c-2.29 2.376-10.216 11.691-12.16 14.008M47.063 365.24c-3.101 1.009-16.384 4.349-19.524 5.344m19.05-5.37c-2.89 1.012-14.727 4.461-17.895 5.348"/><path fill="none" stroke="#1e1e1e" stroke-linecap="round" stroke-width="4" d="M46.056 365.136c-2.522-.563-11.572-2.3-14.018-2.843m15.168 3.362c-2.598-.44-13.43-3.265-15.878-3.906M48.177 364.845c-1.574-1.93-8.603-10.242-10.14-12.19m9.428 12.196c-1.35-1.923-6.778-10.075-8.28-12.137"/><path fill="none" stroke="#e03131" stroke-linecap="round" d="M45.006 351.912c0 .34-.03.69-.09 1.02-.06.34-.15.68-.27 1-.11.32-.26.63-.43.93s-.37.58-.59.84-.47.51-.73.73-.54.42-.84.59-.61.32-.93.43c-.32.12-.66.21-1 .27a5.8 5.8 0 0 1-2.04 0c-.34-.06-.68-.15-1-.27-.32-.11-.63-.26-.93-.43s-.58-.37-.84-.59a6.3 6.3 0 0 1-.73-.73c-.22-.26-.42-.54-.59-.84s-.32-.61-.43-.93c-.12-.32-.21-.66-.27-1a5.8 5.8 0 0 1 0-2.04c.06-.34.15-.68.27-1 .11-.32.26-.63.43-.93s.37-.58.59-.84.47-.51.73-.73.54-.42.84-.59.61-.32.93-.43c.32-.12.66-.21 1-.27a5.8 5.8 0 0 1 2.04 0c.34.06.68.15 1 .27.32.11.63.26.93.43s.58.37.84.59.51.47.73.73.42.54.59.84.32.61.43.93c.12.32.21.66.27 1 .06.33.08.85.09 1.02.02.17.02-.17 0 0"/><path fill="none" stroke="#e03131" stroke-linecap="round" d="M37.286 360.32c0 .34-.03.69-.09 1.02-.06.34-.15.68-.27 1-.11.32-.26.63-.43.93s-.37.58-.59.84-.47.51-.73.73-.54.42-.84.59-.61.32-.93.43c-.32.12-.66.21-1 .27a5.8 5.8 0 0 1-2.04 0c-.34-.06-.68-.15-1-.27-.32-.11-.63-.26-.93-.43s-.58-.37-.84-.59a6.3 6.3 0 0 1-.73-.73c-.22-.26-.42-.54-.59-.84s-.32-.61-.43-.93c-.12-.32-.21-.66-.27-1a5.8 5.8 0 0 1 0-2.04c.06-.34.15-.68.27-1 .11-.32.26-.63.43-.93s.37-.58.59-.84.47-.51.73-.73.54-.42.84-.59.61-.32.93-.43c.32-.12.66-.21 1-.27a5.8 5.8 0 0 1 2.04 0c.34.06.68.15 1 .27.32.11.63.26.93.43s.58.37.84.59.51.47.73.73.42.54.59.84.32.61.43.93c.12.32.21.66.27 1 .06.33.08.85.09 1.02.02.17.02-.17 0 0M32.638 371.262c0 .34-.03.69-.09 1.02-.06.34-.15.68-.27 1-.11.32-.26.63-.43.93s-.37.58-.59.84-.47.51-.73.73-.54.42-.84.59-.61.32-.93.43c-.32.12-.66.21-1 .27a5.8 5.8 0 0 1-2.04 0c-.34-.06-.68-.15-1-.27-.32-.11-.63-.26-.93-.43s-.58-.37-.84-.59a6.3 6.3 0 0 1-.73-.73c-.22-.26-.42-.54-.59-.84s-.32-.61-.43-.93c-.12-.32-.21-.66-.27-1a5.8 5.8 0 0 1 0-2.04c.06-.34.15-.68.27-1 .11-.32.26-.63.43-.93s.37-.58.59-.84.47-.51.73-.73.54-.42.84-.59.61-.32.93-.43c.32-.12.66-.21 1-.27a5.8 5.8 0 0 1 2.04 0c.34.06.68.15 1 .27.32.11.63.26.93.43s.58.37.84.59.51.47.73.73.42.54.59.84.32.61.43.93c.12.32.21.66.27 1 .06.33.08.85.09 1.02.02.17.02-.17 0 0M38.68 381.89c0 .34-.03.69-.09 1.02-.06.34-.15.68-.27 1-.11.32-.26.63-.43.93s-.37.58-.59.84-.47.51-.73.73-.54.42-.84.59-.61.32-.93.43c-.32.12-.66.21-1 .27a5.8 5.8 0 0 1-2.04 0c-.34-.06-.68-.15-1-.27-.32-.11-.63-.26-.93-.43s-.58-.37-.84-.59a6.3 6.3 0 0 1-.73-.73c-.22-.26-.42-.54-.59-.84s-.32-.61-.43-.93c-.12-.32-.21-.66-.27-1a5.8 5.8 0 0 1 0-2.04c.06-.34.15-.68.27-1 .11-.32.26-.63.43-.93s.37-.58.59-.84.47-.51.73-.73.54-.42.84-.59.61-.32.93-.43c.32-.12.66-.21 1-.27a5.8 5.8 0 0 1 2.04 0c.34.06.68.15 1 .27.32.11.63.26.93.43s.58.37.84.59.51.47.73.73.42.54.59.84.32.61.43.93c.12.32.21.66.27 1 .06.33.08.85.09 1.02.02.17.02-.17 0 0M49.957 385.87c0 .34-.03.69-.09 1.02-.06.34-.15.68-.27 1-.11.32-.26.63-.43.93s-.37.58-.59.84-.47.51-.73.73-.54.42-.84.59-.61.32-.93.43c-.32.12-.66.21-1 .27a5.8 5.8 0 0 1-2.04 0c-.34-.06-.68-.15-1-.27-.32-.11-.63-.26-.93-.43s-.58-.37-.84-.59a6.3 6.3 0 0 1-.73-.73c-.22-.26-.42-.54-.59-.84s-.32-.61-.43-.93c-.12-.32-.21-.66-.27-1a5.8 5.8 0 0 1 0-2.04c.06-.34.15-.68.27-1 .11-.32.26-.63.43-.93s.37-.58.59-.84.47-.51.73-.73.54-.42.84-.59.61-.32.93-.43c.32-.12.66-.21 1-.27a5.8 5.8 0 0 1 2.04 0c.34.06.68.15 1 .27.32.11.63.26.93.43s.58.37.84.59.51.47.73.73.42.54.59.84.32.61.43.93c.12.32.21.66.27 1 .06.33.08.85.09 1.02.02.17.02-.17 0 0M356.388 351.905c0 .34-.03.69-.09 1.02-.06.34-.15.68-.27 1-.11.32-.26.63-.43.93s-.37.58-.59.84-.47.51-.73.73-.54.42-.84.59-.61.32-.93.43c-.32.12-.66.21-1 .27a5.8 5.8 0 0 1-2.04 0c-.34-.06-.68-.15-1-.27-.32-.11-.63-.26-.93-.43s-.58-.37-.84-.59a6.3 6.3 0 0 1-.73-.73c-.22-.26-.42-.54-.59-.84s-.32-.61-.43-.93c-.12-.32-.21-.66-.27-1a5.8 5.8 0 0 1 0-2.04c.06-.34.15-.68.27-1 .11-.32.26-.63.43-.93s.37-.58.59-.84.47-.51.73-.73.54-.42.84-.59.61-.32.93-.43c.32-.12.66-.21 1-.27a5.8 5.8 0 0 1 2.04 0c.34.06.68.15 1 .27.32.11.63.26.93.43s.58.37.84.59.51.47.73.73.42.54.59.84.32.61.43.93c.12.32.21.66.27 1 .06.33.08.85.09 1.02.02.17.02-.17 0 0M345.758 345.02c0 .34-.03.69-.09 1.02-.06.34-.15.68-.27 1-.11.32-.26.63-.43.93s-.37.58-.59.84-.47.51-.73.73-.54.42-.84.59-.61.32-.93.43c-.32.12-.66.21-1 .27a5.8 5.8 0 0 1-2.04 0c-.34-.06-.68-.15-1-.27-.32-.11-.63-.26-.93-.43s-.58-.37-.84-.59a6.3 6.3 0 0 1-.73-.73c-.22-.26-.42-.54-.59-.84s-.32-.61-.43-.93c-.12-.32-.21-.66-.27-1a5.8 5.8 0 0 1 0-2.04c.06-.34.15-.68.27-1 .11-.32.26-.63.43-.93s.37-.58.59-.84.47-.51.73-.73.54-.42.84-.59.61-.32.93-.43c.32-.12.66-.21 1-.27a5.8 5.8 0 0 1 2.04 0c.34.06.68.15 1 .27.32.11.63.26.93.43s.58.37.84.59.51.47.73.73.42.54.59.84.32.61.43.93c.12.32.21.66.27 1 .06.33.08.85.09 1.02.02.17.02-.17 0 0"/><text y="14.72" fill="#e03131" dominant-baseline="alphabetic" font-family="Helvetica, Segoe UI Emoji" font-size="16" style="white-space:pre" transform="translate(33.267 328.486)">1</text><text y="14.72" fill="#e03131" dominant-baseline="alphabetic" font-family="Helvetica, Segoe UI Emoji" font-size="16" style="white-space:pre" transform="translate(19.334 337.388)">2</text><text y="14.72" fill="#e03131" dominant-baseline="alphabetic" font-family="Helvetica, Segoe UI Emoji" font-size="16" style="white-space:pre" transform="translate(10 357.314)">3</text><text y="14.72" fill="#e03131" dominant-baseline="alphabetic" font-family="Helvetica, Segoe UI Emoji" font-size="16" style="white-space:pre" transform="translate(15.988 379.56)">4</text><text y="14.72" fill="#e03131" dominant-baseline="alphabetic" font-family="Helvetica, Segoe UI Emoji" font-size="16" style="white-space:pre" transform="translate(35.268 391.652)">5</text><text y="14.72" fill="#e03131" dominant-baseline="alphabetic" font-family="Helvetica, Segoe UI Emoji" font-size="16" style="white-space:pre" transform="translate(341.383 324.124)">6</text><text y="14.72" fill="#e03131" dominant-baseline="alphabetic" font-family="Helvetica, Segoe UI Emoji" font-size="16" style="white-space:pre" transform="translate(356.915 338.082)">7</text><g stroke-linecap="round"><path fill="#fff" stroke-width="0" d="M328.936 9.45c6.15-.37 14.51 3.85 19.62 7.92s9.01 10.53 11.04 16.51 3.19 13.25 1.13 19.39-8.23 13.72-13.5 17.45c-5.28 3.72-11.68 5.14-18.16 4.89s-15.3-2.44-20.74-6.37c-5.43-3.92-9.91-10.98-11.85-17.18-1.94-6.21-2.09-14.12.22-20.03 2.32-5.91 8.16-11.94 13.68-15.45 5.52-3.5 15.82-4.55 19.45-5.58s2.21-1.03 2.32-.62m-14.04 1.12c5.46-2.88 12.5-2.85 18.4-1.21s12.61 5.92 17.02 11.05 8.93 12.97 9.43 19.73c.51 6.77-2.67 15.38-6.41 20.86-3.73 5.48-9.73 10.03-16.01 12.01-6.27 1.97-15.46 1.76-21.66-.18-6.19-1.94-11.48-6.67-15.49-11.46-4.01-4.78-8.33-10.72-8.59-17.24-.26-6.53 3.14-16.37 7.02-21.92 3.88-5.54 13.51-9.75 16.27-11.35 2.77-1.59.23 1.35.31 1.78"/><path fill="none" stroke="#000" d="M314.166 12.51c5.55-3.05 15.42-2.8 21.69-1.63s11.72 4.1 15.93 8.64 8.5 12.18 9.33 18.62c.83 6.43-1.31 14.08-4.34 19.99-3.02 5.92-7.96 12.57-13.8 15.51-5.84 2.93-14.9 3.56-21.24 2.12s-12.59-5.96-16.8-10.77-7.62-11.77-8.46-18.08c-.85-6.32-.46-13.96 3.37-19.81s15.41-12.71 19.61-15.3c4.21-2.58 5.39-.48 5.65-.2m-1.02-2.71c5.71-.75 14.18 3.57 19.84 6.79 5.67 3.23 11.11 6.89 14.15 12.58 3.05 5.69 5.21 15.26 4.12 21.57-1.08 6.3-5.41 11.74-10.64 16.27-5.22 4.54-14.07 9.85-20.72 10.93-6.64 1.07-13.76-1.08-19.14-4.49-5.39-3.4-10.65-10.14-13.17-15.97-2.51-5.82-3.42-12.74-1.91-18.95 1.51-6.22 6.21-13.66 10.98-18.33 4.76-4.68 14.48-8.24 17.61-9.71s1.35.37 1.18.89"/></g><g stroke-linecap="round"><path fill="#fff" stroke-width="0" d="M366.027 17.993c6.57 2.17 12.15 9.45 16.24 15.41 4.1 5.96 8.15 13.28 8.36 20.35.2 7.07-3.17 15.93-7.15 22.07-3.98 6.15-10.22 11.62-16.73 14.79-6.52 3.17-15.39 4.85-22.34 4.25-6.96-.61-13.76-3.54-19.39-7.9-5.63-4.35-12.02-11.21-14.39-18.25-2.38-7.04-1.82-16.86.16-24 1.97-7.13 6.45-13.95 11.68-18.8 5.22-4.86 11.84-9.41 19.66-10.32s22.44 3.82 27.26 4.84c4.83 1.01 2.22.87 1.68 1.24m-37.57-2.3c5.89-3.25 15.48-4.56 22.43-3.77 6.95.78 13.79 3.91 19.28 8.48 5.48 4.57 11.63 11.7 13.64 18.94s.47 17.63-1.6 24.5c-2.07 6.86-5.62 12.14-10.81 16.69s-13.24 9.18-20.35 10.6-15.62 1.01-22.3-2.08c-6.68-3.1-13.7-10.35-17.78-16.48-4.07-6.12-6.46-12.98-6.66-20.27s1.41-17.47 5.47-23.44c4.06-5.98 15.83-10.08 18.9-12.42 3.08-2.34-.79-1.78-.44-1.63"/><path fill="none" stroke="#000" d="M359.627 16.523c6.74.95 12.95 4.88 17.78 9.88 4.84 5.01 9.77 13.03 11.25 20.13 1.47 7.11.12 15.5-2.4 22.49-2.51 7-6.86 15.03-12.69 19.48s-15.07 7.01-22.27 7.21c-7.21.21-14.87-2.37-20.96-6-6.09-3.64-12.14-9.51-15.57-15.8-3.42-6.28-5.4-14.86-4.99-21.91s3.18-14.8 7.44-20.39c4.26-5.6 10.75-10.61 18.11-13.2 7.35-2.58 21.32-2.43 26.01-2.31 4.68.12 2.37 2.37 2.09 3.02m-31.26-1.54c6.42-3.59 16.94-2.97 24.35-1.97 7.42 1 15.08 3.04 20.13 7.96 5.05 4.93 8.34 14.28 10.17 21.61 1.84 7.32 2.67 15.58.86 22.34-1.8 6.76-6.35 13.38-11.69 18.2-5.33 4.83-13.33 9.6-20.32 10.75-6.98 1.15-14.97-.5-21.59-3.83-6.62-3.34-14.23-9.9-18.13-16.17-3.91-6.27-5.06-14.18-5.3-21.43-.25-7.26.35-15.91 3.83-22.11 3.48-6.19 13.92-12.86 17.07-15.07 3.15-2.22 1.07 1.08 1.81 1.78"/></g><g stroke-linecap="round"><path fill="#fff" stroke-width="0" d="M392.657 17.305c6.71 1.63 15.39 6.27 19.92 11.73 4.53 5.47 6.73 13.94 7.26 21.08.53 7.13-.83 15.28-4.08 21.72-3.26 6.44-9.47 13.02-15.45 16.93-5.98 3.9-13.19 6.53-20.44 6.49-7.26-.04-17-2.44-23.07-6.72-6.08-4.28-10.75-12.17-13.38-18.98-2.63-6.82-3.59-14.83-2.42-21.9 1.18-7.08 4.42-15.31 9.48-20.55 5.05-5.23 13.38-9.11 20.87-10.86 7.48-1.75 19.72-.01 24.02.37 4.3.37 2.12.97 1.78 1.86m-25.32-2.93c6.35-2.37 14.45-1.95 21.3.29 6.84 2.24 15.36 7.13 19.77 13.15 4.41 6.01 6.08 15.8 6.7 22.93.61 7.13.08 13.64-3 19.86-3.07 6.23-9.25 13.52-15.48 17.49-6.24 3.97-14.61 6.82-21.93 6.34-7.33-.47-15.99-4.91-22.03-9.18-6.03-4.27-11.32-9.65-14.17-16.44s-4.49-17.29-2.93-24.28 7.09-12.46 12.29-17.65c5.2-5.2 15.5-11.34 18.89-13.53 3.38-2.19 1.27-.2 1.42.4"/><path fill="none" stroke="#000" d="M366.667 15.805c6.1-2.91 16.17-2.55 23.2-.79 7.03 1.77 13.93 5.86 18.98 11.36 5.05 5.51 9.96 14.38 11.3 21.66 1.34 7.29-.55 15.57-3.26 22.03-2.71 6.45-7.29 12.66-12.98 16.72s-13.89 7.23-21.15 7.63c-7.25.41-15.93-1.72-22.36-5.21s-12.78-9.44-16.2-15.73c-3.42-6.3-5.13-14.62-4.3-22.05.83-7.44 4.16-16.72 9.28-22.58 5.13-5.86 17.37-10.27 21.46-12.58 4.09-2.3 3.06-1.64 3.11-1.23m24.6 3.07c6.74 2.31 13.16 7.1 16.66 13.38 3.5 6.27 4.52 16.66 4.32 24.28-.2 7.63-1.83 15.54-5.51 21.44-3.68 5.91-10.11 10.91-16.57 14.01-6.45 3.09-15.15 5.48-22.14 4.58-6.99-.91-14.28-4.95-19.79-10.02-5.51-5.06-11.25-13.26-13.28-20.38-2.04-7.13-.73-15.4 1.07-22.37 1.79-6.97 4.65-14.59 9.69-19.44s13.16-8.76 20.56-9.67c7.41-.91 19.73 3.48 23.87 4.22 4.14.75 1.38-.35.96.26"/></g><g stroke-linecap="round"><path fill="#fff" stroke-width="0" d="M411.07 14.785c6.65-1.93 14.63-.1 21.06 2.61s13.41 7.74 17.51 13.65 6.59 14.37 7.09 21.8c.49 7.43-.42 16.35-4.13 22.78s-11.56 12.72-18.15 15.79-14.37 3.53-21.41 2.62c-7.05-.91-15.13-3.59-20.86-8.08s-11.37-12.08-13.52-18.88c-2.15-6.79-1.23-14.78.62-21.89s3.89-15.53 10.45-20.77c6.56-5.23 22.67-9.51 28.89-10.66 6.23-1.14 8.46 2.96 8.46 3.8m-3.11-3.33c6.89.54 16.36 4.9 21.6 10.17 5.24 5.26 8.12 14.46 9.84 21.4 1.72 6.95 2.53 13.62.48 20.28-2.05 6.67-7.18 14.82-12.79 19.72s-13.57 9.03-20.87 9.67-16.31-2.49-22.93-5.81-12.91-7.79-16.77-14.09c-3.85-6.3-6.82-16.58-6.37-23.7.45-7.13 4.74-13.13 9.08-19.03 4.33-5.91 10.15-13.25 16.93-16.43 6.77-3.18 20.01-2.35 23.73-2.65 3.72-.29-1.27-.06-1.43.87"/><path fill="none" stroke="#000" d="M423.23 14.315c6.88.53 14.42 4.55 19.91 9.59 5.49 5.05 11.08 13.54 13.04 20.68 1.97 7.13.84 15.46-1.26 22.13-2.11 6.67-6.06 13.33-11.36 17.9-5.3 4.56-13.22 8.45-20.42 9.5-7.2 1.04-16.03-.33-22.76-3.26-6.72-2.92-13.62-8.31-17.59-14.3-3.98-5.98-6.44-14.12-6.25-21.59s3.33-17.17 7.4-23.24c4.07-6.08 9.58-10.51 17.03-13.22 7.46-2.71 22.31-2.98 27.69-3.04s4.58 2.01 4.61 2.7m-31.81-1.42c5.59-3.16 13.35-2.02 20.29-.6 6.95 1.42 15.7 4.58 21.38 9.13 5.69 4.55 10.57 11.17 12.73 18.18 2.15 7.02 2.09 16.88.23 23.92-1.87 7.05-5.93 13.96-11.43 18.35-5.51 4.39-14.45 7.15-21.59 7.99s-14.46.05-21.27-2.98c-6.8-3.03-15.25-9.02-19.58-15.21-4.32-6.18-6.61-14.83-6.36-21.92s3.48-14.65 7.85-20.63c4.38-5.99 15.63-12.93 18.39-15.27 2.76-2.35-2.09.7-1.83 1.2"/></g><g stroke-linecap="round"><path fill="#fff" stroke-width="0" d="M476.61 17.285c6.33 2.01 13.47 7.65 17.61 13.53s6.69 14.33 7.24 21.75c.54 7.43-.31 16.37-3.98 22.82s-11.47 12.79-18.04 15.9c-6.57 3.12-14.33 3.64-21.39 2.78-7.05-.86-15.15-3.48-20.91-7.94-5.77-4.45-11.46-12-13.66-18.78-2.19-6.78-1.33-14.77.47-21.89s5.29-15.67 10.32-20.84c5.02-5.18 12.45-9.32 19.84-10.21 7.39-.9 20.06 3.82 24.5 4.84 4.45 1.01 2.24.73 2.16 1.25m-18.37-7.04c6.84-.32 14.08 4.28 20.18 8.06s13.06 8.27 16.41 14.64c3.34 6.37 4.56 16.02 3.65 23.58s-4.33 16.38-9.12 21.8c-4.79 5.43-12.52 8.69-19.61 10.75s-15.77 3.66-22.93 1.63c-7.17-2.03-15.43-8.49-20.07-13.81s-6.86-10.96-7.79-18.1c-.92-7.15-.78-17.7 2.24-24.76s9.84-13.59 15.88-17.6c6.04-4.02 16.78-5.8 20.35-6.49s1.1 1.3 1.07 2.36"/><path fill="none" stroke="#000" d="M444.79 17.335c6.12-3.08 16.29-2.81 23.44-1.57 7.16 1.25 14.06 4.52 19.51 9.05 5.45 4.52 10.98 11.26 13.2 18.1 2.23 6.85 2.23 15.94.13 22.95-2.11 7.02-7.08 14.31-12.75 19.17-5.68 4.86-14 8.84-21.3 9.97s-16.04.1-22.5-3.19c-6.45-3.28-12.44-10.39-16.22-16.53-3.78-6.15-6.43-13.12-6.47-20.34s2.19-16.62 6.21-23c4.03-6.38 14.42-12.82 17.93-15.26s2.87-.26 3.13.63m11.76-1.58c6.66-.15 16.2 2.42 22.5 6.15 6.29 3.74 12.16 9.62 15.27 16.28 3.11 6.67 4.27 16.44 3.4 23.7s-3.85 14.76-8.64 19.87c-4.78 5.11-13.13 8.96-20.06 10.79s-14.33 2.27-21.5.19c-7.16-2.08-16.35-7.08-21.49-12.66s-8.57-13.8-9.34-20.82 1.26-14.84 4.74-21.31 10.19-13.63 16.14-17.52c5.95-3.9 15.95-4.83 19.55-5.85 3.59-1.02 1.72-1.12 2.02-.27"/></g><g stroke-linecap="round"><path fill="#fff" stroke-width="0" d="M500.956 14.485c6.63-1.82 15.5-.25 22.42 2.7 6.93 2.95 14.99 8.87 19.11 15 4.12 6.14 5.45 14.76 5.6 21.81.16 7.05-1.15 14.43-4.68 20.51-3.53 6.09-9.91 12.72-16.47 16.02-6.55 3.3-15.8 4.46-22.86 3.77-7.05-.69-13.89-3.27-19.48-7.89-5.58-4.63-11.49-12.79-14.03-19.85s-2.86-15.8-1.18-22.53 4.36-13 11.27-17.86c6.91-4.87 23.47-9.86 30.18-11.33 6.7-1.47 10.02 1.97 10.05 2.5m-25.55.06c6.32-2.77 16.75-4.71 24.04-3.09 7.28 1.61 14.69 7.09 19.66 12.78 4.98 5.7 9.01 14.35 10.19 21.38 1.17 7.04-.2 14.18-3.15 20.82-2.94 6.64-8.37 14.95-14.52 19.01s-15.31 5-22.39 5.35c-7.09.35-14.06.45-20.11-3.24s-13.01-11.99-16.16-18.91c-3.16-6.93-3.53-15.4-2.76-22.63.77-7.24 2.88-15.44 7.38-20.79 4.51-5.35 16.55-9.69 19.65-11.32 3.1-1.62-1.14.91-1.05 1.57"/><path fill="none" stroke="#000" d="M496.006 17.505c6.32-2.59 14.55-2.97 21.59-1.5 7.03 1.48 15.44 5.23 20.65 10.36 5.2 5.14 9.25 13.26 10.58 20.46 1.33 7.19.28 15.86-2.6 22.72-2.89 6.86-8.66 14.11-14.69 18.43-6.03 4.33-14.4 7.44-21.51 7.52-7.12.09-15.03-3.33-21.19-7-6.16-3.66-12.41-8.57-15.8-15-3.39-6.42-5.12-16.12-4.53-23.55.59-7.44 2.99-15.3 8.08-21.05 5.08-5.75 18.57-11.47 22.44-13.46 3.86-1.99.74.72.77 1.53m-9.25 2.69c6.13-3.74 15.46-5.64 22.77-4.76s15.3 5.38 21.09 10.05c5.78 4.67 11.39 11.43 13.61 17.95s1.51 14.39-.29 21.19-4.96 14.75-10.5 19.63c-5.55 4.88-15.22 8.48-22.76 9.63-7.53 1.15-16.04-.09-22.46-2.74-6.42-2.66-12.43-7.34-16.07-13.2s-5.39-14.72-5.76-21.94c-.38-7.23-.18-15.1 3.51-21.4s15.51-14.15 18.63-16.41c3.13-2.26.12 2.21.13 2.84"/></g><g stroke-linecap="round"><path fill="#fff" stroke-width="0" d="M333.855 53.118c7.04-.9 17.24 1.88 23.59 5.51 6.35 3.62 11.12 10.09 14.51 16.23 3.39 6.15 6.14 13.57 5.82 20.65-.31 7.07-3.31 15.94-7.7 21.8-4.38 5.86-11.99 10.73-18.61 13.37-6.62 2.65-14.08 4.07-21.1 2.49-7.02-1.59-15.63-6.72-21.01-12-5.39-5.28-9.62-12.92-11.3-19.69s-1.28-14.33 1.23-20.95c2.5-6.61 7.48-14.27 13.79-18.75 6.32-4.49 19.79-6.79 24.1-8.16 4.3-1.36 1.88-.73 1.73-.04m-14.36.72c6.54-3.06 15.69-2.21 22.79-.22 7.11 1.98 14.88 7.06 19.86 12.12 4.97 5.07 8.67 11.23 9.99 18.26 1.32 7.04.7 17.26-2.08 23.96-2.79 6.69-8.94 11.84-14.61 16.23s-12.4 9.65-19.44 10.12c-7.05.47-16.59-3.35-22.84-7.32-6.24-3.96-11.21-10.05-14.64-16.47s-6.47-15.1-5.94-22.03c.53-6.94 4.77-14.2 9.11-19.57 4.33-5.36 13.94-10.52 16.89-12.61 2.96-2.09.59-.25.85.07"/><path fill="none" stroke="#000" d="M323.205 56.108c6.27-3.13 16.37-3.92 23.65-2.43 7.28 1.48 14.98 6.08 20.03 11.32s8.97 12.91 10.28 20.14c1.3 7.22.26 16.33-2.45 23.22-2.71 6.9-8.1 14.12-13.81 18.17-5.71 4.04-13.34 5.69-20.46 6.11-7.13.42-15.88-.07-22.29-3.58-6.41-3.5-12.63-10.84-16.16-17.45-3.53-6.6-5.81-15.03-5.02-22.19.79-7.17 5.18-15.24 9.77-20.8 4.58-5.55 14.39-10.45 17.74-12.53s2.16-.28 2.35.07m26.98.65c6.64 2.31 13.38 9.7 17.57 15.82 4.18 6.12 7.44 14.03 7.53 20.91s-3.22 14.44-7.01 20.39c-3.79 5.96-8.97 12.24-15.72 15.33-6.76 3.09-17.23 4.21-24.82 3.2-7.59-1.02-15.42-4.78-20.72-9.28-5.29-4.51-9.37-10.95-11.06-17.75-1.7-6.8-.87-16.1.9-23.07 1.78-6.97 4.38-13.81 9.74-18.74s14.99-9.84 22.43-10.81c7.43-.98 18.8 4.33 22.2 4.96 3.39.62-1.59-1.82-1.82-1.19"/></g><g stroke-linecap="round"><path fill="#fff" stroke-width="0" d="M322.046 101.015c5.93-1.57 14.09.06 20.15 3.05 6.07 3 13.18 9.04 16.23 14.94 3.06 5.89 3.07 14.2 2.08 20.43-.98 6.24-3.66 12.45-7.97 16.99s-11.45 9.05-17.91 10.26-15.14-.28-20.84-3.01c-5.69-2.73-10.31-7.57-13.33-13.36s-5.39-14.76-4.76-21.38c.62-6.62 2.68-13.86 8.5-18.33 5.83-4.48 20.58-7.42 26.42-8.52 5.85-1.1 8.5 1.46 8.66 1.92m-10.23-3.9c6.11-.2 12.64 4.33 17.88 8.01 5.25 3.69 11.25 8.13 13.59 14.09 2.33 5.95 2.3 15.06.41 21.62s-6.45 14-11.75 17.76c-5.3 3.77-13.41 4.81-20.05 4.83-6.63.03-14.3-.88-19.77-4.69-5.48-3.81-11.17-12.12-13.08-18.15s-.5-11.86 1.61-18.02c2.11-6.17 5.79-14.66 11.06-18.97 5.28-4.3 17.36-5.84 20.58-6.86s-1.25-.08-1.28.74"/><path fill="none" stroke="#000" d="M342.136 103.275c6.03 1.94 12.27 8.21 15.52 13.87 3.26 5.67 4.8 13.55 3.99 20.14-.81 6.58-4.4 14.4-8.83 19.38-4.42 4.99-11.5 9.35-17.71 10.5s-13.69-.98-19.52-3.6c-5.84-2.62-12.13-6.57-15.5-12.14-3.36-5.56-5.2-14.59-4.68-21.26.51-6.67 3.27-13.97 7.78-18.77 4.51-4.79 12.49-9.13 19.3-10.01 6.8-.87 17.41 3.63 21.55 4.76 4.13 1.12 3.55 1.79 3.27 1.99m-5.44-4.09c5.93 2.13 12.05 9.17 15.49 14.85 3.45 5.68 5.85 13.15 5.19 19.24s-4.9 12.65-9.17 17.29-9.93 9.2-16.47 10.57c-6.55 1.36-16.46.31-22.8-2.39-6.34-2.69-12.22-8.33-15.25-13.76-3.03-5.44-4-12.52-2.91-18.86 1.09-6.33 5.3-14.32 9.45-19.16 4.14-4.83 9.13-8.35 15.42-9.85 6.29-1.49 18.69.3 22.33.91 3.63.6 0 2.19-.5 2.73"/></g><g stroke-linecap="round"><path fill="#fff" stroke-width="0" d="M365.56 87.64c6.56-1.82 16.5-1.33 23.27 1.41 6.78 2.74 13.47 9 17.39 15.05 3.93 6.05 5.88 13.96 6.15 21.25s-.79 16.45-4.53 22.49c-3.74 6.05-11.14 10.88-17.9 13.79-6.75 2.91-15.36 4.3-22.62 3.68s-15.42-2.94-20.94-7.4c-5.53-4.46-10.22-12.36-12.18-19.34-1.96-6.99-1.57-15.46.42-22.57 1.98-7.11 6.01-15.24 11.48-20.09s17.52-7.45 21.34-9.02c3.82-1.58 1.29-1.06 1.58-.41m-14.03 5.29c5.71-3.79 14.43-6.72 21.46-6.14 7.04.57 15.24 5.26 20.75 9.61 5.52 4.36 9.79 9.61 12.37 16.52 2.57 6.91 4.55 17.89 3.09 24.93-1.47 7.04-6.78 12.74-11.89 17.32-5.11 4.59-11.66 8.78-18.76 10.17s-17.04.5-23.82-1.85-12.55-6.78-16.85-12.24c-4.29-5.45-8.36-13.28-8.89-20.48-.54-7.19 2.1-16.09 5.69-22.7 3.59-6.6 12.92-14.19 15.85-16.93 2.92-2.74 1.48-.05 1.71.48"/><path fill="none" stroke="#000" d="M380.52 86.55c6.84.76 14.7 5.26 19.81 10.34 5.11 5.07 9.21 12.98 10.87 20.13 1.66 7.14 1.24 16.13-.93 22.75-2.17 6.61-6.57 12.44-12.11 16.93-5.54 4.5-13.84 9.26-21.12 10.05-7.27.78-15.96-1.89-22.53-5.36-6.58-3.48-13.46-9.3-16.93-15.48-3.46-6.17-4.14-14.62-3.88-21.57.25-6.95 1.44-14.36 5.42-20.13s11.52-11.5 18.46-14.49c6.95-3 18.83-3.19 23.23-3.48 4.4-.3 3.07.92 3.19 1.72m-8.2-.93c6.85-.58 14.45 1.99 20.36 5.99 5.9 4 12.63 11.32 15.09 18 2.46 6.69 1.44 15.11-.34 22.1s-5.61 14.48-10.35 19.85c-4.74 5.36-11.54 10.55-18.1 12.35-6.57 1.81-14.32.82-21.29-1.54-6.98-2.36-16.09-6.85-20.59-12.63-4.49-5.78-5.99-15.04-6.38-22.06s1.01-13.67 4.04-20.06c3.02-6.4 7.81-14.69 14.1-18.29 6.3-3.6 20.02-2.55 23.67-3.33 3.66-.78-1.47-1.63-1.74-1.34"/></g><g stroke-linecap="round"><path fill="#fff" stroke-width="0" d="M420.614 87.24c6.91 1.19 14.48 7.14 19.17 12.6s7.74 12.94 8.97 20.15c1.24 7.21 1.32 16.6-1.56 23.1s-9.44 12.14-15.72 15.9c-6.28 3.75-14.62 6.28-21.94 6.63s-15.87-.88-21.96-4.55-11.72-10.86-14.58-17.49c-2.87-6.63-3.64-15.01-2.6-22.31 1.03-7.31 4.29-16.01 8.8-21.5 4.52-5.49 10.55-9.66 18.28-11.44 7.73-1.79 22.41-.12 28.09.75 5.69.86 6.34 3.65 6.02 4.44m-24.65-7.93c6.64-1.11 15.64 2.79 21.78 6.18 6.15 3.4 11.47 7.75 15.09 14.19s6.97 17.23 6.64 24.44-4.39 13.5-8.63 18.83c-4.25 5.34-10.07 10.71-16.85 13.2s-16.73 2.98-23.83 1.73a37.66 37.66 0 0 1-18.81-9.24c-5.16-4.7-10.5-11.97-12.17-19.01s-.4-16.14 2.15-23.23c2.55-7.08 7.21-14.72 13.15-19.3 5.95-4.57 19.06-6.91 22.51-8.16 3.46-1.25-1.69-.23-1.75.67"/><path fill="none" stroke="#000" d="M397.574 88.06c6.18-2.48 15.07-1.87 21.92.13 6.86 2.01 14.22 6.81 19.2 11.9 4.98 5.1 9.38 11.6 10.68 18.69 1.3 7.08.04 17.17-2.88 23.83-2.92 6.65-8.57 12.27-14.66 16.09s-14.89 6.61-21.89 6.83c-7.01.22-13.96-2.01-20.14-5.49s-13.63-9.06-16.94-15.39-3.76-15.13-2.92-22.59 2.24-16.23 7.95-22.18c5.71-5.96 20.95-11.4 26.3-13.56 5.36-2.15 5.84-.12 5.83.62m18.47 3.3c6.35 2.52 13.99 9.74 17.31 16.01s3.44 14.51 2.61 21.62c-.84 7.1-3.61 15.06-7.62 21.03-4.01 5.98-10.16 12.13-16.44 14.84s-14.01 2.88-21.24 1.44c-7.23-1.45-16.94-4.95-22.15-10.09-5.2-5.15-7.74-13.91-9.07-20.77-1.33-6.87-1.07-13.67 1.08-20.44s6.05-15.8 11.81-20.2c5.77-4.39 15.57-5.54 22.78-6.17 7.2-.64 17.06 1.88 20.45 2.37 3.4.49.33.01-.06.56"/></g><g stroke-linecap="round"><path fill="#fff" stroke-width="0" d="M472.542 90.6c6.29 2.63 12.07 8.85 15.88 15.15 3.8 6.29 7.17 15.49 6.95 22.61-.23 7.12-3.93 14.38-8.3 20.09-4.38 5.71-11.19 11.16-17.97 14.18-6.77 3.01-15.61 5.07-22.7 3.94-7.08-1.14-14.72-5.72-19.79-10.75s-8.94-12.31-10.63-19.45c-1.69-7.15-1.64-16.61.5-23.44s6.81-13.03 12.35-17.56c5.53-4.52 13.27-8.96 20.86-9.61 7.59-.66 20.7 4.48 24.68 5.67 3.99 1.2-.34.89-.78 1.51m-6.94-4.09c6.5 1.53 13.02 5.29 17.75 10.98 4.72 5.69 9.61 15.99 10.61 23.18 1 7.18-1.5 13.88-4.61 19.91-3.1 6.03-7.84 12.6-14.04 16.28-6.19 3.69-15.88 5.77-23.15 5.85-7.26.07-14.44-1.73-20.45-5.41s-12.68-10.04-15.62-16.68-3.28-15.7-2.02-23.13c1.26-7.44 4.54-15.91 9.59-21.48 5.05-5.56 13.78-10.01 20.7-11.91 6.91-1.9 17.17.03 20.78.5 3.62.47 1.05 1.67.92 2.31"/><path fill="none" stroke="#000" d="M448.462 87.21c6.59-1.35 15.56.73 22.23 3.53 6.66 2.81 13.8 7.22 17.76 13.29 3.96 6.06 6.13 15.88 6 23.11s-2.74 14.47-6.8 20.29c-4.06 5.81-11.18 11.6-17.56 14.6-6.37 3-13.54 4.2-20.69 3.39-7.15-.8-16.64-3.61-22.21-8.21-5.58-4.6-9.24-12.17-11.24-19.4-2-7.24-2.99-16.93-.77-24 2.22-7.06 7.58-13.77 14.1-18.39 6.52-4.61 20.21-7.91 25.05-9.27 4.83-1.36 3.9.33 3.97 1.11m7.77-.04c6.55 1.23 12.35 6.16 16.78 11.41 4.44 5.26 8.41 12.85 9.84 20.12 1.42 7.27 1.13 16.75-1.27 23.49-2.4 6.73-7.01 12.88-13.15 16.91-6.15 4.04-16.47 7.25-23.72 7.3-7.26.06-13.94-3.38-19.81-6.98-5.86-3.61-11.97-8.17-15.4-14.64-3.43-6.48-6.09-17.07-5.18-24.23s6.03-13.17 10.65-18.75c4.62-5.59 10.4-12.19 17.07-14.76 6.66-2.56 19.26-.63 22.91-.62s-.78-.32-1 .68"/></g><g stroke-linecap="round"><path fill="#fff" stroke-width="0" d="M491.31 87.06c6.7-2.07 17.14-.42 24.03 1.87 6.88 2.29 13.06 6.37 17.28 11.86 4.21 5.49 7.44 13.6 8.01 21.08s-1.27 17.2-4.58 23.78c-3.31 6.59-9.21 12.24-15.29 15.74-6.07 3.5-14.01 5.77-21.16 5.26s-15.68-4.14-21.73-8.34c-6.04-4.2-11.75-10.12-14.52-16.86s-3.71-16.45-2.11-23.56c1.6-7.1 5.82-13.9 11.71-19.08s18.62-10.1 23.62-11.98 6.05.12 6.38.72m-12.25-1.29c6.7-2.06 17.38 1.08 24.39 3.46 7 2.37 13.09 5.54 17.63 10.77 4.55 5.23 8.95 13.46 9.63 20.6.67 7.15-2.23 15.58-5.59 22.27-3.36 6.7-8.25 13.9-14.56 17.91-6.3 4-15.93 6.44-23.28 6.11-7.34-.33-14.93-3.58-20.78-8.09s-11.81-12.02-14.33-18.96c-2.52-6.95-2.09-15.58-.79-22.73 1.3-7.16 3.68-15.22 8.56-20.21 4.89-4.99 17.39-7.98 20.76-9.73s-.57-1.32-.52-.75"/><path fill="none" stroke="#000" d="M499.58 87.02c6.96-.98 16.35.49 22.62 4.2 6.27 3.72 11.91 11.6 14.99 18.11 3.08 6.5 4.44 13.99 3.47 20.93-.96 6.94-4.88 15.08-9.26 20.7-4.37 5.62-10.12 10.52-17 13-6.89 2.48-17.19 3.56-24.32 1.86s-13.57-6.43-18.45-12.06-9.75-14.45-10.81-21.72c-1.07-7.27 1.31-15.4 4.42-21.9 3.1-6.5 7.64-13.15 14.22-17.1 6.57-3.96 20.2-5.83 25.22-6.62 5.03-.78 4.92 1.25 4.94 1.89m-17.79-2.08c6.21-2.03 15.55-1.09 22.54 1.66s14.69 8.89 19.41 14.82c4.72 5.94 8.65 13.59 8.93 20.81s-3.68 16.3-7.25 22.5-8.08 11.14-14.17 14.7-14.89 7.23-22.39 6.65c-7.49-.57-16.88-5.7-22.58-10.09s-9.19-9.44-11.63-16.26c-2.44-6.83-4.42-17.28-3.03-24.71 1.4-7.42 6.3-14.76 11.4-19.85 5.1-5.08 15.88-9.39 19.2-10.67 3.31-1.29.25 2.35.7 2.97"/></g><g stroke-linecap="round"><path fill="#fff" stroke-width="0" d="M546.461 13.64c5.59 2.42 10.77 8.24 13.86 14.05 3.09 5.82 5.63 14.54 4.7 20.82-.93 6.29-5.49 12.5-10.28 16.88-4.79 4.37-11.98 8.06-18.45 9.37s-14.62 1.23-20.36-1.51-11.33-9.08-14.08-14.92c-2.76-5.84-3.49-13.58-2.43-20.1 1.06-6.53 4.42-14.48 8.81-19.05s11.07-7.4 17.52-8.36c6.45-.95 17.31 1.85 21.17 2.64 3.85.8 2.28 1.46 1.97 2.13m-19.57-6.21c5.93-.93 14.21 2.94 19.49 6.29 5.29 3.34 9.65 7.72 12.23 13.8 2.59 6.09 4.66 16.42 3.29 22.7s-6.66 11.25-11.52 14.97c-4.86 3.71-11.19 6.89-17.65 7.32-6.46.42-15.56-1.65-21.1-4.79-5.53-3.13-9.62-8.42-12.1-14.01s-4.21-13.27-2.79-19.53c1.43-6.25 6.36-13.53 11.33-18.01s15.2-7.47 18.52-8.88 1.43-.06 1.39.43"/><path fill="none" stroke="#000" d="M542.201 10.9c6.06 1.49 12.49 8.26 16.15 13.54 3.66 5.27 6 11.87 5.82 18.1-.17 6.22-3.24 14.01-6.86 19.24-3.63 5.23-8.75 9.93-14.91 12.14-6.17 2.21-15.84 3-22.11 1.11s-11.76-6.91-15.52-12.46-7.23-14.24-7.03-20.84c.2-6.61 4.13-13.74 8.25-18.79 4.11-5.04 10.06-9.75 16.45-11.48 6.38-1.73 17.79.59 21.85 1.11 4.07.52 2.69 1.52 2.56 2.01m-23.24-4.68c5.52-1.78 14.14-.76 20.28 2.05 6.13 2.81 12.88 9.09 16.53 14.81s6.25 13.08 5.38 19.51c-.88 6.42-6.22 14.37-10.61 19.04s-9.69 7.51-15.72 8.97c-6.04 1.47-14.33 2.48-20.51-.16-6.17-2.64-13.39-10.08-16.54-15.69-3.16-5.61-3.12-11.53-2.39-17.98.72-6.44 2.61-15.55 6.74-20.7s15.15-8.59 18.05-10.2-.72-.34-.65.55"/></g><g stroke-linecap="round"><path fill="#fff" stroke-width="0" d="M522.774 52.498c6.54-1.52 15.57.53 21.95 4.03 6.39 3.5 12.64 10.6 16.37 16.98 3.74 6.39 6.07 14.2 6.03 21.34-.05 7.13-2.23 15.67-6.27 21.48s-11.13 10.56-17.98 13.36c-6.84 2.8-15.86 4.7-23.1 3.42-7.23-1.29-15.19-6.2-20.29-11.13s-8.47-11.64-10.31-18.46c-1.85-6.81-2.92-15.61-.77-22.44 2.15-6.82 7.43-13.88 13.69-18.53 6.26-4.64 19.7-7.87 23.86-9.34 4.16-1.46 1.11.01 1.12.54m-13.6.77c6.33-3.35 16.75-3.4 23.8-1.88s13.45 5.59 18.51 11c5.05 5.41 10.34 13.98 11.8 21.45 1.47 7.46-.34 16.56-3.02 23.34-2.67 6.78-7.28 13.35-13.06 17.35-5.77 3.99-14.53 6.37-21.59 6.62-7.05.24-14.32-1.59-20.73-5.14s-14.18-10.06-17.73-16.18c-3.54-6.13-4.16-13.36-3.54-20.56.63-7.2 3.04-16.82 7.3-22.67 4.26-5.84 14.98-10.29 18.27-12.42 3.28-2.13.92-1.04 1.42-.37"/><path fill="none" stroke="#000" d="M543.144 56.948c6.44 2.2 13.18 7.31 17.12 13.07 3.93 5.76 6.09 14.2 6.47 21.46.38 7.27-.41 15.71-4.18 22.15-3.78 6.44-11.82 13.17-18.48 16.48-6.65 3.32-14.25 4.55-21.44 3.4-7.19-1.16-16.27-5.58-21.7-10.34-5.43-4.75-8.96-11.46-10.89-18.2-1.92-6.75-2.43-15.37-.66-22.27 1.76-6.89 5.84-14.38 11.25-19.12 5.42-4.73 13.7-8.25 21.24-9.3 7.55-1.05 19.91 2.08 24.02 2.99s1.06 2.04.63 2.48m-29.21-5.28c6.97-2.19 17.16-2.06 23.9.18 6.73 2.23 11.95 7.73 16.5 13.23 4.56 5.5 9.7 12.39 10.83 19.75 1.12 7.35-.62 17.87-4.1 24.39s-10.62 10.98-16.78 14.73c-6.16 3.74-12.95 7.97-20.18 7.74s-17-4.66-23.21-9.13c-6.2-4.46-11.11-10.94-14-17.64-2.9-6.7-4.56-15.78-3.37-22.55 1.2-6.78 5.32-12.74 10.52-18.1s17.1-12.07 20.68-14.08c3.57-2 .86 1.17.78 2.04"/></g><g stroke-linecap="round"><path fill="#fff" stroke-width="0" d="M534.021 101.675c6.21-.25 13.18 2.07 17.98 5.91 4.81 3.84 9.26 10.61 10.87 17.12 1.61 6.52 1.06 15.76-1.21 21.97-2.26 6.22-7.18 11.89-12.39 15.34s-12.47 5.82-18.85 5.37c-6.38-.46-14.25-4.06-19.46-8.1-5.2-4.03-9.98-9.84-11.79-16.09-1.81-6.26-1.56-15.36.94-21.41 2.5-6.06 8.15-11.63 14.05-14.93 5.9-3.31 17.16-4.29 21.35-4.88 4.2-.6 3.64.84 3.83 1.32m-16.61-2.27c6.01-1.78 15.99 1.47 22.14 3.93 6.15 2.47 11.29 5.81 14.76 10.86 3.46 5.05 6.53 13.04 6.02 19.44-.5 6.39-4.83 13.73-9.06 18.93-4.23 5.19-9.99 10.32-16.32 12.23-6.32 1.92-15.53 1.68-21.63-.76s-11.6-8.08-14.96-13.9c-3.35-5.82-5.81-14.32-5.15-21s5-14.1 9.11-19.08c4.12-4.98 12.75-9.37 15.56-10.8 2.82-1.44 1.12 1.65 1.32 2.19"/><path fill="none" stroke="#000" d="M518.011 103.105c5.35-3.1 13.4-3.48 19.94-2.04 6.53 1.44 15 5.56 19.29 10.68 4.28 5.11 5.94 13.41 6.42 20.01s-.26 14.31-3.55 19.6c-3.3 5.28-10.41 9.68-16.2 12.11-5.8 2.44-12.51 3.75-18.57 2.5-6.05-1.25-13.34-5.26-17.74-10.02-4.41-4.76-8.13-12.22-8.69-18.54-.57-6.32 1.07-13.49 5.29-19.37 4.22-5.89 15.93-13.38 20.02-15.95s4.52.14 4.52.52m-5.42-.32c6.29-1.9 15.77-1.66 21.65.69 5.89 2.35 10.16 8.05 13.63 13.38 3.48 5.34 7.28 12.02 7.21 18.65s-3.25 16.09-7.64 21.12c-4.38 5.04-12.43 7.44-18.65 9.1-6.22 1.65-12.65 3.2-18.67.83-6.03-2.37-13.77-9.23-17.5-15.05-3.72-5.81-5.16-13.37-4.87-19.86.29-6.5 2.56-14.44 6.61-19.1 4.05-4.65 14.51-7.07 17.7-8.83 3.2-1.77 1.03-2.11 1.48-1.77"/></g><path fill="none" stroke="#000" stroke-linecap="round" d="M303.942 185.693c-.29 3.56-2.78 8.65-5.62 11.08-2.83 2.42-7.69 3.41-11.4 3.46-3.71.06-8.14-.92-10.86-3.16-2.71-2.24-4.75-6.81-5.42-10.29-.68-3.48-.28-7.53 1.35-10.6 1.64-3.07 5.13-6.41 8.45-7.82 3.33-1.42 8.11-1.82 11.5-.67 3.39 1.16 6.94 4.4 8.85 7.59 1.92 3.18 2.35 9.63 2.67 11.54.31 1.91-.58.02-.79-.09m.84-5.14c.61 3.62-.34 8.97-2.3 11.95s-6.03 4.88-9.44 5.95c-3.42 1.07-7.6 1.72-11.04.48-3.43-1.25-7.89-4.6-9.58-7.97-1.68-3.36-1.31-8.71-.52-12.23s2.35-6.71 5.25-8.91c2.89-2.2 8.31-4.36 12.12-4.3 3.82.05 8.08 2.19 10.77 4.61 2.69 2.41 4.71 8.19 5.37 9.89.65 1.7-1.17.12-1.43.31M264.492 211.627c.52 2.48-.58 5.36-1.96 7.65s-3.94 5.13-6.31 6.11c-2.36.97-5.42.53-7.9-.27-2.48-.79-5.51-2.33-6.98-4.5s-2.22-5.8-1.85-8.52c.36-2.73 2.08-6.07 4.05-7.82 1.96-1.75 5.04-2.66 7.74-2.69 2.71-.03 6.38.9 8.49 2.53 2.11 1.64 3.37 5.98 4.17 7.28s.71.49.64.51m-.08.32c.58 2.42-.48 5.07-1.79 7.38s-3.46 5.44-6.08 6.5c-2.63 1.05-7.12.91-9.66-.17-2.55-1.08-4.26-3.99-5.59-6.32-1.34-2.32-2.94-4.98-2.45-7.63.5-2.65 3.16-6.44 5.42-8.27 2.27-1.84 5.46-2.72 8.17-2.74 2.72-.02 6.24.88 8.11 2.6 1.88 1.72 2.48 6.34 3.17 7.74.68 1.41 1.06.51.95.7"/><g stroke-linecap="round"><path fill="#fff" stroke-width="0" d="M506.438 44.31h48.92v78.21h-48.92"/><path fill="none" stroke="#fff" d="M506.438 44.31h48.92m-48.92 0h48.92m0 0v78.21m0-78.21v78.21m0 0h-48.92m48.92 0h-48.92m0 0V44.31m0 78.21V44.31"/></g><g stroke-linecap="round"><path fill="#fff" stroke-width="0" d="M307.657 25.325h17.13v99.11h-17.13"/><path fill="none" stroke="#fff" d="M307.657 25.325h17.13m-17.13 0h17.13m0 0v99.11m0-99.11v99.11m0 0h-17.13m17.13 0h-17.13m0 0v-99.11m0 99.11v-99.11"/></g><g stroke-linecap="round"><path fill="#fff" stroke-width="0" d="M323.631 24.663h218.3v135.36h-218.3"/><path fill="none" stroke="#fff" d="M323.631 24.663h218.3m-218.3 0h218.3m0 0v135.36m0-135.36v135.36m0 0h-218.3m218.3 0h-218.3m0 0V24.663m0 135.36V24.663"/></g><text x="97.842" y="18.4" fill="#1e1e1e" dominant-baseline="alphabetic" font-family="Helvetica, Segoe UI Emoji" font-size="20" style="white-space:pre" text-anchor="middle" transform="translate(334.94 46.341)">7...but I&apos;ve run out of </text><text x="97.842" y="41.4" fill="#1e1e1e" dominant-baseline="alphabetic" font-family="Helvetica, Segoe UI Emoji" font-size="20" style="white-space:pre" text-anchor="middle" transform="translate(334.94 46.341)">counting fingers once </text><text x="97.842" y="64.4" fill="#1e1e1e" dominant-baseline="alphabetic" font-family="Helvetica, Segoe UI Emoji" font-size="20" style="white-space:pre" text-anchor="middle" transform="translate(334.94 46.341)">already. Therefore,</text><text x="97.842" y="87.4" fill="#1e1e1e" dominant-baseline="alphabetic" font-family="Helvetica, Segoe UI Emoji" font-size="20" style="white-space:pre" text-anchor="middle" transform="translate(334.94 46.341)">10 + 7 = 17 </text></svg>