<svg version="1.1" xmlns="http://www.w3.org/2000/svg" viewBox="0 0 577.6054044639513 544.852673217426" width="577.6054044639513" height="544.852673217426">
  <!-- svg-source:excalidraw -->
  
  <defs>
    <style class="style-fonts">
      @font-face {
        font-family: "Virgil";
        src: url("https://excalidraw.com/Virgil.woff2");
      }
      @font-face {
        font-family: "Cascadia";
        src: url("https://excalidraw.com/Cascadia.woff2");
      }
      @font-face {
        font-family: "Assistant";
        src: url("https://excalidraw.com/Assistant-Regular.woff2");
      }
    </style>
    
  </defs>
  <g stroke-linecap="round" transform="translate(139.73933324518293 231.34101439611186) rotate(0 51.86181255625024 39.81014841786464)"><path d="M48.48 0.58 C57.3 -0.37, 69.85 1.61, 77.99 4.97 C86.14 8.32, 93.02 14.26, 97.35 20.72 C101.68 27.18, 104.85 36.58, 103.97 43.73 C103.08 50.87, 97.98 58.02, 92.06 63.59 C86.14 69.17, 77.19 74.6, 68.44 77.19 C59.69 79.77, 48.59 80.58, 39.58 79.11 C30.57 77.63, 20.75 73.74, 14.39 68.35 C8.03 62.96, 3.24 53.94, 1.42 46.77 C-0.4 39.6, -0.02 31.72, 3.47 25.33 C6.97 18.94, 14.58 12.49, 22.38 8.42 C30.18 4.35, 45.09 2.21, 50.27 0.91 C55.44 -0.39, 53.51 -0.04, 53.45 0.62 M73.97 4.73 C82.28 7.19, 89.58 11.61, 94.64 17.75 C99.7 23.9, 104.14 34.49, 104.33 41.61 C104.52 48.73, 100.83 54.47, 95.79 60.48 C90.74 66.49, 82.66 74.33, 74.07 77.66 C65.49 80.99, 53.74 81.92, 44.26 80.46 C34.78 78.99, 24.39 73.67, 17.18 68.87 C9.97 64.07, 3.26 58.54, 1.01 51.66 C-1.25 44.78, 0.54 34.66, 3.64 27.59 C6.74 20.52, 12.86 13.84, 19.63 9.25 C26.39 4.66, 35.4 1.08, 44.21 0.04 C53.02 -1, 67.72 2.52, 72.48 3.02 C77.24 3.52, 72.73 2.43, 72.75 3.06" stroke="#1e1e1e" stroke-width="4" fill="none"></path></g><g stroke-linecap="round"><g transform="translate(158.02202618141382 273.15265787680255) rotate(0 30.890059159239172 5.654451799589879)"><path d="M-0.13 0.8 C4.96 2.77, 20.58 10.7, 31 10.75 C41.42 10.81, 57.31 2.92, 62.4 1.12 M-1.66 0.17 C3.21 2.4, 19.34 12.17, 29.95 12 C40.55 11.83, 56.67 1.02, 61.95 -0.85" stroke="#1e1e1e" stroke-width="4" fill="none"></path></g></g><mask></mask><g stroke-linecap="round"><g transform="translate(168.98044514534195 261.17846312714755) rotate(0 4.539199335629746 -1.9551314481741429)"><path d="M-0.06 -0.16 C0.95 -0.86, 4.48 -4.01, 5.99 -3.97 C7.51 -3.92, 8.53 -0.61, 9.01 0.12 M-0.52 0.52 C0.46 -0.3, 4.26 -4.47, 5.81 -4.48 C7.35 -4.5, 8.24 -0.27, 8.75 0.44" stroke="#1e1e1e" stroke-width="4" fill="none"></path></g></g><mask></mask><g stroke-linecap="round"><g transform="translate(198.0709356249281 261.3419277050889) rotate(0 4.539199335629746 -1.9551314481741429)"><path d="M0.18 0.21 C1.15 -0.48, 4.29 -4.35, 5.74 -4.32 C7.19 -4.28, 8.3 -0.29, 8.89 0.42 M-0.15 0.01 C0.77 -0.62, 3.98 -3.9, 5.43 -3.94 C6.88 -3.97, 7.9 -0.87, 8.56 -0.19" stroke="#1e1e1e" stroke-width="4" fill="none"></path></g></g><mask></mask><g stroke-linecap="round"><g transform="translate(174.7759606350155 331.1631416622222) rotate(0 -63.14137842875334 17.696338293529607)"><path d="M-0.24 -0.48 C-11.44 2.08, -45.71 10.21, -66.62 16.02 C-87.53 21.83, -115.66 31.31, -125.71 34.38 M-1.82 -1.77 C-12.69 0.36, -43.52 8.02, -64.25 14.18 C-84.98 20.33, -115.71 31.69, -126.18 35.17" stroke="#1e1e1e" stroke-width="4" fill="none"></path></g></g><mask></mask><g stroke-linecap="round"><g transform="translate(197.60318877854297 328.0217699646637) rotate(0 65.23561664045019 16.963355398769636)"><path d="M-0.65 0.53 C10.58 2.53, 45.43 6.15, 67.17 11.55 C88.91 16.96, 119.28 29.33, 129.8 32.96 M1.21 -0.24 C12.35 1.92, 45.27 6.89, 66.52 12.56 C87.77 18.23, 118.03 30.17, 128.69 33.77" stroke="#1e1e1e" stroke-width="4" fill="none"></path></g></g><mask></mask><g stroke-linecap="round"><g transform="translate(189.22621675840492 341.84376325254925) rotate(0 -1.256544844353357 88.58641632024592)"><path d="M0.57 -1.01 C0.15 11.55, -2.85 46.29, -3.18 75.89 C-3.51 105.49, -1.84 159.76, -1.42 176.59 M-0.59 1.07 C-0.56 13.71, -0.54 47.5, -0.82 76.92 C-1.1 106.34, -2.39 160.78, -2.26 177.6" stroke="#1e1e1e" stroke-width="4" fill="none"></path></g></g><mask></mask><g stroke-linecap="round"><g transform="translate(173.51940620398818 533.6762873416083) rotate(0 -25.96859025440972 -0.20942573850516055)"><path d="M-0.67 -0.97 C-9.45 -0.97, -43.66 -1.05, -52.1 -1.01 M1.18 1.14 C-7.82 1.38, -44.31 0.34, -53.13 0.22" stroke="#1e1e1e" stroke-width="4" fill="none"></path></g></g><mask></mask><g stroke-linecap="round"><g transform="translate(195.92780204385417 533.04801491943) rotate(0 27.015714153596036 -0.31413621108822554)"><path d="M-0.16 -0.59 C9.06 -0.58, 45.47 -1, 54.66 -0.93 M-1.7 1.72 C7.48 1.99, 44.64 1.11, 54.05 0.45" stroke="#1e1e1e" stroke-width="4" fill="none"></path></g></g><mask></mask><g stroke-linecap="round"><g transform="translate(328.95311807044345 361.42602942084704) rotate(0 5.411851472170838 -6.303501568678712)"><path d="M0.29 -0.14 C2.18 -2.16, 9.6 -10.3, 11.27 -12.39 M-0.22 -0.68 C1.64 -2.85, 9.14 -11.35, 11.07 -13.24" stroke="#1e1e1e" stroke-width="4" fill="none"></path></g></g><mask></mask><g stroke-linecap="round"><g transform="translate(329.6553130686152 362.37725266704365) rotate(0 8.9946810212723 -4.143865401054427)"><path d="M0.45 0.22 C3.32 -1.15, 14.57 -7, 17.49 -8.33 M0.02 -0.15 C3.02 -1.41, 15.53 -6.25, 18.47 -7.65" stroke="#1e1e1e" stroke-width="4" fill="none"></path></g></g><mask></mask><g stroke-linecap="round"><g transform="translate(329.50305988696346 363.13470269184836) rotate(0 9.581522215615678 1.1524152074953236)"><path d="M-0.5 -0.04 C2.62 0.39, 15.81 2.49, 19.16 2.84 M0.24 -0.54 C3.25 -0.26, 15.52 1.64, 18.73 2.14" stroke="#1e1e1e" stroke-width="4" fill="none"></path></g></g><mask></mask><g stroke-linecap="round"><g transform="translate(329.9154542259239 363.19151980946845) rotate(0 5.9663193927631255 4.618395246291584)"><path d="M0 0.53 C2.15 2.03, 10.32 7.41, 12.39 8.94 M-0.67 0.33 C1.49 1.89, 10.03 8.06, 12.2 9.48" stroke="#1e1e1e" stroke-width="4" fill="none"></path></g></g><mask></mask><g stroke-linecap="round"><g transform="translate(328.5974441055332 363.47605694218146) rotate(0 1.8594501524544285 7.311968730334229)"><path d="M0.46 -0.3 C1.16 2.12, 3.69 12.66, 4.22 15.06 M0.03 0.73 C0.71 3.24, 3.51 12.04, 4.04 14.32" stroke="#1e1e1e" stroke-width="4" fill="none"></path></g></g><mask></mask><g stroke-linecap="round"><g transform="translate(51.43141995701808 368.19078592787264) rotate(335.4519080177106 -5.411851472170838 6.303501568678712)"><path d="M0.5 0.44 C-1.4 2.5, -9.12 9.95, -10.93 12.06 M0.09 0.18 C-1.93 2.32, -9.65 10.46, -11.41 12.48" stroke="#1e1e1e" stroke-width="4" fill="none"></path></g></g><mask></mask><g stroke-linecap="round"><g transform="translate(50.199900837356836 369.29310943034943) rotate(335.4519080177106 -8.9946810212723 4.143865401054427)"><path d="M-0.1 -0.55 C-3.1 0.84, -14.47 7.38, -17.51 8.77 M-0.82 0.36 C-3.89 1.57, -14.97 6.75, -17.7 8.05" stroke="#1e1e1e" stroke-width="4" fill="none"></path></g></g><mask></mask><g stroke-linecap="round"><g transform="translate(46.814058744275826 369.08678940832397) rotate(335.4519080177106 -9.581522215615678 -1.1524152074953236)"><path d="M0.48 0.48 C-2.76 0.11, -16.23 -2.37, -19.5 -2.77 M0.06 0.26 C-2.99 -0.02, -15.19 -1.8, -18.44 -2.31" stroke="#1e1e1e" stroke-width="4" fill="none"></path></g></g><mask></mask><g stroke-linecap="round"><g transform="translate(45.18109106893462 368.3183002449732) rotate(335.4519080177106 -5.9663193927631255 -4.618395246291584)"><path d="M-0.34 -0.47 C-2.4 -2.03, -9.91 -7.37, -11.91 -8.88 M0.49 0.48 C-1.69 -1, -10.37 -8.07, -12.33 -9.67" stroke="#1e1e1e" stroke-width="4" fill="none"></path></g></g><mask></mask><g stroke-linecap="round"><g transform="translate(45.143675093331694 365.96808250407776) rotate(335.4519080177106 -1.8594501524544285 -7.311968730334229)"><path d="M0.02 0.35 C-0.61 -2.06, -3.55 -12.54, -4.14 -14.95 M-0.63 0.06 C-1.06 -2.25, -2.61 -11.92, -3.12 -14.42" stroke="#1e1e1e" stroke-width="4" fill="none"></path></g></g><mask></mask><g stroke-linecap="round" transform="translate(33.20566752497325 346.0117368730316) rotate(0 5.9002718712058595 5.9002718712058595)"><path d="M11.8 5.9 C11.8 6.24, 11.77 6.59, 11.71 6.92 C11.65 7.26, 11.56 7.6, 11.44 7.92 C11.33 8.24, 11.18 8.55, 11.01 8.85 C10.84 9.15, 10.64 9.43, 10.42 9.69 C10.2 9.95, 9.95 10.2, 9.69 10.42 C9.43 10.64, 9.15 10.84, 8.85 11.01 C8.55 11.18, 8.24 11.33, 7.92 11.44 C7.6 11.56, 7.26 11.65, 6.92 11.71 C6.59 11.77, 6.24 11.8, 5.9 11.8 C5.56 11.8, 5.21 11.77, 4.88 11.71 C4.54 11.65, 4.2 11.56, 3.88 11.44 C3.56 11.33, 3.25 11.18, 2.95 11.01 C2.65 10.84, 2.37 10.64, 2.11 10.42 C1.85 10.2, 1.6 9.95, 1.38 9.69 C1.16 9.43, 0.96 9.15, 0.79 8.85 C0.62 8.55, 0.47 8.24, 0.36 7.92 C0.24 7.6, 0.15 7.26, 0.09 6.92 C0.03 6.59, 0 6.24, 0 5.9 C0 5.56, 0.03 5.21, 0.09 4.88 C0.15 4.54, 0.24 4.2, 0.36 3.88 C0.47 3.56, 0.62 3.25, 0.79 2.95 C0.96 2.65, 1.16 2.37, 1.38 2.11 C1.6 1.85, 1.85 1.6, 2.11 1.38 C2.37 1.16, 2.65 0.96, 2.95 0.79 C3.25 0.62, 3.56 0.47, 3.88 0.36 C4.2 0.24, 4.54 0.15, 4.88 0.09 C5.21 0.03, 5.56 0, 5.9 0 C6.24 0, 6.59 0.03, 6.92 0.09 C7.26 0.15, 7.6 0.24, 7.92 0.36 C8.24 0.47, 8.55 0.62, 8.85 0.79 C9.15 0.96, 9.43 1.16, 9.69 1.38 C9.95 1.6, 10.2 1.85, 10.42 2.11 C10.64 2.37, 10.84 2.65, 11.01 2.95 C11.18 3.25, 11.33 3.56, 11.44 3.88 C11.56 4.2, 11.65 4.54, 11.71 4.88 C11.77 5.21, 11.79 5.73, 11.8 5.9 C11.82 6.07, 11.82 5.73, 11.8 5.9" stroke="#e03131" stroke-width="1" fill="none"></path></g><g stroke-linecap="round" transform="translate(25.486172560624254 354.4192127681745) rotate(0 5.9002718712058595 5.9002718712058595)"><path d="M11.8 5.9 C11.8 6.24, 11.77 6.59, 11.71 6.92 C11.65 7.26, 11.56 7.6, 11.44 7.92 C11.33 8.24, 11.18 8.55, 11.01 8.85 C10.84 9.15, 10.64 9.43, 10.42 9.69 C10.2 9.95, 9.95 10.2, 9.69 10.42 C9.43 10.64, 9.15 10.84, 8.85 11.01 C8.55 11.18, 8.24 11.33, 7.92 11.44 C7.6 11.56, 7.26 11.65, 6.92 11.71 C6.59 11.77, 6.24 11.8, 5.9 11.8 C5.56 11.8, 5.21 11.77, 4.88 11.71 C4.54 11.65, 4.2 11.56, 3.88 11.44 C3.56 11.33, 3.25 11.18, 2.95 11.01 C2.65 10.84, 2.37 10.64, 2.11 10.42 C1.85 10.2, 1.6 9.95, 1.38 9.69 C1.16 9.43, 0.96 9.15, 0.79 8.85 C0.62 8.55, 0.47 8.24, 0.36 7.92 C0.24 7.6, 0.15 7.26, 0.09 6.92 C0.03 6.59, 0 6.24, 0 5.9 C0 5.56, 0.03 5.21, 0.09 4.88 C0.15 4.54, 0.24 4.2, 0.36 3.88 C0.47 3.56, 0.62 3.25, 0.79 2.95 C0.96 2.65, 1.16 2.37, 1.38 2.11 C1.6 1.85, 1.85 1.6, 2.11 1.38 C2.37 1.16, 2.65 0.96, 2.95 0.79 C3.25 0.62, 3.56 0.47, 3.88 0.36 C4.2 0.24, 4.54 0.15, 4.88 0.09 C5.21 0.03, 5.56 0, 5.9 0 C6.24 0, 6.59 0.03, 6.92 0.09 C7.26 0.15, 7.6 0.24, 7.92 0.36 C8.24 0.47, 8.55 0.62, 8.85 0.79 C9.15 0.96, 9.43 1.16, 9.69 1.38 C9.95 1.6, 10.2 1.85, 10.42 2.11 C10.64 2.37, 10.84 2.65, 11.01 2.95 C11.18 3.25, 11.33 3.56, 11.44 3.88 C11.56 4.2, 11.65 4.54, 11.71 4.88 C11.77 5.21, 11.79 5.73, 11.8 5.9 C11.82 6.07, 11.82 5.73, 11.8 5.9" stroke="#e03131" stroke-width="1" fill="none"></path></g><g stroke-linecap="round" transform="translate(20.83793976691959 365.3624331524443) rotate(0 5.9002718712058595 5.9002718712058595)"><path d="M11.8 5.9 C11.8 6.24, 11.77 6.59, 11.71 6.92 C11.65 7.26, 11.56 7.6, 11.44 7.92 C11.33 8.24, 11.18 8.55, 11.01 8.85 C10.84 9.15, 10.64 9.43, 10.42 9.69 C10.2 9.95, 9.95 10.2, 9.69 10.42 C9.43 10.64, 9.15 10.84, 8.85 11.01 C8.55 11.18, 8.24 11.33, 7.92 11.44 C7.6 11.56, 7.26 11.65, 6.92 11.71 C6.59 11.77, 6.24 11.8, 5.9 11.8 C5.56 11.8, 5.21 11.77, 4.88 11.71 C4.54 11.65, 4.2 11.56, 3.88 11.44 C3.56 11.33, 3.25 11.18, 2.95 11.01 C2.65 10.84, 2.37 10.64, 2.11 10.42 C1.85 10.2, 1.6 9.95, 1.38 9.69 C1.16 9.43, 0.96 9.15, 0.79 8.85 C0.62 8.55, 0.47 8.24, 0.36 7.92 C0.24 7.6, 0.15 7.26, 0.09 6.92 C0.03 6.59, 0 6.24, 0 5.9 C0 5.56, 0.03 5.21, 0.09 4.88 C0.15 4.54, 0.24 4.2, 0.36 3.88 C0.47 3.56, 0.62 3.25, 0.79 2.95 C0.96 2.65, 1.16 2.37, 1.38 2.11 C1.6 1.85, 1.85 1.6, 2.11 1.38 C2.37 1.16, 2.65 0.96, 2.95 0.79 C3.25 0.62, 3.56 0.47, 3.88 0.36 C4.2 0.24, 4.54 0.15, 4.88 0.09 C5.21 0.03, 5.56 0, 5.9 0 C6.24 0, 6.59 0.03, 6.92 0.09 C7.26 0.15, 7.6 0.24, 7.92 0.36 C8.24 0.47, 8.55 0.62, 8.85 0.79 C9.15 0.96, 9.43 1.16, 9.69 1.38 C9.95 1.6, 10.2 1.85, 10.42 2.11 C10.64 2.37, 10.84 2.65, 11.01 2.95 C11.18 3.25, 11.33 3.56, 11.44 3.88 C11.56 4.2, 11.65 4.54, 11.71 4.88 C11.77 5.21, 11.79 5.73, 11.8 5.9 C11.82 6.07, 11.82 5.73, 11.8 5.9" stroke="#e03131" stroke-width="1" fill="none"></path></g><g stroke-linecap="round" transform="translate(26.88033898928188 375.99086623100084) rotate(0 5.9002718712058595 5.9002718712058595)"><path d="M11.8 5.9 C11.8 6.24, 11.77 6.59, 11.71 6.92 C11.65 7.26, 11.56 7.6, 11.44 7.92 C11.33 8.24, 11.18 8.55, 11.01 8.85 C10.84 9.15, 10.64 9.43, 10.42 9.69 C10.2 9.95, 9.95 10.2, 9.69 10.42 C9.43 10.64, 9.15 10.84, 8.85 11.01 C8.55 11.18, 8.24 11.33, 7.92 11.44 C7.6 11.56, 7.26 11.65, 6.92 11.71 C6.59 11.77, 6.24 11.8, 5.9 11.8 C5.56 11.8, 5.21 11.77, 4.88 11.71 C4.54 11.65, 4.2 11.56, 3.88 11.44 C3.56 11.33, 3.25 11.18, 2.95 11.01 C2.65 10.84, 2.37 10.64, 2.11 10.42 C1.85 10.2, 1.6 9.95, 1.38 9.69 C1.16 9.43, 0.96 9.15, 0.79 8.85 C0.62 8.55, 0.47 8.24, 0.36 7.92 C0.24 7.6, 0.15 7.26, 0.09 6.92 C0.03 6.59, 0 6.24, 0 5.9 C0 5.56, 0.03 5.21, 0.09 4.88 C0.15 4.54, 0.24 4.2, 0.36 3.88 C0.47 3.56, 0.62 3.25, 0.79 2.95 C0.96 2.65, 1.16 2.37, 1.38 2.11 C1.6 1.85, 1.85 1.6, 2.11 1.38 C2.37 1.16, 2.65 0.96, 2.95 0.79 C3.25 0.62, 3.56 0.47, 3.88 0.36 C4.2 0.24, 4.54 0.15, 4.88 0.09 C5.21 0.03, 5.56 0, 5.9 0 C6.24 0, 6.59 0.03, 6.92 0.09 C7.26 0.15, 7.6 0.24, 7.92 0.36 C8.24 0.47, 8.55 0.62, 8.85 0.79 C9.15 0.96, 9.43 1.16, 9.69 1.38 C9.95 1.6, 10.2 1.85, 10.42 2.11 C10.64 2.37, 10.84 2.65, 11.01 2.95 C11.18 3.25, 11.33 3.56, 11.44 3.88 C11.56 4.2, 11.65 4.54, 11.71 4.88 C11.77 5.21, 11.79 5.73, 11.8 5.9 C11.82 6.07, 11.82 5.73, 11.8 5.9" stroke="#e03131" stroke-width="1" fill="none"></path></g><g stroke-linecap="round" transform="translate(38.156551246338495 379.9708397082468) rotate(0 5.9002718712058595 5.9002718712058595)"><path d="M11.8 5.9 C11.8 6.24, 11.77 6.59, 11.71 6.92 C11.65 7.26, 11.56 7.6, 11.44 7.92 C11.33 8.24, 11.18 8.55, 11.01 8.85 C10.84 9.15, 10.64 9.43, 10.42 9.69 C10.2 9.95, 9.95 10.2, 9.69 10.42 C9.43 10.64, 9.15 10.84, 8.85 11.01 C8.55 11.18, 8.24 11.33, 7.92 11.44 C7.6 11.56, 7.26 11.65, 6.92 11.71 C6.59 11.77, 6.24 11.8, 5.9 11.8 C5.56 11.8, 5.21 11.77, 4.88 11.71 C4.54 11.65, 4.2 11.56, 3.88 11.44 C3.56 11.33, 3.25 11.18, 2.95 11.01 C2.65 10.84, 2.37 10.64, 2.11 10.42 C1.85 10.2, 1.6 9.95, 1.38 9.69 C1.16 9.43, 0.96 9.15, 0.79 8.85 C0.62 8.55, 0.47 8.24, 0.36 7.92 C0.24 7.6, 0.15 7.26, 0.09 6.92 C0.03 6.59, 0 6.24, 0 5.9 C0 5.56, 0.03 5.21, 0.09 4.88 C0.15 4.54, 0.24 4.2, 0.36 3.88 C0.47 3.56, 0.62 3.25, 0.79 2.95 C0.96 2.65, 1.16 2.37, 1.38 2.11 C1.6 1.85, 1.85 1.6, 2.11 1.38 C2.37 1.16, 2.65 0.96, 2.95 0.79 C3.25 0.62, 3.56 0.47, 3.88 0.36 C4.2 0.24, 4.54 0.15, 4.88 0.09 C5.21 0.03, 5.56 0, 5.9 0 C6.24 0, 6.59 0.03, 6.92 0.09 C7.26 0.15, 7.6 0.24, 7.92 0.36 C8.24 0.47, 8.55 0.62, 8.85 0.79 C9.15 0.96, 9.43 1.16, 9.69 1.38 C9.95 1.6, 10.2 1.85, 10.42 2.11 C10.64 2.37, 10.84 2.65, 11.01 2.95 C11.18 3.25, 11.33 3.56, 11.44 3.88 C11.56 4.2, 11.65 4.54, 11.71 4.88 C11.77 5.21, 11.79 5.73, 11.8 5.9 C11.82 6.07, 11.82 5.73, 11.8 5.9" stroke="#e03131" stroke-width="1" fill="none"></path></g><g stroke-linecap="round" transform="translate(344.5882821871528 346.0053292219636) rotate(0 5.9002718712058595 5.9002718712058595)"><path d="M11.8 5.9 C11.8 6.24, 11.77 6.59, 11.71 6.92 C11.65 7.26, 11.56 7.6, 11.44 7.92 C11.33 8.24, 11.18 8.55, 11.01 8.85 C10.84 9.15, 10.64 9.43, 10.42 9.69 C10.2 9.95, 9.95 10.2, 9.69 10.42 C9.43 10.64, 9.15 10.84, 8.85 11.01 C8.55 11.18, 8.24 11.33, 7.92 11.44 C7.6 11.56, 7.26 11.65, 6.92 11.71 C6.59 11.77, 6.24 11.8, 5.9 11.8 C5.56 11.8, 5.21 11.77, 4.88 11.71 C4.54 11.65, 4.2 11.56, 3.88 11.44 C3.56 11.33, 3.25 11.18, 2.95 11.01 C2.65 10.84, 2.37 10.64, 2.11 10.42 C1.85 10.2, 1.6 9.95, 1.38 9.69 C1.16 9.43, 0.96 9.15, 0.79 8.85 C0.62 8.55, 0.47 8.24, 0.36 7.92 C0.24 7.6, 0.15 7.26, 0.09 6.92 C0.03 6.59, 0 6.24, 0 5.9 C0 5.56, 0.03 5.21, 0.09 4.88 C0.15 4.54, 0.24 4.2, 0.36 3.88 C0.47 3.56, 0.62 3.25, 0.79 2.95 C0.96 2.65, 1.16 2.37, 1.38 2.11 C1.6 1.85, 1.85 1.6, 2.11 1.38 C2.37 1.16, 2.65 0.96, 2.95 0.79 C3.25 0.62, 3.56 0.47, 3.88 0.36 C4.2 0.24, 4.54 0.15, 4.88 0.09 C5.21 0.03, 5.56 0, 5.9 0 C6.24 0, 6.59 0.03, 6.92 0.09 C7.26 0.15, 7.6 0.24, 7.92 0.36 C8.24 0.47, 8.55 0.62, 8.85 0.79 C9.15 0.96, 9.43 1.16, 9.69 1.38 C9.95 1.6, 10.2 1.85, 10.42 2.11 C10.64 2.37, 10.84 2.65, 11.01 2.95 C11.18 3.25, 11.33 3.56, 11.44 3.88 C11.56 4.2, 11.65 4.54, 11.71 4.88 C11.77 5.21, 11.79 5.73, 11.8 5.9 C11.82 6.07, 11.82 5.73, 11.8 5.9" stroke="#e03131" stroke-width="1" fill="none"></path></g><g stroke-linecap="round" transform="translate(333.95804662458613 339.1196130338867) rotate(0 5.9002718712058595 5.9002718712058595)"><path d="M11.8 5.9 C11.8 6.24, 11.77 6.59, 11.71 6.92 C11.65 7.26, 11.56 7.6, 11.44 7.92 C11.33 8.24, 11.18 8.55, 11.01 8.85 C10.84 9.15, 10.64 9.43, 10.42 9.69 C10.2 9.95, 9.95 10.2, 9.69 10.42 C9.43 10.64, 9.15 10.84, 8.85 11.01 C8.55 11.18, 8.24 11.33, 7.92 11.44 C7.6 11.56, 7.26 11.65, 6.92 11.71 C6.59 11.77, 6.24 11.8, 5.9 11.8 C5.56 11.8, 5.21 11.77, 4.88 11.71 C4.54 11.65, 4.2 11.56, 3.88 11.44 C3.56 11.33, 3.25 11.18, 2.95 11.01 C2.65 10.84, 2.37 10.64, 2.11 10.42 C1.85 10.2, 1.6 9.95, 1.38 9.69 C1.16 9.43, 0.96 9.15, 0.79 8.85 C0.62 8.55, 0.47 8.24, 0.36 7.92 C0.24 7.6, 0.15 7.26, 0.09 6.92 C0.03 6.59, 0 6.24, 0 5.9 C0 5.56, 0.03 5.21, 0.09 4.88 C0.15 4.54, 0.24 4.2, 0.36 3.88 C0.47 3.56, 0.62 3.25, 0.79 2.95 C0.96 2.65, 1.16 2.37, 1.38 2.11 C1.6 1.85, 1.85 1.6, 2.11 1.38 C2.37 1.16, 2.65 0.96, 2.95 0.79 C3.25 0.62, 3.56 0.47, 3.88 0.36 C4.2 0.24, 4.54 0.15, 4.88 0.09 C5.21 0.03, 5.56 0, 5.9 0 C6.24 0, 6.59 0.03, 6.92 0.09 C7.26 0.15, 7.6 0.24, 7.92 0.36 C8.24 0.47, 8.55 0.62, 8.85 0.79 C9.15 0.96, 9.43 1.16, 9.69 1.38 C9.95 1.6, 10.2 1.85, 10.42 2.11 C10.64 2.37, 10.84 2.65, 11.01 2.95 C11.18 3.25, 11.33 3.56, 11.44 3.88 C11.56 4.2, 11.65 4.54, 11.71 4.88 C11.77 5.21, 11.79 5.73, 11.8 5.9 C11.82 6.07, 11.82 5.73, 11.8 5.9" stroke="#e03131" stroke-width="1" fill="none"></path></g><g transform="translate(33.267109492371674 328.4862890127042) rotate(0 4.44921875 9.199999999999818)"><text x="0" y="14.720312499999999" font-family="Helvetica, Segoe UI Emoji" font-size="16px" fill="#e03131" text-anchor="start" style="white-space: pre;" direction="ltr" dominant-baseline="alphabetic">1</text></g><g transform="translate(19.334037463697314 337.3879235538989) rotate(0 4.44921875 9.199999999999818)"><text x="0" y="14.720312499999999" font-family="Helvetica, Segoe UI Emoji" font-size="16px" fill="#e03131" text-anchor="start" style="white-space: pre;" direction="ltr" dominant-baseline="alphabetic">2</text></g><g transform="translate(10 357.314067183961) rotate(0 4.44921875 9.199999999999818)"><text x="0" y="14.720312499999999" font-family="Helvetica, Segoe UI Emoji" font-size="16px" fill="#e03131" text-anchor="start" style="white-space: pre;" direction="ltr" dominant-baseline="alphabetic">3</text></g><g transform="translate(15.987510690756608 379.5597949920193) rotate(0 4.44921875 9.199999999999818)"><text x="0" y="14.720312499999999" font-family="Helvetica, Segoe UI Emoji" font-size="16px" fill="#e03131" text-anchor="start" style="white-space: pre;" direction="ltr" dominant-baseline="alphabetic">4</text></g><g transform="translate(35.26797376781906 391.65165990442983) rotate(0 4.44921875 9.199999999999818)"><text x="0" y="14.720312499999999" font-family="Helvetica, Segoe UI Emoji" font-size="16px" fill="#e03131" text-anchor="start" style="white-space: pre;" direction="ltr" dominant-baseline="alphabetic">5</text></g><g transform="translate(341.3833339920602 324.12444323943055) rotate(0 4.44921875 9.199999999999818)"><text x="0" y="14.720312499999999" font-family="Helvetica, Segoe UI Emoji" font-size="16px" fill="#e03131" text-anchor="start" style="white-space: pre;" direction="ltr" dominant-baseline="alphabetic">6</text></g><g transform="translate(356.9153215496008 338.0822084619758) rotate(0 4.44921875 9.199999999999818)"><text x="0" y="14.720312499999999" font-family="Helvetica, Segoe UI Emoji" font-size="16px" fill="#e03131" text-anchor="start" style="white-space: pre;" direction="ltr" dominant-baseline="alphabetic">7</text></g><g stroke-linecap="round" transform="translate(295.74602946395134 10) rotate(0 33.00458836252483 32.988525390625)"><path d="M33.19 -0.55 C39.34 -0.92, 47.7 3.3, 52.81 7.37 C57.92 11.44, 61.82 17.9, 63.85 23.88 C65.88 29.86, 67.04 37.13, 64.98 43.27 C62.92 49.41, 56.75 56.99, 51.48 60.72 C46.2 64.44, 39.8 65.86, 33.32 65.61 C26.84 65.36, 18.02 63.17, 12.58 59.24 C7.15 55.32, 2.67 48.26, 0.73 42.06 C-1.21 35.85, -1.36 27.94, 0.95 22.03 C3.27 16.12, 9.11 10.09, 14.63 6.58 C20.15 3.08, 30.45 2.03, 34.08 1 C37.71 -0.03, 36.29 -0.03, 36.4 0.38 M22.36 1.5 C27.82 -1.38, 34.86 -1.35, 40.76 0.29 C46.66 1.93, 53.37 6.21, 57.78 11.34 C62.19 16.47, 66.71 24.31, 67.21 31.07 C67.72 37.84, 64.54 46.45, 60.8 51.93 C57.07 57.41, 51.07 61.96, 44.79 63.94 C38.52 65.91, 29.33 65.7, 23.13 63.76 C16.94 61.82, 11.65 57.09, 7.64 52.3 C3.63 47.52, -0.69 41.58, -0.95 35.06 C-1.21 28.53, 2.19 18.69, 6.07 13.14 C9.95 7.6, 19.58 3.39, 22.34 1.79 C25.11 0.2, 22.57 3.14, 22.65 3.57" stroke="none" stroke-width="0" fill="#fff"></path><path d="M18.42 2.51 C23.97 -0.54, 33.84 -0.29, 40.11 0.88 C46.38 2.05, 51.83 4.98, 56.04 9.52 C60.25 14.06, 64.54 21.7, 65.37 28.14 C66.2 34.57, 64.06 42.22, 61.03 48.13 C58.01 54.05, 53.07 60.7, 47.23 63.64 C41.39 66.57, 32.33 67.2, 25.99 65.76 C19.65 64.32, 13.4 59.8, 9.19 54.99 C4.98 50.18, 1.57 43.22, 0.73 36.91 C-0.12 30.59, 0.27 22.95, 4.1 17.1 C7.93 11.25, 19.51 4.39, 23.71 1.8 C27.92 -0.78, 29.1 1.32, 29.36 1.6 M28.34 -1.11 C34.05 -1.86, 42.52 2.46, 48.18 5.68 C53.85 8.91, 59.29 12.57, 62.33 18.26 C65.38 23.95, 67.54 33.52, 66.45 39.83 C65.37 46.13, 61.04 51.57, 55.81 56.1 C50.59 60.64, 41.74 65.95, 35.09 67.03 C28.45 68.1, 21.33 65.95, 15.95 62.54 C10.56 59.14, 5.3 52.4, 2.78 46.57 C0.27 40.75, -0.64 33.83, 0.87 27.62 C2.38 21.4, 7.08 13.96, 11.85 9.29 C16.61 4.61, 26.33 1.05, 29.46 -0.42 C32.59 -1.89, 30.81 -0.05, 30.64 0.47" stroke="#000000" stroke-width="1" fill="none"></path></g><g stroke-linecap="round" transform="translate(309.5971898499811 15.2129863664195) rotate(0 40.130859375 40.111328125)"><path d="M56.43 2.78 C63 4.95, 68.58 12.23, 72.67 18.19 C76.77 24.15, 80.82 31.47, 81.03 38.54 C81.23 45.61, 77.86 54.47, 73.88 60.61 C69.9 66.76, 63.66 72.23, 57.15 75.4 C50.63 78.57, 41.76 80.25, 34.81 79.65 C27.85 79.04, 21.05 76.11, 15.42 71.75 C9.79 67.4, 3.4 60.54, 1.03 53.5 C-1.35 46.46, -0.79 36.64, 1.19 29.5 C3.16 22.37, 7.64 15.55, 12.87 10.7 C18.09 5.84, 24.71 1.29, 32.53 0.38 C40.35 -0.53, 54.97 4.2, 59.79 5.22 C64.62 6.23, 62.01 6.09, 61.47 6.46 M23.9 4.16 C29.79 0.91, 39.38 -0.4, 46.33 0.39 C53.28 1.17, 60.12 4.3, 65.61 8.87 C71.09 13.44, 77.24 20.57, 79.25 27.81 C81.26 35.05, 79.72 45.44, 77.65 52.31 C75.58 59.17, 72.03 64.45, 66.84 69 C61.65 73.55, 53.6 78.18, 46.49 79.6 C39.38 81.02, 30.87 80.61, 24.19 77.52 C17.51 74.42, 10.49 67.17, 6.41 61.04 C2.34 54.92, -0.05 48.06, -0.25 40.77 C-0.45 33.48, 1.16 23.3, 5.22 17.33 C9.28 11.35, 21.05 7.25, 24.12 4.91 C27.2 2.57, 23.33 3.13, 23.68 3.28" stroke="none" stroke-width="0" fill="#fff"></path><path d="M50.03 1.31 C56.77 2.26, 62.98 6.19, 67.81 11.19 C72.65 16.2, 77.58 24.22, 79.06 31.32 C80.53 38.43, 79.18 46.82, 76.66 53.81 C74.15 60.81, 69.8 68.84, 63.97 73.29 C58.14 77.74, 48.9 80.3, 41.7 80.5 C34.49 80.71, 26.83 78.13, 20.74 74.5 C14.65 70.86, 8.6 64.99, 5.17 58.7 C1.75 52.42, -0.23 43.84, 0.18 36.79 C0.59 29.74, 3.36 21.99, 7.62 16.4 C11.88 10.8, 18.37 5.79, 25.73 3.2 C33.08 0.62, 47.05 0.77, 51.74 0.89 C56.42 1.01, 54.11 3.26, 53.83 3.91 M22.57 2.37 C28.99 -1.22, 39.51 -0.6, 46.92 0.4 C54.34 1.4, 62 3.44, 67.05 8.36 C72.1 13.29, 75.39 22.64, 77.22 29.97 C79.06 37.29, 79.89 45.55, 78.08 52.31 C76.28 59.07, 71.73 65.69, 66.39 70.51 C61.06 75.34, 53.06 80.11, 46.07 81.26 C39.09 82.41, 31.1 80.76, 24.48 77.43 C17.86 74.09, 10.25 67.53, 6.35 61.26 C2.44 54.99, 1.29 47.08, 1.05 39.83 C0.8 32.57, 1.4 23.92, 4.88 17.72 C8.36 11.53, 18.8 4.86, 21.95 2.65 C25.1 0.43, 23.02 3.73, 23.76 4.43" stroke="#000000" stroke-width="1" fill="none"></path></g><g stroke-linecap="round" transform="translate(340.4570531312311 14.504739200368931) rotate(0 40.130859375 40.111328125)"><path d="M52.2 2.8 C58.91 4.43, 67.59 9.07, 72.12 14.53 C76.65 20, 78.85 28.47, 79.38 35.61 C79.91 42.74, 78.55 50.89, 75.3 57.33 C72.04 63.77, 65.83 70.35, 59.85 74.26 C53.87 78.16, 46.66 80.79, 39.41 80.75 C32.15 80.71, 22.41 78.31, 16.34 74.03 C10.26 69.75, 5.59 61.86, 2.96 55.05 C0.33 48.23, -0.63 40.22, 0.54 33.15 C1.72 26.07, 4.96 17.84, 10.02 12.6 C15.07 7.37, 23.4 3.49, 30.89 1.74 C38.37 -0.01, 50.61 1.73, 54.91 2.11 C59.21 2.48, 57.03 3.08, 56.69 3.97 M31.37 1.04 C37.72 -1.33, 45.82 -0.91, 52.67 1.33 C59.51 3.57, 68.03 8.46, 72.44 14.48 C76.85 20.49, 78.52 30.28, 79.14 37.41 C79.75 44.54, 79.22 51.05, 76.14 57.27 C73.07 63.5, 66.89 70.79, 60.66 74.76 C54.42 78.73, 46.05 81.58, 38.73 81.1 C31.4 80.63, 22.74 76.19, 16.7 71.92 C10.67 67.65, 5.38 62.27, 2.53 55.48 C-0.32 48.69, -1.96 38.19, -0.4 31.2 C1.16 24.21, 6.69 18.74, 11.89 13.55 C17.09 8.35, 27.39 2.21, 30.78 0.02 C34.16 -2.17, 32.05 -0.18, 32.2 0.42" stroke="none" stroke-width="0" fill="#fff"></path><path d="M26.21 1.3 C32.31 -1.61, 42.38 -1.25, 49.41 0.51 C56.44 2.28, 63.34 6.37, 68.39 11.87 C73.44 17.38, 78.35 26.25, 79.69 33.53 C81.03 40.82, 79.14 49.1, 76.43 55.56 C73.72 62.01, 69.14 68.22, 63.45 72.28 C57.76 76.34, 49.56 79.51, 42.3 79.91 C35.05 80.32, 26.37 78.19, 19.94 74.7 C13.51 71.21, 7.16 65.26, 3.74 58.97 C0.32 52.67, -1.39 44.35, -0.56 36.92 C0.27 29.48, 3.6 20.2, 8.72 14.34 C13.85 8.48, 26.09 4.07, 30.18 1.76 C34.27 -0.54, 33.24 0.12, 33.29 0.53 M57.89 3.6 C64.63 5.91, 71.05 10.7, 74.55 16.98 C78.05 23.25, 79.07 33.64, 78.87 41.26 C78.67 48.89, 77.04 56.8, 73.36 62.7 C69.68 68.61, 63.25 73.61, 56.79 76.71 C50.34 79.8, 41.64 82.19, 34.65 81.29 C27.66 80.38, 20.37 76.34, 14.86 71.27 C9.35 66.21, 3.61 58.01, 1.58 50.89 C-0.46 43.76, 0.85 35.49, 2.65 28.52 C4.44 21.55, 7.3 13.93, 12.34 9.08 C17.38 4.23, 25.5 0.32, 32.9 -0.59 C40.31 -1.5, 52.63 2.89, 56.77 3.63 C60.91 4.38, 58.15 3.28, 57.73 3.89" stroke="#000000" stroke-width="1" fill="none"></path></g><g stroke-linecap="round" transform="translate(377.3008031312311 14.504739200368931) rotate(0 40.130859375 40.111328125)"><path d="M33.77 0.28 C40.42 -1.65, 48.4 0.18, 54.83 2.89 C61.26 5.6, 68.24 10.63, 72.34 16.54 C76.44 22.45, 78.93 30.91, 79.43 38.34 C79.92 45.77, 79.01 54.69, 75.3 61.12 C71.59 67.55, 63.74 73.84, 57.15 76.91 C50.56 79.98, 42.78 80.44, 35.74 79.53 C28.69 78.62, 20.61 75.94, 14.88 71.45 C9.15 66.96, 3.51 59.37, 1.36 52.57 C-0.79 45.78, 0.13 37.79, 1.98 30.68 C3.83 23.57, 5.87 15.15, 12.43 9.91 C18.99 4.68, 35.1 0.4, 41.32 -0.75 C47.55 -1.89, 49.78 2.21, 49.78 3.05 M46.67 -0.28 C53.56 0.26, 63.03 4.62, 68.27 9.89 C73.51 15.15, 76.39 24.35, 78.11 31.29 C79.83 38.24, 80.64 44.91, 78.59 51.57 C76.54 58.24, 71.41 66.39, 65.8 71.29 C60.19 76.19, 52.23 80.32, 44.93 80.96 C37.63 81.6, 28.62 78.47, 22 75.15 C15.38 71.83, 9.09 67.36, 5.23 61.06 C1.38 54.76, -1.59 44.48, -1.14 37.36 C-0.69 30.23, 3.6 24.23, 7.94 18.33 C12.27 12.42, 18.09 5.08, 24.87 1.9 C31.64 -1.28, 44.88 -0.45, 48.6 -0.75 C52.32 -1.04, 47.33 -0.81, 47.17 0.12" stroke="none" stroke-width="0" fill="#fff"></path><path d="M45.93 -0.19 C52.81 0.34, 60.35 4.36, 65.84 9.4 C71.33 14.45, 76.92 22.94, 78.88 30.08 C80.85 37.21, 79.72 45.54, 77.62 52.21 C75.51 58.88, 71.56 65.54, 66.26 70.11 C60.96 74.67, 53.04 78.56, 45.84 79.61 C38.64 80.65, 29.81 79.28, 23.08 76.35 C16.36 73.43, 9.46 68.04, 5.49 62.05 C1.51 56.07, -0.95 47.93, -0.76 40.46 C-0.57 32.99, 2.57 23.29, 6.64 17.22 C10.71 11.14, 16.22 6.71, 23.67 4 C31.13 1.29, 45.98 1.02, 51.36 0.96 C56.74 0.9, 55.94 2.97, 55.97 3.66 M24.16 2.24 C29.75 -0.92, 37.51 0.22, 44.45 1.64 C51.4 3.06, 60.15 6.22, 65.83 10.77 C71.52 15.32, 76.4 21.94, 78.56 28.95 C80.71 35.97, 80.65 45.83, 78.79 52.87 C76.92 59.92, 72.86 66.83, 67.36 71.22 C61.85 75.61, 52.91 78.37, 45.77 79.21 C38.63 80.05, 31.31 79.26, 24.5 76.23 C17.7 73.2, 9.25 67.21, 4.92 61.02 C0.6 54.84, -1.69 46.19, -1.44 39.1 C-1.19 32.01, 2.04 24.45, 6.41 18.47 C10.79 12.48, 22.04 5.54, 24.8 3.2 C27.56 0.85, 22.71 3.9, 22.97 4.4" stroke="#000000" stroke-width="1" fill="none"></path></g><g stroke-linecap="round" transform="translate(422.0390843812311 14.504739200368931) rotate(0 40.130859375 40.111328125)"><path d="M54.57 2.78 C60.9 4.79, 68.04 10.43, 72.18 16.31 C76.32 22.19, 78.87 30.64, 79.42 38.06 C79.96 45.49, 79.11 54.43, 75.44 60.88 C71.77 67.33, 63.97 73.67, 57.4 76.78 C50.83 79.9, 43.07 80.42, 36.01 79.56 C28.96 78.7, 20.86 76.08, 15.1 71.62 C9.33 67.17, 3.64 59.62, 1.44 52.84 C-0.75 46.06, 0.11 38.07, 1.91 30.95 C3.71 23.83, 7.2 15.28, 12.23 10.11 C17.25 4.93, 24.68 0.79, 32.07 -0.1 C39.46 -1, 52.13 3.72, 56.57 4.74 C61.02 5.75, 58.81 5.47, 58.73 5.99 M40.36 -1.05 C47.2 -1.37, 54.44 3.23, 60.54 7.01 C66.64 10.79, 73.6 15.28, 76.95 21.65 C80.29 28.02, 81.51 37.67, 80.6 45.23 C79.69 52.79, 76.27 61.61, 71.48 67.03 C66.69 72.46, 58.96 75.72, 51.87 77.78 C44.78 79.84, 36.1 81.44, 28.94 79.41 C21.77 77.38, 13.51 70.92, 8.87 65.6 C4.23 60.28, 2.01 54.64, 1.08 47.5 C0.16 40.35, 0.3 29.8, 3.32 22.74 C6.34 15.68, 13.16 9.15, 19.2 5.14 C25.24 1.12, 35.98 -0.66, 39.55 -1.35 C43.12 -2.04, 40.65 -0.05, 40.62 1.01" stroke="none" stroke-width="0" fill="#fff"></path><path d="M22.75 2.83 C28.87 -0.25, 39.04 0.02, 46.19 1.26 C53.35 2.51, 60.25 5.78, 65.7 10.31 C71.15 14.83, 76.68 21.57, 78.9 28.41 C81.13 35.26, 81.13 44.35, 79.03 51.36 C76.92 58.38, 71.95 65.67, 66.28 70.53 C60.6 75.39, 52.28 79.37, 44.98 80.5 C37.68 81.63, 28.94 80.6, 22.48 77.31 C16.03 74.03, 10.04 66.92, 6.26 60.78 C2.48 54.63, -0.17 47.66, -0.21 40.44 C-0.25 33.22, 1.98 23.82, 6 17.44 C10.03 11.06, 20.42 4.62, 23.93 2.18 C27.44 -0.26, 26.8 1.92, 27.06 2.81 M38.82 1.23 C45.48 1.08, 55.02 3.65, 61.32 7.38 C67.61 11.12, 73.48 17, 76.59 23.66 C79.7 30.33, 80.86 40.1, 79.99 47.36 C79.12 54.62, 76.14 62.12, 71.35 67.23 C66.57 72.34, 58.22 76.19, 51.29 78.02 C44.36 79.85, 36.96 80.29, 29.79 78.21 C22.63 76.13, 13.44 71.13, 8.3 65.55 C3.16 59.97, -0.27 51.75, -1.04 44.73 C-1.81 37.71, 0.22 29.89, 3.7 23.42 C7.18 16.95, 13.89 9.79, 19.84 5.9 C25.79 2, 35.79 1.07, 39.39 0.05 C42.98 -0.97, 41.11 -1.07, 41.41 -0.22" stroke="#000000" stroke-width="1" fill="none"></path></g><g stroke-linecap="round" transform="translate(468.8164281312311 14.504739200368931) rotate(0 40.130859375 40.111328125)"><path d="M32.14 -0.02 C38.77 -1.84, 47.64 -0.27, 54.56 2.68 C61.49 5.63, 69.55 11.55, 73.67 17.68 C77.79 23.82, 79.12 32.44, 79.27 39.49 C79.43 46.54, 78.12 53.92, 74.59 60 C71.06 66.09, 64.68 72.72, 58.12 76.02 C51.57 79.32, 42.32 80.48, 35.26 79.79 C28.21 79.1, 21.37 76.52, 15.78 71.9 C10.2 67.27, 4.29 59.11, 1.75 52.05 C-0.79 44.99, -1.11 36.25, 0.57 29.52 C2.25 22.79, 4.93 16.52, 11.84 11.66 C18.75 6.79, 35.31 1.8, 42.02 0.33 C48.72 -1.14, 52.04 2.3, 52.07 2.83 M26.52 2.89 C32.84 0.12, 43.27 -1.82, 50.56 -0.2 C57.84 1.41, 65.25 6.89, 70.22 12.58 C75.2 18.28, 79.23 26.93, 80.41 33.96 C81.58 41, 80.21 48.14, 77.26 54.78 C74.32 61.42, 68.89 69.73, 62.74 73.79 C56.59 77.85, 47.43 78.79, 40.35 79.14 C33.26 79.49, 26.29 79.59, 20.24 75.9 C14.19 72.21, 7.23 63.91, 4.08 56.99 C0.92 50.06, 0.55 41.59, 1.32 34.36 C2.09 27.12, 4.2 18.92, 8.7 13.57 C13.21 8.22, 25.25 3.88, 28.35 2.25 C31.45 0.63, 27.21 3.16, 27.3 3.82" stroke="none" stroke-width="0" fill="#fff"></path><path d="M27.19 3 C33.51 0.41, 41.74 0.03, 48.78 1.5 C55.81 2.98, 64.22 6.73, 69.43 11.86 C74.63 17, 78.68 25.12, 80.01 32.32 C81.34 39.51, 80.29 48.18, 77.41 55.04 C74.52 61.9, 68.75 69.15, 62.72 73.47 C56.69 77.8, 48.32 80.91, 41.21 80.99 C34.09 81.08, 26.18 77.66, 20.02 73.99 C13.86 70.33, 7.61 65.42, 4.22 58.99 C0.83 52.57, -0.9 42.87, -0.31 35.44 C0.28 28, 2.68 20.14, 7.77 14.39 C12.85 8.64, 26.34 2.92, 30.21 0.93 C34.07 -1.06, 30.95 1.65, 30.98 2.46 M21.73 5.15 C27.86 1.41, 37.19 -0.49, 44.5 0.39 C51.81 1.27, 59.8 5.77, 65.59 10.44 C71.37 15.11, 76.98 21.87, 79.2 28.39 C81.42 34.91, 80.71 42.78, 78.91 49.58 C77.11 56.38, 73.95 64.33, 68.41 69.21 C62.86 74.09, 53.19 77.69, 45.65 78.84 C38.12 79.99, 29.61 78.75, 23.19 76.1 C16.77 73.44, 10.76 68.76, 7.12 62.9 C3.48 57.04, 1.73 48.18, 1.36 40.96 C0.98 33.73, 1.18 25.86, 4.87 19.56 C8.56 13.26, 20.38 5.41, 23.5 3.15 C26.63 0.89, 23.62 5.36, 23.63 5.99" stroke="#000000" stroke-width="1" fill="none"></path></g><g stroke-linecap="round" transform="translate(297.71477946395134 53.318158318015776) rotate(0 40.130859375 40.111328125)"><path d="M36.14 -0.2 C43.18 -1.1, 53.38 1.68, 59.73 5.31 C66.08 8.93, 70.85 15.4, 74.24 21.54 C77.63 27.69, 80.38 35.11, 80.06 42.19 C79.75 49.26, 76.75 58.13, 72.36 63.99 C67.98 69.85, 60.37 74.72, 53.75 77.36 C47.13 80.01, 39.67 81.43, 32.65 79.85 C25.63 78.26, 17.02 73.13, 11.64 67.85 C6.25 62.57, 2.02 54.93, 0.34 48.16 C-1.34 41.39, -0.94 33.83, 1.57 27.21 C4.07 20.6, 9.05 12.94, 15.36 8.46 C21.68 3.97, 35.15 1.67, 39.46 0.3 C43.76 -1.06, 41.34 -0.43, 41.19 0.26 M26.83 0.98 C33.37 -2.08, 42.52 -1.23, 49.62 0.76 C56.73 2.74, 64.5 7.82, 69.48 12.88 C74.45 17.95, 78.15 24.11, 79.47 31.14 C80.79 38.18, 80.17 48.4, 77.39 55.1 C74.6 61.79, 68.45 66.94, 62.78 71.33 C57.11 75.72, 50.38 80.98, 43.34 81.45 C36.29 81.92, 26.75 78.1, 20.5 74.13 C14.26 70.17, 9.29 64.08, 5.86 57.66 C2.43 51.24, -0.61 42.56, -0.08 35.63 C0.45 28.69, 4.69 21.43, 9.03 16.06 C13.36 10.7, 22.97 5.54, 25.92 3.45 C28.88 1.36, 26.51 3.2, 26.77 3.52" stroke="none" stroke-width="0" fill="#fff"></path><path d="M25.49 2.79 C31.76 -0.34, 41.86 -1.13, 49.14 0.36 C56.42 1.84, 64.12 6.44, 69.17 11.68 C74.22 16.92, 78.14 24.59, 79.45 31.82 C80.75 39.04, 79.71 48.15, 77 55.04 C74.29 61.94, 68.9 69.16, 63.19 73.21 C57.48 77.25, 49.85 78.9, 42.73 79.32 C35.6 79.74, 26.85 79.25, 20.44 75.74 C14.03 72.24, 7.81 64.9, 4.28 58.29 C0.75 51.69, -1.53 43.26, -0.74 36.1 C0.05 28.93, 4.44 20.86, 9.03 15.3 C13.61 9.75, 23.42 4.85, 26.77 2.77 C30.12 0.69, 28.93 2.49, 29.12 2.84 M56.1 3.49 C62.74 5.8, 69.48 13.19, 73.67 19.31 C77.85 25.43, 81.11 33.34, 81.2 40.22 C81.29 47.1, 77.98 54.66, 74.19 60.61 C70.4 66.57, 65.22 72.85, 58.47 75.94 C51.71 79.03, 41.24 80.15, 33.65 79.14 C26.06 78.12, 18.23 74.36, 12.93 69.86 C7.64 65.35, 3.56 58.91, 1.87 52.11 C0.17 45.31, 1 36.01, 2.77 29.04 C4.55 22.07, 7.15 15.23, 12.51 10.3 C17.87 5.37, 27.5 0.46, 34.94 -0.51 C42.37 -1.49, 53.74 3.82, 57.14 4.45 C60.53 5.07, 55.55 2.63, 55.32 3.26" stroke="#000000" stroke-width="1" fill="none"></path></g><g stroke-linecap="round" transform="translate(295.74602946395134 101.15478515625) rotate(0 33.00458836252483 32.988525390625)"><path d="M26.3 -0.14 C32.23 -1.71, 40.39 -0.08, 46.45 2.91 C52.52 5.91, 59.63 11.95, 62.68 17.85 C65.74 23.74, 65.75 32.05, 64.76 38.28 C63.78 44.52, 61.1 50.73, 56.79 55.27 C52.48 59.81, 45.34 64.32, 38.88 65.53 C32.42 66.74, 23.74 65.25, 18.04 62.52 C12.35 59.79, 7.73 54.95, 4.71 49.16 C1.69 43.37, -0.68 34.4, -0.05 27.78 C0.57 21.16, 2.63 13.92, 8.45 9.45 C14.28 4.97, 29.03 2.03, 34.87 0.93 C40.72 -0.17, 43.37 2.39, 43.53 2.85 M33.3 -1.05 C39.41 -1.25, 45.94 3.28, 51.18 6.96 C56.43 10.65, 62.43 15.09, 64.77 21.05 C67.1 27, 67.07 36.11, 65.18 42.67 C63.29 49.23, 58.73 56.67, 53.43 60.43 C48.13 64.2, 40.02 65.24, 33.38 65.26 C26.75 65.29, 19.08 64.38, 13.61 60.57 C8.13 56.76, 2.44 48.45, 0.53 42.42 C-1.38 36.39, 0.03 30.56, 2.14 24.4 C4.25 18.23, 7.93 9.74, 13.2 5.43 C18.48 1.13, 30.56 -0.41, 33.78 -1.43 C37 -2.45, 32.53 -1.51, 32.5 -0.69" stroke="none" stroke-width="0" fill="#fff"></path><path d="M46.39 2.12 C52.42 4.06, 58.66 10.33, 61.91 15.99 C65.17 21.66, 66.71 29.54, 65.9 36.13 C65.09 42.71, 61.5 50.53, 57.07 55.51 C52.65 60.5, 45.57 64.86, 39.36 66.01 C33.15 67.16, 25.67 65.03, 19.84 62.41 C14 59.79, 7.71 55.84, 4.34 50.27 C0.98 44.71, -0.86 35.68, -0.34 29.01 C0.17 22.34, 2.93 15.04, 7.44 10.24 C11.95 5.45, 19.93 1.11, 26.74 0.23 C33.54 -0.64, 44.15 3.86, 48.29 4.99 C52.42 6.11, 51.84 6.78, 51.56 6.98 M46.12 2.89 C52.05 5.02, 58.17 12.06, 61.61 17.74 C65.06 23.42, 67.46 30.89, 66.8 36.98 C66.14 43.07, 61.9 49.63, 57.63 54.27 C53.36 58.91, 47.7 63.47, 41.16 64.84 C34.61 66.2, 24.7 65.15, 18.36 62.45 C12.02 59.76, 6.14 54.12, 3.11 48.69 C0.08 43.25, -0.89 36.17, 0.2 29.83 C1.29 23.5, 5.5 15.51, 9.65 10.67 C13.79 5.84, 18.78 2.32, 25.07 0.82 C31.36 -0.67, 43.76 1.12, 47.4 1.73 C51.03 2.33, 47.4 3.92, 46.9 4.46" stroke="#000000" stroke-width="1" fill="none"></path></g><g stroke-linecap="round" transform="translate(332.8203343812311 86.18930951286893) rotate(0 40.130859375 40.111328125)"><path d="M32.74 1.45 C39.3 -0.37, 49.24 0.12, 56.01 2.86 C62.79 5.6, 69.48 11.86, 73.4 17.91 C77.33 23.96, 79.28 31.87, 79.55 39.16 C79.82 46.45, 78.76 55.61, 75.02 61.65 C71.28 67.7, 63.88 72.53, 57.12 75.44 C50.37 78.35, 41.76 79.74, 34.5 79.12 C27.24 78.5, 19.08 76.18, 13.56 71.72 C8.03 67.26, 3.34 59.36, 1.38 52.38 C-0.58 45.39, -0.19 36.92, 1.8 29.81 C3.78 22.7, 7.81 14.57, 13.28 9.72 C18.75 4.87, 30.8 2.27, 34.62 0.7 C38.44 -0.88, 35.91 -0.36, 36.2 0.29 M22.17 5.58 C27.88 1.79, 36.6 -1.14, 43.63 -0.56 C50.67 0.01, 58.87 4.7, 64.38 9.05 C69.9 13.41, 74.17 18.66, 76.75 25.57 C79.32 32.48, 81.3 43.46, 79.84 50.5 C78.37 57.54, 73.06 63.24, 67.95 67.82 C62.84 72.41, 56.29 76.6, 49.19 77.99 C42.09 79.38, 32.15 78.49, 25.37 76.14 C18.59 73.79, 12.82 69.36, 8.52 63.9 C4.23 58.45, 0.16 50.62, -0.37 43.42 C-0.91 36.23, 1.73 27.33, 5.32 20.72 C8.91 14.12, 18.24 6.53, 21.17 3.79 C24.09 1.05, 22.65 3.74, 22.88 4.27" stroke="none" stroke-width="0" fill="#fff"></path><path d="M47.7 0.36 C54.54 1.12, 62.4 5.62, 67.51 10.7 C72.62 15.77, 76.72 23.68, 78.38 30.83 C80.04 37.97, 79.62 46.96, 77.45 53.58 C75.28 60.19, 70.88 66.02, 65.34 70.51 C59.8 75.01, 51.5 79.77, 44.22 80.56 C36.95 81.34, 28.26 78.67, 21.69 75.2 C15.11 71.72, 8.23 65.9, 4.76 59.72 C1.3 53.55, 0.62 45.1, 0.88 38.15 C1.13 31.2, 2.32 23.79, 6.3 18.02 C10.28 12.25, 17.82 6.52, 24.76 3.53 C31.71 0.53, 43.59 0.34, 47.99 0.05 C52.39 -0.25, 51.06 0.97, 51.18 1.77 M42.98 0.84 C49.83 0.26, 57.43 2.83, 63.34 6.83 C69.24 10.83, 75.97 18.15, 78.43 24.83 C80.89 31.52, 79.87 39.94, 78.09 46.93 C76.31 53.92, 72.48 61.41, 67.74 66.78 C63 72.14, 56.2 77.33, 49.64 79.13 C43.07 80.94, 35.32 79.95, 28.35 77.59 C21.37 75.23, 12.26 70.74, 7.76 64.96 C3.27 59.18, 1.77 49.92, 1.38 42.9 C0.99 35.88, 2.39 29.23, 5.42 22.84 C8.44 16.44, 13.23 8.15, 19.52 4.55 C25.82 0.95, 39.54 2, 43.19 1.22 C46.85 0.44, 41.72 -0.41, 41.45 -0.12" stroke="#000000" stroke-width="1" fill="none"></path></g><g stroke-linecap="round" transform="translate(369.6640843812311 86.18930951286893) rotate(0 40.130859375 40.111328125)"><path d="M50.95 1.05 C57.86 2.24, 65.43 8.19, 70.12 13.65 C74.81 19.11, 77.86 26.59, 79.09 33.8 C80.33 41.01, 80.41 50.4, 77.53 56.9 C74.65 63.4, 68.09 69.04, 61.81 72.8 C55.53 76.55, 47.19 79.08, 39.87 79.43 C32.55 79.78, 24 78.55, 17.91 74.88 C11.82 71.21, 6.19 64.02, 3.33 57.39 C0.46 50.76, -0.31 42.38, 0.73 35.08 C1.76 27.77, 5.02 19.07, 9.53 13.58 C14.05 8.09, 20.08 3.92, 27.81 2.14 C35.54 0.35, 50.22 2.02, 55.9 2.89 C61.59 3.75, 62.24 6.54, 61.92 7.33 M37.27 -0.6 C43.91 -1.71, 52.91 2.19, 59.05 5.58 C65.2 8.98, 70.52 13.33, 74.14 19.77 C77.76 26.21, 81.11 37, 80.78 44.21 C80.45 51.42, 76.39 57.71, 72.15 63.04 C67.9 68.38, 62.08 73.75, 55.3 76.24 C48.52 78.73, 38.57 79.22, 31.47 77.97 C24.36 76.72, 17.82 73.44, 12.66 68.73 C7.5 64.03, 2.16 56.76, 0.49 49.72 C-1.18 42.68, 0.09 33.58, 2.64 26.49 C5.19 19.41, 9.85 11.77, 15.79 7.19 C21.74 2.62, 34.85 0.28, 38.3 -0.97 C41.76 -2.22, 36.61 -1.2, 36.55 -0.3" stroke="none" stroke-width="0" fill="#fff"></path><path d="M27.91 1.87 C34.09 -0.61, 42.98 0, 49.83 2 C56.69 4.01, 64.05 8.81, 69.03 13.9 C74.01 19, 78.41 25.5, 79.71 32.59 C81.01 39.67, 79.75 49.76, 76.83 56.42 C73.91 63.07, 68.26 68.69, 62.17 72.51 C56.08 76.33, 47.28 79.12, 40.28 79.34 C33.27 79.56, 26.32 77.33, 20.14 73.85 C13.96 70.37, 6.51 64.79, 3.2 58.46 C-0.11 52.13, -0.56 43.33, 0.28 35.87 C1.12 28.41, 2.52 19.64, 8.23 13.69 C13.94 7.73, 29.18 2.29, 34.53 0.13 C39.89 -2.02, 40.37 0.01, 40.36 0.75 M58.83 4.05 C65.18 6.57, 72.82 13.79, 76.14 20.06 C79.46 26.33, 79.58 34.57, 78.75 41.68 C77.91 48.78, 75.14 56.74, 71.13 62.71 C67.12 68.69, 60.97 74.84, 54.69 77.55 C48.41 80.26, 40.68 80.43, 33.45 78.99 C26.22 77.54, 16.51 74.04, 11.3 68.9 C6.1 63.75, 3.56 54.99, 2.23 48.13 C0.9 41.26, 1.16 34.46, 3.31 27.69 C5.46 20.92, 9.36 11.89, 15.12 7.49 C20.89 3.1, 30.69 1.95, 37.9 1.32 C45.1 0.68, 54.96 3.2, 58.35 3.69 C61.75 4.18, 58.68 3.7, 58.29 4.25" stroke="#000000" stroke-width="1" fill="none"></path></g><g stroke-linecap="round" transform="translate(414.4023656312311 86.18930951286893) rotate(0 40.130859375 40.111328125)"><path d="M58.14 4.41 C64.43 7.04, 70.21 13.26, 74.02 19.56 C77.82 25.85, 81.19 35.05, 80.97 42.17 C80.74 49.29, 77.04 56.55, 72.67 62.26 C68.29 67.97, 61.48 73.42, 54.7 76.44 C47.93 79.45, 39.09 81.51, 32 80.38 C24.92 79.24, 17.28 74.66, 12.21 69.63 C7.14 64.6, 3.27 57.32, 1.58 50.18 C-0.11 43.03, -0.06 33.57, 2.08 26.74 C4.22 19.91, 8.89 13.71, 14.43 9.18 C19.96 4.66, 27.7 0.22, 35.29 -0.43 C42.88 -1.09, 55.99 4.05, 59.97 5.24 C63.96 6.44, 59.63 6.13, 59.19 6.75 M52.25 2.66 C58.75 4.19, 65.27 7.95, 70 13.64 C74.72 19.33, 79.61 29.63, 80.61 36.82 C81.61 44, 79.11 50.7, 76 56.73 C72.9 62.76, 68.16 69.33, 61.96 73.01 C55.77 76.7, 46.08 78.78, 38.81 78.86 C31.55 78.93, 24.37 77.13, 18.36 73.45 C12.35 69.77, 5.68 63.41, 2.74 56.77 C-0.2 50.13, -0.54 41.07, 0.72 33.64 C1.98 26.2, 5.26 17.73, 10.31 12.16 C15.36 6.6, 24.09 2.15, 31.01 0.25 C37.92 -1.65, 48.18 0.28, 51.79 0.75 C55.41 1.22, 52.84 2.42, 52.71 3.06" stroke="none" stroke-width="0" fill="#fff"></path><path d="M34.06 1.02 C40.65 -0.33, 49.62 1.75, 56.29 4.55 C62.95 7.36, 70.09 11.77, 74.05 17.84 C78.01 23.9, 80.18 33.72, 80.05 40.95 C79.92 48.18, 77.31 55.42, 73.25 61.24 C69.19 67.05, 62.07 72.84, 55.69 75.84 C49.32 78.84, 42.15 80.04, 35 79.23 C27.85 78.43, 18.36 75.62, 12.79 71.02 C7.21 66.42, 3.55 58.85, 1.55 51.62 C-0.45 44.38, -1.44 34.69, 0.78 27.62 C3 20.56, 8.36 13.85, 14.88 9.23 C21.4 4.62, 35.09 1.32, 39.93 -0.04 C44.76 -1.4, 43.83 0.29, 43.9 1.07 M51.67 1.03 C58.22 2.26, 64.02 7.19, 68.45 12.44 C72.89 17.7, 76.86 25.29, 78.29 32.56 C79.71 39.83, 79.42 49.31, 77.02 56.05 C74.62 62.78, 70.01 68.93, 63.87 72.96 C57.72 77, 47.4 80.21, 40.15 80.26 C32.89 80.32, 26.21 76.88, 20.34 73.28 C14.48 69.67, 8.37 65.11, 4.94 58.64 C1.51 52.16, -1.15 41.57, -0.24 34.41 C0.67 27.25, 5.79 21.24, 10.41 15.66 C15.03 10.07, 20.81 3.47, 27.48 0.9 C34.14 -1.66, 46.74 0.27, 50.39 0.28 C54.04 0.29, 49.61 -0.04, 49.39 0.96" stroke="#000000" stroke-width="1" fill="none"></path></g><g stroke-linecap="round" transform="translate(461.1797093812311 86.18930951286893) rotate(0 40.130859375 40.111328125)"><path d="M30.13 0.87 C36.83 -1.2, 47.27 0.45, 54.16 2.74 C61.04 5.03, 67.22 9.11, 71.44 14.6 C75.65 20.09, 78.88 28.2, 79.45 35.68 C80.02 43.16, 78.18 52.88, 74.87 59.46 C71.56 66.05, 65.66 71.7, 59.58 75.2 C53.51 78.7, 45.57 80.97, 38.42 80.46 C31.27 79.95, 22.74 76.32, 16.69 72.12 C10.65 67.92, 4.94 62, 2.17 55.26 C-0.6 48.52, -1.54 38.81, 0.06 31.7 C1.66 24.6, 5.88 17.8, 11.77 12.62 C17.66 7.44, 30.39 2.52, 35.39 0.64 C40.39 -1.24, 41.44 0.76, 41.77 1.36 M29.52 0.07 C36.22 -1.99, 46.9 1.15, 53.91 3.53 C60.91 5.9, 67 9.07, 71.54 14.3 C76.09 19.53, 80.49 27.76, 81.17 34.9 C81.84 42.05, 78.94 50.48, 75.58 57.17 C72.22 63.87, 67.33 71.07, 61.02 75.08 C54.72 79.08, 45.09 81.52, 37.74 81.19 C30.4 80.86, 22.81 77.61, 16.96 73.1 C11.11 68.59, 5.15 61.08, 2.63 54.14 C0.11 47.19, 0.54 38.56, 1.84 31.41 C3.14 24.25, 5.52 16.19, 10.4 11.2 C15.29 6.21, 27.79 3.22, 31.16 1.47 C34.53 -0.28, 30.59 0.15, 30.64 0.72" stroke="none" stroke-width="0" fill="#fff"></path><path d="M38.4 0.83 C45.36 -0.15, 54.75 1.32, 61.02 5.03 C67.29 8.75, 72.93 16.63, 76.01 23.14 C79.09 29.64, 80.45 37.13, 79.48 44.07 C78.52 51.01, 74.6 59.15, 70.22 64.77 C65.85 70.39, 60.1 75.29, 53.22 77.77 C46.33 80.25, 36.03 81.33, 28.9 79.63 C21.77 77.93, 15.33 73.2, 10.45 67.57 C5.57 61.94, 0.7 53.12, -0.36 45.85 C-1.43 38.58, 0.95 30.45, 4.06 23.95 C7.16 17.45, 11.7 10.8, 18.28 6.85 C24.85 2.89, 38.48 1.02, 43.5 0.23 C48.53 -0.55, 48.42 1.48, 48.44 2.12 M30.65 0.04 C36.86 -1.99, 46.2 -1.05, 53.19 1.7 C60.18 4.45, 67.88 10.59, 72.6 16.52 C77.32 22.46, 81.25 30.11, 81.53 37.33 C81.81 44.55, 77.85 53.63, 74.28 59.83 C70.71 66.03, 66.2 70.97, 60.11 74.53 C54.02 78.09, 45.22 81.76, 37.72 81.18 C30.23 80.61, 20.84 75.48, 15.14 71.09 C9.44 66.7, 5.95 61.65, 3.51 54.83 C1.07 48, -0.91 37.55, 0.48 30.12 C1.88 22.7, 6.78 15.36, 11.88 10.27 C16.98 5.19, 27.76 0.88, 31.08 -0.4 C34.39 -1.69, 31.33 1.95, 31.78 2.57" stroke="#000000" stroke-width="1" fill="none"></path></g><g stroke-linecap="round" transform="translate(498.66106852645134 10) rotate(0 33.00458836252483 32.988525390625)"><path d="M47.8 3.64 C53.39 6.06, 58.57 11.88, 61.66 17.69 C64.75 23.51, 67.29 32.23, 66.36 38.51 C65.43 44.8, 60.87 51.01, 56.08 55.39 C51.29 59.76, 44.1 63.45, 37.63 64.76 C31.16 66.07, 23.01 65.99, 17.27 63.25 C11.53 60.51, 5.94 54.17, 3.19 48.33 C0.43 42.49, -0.3 34.75, 0.76 28.23 C1.82 21.7, 5.18 13.75, 9.57 9.18 C13.96 4.61, 20.64 1.78, 27.09 0.82 C33.54 -0.13, 44.4 2.67, 48.26 3.46 C52.11 4.26, 50.54 4.92, 50.23 5.59 M30.66 -0.62 C36.59 -1.55, 44.87 2.32, 50.15 5.67 C55.44 9.01, 59.8 13.39, 62.38 19.47 C64.97 25.56, 67.04 35.89, 65.67 42.17 C64.3 48.45, 59.01 53.42, 54.15 57.14 C49.29 60.85, 42.96 64.03, 36.5 64.46 C30.04 64.88, 20.94 62.81, 15.4 59.67 C9.87 56.54, 5.78 51.25, 3.3 45.66 C0.82 40.07, -0.91 32.39, 0.51 26.13 C1.94 19.88, 6.87 12.6, 11.84 8.12 C16.81 3.64, 27.04 0.65, 30.36 -0.76 C33.68 -2.17, 31.79 -0.82, 31.75 -0.33" stroke="none" stroke-width="0" fill="#fff"></path><path d="M43.54 0.9 C49.6 2.39, 56.03 9.16, 59.69 14.44 C63.35 19.71, 65.69 26.31, 65.51 32.54 C65.34 38.76, 62.27 46.55, 58.65 51.78 C55.02 57.01, 49.9 61.71, 43.74 63.92 C37.57 66.13, 27.9 66.92, 21.63 65.03 C15.36 63.14, 9.87 58.12, 6.11 52.57 C2.35 47.02, -1.12 38.33, -0.92 31.73 C-0.72 25.12, 3.21 17.99, 7.33 12.94 C11.44 7.9, 17.39 3.19, 23.78 1.46 C30.16 -0.27, 41.57 2.05, 45.63 2.57 C49.7 3.09, 48.32 4.09, 48.19 4.58 M24.95 -0.1 C30.47 -1.88, 39.09 -0.86, 45.23 1.95 C51.36 4.76, 58.11 11.04, 61.76 16.76 C65.41 22.48, 68.01 29.84, 67.14 36.27 C66.26 42.69, 60.92 50.64, 56.53 55.31 C52.14 59.98, 46.84 62.82, 40.81 64.28 C34.77 65.75, 26.48 66.76, 20.3 64.12 C14.13 61.48, 6.91 54.04, 3.76 48.43 C0.6 42.82, 0.64 36.9, 1.37 30.45 C2.09 24.01, 3.98 14.9, 8.11 9.75 C12.24 4.6, 23.26 1.16, 26.16 -0.45 C29.06 -2.06, 25.44 -0.79, 25.51 0.1" stroke="#000000" stroke-width="1" fill="none"></path></g><g stroke-linecap="round" transform="translate(487.34368571395134 53.108197380515776) rotate(0 40.130859375 40.111328125)"><path d="M35.43 -0.61 C41.97 -2.13, 51 -0.08, 57.38 3.42 C63.77 6.92, 70.02 14.02, 73.75 20.4 C77.49 26.79, 79.82 34.6, 79.78 41.74 C79.73 48.87, 77.55 57.41, 73.51 63.22 C69.47 69.03, 62.38 73.78, 55.53 76.58 C48.69 79.38, 39.67 81.28, 32.43 80 C25.2 78.71, 17.24 73.8, 12.14 68.87 C7.04 63.94, 3.67 57.23, 1.83 50.41 C-0.02 43.6, -1.09 34.8, 1.06 27.97 C3.21 21.15, 8.49 14.09, 14.75 9.44 C21.01 4.8, 34.45 1.57, 38.61 0.1 C42.77 -1.36, 39.72 0.11, 39.73 0.64 M26.13 1.41 C32.46 -1.94, 42.88 -1.99, 49.93 -0.47 C56.98 1.05, 63.38 5.12, 68.44 10.53 C73.49 15.94, 78.78 24.51, 80.24 31.98 C81.71 39.44, 79.9 48.54, 77.22 55.32 C74.55 62.1, 69.94 68.67, 64.16 72.67 C58.39 76.66, 49.63 79.04, 42.57 79.29 C35.52 79.53, 28.25 77.7, 21.84 74.15 C15.43 70.6, 7.66 64.09, 4.11 57.97 C0.57 51.84, -0.05 44.61, 0.57 37.41 C1.2 30.21, 3.61 20.59, 7.87 14.74 C12.13 8.9, 22.85 4.45, 26.14 2.32 C29.42 0.19, 27.06 1.28, 27.56 1.95" stroke="none" stroke-width="0" fill="#fff"></path><path d="M55.8 3.84 C62.24 6.04, 68.98 11.15, 72.92 16.91 C76.85 22.67, 79.01 31.11, 79.39 38.37 C79.77 45.64, 78.98 54.08, 75.21 60.52 C71.43 66.96, 63.39 73.69, 56.73 77 C50.08 80.32, 42.48 81.55, 35.29 80.4 C28.1 79.24, 19.02 74.82, 13.59 70.06 C8.16 65.31, 4.63 58.6, 2.7 51.86 C0.78 45.11, 0.27 36.49, 2.04 29.59 C3.8 22.7, 7.88 15.21, 13.29 10.47 C18.71 5.74, 26.99 2.22, 34.53 1.17 C42.08 0.12, 54.44 3.25, 58.55 4.16 C62.66 5.07, 59.61 6.2, 59.18 6.64 M29.97 1.36 C36.94 -0.83, 47.13 -0.7, 53.87 1.54 C60.6 3.77, 65.82 9.27, 70.37 14.77 C74.93 20.27, 80.07 27.16, 81.2 34.52 C82.32 41.87, 80.58 52.39, 77.1 58.91 C73.62 65.43, 66.48 69.89, 60.32 73.64 C54.16 77.38, 47.37 81.61, 40.14 81.38 C32.91 81.15, 23.14 76.72, 16.93 72.25 C10.73 67.79, 5.82 61.31, 2.93 54.61 C0.03 47.91, -1.63 38.83, -0.44 32.06 C0.76 25.28, 4.88 19.32, 10.08 13.96 C15.28 8.6, 27.18 1.89, 30.76 -0.12 C34.33 -2.12, 31.62 1.05, 31.54 1.92" stroke="#000000" stroke-width="1" fill="none"></path></g><g stroke-linecap="round" transform="translate(498.66106852645134 101.15478515625) rotate(0 33.00458836252483 32.988525390625)"><path d="M35.36 0.52 C41.57 0.27, 48.54 2.59, 53.34 6.43 C58.15 10.27, 62.6 17.04, 64.21 23.55 C65.82 30.07, 65.27 39.31, 63 45.52 C60.74 51.74, 55.82 57.41, 50.61 60.86 C45.4 64.31, 38.14 66.68, 31.76 66.23 C25.38 65.77, 17.51 62.17, 12.3 58.13 C7.1 54.1, 2.32 48.29, 0.51 42.04 C-1.3 35.78, -1.05 26.68, 1.45 20.63 C3.95 14.57, 9.6 9, 15.5 5.7 C21.4 2.39, 32.66 1.41, 36.85 0.82 C41.05 0.22, 40.49 1.66, 40.68 2.14 M24.07 -0.13 C30.08 -1.91, 40.06 1.34, 46.21 3.8 C52.36 6.27, 57.5 9.61, 60.97 14.66 C64.43 19.71, 67.5 27.7, 66.99 34.1 C66.49 40.49, 62.16 47.83, 57.93 53.03 C53.7 58.22, 47.94 63.35, 41.61 65.26 C35.29 67.18, 26.08 66.94, 19.98 64.5 C13.88 62.06, 8.38 56.42, 5.02 50.6 C1.67 44.78, -0.79 36.28, -0.13 29.6 C0.53 22.92, 4.87 15.5, 8.98 10.52 C13.1 5.54, 21.73 1.15, 24.54 -0.28 C27.36 -1.72, 25.66 1.37, 25.86 1.91" stroke="none" stroke-width="0" fill="#fff"></path><path d="M19.35 1.95 C24.7 -1.15, 32.75 -1.53, 39.29 -0.09 C45.82 1.35, 54.29 5.47, 58.58 10.59 C62.86 15.7, 64.52 24, 65 30.6 C65.48 37.2, 64.74 44.91, 61.45 50.2 C58.15 55.48, 51.04 59.88, 45.25 62.31 C39.45 64.75, 32.74 66.06, 26.68 64.81 C20.63 63.56, 13.34 59.55, 8.94 54.79 C4.53 50.03, 0.81 42.57, 0.25 36.25 C-0.32 29.93, 1.32 22.76, 5.54 16.88 C9.76 10.99, 21.47 3.5, 25.56 0.93 C29.65 -1.64, 30.08 1.07, 30.08 1.45 M24.66 1.13 C30.95 -0.77, 40.43 -0.53, 46.31 1.82 C52.2 4.17, 56.47 9.87, 59.94 15.2 C63.42 20.54, 67.22 27.22, 67.15 33.85 C67.08 40.48, 63.9 49.94, 59.51 54.97 C55.13 60.01, 47.08 62.41, 40.86 64.07 C34.64 65.72, 28.21 67.27, 22.19 64.9 C16.16 62.53, 8.42 55.67, 4.69 49.85 C0.97 44.04, -0.47 36.48, -0.18 29.99 C0.11 23.49, 2.38 15.55, 6.43 10.89 C10.48 6.24, 20.94 3.82, 24.13 2.06 C27.33 0.29, 25.16 -0.05, 25.61 0.29" stroke="#000000" stroke-width="1" fill="none"></path></g><g stroke-linecap="round" transform="translate(269.8094302415211 166.81315843986886) rotate(89.99999999999994 16.93115234375 16.93115234375)"><path d="M18.88 -0.27 C22.44 0.02, 27.53 2.51, 29.96 5.35 C32.38 8.18, 33.37 13.04, 33.42 16.75 C33.48 20.46, 32.5 24.89, 30.26 27.61 C28.02 30.32, 23.45 32.36, 19.97 33.03 C16.49 33.71, 12.44 33.31, 9.37 31.68 C6.3 30.04, 2.96 26.55, 1.55 23.23 C0.13 19.9, -0.27 15.12, 0.88 11.73 C2.04 8.34, 5.28 4.79, 8.47 2.88 C11.65 0.96, 18.1 0.53, 20.01 0.21 C21.92 -0.1, 20.03 0.79, 19.92 1 M14.78 0.16 C18.4 -0.45, 23.75 0.5, 26.73 2.46 C29.71 4.42, 31.61 8.49, 32.68 11.9 C33.75 15.32, 34.4 19.5, 33.16 22.94 C31.91 26.37, 28.56 30.83, 25.19 32.52 C21.83 34.2, 16.48 33.83, 12.96 33.04 C9.44 32.25, 6.25 30.69, 4.05 27.79 C1.85 24.9, -0.31 19.48, -0.25 15.67 C-0.2 11.85, 1.94 7.59, 4.36 4.9 C6.77 2.21, 12.55 0.19, 14.25 -0.47 C15.95 -1.12, 14.37 0.7, 14.56 0.96" stroke="#000000" stroke-width="1" fill="none"></path></g><g stroke-linecap="round" transform="translate(239.3187075852711 201.09730853456495) rotate(89.99999999999994 12.571540601325523 12.571540601325523)"><path d="M10.53 -0.03 C13.01 -0.55, 15.89 0.55, 18.18 1.93 C20.47 3.31, 23.31 5.87, 24.29 8.24 C25.26 10.6, 24.82 13.66, 24.02 16.14 C23.23 18.62, 21.69 21.65, 19.52 23.12 C17.35 24.59, 13.72 25.34, 11 24.97 C8.27 24.61, 4.93 22.89, 3.18 20.92 C1.43 18.96, 0.52 15.88, 0.49 13.18 C0.46 10.47, 1.39 6.8, 3.02 4.69 C4.66 2.58, 9 1.32, 10.3 0.52 C11.6 -0.28, 10.79 -0.19, 10.81 -0.12 M11.13 -0.04 C13.55 -0.62, 16.2 0.44, 18.51 1.75 C20.82 3.06, 23.95 5.21, 25.01 7.83 C26.06 10.46, 25.92 14.95, 24.84 17.49 C23.76 20.04, 20.85 21.75, 18.52 23.08 C16.2 24.42, 13.54 26.02, 10.89 25.53 C8.24 25.03, 4.45 22.37, 2.62 20.11 C0.78 17.84, -0.1 14.65, -0.12 11.94 C-0.14 9.22, 0.76 5.7, 2.48 3.83 C4.2 1.95, 8.82 1.35, 10.22 0.66 C11.63 -0.02, 10.73 -0.4, 10.92 -0.29" stroke="#000000" stroke-width="1" fill="none"></path></g><g stroke-linecap="round" transform="translate(506.43823046996476 44.30956620929646) rotate(0 24.460199556078805 39.10330636160688)"><path d="M0 0 L48.92 0 L48.92 78.21 L0 78.21" stroke="none" stroke-width="0" fill="#fff"></path><path d="M0 0 C17.44 0, 34.87 0, 48.92 0 M0 0 C10.48 0, 20.97 0, 48.92 0 M48.92 0 C48.92 20.45, 48.92 40.9, 48.92 78.21 M48.92 0 C48.92 27.6, 48.92 55.2, 48.92 78.21 M48.92 78.21 C38.93 78.21, 28.95 78.21, 0 78.21 M48.92 78.21 C34.08 78.21, 19.24 78.21, 0 78.21 M0 78.21 C0 48.72, 0 19.23, 0 0 M0 78.21 C0 61.07, 0 43.93, 0 0" stroke="#fff" stroke-width="1" fill="none"></path></g><g stroke-linecap="round" transform="translate(307.6566904080137 25.325191209296463) rotate(0 8.564658415037684 49.55671037946422)"><path d="M0 0 L17.13 0 L17.13 99.11 L0 99.11" stroke="none" stroke-width="0" fill="#fff"></path><path d="M0 0 C3.79 0, 7.57 0, 17.13 0 M0 0 C5.15 0, 10.29 0, 17.13 0 M17.13 0 C17.13 29.2, 17.13 58.4, 17.13 99.11 M17.13 0 C17.13 25.74, 17.13 51.48, 17.13 99.11 M17.13 99.11 C11.94 99.11, 6.75 99.11, 0 99.11 M17.13 99.11 C13.16 99.11, 9.19 99.11, 0 99.11 M0 99.11 C0 72.98, 0 46.85, 0 0 M0 99.11 C0 62.95, 0 26.79, 0 0" stroke="#fff" stroke-width="1" fill="none"></path></g><g stroke-linecap="round" transform="translate(323.6312727322402 24.662666289235858) rotate(0 109.15056617056734 67.6787910931107)"><path d="M0 0 L218.3 0 L218.3 135.36 L0 135.36" stroke="none" stroke-width="0" fill="#fff"></path><path d="M0 0 C46.54 0, 93.08 0, 218.3 0 M0 0 C45.4 0, 90.8 0, 218.3 0 M218.3 0 C218.3 41.97, 218.3 83.93, 218.3 135.36 M218.3 0 C218.3 37.3, 218.3 74.6, 218.3 135.36 M218.3 135.36 C133.38 135.36, 48.45 135.36, 0 135.36 M218.3 135.36 C136.79 135.36, 55.28 135.36, 0 135.36 M0 135.36 C0 96.9, 0 58.44, 0 0 M0 135.36 C0 107.7, 0 80.04, 0 0" stroke="#fff" stroke-width="1" fill="none"></path></g><g transform="translate(334.94004202780707 46.34145738234656) rotate(0 97.841796875 46)"><text x="97.841796875" y="18.400390625" font-family="Helvetica, Segoe UI Emoji" font-size="20px" fill="#1e1e1e" text-anchor="middle" style="white-space: pre;" direction="ltr" dominant-baseline="alphabetic">7...but I've run out of </text><text x="97.841796875" y="41.400390625" font-family="Helvetica, Segoe UI Emoji" font-size="20px" fill="#1e1e1e" text-anchor="middle" style="white-space: pre;" direction="ltr" dominant-baseline="alphabetic">counting fingers once </text><text x="97.841796875" y="64.400390625" font-family="Helvetica, Segoe UI Emoji" font-size="20px" fill="#1e1e1e" text-anchor="middle" style="white-space: pre;" direction="ltr" dominant-baseline="alphabetic">already. Therefore,</text><text x="97.841796875" y="87.400390625" font-family="Helvetica, Segoe UI Emoji" font-size="20px" fill="#1e1e1e" text-anchor="middle" style="white-space: pre;" direction="ltr" dominant-baseline="alphabetic">10 + 7 = 17 </text></g></svg>