<svg version="1.1" xmlns="http://www.w3.org/2000/svg" viewBox="0 0 577.6054044639504 545.1099736218885" width="577.6054044639504" height="545.1099736218885">
  <!-- svg-source:excalidraw -->
  
  <defs>
    <style class="style-fonts">
      @font-face {
        font-family: "Virgil";
        src: url("https://excalidraw.com/Virgil.woff2");
      }
      @font-face {
        font-family: "Cascadia";
        src: url("https://excalidraw.com/Cascadia.woff2");
      }
      @font-face {
        font-family: "Assistant";
        src: url("https://excalidraw.com/Assistant-Regular.woff2");
      }
    </style>
    
  </defs>
  <g stroke-linecap="round" transform="translate(139.73933324518111 231.34101439611186) rotate(0 51.86181255625024 39.81014841786464)"><path d="M27.63 3.79 C35.15 0.09, 46.81 -0.74, 56.12 0.14 C65.43 1.02, 76.04 4.6, 83.49 9.06 C90.94 13.52, 97.58 20.38, 100.8 26.91 C104.02 33.44, 105.1 41.35, 102.8 48.25 C100.5 55.15, 93.94 63.38, 87.02 68.33 C80.1 73.27, 70.18 76.65, 61.27 77.92 C52.36 79.19, 42.3 78.41, 33.56 75.94 C24.83 73.48, 14.53 68.72, 8.84 63.12 C3.16 57.52, -0.1 49.54, -0.55 42.36 C-0.99 35.18, -0.25 26.84, 6.19 20.03 C12.63 13.23, 31.07 4.73, 38.09 1.53 C45.11 -1.66, 48.17 0.11, 48.29 0.86 M60.17 -0.17 C69.02 0.52, 80.04 6.1, 87.17 10.9 C94.3 15.7, 100.62 21.61, 102.93 28.61 C105.25 35.61, 104.17 45.78, 101.06 52.9 C97.95 60.01, 91.23 67.06, 84.28 71.31 C77.33 75.55, 68.34 77.5, 59.35 78.35 C50.35 79.21, 38.75 79.36, 30.33 76.44 C21.91 73.52, 13.88 67.01, 8.85 60.83 C3.81 54.64, 0.3 46.49, 0.09 39.33 C-0.12 32.17, 2.55 23.86, 7.59 17.86 C12.64 11.86, 21.85 6.21, 30.37 3.31 C38.9 0.42, 53.81 0.91, 58.77 0.47 C63.73 0.03, 59.81 0.19, 60.14 0.68" stroke="#1e1e1e" stroke-width="4" fill="none"></path></g><g stroke-linecap="round"><g transform="translate(158.022026181412 273.15265787680255) rotate(0 30.890059159239172 5.654451799589879)"><path d="M-1.14 -0.49 C4.05 1.19, 21.38 10.75, 31.73 10.77 C42.09 10.8, 56 1.45, 61.01 -0.36 M0.46 -1.8 C5.49 -0.02, 20.56 11.64, 31.06 12.03 C41.57 12.42, 58.34 2.43, 63.49 0.55" stroke="#1e1e1e" stroke-width="4" fill="none"></path></g></g><mask></mask><g stroke-linecap="round"><g transform="translate(168.98044514534195 261.17846312714755) rotate(0 4.539199335629746 -1.9551314481741429)"><path d="M0.16 -0.16 C1.14 -0.87, 4.1 -4.45, 5.58 -4.4 C7.07 -4.36, 8.45 -0.66, 9.07 0.12 M-0.19 0.53 C0.94 -0.13, 4.76 -4.05, 6.26 -4.07 C7.77 -4.09, 8.3 -0.34, 8.83 0.43" stroke="#1e1e1e" stroke-width="4" fill="none"></path></g></g><mask></mask><g stroke-linecap="round"><g transform="translate(198.07093562492628 261.3419277050907) rotate(0 4.539199335629746 -1.9551314481741429)"><path d="M-0.23 -0.23 C0.71 -0.92, 4.22 -4.4, 5.8 -4.32 C7.38 -4.24, 8.72 -0.56, 9.28 0.24 M0.3 0.42 C1.18 -0.21, 4.04 -3.98, 5.51 -3.95 C6.99 -3.91, 8.53 -0.01, 9.15 0.61" stroke="#1e1e1e" stroke-width="4" fill="none"></path></g></g><mask></mask><g stroke-linecap="round"><g transform="translate(174.7759606350155 331.1631416622222) rotate(0 -63.14137842875334 17.696338293529607)"><path d="M-0.04 -0.5 C-10.8 2.2, -44.29 9.33, -65.3 15.42 C-86.32 21.5, -115.77 32.83, -126.12 36.03 M-1.52 -1.8 C-12.31 1.16, -45.02 10.94, -65.9 16.91 C-86.78 22.88, -116.5 30.96, -126.81 34.02" stroke="#1e1e1e" stroke-width="4" fill="none"></path></g></g><mask></mask><g stroke-linecap="round"><g transform="translate(197.60318877854115 328.0217699646637) rotate(0 65.23561664045019 16.963355398769636)"><path d="M0.66 -0.08 C11.8 2.2, 45.31 7.67, 66.76 13.2 C88.2 18.74, 118.79 29.78, 129.36 33.15 M-0.45 -1.17 C10.55 0.81, 43.87 5.55, 65.89 11.42 C87.91 17.29, 120.95 30.26, 131.66 34.06" stroke="#1e1e1e" stroke-width="4" fill="none"></path></g></g><mask></mask><g stroke-linecap="round"><g transform="translate(189.2262167584031 341.84376325254925) rotate(0 -1.256544844353357 88.58641632024637)"><path d="M0.16 0.64 C-0.56 13.33, -3.34 46.75, -3.63 76.08 C-3.92 105.42, -1.8 159.63, -1.6 176.67 M-1.22 -0.07 C-1.64 12.77, -1.28 47.58, -1.5 77.22 C-1.72 106.85, -2.33 161.19, -2.54 177.72" stroke="#1e1e1e" stroke-width="4" fill="none"></path></g></g><mask></mask><g stroke-linecap="round"><g transform="translate(173.51940620398636 533.6762873416101) rotate(0 -25.96859025440972 -0.20942573850516055)"><path d="M-1.12 -0.77 C-9.86 -1.04, -43.61 -1.18, -52.28 -0.93 M0.5 1.43 C-8.44 1.28, -44.85 0.75, -53.41 0.34" stroke="#1e1e1e" stroke-width="4" fill="none"></path></g></g><mask></mask><g stroke-linecap="round"><g transform="translate(195.92780204385417 533.0480149194318) rotate(0 27.015714153596036 -0.31413621108822554)"><path d="M-0.34 -0.51 C8.65 -0.29, 43.96 0.7, 52.86 0.52 M1.68 -1.82 C11.12 -1.84, 46 -1.18, 54.95 -1" stroke="#1e1e1e" stroke-width="4" fill="none"></path></g></g><mask></mask><g stroke-linecap="round"><g transform="translate(328.95311807044163 361.42602942084704) rotate(0 5.411851472170838 -6.303501568678712)"><path d="M-0.54 0.53 C1.22 -1.61, 8.45 -10.79, 10.37 -13.04 M0.19 0.32 C2.12 -1.74, 9.62 -10.42, 11.37 -12.56" stroke="#1e1e1e" stroke-width="4" fill="none"></path></g></g><mask></mask><g stroke-linecap="round"><g transform="translate(329.6553130686134 362.37725266704365) rotate(0 8.9946810212723 -4.143865401053972)"><path d="M-0.46 -0.43 C2.65 -1.96, 14.97 -7.24, 18.1 -8.62 M0.31 0.54 C3.4 -0.69, 14.75 -6.62, 17.73 -8.09" stroke="#1e1e1e" stroke-width="4" fill="none"></path></g></g><mask></mask><g stroke-linecap="round"><g transform="translate(329.50305988696346 363.13470269184836) rotate(0 9.581522215615678 1.1524152074948688)"><path d="M0.11 -0.33 C3.44 0.05, 16.33 1.4, 19.52 1.89 M-0.49 0.69 C2.83 1.17, 16.03 2.2, 19.27 2.38" stroke="#1e1e1e" stroke-width="4" fill="none"></path></g></g><mask></mask><g stroke-linecap="round"><g transform="translate(329.9154542259221 363.19151980946845) rotate(0 5.9663193927631255 4.618395246292039)"><path d="M0.35 -0.41 C2.33 1.24, 10.07 7.9, 11.99 9.58 M-0.13 0.57 C1.78 2.09, 9.65 7.41, 11.59 8.79" stroke="#1e1e1e" stroke-width="4" fill="none"></path></g></g><mask></mask><g stroke-linecap="round"><g transform="translate(328.5974441055314 363.4760569421833) rotate(0 1.8594501524544285 7.311968730333774)"><path d="M0.06 0.35 C0.62 2.93, 3.1 12.7, 3.7 15.07 M-0.57 0.05 C-0.12 2.52, 2.61 11.81, 3.26 14.33" stroke="#1e1e1e" stroke-width="4" fill="none"></path></g></g><mask></mask><g stroke-linecap="round"><g transform="translate(51.43141995701626 368.19078592787446) rotate(335.4519080177106 -5.411851472170838 6.303501568678712)"><path d="M-0.02 0.45 C-1.84 2.48, -9.13 10.51, -10.87 12.57 M-0.69 0.2 C-2.59 2.3, -9.67 11.32, -11.32 13.25" stroke="#1e1e1e" stroke-width="4" fill="none"></path></g></g><mask></mask><g stroke-linecap="round"><g transform="translate(50.19990083735502 369.29310943034943) rotate(335.4519080177106 -8.9946810212723 4.143865401053972)"><path d="M-0.04 -0.04 C-2.98 1.3, -14.68 7.09, -17.63 8.47 M-0.73 -0.53 C-3.7 0.6, -15 6.04, -17.87 7.59" stroke="#1e1e1e" stroke-width="4" fill="none"></path></g></g><mask></mask><g stroke-linecap="round"><g transform="translate(46.81405874427401 369.08678940832397) rotate(335.4519080177106 -9.581522215615678 -1.1524152074948688)"><path d="M0.36 0.18 C-2.78 -0.21, -15.63 -1.9, -18.89 -2.36 M-0.11 -0.2 C-3.3 -0.5, -15.94 -1.37, -19.18 -1.69" stroke="#1e1e1e" stroke-width="4" fill="none"></path></g></g><mask></mask><g stroke-linecap="round"><g transform="translate(45.1810910689328 368.31830024497503) rotate(335.4519080177106 -5.9663193927631255 -4.618395246292039)"><path d="M0.27 -0.05 C-1.78 -1.67, -9.97 -8, -11.97 -9.49 M-0.25 -0.56 C-2.42 -2.11, -10.46 -7.36, -12.42 -8.92" stroke="#1e1e1e" stroke-width="4" fill="none"></path></g></g><mask></mask><g stroke-linecap="round"><g transform="translate(45.143675093331694 365.96808250407776) rotate(335.4519080177106 -1.8594501524544285 -7.311968730333774)"><path d="M-0.03 -0.25 C-0.66 -2.64, -2.96 -11.95, -3.51 -14.39 M-0.72 0.8 C-1.42 -1.74, -3.37 -12.69, -3.83 -15.23" stroke="#1e1e1e" stroke-width="4" fill="none"></path></g></g><mask></mask><g stroke-linecap="round" transform="translate(33.20566752497325 346.01173687303344) rotate(0 5.9002718712058595 5.9002718712058595)"><path d="M11.8 5.9 C11.8 6.24, 11.77 6.59, 11.71 6.92 C11.65 7.26, 11.56 7.6, 11.44 7.92 C11.33 8.24, 11.18 8.55, 11.01 8.85 C10.84 9.15, 10.64 9.43, 10.42 9.69 C10.2 9.95, 9.95 10.2, 9.69 10.42 C9.43 10.64, 9.15 10.84, 8.85 11.01 C8.55 11.18, 8.24 11.33, 7.92 11.44 C7.6 11.56, 7.26 11.65, 6.92 11.71 C6.59 11.77, 6.24 11.8, 5.9 11.8 C5.56 11.8, 5.21 11.77, 4.88 11.71 C4.54 11.65, 4.2 11.56, 3.88 11.44 C3.56 11.33, 3.25 11.18, 2.95 11.01 C2.65 10.84, 2.37 10.64, 2.11 10.42 C1.85 10.2, 1.6 9.95, 1.38 9.69 C1.16 9.43, 0.96 9.15, 0.79 8.85 C0.62 8.55, 0.47 8.24, 0.36 7.92 C0.24 7.6, 0.15 7.26, 0.09 6.92 C0.03 6.59, 0 6.24, 0 5.9 C0 5.56, 0.03 5.21, 0.09 4.88 C0.15 4.54, 0.24 4.2, 0.36 3.88 C0.47 3.56, 0.62 3.25, 0.79 2.95 C0.96 2.65, 1.16 2.37, 1.38 2.11 C1.6 1.85, 1.85 1.6, 2.11 1.38 C2.37 1.16, 2.65 0.96, 2.95 0.79 C3.25 0.62, 3.56 0.47, 3.88 0.36 C4.2 0.24, 4.54 0.15, 4.88 0.09 C5.21 0.03, 5.56 0, 5.9 0 C6.24 0, 6.59 0.03, 6.92 0.09 C7.26 0.15, 7.6 0.24, 7.92 0.36 C8.24 0.47, 8.55 0.62, 8.85 0.79 C9.15 0.96, 9.43 1.16, 9.69 1.38 C9.95 1.6, 10.2 1.85, 10.42 2.11 C10.64 2.37, 10.84 2.65, 11.01 2.95 C11.18 3.25, 11.33 3.56, 11.44 3.88 C11.56 4.2, 11.65 4.54, 11.71 4.88 C11.77 5.21, 11.79 5.73, 11.8 5.9 C11.82 6.07, 11.82 5.73, 11.8 5.9" stroke="#e03131" stroke-width="1" fill="none"></path></g><g stroke-linecap="round" transform="translate(25.486172560622435 354.4192127681763) rotate(0 5.9002718712058595 5.9002718712058595)"><path d="M11.8 5.9 C11.8 6.24, 11.77 6.59, 11.71 6.92 C11.65 7.26, 11.56 7.6, 11.44 7.92 C11.33 8.24, 11.18 8.55, 11.01 8.85 C10.84 9.15, 10.64 9.43, 10.42 9.69 C10.2 9.95, 9.95 10.2, 9.69 10.42 C9.43 10.64, 9.15 10.84, 8.85 11.01 C8.55 11.18, 8.24 11.33, 7.92 11.44 C7.6 11.56, 7.26 11.65, 6.92 11.71 C6.59 11.77, 6.24 11.8, 5.9 11.8 C5.56 11.8, 5.21 11.77, 4.88 11.71 C4.54 11.65, 4.2 11.56, 3.88 11.44 C3.56 11.33, 3.25 11.18, 2.95 11.01 C2.65 10.84, 2.37 10.64, 2.11 10.42 C1.85 10.2, 1.6 9.95, 1.38 9.69 C1.16 9.43, 0.96 9.15, 0.79 8.85 C0.62 8.55, 0.47 8.24, 0.36 7.92 C0.24 7.6, 0.15 7.26, 0.09 6.92 C0.03 6.59, 0 6.24, 0 5.9 C0 5.56, 0.03 5.21, 0.09 4.88 C0.15 4.54, 0.24 4.2, 0.36 3.88 C0.47 3.56, 0.62 3.25, 0.79 2.95 C0.96 2.65, 1.16 2.37, 1.38 2.11 C1.6 1.85, 1.85 1.6, 2.11 1.38 C2.37 1.16, 2.65 0.96, 2.95 0.79 C3.25 0.62, 3.56 0.47, 3.88 0.36 C4.2 0.24, 4.54 0.15, 4.88 0.09 C5.21 0.03, 5.56 0, 5.9 0 C6.24 0, 6.59 0.03, 6.92 0.09 C7.26 0.15, 7.6 0.24, 7.92 0.36 C8.24 0.47, 8.55 0.62, 8.85 0.79 C9.15 0.96, 9.43 1.16, 9.69 1.38 C9.95 1.6, 10.2 1.85, 10.42 2.11 C10.64 2.37, 10.84 2.65, 11.01 2.95 C11.18 3.25, 11.33 3.56, 11.44 3.88 C11.56 4.2, 11.65 4.54, 11.71 4.88 C11.77 5.21, 11.79 5.73, 11.8 5.9 C11.82 6.07, 11.82 5.73, 11.8 5.9" stroke="#e03131" stroke-width="1" fill="none"></path></g><g stroke-linecap="round" transform="translate(20.83793976691777 365.3624331524443) rotate(0 5.9002718712058595 5.9002718712058595)"><path d="M11.8 5.9 C11.8 6.24, 11.77 6.59, 11.71 6.92 C11.65 7.26, 11.56 7.6, 11.44 7.92 C11.33 8.24, 11.18 8.55, 11.01 8.85 C10.84 9.15, 10.64 9.43, 10.42 9.69 C10.2 9.95, 9.95 10.2, 9.69 10.42 C9.43 10.64, 9.15 10.84, 8.85 11.01 C8.55 11.18, 8.24 11.33, 7.92 11.44 C7.6 11.56, 7.26 11.65, 6.92 11.71 C6.59 11.77, 6.24 11.8, 5.9 11.8 C5.56 11.8, 5.21 11.77, 4.88 11.71 C4.54 11.65, 4.2 11.56, 3.88 11.44 C3.56 11.33, 3.25 11.18, 2.95 11.01 C2.65 10.84, 2.37 10.64, 2.11 10.42 C1.85 10.2, 1.6 9.95, 1.38 9.69 C1.16 9.43, 0.96 9.15, 0.79 8.85 C0.62 8.55, 0.47 8.24, 0.36 7.92 C0.24 7.6, 0.15 7.26, 0.09 6.92 C0.03 6.59, 0 6.24, 0 5.9 C0 5.56, 0.03 5.21, 0.09 4.88 C0.15 4.54, 0.24 4.2, 0.36 3.88 C0.47 3.56, 0.62 3.25, 0.79 2.95 C0.96 2.65, 1.16 2.37, 1.38 2.11 C1.6 1.85, 1.85 1.6, 2.11 1.38 C2.37 1.16, 2.65 0.96, 2.95 0.79 C3.25 0.62, 3.56 0.47, 3.88 0.36 C4.2 0.24, 4.54 0.15, 4.88 0.09 C5.21 0.03, 5.56 0, 5.9 0 C6.24 0, 6.59 0.03, 6.92 0.09 C7.26 0.15, 7.6 0.24, 7.92 0.36 C8.24 0.47, 8.55 0.62, 8.85 0.79 C9.15 0.96, 9.43 1.16, 9.69 1.38 C9.95 1.6, 10.2 1.85, 10.42 2.11 C10.64 2.37, 10.84 2.65, 11.01 2.95 C11.18 3.25, 11.33 3.56, 11.44 3.88 C11.56 4.2, 11.65 4.54, 11.71 4.88 C11.77 5.21, 11.79 5.73, 11.8 5.9 C11.82 6.07, 11.82 5.73, 11.8 5.9" stroke="#e03131" stroke-width="1" fill="none"></path></g><g stroke-linecap="round" transform="translate(26.88033898928188 375.99086623100266) rotate(0 5.9002718712058595 5.9002718712058595)"><path d="M11.8 5.9 C11.8 6.24, 11.77 6.59, 11.71 6.92 C11.65 7.26, 11.56 7.6, 11.44 7.92 C11.33 8.24, 11.18 8.55, 11.01 8.85 C10.84 9.15, 10.64 9.43, 10.42 9.69 C10.2 9.95, 9.95 10.2, 9.69 10.42 C9.43 10.64, 9.15 10.84, 8.85 11.01 C8.55 11.18, 8.24 11.33, 7.92 11.44 C7.6 11.56, 7.26 11.65, 6.92 11.71 C6.59 11.77, 6.24 11.8, 5.9 11.8 C5.56 11.8, 5.21 11.77, 4.88 11.71 C4.54 11.65, 4.2 11.56, 3.88 11.44 C3.56 11.33, 3.25 11.18, 2.95 11.01 C2.65 10.84, 2.37 10.64, 2.11 10.42 C1.85 10.2, 1.6 9.95, 1.38 9.69 C1.16 9.43, 0.96 9.15, 0.79 8.85 C0.62 8.55, 0.47 8.24, 0.36 7.92 C0.24 7.6, 0.15 7.26, 0.09 6.92 C0.03 6.59, 0 6.24, 0 5.9 C0 5.56, 0.03 5.21, 0.09 4.88 C0.15 4.54, 0.24 4.2, 0.36 3.88 C0.47 3.56, 0.62 3.25, 0.79 2.95 C0.96 2.65, 1.16 2.37, 1.38 2.11 C1.6 1.85, 1.85 1.6, 2.11 1.38 C2.37 1.16, 2.65 0.96, 2.95 0.79 C3.25 0.62, 3.56 0.47, 3.88 0.36 C4.2 0.24, 4.54 0.15, 4.88 0.09 C5.21 0.03, 5.56 0, 5.9 0 C6.24 0, 6.59 0.03, 6.92 0.09 C7.26 0.15, 7.6 0.24, 7.92 0.36 C8.24 0.47, 8.55 0.62, 8.85 0.79 C9.15 0.96, 9.43 1.16, 9.69 1.38 C9.95 1.6, 10.2 1.85, 10.42 2.11 C10.64 2.37, 10.84 2.65, 11.01 2.95 C11.18 3.25, 11.33 3.56, 11.44 3.88 C11.56 4.2, 11.65 4.54, 11.71 4.88 C11.77 5.21, 11.79 5.73, 11.8 5.9 C11.82 6.07, 11.82 5.73, 11.8 5.9" stroke="#e03131" stroke-width="1" fill="none"></path></g><g stroke-linecap="round" transform="translate(38.156551246336676 379.9708397082486) rotate(0 5.9002718712058595 5.9002718712058595)"><path d="M11.8 5.9 C11.8 6.24, 11.77 6.59, 11.71 6.92 C11.65 7.26, 11.56 7.6, 11.44 7.92 C11.33 8.24, 11.18 8.55, 11.01 8.85 C10.84 9.15, 10.64 9.43, 10.42 9.69 C10.2 9.95, 9.95 10.2, 9.69 10.42 C9.43 10.64, 9.15 10.84, 8.85 11.01 C8.55 11.18, 8.24 11.33, 7.92 11.44 C7.6 11.56, 7.26 11.65, 6.92 11.71 C6.59 11.77, 6.24 11.8, 5.9 11.8 C5.56 11.8, 5.21 11.77, 4.88 11.71 C4.54 11.65, 4.2 11.56, 3.88 11.44 C3.56 11.33, 3.25 11.18, 2.95 11.01 C2.65 10.84, 2.37 10.64, 2.11 10.42 C1.85 10.2, 1.6 9.95, 1.38 9.69 C1.16 9.43, 0.96 9.15, 0.79 8.85 C0.62 8.55, 0.47 8.24, 0.36 7.92 C0.24 7.6, 0.15 7.26, 0.09 6.92 C0.03 6.59, 0 6.24, 0 5.9 C0 5.56, 0.03 5.21, 0.09 4.88 C0.15 4.54, 0.24 4.2, 0.36 3.88 C0.47 3.56, 0.62 3.25, 0.79 2.95 C0.96 2.65, 1.16 2.37, 1.38 2.11 C1.6 1.85, 1.85 1.6, 2.11 1.38 C2.37 1.16, 2.65 0.96, 2.95 0.79 C3.25 0.62, 3.56 0.47, 3.88 0.36 C4.2 0.24, 4.54 0.15, 4.88 0.09 C5.21 0.03, 5.56 0, 5.9 0 C6.24 0, 6.59 0.03, 6.92 0.09 C7.26 0.15, 7.6 0.24, 7.92 0.36 C8.24 0.47, 8.55 0.62, 8.85 0.79 C9.15 0.96, 9.43 1.16, 9.69 1.38 C9.95 1.6, 10.2 1.85, 10.42 2.11 C10.64 2.37, 10.84 2.65, 11.01 2.95 C11.18 3.25, 11.33 3.56, 11.44 3.88 C11.56 4.2, 11.65 4.54, 11.71 4.88 C11.77 5.21, 11.79 5.73, 11.8 5.9 C11.82 6.07, 11.82 5.73, 11.8 5.9" stroke="#e03131" stroke-width="1" fill="none"></path></g><g stroke-linecap="round" transform="translate(325.97644492162726 373.1495751921411) rotate(0 5.9002718712058595 5.9002718712058595)"><path d="M11.8 5.9 C11.8 6.24, 11.77 6.59, 11.71 6.92 C11.65 7.26, 11.56 7.6, 11.44 7.92 C11.33 8.24, 11.18 8.55, 11.01 8.85 C10.84 9.15, 10.64 9.43, 10.42 9.69 C10.2 9.95, 9.95 10.2, 9.69 10.42 C9.43 10.64, 9.15 10.84, 8.85 11.01 C8.55 11.18, 8.24 11.33, 7.92 11.44 C7.6 11.56, 7.26 11.65, 6.92 11.71 C6.59 11.77, 6.24 11.8, 5.9 11.8 C5.56 11.8, 5.21 11.77, 4.88 11.71 C4.54 11.65, 4.2 11.56, 3.88 11.44 C3.56 11.33, 3.25 11.18, 2.95 11.01 C2.65 10.84, 2.37 10.64, 2.11 10.42 C1.85 10.2, 1.6 9.95, 1.38 9.69 C1.16 9.43, 0.96 9.15, 0.79 8.85 C0.62 8.55, 0.47 8.24, 0.36 7.92 C0.24 7.6, 0.15 7.26, 0.09 6.92 C0.03 6.59, 0 6.24, 0 5.9 C0 5.56, 0.03 5.21, 0.09 4.88 C0.15 4.54, 0.24 4.2, 0.36 3.88 C0.47 3.56, 0.62 3.25, 0.79 2.95 C0.96 2.65, 1.16 2.37, 1.38 2.11 C1.6 1.85, 1.85 1.6, 2.11 1.38 C2.37 1.16, 2.65 0.96, 2.95 0.79 C3.25 0.62, 3.56 0.47, 3.88 0.36 C4.2 0.24, 4.54 0.15, 4.88 0.09 C5.21 0.03, 5.56 0, 5.9 0 C6.24 0, 6.59 0.03, 6.92 0.09 C7.26 0.15, 7.6 0.24, 7.92 0.36 C8.24 0.47, 8.55 0.62, 8.85 0.79 C9.15 0.96, 9.43 1.16, 9.69 1.38 C9.95 1.6, 10.2 1.85, 10.42 2.11 C10.64 2.37, 10.84 2.65, 11.01 2.95 C11.18 3.25, 11.33 3.56, 11.44 3.88 C11.56 4.2, 11.65 4.54, 11.71 4.88 C11.77 5.21, 11.79 5.73, 11.8 5.9 C11.82 6.07, 11.82 5.73, 11.8 5.9" stroke="#e03131" stroke-width="1" fill="none"></path></g><g stroke-linecap="round" transform="translate(337.4944593771379 368.85366320458525) rotate(0 5.9002718712058595 5.9002718712058595)"><path d="M11.8 5.9 C11.8 6.24, 11.77 6.59, 11.71 6.92 C11.65 7.26, 11.56 7.6, 11.44 7.92 C11.33 8.24, 11.18 8.55, 11.01 8.85 C10.84 9.15, 10.64 9.43, 10.42 9.69 C10.2 9.95, 9.95 10.2, 9.69 10.42 C9.43 10.64, 9.15 10.84, 8.85 11.01 C8.55 11.18, 8.24 11.33, 7.92 11.44 C7.6 11.56, 7.26 11.65, 6.92 11.71 C6.59 11.77, 6.24 11.8, 5.9 11.8 C5.56 11.8, 5.21 11.77, 4.88 11.71 C4.54 11.65, 4.2 11.56, 3.88 11.44 C3.56 11.33, 3.25 11.18, 2.95 11.01 C2.65 10.84, 2.37 10.64, 2.11 10.42 C1.85 10.2, 1.6 9.95, 1.38 9.69 C1.16 9.43, 0.96 9.15, 0.79 8.85 C0.62 8.55, 0.47 8.24, 0.36 7.92 C0.24 7.6, 0.15 7.26, 0.09 6.92 C0.03 6.59, 0 6.24, 0 5.9 C0 5.56, 0.03 5.21, 0.09 4.88 C0.15 4.54, 0.24 4.2, 0.36 3.88 C0.47 3.56, 0.62 3.25, 0.79 2.95 C0.96 2.65, 1.16 2.37, 1.38 2.11 C1.6 1.85, 1.85 1.6, 2.11 1.38 C2.37 1.16, 2.65 0.96, 2.95 0.79 C3.25 0.62, 3.56 0.47, 3.88 0.36 C4.2 0.24, 4.54 0.15, 4.88 0.09 C5.21 0.03, 5.56 0, 5.9 0 C6.24 0, 6.59 0.03, 6.92 0.09 C7.26 0.15, 7.6 0.24, 7.92 0.36 C8.24 0.47, 8.55 0.62, 8.85 0.79 C9.15 0.96, 9.43 1.16, 9.69 1.38 C9.95 1.6, 10.2 1.85, 10.42 2.11 C10.64 2.37, 10.84 2.65, 11.01 2.95 C11.18 3.25, 11.33 3.56, 11.44 3.88 C11.56 4.2, 11.65 4.54, 11.71 4.88 C11.77 5.21, 11.79 5.73, 11.8 5.9 C11.82 6.07, 11.82 5.73, 11.8 5.9" stroke="#e03131" stroke-width="1" fill="none"></path></g><g stroke-linecap="round" transform="translate(345.4655029253463 358.52018955132553) rotate(0 5.9002718712058595 5.9002718712058595)"><path d="M11.8 5.9 C11.8 6.24, 11.77 6.59, 11.71 6.92 C11.65 7.26, 11.56 7.6, 11.44 7.92 C11.33 8.24, 11.18 8.55, 11.01 8.85 C10.84 9.15, 10.64 9.43, 10.42 9.69 C10.2 9.95, 9.95 10.2, 9.69 10.42 C9.43 10.64, 9.15 10.84, 8.85 11.01 C8.55 11.18, 8.24 11.33, 7.92 11.44 C7.6 11.56, 7.26 11.65, 6.92 11.71 C6.59 11.77, 6.24 11.8, 5.9 11.8 C5.56 11.8, 5.21 11.77, 4.88 11.71 C4.54 11.65, 4.2 11.56, 3.88 11.44 C3.56 11.33, 3.25 11.18, 2.95 11.01 C2.65 10.84, 2.37 10.64, 2.11 10.42 C1.85 10.2, 1.6 9.95, 1.38 9.69 C1.16 9.43, 0.96 9.15, 0.79 8.85 C0.62 8.55, 0.47 8.24, 0.36 7.92 C0.24 7.6, 0.15 7.26, 0.09 6.92 C0.03 6.59, 0 6.24, 0 5.9 C0 5.56, 0.03 5.21, 0.09 4.88 C0.15 4.54, 0.24 4.2, 0.36 3.88 C0.47 3.56, 0.62 3.25, 0.79 2.95 C0.96 2.65, 1.16 2.37, 1.38 2.11 C1.6 1.85, 1.85 1.6, 2.11 1.38 C2.37 1.16, 2.65 0.96, 2.95 0.79 C3.25 0.62, 3.56 0.47, 3.88 0.36 C4.2 0.24, 4.54 0.15, 4.88 0.09 C5.21 0.03, 5.56 0, 5.9 0 C6.24 0, 6.59 0.03, 6.92 0.09 C7.26 0.15, 7.6 0.24, 7.92 0.36 C8.24 0.47, 8.55 0.62, 8.85 0.79 C9.15 0.96, 9.43 1.16, 9.69 1.38 C9.95 1.6, 10.2 1.85, 10.42 2.11 C10.64 2.37, 10.84 2.65, 11.01 2.95 C11.18 3.25, 11.33 3.56, 11.44 3.88 C11.56 4.2, 11.65 4.54, 11.71 4.88 C11.77 5.21, 11.79 5.73, 11.8 5.9 C11.82 6.07, 11.82 5.73, 11.8 5.9" stroke="#e03131" stroke-width="1" fill="none"></path></g><g stroke-linecap="round" transform="translate(344.588282187151 346.0053292219636) rotate(0 5.9002718712058595 5.9002718712058595)"><path d="M11.8 5.9 C11.8 6.24, 11.77 6.59, 11.71 6.92 C11.65 7.26, 11.56 7.6, 11.44 7.92 C11.33 8.24, 11.18 8.55, 11.01 8.85 C10.84 9.15, 10.64 9.43, 10.42 9.69 C10.2 9.95, 9.95 10.2, 9.69 10.42 C9.43 10.64, 9.15 10.84, 8.85 11.01 C8.55 11.18, 8.24 11.33, 7.92 11.44 C7.6 11.56, 7.26 11.65, 6.92 11.71 C6.59 11.77, 6.24 11.8, 5.9 11.8 C5.56 11.8, 5.21 11.77, 4.88 11.71 C4.54 11.65, 4.2 11.56, 3.88 11.44 C3.56 11.33, 3.25 11.18, 2.95 11.01 C2.65 10.84, 2.37 10.64, 2.11 10.42 C1.85 10.2, 1.6 9.95, 1.38 9.69 C1.16 9.43, 0.96 9.15, 0.79 8.85 C0.62 8.55, 0.47 8.24, 0.36 7.92 C0.24 7.6, 0.15 7.26, 0.09 6.92 C0.03 6.59, 0 6.24, 0 5.9 C0 5.56, 0.03 5.21, 0.09 4.88 C0.15 4.54, 0.24 4.2, 0.36 3.88 C0.47 3.56, 0.62 3.25, 0.79 2.95 C0.96 2.65, 1.16 2.37, 1.38 2.11 C1.6 1.85, 1.85 1.6, 2.11 1.38 C2.37 1.16, 2.65 0.96, 2.95 0.79 C3.25 0.62, 3.56 0.47, 3.88 0.36 C4.2 0.24, 4.54 0.15, 4.88 0.09 C5.21 0.03, 5.56 0, 5.9 0 C6.24 0, 6.59 0.03, 6.92 0.09 C7.26 0.15, 7.6 0.24, 7.92 0.36 C8.24 0.47, 8.55 0.62, 8.85 0.79 C9.15 0.96, 9.43 1.16, 9.69 1.38 C9.95 1.6, 10.2 1.85, 10.42 2.11 C10.64 2.37, 10.84 2.65, 11.01 2.95 C11.18 3.25, 11.33 3.56, 11.44 3.88 C11.56 4.2, 11.65 4.54, 11.71 4.88 C11.77 5.21, 11.79 5.73, 11.8 5.9 C11.82 6.07, 11.82 5.73, 11.8 5.9" stroke="#e03131" stroke-width="1" fill="none"></path></g><g stroke-linecap="round" transform="translate(333.9580466245843 339.1196130338885) rotate(0 5.9002718712058595 5.9002718712058595)"><path d="M11.8 5.9 C11.8 6.24, 11.77 6.59, 11.71 6.92 C11.65 7.26, 11.56 7.6, 11.44 7.92 C11.33 8.24, 11.18 8.55, 11.01 8.85 C10.84 9.15, 10.64 9.43, 10.42 9.69 C10.2 9.95, 9.95 10.2, 9.69 10.42 C9.43 10.64, 9.15 10.84, 8.85 11.01 C8.55 11.18, 8.24 11.33, 7.92 11.44 C7.6 11.56, 7.26 11.65, 6.92 11.71 C6.59 11.77, 6.24 11.8, 5.9 11.8 C5.56 11.8, 5.21 11.77, 4.88 11.71 C4.54 11.65, 4.2 11.56, 3.88 11.44 C3.56 11.33, 3.25 11.18, 2.95 11.01 C2.65 10.84, 2.37 10.64, 2.11 10.42 C1.85 10.2, 1.6 9.95, 1.38 9.69 C1.16 9.43, 0.96 9.15, 0.79 8.85 C0.62 8.55, 0.47 8.24, 0.36 7.92 C0.24 7.6, 0.15 7.26, 0.09 6.92 C0.03 6.59, 0 6.24, 0 5.9 C0 5.56, 0.03 5.21, 0.09 4.88 C0.15 4.54, 0.24 4.2, 0.36 3.88 C0.47 3.56, 0.62 3.25, 0.79 2.95 C0.96 2.65, 1.16 2.37, 1.38 2.11 C1.6 1.85, 1.85 1.6, 2.11 1.38 C2.37 1.16, 2.65 0.96, 2.95 0.79 C3.25 0.62, 3.56 0.47, 3.88 0.36 C4.2 0.24, 4.54 0.15, 4.88 0.09 C5.21 0.03, 5.56 0, 5.9 0 C6.24 0, 6.59 0.03, 6.92 0.09 C7.26 0.15, 7.6 0.24, 7.92 0.36 C8.24 0.47, 8.55 0.62, 8.85 0.79 C9.15 0.96, 9.43 1.16, 9.69 1.38 C9.95 1.6, 10.2 1.85, 10.42 2.11 C10.64 2.37, 10.84 2.65, 11.01 2.95 C11.18 3.25, 11.33 3.56, 11.44 3.88 C11.56 4.2, 11.65 4.54, 11.71 4.88 C11.77 5.21, 11.79 5.73, 11.8 5.9 C11.82 6.07, 11.82 5.73, 11.8 5.9" stroke="#e03131" stroke-width="1" fill="none"></path></g><g transform="translate(33.267109492369855 328.48628901270604) rotate(0 4.44921875 9.199999999999818)"><text x="0" y="14.720312499999999" font-family="Helvetica, Segoe UI Emoji" font-size="16px" fill="#e03131" text-anchor="start" style="white-space: pre;" direction="ltr" dominant-baseline="alphabetic">1</text></g><g transform="translate(19.334037463695495 337.3879235539007) rotate(0 4.44921875 9.199999999999818)"><text x="0" y="14.720312499999999" font-family="Helvetica, Segoe UI Emoji" font-size="16px" fill="#e03131" text-anchor="start" style="white-space: pre;" direction="ltr" dominant-baseline="alphabetic">2</text></g><g transform="translate(10 357.31406718396283) rotate(0 4.44921875 9.199999999999818)"><text x="0" y="14.720312499999999" font-family="Helvetica, Segoe UI Emoji" font-size="16px" fill="#e03131" text-anchor="start" style="white-space: pre;" direction="ltr" dominant-baseline="alphabetic">3</text></g><g transform="translate(15.987510690754789 379.5597949920193) rotate(0 4.44921875 9.199999999999818)"><text x="0" y="14.720312499999999" font-family="Helvetica, Segoe UI Emoji" font-size="16px" fill="#e03131" text-anchor="start" style="white-space: pre;" direction="ltr" dominant-baseline="alphabetic">4</text></g><g transform="translate(35.26797376781724 391.65165990443165) rotate(0 4.44921875 9.199999999999818)"><text x="0" y="14.720312499999999" font-family="Helvetica, Segoe UI Emoji" font-size="16px" fill="#e03131" text-anchor="start" style="white-space: pre;" direction="ltr" dominant-baseline="alphabetic">5</text></g><g transform="translate(341.3833339920584 324.12444323943055) rotate(0 4.44921875 9.199999999999818)"><text x="0" y="14.720312499999999" font-family="Helvetica, Segoe UI Emoji" font-size="16px" fill="#e03131" text-anchor="start" style="white-space: pre;" direction="ltr" dominant-baseline="alphabetic">6</text></g><g transform="translate(356.9153215496008 338.08220846197764) rotate(0 4.44921875 9.199999999999818)"><text x="0" y="14.720312499999999" font-family="Helvetica, Segoe UI Emoji" font-size="16px" fill="#e03131" text-anchor="start" style="white-space: pre;" direction="ltr" dominant-baseline="alphabetic">7</text></g><g transform="translate(358.65249481021783 358.7689739611942) rotate(0 4.44921875 9.199999999999818)"><text x="0" y="14.720312499999999" font-family="Helvetica, Segoe UI Emoji" font-size="16px" fill="#e03131" text-anchor="start" style="white-space: pre;" direction="ltr" dominant-baseline="alphabetic">8</text></g><g transform="translate(347.61256959953425 376.71685448293647) rotate(0 4.44921875 9.199999999999818)"><text x="0" y="14.720312499999999" font-family="Helvetica, Segoe UI Emoji" font-size="16px" fill="#e03131" text-anchor="start" style="white-space: pre;" direction="ltr" dominant-baseline="alphabetic">9</text></g><g transform="translate(324.0385173870054 385.3139707283135) rotate(0 8.8984375 9.199999999999818)"><text x="0" y="14.720312499999999" font-family="Helvetica, Segoe UI Emoji" font-size="16px" fill="#e03131" text-anchor="start" style="white-space: pre;" direction="ltr" dominant-baseline="alphabetic">10</text></g><g stroke-linecap="round" transform="translate(295.74602946395044 10) rotate(0 33.00458836252483 32.988525390625)"><path d="M29.4 0.01 C35.36 -1.28, 43.07 0.62, 48.7 3.93 C54.34 7.23, 60.43 13.81, 63.21 19.82 C65.99 25.84, 66.56 33.68, 65.37 40.04 C64.18 46.39, 60.69 53.57, 56.09 57.95 C51.48 62.33, 44.19 65.77, 37.73 66.33 C31.27 66.89, 23.2 64.54, 17.3 61.32 C11.41 58.11, 5.12 52.86, 2.36 47.03 C-0.41 41.21, -0.74 32.84, 0.71 26.38 C2.16 19.91, 5.68 12.68, 11.04 8.23 C16.39 3.77, 28.78 0.94, 32.84 -0.35 C36.89 -1.65, 35.3 -0.25, 35.36 0.47 M19.16 1.28 C24.95 -1.68, 34.75 -0.62, 41.29 1.09 C47.82 2.79, 54.06 6.69, 58.37 11.51 C62.68 16.33, 66.47 23.59, 67.16 30.03 C67.85 36.46, 65.93 44.8, 62.5 50.13 C59.08 55.46, 52.95 59.47, 46.62 62.02 C40.28 64.57, 30.63 66.67, 24.47 65.42 C18.32 64.17, 13.83 59.23, 9.67 54.52 C5.5 49.8, 0.36 43.52, -0.51 37.15 C-1.39 30.78, 1.17 21.94, 4.43 16.27 C7.7 10.6, 16.53 5.36, 19.09 3.13 C21.65 0.9, 19.55 2.68, 19.78 2.89" stroke="none" stroke-width="0" fill="#fff"></path><path d="M19.38 3.7 C24.88 0.8, 32.76 -0.51, 38.95 0.74 C45.13 1.98, 51.92 6.59, 56.48 11.19 C61.05 15.79, 65.47 22.21, 66.33 28.33 C67.19 34.45, 64.98 42.26, 61.66 47.92 C58.34 53.57, 52.12 59.5, 46.4 62.28 C40.68 65.06, 33.64 65.58, 27.33 64.6 C21.02 63.62, 12.91 60.95, 8.55 56.38 C4.18 51.81, 2.03 43.8, 1.13 37.17 C0.24 30.53, -1.08 22.69, 3.17 16.54 C7.42 10.39, 21.51 2.74, 26.66 0.25 C31.81 -2.23, 34.11 0.98, 34.09 1.64 M37.59 -0.38 C43.27 0.08, 50.57 5.4, 55.37 10.06 C60.17 14.73, 65.48 20.96, 66.39 27.61 C67.29 34.26, 64.01 44.02, 60.82 49.98 C57.63 55.93, 52.86 60.97, 47.26 63.34 C41.66 65.7, 33.42 65.35, 27.23 64.16 C21.03 62.98, 14.59 60.77, 10.08 56.23 C5.56 51.7, 0.96 43.34, 0.14 36.97 C-0.69 30.59, 1.99 23.75, 5.12 17.96 C8.25 12.18, 13.24 5.2, 18.92 2.26 C24.59 -0.67, 35.92 0.38, 39.16 0.34 C42.4 0.31, 38.56 1.56, 38.35 2.04" stroke="#000000" stroke-width="1" fill="none"></path></g><g stroke-linecap="round" transform="translate(309.59718984998017 15.2129863664195) rotate(0 40.130859375 40.111328125)"><path d="M35.17 0.99 C41.97 -0.41, 51.48 1.62, 58.13 4.73 C64.78 7.85, 71.33 13.73, 75.08 19.67 C78.83 25.62, 81 33.24, 80.62 40.4 C80.23 47.56, 76.83 56.57, 72.76 62.62 C68.69 68.66, 62.62 73.92, 56.18 76.67 C49.75 79.42, 41.28 80.3, 34.15 79.11 C27.01 77.93, 18.99 74.36, 13.37 69.56 C7.75 64.76, 2.28 57.11, 0.42 50.3 C-1.43 43.5, 0.04 35.65, 2.24 28.72 C4.44 21.8, 7.51 13.59, 13.62 8.74 C19.72 3.88, 34.43 0.79, 38.88 -0.4 C43.33 -1.59, 40.36 0.77, 40.32 1.59 M46.4 0.75 C53.14 0.85, 61.35 3.62, 66.47 8.25 C71.59 12.89, 74.81 21.5, 77.09 28.56 C79.37 35.61, 81.97 43.5, 80.15 50.59 C78.32 57.68, 71.78 66.22, 66.12 71.08 C60.46 75.94, 53.37 78.73, 46.21 79.75 C39.05 80.77, 29.82 80.19, 23.17 77.19 C16.53 74.19, 10.3 68.08, 6.33 61.76 C2.36 55.44, -0.69 46.32, -0.64 39.25 C-0.59 32.18, 2.76 25.49, 6.63 19.34 C10.5 13.19, 15.95 5.73, 22.58 2.34 C29.21 -1.06, 42.83 -0.72, 46.41 -1.05 C49.99 -1.37, 44.5 -0.72, 44.06 0.38" stroke="none" stroke-width="0" fill="#fff"></path><path d="M24.74 3.28 C30.69 0.22, 39.58 0.42, 46.8 1.62 C54.01 2.81, 62.74 5.83, 68.04 10.46 C73.34 15.09, 77.04 22.44, 78.59 29.41 C80.14 36.37, 79.48 45.43, 77.32 52.27 C75.15 59.11, 71.17 65.73, 65.6 70.46 C60.03 75.18, 50.99 79.7, 43.9 80.59 C36.81 81.48, 29.57 79.23, 23.07 75.77 C16.56 72.32, 8.65 66.08, 4.88 59.84 C1.1 53.6, 0.06 45.24, 0.41 38.31 C0.76 31.38, 2.81 24.15, 6.99 18.25 C11.17 12.36, 22.01 5.35, 25.47 2.94 C28.92 0.52, 27.3 3.32, 27.73 3.75 M29 0.88 C35.43 -1.43, 42.82 0.68, 49.65 2.88 C56.49 5.09, 64.97 9.15, 70 14.1 C75.03 19.05, 78.54 25.49, 79.83 32.59 C81.13 39.69, 80.7 49.95, 77.74 56.7 C74.79 63.44, 68.08 69.05, 62.1 73.06 C56.12 77.07, 49.02 80.77, 41.87 80.78 C34.71 80.79, 25.45 77.06, 19.16 73.11 C12.88 69.16, 7.36 63.3, 4.16 57.08 C0.96 50.86, -0.87 43.02, -0.04 35.79 C0.78 28.56, 4.21 19.46, 9.11 13.7 C14.01 7.94, 26.17 3.05, 29.35 1.23 C32.53 -0.59, 28.06 1.95, 28.19 2.76" stroke="#000000" stroke-width="1" fill="none"></path></g><g stroke-linecap="round" transform="translate(340.45705313123017 14.504739200368931) rotate(0 40.130859375 40.111328125)"><path d="M54.7 3.28 C61.47 5.12, 68.68 11.03, 72.98 16.59 C77.28 22.16, 80.23 29.54, 80.52 36.68 C80.8 43.82, 78.19 53.04, 74.69 59.43 C71.19 65.82, 65.67 71.67, 59.53 75.03 C53.39 78.38, 45.06 80.06, 37.85 79.54 C30.64 79.03, 22.3 76.2, 16.26 71.92 C10.21 67.64, 4.06 60.45, 1.57 53.85 C-0.93 47.25, -0.26 39.43, 1.29 32.33 C2.84 25.23, 5.73 16.56, 10.87 11.25 C16.01 5.94, 24.36 1.49, 32.15 0.49 C39.94 -0.51, 52.55 3.99, 57.62 5.27 C62.7 6.54, 62.69 7.53, 62.59 8.14 M43.41 -1.12 C49.89 -1.22, 56.81 3.73, 62.76 8.21 C68.71 12.68, 76.44 18.83, 79.09 25.73 C81.75 32.62, 80.47 42.47, 78.68 49.6 C76.9 56.72, 73.52 63.45, 68.4 68.47 C63.28 73.48, 55.04 78.22, 47.95 79.69 C40.85 81.15, 32.58 80.06, 25.82 77.25 C19.06 74.43, 11.58 68.44, 7.38 62.81 C3.18 57.19, 1.11 50.72, 0.63 43.49 C0.14 36.26, 0.91 26.07, 4.47 19.41 C8.02 12.75, 15.72 6.88, 21.94 3.53 C28.16 0.19, 38.46 -0.42, 41.78 -0.65 C45.1 -0.89, 41.55 1.37, 41.86 2.11" stroke="none" stroke-width="0" fill="#fff"></path><path d="M48.51 1.96 C55.43 2.84, 64.21 6.82, 69.29 11.68 C74.37 16.53, 77.75 24.06, 78.99 31.1 C80.23 38.14, 79.2 47.18, 76.73 53.91 C74.27 60.65, 69.98 67.05, 64.22 71.52 C58.46 75.99, 49.28 80.17, 42.16 80.74 C35.05 81.31, 27.88 78.7, 21.52 74.96 C15.17 71.23, 7.52 64.72, 4.02 58.32 C0.51 51.92, -0.16 43.49, 0.5 36.57 C1.17 29.66, 3.78 22.47, 8.01 16.84 C12.24 11.21, 18.28 5.07, 25.89 2.78 C33.51 0.48, 48.36 2.88, 53.71 3.06 C59.06 3.25, 58.4 3.57, 58.02 3.9 M37.69 1.42 C44.41 0.92, 54.31 3.12, 60.72 6.4 C67.14 9.68, 72.84 14.66, 76.2 21.1 C79.56 27.55, 81.75 37.76, 80.89 45.07 C80.03 52.39, 75.56 59.36, 71.04 64.98 C66.52 70.61, 60.56 76.66, 53.76 78.81 C46.95 80.96, 37.37 79.84, 30.23 77.88 C23.08 75.92, 15.89 72.08, 10.89 67.07 C5.89 62.06, 1.56 55.02, 0.21 47.84 C-1.13 40.65, -0.24 30.86, 2.81 23.96 C5.86 17.07, 12.53 10.42, 18.5 6.46 C24.46 2.51, 35.08 1.09, 38.61 0.24 C42.13 -0.62, 39.63 0.8, 39.65 1.34" stroke="#000000" stroke-width="1" fill="none"></path></g><g stroke-linecap="round" transform="translate(377.30080313123017 14.504739200368931) rotate(0 40.130859375 40.111328125)"><path d="M54.29 2.89 C60.91 4.43, 68.02 9.4, 72.2 15.04 C76.39 20.68, 78.81 29.5, 79.4 36.74 C79.99 43.98, 78.92 52.2, 75.77 58.48 C72.61 64.76, 66.74 70.84, 60.46 74.4 C54.17 77.95, 45.53 80.16, 38.06 79.81 C30.59 79.45, 21.46 76.33, 15.64 72.26 C9.83 68.2, 5.78 62.19, 3.17 55.42 C0.55 48.66, -1.5 38.97, -0.04 31.7 C1.41 24.43, 6.91 16.77, 11.91 11.79 C16.91 6.82, 22.12 2.97, 29.96 1.84 C37.79 0.71, 53.37 3.8, 58.94 5.01 C64.52 6.22, 63.71 8.45, 63.39 9.09 M44.2 0.6 C51.24 1.12, 61.98 4.47, 67.6 9.3 C73.21 14.12, 76.07 22.58, 77.9 29.56 C79.73 36.54, 80.59 44.34, 78.58 51.19 C76.57 58.04, 71.32 65.96, 65.85 70.65 C60.39 75.34, 52.91 78.54, 45.77 79.32 C38.64 80.1, 29.5 78.14, 23.04 75.34 C16.58 72.53, 10.94 68.57, 7.03 62.49 C3.12 56.41, -0.47 46.4, -0.43 38.86 C-0.38 31.32, 3.55 23.23, 7.3 17.25 C11.05 11.27, 15.84 5.58, 22.05 2.97 C28.26 0.36, 40.48 1.94, 44.55 1.59 C48.62 1.24, 46.41 0.38, 46.47 0.86" stroke="none" stroke-width="0" fill="#fff"></path><path d="M44.81 -0.04 C51.7 -0.18, 59.33 3.55, 64.73 8.02 C70.13 12.49, 74.79 19.96, 77.22 26.79 C79.65 33.61, 81 41.78, 79.3 48.97 C77.61 56.16, 72.22 64.86, 67.05 69.92 C61.89 74.97, 55.46 78.22, 48.31 79.31 C41.17 80.4, 30.98 79.21, 24.21 76.45 C17.43 73.69, 11.73 68.36, 7.68 62.74 C3.63 57.11, 0.34 49.82, -0.1 42.73 C-0.54 35.64, 1.33 26.43, 5.06 20.17 C8.8 13.91, 14.78 8.48, 22.32 5.17 C29.86 1.86, 45.06 0.73, 50.33 0.3 C55.6 -0.14, 54.23 1.7, 53.94 2.57 M28.17 2.44 C34.79 -0.58, 43.82 -1.72, 50.96 0.18 C58.09 2.08, 66.2 8.3, 70.98 13.83 C75.75 19.36, 78.42 26.18, 79.6 33.34 C80.78 40.51, 80.91 50.29, 78.07 56.82 C75.24 63.35, 68.76 68.65, 62.58 72.52 C56.4 76.39, 48.35 79.62, 41.01 80.04 C33.67 80.46, 24.78 78.91, 18.53 75.02 C12.28 71.14, 6.38 63.5, 3.52 56.74 C0.66 49.97, 0.44 41.45, 1.36 34.41 C2.29 27.37, 4.48 19.84, 9.08 14.49 C13.67 9.14, 25.76 4.39, 28.95 2.3 C32.13 0.22, 28.16 1.38, 28.18 2" stroke="#000000" stroke-width="1" fill="none"></path></g><g stroke-linecap="round" transform="translate(422.03908438123017 14.504739200368931) rotate(0 40.130859375 40.111328125)"><path d="M55.79 2.54 C62.11 4.57, 68.26 11.38, 72.35 17.35 C76.44 23.32, 79.85 31.27, 80.32 38.37 C80.79 45.46, 78.85 53.73, 75.17 59.94 C71.49 66.14, 64.97 72.31, 58.26 75.59 C51.55 78.88, 42.06 80.22, 34.92 79.63 C27.77 79.04, 21.01 76.6, 15.4 72.04 C9.79 67.48, 3.51 59.32, 1.25 52.28 C-1 45.24, 0.12 36.6, 1.87 29.81 C3.62 23.03, 6.55 16.36, 11.76 11.57 C16.97 6.78, 24.56 1.68, 33.14 1.09 C41.73 0.49, 57.27 5.86, 63.26 8.02 C69.25 10.18, 69.45 13.59, 69.07 14.04 M25.66 2.92 C31.87 -0.18, 39.19 0.28, 46.07 1.53 C52.95 2.78, 61.62 5.65, 66.96 10.41 C72.31 15.17, 76.29 23.17, 78.14 30.07 C79.99 36.97, 80.24 45.23, 78.06 51.82 C75.88 58.42, 70.51 64.89, 65.07 69.65 C59.64 74.42, 52.61 79.58, 45.47 80.42 C38.32 81.27, 28.63 78.18, 22.21 74.71 C15.79 71.25, 10.85 65.69, 6.95 59.64 C3.05 53.6, -0.99 45.24, -1.17 38.45 C-1.36 31.66, 1.42 24.8, 5.82 18.88 C10.23 12.97, 22.17 5.41, 25.27 2.95 C28.36 0.48, 24.34 3.25, 24.42 4.11" stroke="none" stroke-width="0" fill="#fff"></path><path d="M58.83 4.12 C64.88 6.86, 70.77 14.01, 74.37 20.32 C77.96 26.63, 80.84 34.59, 80.4 41.98 C79.97 49.37, 75.97 58.73, 71.75 64.63 C67.54 70.54, 61.93 75.09, 55.13 77.4 C48.33 79.72, 38.12 80.08, 30.97 78.53 C23.82 76.99, 17.27 72.94, 12.25 68.14 C7.22 63.34, 2.52 56.67, 0.81 49.74 C-0.89 42.82, -0.54 33.37, 2.04 26.57 C4.62 19.76, 10.35 13.46, 16.32 8.91 C22.28 4.37, 30.3 -0.18, 37.85 -0.72 C45.4 -1.27, 57.18 3.91, 61.61 5.65 C66.05 7.39, 64.84 9.16, 64.47 9.73 M58.29 3.02 C64.84 5.57, 71.98 13.82, 75.61 20.18 C79.24 26.54, 80.29 33.94, 80.06 41.18 C79.83 48.43, 78.29 57.83, 74.22 63.67 C70.15 69.5, 62.48 73.58, 55.63 76.2 C48.79 78.82, 40.4 80.38, 33.17 79.38 C25.95 78.39, 17.69 75.24, 12.3 70.24 C6.91 65.23, 2.39 56.59, 0.86 49.34 C-0.66 42.09, 0.83 33.48, 3.13 26.76 C5.44 20.03, 9.12 13.35, 14.7 9.01 C20.29 4.67, 29.45 1.61, 36.65 0.73 C43.85 -0.14, 54.41 2.97, 57.89 3.75 C61.36 4.54, 57.56 4.74, 57.49 5.42" stroke="#000000" stroke-width="1" fill="none"></path></g><g stroke-linecap="round" transform="translate(468.81642813123017 14.504739200368931) rotate(0 40.130859375 40.111328125)"><path d="M51.13 1.92 C57.82 3.42, 65.94 8.53, 70.82 13.92 C75.7 19.3, 79.44 27.09, 80.4 34.23 C81.36 41.38, 79.88 50.22, 76.56 56.8 C73.24 63.38, 66.56 69.7, 60.48 73.71 C54.4 77.72, 47.31 80.98, 40.11 80.87 C32.9 80.77, 23.26 77.22, 17.26 73.07 C11.26 68.91, 7.05 62.33, 4.09 55.95 C1.13 49.56, -1.53 41.75, -0.5 34.76 C0.53 27.76, 5.28 19.36, 10.28 13.97 C15.28 8.57, 21.07 3.65, 29.49 2.38 C37.9 1.1, 54.37 4.67, 60.78 6.34 C67.2 8, 68.48 12.07, 67.98 12.37 M42.45 1.1 C49.09 1.11, 58.39 3.84, 64.15 8.08 C69.91 12.33, 74.56 19.89, 77.03 26.59 C79.51 33.3, 80.55 41.53, 79.01 48.3 C77.46 55.07, 72.77 61.95, 67.78 67.2 C62.79 72.45, 56.1 78.33, 49.07 79.82 C42.03 81.31, 32.24 79.01, 25.56 76.15 C18.89 73.29, 13.44 68.34, 9 62.67 C4.55 56.99, -0.24 48.88, -1.09 42.1 C-1.94 35.32, 0.08 28.26, 3.92 22 C7.77 15.74, 15.48 8.16, 21.98 4.54 C28.48 0.91, 39.43 0.64, 42.93 0.23 C46.43 -0.18, 43.1 1.65, 42.96 2.08" stroke="none" stroke-width="0" fill="#fff"></path><path d="M34.39 -0.15 C41.24 -1.55, 51.27 -0.16, 57.84 3.16 C64.4 6.48, 69.89 13.51, 73.77 19.78 C77.64 26.05, 81.28 33.77, 81.09 40.76 C80.9 47.75, 76.74 55.77, 72.63 61.73 C68.51 67.69, 62.91 73.37, 56.38 76.52 C49.84 79.67, 40.68 81.7, 33.41 80.64 C26.14 79.58, 18.03 75.05, 12.75 70.17 C7.47 65.29, 3.43 58.56, 1.74 51.38 C0.05 44.21, 0.58 34.31, 2.62 27.13 C4.65 19.94, 6.92 12.66, 13.93 8.26 C20.94 3.86, 38.16 1.71, 44.67 0.72 C51.19 -0.27, 52.95 1.77, 53.04 2.34 M49.65 1.35 C56.45 2.41, 63.26 6.17, 68.41 11.32 C73.57 16.47, 78.98 25.27, 80.57 32.25 C82.17 39.23, 80.67 46.55, 77.98 53.2 C75.28 59.84, 70.32 67.48, 64.41 72.11 C58.5 76.74, 49.84 80.56, 42.51 81 C35.19 81.43, 26.56 78.43, 20.46 74.72 C14.36 71, 9.34 64.92, 5.89 58.69 C2.44 52.47, -0.72 44.4, -0.25 37.37 C0.22 30.33, 4.38 22.41, 8.73 16.51 C13.08 10.6, 19.25 4.47, 25.87 1.94 C32.48 -0.59, 44.43 1.37, 48.39 1.33 C52.36 1.29, 49.57 0.95, 49.66 1.69" stroke="#000000" stroke-width="1" fill="none"></path></g><g stroke-linecap="round" transform="translate(297.71477946395044 53.318158318015776) rotate(0 40.130859375 40.111328125)"><path d="M30.63 0.92 C37.37 -1.4, 46.78 -0.74, 53.62 1.58 C60.47 3.9, 67.45 9.15, 71.7 14.86 C75.94 20.56, 78.31 28.44, 79.07 35.8 C79.83 43.16, 79.52 52.62, 76.25 59.03 C72.99 65.43, 65.7 70.77, 59.49 74.22 C53.28 77.67, 46.24 79.84, 38.99 79.74 C31.74 79.64, 21.97 77.66, 15.99 73.63 C10.01 69.6, 5.63 62.26, 3.13 55.58 C0.62 48.89, -0.37 40.58, 0.96 33.52 C2.3 26.46, 4.97 18.75, 11.14 13.23 C17.3 7.71, 32.47 2.55, 37.95 0.37 C43.42 -1.81, 43.96 -0.62, 43.98 0.15 M35.45 0.27 C42.2 -1.17, 50.65 1.39, 57.11 4.51 C63.57 7.62, 70.44 13.06, 74.19 18.96 C77.94 24.86, 79.67 32.53, 79.6 39.92 C79.53 47.3, 77.82 57.31, 73.77 63.26 C69.72 69.2, 61.88 73.07, 55.31 75.57 C48.73 78.06, 41.58 79.36, 34.33 78.25 C27.08 77.14, 17.48 73.35, 11.8 68.9 C6.12 64.44, 1.74 58.42, 0.27 51.51 C-1.21 44.59, 0.56 34.44, 2.95 27.39 C5.33 20.33, 9.13 13.49, 14.56 9.16 C19.98 4.84, 32.09 3, 35.48 1.43 C38.87 -0.14, 34.74 -0.49, 34.9 -0.26" stroke="none" stroke-width="0" fill="#fff"></path><path d="M26.32 1.69 C32.61 -1.06, 40.88 -0.12, 48.05 1.52 C55.21 3.15, 64.24 6.62, 69.33 11.49 C74.41 16.37, 77.1 23.73, 78.56 30.76 C80.03 37.79, 80.54 46.6, 78.12 53.67 C75.71 60.74, 69.99 68.7, 64.06 73.17 C58.14 77.63, 49.71 79.95, 42.58 80.45 C35.45 80.95, 27.43 79.81, 21.27 76.15 C15.12 72.49, 9.28 65.16, 5.65 58.52 C2.02 51.88, -0.88 43.3, -0.5 36.31 C-0.12 29.31, 3.14 22.47, 7.93 16.55 C12.73 10.62, 24.13 3.25, 28.28 0.76 C32.43 -1.73, 32.48 0.81, 32.84 1.6 M23.2 3.16 C29.25 -0.19, 39.71 0.03, 46.95 0.95 C54.18 1.87, 61.28 4.1, 66.61 8.7 C71.94 13.3, 76.97 21.29, 78.92 28.53 C80.87 35.78, 80.42 45.3, 78.29 52.18 C76.16 59.06, 71.36 65.29, 66.14 69.81 C60.93 74.32, 54.14 78.07, 46.98 79.25 C39.82 80.43, 29.84 79.67, 23.2 76.86 C16.55 74.05, 11.01 68.6, 7.09 62.4 C3.17 56.2, -0.15 46.91, -0.34 39.66 C-0.53 32.41, 1.81 24.91, 5.94 18.91 C10.07 12.9, 21.3 5.9, 24.43 3.64 C27.56 1.38, 24.42 4.53, 24.72 5.34" stroke="#000000" stroke-width="1" fill="none"></path></g><g stroke-linecap="round" transform="translate(295.74602946395044 101.15478515625) rotate(0 33.00458836252483 32.988525390625)"><path d="M41.93 1.61 C47.89 3.01, 55.34 7.84, 59.44 12.87 C63.53 17.91, 66.37 25.36, 66.49 31.81 C66.61 38.25, 64.11 46.2, 60.15 51.54 C56.2 56.87, 48.84 61.53, 42.78 63.8 C36.71 66.08, 29.93 67.11, 23.77 65.19 C17.61 63.28, 9.69 57.64, 5.84 52.3 C1.98 46.96, 0.79 39.38, 0.64 33.14 C0.5 26.9, 1.35 20, 4.98 14.85 C8.62 9.7, 14.8 3.73, 22.44 2.24 C30.08 0.75, 45.07 4.33, 50.81 5.92 C56.56 7.5, 57.2 11.39, 56.91 11.76 M21.35 2.34 C26.94 -0.37, 33.56 0.31, 39.62 1.8 C45.68 3.28, 53.44 6.49, 57.69 11.25 C61.94 16.01, 64.57 24, 65.13 30.36 C65.69 36.71, 64.35 44.14, 61.06 49.4 C57.77 54.66, 51.19 59.23, 45.39 61.94 C39.59 64.65, 32.52 67.1, 26.24 65.65 C19.97 64.2, 11.93 58.41, 7.76 53.24 C3.59 48.07, 1.92 40.93, 1.2 34.62 C0.48 28.31, 0.5 20.49, 3.46 15.37 C6.41 10.25, 15.97 5.96, 18.93 3.89 C21.89 1.83, 20.85 2.65, 21.21 2.97" stroke="none" stroke-width="0" fill="#fff"></path><path d="M25.22 1.4 C31.22 -0.27, 41.05 0.14, 46.95 2.48 C52.86 4.81, 57.42 9.87, 60.64 15.4 C63.86 20.93, 66.75 28.93, 66.25 35.66 C65.74 42.39, 62.04 50.79, 57.62 55.77 C53.21 60.75, 45.99 64.13, 39.76 65.52 C33.53 66.9, 25.98 66.85, 20.24 64.08 C14.51 61.32, 8.77 54.8, 5.32 48.94 C1.87 43.07, -0.93 35.13, -0.45 28.91 C0.03 22.69, 3.72 16.49, 8.2 11.62 C12.67 6.75, 22.9 1.48, 26.4 -0.3 C29.91 -2.08, 28.95 0.24, 29.23 0.93 M19.05 2.51 C24.49 -0.43, 34.27 0.02, 40.68 1.2 C47.1 2.38, 53.31 4.96, 57.54 9.59 C61.78 14.22, 65.45 22.23, 66.1 28.97 C66.74 35.7, 64.68 44.43, 61.41 50 C58.13 55.58, 52.09 59.95, 46.45 62.41 C40.81 64.87, 33.91 65.93, 27.57 64.79 C21.23 63.65, 12.83 60.15, 8.39 55.58 C3.94 51.01, 1.64 43.9, 0.89 37.35 C0.14 30.8, 0.89 21.95, 3.88 16.29 C6.88 10.63, 16.07 5.53, 18.84 3.41 C21.62 1.29, 20.09 3, 20.55 3.59" stroke="#000000" stroke-width="1" fill="none"></path></g><g stroke-linecap="round" transform="translate(332.82033438123017 86.18930951286893) rotate(0 40.130859375 40.111328125)"><path d="M35.32 -0.05 C41.82 -1.42, 49.97 0.3, 56.54 3.6 C63.1 6.9, 70.9 13.64, 74.71 19.76 C78.53 25.89, 79.54 33.31, 79.43 40.36 C79.33 47.4, 78.14 55.8, 74.09 62.02 C70.03 68.25, 61.8 74.68, 55.09 77.69 C48.38 80.71, 40.76 81.28, 33.83 80.13 C26.9 78.97, 18.89 75.56, 13.51 70.76 C8.13 65.96, 3.44 58.41, 1.55 51.34 C-0.35 44.27, 0.12 35.5, 2.13 28.33 C4.15 21.17, 7.25 12.91, 13.65 8.34 C20.06 3.77, 35.3 2.18, 40.57 0.92 C45.84 -0.35, 45.19 0.22, 45.27 0.73 M39.97 -0.46 C46.86 -1.28, 55.1 1, 61.31 5.09 C67.52 9.18, 74.21 17.52, 77.22 24.08 C80.24 30.64, 80.37 37.63, 79.4 44.47 C78.43 51.31, 76.3 59.54, 71.42 65.11 C66.54 70.68, 57.4 75.44, 50.1 77.89 C42.81 80.33, 34.2 81.76, 27.63 79.77 C21.06 77.78, 15.25 71.61, 10.68 65.95 C6.11 60.29, 1.38 52.7, 0.2 45.78 C-0.98 38.87, 0.66 31.28, 3.59 24.48 C6.53 17.68, 11.61 9.28, 17.8 4.96 C23.98 0.65, 36.83 -0.7, 40.7 -1.43 C44.58 -2.16, 41.06 -0.52, 41.04 0.6" stroke="none" stroke-width="0" fill="#fff"></path><path d="M24.56 3.27 C30.57 -0.29, 38.27 -1.4, 45.35 -0.35 C52.43 0.69, 61.48 4.48, 67.01 9.55 C72.55 14.61, 76.73 22.97, 78.58 30.05 C80.43 37.13, 80.12 45.12, 78.12 52.02 C76.11 58.92, 71.85 66.94, 66.55 71.44 C61.24 75.94, 53.61 78.34, 46.29 79.02 C38.96 79.7, 29.29 78.35, 22.6 75.51 C15.91 72.68, 10.02 68.1, 6.16 62.01 C2.29 55.92, -0.82 46.29, -0.6 38.97 C-0.38 31.65, 2.64 24.28, 7.46 18.11 C12.28 11.94, 24.31 4.61, 28.32 1.95 C32.32 -0.7, 31.31 1.56, 31.49 2.17 M33.69 -0.46 C40.22 -2.29, 49.64 -0.11, 56.18 3.04 C62.72 6.19, 69 12.52, 72.95 18.44 C76.9 24.36, 79.48 31.55, 79.9 38.54 C80.32 45.53, 79.22 54.08, 75.46 60.38 C71.71 66.69, 63.93 73.04, 57.37 76.38 C50.8 79.73, 43.27 81.44, 36.09 80.46 C28.92 79.49, 20.05 75.14, 14.29 70.53 C8.53 65.92, 3.53 59.58, 1.56 52.78 C-0.42 45.99, 0.32 36.66, 2.41 29.76 C4.51 22.87, 8.75 16.09, 14.11 11.42 C19.47 6.74, 31.2 3.32, 34.58 1.73 C37.97 0.15, 34.64 1.61, 34.43 1.9" stroke="#000000" stroke-width="1" fill="none"></path></g><g stroke-linecap="round" transform="translate(369.66408438123017 86.18930951286893) rotate(0 40.130859375 40.111328125)"><path d="M27.6 1.33 C34.07 -1.02, 44.62 0.25, 51.6 2.21 C58.58 4.17, 64.67 7.85, 69.48 13.1 C74.29 18.35, 79.41 26.35, 80.46 33.72 C81.5 41.09, 78.8 50.58, 75.76 57.32 C72.72 64.06, 68.09 70.2, 62.23 74.16 C56.38 78.12, 47.87 81, 40.63 81.09 C33.39 81.18, 24.88 78.65, 18.78 74.69 C12.67 70.72, 7.2 64.11, 4 57.28 C0.8 50.45, -1.4 40.76, -0.44 33.71 C0.53 26.65, 4.08 20.56, 9.79 14.94 C15.51 9.32, 28.77 2.38, 33.86 0.01 C38.96 -2.36, 40.23 0.07, 40.37 0.72 M44.64 -1.03 C51.66 -0.55, 60.94 5.29, 66.5 9.92 C72.07 14.55, 75.82 20.17, 78.04 26.77 C80.27 33.36, 81.92 42.39, 79.85 49.48 C77.79 56.57, 71.4 64.05, 65.65 69.3 C59.9 74.54, 52.14 79.74, 45.36 80.94 C38.57 82.15, 31.43 79.61, 24.95 76.52 C18.48 73.42, 10.67 68.17, 6.5 62.39 C2.32 56.61, 0.11 49.32, -0.09 41.85 C-0.29 34.38, 1.39 24.15, 5.3 17.58 C9.21 11.02, 16.57 5.34, 23.36 2.43 C30.15 -0.48, 42.35 0.13, 46.04 0.13 C49.73 0.12, 45.55 1.74, 45.49 2.42" stroke="none" stroke-width="0" fill="#fff"></path><path d="M51.3 1.01 C57.95 2.49, 66.52 8.08, 71.28 13.91 C76.03 19.75, 79.03 28.72, 79.81 36.02 C80.58 43.32, 78.95 51.21, 75.92 57.71 C72.88 64.21, 67.57 71.42, 61.62 75.03 C55.67 78.65, 47.59 79.8, 40.2 79.38 C32.81 78.96, 23.43 76.32, 17.28 72.53 C11.13 68.73, 6.19 63.23, 3.3 56.62 C0.4 50.02, -1.4 40.12, -0.09 32.9 C1.22 25.67, 6.18 18.5, 11.18 13.27 C16.18 8.03, 22.92 3.19, 29.9 1.48 C36.88 -0.22, 48.76 2.65, 53.07 3.04 C57.37 3.42, 55.85 3.13, 55.71 3.79 M47.88 0.52 C54.63 1.55, 62.18 6.93, 67.33 11.84 C72.47 16.74, 76.78 23.17, 78.74 29.95 C80.71 36.73, 81.48 45.56, 79.14 52.53 C76.8 59.5, 70.43 67.09, 64.71 71.76 C58.98 76.43, 51.96 79.96, 44.77 80.54 C37.58 81.13, 28.16 78.59, 21.55 75.28 C14.93 71.98, 8.49 66.86, 5.09 60.7 C1.68 54.54, 0.56 45.47, 1.1 38.33 C1.65 31.2, 4.18 23.62, 8.37 17.92 C12.56 12.21, 19.56 6.88, 26.24 4.1 C32.92 1.32, 45.05 1.85, 48.45 1.24 C51.86 0.63, 46.92 -0.16, 46.69 0.43" stroke="#000000" stroke-width="1" fill="none"></path></g><g stroke-linecap="round" transform="translate(414.40236563123017 86.18930951286893) rotate(0 40.130859375 40.111328125)"><path d="M33.44 1.28 C40.13 -0.52, 47.98 -0.08, 54.7 2.51 C61.42 5.1, 69.66 10.66, 73.76 16.82 C77.85 22.99, 79.09 32.12, 79.27 39.49 C79.44 46.86, 78.32 54.82, 74.83 61.05 C71.34 67.28, 64.8 73.59, 58.32 76.87 C51.84 80.14, 43.13 81.57, 35.94 80.69 C28.75 79.82, 20.98 76.42, 15.19 71.61 C9.41 66.8, 3.53 58.56, 1.23 51.81 C-1.07 45.05, -0.49 37.99, 1.41 31.07 C3.3 24.15, 6.57 15.45, 12.59 10.28 C18.6 5.11, 32.82 1.71, 37.5 0.05 C42.18 -1.61, 40.67 -0.33, 40.66 0.31 M34.58 0.95 C41.32 -0.67, 49.34 -0.66, 56.04 1.97 C62.73 4.6, 70.91 10.56, 74.75 16.73 C78.59 22.9, 79.36 31.33, 79.08 38.99 C78.79 46.65, 76.54 56.51, 73.04 62.7 C69.55 68.89, 64.52 73.25, 58.11 76.13 C51.71 79.01, 41.95 80.7, 34.6 79.98 C27.25 79.27, 19.64 76.76, 14.03 71.84 C8.43 66.91, 2.98 57.8, 0.96 50.44 C-1.05 43.09, -0.29 34.5, 1.94 27.73 C4.17 20.97, 8.93 14.17, 14.33 9.83 C19.74 5.5, 30.9 3.2, 34.37 1.75 C37.83 0.3, 35.16 0.65, 35.1 1.14" stroke="none" stroke-width="0" fill="#fff"></path><path d="M35.74 -0.15 C42.61 -1.24, 51.16 1.7, 57.52 4.99 C63.89 8.27, 70.11 13.41, 73.96 19.56 C77.8 25.71, 80.58 34.85, 80.61 41.88 C80.63 48.91, 78.31 56.06, 74.1 61.75 C69.89 67.44, 62.12 72.95, 55.34 76.02 C48.56 79.08, 40.56 81.3, 33.43 80.12 C26.29 78.95, 17.73 73.9, 12.54 68.95 C7.36 64, 4.01 57.26, 2.3 50.42 C0.6 43.59, 0.44 34.72, 2.34 27.95 C4.24 21.17, 6.61 14.41, 13.71 9.78 C20.82 5.15, 38.39 1.12, 44.97 0.15 C51.55 -0.82, 53.24 3.24, 53.18 3.95 M26.26 3.2 C32.43 0.3, 41.58 -0.91, 48.86 0.49 C56.14 1.89, 64.9 6.29, 69.93 11.6 C74.97 16.91, 77.72 25.09, 79.1 32.36 C80.48 39.62, 80.81 48.56, 78.19 55.17 C75.58 61.78, 69.41 67.77, 63.39 72 C57.37 76.23, 49.05 80.05, 42.06 80.55 C35.08 81.05, 27.54 78.48, 21.47 75.01 C15.4 71.55, 9.02 65.97, 5.66 59.78 C2.3 53.59, 0.72 45.13, 1.32 37.86 C1.91 30.59, 5.13 22.27, 9.23 16.17 C13.33 10.08, 22.92 3.44, 25.91 1.28 C28.9 -0.88, 26.88 2.3, 27.16 3.22" stroke="#000000" stroke-width="1" fill="none"></path></g><g stroke-linecap="round" transform="translate(461.17970938123017 86.18930951286893) rotate(0 40.130859375 40.111328125)"><path d="M31.97 0.12 C38.66 -1.88, 49.25 -0.43, 55.92 2.52 C62.59 5.47, 67.91 11.76, 72 17.82 C76.08 23.88, 79.93 31.66, 80.43 38.89 C80.94 46.13, 78.68 54.97, 75.02 61.26 C71.35 67.54, 64.88 73.41, 58.43 76.58 C51.99 79.76, 43.69 81.31, 36.33 80.31 C28.98 79.3, 19.99 74.95, 14.31 70.55 C8.63 66.15, 4.5 60.67, 2.27 53.9 C0.05 47.14, -0.87 37.14, 0.96 29.96 C2.8 22.78, 7.78 15.82, 13.28 10.82 C18.78 5.83, 30.25 1.64, 33.94 -0.01 C37.64 -1.67, 35.39 0.23, 35.45 0.91 M22.14 2.55 C28.16 -1.28, 38.87 -2.08, 45.93 -1.11 C52.98 -0.13, 59.24 3.37, 64.47 8.41 C69.7 13.44, 74.73 22.12, 77.3 29.08 C79.87 36.04, 81.6 43.35, 79.88 50.15 C78.16 56.95, 72.49 64.77, 66.97 69.89 C61.44 75, 53.95 79.87, 46.72 80.83 C39.49 81.8, 30.16 78.95, 23.6 75.68 C17.03 72.4, 11.14 66.99, 7.33 61.19 C3.53 55.39, 0.97 47.67, 0.77 40.89 C0.58 34.12, 2.37 26.71, 6.16 20.55 C9.94 14.39, 20.81 6.52, 23.49 3.93 C26.17 1.34, 21.91 4.26, 22.26 5.03" stroke="none" stroke-width="0" fill="#fff"></path><path d="M24.32 4.15 C30.28 1.08, 39.26 -0.29, 46.47 0.91 C53.68 2.11, 62.04 6.66, 67.58 11.34 C73.11 16.02, 77.97 22.33, 79.66 29.02 C81.35 35.71, 80.07 44.39, 77.72 51.48 C75.36 58.57, 71.12 66.97, 65.53 71.58 C59.93 76.18, 51.19 78.36, 44.17 79.1 C37.15 79.85, 29.74 79.09, 23.42 76.06 C17.09 73.03, 10.28 66.99, 6.23 60.92 C2.19 54.85, -1.02 46.87, -0.85 39.62 C-0.68 32.37, 2.8 23.46, 7.24 17.41 C11.68 11.36, 22.27 5.74, 25.81 3.32 C29.35 0.9, 28.3 2.35, 28.48 2.87 M37.43 -0.48 C44.49 -1.68, 54.54 0.93, 60.84 4.6 C67.14 8.28, 71.91 14.99, 75.23 21.55 C78.56 28.12, 81.39 36.92, 80.78 44 C80.18 51.07, 76.19 58.29, 71.61 64 C67.03 69.71, 59.88 75.73, 53.31 78.26 C46.74 80.79, 38.99 80.7, 32.17 79.17 C25.36 77.63, 17.45 74.03, 12.42 69.05 C7.39 64.08, 3.46 56.46, 1.99 49.31 C0.52 42.16, 1.3 33.28, 3.6 26.17 C5.89 19.06, 10.03 10.97, 15.76 6.64 C21.5 2.31, 34.42 1.04, 38.03 0.2 C41.65 -0.64, 37.6 0.93, 37.45 1.6" stroke="#000000" stroke-width="1" fill="none"></path></g><g stroke-linecap="round" transform="translate(498.66106852645044 10) rotate(0 33.00458836252483 32.988525390625)"><path d="M27.57 1.17 C33.57 -0.38, 40.7 0.1, 46.56 2.73 C52.43 5.37, 59.71 11.05, 62.74 16.97 C65.77 22.89, 65.68 31.7, 64.73 38.25 C63.78 44.8, 61.29 51.59, 57.02 56.27 C52.75 60.95, 45.47 65.14, 39.09 66.33 C32.72 67.51, 24.58 66.3, 18.77 63.38 C12.95 60.47, 7.39 54.82, 4.18 48.85 C0.97 42.88, -1.36 33.86, -0.5 27.56 C0.36 21.26, 4.2 15.71, 9.34 11.06 C14.49 6.4, 26.16 1.39, 30.38 -0.36 C34.61 -2.1, 34.63 0.05, 34.71 0.59 M36.6 -1.09 C42.88 -0.58, 51.46 5.08, 56.19 9.5 C60.93 13.91, 63.73 19.36, 65.01 25.4 C66.3 31.44, 66.79 39.77, 63.89 45.74 C60.99 51.7, 53.66 57.66, 47.63 61.19 C41.61 64.72, 33.78 67.67, 27.72 66.92 C21.67 66.16, 15.87 61.28, 11.32 56.66 C6.76 52.03, 1.75 45.29, 0.38 39.19 C-0.99 33.08, 0.41 26.1, 3.09 20.02 C5.76 13.94, 10.66 6.24, 16.42 2.71 C22.19 -0.82, 34.08 -0.83, 37.66 -1.16 C41.24 -1.49, 38 -0.28, 37.92 0.72" stroke="none" stroke-width="0" fill="#fff"></path><path d="M25.38 1.12 C31.36 -0.67, 40.35 1.17, 46.48 3.54 C52.61 5.91, 59.02 10.1, 62.15 15.37 C65.28 20.63, 66.01 28.49, 65.26 35.14 C64.52 41.79, 61.98 50.4, 57.7 55.27 C53.42 60.13, 45.74 63.01, 39.6 64.33 C33.45 65.65, 26.59 65.6, 20.82 63.18 C15.06 60.76, 8.61 55.27, 5.02 49.81 C1.44 44.36, -1.3 36.93, -0.71 30.47 C-0.13 24.01, 3.57 15.96, 8.53 11.05 C13.49 6.14, 24.9 2.71, 29.04 1 C33.18 -0.7, 33.36 0.4, 33.36 0.85 M30.72 -0.49 C37.06 -1.53, 46.39 1.05, 51.83 4.66 C57.28 8.27, 61.09 14.99, 63.38 21.19 C65.68 27.39, 67.23 35.72, 65.6 41.84 C63.97 47.96, 58.77 53.86, 53.6 57.94 C48.43 62.02, 40.79 65.85, 34.57 66.31 C28.35 66.78, 21.49 64.13, 16.27 60.74 C11.06 57.35, 5.63 51.77, 3.29 45.95 C0.95 40.13, 0.63 32.14, 2.24 25.82 C3.86 19.5, 8.27 12.5, 12.96 8.03 C17.64 3.56, 27.27 0.2, 30.34 -1 C33.41 -2.2, 31.27 0, 31.36 0.85" stroke="#000000" stroke-width="1" fill="none"></path></g><g stroke-linecap="round" transform="translate(487.34368571395044 53.108197380515776) rotate(0 40.130859375 40.111328125)"><path d="M28.03 2.34 C34.41 0.04, 44.69 0.03, 51.82 2.11 C58.96 4.2, 66.14 9.32, 70.84 14.85 C75.54 20.38, 79.02 28.23, 80.02 35.29 C81.02 42.36, 80.02 50.95, 76.83 57.24 C73.64 63.53, 66.98 69.04, 60.86 73.02 C54.73 77.01, 47.23 81.09, 40.09 81.14 C32.96 81.18, 24.03 77.41, 18.05 73.31 C12.07 69.2, 7.14 63.12, 4.21 56.52 C1.27 49.92, -0.55 40.89, 0.44 33.72 C1.44 26.55, 5.16 19.01, 10.18 13.49 C15.21 7.98, 26.95 2.59, 30.6 0.65 C34.25 -1.3, 31.8 1.13, 32.06 1.81 M19.71 4.15 C25.12 0.8, 34.37 0.73, 41.95 1.32 C49.52 1.91, 59.22 3.54, 65.16 7.69 C71.09 11.84, 75.2 19.19, 77.55 26.21 C79.9 33.23, 80.88 42.98, 79.25 49.81 C77.61 56.63, 72.77 62.48, 67.74 67.15 C62.71 71.83, 55.89 76.15, 49.08 77.87 C42.27 79.6, 33.66 79.56, 26.87 77.49 C20.08 75.42, 12.62 71.21, 8.32 65.44 C4.01 59.67, 1.71 50.24, 1.03 42.86 C0.35 35.48, 0.73 27.33, 4.25 21.15 C7.76 14.98, 19.4 8.23, 22.11 5.8 C24.82 3.38, 20.54 5.92, 20.51 6.58" stroke="none" stroke-width="0" fill="#fff"></path><path d="M59 5.35 C65.55 7.82, 72.25 13.37, 75.69 19.34 C79.12 25.32, 80.11 33.76, 79.61 41.2 C79.11 48.63, 76.89 58.06, 72.68 63.95 C68.46 69.84, 60.87 73.98, 54.31 76.55 C47.75 79.13, 40.25 80.64, 33.33 79.39 C26.4 78.15, 18.28 73.98, 12.77 69.08 C7.25 64.19, 1.94 57.08, 0.24 50.02 C-1.47 42.96, 0.05 33.53, 2.53 26.74 C5 19.96, 9.38 13.7, 15.1 9.3 C20.82 4.9, 29.19 0.83, 36.83 0.36 C44.48 -0.12, 56.46 5.09, 60.97 6.46 C65.48 7.84, 64.04 8.13, 63.89 8.62 M32.46 0.89 C39.06 -0.73, 49.28 0.89, 55.98 3.5 C62.68 6.11, 68.67 10.63, 72.65 16.53 C76.63 22.43, 79.33 31.58, 79.86 38.89 C80.38 46.2, 79.23 54.07, 75.8 60.39 C72.37 66.71, 65.71 73.37, 59.28 76.84 C52.84 80.3, 44.41 81.98, 37.2 81.18 C29.98 80.37, 21.95 76.89, 15.98 72.01 C10.01 67.12, 3.81 58.81, 1.39 51.9 C-1.03 44.98, -0.36 37.22, 1.46 30.5 C3.28 23.79, 7.2 16.56, 12.28 11.61 C17.36 6.67, 28.59 2.76, 31.95 0.82 C35.31 -1.12, 32.26 -0.76, 32.44 -0.03" stroke="#000000" stroke-width="1" fill="none"></path></g><g stroke-linecap="round" transform="translate(498.66106852645044 101.15478515625) rotate(0 33.00458836252483 32.988525390625)"><path d="M44.22 1.29 C50.16 3.06, 55.3 9.27, 58.97 14.69 C62.63 20.11, 66.08 27.34, 66.21 33.82 C66.34 40.3, 63.61 48.34, 59.73 53.57 C55.86 58.79, 49.14 63.36, 42.97 65.19 C36.79 67.01, 28.99 66.87, 22.7 64.53 C16.42 62.19, 9.02 56.29, 5.26 51.12 C1.5 45.95, -0.02 39.89, 0.15 33.51 C0.33 27.12, 2.36 18.18, 6.31 12.83 C10.26 7.48, 16.93 3.05, 23.84 1.41 C30.76 -0.23, 43.18 2.21, 47.8 3 C52.43 3.8, 51.91 5.65, 51.61 6.16 M18.13 1.83 C23.55 -1.57, 33.58 -2.13, 39.82 -0.88 C46.07 0.37, 51.44 4.25, 55.58 9.34 C59.72 14.42, 63.39 23.16, 64.65 29.64 C65.9 36.11, 66.01 42.66, 63.11 48.19 C60.21 53.71, 53.26 59.69, 47.27 62.77 C41.27 65.84, 33.62 68.01, 27.15 66.64 C20.69 65.28, 12.88 59.65, 8.48 54.57 C4.08 49.48, 1.38 42.34, 0.74 36.12 C0.1 29.91, 1.61 22.53, 4.64 17.27 C7.66 12.02, 16.35 6.86, 18.87 4.62 C21.39 2.37, 19.69 3.48, 19.77 3.8" stroke="none" stroke-width="0" fill="#fff"></path><path d="M39.18 -0.39 C45.15 -0.11, 51.54 4.07, 55.95 8.9 C60.35 13.72, 64.63 22.15, 65.59 28.56 C66.54 34.98, 64.5 41.72, 61.68 47.37 C58.86 53.01, 54.28 59.4, 48.67 62.43 C43.05 65.47, 34.67 66.52, 27.99 65.57 C21.32 64.61, 13.16 61.34, 8.6 56.71 C4.04 52.07, 1.5 44.11, 0.63 37.76 C-0.23 31.4, 0.39 24.25, 3.39 18.56 C6.39 12.88, 12.33 6.51, 18.65 3.66 C24.97 0.8, 36.9 1.6, 41.3 1.45 C45.7 1.31, 44.98 2.32, 45.04 2.78 M26.64 0.77 C32.53 -0.61, 42.04 1.08, 47.88 3.73 C53.72 6.39, 58.76 11.04, 61.67 16.7 C64.58 22.36, 65.97 31.2, 65.36 37.69 C64.74 44.19, 62.23 50.89, 58.01 55.67 C53.79 60.45, 46.37 64.99, 40.03 66.37 C33.69 67.74, 25.82 66.78, 19.96 63.93 C14.11 61.08, 8.29 55.32, 4.89 49.27 C1.48 43.22, -1.18 34.1, -0.44 27.62 C0.3 21.14, 4.82 14.8, 9.33 10.41 C13.84 6.02, 23.81 2.8, 26.63 1.29 C29.45 -0.22, 26.17 1.18, 26.24 1.35" stroke="#000000" stroke-width="1" fill="none"></path></g><g stroke-linecap="round" transform="translate(269.8094302415202 166.81315843986886) rotate(89.99999999999994 16.93115234375 16.93115234375)"><path d="M12.58 0.07 C15.96 -1.01, 21.52 0.02, 24.86 1.7 C28.21 3.37, 31.32 6.74, 32.64 10.11 C33.95 13.48, 33.79 18.47, 32.76 21.94 C31.74 25.41, 29.46 28.9, 26.49 30.94 C23.52 32.98, 18.54 34.53, 14.94 34.17 C11.35 33.8, 7.45 31.42, 4.9 28.75 C2.36 26.08, -0.02 21.82, -0.31 18.17 C-0.59 14.51, 0.9 9.79, 3.2 6.81 C5.51 3.83, 11.82 1.26, 13.53 0.29 C15.25 -0.68, 13.5 0.73, 13.49 1.01 M17.38 -0.27 C20.75 -0.36, 25.29 2.09, 28.1 4.57 C30.91 7.04, 33.62 10.95, 34.23 14.59 C34.85 18.23, 33.7 23.23, 31.78 26.4 C29.86 29.57, 26.18 32.55, 22.72 33.63 C19.26 34.71, 14.52 34.44, 11 32.89 C7.48 31.34, 3.35 27.56, 1.6 24.32 C-0.14 21.08, -0.28 16.84, 0.51 13.45 C1.3 10.05, 3.58 6.16, 6.35 3.94 C9.12 1.71, 15.3 0.81, 17.12 0.09 C18.94 -0.63, 17.26 -0.71, 17.28 -0.4" stroke="#000000" stroke-width="1" fill="none"></path></g><g stroke-linecap="round" transform="translate(239.3187075852702 201.09730853456495) rotate(89.99999999999994 12.571540601325523 12.571540601325523)"><path d="M14.47 0.04 C17.11 0.25, 20.21 1.93, 21.91 3.94 C23.61 5.95, 24.54 9.43, 24.69 12.11 C24.84 14.78, 24.37 17.81, 22.81 20 C21.25 22.18, 17.94 24.55, 15.33 25.2 C12.72 25.85, 9.58 25.17, 7.14 23.91 C4.71 22.66, 1.81 20.19, 0.7 17.68 C-0.42 15.18, -0.41 11.49, 0.46 8.87 C1.33 6.25, 3.65 3.37, 5.93 1.97 C8.21 0.57, 12.73 0.75, 14.14 0.47 C15.56 0.19, 14.41 0.11, 14.42 0.3 M13.47 0.24 C16.15 0.35, 19.96 1.71, 21.98 3.66 C24.01 5.61, 25.36 9.15, 25.6 11.93 C25.85 14.72, 25.02 18.18, 23.46 20.36 C21.91 22.53, 19.04 24.47, 16.28 24.98 C13.52 25.5, 9.4 24.61, 6.91 23.44 C4.41 22.27, 2.42 20.25, 1.31 17.96 C0.2 15.67, -0.36 12.3, 0.24 9.7 C0.84 7.1, 2.72 4.09, 4.91 2.36 C7.1 0.62, 11.98 -0.4, 13.39 -0.7 C14.8 -0.99, 13.25 0.36, 13.36 0.59" stroke="#000000" stroke-width="1" fill="none"></path></g><g stroke-linecap="round" transform="translate(506.43823046996476 44.30956620929646) rotate(0 24.460199556078805 39.10330636160734)"><path d="M0 0 L48.92 0 L48.92 78.21 L0 78.21" stroke="none" stroke-width="0" fill="#fff"></path><path d="M0 0 C9.95 0, 19.9 0, 48.92 0 M0 0 C16.8 0, 33.59 0, 48.92 0 M48.92 0 C48.92 29.76, 48.92 59.52, 48.92 78.21 M48.92 0 C48.92 27.99, 48.92 55.98, 48.92 78.21 M48.92 78.21 C32.08 78.21, 15.25 78.21, 0 78.21 M48.92 78.21 C34.34 78.21, 19.76 78.21, 0 78.21 M0 78.21 C0 58.52, 0 38.83, 0 0 M0 78.21 C0 53.95, 0 29.7, 0 0" stroke="#fff" stroke-width="1" fill="none"></path></g><g stroke-linecap="round" transform="translate(307.65669040801276 25.325191209296463) rotate(0 8.564658415037684 49.55671037946422)"><path d="M0 0 L17.13 0 L17.13 99.11 L0 99.11" stroke="none" stroke-width="0" fill="#fff"></path><path d="M0 0 C5.92 0, 11.84 0, 17.13 0 M0 0 C3.66 0, 7.32 0, 17.13 0 M17.13 0 C17.13 31.6, 17.13 63.19, 17.13 99.11 M17.13 0 C17.13 26.1, 17.13 52.21, 17.13 99.11 M17.13 99.11 C12.38 99.11, 7.63 99.11, 0 99.11 M17.13 99.11 C10.92 99.11, 4.7 99.11, 0 99.11 M0 99.11 C0 67.67, 0 36.22, 0 0 M0 99.11 C0 79.23, 0 59.34, 0 0" stroke="#fff" stroke-width="1" fill="none"></path></g><g stroke-linecap="round" transform="translate(323.63127273223836 24.684641999388077) rotate(0 109.15056617056734 67.6787910931107)"><path d="M0 0 L218.3 0 L218.3 135.36 L0 135.36" stroke="none" stroke-width="0" fill="#fff"></path><path d="M0 0 C86.43 0, 172.86 0, 218.3 0 M0 0 C52.45 0, 104.89 0, 218.3 0 M218.3 0 C218.3 39.57, 218.3 79.15, 218.3 135.36 M218.3 0 C218.3 36.05, 218.3 72.1, 218.3 135.36 M218.3 135.36 C158.31 135.36, 98.32 135.36, 0 135.36 M218.3 135.36 C149.6 135.36, 80.89 135.36, 0 135.36 M0 135.36 C0 85.15, 0 34.94, 0 0 M0 135.36 C0 89.83, 0 44.29, 0 0" stroke="#fff" stroke-width="1" fill="none"></path></g><g transform="translate(333.58750296530525 46.36343309249878) rotate(0 99.1943359375 46)"><text x="99.1943359375" y="18.400390625" font-family="Helvetica, Segoe UI Emoji" font-size="20px" fill="#1e1e1e" text-anchor="middle" style="white-space: pre;" direction="ltr" dominant-baseline="alphabetic">10...but I've run out of </text><text x="99.1943359375" y="41.400390625" font-family="Helvetica, Segoe UI Emoji" font-size="20px" fill="#1e1e1e" text-anchor="middle" style="white-space: pre;" direction="ltr" dominant-baseline="alphabetic">counting fingers once </text><text x="99.1943359375" y="64.400390625" font-family="Helvetica, Segoe UI Emoji" font-size="20px" fill="#1e1e1e" text-anchor="middle" style="white-space: pre;" direction="ltr" dominant-baseline="alphabetic">already. Therefore,</text><text x="99.1943359375" y="87.400390625" font-family="Helvetica, Segoe UI Emoji" font-size="20px" fill="#1e1e1e" text-anchor="middle" style="white-space: pre;" direction="ltr" dominant-baseline="alphabetic">10 + 10 = 20</text></g></svg>