<svg xmlns="http://www.w3.org/2000/svg" width="1229.706" height="555.623"><defs><style>@font-face{font-family:&quot;Virgil&quot;;src:url(https://excalidraw.com/Virgil.woff2)}@font-face{font-family:&quot;Cascadia&quot;;src:url(https://excalidraw.com/Cascadia.woff2)}@font-face{font-family:&quot;Assistant&quot;;src:url(https://excalidraw.com/Assistant-Regular.woff2)}</style></defs><g fill-opacity=".6" stroke-linecap="round" stroke-opacity=".6"><path fill="#b2f2bb" stroke-width="0" d="M42 167.252h452.64c21.34 0 32 10.67 32 32v314.37c0 21.33-10.66 32-32 32H42c-21.33 0-32-10.67-32-32v-314.37c0-21.33 10.67-32 32-32"/><path fill="none" stroke="#d1f7d6" stroke-width="2" d="M42 167.252h452.64m-452.64 0h452.64m0 0c21.34 0 32 10.67 32 32m-32-32c21.34 0 32 10.67 32 32m0 0v314.37m0-314.37v314.37m0 0c0 21.33-10.66 32-32 32m32-32c0 21.33-10.66 32-32 32m0 0H42m452.64 0H42m0 0c-21.33 0-32-10.67-32-32m32 32c-21.33 0-32-10.67-32-32m0 0v-314.37m0 314.37v-314.37m0 0c0-21.33 10.67-32 32-32m-32 32c0-21.33 10.67-32 32-32"/></g><g stroke-linecap="round"><path fill="none" fill-opacity=".5" stroke="#e03131" stroke-opacity=".5" stroke-width="4" d="M804.15 270.344c-81.53-2.94-161.74-13.48-312.14-19.94m314.38 20.39c-79.94-8.46-157.08-13.69-313.35-21.43"/><g fill-opacity=".5" stroke-opacity=".5"><path fill="#e03131" fill-rule="evenodd" stroke-width="0" d="m493.24 250.114 15.18-4.98-.95 11.95-13.73-5.93"/><path fill="none" stroke="#e03131" stroke-width="4" d="M491.91 249.314c4.1-.37 8.86-4.37 13.75-4.62m-12.57 4.86c2.81-1.46 7.07-2.73 13.12-5.41m.19-.61c.36 1.58-.28 6.08-.24 12.64m1.3-12.64c-.22 4.32-1.43 9.05-1.62 13.35m1.38-1.77c-4.63.06-10.72-2.01-14.33-5.08m13.09 6.23c-3.1-.9-5.89-2.85-12.45-7.61m-.49.71q0 0 0 0m0 0q0 0 0 0"/></g></g><g stroke-linecap="round"><path fill="none" fill-opacity=".5" stroke="#e03131" stroke-opacity=".5" stroke-width="4" d="M854.787 277.899c-107.16 3.48-218.95 15.68-345.11 24.38m345.19-26.16c-81.09 7.46-165.03 13.89-345.17 25.22"/><g fill-opacity=".5" stroke-opacity=".5"><path fill="#e03131" fill-rule="evenodd" stroke-width="0" d="m511.167 302.719 12.87-7.92.33 13.77-13.84-7.4"/><path fill="none" stroke="#e03131" stroke-width="4" d="M509.007 302.419c5.3-4.79 7.74-4.69 13.12-7.85m-13.07 6.83c3.89-1.62 6.17-3.15 13.08-7.36m.66-1.15c-.37 4.67.23 6.52 1.45 14.12m-.9-13.15c-.67 3.67-.41 7.37.51 13.17m.5.87c-5.49-1.32-8.29-3.46-15.69-5.5m14.71 4.99c-3.62-1.88-7.05-4.4-13.39-6.62m-.29.57q0 0 0 0m0 0q0 0 0 0"/></g></g><path fill="none" stroke="#1e1e1e" stroke-linecap="round" stroke-width="4" d="M871.64 245.146c8.86 1.47 19.69 6.39 25.91 11.66s10.23 12.7 11.4 19.94-.51 16.9-4.37 23.5c-3.85 6.6-10.86 12.45-18.75 16.11-7.9 3.66-19.21 6.12-28.63 5.86-9.41-.25-19.84-3.3-27.85-7.39-8.02-4.09-16.3-10.71-20.25-17.15-3.95-6.45-5.19-14.56-3.44-21.52 1.74-6.95 7.63-14.98 13.91-20.22 6.29-5.24 14.11-9.46 23.77-11.23 9.67-1.76 28.21.08 34.23.64 6.03.56 2.25 2.04 1.92 2.75m-40.18-2.96c8.22-3 21.8-3.43 30.93-1.65s17.66 6.86 23.84 12.33c6.18 5.46 11.23 13.6 13.25 20.46 2.01 6.87 2.08 14.36-1.16 20.72s-10.54 13.43-18.29 17.46c-7.76 4.03-18.72 6.15-28.23 6.72-9.52.58-20.59.14-28.84-3.28-8.24-3.41-16.53-10.86-20.62-17.21-4.1-6.35-4.95-13.84-3.92-20.87s4.28-15.36 10.07-21.3 20.47-12.31 24.67-14.35.21 1.21.54 2.11"/><path fill="none" stroke="#1e1e1e" stroke-linecap="round" stroke-width="4" d="M824.502 284.038c5.37 1.68 20.2 10.32 30.52 10.58 10.33.25 26.31-7.47 31.4-9.06m-63.01-2.79c5.31 1.77 20.24 12.63 30.69 12.77 10.45.13 26.73-10.43 32.01-11.97M834.75 272.153c.98-.64 4.55-3.74 6.06-3.63s2.54 3.58 3.01 4.3m-9.49-.08c.93-.73 4.79-4.82 6.33-4.74s2.45 4.36 2.94 5.24M864.09 272.867c.96-.63 4.12-4.35 5.55-4.32 1.44.03 2.47 3.71 3.06 4.5m-8.91-.39c.92-.71 4.15-4.66 5.58-4.7s2.33 3.67 3 4.46M840.546 342.688c-11.26 2.53-45.77 9.63-66.67 15.69-20.9 6.07-48.79 17.35-58.71 20.7m123.92-37.34c-10.94 2.11-42.16 8.79-62.86 14.73s-51.09 17.6-61.35 20.9M862.673 339.747c11.25 2.26 46.32 7.67 68.2 13.36 21.88 5.7 52.61 17.31 63.09 20.79m-129.45-34.99c11.17 1.94 44.43 7.21 65.89 12.71 21.46 5.49 52.27 16.9 62.87 20.26M855.896 354.369c-.28 12.84-2.92 46.83-3.29 76.28-.38 29.45 1.03 83.95 1.05 100.4m1.26-177.1c-.36 12.46-2.85 45.72-3.19 74.9-.35 29.19 1.01 83.38 1.12 100.23M839.41 545.621c-8.82-.15-43.29 0-52.14-.33m50.75-.39c-9.06.01-43.52-1.28-51.74-1.36M861.608 545.083c8.82-.37 44.24-1.99 53.08-2.31m-54.58 1.63c9.17-.3 47.27-.57 56.76-.6"/><g stroke-linecap="round"><path fill="#fff" stroke-width="0" d="M971.977 10.36c5.7-2.12 14.04-1.08 20.03 1.34 5.98 2.42 12.32 7.71 15.85 13.17 3.54 5.46 5.55 13.07 5.35 19.57-.2 6.51-2.88 14.45-6.56 19.44-3.68 4.98-9.49 8.69-15.53 10.47s-14.4 2.21-20.7.2-13.38-6.74-17.12-12.26c-3.73-5.51-5.48-14.14-5.29-20.84s1.37-14 6.43-19.37 18.65-11.14 23.92-12.83c5.26-1.69 7.5 1.88 7.66 2.7m5.52-.98c6.13 1.71 14.21 8.18 17.82 13.79s4.42 13.14 3.86 19.85-3.29 15.4-7.2 20.42-9.83 8.25-16.28 9.71-16.39 1.35-22.41-.96c-6.03-2.31-10.56-7.53-13.75-12.9-3.18-5.38-5.76-12.69-5.38-19.35.38-6.65 3.46-15.73 7.69-20.58 4.24-4.85 11.52-6.92 17.72-8.5 6.21-1.58 16.2-1.23 19.51-.98 3.3.24.65 1.63.33 2.46"/><path fill="none" stroke="#000" d="M987.107 10.11c6.2.63 13.87 5.13 18.33 9.84 4.46 4.72 7.59 12.04 8.43 18.44.83 6.41-.12 14.08-3.42 19.99-3.31 5.9-10.39 12.75-16.41 15.43-6.03 2.68-13.58 2.12-19.74.64-6.17-1.49-12.84-4.98-17.25-9.56-4.4-4.58-8.17-11.66-9.18-17.95s0-14.31 3.11-19.79 9.2-10.38 15.56-13.09c6.36-2.72 18.51-2.96 22.6-3.21s2.04.99 1.95 1.72m4.27.83c5.45 2.31 11.95 8.63 15 14.79 3.04 6.16 4.55 15.63 3.27 22.17-1.29 6.54-6.34 12.92-10.95 17.08-4.62 4.17-10.67 7.27-16.72 7.92-6.05.64-13.94-.8-19.58-4.04-5.65-3.23-11.15-9.82-14.3-15.37-3.15-5.56-5.69-11.64-4.6-17.96 1.09-6.33 6.1-15.61 11.16-20 5.06-4.4 13.07-5.85 19.21-6.35 6.14-.51 14.4 2.73 17.63 3.3s1.81.04 1.75.13"/></g><g stroke-linecap="round"><path fill="#fff" stroke-width="0" d="M997.178 15.993c6.75-1.21 15.78 1.24 22.48 4.38s13.92 8.26 17.73 14.45 5.65 15.3 5.14 22.68c-.52 7.37-3.99 15.84-8.23 21.56-4.25 5.72-10.54 10.29-17.22 12.77-6.69 2.48-15.65 3.46-22.88 2.1-7.24-1.35-15.24-5.55-20.53-10.24-5.29-4.7-9.59-11.17-11.2-17.91-1.61-6.75-.96-15.49 1.56-22.57 2.53-7.08 7.42-15.07 13.59-19.89 6.17-4.83 19.2-7.94 23.43-9.08 4.24-1.14 2.06 1.48 1.98 2.25m-6.59-1.02c6.52-1.74 13.75.33 20.35 3.34 6.59 3.01 14.95 8.6 19.19 14.73 4.25 6.13 6.22 15 6.26 22.03.05 7.02-2.24 13.87-5.98 20.12-3.74 6.24-9.85 14.28-16.46 17.37s-15.99 2.19-23.2 1.16c-7.22-1.03-14.45-2.98-20.08-7.34-5.63-4.37-11.28-11.6-13.71-18.85-2.42-7.25-2.86-17.68-.84-24.66s7.12-12.69 12.96-17.2c5.83-4.52 18.68-8.5 22.06-9.9 3.38-1.39-1.42.94-1.77 1.53"/><path fill="none" stroke="#000" d="M1003.498 14.793c6.91-.36 15.25 2.91 21.24 6.98s12.08 10.55 14.7 17.44c2.63 6.89 2.44 16.87 1.04 23.92-1.41 7.04-4.78 13.3-9.47 18.35-4.7 5.04-11.75 9.96-18.72 11.93-6.97 1.96-16.01 1.96-23.08-.15-7.08-2.1-14.79-7.1-19.37-12.51s-7.39-12.7-8.11-19.93.64-16.84 3.78-23.47c3.14-6.62 7.88-12.86 15.06-16.3s22.31-3.9 28.02-4.35c5.71-.44 6.27 1.3 6.25 1.67m-20.07-1.03c6.53-1.63 14.46-1.02 21.23 1.41s14.84 7.47 19.36 13.17c4.52 5.69 7.41 13.97 7.76 21.03.35 7.05-1.67 14.8-5.67 21.31s-11.83 14.44-18.34 17.75c-6.52 3.3-13.94 2.75-20.75 2.09-6.82-.66-14.2-1.9-20.13-6.05s-13.06-11.86-15.45-18.84-.83-15.63 1.12-23.03c1.94-7.41 5.33-16.55 10.54-21.42 5.2-4.86 17.46-6.55 20.68-7.77s-1.27-.14-1.37.45"/></g><g stroke-linecap="round"><path fill="#fff" stroke-width="0" d="M1043.288 16.825c7.02 1.2 15.47 5.63 20.41 11 4.95 5.37 8.38 13.92 9.26 21.22.89 7.29-.94 16.15-3.97 22.56-3.02 6.41-8.14 12.2-14.17 15.92-6.04 3.71-14.67 6.35-22.03 6.39s-15.98-2.59-22.12-6.18c-6.15-3.58-11.82-9.07-14.75-15.35s-3.97-14.93-2.81-22.32c1.16-7.4 5.1-16.26 9.79-22.06 4.68-5.8 11.1-11.03 18.32-12.76s20.24 1.74 24.98 2.36c4.75.62 3.63.84 3.49 1.37m-5.21-2.12c6.66 1.79 15.64 7.45 20.38 13.22s7.41 14.4 8.07 21.39-.92 14.01-4.12 20.56c-3.21 6.56-8.8 15.13-15.13 18.76-6.32 3.63-15.56 3.46-22.83 3.04s-14.78-1.68-20.79-5.56-12.26-10.68-15.26-17.73c-3.01-7.05-4.18-17.44-2.76-24.56s5.88-13.2 11.29-18.15c5.41-4.96 14.2-9.97 21.18-11.6s17.43 1.59 20.7 1.83c3.26.23-1.22-.95-1.1-.42"/><path fill="none" stroke="#000" d="M1023.618 15.175c6.57-2.15 16.33-1.52 22.97 1.1 6.63 2.62 12.54 9.01 16.82 14.63s7.98 12.15 8.84 19.07c.85 6.91-.4 15.89-3.71 22.43-3.31 6.53-9.66 13.08-16.13 16.8-6.47 3.71-15.47 5.67-22.69 5.49s-14.87-2.31-20.64-6.57c-5.78-4.26-11.28-12.14-13.99-19-2.72-6.86-3.74-15.26-2.3-22.15s4.85-13.92 10.94-19.21 20.56-10.34 25.59-12.54c5.02-2.21 4.73-1.25 4.58-.69m-9.07 1.15c6.74-2.03 17.11-.96 24.14 1.63 7.02 2.59 13.87 8.12 18.01 13.91 4.13 5.8 6.94 13.37 6.8 20.87-.13 7.49-3.8 17.88-7.6 24.11-3.79 6.23-9.06 9.98-15.16 13.25s-14 6.82-21.45 6.36c-7.46-.46-17.61-4.42-23.28-9.12s-8.69-11.83-10.74-19.09-3.32-17.6-1.55-24.5c1.76-6.9 7.01-12.36 12.17-16.9 5.15-4.54 15.58-8.74 18.75-10.34 3.18-1.6.3.19.31.75"/></g><g stroke-linecap="round"><path fill="#fff" stroke-width="0" d="M1081.832 15.885c6.91 1.35 14.17 7.38 18.69 13 4.52 5.63 7.47 13.78 8.41 20.75.93 6.97.21 14.74-2.79 21.07s-9.01 13.02-15.23 16.89-14.82 6.08-22.08 6.33-15.54-1.16-21.48-4.81-11.38-10.28-14.17-17.1c-2.8-6.82-3.64-16.34-2.6-23.8 1.04-7.45 4.37-15.63 8.84-20.92 4.47-5.28 10.7-8.99 17.99-10.77 7.28-1.77 21.06-.24 25.73.11s2.32 1.21 2.26 1.98m-17.99-3.79c7.09-.95 15.45 2 21.76 5.28s12.55 7.92 16.11 14.41 5.83 17.28 5.23 24.51c-.6 7.24-4.43 13.19-8.83 18.89s-10.67 12.51-17.58 15.32c-6.9 2.82-16.48 3.48-23.86 1.59-7.38-1.9-15.39-7.81-20.43-12.96-5.05-5.15-8.76-11.15-9.86-17.95s.77-16.15 3.27-22.85c2.5-6.69 6.38-12.93 11.73-17.31 5.35-4.39 16.49-7.73 20.38-9 3.88-1.27 2.68.64 2.92 1.37"/><path fill="none" stroke="#000" d="M1061.592 14.955c6.4-1.78 14.4.61 21.01 3.04 6.6 2.44 14.08 6.08 18.61 11.58 4.54 5.5 8.03 14.08 8.58 21.41.55 7.34-1.6 16.12-5.25 22.59s-10.32 12.58-16.66 16.24-14.28 6.28-21.39 5.72c-7.1-.56-15.41-4.6-21.26-9.06-5.84-4.46-11.31-11.14-13.8-17.71s-2.91-14.7-1.13-21.7c1.78-6.99 5.75-14.76 11.8-20.29s19.73-10.97 24.53-12.9c4.79-1.94 4.35.47 4.26 1.3m17.93 3.56c6.71 2.47 13.14 9.2 16.77 15.31 3.62 6.12 5.73 13.88 5 21.37-.74 7.49-5.1 17.67-9.4 23.57-4.29 5.89-10.03 9.1-16.37 11.82-6.35 2.72-14.34 5.55-21.7 4.5s-17.21-5.67-22.48-10.82-7.68-12.66-9.15-20.08c-1.47-7.43-2.02-17.75.32-24.48 2.34-6.72 8.19-11.79 13.74-15.87 5.54-4.08 12.54-7.92 19.51-8.63 6.98-.71 18.82 3.6 22.35 4.36 3.53.75-.92-.26-1.16.16"/></g><g stroke-linecap="round"><path fill="#fff" stroke-width="0" d="M1130.36 18.075c6.34 2.29 12.58 8.65 16.61 14.41 4.03 5.77 7.31 13.2 7.56 20.18.25 6.99-2.22 15.55-6.05 21.73-3.84 6.18-10.48 11.87-16.98 15.35-6.51 3.48-15.01 6.07-22.07 5.54-7.05-.53-14.84-3.92-20.26-8.71-5.42-4.78-10-12.86-12.27-20.02-2.26-7.17-2.86-16.15-1.32-22.97 1.54-6.83 5.32-13.19 10.54-18 5.22-4.8 12.98-9.77 20.79-10.85 7.8-1.08 21.06 3.09 26.05 4.37 4.98 1.28 4.14 2.84 3.85 3.3m-20.54-7.23c6.87-.48 15.56 1.36 21.58 5.66 6.03 4.29 11.9 13.39 14.56 20.11s2.78 13.19 1.4 20.22c-1.38 7.04-4.6 16.41-9.69 21.99-5.08 5.57-13.48 10.03-20.83 11.44-7.34 1.4-16.42-.67-23.21-3.03-6.8-2.35-13.49-5.7-17.57-11.09-4.09-5.39-6.15-14.13-6.92-21.25-.78-7.13-.55-14.97 2.28-21.49 2.83-6.51 8.1-13.86 14.69-17.6 6.58-3.75 20.97-4.16 24.81-4.86 3.85-.7-1.42-.05-1.73.64"/><path fill="none" stroke="#000" d="M1104.78 16.425c6.42-2.1 16.09-2.6 23.06-.36 6.97 2.23 14.39 7.86 18.76 13.76 4.37 5.91 7.12 14.33 7.45 21.66s-2.01 15.79-5.47 22.33c-3.45 6.53-9.03 13.46-15.26 16.88-6.24 3.42-14.89 4.29-22.16 3.65-7.26-.65-15.67-3.39-21.42-7.51-5.74-4.13-10.77-10.53-13.05-17.23-2.29-6.7-2.27-15.63-.66-22.98 1.62-7.35 4.73-15.77 10.37-21.11 5.63-5.35 18.76-9.3 23.43-10.97s4.3.38 4.59.97m8.8-.95c6.9.61 14.98 4.54 19.84 9.82 4.87 5.28 7.74 14.8 9.34 21.86 1.61 7.07 2.32 13.63.31 20.52s-6.4 16.03-12.37 20.83c-5.98 4.79-16.2 7.43-23.47 7.95-7.26.52-13.91-1.09-20.13-4.82-6.21-3.73-13.52-11.39-17.17-17.57s-4.93-12.65-4.72-19.52c.21-6.86 1.97-15.73 5.97-21.66 3.99-5.94 11.37-11.18 17.99-13.94 6.63-2.75 17.94-2.21 21.73-2.6 3.8-.38.78-.15 1.03.31"/></g><g stroke-linecap="round"><path fill="#fff" stroke-width="0" d="M1155.257 15.515c6.65-1.68 16.27-.74 22.85 2.07 6.57 2.8 12.86 8.67 16.61 14.76 3.74 6.08 5.92 14.23 5.85 21.73-.08 7.5-2.49 16.93-6.31 23.25-3.82 6.33-10.18 11.98-16.59 14.7-6.4 2.73-14.68 3.03-21.84 1.66-7.15-1.38-15.39-5.31-21.1-9.91s-11.08-10.84-13.16-17.69-1.51-16.38.68-23.4c2.18-7.02 5.04-14.16 12.42-18.73s25.08-7.56 31.86-8.7c6.79-1.13 9.03 1.24 8.85 1.9m-10.87-3.54c7.01.09 15.94 6.01 21.66 10.39 5.71 4.37 10.17 9.16 12.63 15.87s3.79 17.02 2.11 24.39c-1.68 7.38-6.75 15.09-12.2 19.85-5.46 4.76-13.49 7.22-20.51 8.71-7.03 1.49-15.29 2.51-21.64.23s-12.11-8.18-16.47-13.91c-4.37-5.73-8.77-13.19-9.72-20.47-.95-7.29.22-16.81 4.04-23.24 3.83-6.44 12.36-11.99 18.92-15.36 6.55-3.37 17.02-4.26 20.41-4.88 3.4-.63-.25.57-.05 1.12"/><path fill="none" stroke="#000" d="M1151.167 14.685c6.73-2.45 16.36-1.17 23.22 1.32 6.87 2.48 13.67 7.79 17.95 13.59s7.03 13.83 7.72 21.21-.36 16.7-3.57 23.08c-3.2 6.37-9.35 11.69-15.66 15.17s-15.02 5.84-22.19 5.7c-7.18-.14-15.21-2.41-20.85-6.53-5.64-4.13-10.4-11.21-13-18.2-2.6-7-3.75-16.56-2.61-23.76 1.14-7.21 3.68-14.25 9.44-19.48s19.8-9.87 25.13-11.88c5.33-2.02 6.69-.91 6.88-.2m-5.96-1.28c6.42-1.03 13.97 2.96 20.37 6.22 6.41 3.25 13.97 7.03 18.06 13.31 4.08 6.28 6.96 16.79 6.45 24.36-.52 7.58-5.37 15.29-9.54 21.1-4.18 5.81-9.05 11.38-15.53 13.77-6.48 2.38-16.17 1.72-23.35.55-7.18-1.18-14.25-3.05-19.72-7.62-5.46-4.56-11.06-12.69-13.09-19.75-2.02-7.06-1.23-15.67.94-22.63 2.16-6.96 6.38-14.41 12.07-19.13 5.69-4.71 18.18-7.66 22.06-9.16 3.88-1.51.95-.48 1.22.14"/></g><g stroke-linecap="round"><path fill="#fff" stroke-width="0" d="M999.406 53.758c6.83.8 14.36 5.88 19.24 11.07 4.89 5.19 8.7 12.69 10.06 20.06 1.37 7.36.67 17.12-1.85 24.11-2.53 6.99-7.64 13.85-13.32 17.83-5.68 3.99-13.54 5.99-20.77 6.06s-16.04-2.21-22.59-5.63c-6.56-3.42-13.3-8.58-16.73-14.89s-4.6-15.68-3.84-22.98 3.77-15.25 8.4-20.81c4.62-5.55 11.55-10.33 19.34-12.54 7.79-2.22 21.98-1.39 27.39-.75 5.42.64 5.32 3.79 5.12 4.59m-10.61-4.27c6.78.9 13.95 3.45 19.04 8.47 5.1 5.02 10.06 14.26 11.51 21.63s.01 16.15-2.81 22.6c-2.81 6.45-8.37 11.76-14.09 16.1s-13.44 9.11-20.24 9.93c-6.79.81-14.11-1.65-20.53-5.01-6.41-3.37-14-8.78-17.95-15.18s-6.57-15.92-5.75-23.23c.82-7.32 6.17-14.91 10.67-20.64 4.5-5.74 9.86-11.26 16.34-13.79s18.58-1.12 22.55-1.4c3.98-.27 1.59-.65 1.3-.23"/><path fill="none" stroke="#000" d="M1009.196 57.398c6.34 2.88 12.3 9.93 15.61 16.37 3.31 6.45 4.72 14.89 4.25 22.29s-2.88 16.35-7.07 22.11-11.27 10.04-18.08 12.47c-6.8 2.43-15.74 3.4-22.76 2.11-7.03-1.29-14.5-4.85-19.4-9.86-4.89-5.01-8.48-12.87-9.97-20.21-1.49-7.33-1.23-16.91 1.02-23.81 2.26-6.89 6.91-13.36 12.53-17.56 5.61-4.21 13.52-7.14 21.16-7.67 7.64-.52 20.52 3.34 24.66 4.51 4.14 1.18.74 1.71.2 2.53m-31.53-5.36c6.48-2.09 16.85-3.32 24.05-.85 7.2 2.48 15 9.64 19.16 15.7 4.17 6.06 5.26 13.61 5.84 20.67.58 7.07.81 15.71-2.35 21.72s-10.24 10.69-16.58 14.36-14.09 7.7-21.48 7.66c-7.39-.03-16.75-3.56-22.84-7.86-6.1-4.29-10.96-11.06-13.71-17.88-2.75-6.83-4.28-15.8-2.81-23.06 1.48-7.26 6.26-15.11 11.67-20.5s17.28-10.07 20.78-11.84c3.5-1.78.01.13.22 1.16"/></g><g stroke-linecap="round"><path fill="#fff" stroke-width="0" d="M976.027 102.095c5.95-1.46 14.85-.49 20.56 2.32 5.72 2.81 11.05 8.76 13.74 14.56 2.69 5.79 3.57 13.57 2.39 20.2-1.17 6.63-4.9 14.83-9.43 19.58-4.53 4.74-11.55 8.25-17.76 8.89-6.22.64-13.81-1.67-19.51-5.03-5.71-3.35-11.63-9.45-14.72-15.09-3.09-5.65-4.89-12.54-3.83-18.8 1.05-6.26 3.85-14.2 10.17-18.77 6.31-4.57 21.49-7.83 27.71-8.62s9.65 3.44 9.6 3.86m-12.4-3.38c6.13-.39 14.11 1.34 19.29 5.49s10.09 13.16 11.77 19.41c1.67 6.25.58 12.12-1.73 18.1-2.31 5.99-6.6 13.93-12.11 17.82-5.51 3.88-14.17 6.12-20.95 5.51s-14.72-5.14-19.74-9.18-9.04-9.11-10.36-15.07.25-14.69 2.46-20.68 5.86-11.59 10.79-15.24c4.94-3.64 15.21-5.73 18.82-6.63s2.66.61 2.84 1.23"/><path fill="none" stroke="#000" d="M965.487 104.605c5.06-3.08 13.05-4.21 19.44-3.04 6.39 1.16 14.22 5.55 18.92 10.05s8.29 10.69 9.28 16.93-.46 14.54-3.32 20.51-8.34 12.3-13.84 15.33-12.84 4.11-19.14 2.84c-6.3-1.26-13.84-5.77-18.66-10.43s-9.07-11.29-10.26-17.51c-1.19-6.21-.59-13.67 3.12-19.78s15.42-14.16 19.14-16.87c3.73-2.7 3.22-.13 3.21.62m-1.02-.29c5.81-1.81 15.45-2.95 21.8-.38 6.35 2.56 13.2 9.89 16.29 15.77 3.09 5.87 2.84 13.17 2.25 19.48s-1.8 13.85-5.82 18.36-11.95 7.1-18.3 8.68c-6.36 1.58-13.68 2.94-19.81.8s-13.4-8.05-16.98-13.64c-3.59-5.58-4.95-13.34-4.52-19.88.42-6.54 2.79-14.28 7.08-19.35 4.28-5.07 15.3-9.22 18.61-11.07 3.32-1.84.97-.5 1.29-.01"/></g><g stroke-linecap="round"><path fill="#fff" stroke-width="0" d="M1011.511 87.52c6.29-2.47 15.64-1.36 22.8.65 7.15 2.01 14.96 6.4 20.12 11.42s9.49 11.92 10.82 18.72c1.33 6.81.14 15.24-2.86 22.11s-9.13 14.84-15.13 19.1c-6.01 4.26-13.75 6.27-20.88 6.48-7.13.2-15.81-1.73-21.88-5.24-6.07-3.5-11.29-9.24-14.55-15.8-3.25-6.57-5.59-16.39-4.96-23.59.62-7.2 3.16-13.89 8.73-19.63 5.57-5.73 19.47-12.37 24.68-14.78s6.6-.39 6.58.34m18.95 4.25c6.26 2.93 11.82 9.65 15.15 15.56a37.56 37.56 0 0 1 4.81 19.88c-.26 7.2-2.62 17.14-6.37 23.32s-9.37 10.96-16.12 13.75-16.82 4.4-24.39 2.99c-7.56-1.4-16.06-6.36-20.98-11.42-4.93-5.06-7-12-8.54-18.94-1.55-6.95-2.79-15.92-.74-22.74 2.05-6.81 7.12-13.54 13.03-18.15 5.91-4.62 15.37-8.57 22.41-9.53 7.04-.97 16.36 3.13 19.83 3.74 3.46.62 1.05-.82.96-.07"/><path fill="none" stroke="#000" d="M1010.281 88.67c6.26-2.71 16.1-2.14 23.26-.62 7.17 1.52 14.69 4.75 19.73 9.74 5.04 5 8.96 12.98 10.51 20.25 1.56 7.28 1.11 16.56-1.2 23.39-2.31 6.82-6.93 13.56-12.65 17.58s-14.23 6.16-21.68 6.53c-7.44.38-16.5-.96-22.98-4.3-6.48-3.33-12.67-9.25-15.88-15.69-3.22-6.44-4.07-15.79-3.39-22.95.67-7.16 2.73-14.33 7.44-20.02 4.7-5.7 16.78-11.78 20.77-14.16s3.12-.52 3.19-.11m21.25 1.12c6.45 1.91 11.75 6.87 16.29 12.31 4.55 5.44 9.91 13.54 10.97 20.33 1.05 6.78-1.41 13.78-4.63 20.38-3.21 6.6-8.34 15.08-14.68 19.2-6.34 4.11-15.9 5.74-23.36 5.51-7.45-.23-15.28-2.77-21.37-6.91-6.1-4.15-12.41-11.16-15.19-17.97-2.79-6.82-3.09-15.61-1.51-22.92 1.59-7.32 5.95-15.6 11.01-20.99 5.06-5.4 12.3-9.9 19.34-11.38 7.05-1.49 19.42 2 22.93 2.46 3.52.46-1.56-.02-1.84.31"/></g><g stroke-linecap="round"><path fill="#fff" stroke-width="0" d="M1045.655 90.25c6.22-2.96 15.72-3.65 23.04-2.69 7.33.95 15.57 3.88 20.92 8.43 5.35 4.56 9.59 11.76 11.19 18.91s.71 17.01-1.57 24c-2.29 6.99-6.66 13.42-12.13 17.92-5.47 4.51-13.7 8.13-20.71 9.13-7 1.01-14.85.19-21.33-3.09-6.48-3.27-13.68-10.38-17.55-16.56s-5.87-13.47-5.65-20.51c.21-7.04 2.37-15.57 6.92-21.75 4.56-6.18 16.69-12.82 20.41-15.34 3.71-2.51 1.59-.33 1.9.26m-1.07-.12c6.11-2.8 15-4.05 21.98-2.03 6.98 2.03 14.77 8.44 19.92 14.18 5.14 5.74 9.98 13.03 10.95 20.26s-1.67 16.6-5.14 23.1c-3.47 6.49-9.92 12.08-15.67 15.88s-11.8 6.85-18.84 6.91-17.02-2.66-23.38-6.55-12.03-10.09-14.78-16.78c-2.75-6.7-2.61-16.01-1.73-23.4.89-7.39 2.46-15.3 7.03-20.96 4.56-5.66 16.94-11.23 20.37-12.98 3.43-1.74.21 1.86.2 2.5"/><path fill="none" stroke="#000" d="M1057.425 87.32c6.88-1.34 15.77-.26 22.19 2.85 6.41 3.11 12.57 9.36 16.3 15.78 3.73 6.43 6.1 15.47 6.08 22.76s-2.14 15.35-6.18 20.99c-4.04 5.65-11.16 10.25-18.07 12.9-6.92 2.65-16.14 4.13-23.4 3-7.27-1.13-15.12-4.77-20.18-9.78-5.07-5.01-8.55-13.33-10.21-20.3-1.65-6.96-1.83-14.85.27-21.47 2.1-6.61 6.35-13.69 12.32-18.22 5.96-4.53 19.17-7.39 23.48-8.96s2.18-1.08 2.39-.46m-16.34 3.58c6.12-3.18 17.28-3.51 24.58-2.51 7.29 1 14.02 3.43 19.18 8.53 5.15 5.1 10.24 14.7 11.75 22.08 1.52 7.39-.06 15.48-2.68 22.23-2.62 6.76-7.21 13.98-13.02 18.33-5.8 4.35-14.68 7.28-21.81 7.77-7.14.49-14.98-1.31-21.01-4.84-6.02-3.52-11.77-10-15.17-16.32-3.4-6.31-5.64-14.76-5.21-21.59.43-6.84 3.79-13.78 7.8-19.4 4-5.63 13.29-11.86 16.23-14.36 2.94-2.51.93-1.18 1.41-.67"/></g><g stroke-linecap="round"><path fill="#fff" stroke-width="0" d="M1091.123 90.2c6.3-3.43 15.91-4.95 23.03-4.04 7.12.92 14.65 4.51 19.71 9.55 5.07 5.05 8.9 13.65 10.66 20.74s2.05 15.01-.07 21.79-7.24 14.16-12.66 18.89c-5.41 4.73-12.68 8.76-19.84 9.47-7.15.72-16.5-1.99-23.09-5.18s-12.77-7.94-16.47-13.94-5.97-14.81-5.73-22.05c.25-7.25 2.98-15.38 7.22-21.4 4.23-6.02 14.54-12.19 18.19-14.72 3.64-2.53 3.43-1.03 3.68-.43m22.67-1.53c6.73 1.68 14.47 9.06 19.36 15 4.9 5.94 9.39 13.39 10.04 20.65.65 7.27-2.37 16.58-6.12 22.93-3.76 6.36-10.49 11.7-16.41 15.22-5.92 3.53-12.07 6.21-19.1 5.95s-16.9-3.35-23.08-7.5-11.55-10.59-14.01-17.42c-2.45-6.82-1.93-16.17-.73-23.51 1.19-7.34 3.12-15.09 7.92-20.53s13.64-10.56 20.88-12.13c7.25-1.56 19.05 2.46 22.57 2.76 3.53.3-1.28-1.6-1.4-.94"/><path fill="none" stroke="#000" d="M1106.803 85.9c6.83-.62 15.31 2.8 21.4 6.98 6.08 4.18 11.95 11.43 15.12 18.1 3.18 6.68 4.98 15.11 3.95 21.97-1.02 6.86-5.05 13.89-10.08 19.19-5.02 5.3-12.96 10.49-20.07 12.61s-15.9 2.3-22.59.11c-6.69-2.2-13.02-7.81-17.57-13.29-4.55-5.47-8.58-12.62-9.73-19.55-1.14-6.93-.06-15.5 2.88-22.01 2.93-6.51 8.51-12.99 14.76-17.05 6.24-4.06 18.45-6.42 22.69-7.33 4.25-.91 2.78.94 2.77 1.86m14.67 3.18c6.63 2.07 12.19 6.97 15.93 13.22 3.73 6.24 6.78 16.68 6.48 24.27-.3 7.58-4.05 15.28-8.3 21.22s-10.46 11.66-17.2 14.44c-6.73 2.78-16.15 3.58-23.23 2.25-7.07-1.34-14.21-5.23-19.2-10.26-4.99-5.02-9.02-12.88-10.73-19.9-1.71-7.01-1.77-15.7.46-22.21s7.56-12.46 12.91-16.85c5.34-4.38 12.05-8.25 19.14-9.45 7.1-1.21 19.54 1.61 23.43 2.22 3.89.62.47.83-.1 1.46"/></g><g stroke-linecap="round"><path fill="#fff" stroke-width="0" d="M1169.84 88.77c6.53 1.87 13.09 7.81 16.88 13.95 3.8 6.14 5.79 15.58 5.9 22.91s-1.6 14.96-5.24 21.05c-3.65 6.08-10.29 12.15-16.61 15.47s-14.16 5.41-21.32 4.46c-7.15-.96-15.93-5.61-21.62-10.2-5.69-4.6-10.34-10.67-12.52-17.36-2.17-6.7-2.45-15.8-.55-22.81 1.9-7 6.77-14.41 11.97-19.22 5.2-4.8 11.65-8.51 19.22-9.61 7.58-1.1 21.82 2.15 26.22 3.02s.52 1.67.18 2.19m-5.62-3.13c7.06 2.08 15.48 7.24 19.82 13.06 4.34 5.81 6.08 14.69 6.22 21.83.13 7.13-2.37 14.68-5.43 20.95-3.07 6.28-6.85 13.12-12.96 16.72-6.12 3.59-16.25 5.28-23.75 4.86-7.5-.41-15.67-2.97-21.25-7.37-5.59-4.39-9.52-11.99-12.27-18.98s-5.52-15.66-4.24-22.94c1.29-7.28 6.69-15.72 11.97-20.73 5.28-5 12.86-7.69 19.72-9.29 6.86-1.61 17.62-.7 21.43-.32 3.81.39 1.34 1.57 1.44 2.62"/><path fill="none" stroke="#000" d="M1170.42 90.29c6.47 2.7 13.24 9.81 17.25 16.05 4.02 6.24 6.93 14.45 6.85 21.39s-3.05 14.39-7.33 20.27-11.55 12-18.35 15.01c-6.79 3.01-15.52 4.33-22.43 3.05s-13.8-5.9-19.03-10.71c-5.23-4.82-10.27-11.45-12.34-18.19s-2.13-15.42-.07-22.27c2.06-6.86 6.96-14.03 12.42-18.86 5.47-4.84 12.46-9.56 20.37-10.16 7.92-.6 22.4 4.9 27.14 6.55 4.74 1.64 1.6 2.92 1.29 3.32m-9.71-8.78c6.62 1.77 14.67 9.47 19.01 15.48 4.33 6.02 6.49 13.48 6.99 20.6.5 7.13-.62 15.84-4 22.18-3.39 6.35-10.14 12.42-16.31 15.89-6.18 3.48-13.93 5.46-20.77 4.97-6.83-.5-14.55-3.74-20.27-7.95-5.72-4.2-11.37-10.99-14.04-17.3-2.66-6.31-3.05-13.7-1.93-20.56s3.77-15.03 8.66-20.6c4.88-5.57 13.39-10.96 20.63-12.81 7.25-1.86 19.4 1.38 22.84 1.69 3.45.31-1.61-.26-2.19.18"/></g><g stroke-linecap="round"><path fill="#fff" stroke-width="0" d="M1171.052 13.45c5.67-3.05 14.58-4.36 20.88-3.21s12.92 5.07 16.89 10.11c3.97 5.05 6.44 13.63 6.92 20.17s-.82 13.62-4.05 19.07c-3.23 5.44-9.54 10.92-15.32 13.59s-13.08 3.99-19.35 2.42c-6.27-1.58-13.95-6.98-18.29-11.87s-7.24-11.2-7.76-17.45c-.52-6.26.99-14.42 4.65-20.08 3.65-5.66 14.27-11.66 17.28-13.91s.5-.07.77.41m.22-.34c5.45-2.48 13.62-3.6 19.76-1.44 6.13 2.16 12.99 8.79 17.05 14.4s7.55 12.73 7.3 19.26c-.24 6.53-4.36 14.88-8.77 19.92s-11.82 8.6-17.69 10.31-11.63 2.07-17.52-.04c-5.9-2.11-13.91-7.31-17.84-12.62-3.92-5.32-6.15-12.68-5.71-19.25.44-6.58 4.54-14.87 8.34-20.22s11.8-9.89 14.46-11.9 1.14-.84 1.51-.15"/><path fill="none" stroke="#000" d="M1179.022 11.26c6.26-1.25 15.28.28 21.09 3.01 5.82 2.72 11.16 7.65 13.79 13.34 2.64 5.69 3.27 14.26 2.02 20.79-1.24 6.53-5.06 13.98-9.46 18.41-4.41 4.44-10.71 7.21-16.99 8.19-6.27.97-14.76.43-20.68-2.34s-11.84-8.51-14.84-14.28c-3-5.76-4.16-13.71-3.18-20.32.98-6.6 3.57-14.69 9.08-19.3s19.52-7.21 23.97-8.38c4.45-1.16 2.69 1.03 2.74 1.4m7.97-1.39c5.9 1.65 13.3 9.04 16.86 14.68s4.83 12.74 4.51 19.14c-.31 6.4-2.43 14.18-6.4 19.26-3.98 5.08-11.35 9.47-17.46 11.21s-13.48 1.51-19.21-.76c-5.74-2.28-11.67-7.55-15.2-12.87-3.54-5.33-6.15-13.02-6-19.09.15-6.08 3.23-12.44 6.9-17.37 3.66-4.93 8.97-9.99 15.07-12.21 6.09-2.23 17.91-1.17 21.5-1.13s.5.81.04 1.35"/></g><g stroke-linecap="round"><path fill="#fff" stroke-width="0" d="M1166.814 55.318c6.31-2.46 16.07-2.96 23.14-1.13 7.06 1.84 14.27 6.62 19.26 12.16 4.99 5.53 9.5 14.04 10.66 21.05 1.17 7.02-.69 14.44-3.69 21.04-3.01 6.61-8.36 14.43-14.34 18.61s-14.36 6.38-21.54 6.47-15.24-2.19-21.52-5.94c-6.27-3.74-13.12-9.96-16.14-16.53-3.01-6.57-2.87-15.7-1.93-22.9s1.4-14.41 7.59-20.3c6.19-5.9 23.03-12.73 29.54-15.08 6.51-2.36 9.68.25 9.49.95m3.57 2.55c6.27 1.44 12.99 5.93 17.97 11.37 4.98 5.45 10.8 14.05 11.9 21.3 1.1 7.24-1.9 15.6-5.3 22.15s-9.19 13.46-15.1 17.14c-5.9 3.69-12.95 5.34-20.34 4.97s-17.79-2.95-23.98-7.16-10.51-11.65-13.18-18.12-3.81-13.56-2.85-20.69c.96-7.14 3.68-16.75 8.61-22.1 4.92-5.35 13.64-8.53 20.94-10.02s19.15.98 22.86 1.1-.18-.77-.61-.37"/><path fill="none" stroke="#000" d="M1181.974 53.608c6.97-.6 15.29 1.86 21.01 5.87s10.66 11.36 13.29 18.2c2.62 6.84 3.51 15.8 2.45 22.84-1.05 7.04-4 14.04-8.8 19.38s-12.81 10.62-20.01 12.65c-7.2 2.04-16.2 1.78-23.21-.47-7-2.24-14.17-7.16-18.82-13.02-4.66-5.86-8.49-14.9-9.09-22.13-.59-7.23 2.25-15.05 5.5-21.26 3.26-6.21 7.34-12.16 14.03-16.01 6.69-3.84 21.39-6.29 26.1-7.05s2.31 1.69 2.16 2.49m-25.57 2.88c5.69-3.6 15.37-4.61 22.45-3.89 7.08.73 14.37 3.86 20.03 8.26 5.67 4.41 11.33 11.5 13.95 18.19 2.62 6.68 3.42 14.98 1.77 21.93-1.64 6.94-6.38 14.46-11.65 19.74-5.27 5.27-12.63 10.42-19.97 11.9-7.34 1.47-17.32.08-24.06-3.04-6.74-3.13-12.54-9.65-16.39-15.73s-6.25-13.57-6.73-20.77c-.49-7.19.44-16.05 3.82-22.43 3.37-6.38 13.63-13.37 16.43-15.84s-.34.23.36 1.03"/></g><g stroke-linecap="round"><path fill="#fff" stroke-width="0" d="M1197.052 102.895c5.54 2.2 11.03 9.23 14.23 14.9 3.2 5.66 5.48 12.76 4.97 19.09-.51 6.34-3.94 13.93-8.05 18.92-4.1 4.98-10.3 9.72-16.59 11-6.28 1.28-15.08-.73-21.11-3.31s-11.83-6.79-15.07-12.18c-3.24-5.38-5.04-13.66-4.37-20.11s4.24-13.81 8.38-18.59c4.14-4.77 9.17-9.09 16.48-10.03 7.3-.95 22.33 2.83 27.35 4.35 5.03 1.53 3.17 4.44 2.81 4.81m-11.43-7.71c6.35 1.94 14.11 6.79 17.69 12.21 3.57 5.42 4.44 13.93 3.77 20.32-.67 6.38-4.15 12.99-7.78 18-3.63 5-8 10.14-14.02 12-6.02 1.87-15.72 1.35-22.08-.83-6.37-2.17-12.71-6.73-16.09-12.2-3.39-5.46-4.26-13.91-4.2-20.61.05-6.7.74-14.28 4.54-19.58 3.79-5.3 11.78-10.58 18.21-12.22s17.2 2.18 20.37 2.4-1.27-1.63-1.37-1.08"/><path fill="none" stroke="#000" d="M1198.942 103.795c5.48 2.22 10.83 8.97 13.68 14.86 2.86 5.89 4.17 14.15 3.46 20.46-.72 6.32-3.34 12.77-7.74 17.44-4.39 4.67-12.07 9.25-18.64 10.58s-14.85.21-20.79-2.63c-5.93-2.83-11.72-8.43-14.84-14.38-3.11-5.96-4.96-14.92-3.84-21.36 1.11-6.44 6-12.92 10.54-17.29s9.66-8.01 16.69-8.92c7.03-.92 20.81 2.13 25.51 3.44 4.7 1.32 3.09 3.86 2.7 4.45m-37.32-5.15c5.09-3.17 14.09-3.94 20.35-2.93 6.27 1 12.68 4.5 17.25 8.97s8.88 11.61 10.18 17.82c1.31 6.21.48 13.76-2.35 19.43-2.82 5.67-8.85 11.36-14.6 14.59-5.74 3.24-13.28 5.69-19.86 4.83-6.59-.86-15.05-5.03-19.64-9.98-4.59-4.94-7.19-13.19-7.88-19.71-.69-6.51.99-13.67 3.73-19.36s10.57-12.32 12.7-14.77c2.12-2.46-.15-.43.05.02"/></g><g stroke-linecap="round"><path fill="#fff" stroke-width="0" d="M974.902 22.31h213.11v134.88h-213.11"/><path fill="none" stroke="#fff" d="M974.902 22.31h213.11m-213.11 0h213.11m0 0v134.88m0-134.88v134.88m0 0h-213.11m213.11 0h-213.11m0 0V22.31m0 134.88V22.31"/></g><text x="100.399" fill="#1e1e1e" dominant-baseline="text-before-edge" font-family="Helvetica, Segoe UI Emoji" font-size="28" style="white-space:pre" text-anchor="middle" transform="translate(981.06 57.551)">A nice shade of </text><text x="100.399" y="32.2" fill="#1e1e1e" dominant-baseline="text-before-edge" font-family="Helvetica, Segoe UI Emoji" font-size="28" style="white-space:pre" text-anchor="middle" transform="translate(981.06 57.551)">green!</text><path fill="none" stroke="#000" stroke-linecap="round" d="M955.352 180.283c.92 3.45.41 8.86-1.36 12.1s-5.77 6.13-9.27 7.34c-3.5 1.22-8.29 1.18-11.74-.06s-7.19-4.23-8.95-7.38c-1.76-3.16-2.2-8.08-1.62-11.57.58-3.5 2.49-7.02 5.09-9.4s6.81-4.82 10.53-4.87c3.71-.06 8.89 2 11.77 4.56s4.56 8.85 5.48 10.8.32.99.06.9m-.21 3.77c-.37 3.38-2.89 7.25-5.61 9.59-2.71 2.34-7.14 4.3-10.67 4.46-3.54.16-7.79-1.23-10.52-3.49-2.74-2.25-5.11-6.51-5.9-10.06-.8-3.55-.58-7.99 1.14-11.22 1.72-3.24 5.59-6.92 9.16-8.17 3.58-1.25 8.83-.73 12.29.65 3.45 1.38 6.67 4.63 8.44 7.65 1.78 3.01 1.85 8.74 2.21 10.45.35 1.71.2-.11-.06-.18M916.873 213.627c.24 2.61-1.4 5.88-3.16 7.91-1.76 2.04-4.78 3.8-7.43 4.3-2.64.51-6.18.04-8.45-1.26-2.27-1.31-4.16-4.16-5.16-6.56-1.01-2.4-1.54-5.29-.85-7.85.69-2.55 2.61-6.07 4.97-7.49 2.37-1.42 6.52-1.5 9.22-1.02 2.69.47 5.18 1.87 6.93 3.87 1.75 1.99 3.05 6.81 3.57 8.11.53 1.3-.27-.36-.42-.33m.28 1.2c-.08 2.6-1.81 6.22-3.7 8.24-1.88 2.02-4.93 3.67-7.6 3.89-2.67.23-6.07-.93-8.4-2.53-2.34-1.6-4.9-4.34-5.62-7.07s-.08-6.89 1.31-9.33c1.39-2.43 4.48-4.35 7.02-5.28s5.67-.95 8.23-.29 5.58 2.15 7.13 4.24c1.55 2.08 1.88 6.9 2.18 8.27s-.1-.2-.4-.03"/><g stroke-linecap="round"><path fill="#fff" stroke-width="0" d="M1179.68 44.31h27.78v78.21h-27.78"/><path fill="none" stroke="#fff" d="M1179.68 44.31h27.78m-27.78 0h27.78m0 0v78.21m0-78.21v78.21m0 0h-27.78m27.78 0h-27.78m0 0V44.31m0 78.21V44.31"/></g><g stroke-linecap="round"><path fill="#fff" stroke-width="0" d="M959.757 25.325h17.13v99.11h-17.13"/><path fill="none" stroke="#fff" d="M959.757 25.325h17.13m-17.13 0h17.13m0 0v99.11m0-99.11v99.11m0 0h-17.13m17.13 0h-17.13m0 0v-99.11m0 99.11v-99.11"/></g><path fill="none" stroke="#1e1e1e" stroke-linecap="round" stroke-width="4" d="M995.173 372.259c1.78-1.96 8.42-9.68 10.22-11.69m-10.66 12.62c1.7-2.07 8.29-11.31 10.14-13.37"/><path fill="none" stroke="#1e1e1e" stroke-linecap="round" stroke-width="4" d="M995.435 373.64c2.92-1.48 14.76-7.04 17.7-8.46m-18.36 7.95c3.09-1.45 16.21-6.13 19.45-7.38M995.693 374.417c3.19.32 15.34 1.74 18.49 2.14m-19.04-2.65c3.4.39 16.85 2.64 20.03 3.24"/><path fill="none" stroke="#1e1e1e" stroke-linecap="round" stroke-width="4" d="M995.395 374.634c1.95 1.51 9.9 7.44 11.86 9.05m-11.01-9.47c2.13 1.58 10.06 8.58 12.05 10.12M994.396 374.569c.61 2.38 3.03 12.16 3.63 14.59m-2.69-13.53c.52 2.45 1.78 11.76 2.14 14.08M714.155 378.282c-.743 2.538-4.1 12.492-4.92 15.175m5.654-15.807c-.75 2.596-5.052 13.85-5.882 16.44M713.174 376.898c-2.21 2.526-10.906 13.358-12.908 15.955m12.66-14.787c-2.107 2.293-10.036 11.411-12.058 13.698M711.967 376.927c-2.907 1.074-14.433 4.602-17.45 5.507m18.046-6.055c-2.966.992-15.359 4.355-18.49 5.466"/><path fill="none" stroke="#1e1e1e" stroke-linecap="round" stroke-width="4" d="M713.035 376.986c-2.407-.649-12.8-2.894-15.359-3.54m14.913 3.502c-2.522-.827-13.209-3.598-15.687-4.137M713.81 375.986c-1.688-2.033-7.79-10.074-9.415-12.092m8.621 11.993c-1.645-1.7-7.152-9.377-8.682-11.283"/></svg>