<svg version="1.1" xmlns="http://www.w3.org/2000/svg" viewBox="0 0 1229.7061446045086 555.6228540661473" width="1229.7061446045086" height="555.6228540661473">
  <!-- svg-source:excalidraw -->
  
  <defs>
    <style class="style-fonts">
      @font-face {
        font-family: "Virgil";
        src: url("https://excalidraw.com/Virgil.woff2");
      }
      @font-face {
        font-family: "Cascadia";
        src: url("https://excalidraw.com/Cascadia.woff2");
      }
      @font-face {
        font-family: "Assistant";
        src: url("https://excalidraw.com/Assistant-Regular.woff2");
      }
    </style>
    
  </defs>
  <g stroke-opacity="0.6" fill-opacity="0.6" stroke-linecap="round" transform="translate(10 167.25158561917442) rotate(0 258.32214718199566 189.18563422348643)"><path d="M32 0 C181.21 0, 330.43 0, 484.64 0 C505.98 0, 516.64 10.67, 516.64 32 C516.64 122.52, 516.64 213.05, 516.64 346.37 C516.64 367.7, 505.98 378.37, 484.64 378.37 C340.67 378.37, 196.7 378.37, 32 378.37 C10.67 378.37, 0 367.7, 0 346.37 C0 239.86, 0 133.34, 0 32 C0 10.67, 10.67 0, 32 0" stroke="none" stroke-width="0" fill="#b2f2bb"></path><path d="M32 0 C201.66 0, 371.32 0, 484.64 0 M32 0 C135.46 0, 238.92 0, 484.64 0 M484.64 0 C505.98 0, 516.64 10.67, 516.64 32 M484.64 0 C505.98 0, 516.64 10.67, 516.64 32 M516.64 32 C516.64 127.03, 516.64 222.06, 516.64 346.37 M516.64 32 C516.64 109.83, 516.64 187.65, 516.64 346.37 M516.64 346.37 C516.64 367.7, 505.98 378.37, 484.64 378.37 M516.64 346.37 C516.64 367.7, 505.98 378.37, 484.64 378.37 M484.64 378.37 C353.94 378.37, 223.23 378.37, 32 378.37 M484.64 378.37 C374.51 378.37, 264.38 378.37, 32 378.37 M32 378.37 C10.67 378.37, 0 367.7, 0 346.37 M32 378.37 C10.67 378.37, 0 367.7, 0 346.37 M0 346.37 C0 275.64, 0 204.91, 0 32 M0 346.37 C0 224.62, 0 102.87, 0 32 M0 32 C0 10.67, 10.67 0, 32 0 M0 32 C0 10.67, 10.67 0, 32 0" stroke="#d1f7d6" stroke-width="2" fill="none"></path></g><g stroke-linecap="round"><g stroke-opacity="0.5" fill-opacity="0.5" transform="translate(806.3099414082899 270.4335766801282) rotate(0 -155.92177336061832 -10.907220856670165)"><path d="M-2.16 -0.09 C-83.69 -3.03, -163.9 -13.57, -314.3 -20.03 M0.08 0.36 C-79.86 -8.1, -157 -13.33, -313.27 -21.07" stroke="#e03131" stroke-width="4" fill="none"></path></g><g stroke-opacity="0.5" fill-opacity="0.5" transform="translate(806.3099414082899 270.4335766801282) rotate(0 -155.92177336061832 -10.907220856670165)"><path d="M-313.07 -20.32 L-297.89 -25.3 L-298.84 -13.35 L-312.57 -19.28" stroke="none" stroke-width="0" fill="#e03131" fill-rule="evenodd"></path><path d="M-314.4 -21.12 C-310.3 -21.49, -305.54 -25.49, -300.65 -25.74 M-313.22 -20.88 C-310.41 -22.34, -306.15 -23.61, -300.1 -26.29 M-299.91 -26.9 C-299.55 -25.32, -300.19 -20.82, -300.15 -14.26 M-298.85 -26.9 C-299.07 -22.58, -300.28 -17.85, -300.47 -13.55 M-299.09 -15.32 C-303.72 -15.26, -309.81 -17.33, -313.42 -20.4 M-300.33 -14.17 C-303.43 -15.07, -306.22 -17.02, -312.78 -21.78 M-313.27 -21.07 C-313.27 -21.07, -313.27 -21.07, -313.27 -21.07 M-313.27 -21.07 C-313.27 -21.07, -313.27 -21.07, -313.27 -21.07" stroke="#e03131" stroke-width="4" fill="none"></path></g></g><mask></mask><g stroke-linecap="round"><g stroke-opacity="0.5" fill-opacity="0.5" transform="translate(855.976653028074 276.00851232637297) rotate(0 -172.51970356516927 12.743479075987352)"><path d="M-1.19 1.89 C-108.35 5.37, -220.14 17.57, -346.3 26.27 M-1.11 0.11 C-82.2 7.57, -166.14 14, -346.28 25.33" stroke="#e03131" stroke-width="4" fill="none"></path></g><g stroke-opacity="0.5" fill-opacity="0.5" transform="translate(855.976653028074 276.00851232637297) rotate(0 -172.51970356516927 12.743479075987352)"><path d="M-344.81 26.71 L-331.94 18.79 L-331.61 32.56 L-345.45 25.16" stroke="none" stroke-width="0" fill="#e03131" fill-rule="evenodd"></path><path d="M-346.97 26.41 C-341.67 21.62, -339.23 21.72, -333.85 18.56 M-346.92 25.39 C-343.03 23.77, -340.75 22.24, -333.84 18.03 M-333.18 16.88 C-333.55 21.55, -332.95 23.4, -331.73 31 M-332.63 17.85 C-333.3 21.52, -333.04 25.22, -332.12 31.02 M-331.62 31.89 C-337.11 30.57, -339.91 28.43, -347.31 26.39 M-332.6 31.38 C-336.22 29.5, -339.65 26.98, -345.99 24.76 M-346.28 25.33 C-346.28 25.33, -346.28 25.33, -346.28 25.33 M-346.28 25.33 C-346.28 25.33, -346.28 25.33, -346.28 25.33" stroke="#e03131" stroke-width="4" fill="none"></path></g></g><mask></mask><g stroke-linecap="round" transform="translate(805.4991629734322 242.66589266903156) rotate(0 51.86181255625024 39.81014841786441)"><path d="M66.14 2.48 C75 3.95, 85.83 8.87, 92.05 14.14 C98.27 19.41, 102.28 26.84, 103.45 34.08 C104.62 41.32, 102.94 50.98, 99.08 57.58 C95.23 64.18, 88.22 70.03, 80.33 73.69 C72.43 77.35, 61.12 79.81, 51.7 79.55 C42.29 79.3, 31.86 76.25, 23.85 72.16 C15.83 68.07, 7.55 61.45, 3.6 55.01 C-0.35 48.56, -1.59 40.45, 0.16 33.49 C1.9 26.54, 7.79 18.51, 14.07 13.27 C20.36 8.03, 28.18 3.81, 37.84 2.04 C47.51 0.28, 66.05 2.12, 72.07 2.68 C78.1 3.24, 74.32 4.72, 73.99 5.43 M33.81 2.47 C42.03 -0.53, 55.61 -0.96, 64.74 0.82 C73.87 2.6, 82.4 7.68, 88.58 13.15 C94.76 18.61, 99.81 26.75, 101.83 33.61 C103.84 40.48, 103.91 47.97, 100.67 54.33 C97.43 60.69, 90.13 67.76, 82.38 71.79 C74.62 75.82, 63.66 77.94, 54.15 78.51 C44.63 79.09, 33.56 78.65, 25.31 75.23 C17.07 71.82, 8.78 64.37, 4.69 58.02 C0.59 51.67, -0.26 44.18, 0.77 37.15 C1.8 30.12, 5.05 21.79, 10.84 15.85 C16.63 9.91, 31.31 3.54, 35.51 1.5 C39.71 -0.54, 35.72 2.71, 36.05 3.61" stroke="#1e1e1e" stroke-width="4" fill="none"></path></g><g stroke-linecap="round"><g transform="translate(823.7818559096631 284.47753614972316) rotate(0 30.8900591592394 5.654451799589879)"><path d="M0.72 -0.44 C6.09 1.24, 20.92 9.88, 31.24 10.14 C41.57 10.39, 57.55 2.67, 62.64 1.08 M-0.37 -1.71 C4.94 0.06, 19.87 10.92, 30.32 11.06 C40.77 11.19, 57.05 0.63, 62.33 -0.91" stroke="#1e1e1e" stroke-width="4" fill="none"></path></g></g><mask></mask><g stroke-linecap="round"><g transform="translate(834.7402748735917 272.50334140006726) rotate(0 4.539199335629746 -1.9551314481743702)"><path d="M0.01 -0.35 C0.99 -0.99, 4.56 -4.09, 6.07 -3.98 C7.58 -3.87, 8.61 -0.4, 9.08 0.32 M-0.41 0.24 C0.52 -0.49, 4.38 -4.58, 5.92 -4.5 C7.46 -4.42, 8.37 -0.14, 8.86 0.74" stroke="#1e1e1e" stroke-width="4" fill="none"></path></g></g><mask></mask><g stroke-linecap="round"><g transform="translate(863.8307653531774 272.6668059780104) rotate(0 4.539199335629746 -1.9551314481743702)"><path d="M0.26 0.2 C1.22 -0.43, 4.38 -4.15, 5.81 -4.12 C7.25 -4.09, 8.28 -0.41, 8.87 0.38 M-0.04 -0.01 C0.88 -0.72, 4.11 -4.67, 5.54 -4.71 C6.97 -4.75, 7.87 -1.04, 8.54 -0.25" stroke="#1e1e1e" stroke-width="4" fill="none"></path></g></g><mask></mask><g stroke-linecap="round"><g transform="translate(840.5357903632666 342.4880199351419) rotate(0 -63.14137842875357 17.696338293529607)"><path d="M0.01 0.2 C-11.25 2.73, -45.76 9.83, -66.66 15.89 C-87.56 21.96, -115.45 33.24, -125.37 36.59 M-1.45 -0.75 C-12.39 1.36, -43.61 8.04, -64.31 13.98 C-85.01 19.92, -115.4 31.58, -125.66 34.88" stroke="#1e1e1e" stroke-width="4" fill="none"></path></g></g><mask></mask><g stroke-linecap="round"><g transform="translate(863.3630185067923 339.3466482375825) rotate(0 65.23561664045019 16.963355398769636)"><path d="M-0.69 0.4 C10.56 2.66, 45.63 8.07, 67.51 13.76 C89.39 19.46, 120.12 31.07, 130.6 34.55 M1.15 -0.44 C12.32 1.5, 45.58 6.77, 67.04 12.27 C88.5 17.76, 119.31 29.17, 129.91 32.53" stroke="#1e1e1e" stroke-width="4" fill="none"></path></g></g><mask></mask><g stroke-linecap="round"><g transform="translate(854.9860464866533 353.16864152546805) rotate(0 -1.256544844353357 88.58641632024614)"><path d="M0.91 1.2 C0.63 14.04, -2.01 48.03, -2.38 77.48 C-2.76 106.93, -1.35 161.43, -1.33 177.88 M-0.07 0.78 C-0.43 13.24, -2.92 46.5, -3.26 75.68 C-3.61 104.87, -2.25 159.06, -2.14 175.91" stroke="#1e1e1e" stroke-width="4" fill="none"></path></g></g><mask></mask><g stroke-linecap="round"><g transform="translate(839.2792359322361 545.0011656145293) rotate(0 -25.96859025440949 -0.20942573850493318)"><path d="M0.13 0.62 C-8.69 0.47, -43.16 0.62, -52.01 0.29 M-1.26 -0.1 C-10.32 -0.09, -44.78 -1.38, -53 -1.46" stroke="#1e1e1e" stroke-width="4" fill="none"></path></g></g><mask></mask><g stroke-linecap="round"><g transform="translate(861.6876317721049 544.3728931923515) rotate(0 27.015714153596036 -0.3141362110884529)"><path d="M-0.08 0.71 C8.74 0.34, 44.16 -1.28, 53 -1.6 M-1.58 0.03 C7.59 -0.27, 45.69 -0.54, 55.18 -0.57" stroke="#1e1e1e" stroke-width="4" fill="none"></path></g></g><mask></mask><g stroke-linecap="round" transform="translate(947.8467696045086 10) rotate(0 33.00458836252483 32.988525390625)"><path d="M24.13 0.36 C29.83 -1.76, 38.17 -0.72, 44.16 1.7 C50.14 4.12, 56.48 9.41, 60.01 14.87 C63.55 20.33, 65.56 27.94, 65.36 34.44 C65.16 40.95, 62.48 48.89, 58.8 53.88 C55.12 58.86, 49.31 62.57, 43.27 64.35 C37.23 66.13, 28.87 66.56, 22.57 64.55 C16.27 62.54, 9.19 57.81, 5.45 52.29 C1.72 46.78, -0.03 38.15, 0.16 31.45 C0.35 24.75, 1.53 17.45, 6.59 12.08 C11.65 6.71, 25.24 0.94, 30.51 -0.75 C35.77 -2.44, 38.01 1.13, 38.17 1.95 M43.69 0.97 C49.82 2.68, 57.9 9.15, 61.51 14.76 C65.12 20.37, 65.93 27.9, 65.37 34.61 C64.81 41.32, 62.08 50.01, 58.17 55.03 C54.26 60.05, 48.34 63.28, 41.89 64.74 C35.44 66.2, 25.5 66.09, 19.48 63.78 C13.45 61.47, 8.92 56.25, 5.73 50.88 C2.55 45.5, -0.03 38.19, 0.35 31.53 C0.73 24.88, 3.81 15.8, 8.04 10.95 C12.28 6.1, 19.56 4.03, 25.76 2.45 C31.97 0.87, 41.96 1.22, 45.27 1.47 C48.57 1.71, 45.92 3.1, 45.6 3.93" stroke="none" stroke-width="0" fill="#fff"></path><path d="M39.26 0.11 C45.46 0.74, 53.13 5.24, 57.59 9.95 C62.05 14.67, 65.18 21.99, 66.02 28.39 C66.85 34.8, 65.9 42.47, 62.6 48.38 C59.29 54.28, 52.21 61.13, 46.19 63.81 C40.16 66.49, 32.61 65.93, 26.45 64.45 C20.28 62.96, 13.61 59.47, 9.2 54.89 C4.8 50.31, 1.03 43.23, 0.02 36.94 C-0.99 30.65, 0.02 22.63, 3.13 17.15 C6.24 11.67, 12.33 6.77, 18.69 4.06 C25.05 1.34, 37.2 1.1, 41.29 0.85 C45.38 0.6, 43.33 1.84, 43.24 2.57 M47.51 3.4 C52.96 5.71, 59.46 12.03, 62.51 18.19 C65.55 24.35, 67.06 33.82, 65.78 40.36 C64.49 46.9, 59.44 53.28, 54.83 57.44 C50.21 61.61, 44.16 64.71, 38.11 65.36 C32.06 66, 24.17 64.56, 18.53 61.32 C12.88 58.09, 7.38 51.5, 4.23 45.95 C1.08 40.39, -1.46 34.31, -0.37 27.99 C0.72 21.66, 5.73 12.38, 10.79 7.99 C15.85 3.59, 23.86 2.14, 30 1.64 C36.14 1.13, 44.4 4.37, 47.63 4.94 C50.86 5.51, 49.44 4.98, 49.38 5.07" stroke="#000000" stroke-width="1" fill="none"></path></g><g stroke-linecap="round" transform="translate(961.6979299905383 15.212986366421319) rotate(0 40.130859375 40.111328125)"><path d="M35.48 0.78 C42.23 -0.43, 51.26 2.02, 57.96 5.16 C64.66 8.3, 71.88 13.42, 75.69 19.61 C79.5 25.8, 81.34 34.91, 80.83 42.29 C80.31 49.66, 76.84 58.13, 72.6 63.85 C68.35 69.57, 62.06 74.14, 55.38 76.62 C48.69 79.1, 39.73 80.08, 32.5 78.72 C25.26 77.37, 17.26 73.17, 11.97 68.48 C6.68 63.78, 2.38 57.31, 0.77 50.57 C-0.84 43.82, -0.19 35.08, 2.33 28 C4.86 20.92, 9.75 12.93, 15.92 8.11 C22.09 3.28, 35.12 0.17, 39.35 -0.97 C43.59 -2.11, 41.41 0.51, 41.33 1.28 M34.74 0.26 C41.26 -1.48, 48.49 0.59, 55.09 3.6 C61.68 6.61, 70.04 12.2, 74.28 18.33 C78.53 24.46, 80.5 33.33, 80.54 40.36 C80.59 47.38, 78.3 54.23, 74.56 60.48 C70.82 66.72, 64.71 74.76, 58.1 77.85 C51.49 80.94, 42.11 80.04, 34.9 79.01 C27.68 77.98, 20.45 76.03, 14.82 71.67 C9.19 67.3, 3.54 60.07, 1.11 52.82 C-1.31 45.57, -1.75 35.14, 0.27 28.16 C2.29 21.18, 7.39 15.47, 13.23 10.96 C19.06 6.44, 31.91 2.46, 35.29 1.06 C38.67 -0.33, 33.87 2, 33.52 2.59" stroke="none" stroke-width="0" fill="#fff"></path><path d="M41.8 -0.42 C48.71 -0.78, 57.05 2.49, 63.04 6.56 C69.03 10.63, 75.12 17.11, 77.74 24 C80.37 30.89, 80.18 40.87, 78.78 47.92 C77.37 54.96, 74 61.22, 69.31 66.27 C64.61 71.31, 57.56 76.23, 50.59 78.2 C43.62 80.16, 34.58 80.16, 27.51 78.05 C20.43 75.95, 12.72 70.95, 8.14 65.54 C3.56 60.13, 0.75 52.84, 0.03 45.61 C-0.69 38.38, 0.67 28.77, 3.81 22.14 C6.95 15.52, 11.69 9.28, 18.87 5.84 C26.05 2.4, 41.18 1.94, 46.89 1.49 C52.6 1.05, 53.16 2.79, 53.14 3.16 M33.07 2.13 C39.6 0.5, 47.53 1.11, 54.3 3.54 C61.07 5.97, 69.14 11.01, 73.66 16.71 C78.18 22.4, 81.07 30.68, 81.42 37.74 C81.77 44.79, 79.75 52.54, 75.75 59.05 C71.75 65.56, 63.92 73.49, 57.41 76.8 C50.89 80.1, 43.47 79.55, 36.66 78.89 C29.84 78.23, 22.46 76.99, 16.53 72.84 C10.6 68.69, 3.47 60.98, 1.08 54 C-1.31 47.02, 0.25 38.37, 2.2 30.97 C4.14 23.56, 7.53 14.42, 12.74 9.55 C17.94 4.69, 30.2 3, 33.42 1.78 C36.64 0.56, 32.15 1.64, 32.05 2.23" stroke="#000000" stroke-width="1" fill="none"></path></g><g stroke-linecap="round" transform="translate(992.5577932717883 14.504739200367567) rotate(0 40.130859375 40.111328125)"><path d="M50.73 2.32 C57.75 3.52, 66.2 7.95, 71.14 13.32 C76.09 18.69, 79.52 27.24, 80.4 34.54 C81.29 41.83, 79.46 50.69, 76.43 57.1 C73.41 63.51, 68.29 69.3, 62.26 73.02 C56.22 76.73, 47.59 79.37, 40.23 79.41 C32.87 79.45, 24.25 76.82, 18.11 73.23 C11.96 69.65, 6.29 64.16, 3.36 57.88 C0.43 51.6, -0.61 42.95, 0.55 35.56 C1.71 28.16, 5.65 19.3, 10.34 13.5 C15.02 7.7, 21.44 2.47, 28.66 0.74 C35.88 -0.99, 48.9 2.48, 53.64 3.1 C58.39 3.72, 57.27 3.94, 57.13 4.47 M51.92 2.35 C58.58 4.14, 67.56 9.8, 72.3 15.57 C77.04 21.34, 79.71 29.97, 80.37 36.96 C81.03 43.95, 79.45 50.97, 76.25 57.52 C73.04 64.08, 67.45 72.65, 61.12 76.28 C54.8 79.91, 45.56 79.74, 38.29 79.32 C31.02 78.9, 23.51 77.64, 17.5 73.76 C11.49 69.88, 5.24 63.08, 2.24 56.03 C-0.77 48.98, -1.94 38.59, -0.52 31.47 C0.9 24.35, 5.36 18.27, 10.77 13.32 C16.18 8.36, 24.97 3.35, 31.95 1.72 C38.93 0.09, 49.38 3.31, 52.65 3.55 C55.91 3.78, 51.43 2.6, 51.55 3.13" stroke="none" stroke-width="0" fill="#fff"></path><path d="M31.06 0.67 C37.63 -1.48, 47.39 -0.85, 54.03 1.77 C60.66 4.39, 66.57 10.78, 70.85 16.4 C75.13 22.02, 78.83 28.55, 79.69 35.47 C80.54 42.38, 79.29 51.36, 75.98 57.9 C72.67 64.43, 66.32 70.98, 59.85 74.7 C53.38 78.41, 44.38 80.37, 37.16 80.19 C29.94 80.01, 22.29 77.88, 16.52 73.62 C10.74 69.36, 5.24 61.48, 2.53 54.62 C-0.19 47.76, -1.21 39.36, 0.23 32.47 C1.67 25.58, 5.08 18.55, 11.17 13.26 C17.26 7.97, 31.73 2.92, 36.76 0.72 C41.78 -1.49, 41.49 -0.53, 41.34 0.03 M32.27 1.18 C39.01 -0.85, 49.38 0.22, 56.41 2.81 C63.43 5.4, 70.28 10.93, 74.42 16.72 C78.55 22.52, 81.36 30.09, 81.22 37.59 C81.09 45.08, 77.42 55.47, 73.62 61.7 C69.83 67.93, 64.56 71.68, 58.46 74.95 C52.36 78.22, 44.46 81.77, 37.01 81.31 C29.55 80.85, 19.4 76.89, 13.73 72.19 C8.06 67.49, 5.04 60.36, 2.99 53.1 C0.94 45.84, -0.33 35.5, 1.44 28.6 C3.2 21.7, 8.45 16.24, 13.61 11.7 C18.76 7.16, 29.19 2.96, 32.36 1.36 C35.54 -0.24, 32.66 1.55, 32.67 2.11" stroke="#000000" stroke-width="1" fill="none"></path></g><g stroke-linecap="round" transform="translate(1029.4015432717883 14.504739200367567) rotate(0 40.130859375 40.111328125)"><path d="M52.43 1.38 C59.34 2.73, 66.6 8.76, 71.12 14.38 C75.64 20.01, 78.59 28.16, 79.53 35.13 C80.46 42.1, 79.74 49.87, 76.74 56.2 C73.74 62.53, 67.73 69.22, 61.51 73.09 C55.29 76.96, 46.69 79.17, 39.43 79.42 C32.17 79.67, 23.89 78.26, 17.95 74.61 C12.01 70.96, 6.57 64.33, 3.78 57.51 C0.98 50.69, 0.14 41.17, 1.18 33.71 C2.22 26.26, 5.55 18.08, 10.02 12.79 C14.49 7.51, 20.72 3.8, 28.01 2.02 C35.29 0.25, 49.07 1.78, 53.74 2.13 C58.41 2.48, 56.06 3.34, 56 4.11 M38.01 0.32 C45.1 -0.63, 53.46 2.32, 59.77 5.6 C66.08 8.88, 72.32 13.52, 75.88 20.01 C79.44 26.5, 81.71 37.29, 81.11 44.52 C80.51 51.76, 76.68 57.71, 72.28 63.41 C67.88 69.11, 61.61 75.92, 54.7 78.73 C47.8 81.55, 38.22 82.21, 30.84 80.32 C23.46 78.42, 15.45 72.51, 10.41 67.36 C5.36 62.21, 1.65 56.21, 0.55 49.41 C-0.55 42.61, 1.32 33.26, 3.82 26.56 C6.32 19.87, 10.2 13.63, 15.55 9.25 C20.9 4.86, 32.04 1.52, 35.93 0.25 C39.81 -1.02, 38.61 0.89, 38.85 1.62" stroke="none" stroke-width="0" fill="#fff"></path><path d="M32.19 0.45 C38.59 -1.33, 46.59 1.06, 53.2 3.49 C59.8 5.93, 67.28 9.57, 71.81 15.07 C76.35 20.57, 79.84 29.15, 80.39 36.48 C80.94 43.82, 78.79 52.6, 75.14 59.07 C71.49 65.54, 64.82 71.65, 58.48 75.31 C52.14 78.97, 44.2 81.59, 37.09 81.03 C29.99 80.47, 21.68 76.43, 15.83 71.97 C9.99 67.51, 4.52 60.83, 2.03 54.26 C-0.46 47.69, -0.88 39.56, 0.9 32.56 C2.68 25.57, 6.65 17.8, 12.7 12.27 C18.75 6.74, 32.43 1.3, 37.23 -0.63 C42.02 -2.57, 41.58 -0.16, 41.49 0.67 M59.42 4.23 C66.13 6.7, 72.56 13.43, 76.19 19.54 C79.81 25.66, 81.92 33.42, 81.19 40.91 C80.45 48.4, 76.09 58.58, 71.79 64.48 C67.5 70.37, 61.76 73.58, 55.42 76.3 C49.07 79.02, 41.08 81.85, 33.72 80.8 C26.36 79.75, 16.51 75.13, 11.24 69.98 C5.97 64.83, 3.56 57.32, 2.09 49.9 C0.62 42.47, 0.07 32.15, 2.41 25.42 C4.75 18.7, 10.6 13.63, 16.15 9.55 C21.69 5.47, 28.69 1.63, 35.66 0.92 C42.64 0.21, 54.48 4.52, 58.01 5.28 C61.54 6.03, 57.09 5.02, 56.85 5.44" stroke="#000000" stroke-width="1" fill="none"></path></g><g stroke-linecap="round" transform="translate(1074.1398245217883 14.504739200367567) rotate(0 40.130859375 40.111328125)"><path d="M56.22 3.57 C62.56 5.86, 68.8 12.22, 72.83 17.98 C76.86 23.75, 80.14 31.18, 80.39 38.16 C80.64 45.15, 78.17 53.71, 74.34 59.89 C70.5 66.07, 63.86 71.76, 57.36 75.24 C50.85 78.72, 42.35 81.31, 35.29 80.78 C28.24 80.25, 20.45 76.86, 15.03 72.07 C9.61 67.29, 5.03 59.21, 2.76 52.05 C0.5 44.88, -0.1 35.9, 1.44 29.08 C2.98 22.25, 6.76 15.89, 11.98 11.08 C17.2 6.28, 24.96 1.31, 32.77 0.23 C40.57 -0.85, 53.83 3.32, 58.82 4.6 C63.8 5.88, 62.96 7.44, 62.67 7.9 M42.13 0.67 C49 0.19, 57.69 2.03, 63.71 6.33 C69.74 10.62, 75.61 19.72, 78.27 26.44 C80.93 33.16, 81.05 39.63, 79.67 46.66 C78.29 53.7, 75.07 63.07, 69.98 68.65 C64.9 74.22, 56.5 78.68, 49.15 80.09 C41.81 81.49, 32.73 79.42, 25.94 77.06 C19.14 74.71, 12.45 71.36, 8.37 65.97 C4.28 60.58, 2.22 51.84, 1.45 44.72 C0.67 37.59, 0.9 29.75, 3.73 23.23 C6.56 16.72, 11.83 9.37, 18.42 5.63 C25 1.88, 39.39 1.47, 43.23 0.77 C47.08 0.07, 41.81 0.72, 41.5 1.41" stroke="none" stroke-width="0" fill="#fff"></path><path d="M30.64 1.92 C37.06 -0.18, 46.73 -0.68, 53.7 1.56 C60.67 3.79, 68.09 9.42, 72.46 15.32 C76.83 21.23, 79.58 29.65, 79.91 36.98 C80.24 44.31, 77.9 52.77, 74.44 59.31 C70.99 65.84, 65.41 72.77, 59.18 76.19 C52.94 79.61, 44.29 80.48, 37.02 79.84 C29.76 79.19, 21.35 76.45, 15.6 72.33 C9.86 68.2, 4.83 61.8, 2.55 55.1 C0.26 48.4, 0.28 39.47, 1.89 32.12 C3.51 24.77, 6.62 16.35, 12.26 11.01 C17.89 5.66, 31.02 1.71, 35.69 0.04 C40.36 -1.63, 39.99 0.42, 40.28 1.01 M49.08 0.06 C55.98 0.67, 64.06 4.6, 68.92 9.88 C73.79 15.16, 76.66 24.68, 78.26 31.74 C79.87 38.81, 80.58 45.37, 78.57 52.26 C76.56 59.15, 72.17 68.29, 66.2 73.09 C60.22 77.88, 50 80.52, 42.73 81.04 C35.47 81.56, 28.82 79.95, 22.6 76.22 C16.39 72.49, 9.08 64.83, 5.43 58.65 C1.78 52.47, 0.5 46, 0.71 39.13 C0.92 32.27, 2.68 23.4, 6.68 17.47 C10.67 11.53, 18.05 6.29, 24.67 3.53 C31.3 0.78, 42.61 1.32, 46.4 0.93 C50.2 0.55, 47.18 0.78, 47.43 1.24" stroke="#000000" stroke-width="1" fill="none"></path></g><g stroke-linecap="round" transform="translate(1120.9171682717883 14.504739200367567) rotate(0 40.130859375 40.111328125)"><path d="M34.34 1.01 C40.99 -0.67, 50.61 0.27, 57.19 3.08 C63.76 5.88, 70.05 11.75, 73.8 17.84 C77.54 23.92, 79.72 32.07, 79.65 39.57 C79.57 47.07, 77.16 56.5, 73.34 62.82 C69.52 69.15, 63.16 74.8, 56.75 77.52 C50.35 80.25, 42.07 80.55, 34.91 79.18 C27.76 77.8, 19.52 73.87, 13.81 69.27 C8.1 64.67, 2.73 58.43, 0.65 51.58 C-1.43 44.73, -0.86 35.2, 1.33 28.18 C3.51 21.16, 6.37 14.02, 13.75 9.45 C21.13 4.88, 38.83 1.89, 45.61 0.75 C52.4 -0.38, 54.64 1.99, 54.46 2.65 M43.59 -0.89 C50.6 -0.8, 59.53 5.12, 65.25 9.5 C70.96 13.87, 75.42 18.66, 77.88 25.37 C80.34 32.08, 81.67 42.39, 79.99 49.76 C78.31 57.14, 73.24 64.85, 67.79 69.61 C62.33 74.37, 54.3 76.83, 47.28 78.32 C40.25 79.81, 31.99 80.83, 25.64 78.55 C19.29 76.27, 13.53 70.37, 9.17 64.64 C4.8 58.91, 0.4 51.45, -0.55 44.17 C-1.5 36.88, -0.33 27.36, 3.49 20.93 C7.32 14.49, 15.85 8.94, 22.41 5.57 C28.96 2.2, 39.43 1.31, 42.82 0.69 C46.22 0.06, 42.57 1.26, 42.77 1.81" stroke="none" stroke-width="0" fill="#fff"></path><path d="M30.25 0.18 C36.98 -2.27, 46.61 -0.99, 53.47 1.5 C60.34 3.98, 67.14 9.29, 71.42 15.09 C75.7 20.89, 78.45 28.92, 79.14 36.3 C79.83 43.68, 78.78 53, 75.57 59.38 C72.37 65.75, 66.22 71.07, 59.91 74.55 C53.6 78.03, 44.89 80.39, 37.72 80.25 C30.54 80.11, 22.51 77.84, 16.87 73.72 C11.23 69.59, 6.47 62.51, 3.87 55.52 C1.27 48.52, 0.12 38.96, 1.26 31.76 C2.4 24.55, 4.94 17.51, 10.7 12.28 C16.46 7.05, 30.5 2.41, 35.83 0.4 C41.16 -1.62, 42.52 -0.51, 42.71 0.2 M36.75 -1.08 C43.17 -2.11, 50.72 1.88, 57.12 5.14 C63.53 8.39, 71.09 12.17, 75.18 18.45 C79.26 24.73, 82.14 35.24, 81.63 42.81 C81.11 50.39, 76.26 58.1, 72.09 63.91 C67.91 69.72, 63.04 75.29, 56.56 77.68 C50.08 80.06, 40.39 79.4, 33.21 78.23 C26.03 77.05, 18.96 75.18, 13.49 70.61 C8.03 66.05, 2.43 57.92, 0.4 50.86 C-1.62 43.8, -0.83 35.19, 1.34 28.23 C3.5 21.27, 7.72 13.82, 13.41 9.1 C19.1 4.39, 31.59 1.44, 35.47 -0.06 C39.35 -1.57, 36.42 -0.54, 36.69 0.08" stroke="#000000" stroke-width="1" fill="none"></path></g><g stroke-linecap="round" transform="translate(949.8155196045086 53.31815831801441) rotate(0 40.130859375 40.111328125)"><path d="M49.59 0.44 C56.42 1.24, 63.95 6.32, 68.83 11.51 C73.72 16.7, 77.53 24.2, 78.89 31.57 C80.26 38.93, 79.56 48.69, 77.04 55.68 C74.51 62.67, 69.4 69.53, 63.72 73.51 C58.04 77.5, 50.18 79.5, 42.95 79.57 C35.72 79.64, 26.91 77.36, 20.36 73.94 C13.8 70.52, 7.06 65.36, 3.63 59.05 C0.2 52.74, -0.97 43.37, -0.21 36.07 C0.55 28.77, 3.56 20.82, 8.19 15.26 C12.81 9.71, 19.74 4.93, 27.53 2.72 C35.32 0.5, 49.51 1.33, 54.92 1.97 C60.34 2.61, 60.24 5.76, 60.04 6.56 M49.43 2.29 C56.21 3.19, 63.38 5.74, 68.47 10.76 C73.57 15.78, 78.53 25.02, 79.98 32.39 C81.43 39.76, 79.99 48.54, 77.17 54.99 C74.36 61.44, 68.8 66.75, 63.08 71.09 C57.36 75.43, 49.64 80.2, 42.84 81.02 C36.05 81.83, 28.73 79.37, 22.31 76.01 C15.9 72.64, 8.31 67.23, 4.36 60.83 C0.41 54.43, -2.21 44.91, -1.39 37.6 C-0.57 30.28, 4.78 22.69, 9.28 16.96 C13.78 11.22, 19.14 5.7, 25.62 3.17 C32.1 0.64, 44.2 2.05, 48.17 1.77 C52.15 1.5, 49.76 1.12, 49.47 1.54" stroke="none" stroke-width="0" fill="#fff"></path><path d="M59.38 4.08 C65.72 6.96, 71.68 14.01, 74.99 20.45 C78.3 26.9, 79.71 35.34, 79.24 42.74 C78.77 50.14, 76.36 59.09, 72.17 64.85 C67.98 70.61, 60.9 74.89, 54.09 77.32 C47.29 79.75, 38.35 80.72, 31.33 79.43 C24.3 78.14, 16.83 74.58, 11.93 69.57 C7.04 64.56, 3.45 56.7, 1.96 49.36 C0.47 42.03, 0.73 32.45, 2.98 25.55 C5.24 18.66, 9.89 12.19, 15.51 7.99 C21.12 3.78, 29.03 0.85, 36.67 0.32 C44.31 -0.2, 57.19 3.66, 61.33 4.83 C65.47 6.01, 62.07 6.54, 61.53 7.36 M30 2 C36.48 -0.09, 46.85 -1.32, 54.05 1.15 C61.25 3.63, 69.05 10.79, 73.21 16.85 C77.38 22.91, 78.47 30.46, 79.05 37.52 C79.63 44.59, 79.86 53.23, 76.7 59.24 C73.54 65.25, 66.46 69.93, 60.12 73.6 C53.78 77.27, 46.03 81.3, 38.64 81.26 C31.25 81.23, 21.89 77.7, 15.8 73.4 C9.7 69.11, 4.84 62.34, 2.09 55.52 C-0.66 48.69, -2.19 39.72, -0.72 32.46 C0.76 25.2, 5.54 17.35, 10.95 11.96 C16.36 6.57, 28.23 1.89, 31.73 0.12 C35.23 -1.66, 31.74 0.25, 31.95 1.28" stroke="#000000" stroke-width="1" fill="none"></path></g><g stroke-linecap="round" transform="translate(947.8467696045086 101.15478515625) rotate(0 33.00458836252483 32.988525390625)"><path d="M28.18 0.94 C34.13 -0.52, 43.03 0.45, 48.74 3.26 C54.46 6.07, 59.79 12.02, 62.48 17.82 C65.17 23.61, 66.05 31.39, 64.87 38.02 C63.7 44.65, 59.97 52.85, 55.44 57.6 C50.91 62.34, 43.89 65.85, 37.68 66.49 C31.46 67.13, 23.87 64.82, 18.17 61.46 C12.46 58.11, 6.54 52.01, 3.45 46.37 C0.36 40.72, -1.44 33.83, -0.38 27.57 C0.67 21.31, 3.47 13.37, 9.79 8.8 C16.1 4.23, 31.28 0.97, 37.5 0.18 C43.72 -0.61, 47.15 3.62, 47.1 4.04 M34.7 0.66 C40.83 0.27, 48.81 2, 53.99 6.15 C59.17 10.3, 64.08 19.31, 65.76 25.56 C67.43 31.81, 66.34 37.68, 64.03 43.66 C61.72 49.65, 57.43 57.59, 51.92 61.48 C46.41 65.36, 37.75 67.6, 30.97 66.99 C24.19 66.38, 16.25 61.85, 11.23 57.81 C6.21 53.77, 2.19 48.7, 0.87 42.74 C-0.45 36.78, 1.12 28.05, 3.33 22.06 C5.54 16.07, 9.19 10.47, 14.12 6.82 C19.06 3.18, 29.33 1.09, 32.94 0.19 C36.55 -0.71, 35.6 0.8, 35.78 1.42" stroke="none" stroke-width="0" fill="#fff"></path><path d="M17.64 3.45 C22.7 0.37, 30.69 -0.76, 37.08 0.41 C43.47 1.57, 51.3 5.96, 56 10.46 C60.7 14.96, 64.29 21.15, 65.28 27.39 C66.27 33.63, 64.82 41.93, 61.96 47.9 C59.1 53.87, 53.62 60.2, 48.12 63.23 C42.62 66.26, 35.28 67.34, 28.98 66.07 C22.68 64.81, 15.14 60.3, 10.32 55.64 C5.5 50.98, 1.25 44.35, 0.06 38.13 C-1.13 31.92, -0.53 24.46, 3.18 18.35 C6.89 12.24, 18.6 4.19, 22.32 1.48 C26.05 -1.22, 25.54 1.35, 25.53 2.1 M24.51 1.81 C30.32 0, 39.96 -1.14, 46.31 1.43 C52.66 3.99, 59.51 11.32, 62.6 17.2 C65.69 23.07, 65.44 30.37, 64.85 36.68 C64.26 42.99, 63.05 50.53, 59.03 55.04 C55.01 59.55, 47.08 62.14, 40.73 63.72 C34.37 65.3, 27.05 66.66, 20.92 64.52 C14.79 62.38, 7.52 56.47, 3.94 50.88 C0.35 45.3, -1.01 37.54, -0.58 31 C-0.16 24.46, 2.21 16.72, 6.5 11.65 C10.78 6.58, 21.8 2.43, 25.11 0.58 C28.43 -1.26, 26.08 0.08, 26.4 0.57" stroke="#000000" stroke-width="1" fill="none"></path></g><g stroke-linecap="round" transform="translate(984.9210745217883 86.18930951286757) rotate(0 40.130859375 40.111328125)"><path d="M26.59 1.33 C32.88 -1.14, 42.23 -0.03, 49.39 1.98 C56.54 3.99, 64.35 8.38, 69.51 13.4 C74.67 18.42, 79 25.32, 80.33 32.12 C81.66 38.93, 80.47 47.36, 77.47 54.23 C74.47 61.1, 68.34 69.07, 62.34 73.33 C56.33 77.59, 48.59 79.6, 41.46 79.81 C34.33 80.01, 25.65 78.08, 19.58 74.57 C13.51 71.07, 8.29 65.33, 5.03 58.77 C1.78 52.2, -0.56 42.38, 0.07 35.18 C0.69 27.98, 3.23 21.29, 8.8 15.55 C14.37 9.82, 28.27 3.18, 33.48 0.77 C38.69 -1.64, 40.08 0.38, 40.06 1.11 M59.01 5.36 C65.27 8.29, 70.83 15.01, 74.16 20.92 C77.48 26.83, 79.23 33.6, 78.97 40.8 C78.71 48, 76.35 57.94, 72.6 64.12 C68.85 70.3, 63.23 75.08, 56.48 77.87 C49.73 80.66, 39.66 82.27, 32.09 80.86 C24.53 79.46, 16.03 74.5, 11.11 69.44 C6.18 64.38, 4.11 57.44, 2.57 50.5 C1.02 43.55, -0.22 34.58, 1.83 27.76 C3.88 20.95, 8.95 14.22, 14.86 9.61 C20.77 4.99, 30.23 1.04, 37.27 0.08 C44.31 -0.89, 53.63 3.21, 57.1 3.82 C60.56 4.44, 58.15 3, 58.06 3.75" stroke="none" stroke-width="0" fill="#fff"></path><path d="M25.36 2.48 C31.62 -0.23, 41.46 0.34, 48.62 1.86 C55.79 3.38, 63.31 6.61, 68.35 11.6 C73.39 16.6, 77.31 24.58, 78.86 31.85 C80.42 39.13, 79.97 48.41, 77.66 55.24 C75.35 62.06, 70.73 68.8, 65.01 72.82 C59.29 76.84, 50.78 78.98, 43.33 79.35 C35.89 79.73, 26.83 78.39, 20.35 75.05 C13.87 71.72, 7.68 65.8, 4.47 59.36 C1.25 52.92, 0.4 43.57, 1.08 36.41 C1.75 29.25, 3.81 22.08, 8.52 16.39 C13.22 10.69, 25.3 4.61, 29.29 2.23 C33.28 -0.15, 32.41 1.71, 32.48 2.12 M53.73 3.24 C60.18 5.15, 65.48 10.11, 70.02 15.55 C74.57 20.99, 79.93 29.09, 80.99 35.88 C82.04 42.66, 79.58 49.66, 76.36 56.26 C73.15 62.86, 68.02 71.34, 61.68 75.46 C55.34 79.57, 45.78 81.2, 38.32 80.97 C30.87 80.74, 23.04 78.2, 16.95 74.06 C10.85 69.91, 4.54 62.9, 1.76 56.09 C-1.03 49.27, -1.33 40.48, 0.25 33.17 C1.84 25.85, 6.2 17.57, 11.26 12.18 C16.32 6.78, 23.56 2.28, 30.6 0.8 C37.65 -0.69, 50.02 2.8, 53.53 3.26 C57.05 3.72, 51.97 3.24, 51.69 3.57" stroke="#000000" stroke-width="1" fill="none"></path></g><g stroke-linecap="round" transform="translate(1021.7648245217883 86.18930951286757) rotate(0 40.130859375 40.111328125)"><path d="M23.89 4.06 C30.11 1.1, 39.61 0.41, 46.93 1.37 C54.26 2.32, 62.5 5.25, 67.85 9.8 C73.2 14.36, 77.44 21.56, 79.04 28.71 C80.64 35.86, 79.75 45.72, 77.47 52.71 C75.18 59.7, 70.81 66.13, 65.34 70.63 C59.87 75.14, 51.64 78.76, 44.63 79.76 C37.63 80.77, 29.78 79.95, 23.3 76.67 C16.82 73.4, 9.62 66.29, 5.75 60.11 C1.88 53.93, -0.12 46.64, 0.1 39.6 C0.31 32.56, 2.47 24.03, 7.02 17.85 C11.58 11.67, 23.71 5.03, 27.43 2.51 C31.14 0, 29.02 2.18, 29.33 2.77 M28.26 2.65 C34.37 -0.15, 43.26 -1.4, 50.24 0.62 C57.22 2.65, 65.01 9.06, 70.16 14.8 C75.3 20.54, 80.14 27.83, 81.11 35.06 C82.08 42.29, 79.44 51.66, 75.97 58.16 C72.5 64.65, 66.05 70.24, 60.3 74.04 C54.55 77.84, 48.5 80.89, 41.46 80.95 C34.42 81.01, 24.44 78.29, 18.08 74.4 C11.72 70.51, 6.05 64.31, 3.3 57.62 C0.55 50.92, 0.69 41.61, 1.57 34.22 C2.46 26.83, 4.03 18.92, 8.6 13.26 C13.16 7.6, 25.54 2.03, 28.97 0.28 C32.4 -1.46, 29.18 2.14, 29.17 2.78" stroke="none" stroke-width="0" fill="#fff"></path><path d="M35.66 1.13 C42.54 -0.21, 51.43 0.87, 57.85 3.98 C64.26 7.09, 70.42 13.34, 74.15 19.76 C77.88 26.19, 80.25 35.23, 80.23 42.52 C80.21 49.81, 78.09 57.87, 74.05 63.51 C70.01 69.16, 62.89 73.76, 55.98 76.41 C49.06 79.06, 39.84 80.54, 32.58 79.41 C25.31 78.28, 17.46 74.64, 12.4 69.63 C7.33 64.62, 3.85 56.3, 2.19 49.33 C0.54 42.37, 0.36 34.48, 2.46 27.86 C4.56 21.25, 8.81 14.17, 14.78 9.64 C20.74 5.11, 33.95 2.25, 38.26 0.68 C42.57 -0.89, 40.44 -0.4, 40.65 0.22 M24.31 3.8 C30.43 0.62, 41.59 0.29, 48.89 1.29 C56.18 2.29, 62.91 4.72, 68.07 9.82 C73.22 14.92, 78.31 24.52, 79.82 31.9 C81.34 39.29, 79.76 47.38, 77.14 54.13 C74.52 60.89, 69.93 68.11, 64.12 72.46 C58.32 76.81, 49.44 79.74, 42.31 80.23 C35.17 80.72, 27.33 78.92, 21.3 75.39 C15.28 71.87, 9.53 65.39, 6.13 59.07 C2.73 52.76, 0.49 44.31, 0.92 37.48 C1.35 30.64, 4.71 23.7, 8.72 18.08 C12.72 12.45, 22.01 6.22, 24.95 3.72 C27.89 1.21, 25.88 2.54, 26.36 3.05" stroke="#000000" stroke-width="1" fill="none"></path></g><g stroke-linecap="round" transform="translate(1066.5031057717883 86.18930951286757) rotate(0 40.130859375 40.111328125)"><path d="M24.62 4.01 C30.92 0.58, 40.53 -0.94, 47.65 -0.03 C54.77 0.89, 62.3 4.48, 67.36 9.52 C72.43 14.57, 76.26 23.17, 78.02 30.26 C79.78 37.35, 80.07 45.27, 77.95 52.05 C75.83 58.83, 70.71 66.21, 65.29 70.94 C59.88 75.67, 52.61 79.7, 45.45 80.41 C38.3 81.13, 28.95 78.42, 22.36 75.23 C15.77 72.04, 9.59 67.29, 5.89 61.29 C2.19 55.29, -0.08 46.48, 0.16 39.24 C0.41 31.99, 3.14 23.86, 7.38 17.84 C11.61 11.82, 21.92 5.65, 25.57 3.12 C29.21 0.59, 29 2.09, 29.25 2.69 M51.92 1.16 C58.65 2.84, 66.39 10.22, 71.28 16.16 C76.18 22.1, 80.67 29.55, 81.32 36.81 C81.97 44.08, 78.95 53.39, 75.2 59.74 C71.44 66.1, 64.71 71.44, 58.79 74.96 C52.87 78.49, 46.72 81.17, 39.69 80.91 C32.66 80.65, 22.79 77.56, 16.61 73.41 C10.43 69.26, 5.06 62.82, 2.6 55.99 C0.15 49.17, 0.67 39.82, 1.87 32.48 C3.06 25.14, 4.99 17.39, 9.79 11.95 C14.59 6.51, 23.43 1.39, 30.67 -0.18 C37.92 -1.74, 49.72 2.28, 53.24 2.58 C56.77 2.88, 51.96 0.98, 51.84 1.64" stroke="none" stroke-width="0" fill="#fff"></path><path d="M40.3 -0.29 C47.13 -0.91, 55.61 2.51, 61.7 6.69 C67.78 10.87, 73.65 18.12, 76.82 24.79 C80 31.47, 81.8 39.9, 80.77 46.76 C79.75 53.62, 75.72 60.65, 70.69 65.95 C65.67 71.25, 57.73 76.44, 50.62 78.56 C43.51 80.68, 34.72 80.86, 28.03 78.67 C21.34 76.47, 15.01 70.86, 10.46 65.38 C5.91 59.91, 1.88 52.76, 0.73 45.83 C-0.41 38.9, 0.67 30.33, 3.61 23.82 C6.54 17.31, 12.12 10.83, 18.37 6.77 C24.61 2.71, 36.82 0.35, 41.06 -0.56 C45.31 -1.47, 43.84 0.38, 43.83 1.3 M58.5 4.48 C65.13 6.55, 70.69 11.45, 74.43 17.7 C78.16 23.94, 81.21 34.38, 80.91 41.97 C80.61 49.55, 76.86 57.25, 72.61 63.19 C68.36 69.13, 62.15 74.85, 55.41 77.63 C48.68 80.41, 39.26 81.21, 32.18 79.88 C25.11 78.54, 17.97 74.65, 12.98 69.62 C7.99 64.6, 3.96 56.74, 2.25 49.72 C0.54 42.71, 0.48 34.02, 2.71 27.51 C4.94 21, 10.27 15.05, 15.62 10.66 C20.96 6.28, 27.67 2.41, 34.76 1.21 C41.86 0, 54.3 2.82, 58.19 3.43 C62.08 4.05, 58.66 4.26, 58.09 4.89" stroke="#000000" stroke-width="1" fill="none"></path></g><g stroke-linecap="round" transform="translate(1113.2804495217883 86.18930951286757) rotate(0 40.130859375 40.111328125)"><path d="M56.56 2.58 C63.09 4.45, 69.65 10.39, 73.44 16.53 C77.24 22.67, 79.23 32.11, 79.34 39.44 C79.45 46.77, 77.74 54.4, 74.1 60.49 C70.45 66.57, 63.81 72.64, 57.49 75.96 C51.17 79.28, 43.33 81.37, 36.17 80.42 C29.02 79.46, 20.24 74.81, 14.55 70.22 C8.86 65.62, 4.21 59.55, 2.03 52.86 C-0.14 46.16, -0.42 37.06, 1.48 30.05 C3.38 23.05, 8.25 15.64, 13.45 10.83 C18.65 6.03, 25.1 2.32, 32.67 1.22 C40.25 0.12, 54.49 3.37, 58.89 4.24 C63.29 5.11, 59.41 5.91, 59.07 6.43 M53.45 3.3 C60.51 5.38, 68.93 10.54, 73.27 16.36 C77.61 22.17, 79.35 31.05, 79.49 38.19 C79.62 45.32, 77.12 52.87, 74.06 59.14 C70.99 65.42, 67.21 72.26, 61.1 75.86 C54.98 79.45, 44.85 81.14, 37.35 80.72 C29.85 80.31, 21.68 77.75, 16.1 73.35 C10.51 68.96, 6.58 61.36, 3.83 54.37 C1.08 47.38, -1.69 38.71, -0.41 31.43 C0.88 24.15, 6.28 15.71, 11.56 10.7 C16.84 5.7, 24.42 3.01, 31.28 1.41 C38.14 -0.2, 48.9 0.71, 52.71 1.09 C56.52 1.48, 54.05 2.66, 54.15 3.71" stroke="none" stroke-width="0" fill="#fff"></path><path d="M57.14 4.1 C63.61 6.8, 70.38 13.91, 74.39 20.15 C78.41 26.39, 81.32 34.6, 81.24 41.54 C81.16 48.48, 78.19 55.93, 73.91 61.81 C69.63 67.69, 62.36 73.81, 55.56 76.82 C48.77 79.83, 40.04 81.15, 33.13 79.87 C26.22 78.59, 19.33 73.97, 14.1 69.16 C8.87 64.34, 3.83 57.71, 1.76 50.97 C-0.31 44.23, -0.37 35.55, 1.69 28.7 C3.75 21.84, 8.65 14.67, 14.11 9.84 C19.58 5, 26.57 0.28, 34.48 -0.32 C42.4 -0.92, 56.88 4.58, 61.62 6.23 C66.36 7.87, 63.22 9.15, 62.91 9.55 M53.2 0.77 C59.82 2.54, 67.87 10.24, 72.21 16.25 C76.54 22.27, 78.7 29.73, 79.2 36.85 C79.7 43.98, 78.58 52.69, 75.2 59.03 C71.81 65.38, 65.06 71.45, 58.89 74.92 C52.71 78.4, 44.96 80.38, 38.12 79.89 C31.29 79.39, 23.57 76.15, 17.85 71.94 C12.13 67.74, 6.48 60.95, 3.81 54.64 C1.15 48.33, 0.76 40.94, 1.88 34.08 C3 27.22, 5.65 19.05, 10.54 13.48 C15.42 7.91, 23.93 2.52, 31.17 0.67 C38.42 -1.19, 50.57 2.05, 54.01 2.36 C57.46 2.67, 52.4 2.1, 51.82 2.54" stroke="#000000" stroke-width="1" fill="none"></path></g><g stroke-linecap="round" transform="translate(1150.7618086670086 10) rotate(0 33.00458836252483 32.988525390625)"><path d="M20.29 3.45 C25.96 0.4, 34.87 -0.91, 41.17 0.24 C47.47 1.39, 54.09 5.31, 58.06 10.35 C62.03 15.4, 64.5 23.98, 64.98 30.52 C65.46 37.06, 64.16 44.14, 60.93 49.59 C57.7 55.03, 51.39 60.51, 45.61 63.18 C39.83 65.85, 32.53 67.17, 26.26 65.6 C19.99 64.02, 12.31 58.62, 7.97 53.73 C3.63 48.84, 0.73 42.53, 0.21 36.28 C-0.31 30.02, 1.2 21.86, 4.86 16.2 C8.51 10.54, 19.13 4.54, 22.14 2.29 C25.15 0.04, 22.64 2.22, 22.91 2.7 M23.13 2.36 C28.58 -0.12, 36.75 -1.24, 42.89 0.92 C49.02 3.08, 55.88 9.71, 59.94 15.32 C64 20.93, 67.49 28.05, 67.24 34.58 C67 41.11, 62.88 49.46, 58.47 54.5 C54.06 59.54, 46.65 63.1, 40.78 64.81 C34.91 66.52, 29.15 66.88, 23.26 64.77 C17.36 62.66, 9.35 57.46, 5.42 52.15 C1.5 46.83, -0.73 39.47, -0.29 32.9 C0.15 26.32, 4.25 18.03, 8.05 12.68 C11.85 7.33, 19.85 2.79, 22.51 0.78 C25.17 -1.23, 23.65 -0.06, 24.02 0.63" stroke="none" stroke-width="0" fill="#fff"></path><path d="M28.26 1.26 C34.52 0.01, 43.54 1.54, 49.35 4.27 C55.17 6.99, 60.51 11.92, 63.14 17.61 C65.78 23.3, 66.41 31.87, 65.16 38.4 C63.92 44.93, 60.1 52.38, 55.7 56.81 C51.29 61.25, 44.99 64.02, 38.71 65 C32.44 65.97, 23.95 65.43, 18.03 62.66 C12.11 59.89, 6.19 54.15, 3.19 48.38 C0.19 42.62, -0.97 34.67, 0.01 28.06 C0.99 21.46, 3.58 13.37, 9.09 8.76 C14.6 4.15, 28.61 1.55, 33.06 0.38 C37.51 -0.78, 35.75 1.41, 35.8 1.78 M43.77 0.39 C49.67 2.04, 57.07 9.43, 60.63 15.07 C64.19 20.71, 65.46 27.81, 65.14 34.21 C64.83 40.61, 62.71 48.39, 58.74 53.47 C54.76 58.55, 47.39 62.94, 41.28 64.68 C35.17 66.42, 27.8 66.19, 22.07 63.92 C16.33 61.64, 10.4 56.37, 6.87 51.05 C3.33 45.72, 0.72 38.03, 0.87 31.96 C1.02 25.88, 4.1 19.52, 7.77 14.59 C11.43 9.66, 16.74 4.6, 22.84 2.38 C28.93 0.15, 40.75 1.21, 44.34 1.25 C47.93 1.29, 44.84 2.06, 44.38 2.6" stroke="#000000" stroke-width="1" fill="none"></path></g><g stroke-linecap="round" transform="translate(1139.4444258545086 53.10819738051441) rotate(0 40.130859375 40.111328125)"><path d="M27.37 2.21 C33.68 -0.25, 43.44 -0.75, 50.51 1.08 C57.57 2.92, 64.78 7.7, 69.77 13.24 C74.76 18.77, 79.27 27.28, 80.43 34.29 C81.6 41.31, 79.74 48.73, 76.74 55.33 C73.73 61.94, 68.38 69.76, 62.4 73.94 C56.42 78.12, 48.04 80.32, 40.86 80.41 C33.68 80.5, 25.62 78.22, 19.34 74.47 C13.07 70.73, 6.22 64.51, 3.2 57.94 C0.19 51.37, 0.33 42.24, 1.27 35.04 C2.21 27.84, 2.67 20.63, 8.86 14.74 C15.05 8.84, 31.89 2.01, 38.4 -0.34 C44.91 -2.7, 48.08 -0.09, 47.89 0.61 M51.46 3.16 C57.73 4.6, 64.45 9.09, 69.43 14.53 C74.41 19.98, 80.23 28.58, 81.33 35.83 C82.43 43.07, 79.43 51.43, 76.03 57.98 C72.63 64.53, 66.84 71.44, 60.93 75.12 C55.03 78.81, 47.98 80.46, 40.59 80.09 C33.2 79.72, 22.8 77.14, 16.61 72.93 C10.42 68.72, 6.1 61.28, 3.43 54.81 C0.76 48.34, -0.38 41.25, 0.58 34.12 C1.54 26.98, 4.26 17.37, 9.19 12.02 C14.11 6.67, 22.83 3.49, 30.13 2 C37.43 0.51, 49.28 2.98, 52.99 3.1 C56.7 3.22, 52.81 2.33, 52.38 2.73" stroke="none" stroke-width="0" fill="#fff"></path><path d="M42.53 0.5 C49.5 -0.1, 57.82 2.36, 63.54 6.37 C69.26 10.38, 74.2 17.73, 76.83 24.57 C79.45 31.41, 80.34 40.37, 79.28 47.41 C78.23 54.45, 75.28 61.45, 70.48 66.79 C65.68 72.13, 57.67 77.41, 50.47 79.44 C43.27 81.48, 34.27 81.22, 27.26 78.97 C20.26 76.73, 13.09 71.81, 8.44 65.95 C3.78 60.09, -0.05 51.05, -0.65 43.82 C-1.24 36.59, 1.6 28.77, 4.85 22.56 C8.11 16.35, 12.19 10.4, 18.88 6.55 C25.57 2.71, 40.27 0.26, 44.98 -0.5 C49.69 -1.26, 47.29 1.19, 47.14 1.99 M21.57 4.87 C27.26 1.27, 36.94 0.26, 44.02 0.98 C51.1 1.71, 58.39 4.84, 64.05 9.24 C69.72 13.65, 75.38 20.74, 78 27.43 C80.62 34.11, 81.42 42.41, 79.77 49.36 C78.13 56.3, 73.39 63.82, 68.12 69.1 C62.85 74.37, 55.49 79.52, 48.15 81 C40.81 82.47, 30.83 81.08, 24.09 77.96 C17.35 74.83, 11.55 68.31, 7.7 62.23 C3.85 56.15, 1.45 48.66, 0.97 41.46 C0.48 34.27, 1.41 25.41, 4.79 19.03 C8.16 12.65, 18.42 5.66, 21.22 3.19 C24.02 0.72, 20.88 3.42, 21.58 4.22" stroke="#000000" stroke-width="1" fill="none"></path></g><g stroke-linecap="round" transform="translate(1150.7618086670086 101.15478515625) rotate(0 33.00458836252483 32.988525390625)"><path d="M46.29 1.74 C51.83 3.94, 57.32 10.97, 60.52 16.64 C63.72 22.3, 66 29.4, 65.49 35.73 C64.98 42.07, 61.55 49.66, 57.44 54.65 C53.34 59.63, 47.14 64.37, 40.85 65.65 C34.57 66.93, 25.77 64.92, 19.74 62.34 C13.71 59.76, 7.91 55.55, 4.67 50.16 C1.43 44.78, -0.37 36.5, 0.3 30.05 C0.97 23.6, 4.54 16.24, 8.68 11.46 C12.82 6.69, 17.85 2.37, 25.16 1.43 C32.46 0.48, 47.49 4.26, 52.51 5.78 C57.54 7.31, 55.68 10.22, 55.32 10.59 M43.89 2.88 C50.24 4.82, 58 9.67, 61.58 15.09 C65.15 20.51, 66.02 29.02, 65.35 35.41 C64.68 41.79, 61.2 48.4, 57.57 53.41 C53.94 58.41, 49.57 63.55, 43.55 65.41 C37.53 67.28, 27.83 66.76, 21.47 64.58 C15.1 62.41, 8.76 57.85, 5.38 52.38 C1.99 46.92, 1.12 38.47, 1.18 31.77 C1.23 25.07, 1.92 17.49, 5.72 12.19 C9.51 6.89, 17.5 1.61, 23.93 -0.03 C30.36 -1.67, 41.13 2.15, 44.3 2.37 C47.47 2.59, 43.03 0.74, 42.93 1.29" stroke="none" stroke-width="0" fill="#fff"></path><path d="M48.18 2.64 C53.66 4.86, 59.01 11.61, 61.86 17.5 C64.72 23.39, 66.03 31.65, 65.32 37.96 C64.6 44.28, 61.98 50.73, 57.58 55.4 C53.19 60.07, 45.51 64.65, 38.94 65.98 C32.37 67.31, 24.09 66.19, 18.15 63.35 C12.22 60.52, 6.43 54.92, 3.31 48.97 C0.2 43.01, -1.65 34.05, -0.53 27.61 C0.58 21.17, 5.47 14.69, 10.01 10.32 C14.55 5.95, 19.67 2.31, 26.7 1.4 C33.73 0.48, 47.51 3.53, 52.21 4.84 C56.91 6.16, 55.3 8.7, 54.91 9.29 M17.59 4.14 C22.68 0.97, 31.68 0.2, 37.94 1.21 C44.21 2.21, 50.62 5.71, 55.19 10.18 C59.76 14.65, 64.07 21.79, 65.37 28 C66.68 34.21, 65.85 41.76, 63.02 47.43 C60.2 53.1, 54.17 58.79, 48.42 62.02 C42.68 65.26, 35.14 67.71, 28.56 66.85 C21.97 65.99, 13.51 61.82, 8.92 56.87 C4.33 51.93, 1.73 43.68, 1.04 37.16 C0.35 30.65, 2.03 23.49, 4.77 17.8 C7.51 12.11, 15.34 5.48, 17.47 3.03 C19.59 0.57, 17.32 2.6, 17.52 3.05" stroke="#000000" stroke-width="1" fill="none"></path></g><g stroke-linecap="round" transform="translate(974.9017275613614 22.30931819342277) rotate(0 106.55744280133854 67.44175502232133)"><path d="M0 0 L213.11 0 L213.11 134.88 L0 134.88" stroke="none" stroke-width="0" fill="#fff"></path><path d="M0 0 C65.43 0, 130.86 0, 213.11 0 M0 0 C56.06 0, 112.13 0, 213.11 0 M213.11 0 C213.11 46.85, 213.11 93.7, 213.11 134.88 M213.11 0 C213.11 48.81, 213.11 97.61, 213.11 134.88 M213.11 134.88 C134.83 134.88, 56.54 134.88, 0 134.88 M213.11 134.88 C138.39 134.88, 63.67 134.88, 0 134.88 M0 134.88 C0 86.94, 0 39, 0 0 M0 134.88 C0 86.32, 0 37.75, 0 0" stroke="#fff" stroke-width="1" fill="none"></path></g><g transform="translate(981.0597563002002 57.551073215744054) rotate(0 100.3994140625 32.200000000000045)"><text x="100.3994140625" y="0" font-family="Helvetica, Segoe UI Emoji" font-size="28px" fill="#1e1e1e" text-anchor="middle" style="white-space: pre;" direction="ltr" dominant-baseline="text-before-edge">A nice shade of </text><text x="100.3994140625" y="32.199999999999996" font-family="Helvetica, Segoe UI Emoji" font-size="28px" fill="#1e1e1e" text-anchor="middle" style="white-space: pre;" direction="ltr" dominant-baseline="text-before-edge">green!</text></g><g stroke-linecap="round" transform="translate(921.9101703820793 166.8131584398693) rotate(89.99999999999994 16.93115234375 16.93115234375)"><path d="M13.47 0.42 C16.92 -0.5, 22.33 0.01, 25.57 1.78 C28.81 3.55, 31.7 7.55, 32.91 11.05 C34.13 14.55, 34.09 19.34, 32.85 22.79 C31.61 26.24, 28.62 29.98, 25.47 31.74 C22.31 33.5, 17.39 33.94, 13.9 33.36 C10.4 32.78, 6.88 30.87, 4.5 28.27 C2.12 25.67, -0.32 21.46, -0.37 17.74 C-0.43 14.03, 1.63 8.85, 4.19 5.97 C6.75 3.09, 13.04 1.41, 14.99 0.49 C16.94 -0.43, 15.98 0.17, 15.89 0.43 M19.66 0.64 C23.04 1.01, 26.91 3.53, 29.25 6.25 C31.59 8.96, 33.55 13.39, 33.71 16.92 C33.87 20.46, 32.48 24.71, 30.22 27.44 C27.97 30.18, 23.71 32.55, 20.16 33.34 C16.61 34.14, 12.17 33.92, 8.94 32.2 C5.7 30.48, 2.02 26.61, 0.77 23.04 C-0.48 19.46, 0.04 14.21, 1.42 10.75 C2.8 7.3, 6.05 4.08, 9.07 2.31 C12.08 0.53, 17.81 0.46, 19.52 0.1 C21.23 -0.25, 19.41 -0.1, 19.34 0.16" stroke="#000000" stroke-width="1" fill="none"></path></g><g stroke-linecap="round" transform="translate(891.4194477258293 201.0973085345663) rotate(89.99999999999994 12.57154060132575 12.57154060132575)"><path d="M12.53 -0.31 C15.14 -0.55, 18.41 1.09, 20.44 2.85 C22.48 4.61, 24.24 7.63, 24.74 10.28 C25.25 12.92, 24.78 16.46, 23.48 18.73 C22.17 21, 19.32 22.89, 16.92 23.89 C14.52 24.9, 11.63 25.43, 9.07 24.74 C6.52 24.05, 3 22.13, 1.58 19.77 C0.16 17.4, 0.08 13.25, 0.56 10.55 C1.03 7.86, 2.43 5.37, 4.43 3.62 C6.42 1.87, 11.24 0.57, 12.54 0.05 C13.84 -0.48, 12.18 0.32, 12.21 0.47 M13.41 0.19 C16.01 0.27, 19.63 2, 21.65 3.89 C23.67 5.77, 25.32 8.82, 25.54 11.49 C25.77 14.16, 24.61 17.56, 23.01 19.89 C21.41 22.23, 18.67 24.79, 15.94 25.51 C13.21 26.23, 9.05 25.59, 6.61 24.2 C4.18 22.81, 2.26 19.72, 1.33 17.18 C0.4 14.64, 0.38 11.51, 1.04 8.95 C1.7 6.39, 3.19 3.37, 5.28 1.82 C7.36 0.27, 12.18 -0.06, 13.55 -0.36 C14.92 -0.66, 13.35 -0.26, 13.52 0.04" stroke="#000000" stroke-width="1" fill="none"></path></g><g stroke-linecap="round" transform="translate(1179.6793055485728 44.30956620929601) rotate(0 13.890032087053896 39.10330636160711)"><path d="M0 0 L27.78 0 L27.78 78.21 L0 78.21" stroke="none" stroke-width="0" fill="#fff"></path><path d="M0 0 C6.16 0, 12.33 0, 27.78 0 M0 0 C9.41 0, 18.83 0, 27.78 0 M27.78 0 C27.78 18.74, 27.78 37.47, 27.78 78.21 M27.78 0 C27.78 28.59, 27.78 57.19, 27.78 78.21 M27.78 78.21 C21.04 78.21, 14.31 78.21, 0 78.21 M27.78 78.21 C20 78.21, 12.22 78.21, 0 78.21 M0 78.21 C0 56.88, 0 35.54, 0 0 M0 78.21 C0 56.6, 0 34.99, 0 0" stroke="#fff" stroke-width="1" fill="none"></path></g><g stroke-linecap="round" transform="translate(959.7574305485718 25.32519120929601) rotate(0 8.564658415037911 49.55671037946422)"><path d="M0 0 L17.13 0 L17.13 99.11 L0 99.11" stroke="none" stroke-width="0" fill="#fff"></path><path d="M0 0 C4.85 0, 9.71 0, 17.13 0 M0 0 C4.77 0, 9.53 0, 17.13 0 M17.13 0 C17.13 33.49, 17.13 66.97, 17.13 99.11 M17.13 0 C17.13 33.27, 17.13 66.54, 17.13 99.11 M17.13 99.11 C12.79 99.11, 8.44 99.11, 0 99.11 M17.13 99.11 C13.09 99.11, 9.04 99.11, 0 99.11 M0 99.11 C0 64.74, 0 30.36, 0 0 M0 99.11 C0 75.47, 0 51.82, 0 0" stroke="#fff" stroke-width="1" fill="none"></path></g><g stroke-linecap="round"><g transform="translate(994.7327885601017 372.7685439261304) rotate(0 5.411851472170838 -6.303501568678712)"><path d="M0.44 -0.51 C2.22 -2.47, 8.86 -10.19, 10.66 -12.2 M0 0.42 C1.7 -1.65, 8.29 -10.89, 10.14 -12.95" stroke="#1e1e1e" stroke-width="4" fill="none"></path></g></g><mask></mask><g stroke-linecap="round"><g transform="translate(995.4349835582734 373.7197671723261) rotate(0 8.9946810212723 -4.1438654010541995)"><path d="M0 -0.08 C2.92 -1.56, 14.76 -7.12, 17.7 -8.54 M-0.66 -0.59 C2.43 -2.04, 15.55 -6.72, 18.79 -7.97" stroke="#1e1e1e" stroke-width="4" fill="none"></path></g></g><mask></mask><g stroke-linecap="round"><g transform="translate(995.4833425197621 374.4772171971317) rotate(0 9.581522215615678 1.1524152074950962)"><path d="M0.21 -0.06 C3.4 0.26, 15.55 1.68, 18.7 2.08 M-0.34 -0.57 C3.06 -0.18, 16.51 2.07, 19.69 2.67" stroke="#1e1e1e" stroke-width="4" fill="none"></path></g></g><mask></mask><g stroke-linecap="round"><g transform="translate(995.6951247155816 374.5340343147527) rotate(0 5.9663193927631255 4.618395246291811)"><path d="M-0.3 0.1 C1.65 1.61, 9.6 7.54, 11.56 9.15 M0.55 -0.32 C2.68 1.26, 10.61 8.26, 12.6 9.8" stroke="#1e1e1e" stroke-width="4" fill="none"></path></g></g><mask></mask><g stroke-linecap="round"><g transform="translate(994.5358406864652 374.8185714474662) rotate(0 1.859450152454201 7.3119687303340015)"><path d="M-0.14 -0.25 C0.47 2.13, 2.89 11.91, 3.49 14.34 M0.8 0.81 C1.32 3.26, 2.58 12.57, 2.94 14.89" stroke="#1e1e1e" stroke-width="4" fill="none"></path></g></g><mask></mask><g stroke-linecap="round"><g transform="translate(717.2110904466758 379.5333004331583) rotate(335.4519080177106 -5.411851472170838 6.303501568678712)"><path d="M-0.13 0.41 C-1.86 2.41, -9.05 10.07, -10.91 12.17 M0.8 0.14 C-0.96 2.19, -9.55 10.64, -11.38 12.65" stroke="#1e1e1e" stroke-width="4" fill="none"></path></g></g><mask></mask><g stroke-linecap="round"><g transform="translate(715.9597305656048 380.61798770327005) rotate(335.4519080177106 -8.9946810212723 4.1438654010541995)"><path d="M-0.08 -0.43 C-3.14 0.95, -15.55 7.19, -18.45 8.72 M-0.79 0.53 C-3.66 1.74, -14.66 6.74, -17.45 7.98" stroke="#1e1e1e" stroke-width="4" fill="none"></path></g></g><mask></mask><g stroke-linecap="round"><g transform="translate(712.5937292339345 380.4293039136064) rotate(335.4519080177106 -9.581522215615678 -1.1524152074950962)"><path d="M-0.46 0.43 C-3.55 0.2, -15.5 -1.38, -18.62 -1.81 M0.31 0.18 C-2.8 -0.15, -15.47 -2.24, -18.78 -2.53" stroke="#1e1e1e" stroke-width="4" fill="none"></path></g></g><mask></mask><g stroke-linecap="round"><g transform="translate(710.9607615585919 379.6608147502584) rotate(335.4519080177106 -5.9663193927631255 -4.618395246291811)"><path d="M0.54 0.49 C-1.38 -1.1, -9.9 -7.46, -11.96 -9.11 M0.15 0.27 C-1.8 -1.53, -10.37 -8.49, -12.4 -10.01" stroke="#1e1e1e" stroke-width="4" fill="none"></path></g></g><mask></mask><g stroke-linecap="round"><g transform="translate(710.9035048215815 377.2929607769979) rotate(335.4519080177106 -1.859450152454201 -7.3119687303340015)"><path d="M-0.02 0.13 C-0.71 -2.42, -2.92 -12.27, -3.56 -14.78 M-0.7 -0.29 C-1.49 -2.52, -3.31 -11.79, -3.91 -14.16" stroke="#1e1e1e" stroke-width="4" fill="none"></path></g></g><mask></mask></svg>