<svg version="1.1" xmlns="http://www.w3.org/2000/svg" viewBox="0 0 519.4036682830483 511.5563157935685" width="519.4036682830483" height="511.5563157935685">
  <!-- svg-source:excalidraw -->
  
  <defs>
    <style class="style-fonts">
      @font-face {
        font-family: "Virgil";
        src: url("https://excalidraw.com/Virgil.woff2");
      }
      @font-face {
        font-family: "Cascadia";
        src: url("https://excalidraw.com/Cascadia.woff2");
      }
      @font-face {
        font-family: "Assistant";
        src: url("https://excalidraw.com/Assistant-Regular.woff2");
      }
    </style>
    
  </defs>
  <g stroke-linecap="round" transform="translate(212.22200287301348 195.57521157662632) rotate(0 58.14887152777828 58.14887152777874)"><path d="M116.3 58.15 C116.3 60.49, 116.16 62.84, 115.87 65.16 C115.59 67.48, 115.17 69.8, 114.61 72.06 C114.05 74.33, 113.35 76.58, 112.52 78.77 C111.69 80.95, 110.72 83.1, 109.64 85.17 C108.55 87.24, 107.33 89.26, 106 91.18 C104.68 93.1, 103.22 94.96, 101.67 96.71 C100.12 98.46, 98.46 100.12, 96.71 101.67 C94.96 103.22, 93.1 104.68, 91.18 106 C89.26 107.33, 87.24 108.55, 85.17 109.64 C83.1 110.72, 80.95 111.69, 78.77 112.52 C76.58 113.35, 74.33 114.05, 72.06 114.61 C69.8 115.17, 67.48 115.59, 65.16 115.87 C62.84 116.16, 60.49 116.3, 58.15 116.3 C55.81 116.3, 53.46 116.16, 51.14 115.87 C48.82 115.59, 46.5 115.17, 44.23 114.61 C41.96 114.05, 39.71 113.35, 37.53 112.52 C35.34 111.69, 33.19 110.72, 31.13 109.64 C29.06 108.55, 27.04 107.33, 25.12 106 C23.19 104.68, 21.34 103.22, 19.59 101.67 C17.84 100.12, 16.17 98.46, 14.62 96.71 C13.07 94.96, 11.62 93.1, 10.29 91.18 C8.97 89.26, 7.75 87.24, 6.66 85.17 C5.57 83.1, 4.61 80.95, 3.78 78.77 C2.95 76.58, 2.25 74.33, 1.69 72.06 C1.13 69.8, 0.71 67.48, 0.42 65.16 C0.14 62.84, 0 60.49, 0 58.15 C0 55.81, 0.14 53.46, 0.42 51.14 C0.71 48.82, 1.13 46.5, 1.69 44.23 C2.25 41.96, 2.95 39.71, 3.78 37.53 C4.61 35.34, 5.57 33.19, 6.66 31.13 C7.75 29.06, 8.97 27.04, 10.29 25.12 C11.62 23.19, 13.07 21.34, 14.62 19.59 C16.17 17.84, 17.84 16.17, 19.59 14.62 C21.34 13.07, 23.19 11.62, 25.12 10.29 C27.04 8.97, 29.06 7.75, 31.13 6.66 C33.19 5.57, 35.34 4.61, 37.53 3.78 C39.71 2.95, 41.96 2.25, 44.23 1.69 C46.5 1.13, 48.82 0.71, 51.14 0.42 C53.46 0.14, 55.81 0, 58.15 0 C60.49 0, 62.84 0.14, 65.16 0.42 C67.48 0.71, 69.8 1.13, 72.06 1.69 C74.33 2.25, 76.58 2.95, 78.77 3.78 C80.95 4.61, 83.1 5.57, 85.17 6.66 C87.24 7.75, 89.26 8.97, 91.18 10.29 C93.1 11.62, 94.96 13.07, 96.71 14.62 C98.46 16.17, 100.12 17.84, 101.67 19.59 C103.22 21.34, 104.68 23.19, 106 25.12 C107.33 27.04, 108.55 29.06, 109.64 31.13 C110.72 33.19, 111.69 35.34, 112.52 37.53 C113.35 39.71, 114.05 41.96, 114.61 44.23 C115.17 46.5, 115.59 48.82, 115.87 51.14 C116.16 53.46, 116.3 55.81, 116.3 58.15" stroke="none" stroke-width="0" fill="#ffc9c9"></path><path d="M116.3 58.15 C116.3 60.49, 116.16 62.84, 115.87 65.16 C115.59 67.48, 115.17 69.8, 114.61 72.06 C114.05 74.33, 113.35 76.58, 112.52 78.77 C111.69 80.95, 110.72 83.1, 109.64 85.17 C108.55 87.24, 107.33 89.26, 106 91.18 C104.68 93.1, 103.22 94.96, 101.67 96.71 C100.12 98.46, 98.46 100.12, 96.71 101.67 C94.96 103.22, 93.1 104.68, 91.18 106 C89.26 107.33, 87.24 108.55, 85.17 109.64 C83.1 110.72, 80.95 111.69, 78.77 112.52 C76.58 113.35, 74.33 114.05, 72.06 114.61 C69.8 115.17, 67.48 115.59, 65.16 115.87 C62.84 116.16, 60.49 116.3, 58.15 116.3 C55.81 116.3, 53.46 116.16, 51.14 115.87 C48.82 115.59, 46.5 115.17, 44.23 114.61 C41.96 114.05, 39.71 113.35, 37.53 112.52 C35.34 111.69, 33.19 110.72, 31.13 109.64 C29.06 108.55, 27.04 107.33, 25.12 106 C23.19 104.68, 21.34 103.22, 19.59 101.67 C17.84 100.12, 16.17 98.46, 14.62 96.71 C13.07 94.96, 11.62 93.1, 10.29 91.18 C8.97 89.26, 7.75 87.24, 6.66 85.17 C5.57 83.1, 4.61 80.95, 3.78 78.77 C2.95 76.58, 2.25 74.33, 1.69 72.06 C1.13 69.8, 0.71 67.48, 0.42 65.16 C0.14 62.84, 0 60.49, 0 58.15 C0 55.81, 0.14 53.46, 0.42 51.14 C0.71 48.82, 1.13 46.5, 1.69 44.23 C2.25 41.96, 2.95 39.71, 3.78 37.53 C4.61 35.34, 5.57 33.19, 6.66 31.13 C7.75 29.06, 8.97 27.04, 10.29 25.12 C11.62 23.19, 13.07 21.34, 14.62 19.59 C16.17 17.84, 17.84 16.17, 19.59 14.62 C21.34 13.07, 23.19 11.62, 25.12 10.29 C27.04 8.97, 29.06 7.75, 31.13 6.66 C33.19 5.57, 35.34 4.61, 37.53 3.78 C39.71 2.95, 41.96 2.25, 44.23 1.69 C46.5 1.13, 48.82 0.71, 51.14 0.42 C53.46 0.14, 55.81 0, 58.15 0 C60.49 0, 62.84 0.14, 65.16 0.42 C67.48 0.71, 69.8 1.13, 72.06 1.69 C74.33 2.25, 76.58 2.95, 78.77 3.78 C80.95 4.61, 83.1 5.57, 85.17 6.66 C87.24 7.75, 89.26 8.97, 91.18 10.29 C93.1 11.62, 94.96 13.07, 96.71 14.62 C98.46 16.17, 100.12 17.84, 101.67 19.59 C103.22 21.34, 104.68 23.19, 106 25.12 C107.33 27.04, 108.55 29.06, 109.64 31.13 C110.72 33.19, 111.69 35.34, 112.52 37.53 C113.35 39.71, 114.05 41.96, 114.61 44.23 C115.17 46.5, 115.59 48.82, 115.87 51.14 C116.16 53.46, 116.3 55.81, 116.3 58.15" stroke="transparent" stroke-width="4" fill="none"></path></g><g stroke-linecap="round" transform="translate(251.97623490079422 66.17525509051939) rotate(0 18.394639756944343 93.77441406249955)"><path d="M36.79 93.77 C36.79 97.27, 36.75 100.8, 36.67 104.27 C36.6 107.75, 36.48 111.23, 36.33 114.64 C36.18 118.05, 35.98 121.44, 35.76 124.75 C35.53 128.05, 35.27 131.31, 34.97 134.46 C34.67 137.61, 34.34 140.7, 33.97 143.67 C33.6 146.63, 33.2 149.51, 32.78 152.24 C32.35 154.98, 31.89 157.61, 31.4 160.08 C30.92 162.56, 30.4 164.91, 29.86 167.09 C29.33 169.27, 28.76 171.31, 28.18 173.18 C27.6 175.04, 26.99 176.74, 26.38 178.26 C25.76 179.78, 25.12 181.13, 24.47 182.29 C23.82 183.44, 23.16 184.42, 22.49 185.2 C21.82 185.98, 21.14 186.57, 20.45 186.96 C19.77 187.35, 19.08 187.55, 18.39 187.55 C17.71 187.55, 17.02 187.35, 16.34 186.96 C15.65 186.57, 14.97 185.98, 14.3 185.2 C13.63 184.42, 12.97 183.44, 12.32 182.29 C11.67 181.13, 11.03 179.78, 10.41 178.26 C9.79 176.74, 9.19 175.04, 8.61 173.18 C8.03 171.31, 7.46 169.27, 6.93 167.09 C6.39 164.91, 5.87 162.56, 5.39 160.08 C4.9 157.61, 4.44 154.98, 4.01 152.24 C3.59 149.51, 3.18 146.63, 2.82 143.67 C2.45 140.7, 2.12 137.61, 1.82 134.46 C1.52 131.31, 1.26 128.05, 1.03 124.75 C0.81 121.44, 0.61 118.05, 0.46 114.64 C0.31 111.23, 0.19 107.75, 0.12 104.27 C0.04 100.8, 0 97.27, 0 93.77 C0 90.27, 0.04 86.75, 0.12 83.28 C0.19 79.8, 0.31 76.32, 0.46 72.91 C0.61 69.5, 0.81 66.11, 1.03 62.8 C1.26 59.5, 1.52 56.24, 1.82 53.09 C2.12 49.93, 2.45 46.85, 2.82 43.88 C3.18 40.92, 3.59 38.04, 4.01 35.31 C4.44 32.57, 4.9 29.94, 5.39 27.47 C5.87 24.99, 6.39 22.64, 6.93 20.46 C7.46 18.28, 8.03 16.24, 8.61 14.37 C9.19 12.51, 9.79 10.81, 10.41 9.29 C11.03 7.77, 11.67 6.42, 12.32 5.26 C12.97 4.11, 13.63 3.13, 14.3 2.35 C14.97 1.57, 15.65 0.98, 16.34 0.59 C17.02 0.2, 17.71 0, 18.39 0 C19.08 0, 19.77 0.2, 20.45 0.59 C21.14 0.98, 21.82 1.57, 22.49 2.35 C23.16 3.13, 23.82 4.11, 24.47 5.26 C25.12 6.42, 25.76 7.77, 26.38 9.29 C26.99 10.81, 27.6 12.51, 28.18 14.37 C28.76 16.24, 29.33 18.28, 29.86 20.46 C30.4 22.64, 30.92 24.99, 31.4 27.47 C31.89 29.94, 32.35 32.57, 32.78 35.31 C33.2 38.04, 33.6 40.92, 33.97 43.88 C34.34 46.85, 34.67 49.93, 34.97 53.09 C35.27 56.24, 35.53 59.5, 35.76 62.8 C35.98 66.11, 36.18 69.5, 36.33 72.91 C36.48 76.32, 36.6 79.8, 36.67 83.28 C36.75 86.75, 36.77 92.02, 36.79 93.77 C36.81 95.52, 36.81 92.02, 36.79 93.77" stroke="none" stroke-width="0" fill="#ffc9c9"></path><path d="M36.79 93.77 C36.79 97.27, 36.75 100.8, 36.67 104.27 C36.6 107.75, 36.48 111.23, 36.33 114.64 C36.18 118.05, 35.98 121.44, 35.76 124.75 C35.53 128.05, 35.27 131.31, 34.97 134.46 C34.67 137.61, 34.34 140.7, 33.97 143.67 C33.6 146.63, 33.2 149.51, 32.78 152.24 C32.35 154.98, 31.89 157.61, 31.4 160.08 C30.92 162.56, 30.4 164.91, 29.86 167.09 C29.33 169.27, 28.76 171.31, 28.18 173.18 C27.6 175.04, 26.99 176.74, 26.38 178.26 C25.76 179.78, 25.12 181.13, 24.47 182.29 C23.82 183.44, 23.16 184.42, 22.49 185.2 C21.82 185.98, 21.14 186.57, 20.45 186.96 C19.77 187.35, 19.08 187.55, 18.39 187.55 C17.71 187.55, 17.02 187.35, 16.34 186.96 C15.65 186.57, 14.97 185.98, 14.3 185.2 C13.63 184.42, 12.97 183.44, 12.32 182.29 C11.67 181.13, 11.03 179.78, 10.41 178.26 C9.79 176.74, 9.19 175.04, 8.61 173.18 C8.03 171.31, 7.46 169.27, 6.93 167.09 C6.39 164.91, 5.87 162.56, 5.39 160.08 C4.9 157.61, 4.44 154.98, 4.01 152.24 C3.59 149.51, 3.18 146.63, 2.82 143.67 C2.45 140.7, 2.12 137.61, 1.82 134.46 C1.52 131.31, 1.26 128.05, 1.03 124.75 C0.81 121.44, 0.61 118.05, 0.46 114.64 C0.31 111.23, 0.19 107.75, 0.12 104.27 C0.04 100.8, 0 97.27, 0 93.77 C0 90.27, 0.04 86.75, 0.12 83.28 C0.19 79.8, 0.31 76.32, 0.46 72.91 C0.61 69.5, 0.81 66.11, 1.03 62.8 C1.26 59.5, 1.52 56.24, 1.82 53.09 C2.12 49.93, 2.45 46.85, 2.82 43.88 C3.18 40.92, 3.59 38.04, 4.01 35.31 C4.44 32.57, 4.9 29.94, 5.39 27.47 C5.87 24.99, 6.39 22.64, 6.93 20.46 C7.46 18.28, 8.03 16.24, 8.61 14.37 C9.19 12.51, 9.79 10.81, 10.41 9.29 C11.03 7.77, 11.67 6.42, 12.32 5.26 C12.97 4.11, 13.63 3.13, 14.3 2.35 C14.97 1.57, 15.65 0.98, 16.34 0.59 C17.02 0.2, 17.71 0, 18.39 0 C19.08 0, 19.77 0.2, 20.45 0.59 C21.14 0.98, 21.82 1.57, 22.49 2.35 C23.16 3.13, 23.82 4.11, 24.47 5.26 C25.12 6.42, 25.76 7.77, 26.38 9.29 C26.99 10.81, 27.6 12.51, 28.18 14.37 C28.76 16.24, 29.33 18.28, 29.86 20.46 C30.4 22.64, 30.92 24.99, 31.4 27.47 C31.89 29.94, 32.35 32.57, 32.78 35.31 C33.2 38.04, 33.6 40.92, 33.97 43.88 C34.34 46.85, 34.67 49.93, 34.97 53.09 C35.27 56.24, 35.53 59.5, 35.76 62.8 C35.98 66.11, 36.18 69.5, 36.33 72.91 C36.48 76.32, 36.6 79.8, 36.67 83.28 C36.75 86.75, 36.77 92.02, 36.79 93.77 C36.81 95.52, 36.81 92.02, 36.79 93.77" stroke="transparent" stroke-width="4" fill="none"></path></g><g stroke-linecap="round" transform="translate(253.79372596329085 260.3999728613526) rotate(0 18.394639756944343 93.77441406249955)"><path d="M36.79 93.77 C36.79 97.27, 36.75 100.8, 36.67 104.27 C36.6 107.75, 36.48 111.23, 36.33 114.64 C36.18 118.05, 35.98 121.44, 35.76 124.75 C35.53 128.05, 35.27 131.31, 34.97 134.46 C34.67 137.61, 34.34 140.7, 33.97 143.67 C33.6 146.63, 33.2 149.51, 32.78 152.24 C32.35 154.98, 31.89 157.61, 31.4 160.08 C30.92 162.56, 30.4 164.91, 29.86 167.09 C29.33 169.27, 28.76 171.31, 28.18 173.18 C27.6 175.04, 26.99 176.74, 26.38 178.26 C25.76 179.78, 25.12 181.13, 24.47 182.29 C23.82 183.44, 23.16 184.42, 22.49 185.2 C21.82 185.98, 21.14 186.57, 20.45 186.96 C19.77 187.35, 19.08 187.55, 18.39 187.55 C17.71 187.55, 17.02 187.35, 16.34 186.96 C15.65 186.57, 14.97 185.98, 14.3 185.2 C13.63 184.42, 12.97 183.44, 12.32 182.29 C11.67 181.13, 11.03 179.78, 10.41 178.26 C9.79 176.74, 9.19 175.04, 8.61 173.18 C8.03 171.31, 7.46 169.27, 6.93 167.09 C6.39 164.91, 5.87 162.56, 5.39 160.08 C4.9 157.61, 4.44 154.98, 4.01 152.24 C3.59 149.51, 3.18 146.63, 2.82 143.67 C2.45 140.7, 2.12 137.61, 1.82 134.46 C1.52 131.31, 1.26 128.05, 1.03 124.75 C0.81 121.44, 0.61 118.05, 0.46 114.64 C0.31 111.23, 0.19 107.75, 0.12 104.27 C0.04 100.8, 0 97.27, 0 93.77 C0 90.27, 0.04 86.75, 0.12 83.28 C0.19 79.8, 0.31 76.32, 0.46 72.91 C0.61 69.5, 0.81 66.11, 1.03 62.8 C1.26 59.5, 1.52 56.24, 1.82 53.09 C2.12 49.93, 2.45 46.85, 2.82 43.88 C3.18 40.92, 3.59 38.04, 4.01 35.31 C4.44 32.57, 4.9 29.94, 5.39 27.47 C5.87 24.99, 6.39 22.64, 6.93 20.46 C7.46 18.28, 8.03 16.24, 8.61 14.37 C9.19 12.51, 9.79 10.81, 10.41 9.29 C11.03 7.77, 11.67 6.42, 12.32 5.26 C12.97 4.11, 13.63 3.13, 14.3 2.35 C14.97 1.57, 15.65 0.98, 16.34 0.59 C17.02 0.2, 17.71 0, 18.39 0 C19.08 0, 19.77 0.2, 20.45 0.59 C21.14 0.98, 21.82 1.57, 22.49 2.35 C23.16 3.13, 23.82 4.11, 24.47 5.26 C25.12 6.42, 25.76 7.77, 26.38 9.29 C26.99 10.81, 27.6 12.51, 28.18 14.37 C28.76 16.24, 29.33 18.28, 29.86 20.46 C30.4 22.64, 30.92 24.99, 31.4 27.47 C31.89 29.94, 32.35 32.57, 32.78 35.31 C33.2 38.04, 33.6 40.92, 33.97 43.88 C34.34 46.85, 34.67 49.93, 34.97 53.09 C35.27 56.24, 35.53 59.5, 35.76 62.8 C35.98 66.11, 36.18 69.5, 36.33 72.91 C36.48 76.32, 36.6 79.8, 36.67 83.28 C36.75 86.75, 36.77 92.02, 36.79 93.77 C36.81 95.52, 36.81 92.02, 36.79 93.77" stroke="none" stroke-width="0" fill="#ffc9c9"></path><path d="M36.79 93.77 C36.79 97.27, 36.75 100.8, 36.67 104.27 C36.6 107.75, 36.48 111.23, 36.33 114.64 C36.18 118.05, 35.98 121.44, 35.76 124.75 C35.53 128.05, 35.27 131.31, 34.97 134.46 C34.67 137.61, 34.34 140.7, 33.97 143.67 C33.6 146.63, 33.2 149.51, 32.78 152.24 C32.35 154.98, 31.89 157.61, 31.4 160.08 C30.92 162.56, 30.4 164.91, 29.86 167.09 C29.33 169.27, 28.76 171.31, 28.18 173.18 C27.6 175.04, 26.99 176.74, 26.38 178.26 C25.76 179.78, 25.12 181.13, 24.47 182.29 C23.82 183.44, 23.16 184.42, 22.49 185.2 C21.82 185.98, 21.14 186.57, 20.45 186.96 C19.77 187.35, 19.08 187.55, 18.39 187.55 C17.71 187.55, 17.02 187.35, 16.34 186.96 C15.65 186.57, 14.97 185.98, 14.3 185.2 C13.63 184.42, 12.97 183.44, 12.32 182.29 C11.67 181.13, 11.03 179.78, 10.41 178.26 C9.79 176.74, 9.19 175.04, 8.61 173.18 C8.03 171.31, 7.46 169.27, 6.93 167.09 C6.39 164.91, 5.87 162.56, 5.39 160.08 C4.9 157.61, 4.44 154.98, 4.01 152.24 C3.59 149.51, 3.18 146.63, 2.82 143.67 C2.45 140.7, 2.12 137.61, 1.82 134.46 C1.52 131.31, 1.26 128.05, 1.03 124.75 C0.81 121.44, 0.61 118.05, 0.46 114.64 C0.31 111.23, 0.19 107.75, 0.12 104.27 C0.04 100.8, 0 97.27, 0 93.77 C0 90.27, 0.04 86.75, 0.12 83.28 C0.19 79.8, 0.31 76.32, 0.46 72.91 C0.61 69.5, 0.81 66.11, 1.03 62.8 C1.26 59.5, 1.52 56.24, 1.82 53.09 C2.12 49.93, 2.45 46.85, 2.82 43.88 C3.18 40.92, 3.59 38.04, 4.01 35.31 C4.44 32.57, 4.9 29.94, 5.39 27.47 C5.87 24.99, 6.39 22.64, 6.93 20.46 C7.46 18.28, 8.03 16.24, 8.61 14.37 C9.19 12.51, 9.79 10.81, 10.41 9.29 C11.03 7.77, 11.67 6.42, 12.32 5.26 C12.97 4.11, 13.63 3.13, 14.3 2.35 C14.97 1.57, 15.65 0.98, 16.34 0.59 C17.02 0.2, 17.71 0, 18.39 0 C19.08 0, 19.77 0.2, 20.45 0.59 C21.14 0.98, 21.82 1.57, 22.49 2.35 C23.16 3.13, 23.82 4.11, 24.47 5.26 C25.12 6.42, 25.76 7.77, 26.38 9.29 C26.99 10.81, 27.6 12.51, 28.18 14.37 C28.76 16.24, 29.33 18.28, 29.86 20.46 C30.4 22.64, 30.92 24.99, 31.4 27.47 C31.89 29.94, 32.35 32.57, 32.78 35.31 C33.2 38.04, 33.6 40.92, 33.97 43.88 C34.34 46.85, 34.67 49.93, 34.97 53.09 C35.27 56.24, 35.53 59.5, 35.76 62.8 C35.98 66.11, 36.18 69.5, 36.33 72.91 C36.48 76.32, 36.6 79.8, 36.67 83.28 C36.75 86.75, 36.77 92.02, 36.79 93.77 C36.81 95.52, 36.81 92.02, 36.79 93.77" stroke="transparent" stroke-width="4" fill="none"></path></g><g stroke-linecap="round" transform="translate(348.6342207549533 144.82922633357612) rotate(76.79805272458408 18.394639756944343 93.77441406249955)"><path d="M36.79 93.77 C36.79 97.27, 36.75 100.8, 36.67 104.27 C36.6 107.75, 36.48 111.23, 36.33 114.64 C36.18 118.05, 35.98 121.44, 35.76 124.75 C35.53 128.05, 35.27 131.31, 34.97 134.46 C34.67 137.61, 34.34 140.7, 33.97 143.67 C33.6 146.63, 33.2 149.51, 32.78 152.24 C32.35 154.98, 31.89 157.61, 31.4 160.08 C30.92 162.56, 30.4 164.91, 29.86 167.09 C29.33 169.27, 28.76 171.31, 28.18 173.18 C27.6 175.04, 26.99 176.74, 26.38 178.26 C25.76 179.78, 25.12 181.13, 24.47 182.29 C23.82 183.44, 23.16 184.42, 22.49 185.2 C21.82 185.98, 21.14 186.57, 20.45 186.96 C19.77 187.35, 19.08 187.55, 18.39 187.55 C17.71 187.55, 17.02 187.35, 16.34 186.96 C15.65 186.57, 14.97 185.98, 14.3 185.2 C13.63 184.42, 12.97 183.44, 12.32 182.29 C11.67 181.13, 11.03 179.78, 10.41 178.26 C9.79 176.74, 9.19 175.04, 8.61 173.18 C8.03 171.31, 7.46 169.27, 6.93 167.09 C6.39 164.91, 5.87 162.56, 5.39 160.08 C4.9 157.61, 4.44 154.98, 4.01 152.24 C3.59 149.51, 3.18 146.63, 2.82 143.67 C2.45 140.7, 2.12 137.61, 1.82 134.46 C1.52 131.31, 1.26 128.05, 1.03 124.75 C0.81 121.44, 0.61 118.05, 0.46 114.64 C0.31 111.23, 0.19 107.75, 0.12 104.27 C0.04 100.8, 0 97.27, 0 93.77 C0 90.27, 0.04 86.75, 0.12 83.28 C0.19 79.8, 0.31 76.32, 0.46 72.91 C0.61 69.5, 0.81 66.11, 1.03 62.8 C1.26 59.5, 1.52 56.24, 1.82 53.09 C2.12 49.93, 2.45 46.85, 2.82 43.88 C3.18 40.92, 3.59 38.04, 4.01 35.31 C4.44 32.57, 4.9 29.94, 5.39 27.47 C5.87 24.99, 6.39 22.64, 6.93 20.46 C7.46 18.28, 8.03 16.24, 8.61 14.37 C9.19 12.51, 9.79 10.81, 10.41 9.29 C11.03 7.77, 11.67 6.42, 12.32 5.26 C12.97 4.11, 13.63 3.13, 14.3 2.35 C14.97 1.57, 15.65 0.98, 16.34 0.59 C17.02 0.2, 17.71 0, 18.39 0 C19.08 0, 19.77 0.2, 20.45 0.59 C21.14 0.98, 21.82 1.57, 22.49 2.35 C23.16 3.13, 23.82 4.11, 24.47 5.26 C25.12 6.42, 25.76 7.77, 26.38 9.29 C26.99 10.81, 27.6 12.51, 28.18 14.37 C28.76 16.24, 29.33 18.28, 29.86 20.46 C30.4 22.64, 30.92 24.99, 31.4 27.47 C31.89 29.94, 32.35 32.57, 32.78 35.31 C33.2 38.04, 33.6 40.92, 33.97 43.88 C34.34 46.85, 34.67 49.93, 34.97 53.09 C35.27 56.24, 35.53 59.5, 35.76 62.8 C35.98 66.11, 36.18 69.5, 36.33 72.91 C36.48 76.32, 36.6 79.8, 36.67 83.28 C36.75 86.75, 36.77 92.02, 36.79 93.77 C36.81 95.52, 36.81 92.02, 36.79 93.77" stroke="none" stroke-width="0" fill="#ffc9c9"></path><path d="M36.79 93.77 C36.79 97.27, 36.75 100.8, 36.67 104.27 C36.6 107.75, 36.48 111.23, 36.33 114.64 C36.18 118.05, 35.98 121.44, 35.76 124.75 C35.53 128.05, 35.27 131.31, 34.97 134.46 C34.67 137.61, 34.34 140.7, 33.97 143.67 C33.6 146.63, 33.2 149.51, 32.78 152.24 C32.35 154.98, 31.89 157.61, 31.4 160.08 C30.92 162.56, 30.4 164.91, 29.86 167.09 C29.33 169.27, 28.76 171.31, 28.18 173.18 C27.6 175.04, 26.99 176.74, 26.38 178.26 C25.76 179.78, 25.12 181.13, 24.47 182.29 C23.82 183.44, 23.16 184.42, 22.49 185.2 C21.82 185.98, 21.14 186.57, 20.45 186.96 C19.77 187.35, 19.08 187.55, 18.39 187.55 C17.71 187.55, 17.02 187.35, 16.34 186.96 C15.65 186.57, 14.97 185.98, 14.3 185.2 C13.63 184.42, 12.97 183.44, 12.32 182.29 C11.67 181.13, 11.03 179.78, 10.41 178.26 C9.79 176.74, 9.19 175.04, 8.61 173.18 C8.03 171.31, 7.46 169.27, 6.93 167.09 C6.39 164.91, 5.87 162.56, 5.39 160.08 C4.9 157.61, 4.44 154.98, 4.01 152.24 C3.59 149.51, 3.18 146.63, 2.82 143.67 C2.45 140.7, 2.12 137.61, 1.82 134.46 C1.52 131.31, 1.26 128.05, 1.03 124.75 C0.81 121.44, 0.61 118.05, 0.46 114.64 C0.31 111.23, 0.19 107.75, 0.12 104.27 C0.04 100.8, 0 97.27, 0 93.77 C0 90.27, 0.04 86.75, 0.12 83.28 C0.19 79.8, 0.31 76.32, 0.46 72.91 C0.61 69.5, 0.81 66.11, 1.03 62.8 C1.26 59.5, 1.52 56.24, 1.82 53.09 C2.12 49.93, 2.45 46.85, 2.82 43.88 C3.18 40.92, 3.59 38.04, 4.01 35.31 C4.44 32.57, 4.9 29.94, 5.39 27.47 C5.87 24.99, 6.39 22.64, 6.93 20.46 C7.46 18.28, 8.03 16.24, 8.61 14.37 C9.19 12.51, 9.79 10.81, 10.41 9.29 C11.03 7.77, 11.67 6.42, 12.32 5.26 C12.97 4.11, 13.63 3.13, 14.3 2.35 C14.97 1.57, 15.65 0.98, 16.34 0.59 C17.02 0.2, 17.71 0, 18.39 0 C19.08 0, 19.77 0.2, 20.45 0.59 C21.14 0.98, 21.82 1.57, 22.49 2.35 C23.16 3.13, 23.82 4.11, 24.47 5.26 C25.12 6.42, 25.76 7.77, 26.38 9.29 C26.99 10.81, 27.6 12.51, 28.18 14.37 C28.76 16.24, 29.33 18.28, 29.86 20.46 C30.4 22.64, 30.92 24.99, 31.4 27.47 C31.89 29.94, 32.35 32.57, 32.78 35.31 C33.2 38.04, 33.6 40.92, 33.97 43.88 C34.34 46.85, 34.67 49.93, 34.97 53.09 C35.27 56.24, 35.53 59.5, 35.76 62.8 C35.98 66.11, 36.18 69.5, 36.33 72.91 C36.48 76.32, 36.6 79.8, 36.67 83.28 C36.75 86.75, 36.77 92.02, 36.79 93.77 C36.81 95.52, 36.81 92.02, 36.79 93.77" stroke="transparent" stroke-width="4" fill="none"></path></g><g stroke-linecap="round" transform="translate(144.1854360327343 151.18773327801955) rotate(106.90031004406805 18.394639756944343 93.77441406249955)"><path d="M36.79 93.77 C36.79 97.27, 36.75 100.8, 36.67 104.27 C36.6 107.75, 36.48 111.23, 36.33 114.64 C36.18 118.05, 35.98 121.44, 35.76 124.75 C35.53 128.05, 35.27 131.31, 34.97 134.46 C34.67 137.61, 34.34 140.7, 33.97 143.67 C33.6 146.63, 33.2 149.51, 32.78 152.24 C32.35 154.98, 31.89 157.61, 31.4 160.08 C30.92 162.56, 30.4 164.91, 29.86 167.09 C29.33 169.27, 28.76 171.31, 28.18 173.18 C27.6 175.04, 26.99 176.74, 26.38 178.26 C25.76 179.78, 25.12 181.13, 24.47 182.29 C23.82 183.44, 23.16 184.42, 22.49 185.2 C21.82 185.98, 21.14 186.57, 20.45 186.96 C19.77 187.35, 19.08 187.55, 18.39 187.55 C17.71 187.55, 17.02 187.35, 16.34 186.96 C15.65 186.57, 14.97 185.98, 14.3 185.2 C13.63 184.42, 12.97 183.44, 12.32 182.29 C11.67 181.13, 11.03 179.78, 10.41 178.26 C9.79 176.74, 9.19 175.04, 8.61 173.18 C8.03 171.31, 7.46 169.27, 6.93 167.09 C6.39 164.91, 5.87 162.56, 5.39 160.08 C4.9 157.61, 4.44 154.98, 4.01 152.24 C3.59 149.51, 3.18 146.63, 2.82 143.67 C2.45 140.7, 2.12 137.61, 1.82 134.46 C1.52 131.31, 1.26 128.05, 1.03 124.75 C0.81 121.44, 0.61 118.05, 0.46 114.64 C0.31 111.23, 0.19 107.75, 0.12 104.27 C0.04 100.8, 0 97.27, 0 93.77 C0 90.27, 0.04 86.75, 0.12 83.28 C0.19 79.8, 0.31 76.32, 0.46 72.91 C0.61 69.5, 0.81 66.11, 1.03 62.8 C1.26 59.5, 1.52 56.24, 1.82 53.09 C2.12 49.93, 2.45 46.85, 2.82 43.88 C3.18 40.92, 3.59 38.04, 4.01 35.31 C4.44 32.57, 4.9 29.94, 5.39 27.47 C5.87 24.99, 6.39 22.64, 6.93 20.46 C7.46 18.28, 8.03 16.24, 8.61 14.37 C9.19 12.51, 9.79 10.81, 10.41 9.29 C11.03 7.77, 11.67 6.42, 12.32 5.26 C12.97 4.11, 13.63 3.13, 14.3 2.35 C14.97 1.57, 15.65 0.98, 16.34 0.59 C17.02 0.2, 17.71 0, 18.39 0 C19.08 0, 19.77 0.2, 20.45 0.59 C21.14 0.98, 21.82 1.57, 22.49 2.35 C23.16 3.13, 23.82 4.11, 24.47 5.26 C25.12 6.42, 25.76 7.77, 26.38 9.29 C26.99 10.81, 27.6 12.51, 28.18 14.37 C28.76 16.24, 29.33 18.28, 29.86 20.46 C30.4 22.64, 30.92 24.99, 31.4 27.47 C31.89 29.94, 32.35 32.57, 32.78 35.31 C33.2 38.04, 33.6 40.92, 33.97 43.88 C34.34 46.85, 34.67 49.93, 34.97 53.09 C35.27 56.24, 35.53 59.5, 35.76 62.8 C35.98 66.11, 36.18 69.5, 36.33 72.91 C36.48 76.32, 36.6 79.8, 36.67 83.28 C36.75 86.75, 36.77 92.02, 36.79 93.77 C36.81 95.52, 36.81 92.02, 36.79 93.77" stroke="none" stroke-width="0" fill="#ffc9c9"></path><path d="M36.79 93.77 C36.79 97.27, 36.75 100.8, 36.67 104.27 C36.6 107.75, 36.48 111.23, 36.33 114.64 C36.18 118.05, 35.98 121.44, 35.76 124.75 C35.53 128.05, 35.27 131.31, 34.97 134.46 C34.67 137.61, 34.34 140.7, 33.97 143.67 C33.6 146.63, 33.2 149.51, 32.78 152.24 C32.35 154.98, 31.89 157.61, 31.4 160.08 C30.92 162.56, 30.4 164.91, 29.86 167.09 C29.33 169.27, 28.76 171.31, 28.18 173.18 C27.6 175.04, 26.99 176.74, 26.38 178.26 C25.76 179.78, 25.12 181.13, 24.47 182.29 C23.82 183.44, 23.16 184.42, 22.49 185.2 C21.82 185.98, 21.14 186.57, 20.45 186.96 C19.77 187.35, 19.08 187.55, 18.39 187.55 C17.71 187.55, 17.02 187.35, 16.34 186.96 C15.65 186.57, 14.97 185.98, 14.3 185.2 C13.63 184.42, 12.97 183.44, 12.32 182.29 C11.67 181.13, 11.03 179.78, 10.41 178.26 C9.79 176.74, 9.19 175.04, 8.61 173.18 C8.03 171.31, 7.46 169.27, 6.93 167.09 C6.39 164.91, 5.87 162.56, 5.39 160.08 C4.9 157.61, 4.44 154.98, 4.01 152.24 C3.59 149.51, 3.18 146.63, 2.82 143.67 C2.45 140.7, 2.12 137.61, 1.82 134.46 C1.52 131.31, 1.26 128.05, 1.03 124.75 C0.81 121.44, 0.61 118.05, 0.46 114.64 C0.31 111.23, 0.19 107.75, 0.12 104.27 C0.04 100.8, 0 97.27, 0 93.77 C0 90.27, 0.04 86.75, 0.12 83.28 C0.19 79.8, 0.31 76.32, 0.46 72.91 C0.61 69.5, 0.81 66.11, 1.03 62.8 C1.26 59.5, 1.52 56.24, 1.82 53.09 C2.12 49.93, 2.45 46.85, 2.82 43.88 C3.18 40.92, 3.59 38.04, 4.01 35.31 C4.44 32.57, 4.9 29.94, 5.39 27.47 C5.87 24.99, 6.39 22.64, 6.93 20.46 C7.46 18.28, 8.03 16.24, 8.61 14.37 C9.19 12.51, 9.79 10.81, 10.41 9.29 C11.03 7.77, 11.67 6.42, 12.32 5.26 C12.97 4.11, 13.63 3.13, 14.3 2.35 C14.97 1.57, 15.65 0.98, 16.34 0.59 C17.02 0.2, 17.71 0, 18.39 0 C19.08 0, 19.77 0.2, 20.45 0.59 C21.14 0.98, 21.82 1.57, 22.49 2.35 C23.16 3.13, 23.82 4.11, 24.47 5.26 C25.12 6.42, 25.76 7.77, 26.38 9.29 C26.99 10.81, 27.6 12.51, 28.18 14.37 C28.76 16.24, 29.33 18.28, 29.86 20.46 C30.4 22.64, 30.92 24.99, 31.4 27.47 C31.89 29.94, 32.35 32.57, 32.78 35.31 C33.2 38.04, 33.6 40.92, 33.97 43.88 C34.34 46.85, 34.67 49.93, 34.97 53.09 C35.27 56.24, 35.53 59.5, 35.76 62.8 C35.98 66.11, 36.18 69.5, 36.33 72.91 C36.48 76.32, 36.6 79.8, 36.67 83.28 C36.75 86.75, 36.77 92.02, 36.79 93.77 C36.81 95.52, 36.81 92.02, 36.79 93.77" stroke="transparent" stroke-width="4" fill="none"></path></g><g stroke-linecap="round" transform="translate(298.42805756051166 72.18925237524036) rotate(31.136705323519887 18.394639756944343 93.77441406249955)"><path d="M36.79 93.77 C36.79 97.27, 36.75 100.8, 36.67 104.27 C36.6 107.75, 36.48 111.23, 36.33 114.64 C36.18 118.05, 35.98 121.44, 35.76 124.75 C35.53 128.05, 35.27 131.31, 34.97 134.46 C34.67 137.61, 34.34 140.7, 33.97 143.67 C33.6 146.63, 33.2 149.51, 32.78 152.24 C32.35 154.98, 31.89 157.61, 31.4 160.08 C30.92 162.56, 30.4 164.91, 29.86 167.09 C29.33 169.27, 28.76 171.31, 28.18 173.18 C27.6 175.04, 26.99 176.74, 26.38 178.26 C25.76 179.78, 25.12 181.13, 24.47 182.29 C23.82 183.44, 23.16 184.42, 22.49 185.2 C21.82 185.98, 21.14 186.57, 20.45 186.96 C19.77 187.35, 19.08 187.55, 18.39 187.55 C17.71 187.55, 17.02 187.35, 16.34 186.96 C15.65 186.57, 14.97 185.98, 14.3 185.2 C13.63 184.42, 12.97 183.44, 12.32 182.29 C11.67 181.13, 11.03 179.78, 10.41 178.26 C9.79 176.74, 9.19 175.04, 8.61 173.18 C8.03 171.31, 7.46 169.27, 6.93 167.09 C6.39 164.91, 5.87 162.56, 5.39 160.08 C4.9 157.61, 4.44 154.98, 4.01 152.24 C3.59 149.51, 3.18 146.63, 2.82 143.67 C2.45 140.7, 2.12 137.61, 1.82 134.46 C1.52 131.31, 1.26 128.05, 1.03 124.75 C0.81 121.44, 0.61 118.05, 0.46 114.64 C0.31 111.23, 0.19 107.75, 0.12 104.27 C0.04 100.8, 0 97.27, 0 93.77 C0 90.27, 0.04 86.75, 0.12 83.28 C0.19 79.8, 0.31 76.32, 0.46 72.91 C0.61 69.5, 0.81 66.11, 1.03 62.8 C1.26 59.5, 1.52 56.24, 1.82 53.09 C2.12 49.93, 2.45 46.85, 2.82 43.88 C3.18 40.92, 3.59 38.04, 4.01 35.31 C4.44 32.57, 4.9 29.94, 5.39 27.47 C5.87 24.99, 6.39 22.64, 6.93 20.46 C7.46 18.28, 8.03 16.24, 8.61 14.37 C9.19 12.51, 9.79 10.81, 10.41 9.29 C11.03 7.77, 11.67 6.42, 12.32 5.26 C12.97 4.11, 13.63 3.13, 14.3 2.35 C14.97 1.57, 15.65 0.98, 16.34 0.59 C17.02 0.2, 17.71 0, 18.39 0 C19.08 0, 19.77 0.2, 20.45 0.59 C21.14 0.98, 21.82 1.57, 22.49 2.35 C23.16 3.13, 23.82 4.11, 24.47 5.26 C25.12 6.42, 25.76 7.77, 26.38 9.29 C26.99 10.81, 27.6 12.51, 28.18 14.37 C28.76 16.24, 29.33 18.28, 29.86 20.46 C30.4 22.64, 30.92 24.99, 31.4 27.47 C31.89 29.94, 32.35 32.57, 32.78 35.31 C33.2 38.04, 33.6 40.92, 33.97 43.88 C34.34 46.85, 34.67 49.93, 34.97 53.09 C35.27 56.24, 35.53 59.5, 35.76 62.8 C35.98 66.11, 36.18 69.5, 36.33 72.91 C36.48 76.32, 36.6 79.8, 36.67 83.28 C36.75 86.75, 36.77 92.02, 36.79 93.77 C36.81 95.52, 36.81 92.02, 36.79 93.77" stroke="none" stroke-width="0" fill="#ffc9c9"></path><path d="M36.79 93.77 C36.79 97.27, 36.75 100.8, 36.67 104.27 C36.6 107.75, 36.48 111.23, 36.33 114.64 C36.18 118.05, 35.98 121.44, 35.76 124.75 C35.53 128.05, 35.27 131.31, 34.97 134.46 C34.67 137.61, 34.34 140.7, 33.97 143.67 C33.6 146.63, 33.2 149.51, 32.78 152.24 C32.35 154.98, 31.89 157.61, 31.4 160.08 C30.92 162.56, 30.4 164.91, 29.86 167.09 C29.33 169.27, 28.76 171.31, 28.18 173.18 C27.6 175.04, 26.99 176.74, 26.38 178.26 C25.76 179.78, 25.12 181.13, 24.47 182.29 C23.82 183.44, 23.16 184.42, 22.49 185.2 C21.82 185.98, 21.14 186.57, 20.45 186.96 C19.77 187.35, 19.08 187.55, 18.39 187.55 C17.71 187.55, 17.02 187.35, 16.34 186.96 C15.65 186.57, 14.97 185.98, 14.3 185.2 C13.63 184.42, 12.97 183.44, 12.32 182.29 C11.67 181.13, 11.03 179.78, 10.41 178.26 C9.79 176.74, 9.19 175.04, 8.61 173.18 C8.03 171.31, 7.46 169.27, 6.93 167.09 C6.39 164.91, 5.87 162.56, 5.39 160.08 C4.9 157.61, 4.44 154.98, 4.01 152.24 C3.59 149.51, 3.18 146.63, 2.82 143.67 C2.45 140.7, 2.12 137.61, 1.82 134.46 C1.52 131.31, 1.26 128.05, 1.03 124.75 C0.81 121.44, 0.61 118.05, 0.46 114.64 C0.31 111.23, 0.19 107.75, 0.12 104.27 C0.04 100.8, 0 97.27, 0 93.77 C0 90.27, 0.04 86.75, 0.12 83.28 C0.19 79.8, 0.31 76.32, 0.46 72.91 C0.61 69.5, 0.81 66.11, 1.03 62.8 C1.26 59.5, 1.52 56.24, 1.82 53.09 C2.12 49.93, 2.45 46.85, 2.82 43.88 C3.18 40.92, 3.59 38.04, 4.01 35.31 C4.44 32.57, 4.9 29.94, 5.39 27.47 C5.87 24.99, 6.39 22.64, 6.93 20.46 C7.46 18.28, 8.03 16.24, 8.61 14.37 C9.19 12.51, 9.79 10.81, 10.41 9.29 C11.03 7.77, 11.67 6.42, 12.32 5.26 C12.97 4.11, 13.63 3.13, 14.3 2.35 C14.97 1.57, 15.65 0.98, 16.34 0.59 C17.02 0.2, 17.71 0, 18.39 0 C19.08 0, 19.77 0.2, 20.45 0.59 C21.14 0.98, 21.82 1.57, 22.49 2.35 C23.16 3.13, 23.82 4.11, 24.47 5.26 C25.12 6.42, 25.76 7.77, 26.38 9.29 C26.99 10.81, 27.6 12.51, 28.18 14.37 C28.76 16.24, 29.33 18.28, 29.86 20.46 C30.4 22.64, 30.92 24.99, 31.4 27.47 C31.89 29.94, 32.35 32.57, 32.78 35.31 C33.2 38.04, 33.6 40.92, 33.97 43.88 C34.34 46.85, 34.67 49.93, 34.97 53.09 C35.27 56.24, 35.53 59.5, 35.76 62.8 C35.98 66.11, 36.18 69.5, 36.33 72.91 C36.48 76.32, 36.6 79.8, 36.67 83.28 C36.75 86.75, 36.77 92.02, 36.79 93.77 C36.81 95.52, 36.81 92.02, 36.79 93.77" stroke="transparent" stroke-width="4" fill="none"></path></g><g stroke-linecap="round" transform="translate(190.60041810217808 246.01437030579655) rotate(41.69163816817482 18.394639756944343 93.77441406249955)"><path d="M36.79 93.77 C36.79 97.27, 36.75 100.8, 36.67 104.27 C36.6 107.75, 36.48 111.23, 36.33 114.64 C36.18 118.05, 35.98 121.44, 35.76 124.75 C35.53 128.05, 35.27 131.31, 34.97 134.46 C34.67 137.61, 34.34 140.7, 33.97 143.67 C33.6 146.63, 33.2 149.51, 32.78 152.24 C32.35 154.98, 31.89 157.61, 31.4 160.08 C30.92 162.56, 30.4 164.91, 29.86 167.09 C29.33 169.27, 28.76 171.31, 28.18 173.18 C27.6 175.04, 26.99 176.74, 26.38 178.26 C25.76 179.78, 25.12 181.13, 24.47 182.29 C23.82 183.44, 23.16 184.42, 22.49 185.2 C21.82 185.98, 21.14 186.57, 20.45 186.96 C19.77 187.35, 19.08 187.55, 18.39 187.55 C17.71 187.55, 17.02 187.35, 16.34 186.96 C15.65 186.57, 14.97 185.98, 14.3 185.2 C13.63 184.42, 12.97 183.44, 12.32 182.29 C11.67 181.13, 11.03 179.78, 10.41 178.26 C9.79 176.74, 9.19 175.04, 8.61 173.18 C8.03 171.31, 7.46 169.27, 6.93 167.09 C6.39 164.91, 5.87 162.56, 5.39 160.08 C4.9 157.61, 4.44 154.98, 4.01 152.24 C3.59 149.51, 3.18 146.63, 2.82 143.67 C2.45 140.7, 2.12 137.61, 1.82 134.46 C1.52 131.31, 1.26 128.05, 1.03 124.75 C0.81 121.44, 0.61 118.05, 0.46 114.64 C0.31 111.23, 0.19 107.75, 0.12 104.27 C0.04 100.8, 0 97.27, 0 93.77 C0 90.27, 0.04 86.75, 0.12 83.28 C0.19 79.8, 0.31 76.32, 0.46 72.91 C0.61 69.5, 0.81 66.11, 1.03 62.8 C1.26 59.5, 1.52 56.24, 1.82 53.09 C2.12 49.93, 2.45 46.85, 2.82 43.88 C3.18 40.92, 3.59 38.04, 4.01 35.31 C4.44 32.57, 4.9 29.94, 5.39 27.47 C5.87 24.99, 6.39 22.64, 6.93 20.46 C7.46 18.28, 8.03 16.24, 8.61 14.37 C9.19 12.51, 9.79 10.81, 10.41 9.29 C11.03 7.77, 11.67 6.42, 12.32 5.26 C12.97 4.11, 13.63 3.13, 14.3 2.35 C14.97 1.57, 15.65 0.98, 16.34 0.59 C17.02 0.2, 17.71 0, 18.39 0 C19.08 0, 19.77 0.2, 20.45 0.59 C21.14 0.98, 21.82 1.57, 22.49 2.35 C23.16 3.13, 23.82 4.11, 24.47 5.26 C25.12 6.42, 25.76 7.77, 26.38 9.29 C26.99 10.81, 27.6 12.51, 28.18 14.37 C28.76 16.24, 29.33 18.28, 29.86 20.46 C30.4 22.64, 30.92 24.99, 31.4 27.47 C31.89 29.94, 32.35 32.57, 32.78 35.31 C33.2 38.04, 33.6 40.92, 33.97 43.88 C34.34 46.85, 34.67 49.93, 34.97 53.09 C35.27 56.24, 35.53 59.5, 35.76 62.8 C35.98 66.11, 36.18 69.5, 36.33 72.91 C36.48 76.32, 36.6 79.8, 36.67 83.28 C36.75 86.75, 36.77 92.02, 36.79 93.77 C36.81 95.52, 36.81 92.02, 36.79 93.77" stroke="none" stroke-width="0" fill="#ffc9c9"></path><path d="M36.79 93.77 C36.79 97.27, 36.75 100.8, 36.67 104.27 C36.6 107.75, 36.48 111.23, 36.33 114.64 C36.18 118.05, 35.98 121.44, 35.76 124.75 C35.53 128.05, 35.27 131.31, 34.97 134.46 C34.67 137.61, 34.34 140.7, 33.97 143.67 C33.6 146.63, 33.2 149.51, 32.78 152.24 C32.35 154.98, 31.89 157.61, 31.4 160.08 C30.92 162.56, 30.4 164.91, 29.86 167.09 C29.33 169.27, 28.76 171.31, 28.18 173.18 C27.6 175.04, 26.99 176.74, 26.38 178.26 C25.76 179.78, 25.12 181.13, 24.47 182.29 C23.82 183.44, 23.16 184.42, 22.49 185.2 C21.82 185.98, 21.14 186.57, 20.45 186.96 C19.77 187.35, 19.08 187.55, 18.39 187.55 C17.71 187.55, 17.02 187.35, 16.34 186.96 C15.65 186.57, 14.97 185.98, 14.3 185.2 C13.63 184.42, 12.97 183.44, 12.32 182.29 C11.67 181.13, 11.03 179.78, 10.41 178.26 C9.79 176.74, 9.19 175.04, 8.61 173.18 C8.03 171.31, 7.46 169.27, 6.93 167.09 C6.39 164.91, 5.87 162.56, 5.39 160.08 C4.9 157.61, 4.44 154.98, 4.01 152.24 C3.59 149.51, 3.18 146.63, 2.82 143.67 C2.45 140.7, 2.12 137.61, 1.82 134.46 C1.52 131.31, 1.26 128.05, 1.03 124.75 C0.81 121.44, 0.61 118.05, 0.46 114.64 C0.31 111.23, 0.19 107.75, 0.12 104.27 C0.04 100.8, 0 97.27, 0 93.77 C0 90.27, 0.04 86.75, 0.12 83.28 C0.19 79.8, 0.31 76.32, 0.46 72.91 C0.61 69.5, 0.81 66.11, 1.03 62.8 C1.26 59.5, 1.52 56.24, 1.82 53.09 C2.12 49.93, 2.45 46.85, 2.82 43.88 C3.18 40.92, 3.59 38.04, 4.01 35.31 C4.44 32.57, 4.9 29.94, 5.39 27.47 C5.87 24.99, 6.39 22.64, 6.93 20.46 C7.46 18.28, 8.03 16.24, 8.61 14.37 C9.19 12.51, 9.79 10.81, 10.41 9.29 C11.03 7.77, 11.67 6.42, 12.32 5.26 C12.97 4.11, 13.63 3.13, 14.3 2.35 C14.97 1.57, 15.65 0.98, 16.34 0.59 C17.02 0.2, 17.71 0, 18.39 0 C19.08 0, 19.77 0.2, 20.45 0.59 C21.14 0.98, 21.82 1.57, 22.49 2.35 C23.16 3.13, 23.82 4.11, 24.47 5.26 C25.12 6.42, 25.76 7.77, 26.38 9.29 C26.99 10.81, 27.6 12.51, 28.18 14.37 C28.76 16.24, 29.33 18.28, 29.86 20.46 C30.4 22.64, 30.92 24.99, 31.4 27.47 C31.89 29.94, 32.35 32.57, 32.78 35.31 C33.2 38.04, 33.6 40.92, 33.97 43.88 C34.34 46.85, 34.67 49.93, 34.97 53.09 C35.27 56.24, 35.53 59.5, 35.76 62.8 C35.98 66.11, 36.18 69.5, 36.33 72.91 C36.48 76.32, 36.6 79.8, 36.67 83.28 C36.75 86.75, 36.77 92.02, 36.79 93.77 C36.81 95.52, 36.81 92.02, 36.79 93.77" stroke="transparent" stroke-width="4" fill="none"></path></g><g stroke-linecap="round" transform="translate(321.6322676299551 245.88716904190733) rotate(136.72096010607132 18.394639756944343 93.77441406249955)"><path d="M36.79 93.77 C36.79 97.27, 36.75 100.8, 36.67 104.27 C36.6 107.75, 36.48 111.23, 36.33 114.64 C36.18 118.05, 35.98 121.44, 35.76 124.75 C35.53 128.05, 35.27 131.31, 34.97 134.46 C34.67 137.61, 34.34 140.7, 33.97 143.67 C33.6 146.63, 33.2 149.51, 32.78 152.24 C32.35 154.98, 31.89 157.61, 31.4 160.08 C30.92 162.56, 30.4 164.91, 29.86 167.09 C29.33 169.27, 28.76 171.31, 28.18 173.18 C27.6 175.04, 26.99 176.74, 26.38 178.26 C25.76 179.78, 25.12 181.13, 24.47 182.29 C23.82 183.44, 23.16 184.42, 22.49 185.2 C21.82 185.98, 21.14 186.57, 20.45 186.96 C19.77 187.35, 19.08 187.55, 18.39 187.55 C17.71 187.55, 17.02 187.35, 16.34 186.96 C15.65 186.57, 14.97 185.98, 14.3 185.2 C13.63 184.42, 12.97 183.44, 12.32 182.29 C11.67 181.13, 11.03 179.78, 10.41 178.26 C9.79 176.74, 9.19 175.04, 8.61 173.18 C8.03 171.31, 7.46 169.27, 6.93 167.09 C6.39 164.91, 5.87 162.56, 5.39 160.08 C4.9 157.61, 4.44 154.98, 4.01 152.24 C3.59 149.51, 3.18 146.63, 2.82 143.67 C2.45 140.7, 2.12 137.61, 1.82 134.46 C1.52 131.31, 1.26 128.05, 1.03 124.75 C0.81 121.44, 0.61 118.05, 0.46 114.64 C0.31 111.23, 0.19 107.75, 0.12 104.27 C0.04 100.8, 0 97.27, 0 93.77 C0 90.27, 0.04 86.75, 0.12 83.28 C0.19 79.8, 0.31 76.32, 0.46 72.91 C0.61 69.5, 0.81 66.11, 1.03 62.8 C1.26 59.5, 1.52 56.24, 1.82 53.09 C2.12 49.93, 2.45 46.85, 2.82 43.88 C3.18 40.92, 3.59 38.04, 4.01 35.31 C4.44 32.57, 4.9 29.94, 5.39 27.47 C5.87 24.99, 6.39 22.64, 6.93 20.46 C7.46 18.28, 8.03 16.24, 8.61 14.37 C9.19 12.51, 9.79 10.81, 10.41 9.29 C11.03 7.77, 11.67 6.42, 12.32 5.26 C12.97 4.11, 13.63 3.13, 14.3 2.35 C14.97 1.57, 15.65 0.98, 16.34 0.59 C17.02 0.2, 17.71 0, 18.39 0 C19.08 0, 19.77 0.2, 20.45 0.59 C21.14 0.98, 21.82 1.57, 22.49 2.35 C23.16 3.13, 23.82 4.11, 24.47 5.26 C25.12 6.42, 25.76 7.77, 26.38 9.29 C26.99 10.81, 27.6 12.51, 28.18 14.37 C28.76 16.24, 29.33 18.28, 29.86 20.46 C30.4 22.64, 30.92 24.99, 31.4 27.47 C31.89 29.94, 32.35 32.57, 32.78 35.31 C33.2 38.04, 33.6 40.92, 33.97 43.88 C34.34 46.85, 34.67 49.93, 34.97 53.09 C35.27 56.24, 35.53 59.5, 35.76 62.8 C35.98 66.11, 36.18 69.5, 36.33 72.91 C36.48 76.32, 36.6 79.8, 36.67 83.28 C36.75 86.75, 36.77 92.02, 36.79 93.77 C36.81 95.52, 36.81 92.02, 36.79 93.77" stroke="none" stroke-width="0" fill="#ffc9c9"></path><path d="M36.79 93.77 C36.79 97.27, 36.75 100.8, 36.67 104.27 C36.6 107.75, 36.48 111.23, 36.33 114.64 C36.18 118.05, 35.98 121.44, 35.76 124.75 C35.53 128.05, 35.27 131.31, 34.97 134.46 C34.67 137.61, 34.34 140.7, 33.97 143.67 C33.6 146.63, 33.2 149.51, 32.78 152.24 C32.35 154.98, 31.89 157.61, 31.4 160.08 C30.92 162.56, 30.4 164.91, 29.86 167.09 C29.33 169.27, 28.76 171.31, 28.18 173.18 C27.6 175.04, 26.99 176.74, 26.38 178.26 C25.76 179.78, 25.12 181.13, 24.47 182.29 C23.82 183.44, 23.16 184.42, 22.49 185.2 C21.82 185.98, 21.14 186.57, 20.45 186.96 C19.77 187.35, 19.08 187.55, 18.39 187.55 C17.71 187.55, 17.02 187.35, 16.34 186.96 C15.65 186.57, 14.97 185.98, 14.3 185.2 C13.63 184.42, 12.97 183.44, 12.32 182.29 C11.67 181.13, 11.03 179.78, 10.41 178.26 C9.79 176.74, 9.19 175.04, 8.61 173.18 C8.03 171.31, 7.46 169.27, 6.93 167.09 C6.39 164.91, 5.87 162.56, 5.39 160.08 C4.9 157.61, 4.44 154.98, 4.01 152.24 C3.59 149.51, 3.18 146.63, 2.82 143.67 C2.45 140.7, 2.12 137.61, 1.82 134.46 C1.52 131.31, 1.26 128.05, 1.03 124.75 C0.81 121.44, 0.61 118.05, 0.46 114.64 C0.31 111.23, 0.19 107.75, 0.12 104.27 C0.04 100.8, 0 97.27, 0 93.77 C0 90.27, 0.04 86.75, 0.12 83.28 C0.19 79.8, 0.31 76.32, 0.46 72.91 C0.61 69.5, 0.81 66.11, 1.03 62.8 C1.26 59.5, 1.52 56.24, 1.82 53.09 C2.12 49.93, 2.45 46.85, 2.82 43.88 C3.18 40.92, 3.59 38.04, 4.01 35.31 C4.44 32.57, 4.9 29.94, 5.39 27.47 C5.87 24.99, 6.39 22.64, 6.93 20.46 C7.46 18.28, 8.03 16.24, 8.61 14.37 C9.19 12.51, 9.79 10.81, 10.41 9.29 C11.03 7.77, 11.67 6.42, 12.32 5.26 C12.97 4.11, 13.63 3.13, 14.3 2.35 C14.97 1.57, 15.65 0.98, 16.34 0.59 C17.02 0.2, 17.71 0, 18.39 0 C19.08 0, 19.77 0.2, 20.45 0.59 C21.14 0.98, 21.82 1.57, 22.49 2.35 C23.16 3.13, 23.82 4.11, 24.47 5.26 C25.12 6.42, 25.76 7.77, 26.38 9.29 C26.99 10.81, 27.6 12.51, 28.18 14.37 C28.76 16.24, 29.33 18.28, 29.86 20.46 C30.4 22.64, 30.92 24.99, 31.4 27.47 C31.89 29.94, 32.35 32.57, 32.78 35.31 C33.2 38.04, 33.6 40.92, 33.97 43.88 C34.34 46.85, 34.67 49.93, 34.97 53.09 C35.27 56.24, 35.53 59.5, 35.76 62.8 C35.98 66.11, 36.18 69.5, 36.33 72.91 C36.48 76.32, 36.6 79.8, 36.67 83.28 C36.75 86.75, 36.77 92.02, 36.79 93.77 C36.81 95.52, 36.81 92.02, 36.79 93.77" stroke="transparent" stroke-width="4" fill="none"></path></g><g stroke-linecap="round" transform="translate(205.23686832440035 82.2803982085752) rotate(149.65491492028443 18.394639756944343 93.77441406249955)"><path d="M36.79 93.77 C36.79 97.27, 36.75 100.8, 36.67 104.27 C36.6 107.75, 36.48 111.23, 36.33 114.64 C36.18 118.05, 35.98 121.44, 35.76 124.75 C35.53 128.05, 35.27 131.31, 34.97 134.46 C34.67 137.61, 34.34 140.7, 33.97 143.67 C33.6 146.63, 33.2 149.51, 32.78 152.24 C32.35 154.98, 31.89 157.61, 31.4 160.08 C30.92 162.56, 30.4 164.91, 29.86 167.09 C29.33 169.27, 28.76 171.31, 28.18 173.18 C27.6 175.04, 26.99 176.74, 26.38 178.26 C25.76 179.78, 25.12 181.13, 24.47 182.29 C23.82 183.44, 23.16 184.42, 22.49 185.2 C21.82 185.98, 21.14 186.57, 20.45 186.96 C19.77 187.35, 19.08 187.55, 18.39 187.55 C17.71 187.55, 17.02 187.35, 16.34 186.96 C15.65 186.57, 14.97 185.98, 14.3 185.2 C13.63 184.42, 12.97 183.44, 12.32 182.29 C11.67 181.13, 11.03 179.78, 10.41 178.26 C9.79 176.74, 9.19 175.04, 8.61 173.18 C8.03 171.31, 7.46 169.27, 6.93 167.09 C6.39 164.91, 5.87 162.56, 5.39 160.08 C4.9 157.61, 4.44 154.98, 4.01 152.24 C3.59 149.51, 3.18 146.63, 2.82 143.67 C2.45 140.7, 2.12 137.61, 1.82 134.46 C1.52 131.31, 1.26 128.05, 1.03 124.75 C0.81 121.44, 0.61 118.05, 0.46 114.64 C0.31 111.23, 0.19 107.75, 0.12 104.27 C0.04 100.8, 0 97.27, 0 93.77 C0 90.27, 0.04 86.75, 0.12 83.28 C0.19 79.8, 0.31 76.32, 0.46 72.91 C0.61 69.5, 0.81 66.11, 1.03 62.8 C1.26 59.5, 1.52 56.24, 1.82 53.09 C2.12 49.93, 2.45 46.85, 2.82 43.88 C3.18 40.92, 3.59 38.04, 4.01 35.31 C4.44 32.57, 4.9 29.94, 5.39 27.47 C5.87 24.99, 6.39 22.64, 6.93 20.46 C7.46 18.28, 8.03 16.24, 8.61 14.37 C9.19 12.51, 9.79 10.81, 10.41 9.29 C11.03 7.77, 11.67 6.42, 12.32 5.26 C12.97 4.11, 13.63 3.13, 14.3 2.35 C14.97 1.57, 15.65 0.98, 16.34 0.59 C17.02 0.2, 17.71 0, 18.39 0 C19.08 0, 19.77 0.2, 20.45 0.59 C21.14 0.98, 21.82 1.57, 22.49 2.35 C23.16 3.13, 23.82 4.11, 24.47 5.26 C25.12 6.42, 25.76 7.77, 26.38 9.29 C26.99 10.81, 27.6 12.51, 28.18 14.37 C28.76 16.24, 29.33 18.28, 29.86 20.46 C30.4 22.64, 30.92 24.99, 31.4 27.47 C31.89 29.94, 32.35 32.57, 32.78 35.31 C33.2 38.04, 33.6 40.92, 33.97 43.88 C34.34 46.85, 34.67 49.93, 34.97 53.09 C35.27 56.24, 35.53 59.5, 35.76 62.8 C35.98 66.11, 36.18 69.5, 36.33 72.91 C36.48 76.32, 36.6 79.8, 36.67 83.28 C36.75 86.75, 36.77 92.02, 36.79 93.77 C36.81 95.52, 36.81 92.02, 36.79 93.77" stroke="none" stroke-width="0" fill="#ffc9c9"></path><path d="M36.79 93.77 C36.79 97.27, 36.75 100.8, 36.67 104.27 C36.6 107.75, 36.48 111.23, 36.33 114.64 C36.18 118.05, 35.98 121.44, 35.76 124.75 C35.53 128.05, 35.27 131.31, 34.97 134.46 C34.67 137.61, 34.34 140.7, 33.97 143.67 C33.6 146.63, 33.2 149.51, 32.78 152.24 C32.35 154.98, 31.89 157.61, 31.4 160.08 C30.92 162.56, 30.4 164.91, 29.86 167.09 C29.33 169.27, 28.76 171.31, 28.18 173.18 C27.6 175.04, 26.99 176.74, 26.38 178.26 C25.76 179.78, 25.12 181.13, 24.47 182.29 C23.82 183.44, 23.16 184.42, 22.49 185.2 C21.82 185.98, 21.14 186.57, 20.45 186.96 C19.77 187.35, 19.08 187.55, 18.39 187.55 C17.71 187.55, 17.02 187.35, 16.34 186.96 C15.65 186.57, 14.97 185.98, 14.3 185.2 C13.63 184.42, 12.97 183.44, 12.32 182.29 C11.67 181.13, 11.03 179.78, 10.41 178.26 C9.79 176.74, 9.19 175.04, 8.61 173.18 C8.03 171.31, 7.46 169.27, 6.93 167.09 C6.39 164.91, 5.87 162.56, 5.39 160.08 C4.9 157.61, 4.44 154.98, 4.01 152.24 C3.59 149.51, 3.18 146.63, 2.82 143.67 C2.45 140.7, 2.12 137.61, 1.82 134.46 C1.52 131.31, 1.26 128.05, 1.03 124.75 C0.81 121.44, 0.61 118.05, 0.46 114.64 C0.31 111.23, 0.19 107.75, 0.12 104.27 C0.04 100.8, 0 97.27, 0 93.77 C0 90.27, 0.04 86.75, 0.12 83.28 C0.19 79.8, 0.31 76.32, 0.46 72.91 C0.61 69.5, 0.81 66.11, 1.03 62.8 C1.26 59.5, 1.52 56.24, 1.82 53.09 C2.12 49.93, 2.45 46.85, 2.82 43.88 C3.18 40.92, 3.59 38.04, 4.01 35.31 C4.44 32.57, 4.9 29.94, 5.39 27.47 C5.87 24.99, 6.39 22.64, 6.93 20.46 C7.46 18.28, 8.03 16.24, 8.61 14.37 C9.19 12.51, 9.79 10.81, 10.41 9.29 C11.03 7.77, 11.67 6.42, 12.32 5.26 C12.97 4.11, 13.63 3.13, 14.3 2.35 C14.97 1.57, 15.65 0.98, 16.34 0.59 C17.02 0.2, 17.71 0, 18.39 0 C19.08 0, 19.77 0.2, 20.45 0.59 C21.14 0.98, 21.82 1.57, 22.49 2.35 C23.16 3.13, 23.82 4.11, 24.47 5.26 C25.12 6.42, 25.76 7.77, 26.38 9.29 C26.99 10.81, 27.6 12.51, 28.18 14.37 C28.76 16.24, 29.33 18.28, 29.86 20.46 C30.4 22.64, 30.92 24.99, 31.4 27.47 C31.89 29.94, 32.35 32.57, 32.78 35.31 C33.2 38.04, 33.6 40.92, 33.97 43.88 C34.34 46.85, 34.67 49.93, 34.97 53.09 C35.27 56.24, 35.53 59.5, 35.76 62.8 C35.98 66.11, 36.18 69.5, 36.33 72.91 C36.48 76.32, 36.6 79.8, 36.67 83.28 C36.75 86.75, 36.77 92.02, 36.79 93.77 C36.81 95.52, 36.81 92.02, 36.79 93.77" stroke="transparent" stroke-width="4" fill="none"></path></g><g stroke-linecap="round" transform="translate(156.99468082440217 202.59832355579692) rotate(64.71412235357424 18.394639756944343 93.77441406249955)"><path d="M36.79 93.77 C36.79 97.27, 36.75 100.8, 36.67 104.27 C36.6 107.75, 36.48 111.23, 36.33 114.64 C36.18 118.05, 35.98 121.44, 35.76 124.75 C35.53 128.05, 35.27 131.31, 34.97 134.46 C34.67 137.61, 34.34 140.7, 33.97 143.67 C33.6 146.63, 33.2 149.51, 32.78 152.24 C32.35 154.98, 31.89 157.61, 31.4 160.08 C30.92 162.56, 30.4 164.91, 29.86 167.09 C29.33 169.27, 28.76 171.31, 28.18 173.18 C27.6 175.04, 26.99 176.74, 26.38 178.26 C25.76 179.78, 25.12 181.13, 24.47 182.29 C23.82 183.44, 23.16 184.42, 22.49 185.2 C21.82 185.98, 21.14 186.57, 20.45 186.96 C19.77 187.35, 19.08 187.55, 18.39 187.55 C17.71 187.55, 17.02 187.35, 16.34 186.96 C15.65 186.57, 14.97 185.98, 14.3 185.2 C13.63 184.42, 12.97 183.44, 12.32 182.29 C11.67 181.13, 11.03 179.78, 10.41 178.26 C9.79 176.74, 9.19 175.04, 8.61 173.18 C8.03 171.31, 7.46 169.27, 6.93 167.09 C6.39 164.91, 5.87 162.56, 5.39 160.08 C4.9 157.61, 4.44 154.98, 4.01 152.24 C3.59 149.51, 3.18 146.63, 2.82 143.67 C2.45 140.7, 2.12 137.61, 1.82 134.46 C1.52 131.31, 1.26 128.05, 1.03 124.75 C0.81 121.44, 0.61 118.05, 0.46 114.64 C0.31 111.23, 0.19 107.75, 0.12 104.27 C0.04 100.8, 0 97.27, 0 93.77 C0 90.27, 0.04 86.75, 0.12 83.28 C0.19 79.8, 0.31 76.32, 0.46 72.91 C0.61 69.5, 0.81 66.11, 1.03 62.8 C1.26 59.5, 1.52 56.24, 1.82 53.09 C2.12 49.93, 2.45 46.85, 2.82 43.88 C3.18 40.92, 3.59 38.04, 4.01 35.31 C4.44 32.57, 4.9 29.94, 5.39 27.47 C5.87 24.99, 6.39 22.64, 6.93 20.46 C7.46 18.28, 8.03 16.24, 8.61 14.37 C9.19 12.51, 9.79 10.81, 10.41 9.29 C11.03 7.77, 11.67 6.42, 12.32 5.26 C12.97 4.11, 13.63 3.13, 14.3 2.35 C14.97 1.57, 15.65 0.98, 16.34 0.59 C17.02 0.2, 17.71 0, 18.39 0 C19.08 0, 19.77 0.2, 20.45 0.59 C21.14 0.98, 21.82 1.57, 22.49 2.35 C23.16 3.13, 23.82 4.11, 24.47 5.26 C25.12 6.42, 25.76 7.77, 26.38 9.29 C26.99 10.81, 27.6 12.51, 28.18 14.37 C28.76 16.24, 29.33 18.28, 29.86 20.46 C30.4 22.64, 30.92 24.99, 31.4 27.47 C31.89 29.94, 32.35 32.57, 32.78 35.31 C33.2 38.04, 33.6 40.92, 33.97 43.88 C34.34 46.85, 34.67 49.93, 34.97 53.09 C35.27 56.24, 35.53 59.5, 35.76 62.8 C35.98 66.11, 36.18 69.5, 36.33 72.91 C36.48 76.32, 36.6 79.8, 36.67 83.28 C36.75 86.75, 36.77 92.02, 36.79 93.77 C36.81 95.52, 36.81 92.02, 36.79 93.77" stroke="none" stroke-width="0" fill="#ffc9c9"></path><path d="M36.79 93.77 C36.79 97.27, 36.75 100.8, 36.67 104.27 C36.6 107.75, 36.48 111.23, 36.33 114.64 C36.18 118.05, 35.98 121.44, 35.76 124.75 C35.53 128.05, 35.27 131.31, 34.97 134.46 C34.67 137.61, 34.34 140.7, 33.97 143.67 C33.6 146.63, 33.2 149.51, 32.78 152.24 C32.35 154.98, 31.89 157.61, 31.4 160.08 C30.92 162.56, 30.4 164.91, 29.86 167.09 C29.33 169.27, 28.76 171.31, 28.18 173.18 C27.6 175.04, 26.99 176.74, 26.38 178.26 C25.76 179.78, 25.12 181.13, 24.47 182.29 C23.82 183.44, 23.16 184.42, 22.49 185.2 C21.82 185.98, 21.14 186.57, 20.45 186.96 C19.77 187.35, 19.08 187.55, 18.39 187.55 C17.71 187.55, 17.02 187.35, 16.34 186.96 C15.65 186.57, 14.97 185.98, 14.3 185.2 C13.63 184.42, 12.97 183.44, 12.32 182.29 C11.67 181.13, 11.03 179.78, 10.41 178.26 C9.79 176.74, 9.19 175.04, 8.61 173.18 C8.03 171.31, 7.46 169.27, 6.93 167.09 C6.39 164.91, 5.87 162.56, 5.39 160.08 C4.9 157.61, 4.44 154.98, 4.01 152.24 C3.59 149.51, 3.18 146.63, 2.82 143.67 C2.45 140.7, 2.12 137.61, 1.82 134.46 C1.52 131.31, 1.26 128.05, 1.03 124.75 C0.81 121.44, 0.61 118.05, 0.46 114.64 C0.31 111.23, 0.19 107.75, 0.12 104.27 C0.04 100.8, 0 97.27, 0 93.77 C0 90.27, 0.04 86.75, 0.12 83.28 C0.19 79.8, 0.31 76.32, 0.46 72.91 C0.61 69.5, 0.81 66.11, 1.03 62.8 C1.26 59.5, 1.52 56.24, 1.82 53.09 C2.12 49.93, 2.45 46.85, 2.82 43.88 C3.18 40.92, 3.59 38.04, 4.01 35.31 C4.44 32.57, 4.9 29.94, 5.39 27.47 C5.87 24.99, 6.39 22.64, 6.93 20.46 C7.46 18.28, 8.03 16.24, 8.61 14.37 C9.19 12.51, 9.79 10.81, 10.41 9.29 C11.03 7.77, 11.67 6.42, 12.32 5.26 C12.97 4.11, 13.63 3.13, 14.3 2.35 C14.97 1.57, 15.65 0.98, 16.34 0.59 C17.02 0.2, 17.71 0, 18.39 0 C19.08 0, 19.77 0.2, 20.45 0.59 C21.14 0.98, 21.82 1.57, 22.49 2.35 C23.16 3.13, 23.82 4.11, 24.47 5.26 C25.12 6.42, 25.76 7.77, 26.38 9.29 C26.99 10.81, 27.6 12.51, 28.18 14.37 C28.76 16.24, 29.33 18.28, 29.86 20.46 C30.4 22.64, 30.92 24.99, 31.4 27.47 C31.89 29.94, 32.35 32.57, 32.78 35.31 C33.2 38.04, 33.6 40.92, 33.97 43.88 C34.34 46.85, 34.67 49.93, 34.97 53.09 C35.27 56.24, 35.53 59.5, 35.76 62.8 C35.98 66.11, 36.18 69.5, 36.33 72.91 C36.48 76.32, 36.6 79.8, 36.67 83.28 C36.75 86.75, 36.77 92.02, 36.79 93.77 C36.81 95.52, 36.81 92.02, 36.79 93.77" stroke="transparent" stroke-width="4" fill="none"></path></g><g stroke-linecap="round" transform="translate(364.4599586021777 198.77345376412995) rotate(103.79096394840046 18.394639756944343 93.77441406249955)"><path d="M36.79 93.77 C36.79 97.27, 36.75 100.8, 36.67 104.27 C36.6 107.75, 36.48 111.23, 36.33 114.64 C36.18 118.05, 35.98 121.44, 35.76 124.75 C35.53 128.05, 35.27 131.31, 34.97 134.46 C34.67 137.61, 34.34 140.7, 33.97 143.67 C33.6 146.63, 33.2 149.51, 32.78 152.24 C32.35 154.98, 31.89 157.61, 31.4 160.08 C30.92 162.56, 30.4 164.91, 29.86 167.09 C29.33 169.27, 28.76 171.31, 28.18 173.18 C27.6 175.04, 26.99 176.74, 26.38 178.26 C25.76 179.78, 25.12 181.13, 24.47 182.29 C23.82 183.44, 23.16 184.42, 22.49 185.2 C21.82 185.98, 21.14 186.57, 20.45 186.96 C19.77 187.35, 19.08 187.55, 18.39 187.55 C17.71 187.55, 17.02 187.35, 16.34 186.96 C15.65 186.57, 14.97 185.98, 14.3 185.2 C13.63 184.42, 12.97 183.44, 12.32 182.29 C11.67 181.13, 11.03 179.78, 10.41 178.26 C9.79 176.74, 9.19 175.04, 8.61 173.18 C8.03 171.31, 7.46 169.27, 6.93 167.09 C6.39 164.91, 5.87 162.56, 5.39 160.08 C4.9 157.61, 4.44 154.98, 4.01 152.24 C3.59 149.51, 3.18 146.63, 2.82 143.67 C2.45 140.7, 2.12 137.61, 1.82 134.46 C1.52 131.31, 1.26 128.05, 1.03 124.75 C0.81 121.44, 0.61 118.05, 0.46 114.64 C0.31 111.23, 0.19 107.75, 0.12 104.27 C0.04 100.8, 0 97.27, 0 93.77 C0 90.27, 0.04 86.75, 0.12 83.28 C0.19 79.8, 0.31 76.32, 0.46 72.91 C0.61 69.5, 0.81 66.11, 1.03 62.8 C1.26 59.5, 1.52 56.24, 1.82 53.09 C2.12 49.93, 2.45 46.85, 2.82 43.88 C3.18 40.92, 3.59 38.04, 4.01 35.31 C4.44 32.57, 4.9 29.94, 5.39 27.47 C5.87 24.99, 6.39 22.64, 6.93 20.46 C7.46 18.28, 8.03 16.24, 8.61 14.37 C9.19 12.51, 9.79 10.81, 10.41 9.29 C11.03 7.77, 11.67 6.42, 12.32 5.26 C12.97 4.11, 13.63 3.13, 14.3 2.35 C14.97 1.57, 15.65 0.98, 16.34 0.59 C17.02 0.2, 17.71 0, 18.39 0 C19.08 0, 19.77 0.2, 20.45 0.59 C21.14 0.98, 21.82 1.57, 22.49 2.35 C23.16 3.13, 23.82 4.11, 24.47 5.26 C25.12 6.42, 25.76 7.77, 26.38 9.29 C26.99 10.81, 27.6 12.51, 28.18 14.37 C28.76 16.24, 29.33 18.28, 29.86 20.46 C30.4 22.64, 30.92 24.99, 31.4 27.47 C31.89 29.94, 32.35 32.57, 32.78 35.31 C33.2 38.04, 33.6 40.92, 33.97 43.88 C34.34 46.85, 34.67 49.93, 34.97 53.09 C35.27 56.24, 35.53 59.5, 35.76 62.8 C35.98 66.11, 36.18 69.5, 36.33 72.91 C36.48 76.32, 36.6 79.8, 36.67 83.28 C36.75 86.75, 36.77 92.02, 36.79 93.77 C36.81 95.52, 36.81 92.02, 36.79 93.77" stroke="none" stroke-width="0" fill="#ffc9c9"></path><path d="M36.79 93.77 C36.79 97.27, 36.75 100.8, 36.67 104.27 C36.6 107.75, 36.48 111.23, 36.33 114.64 C36.18 118.05, 35.98 121.44, 35.76 124.75 C35.53 128.05, 35.27 131.31, 34.97 134.46 C34.67 137.61, 34.34 140.7, 33.97 143.67 C33.6 146.63, 33.2 149.51, 32.78 152.24 C32.35 154.98, 31.89 157.61, 31.4 160.08 C30.92 162.56, 30.4 164.91, 29.86 167.09 C29.33 169.27, 28.76 171.31, 28.18 173.18 C27.6 175.04, 26.99 176.74, 26.38 178.26 C25.76 179.78, 25.12 181.13, 24.47 182.29 C23.82 183.44, 23.16 184.42, 22.49 185.2 C21.82 185.98, 21.14 186.57, 20.45 186.96 C19.77 187.35, 19.08 187.55, 18.39 187.55 C17.71 187.55, 17.02 187.35, 16.34 186.96 C15.65 186.57, 14.97 185.98, 14.3 185.2 C13.63 184.42, 12.97 183.44, 12.32 182.29 C11.67 181.13, 11.03 179.78, 10.41 178.26 C9.79 176.74, 9.19 175.04, 8.61 173.18 C8.03 171.31, 7.46 169.27, 6.93 167.09 C6.39 164.91, 5.87 162.56, 5.39 160.08 C4.9 157.61, 4.44 154.98, 4.01 152.24 C3.59 149.51, 3.18 146.63, 2.82 143.67 C2.45 140.7, 2.12 137.61, 1.82 134.46 C1.52 131.31, 1.26 128.05, 1.03 124.75 C0.81 121.44, 0.61 118.05, 0.46 114.64 C0.31 111.23, 0.19 107.75, 0.12 104.27 C0.04 100.8, 0 97.27, 0 93.77 C0 90.27, 0.04 86.75, 0.12 83.28 C0.19 79.8, 0.31 76.32, 0.46 72.91 C0.61 69.5, 0.81 66.11, 1.03 62.8 C1.26 59.5, 1.52 56.24, 1.82 53.09 C2.12 49.93, 2.45 46.85, 2.82 43.88 C3.18 40.92, 3.59 38.04, 4.01 35.31 C4.44 32.57, 4.9 29.94, 5.39 27.47 C5.87 24.99, 6.39 22.64, 6.93 20.46 C7.46 18.28, 8.03 16.24, 8.61 14.37 C9.19 12.51, 9.79 10.81, 10.41 9.29 C11.03 7.77, 11.67 6.42, 12.32 5.26 C12.97 4.11, 13.63 3.13, 14.3 2.35 C14.97 1.57, 15.65 0.98, 16.34 0.59 C17.02 0.2, 17.71 0, 18.39 0 C19.08 0, 19.77 0.2, 20.45 0.59 C21.14 0.98, 21.82 1.57, 22.49 2.35 C23.16 3.13, 23.82 4.11, 24.47 5.26 C25.12 6.42, 25.76 7.77, 26.38 9.29 C26.99 10.81, 27.6 12.51, 28.18 14.37 C28.76 16.24, 29.33 18.28, 29.86 20.46 C30.4 22.64, 30.92 24.99, 31.4 27.47 C31.89 29.94, 32.35 32.57, 32.78 35.31 C33.2 38.04, 33.6 40.92, 33.97 43.88 C34.34 46.85, 34.67 49.93, 34.97 53.09 C35.27 56.24, 35.53 59.5, 35.76 62.8 C35.98 66.11, 36.18 69.5, 36.33 72.91 C36.48 76.32, 36.6 79.8, 36.67 83.28 C36.75 86.75, 36.77 92.02, 36.79 93.77 C36.81 95.52, 36.81 92.02, 36.79 93.77" stroke="transparent" stroke-width="4" fill="none"></path></g><g stroke-linecap="round" transform="translate(170.72080929662116 116.17796765302046) rotate(125.3805657682776 18.394639756944343 93.77441406249955)"><path d="M36.79 93.77 C36.79 97.27, 36.75 100.8, 36.67 104.27 C36.6 107.75, 36.48 111.23, 36.33 114.64 C36.18 118.05, 35.98 121.44, 35.76 124.75 C35.53 128.05, 35.27 131.31, 34.97 134.46 C34.67 137.61, 34.34 140.7, 33.97 143.67 C33.6 146.63, 33.2 149.51, 32.78 152.24 C32.35 154.98, 31.89 157.61, 31.4 160.08 C30.92 162.56, 30.4 164.91, 29.86 167.09 C29.33 169.27, 28.76 171.31, 28.18 173.18 C27.6 175.04, 26.99 176.74, 26.38 178.26 C25.76 179.78, 25.12 181.13, 24.47 182.29 C23.82 183.44, 23.16 184.42, 22.49 185.2 C21.82 185.98, 21.14 186.57, 20.45 186.96 C19.77 187.35, 19.08 187.55, 18.39 187.55 C17.71 187.55, 17.02 187.35, 16.34 186.96 C15.65 186.57, 14.97 185.98, 14.3 185.2 C13.63 184.42, 12.97 183.44, 12.32 182.29 C11.67 181.13, 11.03 179.78, 10.41 178.26 C9.79 176.74, 9.19 175.04, 8.61 173.18 C8.03 171.31, 7.46 169.27, 6.93 167.09 C6.39 164.91, 5.87 162.56, 5.39 160.08 C4.9 157.61, 4.44 154.98, 4.01 152.24 C3.59 149.51, 3.18 146.63, 2.82 143.67 C2.45 140.7, 2.12 137.61, 1.82 134.46 C1.52 131.31, 1.26 128.05, 1.03 124.75 C0.81 121.44, 0.61 118.05, 0.46 114.64 C0.31 111.23, 0.19 107.75, 0.12 104.27 C0.04 100.8, 0 97.27, 0 93.77 C0 90.27, 0.04 86.75, 0.12 83.28 C0.19 79.8, 0.31 76.32, 0.46 72.91 C0.61 69.5, 0.81 66.11, 1.03 62.8 C1.26 59.5, 1.52 56.24, 1.82 53.09 C2.12 49.93, 2.45 46.85, 2.82 43.88 C3.18 40.92, 3.59 38.04, 4.01 35.31 C4.44 32.57, 4.9 29.94, 5.39 27.47 C5.87 24.99, 6.39 22.64, 6.93 20.46 C7.46 18.28, 8.03 16.24, 8.61 14.37 C9.19 12.51, 9.79 10.81, 10.41 9.29 C11.03 7.77, 11.67 6.42, 12.32 5.26 C12.97 4.11, 13.63 3.13, 14.3 2.35 C14.97 1.57, 15.65 0.98, 16.34 0.59 C17.02 0.2, 17.71 0, 18.39 0 C19.08 0, 19.77 0.2, 20.45 0.59 C21.14 0.98, 21.82 1.57, 22.49 2.35 C23.16 3.13, 23.82 4.11, 24.47 5.26 C25.12 6.42, 25.76 7.77, 26.38 9.29 C26.99 10.81, 27.6 12.51, 28.18 14.37 C28.76 16.24, 29.33 18.28, 29.86 20.46 C30.4 22.64, 30.92 24.99, 31.4 27.47 C31.89 29.94, 32.35 32.57, 32.78 35.31 C33.2 38.04, 33.6 40.92, 33.97 43.88 C34.34 46.85, 34.67 49.93, 34.97 53.09 C35.27 56.24, 35.53 59.5, 35.76 62.8 C35.98 66.11, 36.18 69.5, 36.33 72.91 C36.48 76.32, 36.6 79.8, 36.67 83.28 C36.75 86.75, 36.77 92.02, 36.79 93.77 C36.81 95.52, 36.81 92.02, 36.79 93.77" stroke="none" stroke-width="0" fill="#ffc9c9"></path><path d="M36.79 93.77 C36.79 97.27, 36.75 100.8, 36.67 104.27 C36.6 107.75, 36.48 111.23, 36.33 114.64 C36.18 118.05, 35.98 121.44, 35.76 124.75 C35.53 128.05, 35.27 131.31, 34.97 134.46 C34.67 137.61, 34.34 140.7, 33.97 143.67 C33.6 146.63, 33.2 149.51, 32.78 152.24 C32.35 154.98, 31.89 157.61, 31.4 160.08 C30.92 162.56, 30.4 164.91, 29.86 167.09 C29.33 169.27, 28.76 171.31, 28.18 173.18 C27.6 175.04, 26.99 176.74, 26.38 178.26 C25.76 179.78, 25.12 181.13, 24.47 182.29 C23.82 183.44, 23.16 184.42, 22.49 185.2 C21.82 185.98, 21.14 186.57, 20.45 186.96 C19.77 187.35, 19.08 187.55, 18.39 187.55 C17.71 187.55, 17.02 187.35, 16.34 186.96 C15.65 186.57, 14.97 185.98, 14.3 185.2 C13.63 184.42, 12.97 183.44, 12.32 182.29 C11.67 181.13, 11.03 179.78, 10.41 178.26 C9.79 176.74, 9.19 175.04, 8.61 173.18 C8.03 171.31, 7.46 169.27, 6.93 167.09 C6.39 164.91, 5.87 162.56, 5.39 160.08 C4.9 157.61, 4.44 154.98, 4.01 152.24 C3.59 149.51, 3.18 146.63, 2.82 143.67 C2.45 140.7, 2.12 137.61, 1.82 134.46 C1.52 131.31, 1.26 128.05, 1.03 124.75 C0.81 121.44, 0.61 118.05, 0.46 114.64 C0.31 111.23, 0.19 107.75, 0.12 104.27 C0.04 100.8, 0 97.27, 0 93.77 C0 90.27, 0.04 86.75, 0.12 83.28 C0.19 79.8, 0.31 76.32, 0.46 72.91 C0.61 69.5, 0.81 66.11, 1.03 62.8 C1.26 59.5, 1.52 56.24, 1.82 53.09 C2.12 49.93, 2.45 46.85, 2.82 43.88 C3.18 40.92, 3.59 38.04, 4.01 35.31 C4.44 32.57, 4.9 29.94, 5.39 27.47 C5.87 24.99, 6.39 22.64, 6.93 20.46 C7.46 18.28, 8.03 16.24, 8.61 14.37 C9.19 12.51, 9.79 10.81, 10.41 9.29 C11.03 7.77, 11.67 6.42, 12.32 5.26 C12.97 4.11, 13.63 3.13, 14.3 2.35 C14.97 1.57, 15.65 0.98, 16.34 0.59 C17.02 0.2, 17.71 0, 18.39 0 C19.08 0, 19.77 0.2, 20.45 0.59 C21.14 0.98, 21.82 1.57, 22.49 2.35 C23.16 3.13, 23.82 4.11, 24.47 5.26 C25.12 6.42, 25.76 7.77, 26.38 9.29 C26.99 10.81, 27.6 12.51, 28.18 14.37 C28.76 16.24, 29.33 18.28, 29.86 20.46 C30.4 22.64, 30.92 24.99, 31.4 27.47 C31.89 29.94, 32.35 32.57, 32.78 35.31 C33.2 38.04, 33.6 40.92, 33.97 43.88 C34.34 46.85, 34.67 49.93, 34.97 53.09 C35.27 56.24, 35.53 59.5, 35.76 62.8 C35.98 66.11, 36.18 69.5, 36.33 72.91 C36.48 76.32, 36.6 79.8, 36.67 83.28 C36.75 86.75, 36.77 92.02, 36.79 93.77 C36.81 95.52, 36.81 92.02, 36.79 93.77" stroke="transparent" stroke-width="4" fill="none"></path></g><g stroke-linecap="round" transform="translate(337.8215037410664 103.14085827801955) rotate(62.28773215433815 18.394639756944343 93.77441406249955)"><path d="M36.79 93.77 C36.79 97.27, 36.75 100.8, 36.67 104.27 C36.6 107.75, 36.48 111.23, 36.33 114.64 C36.18 118.05, 35.98 121.44, 35.76 124.75 C35.53 128.05, 35.27 131.31, 34.97 134.46 C34.67 137.61, 34.34 140.7, 33.97 143.67 C33.6 146.63, 33.2 149.51, 32.78 152.24 C32.35 154.98, 31.89 157.61, 31.4 160.08 C30.92 162.56, 30.4 164.91, 29.86 167.09 C29.33 169.27, 28.76 171.31, 28.18 173.18 C27.6 175.04, 26.99 176.74, 26.38 178.26 C25.76 179.78, 25.12 181.13, 24.47 182.29 C23.82 183.44, 23.16 184.42, 22.49 185.2 C21.82 185.98, 21.14 186.57, 20.45 186.96 C19.77 187.35, 19.08 187.55, 18.39 187.55 C17.71 187.55, 17.02 187.35, 16.34 186.96 C15.65 186.57, 14.97 185.98, 14.3 185.2 C13.63 184.42, 12.97 183.44, 12.32 182.29 C11.67 181.13, 11.03 179.78, 10.41 178.26 C9.79 176.74, 9.19 175.04, 8.61 173.18 C8.03 171.31, 7.46 169.27, 6.93 167.09 C6.39 164.91, 5.87 162.56, 5.39 160.08 C4.9 157.61, 4.44 154.98, 4.01 152.24 C3.59 149.51, 3.18 146.63, 2.82 143.67 C2.45 140.7, 2.12 137.61, 1.82 134.46 C1.52 131.31, 1.26 128.05, 1.03 124.75 C0.81 121.44, 0.61 118.05, 0.46 114.64 C0.31 111.23, 0.19 107.75, 0.12 104.27 C0.04 100.8, 0 97.27, 0 93.77 C0 90.27, 0.04 86.75, 0.12 83.28 C0.19 79.8, 0.31 76.32, 0.46 72.91 C0.61 69.5, 0.81 66.11, 1.03 62.8 C1.26 59.5, 1.52 56.24, 1.82 53.09 C2.12 49.93, 2.45 46.85, 2.82 43.88 C3.18 40.92, 3.59 38.04, 4.01 35.31 C4.44 32.57, 4.9 29.94, 5.39 27.47 C5.87 24.99, 6.39 22.64, 6.93 20.46 C7.46 18.28, 8.03 16.24, 8.61 14.37 C9.19 12.51, 9.79 10.81, 10.41 9.29 C11.03 7.77, 11.67 6.42, 12.32 5.26 C12.97 4.11, 13.63 3.13, 14.3 2.35 C14.97 1.57, 15.65 0.98, 16.34 0.59 C17.02 0.2, 17.71 0, 18.39 0 C19.08 0, 19.77 0.2, 20.45 0.59 C21.14 0.98, 21.82 1.57, 22.49 2.35 C23.16 3.13, 23.82 4.11, 24.47 5.26 C25.12 6.42, 25.76 7.77, 26.38 9.29 C26.99 10.81, 27.6 12.51, 28.18 14.37 C28.76 16.24, 29.33 18.28, 29.86 20.46 C30.4 22.64, 30.92 24.99, 31.4 27.47 C31.89 29.94, 32.35 32.57, 32.78 35.31 C33.2 38.04, 33.6 40.92, 33.97 43.88 C34.34 46.85, 34.67 49.93, 34.97 53.09 C35.27 56.24, 35.53 59.5, 35.76 62.8 C35.98 66.11, 36.18 69.5, 36.33 72.91 C36.48 76.32, 36.6 79.8, 36.67 83.28 C36.75 86.75, 36.77 92.02, 36.79 93.77 C36.81 95.52, 36.81 92.02, 36.79 93.77" stroke="none" stroke-width="0" fill="#ffc9c9"></path><path d="M36.79 93.77 C36.79 97.27, 36.75 100.8, 36.67 104.27 C36.6 107.75, 36.48 111.23, 36.33 114.64 C36.18 118.05, 35.98 121.44, 35.76 124.75 C35.53 128.05, 35.27 131.31, 34.97 134.46 C34.67 137.61, 34.34 140.7, 33.97 143.67 C33.6 146.63, 33.2 149.51, 32.78 152.24 C32.35 154.98, 31.89 157.61, 31.4 160.08 C30.92 162.56, 30.4 164.91, 29.86 167.09 C29.33 169.27, 28.76 171.31, 28.18 173.18 C27.6 175.04, 26.99 176.74, 26.38 178.26 C25.76 179.78, 25.12 181.13, 24.47 182.29 C23.82 183.44, 23.16 184.42, 22.49 185.2 C21.82 185.98, 21.14 186.57, 20.45 186.96 C19.77 187.35, 19.08 187.55, 18.39 187.55 C17.71 187.55, 17.02 187.35, 16.34 186.96 C15.65 186.57, 14.97 185.98, 14.3 185.2 C13.63 184.42, 12.97 183.44, 12.32 182.29 C11.67 181.13, 11.03 179.78, 10.41 178.26 C9.79 176.74, 9.19 175.04, 8.61 173.18 C8.03 171.31, 7.46 169.27, 6.93 167.09 C6.39 164.91, 5.87 162.56, 5.39 160.08 C4.9 157.61, 4.44 154.98, 4.01 152.24 C3.59 149.51, 3.18 146.63, 2.82 143.67 C2.45 140.7, 2.12 137.61, 1.82 134.46 C1.52 131.31, 1.26 128.05, 1.03 124.75 C0.81 121.44, 0.61 118.05, 0.46 114.64 C0.31 111.23, 0.19 107.75, 0.12 104.27 C0.04 100.8, 0 97.27, 0 93.77 C0 90.27, 0.04 86.75, 0.12 83.28 C0.19 79.8, 0.31 76.32, 0.46 72.91 C0.61 69.5, 0.81 66.11, 1.03 62.8 C1.26 59.5, 1.52 56.24, 1.82 53.09 C2.12 49.93, 2.45 46.85, 2.82 43.88 C3.18 40.92, 3.59 38.04, 4.01 35.31 C4.44 32.57, 4.9 29.94, 5.39 27.47 C5.87 24.99, 6.39 22.64, 6.93 20.46 C7.46 18.28, 8.03 16.24, 8.61 14.37 C9.19 12.51, 9.79 10.81, 10.41 9.29 C11.03 7.77, 11.67 6.42, 12.32 5.26 C12.97 4.11, 13.63 3.13, 14.3 2.35 C14.97 1.57, 15.65 0.98, 16.34 0.59 C17.02 0.2, 17.71 0, 18.39 0 C19.08 0, 19.77 0.2, 20.45 0.59 C21.14 0.98, 21.82 1.57, 22.49 2.35 C23.16 3.13, 23.82 4.11, 24.47 5.26 C25.12 6.42, 25.76 7.77, 26.38 9.29 C26.99 10.81, 27.6 12.51, 28.18 14.37 C28.76 16.24, 29.33 18.28, 29.86 20.46 C30.4 22.64, 30.92 24.99, 31.4 27.47 C31.89 29.94, 32.35 32.57, 32.78 35.31 C33.2 38.04, 33.6 40.92, 33.97 43.88 C34.34 46.85, 34.67 49.93, 34.97 53.09 C35.27 56.24, 35.53 59.5, 35.76 62.8 C35.98 66.11, 36.18 69.5, 36.33 72.91 C36.48 76.32, 36.6 79.8, 36.67 83.28 C36.75 86.75, 36.77 92.02, 36.79 93.77 C36.81 95.52, 36.81 92.02, 36.79 93.77" stroke="transparent" stroke-width="4" fill="none"></path></g><g stroke-linecap="round" transform="translate(251.55350058302975 55.31083561012656) rotate(0 17.384922085237122 17.384922085237577)"><path d="M34.77 17.38 C34.77 18.39, 34.68 19.41, 34.51 20.4 C34.33 21.39, 34.07 22.39, 33.72 23.33 C33.38 24.28, 32.94 25.21, 32.44 26.08 C31.94 26.95, 31.35 27.79, 30.7 28.56 C30.06 29.33, 29.33 30.06, 28.56 30.7 C27.79 31.35, 26.95 31.94, 26.08 32.44 C25.21 32.94, 24.28 33.38, 23.33 33.72 C22.39 34.07, 21.39 34.33, 20.4 34.51 C19.41 34.68, 18.39 34.77, 17.38 34.77 C16.38 34.77, 15.36 34.68, 14.37 34.51 C13.38 34.33, 12.38 34.07, 11.44 33.72 C10.49 33.38, 9.56 32.94, 8.69 32.44 C7.82 31.94, 6.98 31.35, 6.21 30.7 C5.44 30.06, 4.71 29.33, 4.07 28.56 C3.42 27.79, 2.83 26.95, 2.33 26.08 C1.83 25.21, 1.39 24.28, 1.05 23.33 C0.7 22.39, 0.44 21.39, 0.26 20.4 C0.09 19.41, 0 18.39, 0 17.38 C0 16.38, 0.09 15.36, 0.26 14.37 C0.44 13.38, 0.7 12.38, 1.05 11.44 C1.39 10.49, 1.83 9.56, 2.33 8.69 C2.83 7.82, 3.42 6.98, 4.07 6.21 C4.71 5.44, 5.44 4.71, 6.21 4.07 C6.98 3.42, 7.82 2.83, 8.69 2.33 C9.56 1.83, 10.49 1.39, 11.44 1.05 C12.38 0.7, 13.38 0.44, 14.37 0.26 C15.36 0.09, 16.38 0, 17.38 0 C18.39 0, 19.41 0.09, 20.4 0.26 C21.39 0.44, 22.39 0.7, 23.33 1.05 C24.28 1.39, 25.21 1.83, 26.08 2.33 C26.95 2.83, 27.79 3.42, 28.56 4.07 C29.33 4.71, 30.06 5.44, 30.7 6.21 C31.35 6.98, 31.94 7.82, 32.44 8.69 C32.94 9.56, 33.38 10.49, 33.72 11.44 C34.07 12.38, 34.33 13.38, 34.51 14.37 C34.68 15.36, 34.73 16.88, 34.77 17.38 C34.81 17.89, 34.81 16.88, 34.77 17.38" stroke="#e03131" stroke-width="4" fill="none"></path></g><g transform="translate(258.7897344490866 10) rotate(0 10.0107421875 20.699999999999818)"><text x="0" y="33.120703125" font-family="Helvetica, Segoe UI Emoji" font-size="36px" fill="#e03131" text-anchor="start" style="white-space: pre;" direction="ltr" dominant-baseline="alphabetic">1</text></g><g transform="translate(366.29040948275906 33.216660621154006) rotate(0 10.0107421875 20.699999999999818)"><text x="0" y="33.120703125" font-family="Helvetica, Segoe UI Emoji" font-size="36px" fill="#e03131" text-anchor="start" style="white-space: pre;" direction="ltr" dominant-baseline="alphabetic">2</text></g><g stroke-linecap="round" transform="translate(342.5997784355968 75.7648563520097) rotate(0 17.384922085237122 17.384922085237577)"><path d="M34.77 17.38 C34.77 18.39, 34.68 19.41, 34.51 20.4 C34.33 21.39, 34.07 22.39, 33.72 23.33 C33.38 24.28, 32.94 25.21, 32.44 26.08 C31.94 26.95, 31.35 27.79, 30.7 28.56 C30.06 29.33, 29.33 30.06, 28.56 30.7 C27.79 31.35, 26.95 31.94, 26.08 32.44 C25.21 32.94, 24.28 33.38, 23.33 33.72 C22.39 34.07, 21.39 34.33, 20.4 34.51 C19.41 34.68, 18.39 34.77, 17.38 34.77 C16.38 34.77, 15.36 34.68, 14.37 34.51 C13.38 34.33, 12.38 34.07, 11.44 33.72 C10.49 33.38, 9.56 32.94, 8.69 32.44 C7.82 31.94, 6.98 31.35, 6.21 30.7 C5.44 30.06, 4.71 29.33, 4.07 28.56 C3.42 27.79, 2.83 26.95, 2.33 26.08 C1.83 25.21, 1.39 24.28, 1.05 23.33 C0.7 22.39, 0.44 21.39, 0.26 20.4 C0.09 19.41, 0 18.39, 0 17.38 C0 16.38, 0.09 15.36, 0.26 14.37 C0.44 13.38, 0.7 12.38, 1.05 11.44 C1.39 10.49, 1.83 9.56, 2.33 8.69 C2.83 7.82, 3.42 6.98, 4.07 6.21 C4.71 5.44, 5.44 4.71, 6.21 4.07 C6.98 3.42, 7.82 2.83, 8.69 2.33 C9.56 1.83, 10.49 1.39, 11.44 1.05 C12.38 0.7, 13.38 0.44, 14.37 0.26 C15.36 0.09, 16.38 0, 17.38 0 C18.39 0, 19.41 0.09, 20.4 0.26 C21.39 0.44, 22.39 0.7, 23.33 1.05 C24.28 1.39, 25.21 1.83, 26.08 2.33 C26.95 2.83, 27.79 3.42, 28.56 4.07 C29.33 4.71, 30.06 5.44, 30.7 6.21 C31.35 6.98, 31.94 7.82, 32.44 8.69 C32.94 9.56, 33.38 10.49, 33.72 11.44 C34.07 12.38, 34.33 13.38, 34.51 14.37 C34.68 15.36, 34.73 16.88, 34.77 17.38 C34.81 17.89, 34.81 16.88, 34.77 17.38" stroke="#e03131" stroke-width="4" fill="none"></path></g><g stroke-linecap="round" transform="translate(412.37348533214936 137.74402301867667) rotate(0 17.384922085237122 17.384922085237577)"><path d="M34.77 17.38 C34.77 18.39, 34.68 19.41, 34.51 20.4 C34.33 21.39, 34.07 22.39, 33.72 23.33 C33.38 24.28, 32.94 25.21, 32.44 26.08 C31.94 26.95, 31.35 27.79, 30.7 28.56 C30.06 29.33, 29.33 30.06, 28.56 30.7 C27.79 31.35, 26.95 31.94, 26.08 32.44 C25.21 32.94, 24.28 33.38, 23.33 33.72 C22.39 34.07, 21.39 34.33, 20.4 34.51 C19.41 34.68, 18.39 34.77, 17.38 34.77 C16.38 34.77, 15.36 34.68, 14.37 34.51 C13.38 34.33, 12.38 34.07, 11.44 33.72 C10.49 33.38, 9.56 32.94, 8.69 32.44 C7.82 31.94, 6.98 31.35, 6.21 30.7 C5.44 30.06, 4.71 29.33, 4.07 28.56 C3.42 27.79, 2.83 26.95, 2.33 26.08 C1.83 25.21, 1.39 24.28, 1.05 23.33 C0.7 22.39, 0.44 21.39, 0.26 20.4 C0.09 19.41, 0 18.39, 0 17.38 C0 16.38, 0.09 15.36, 0.26 14.37 C0.44 13.38, 0.7 12.38, 1.05 11.44 C1.39 10.49, 1.83 9.56, 2.33 8.69 C2.83 7.82, 3.42 6.98, 4.07 6.21 C4.71 5.44, 5.44 4.71, 6.21 4.07 C6.98 3.42, 7.82 2.83, 8.69 2.33 C9.56 1.83, 10.49 1.39, 11.44 1.05 C12.38 0.7, 13.38 0.44, 14.37 0.26 C15.36 0.09, 16.38 0, 17.38 0 C18.39 0, 19.41 0.09, 20.4 0.26 C21.39 0.44, 22.39 0.7, 23.33 1.05 C24.28 1.39, 25.21 1.83, 26.08 2.33 C26.95 2.83, 27.79 3.42, 28.56 4.07 C29.33 4.71, 30.06 5.44, 30.7 6.21 C31.35 6.98, 31.94 7.82, 32.44 8.69 C32.94 9.56, 33.38 10.49, 33.72 11.44 C34.07 12.38, 34.33 13.38, 34.51 14.37 C34.68 15.36, 34.73 16.88, 34.77 17.38 C34.81 17.89, 34.81 16.88, 34.77 17.38" stroke="#e03131" stroke-width="4" fill="none"></path></g><g stroke-linecap="round" transform="translate(434.40114337812884 203.0816666968367) rotate(0 17.384922085237122 17.384922085237577)"><path d="M34.77 17.38 C34.77 18.39, 34.68 19.41, 34.51 20.4 C34.33 21.39, 34.07 22.39, 33.72 23.33 C33.38 24.28, 32.94 25.21, 32.44 26.08 C31.94 26.95, 31.35 27.79, 30.7 28.56 C30.06 29.33, 29.33 30.06, 28.56 30.7 C27.79 31.35, 26.95 31.94, 26.08 32.44 C25.21 32.94, 24.28 33.38, 23.33 33.72 C22.39 34.07, 21.39 34.33, 20.4 34.51 C19.41 34.68, 18.39 34.77, 17.38 34.77 C16.38 34.77, 15.36 34.68, 14.37 34.51 C13.38 34.33, 12.38 34.07, 11.44 33.72 C10.49 33.38, 9.56 32.94, 8.69 32.44 C7.82 31.94, 6.98 31.35, 6.21 30.7 C5.44 30.06, 4.71 29.33, 4.07 28.56 C3.42 27.79, 2.83 26.95, 2.33 26.08 C1.83 25.21, 1.39 24.28, 1.05 23.33 C0.7 22.39, 0.44 21.39, 0.26 20.4 C0.09 19.41, 0 18.39, 0 17.38 C0 16.38, 0.09 15.36, 0.26 14.37 C0.44 13.38, 0.7 12.38, 1.05 11.44 C1.39 10.49, 1.83 9.56, 2.33 8.69 C2.83 7.82, 3.42 6.98, 4.07 6.21 C4.71 5.44, 5.44 4.71, 6.21 4.07 C6.98 3.42, 7.82 2.83, 8.69 2.33 C9.56 1.83, 10.49 1.39, 11.44 1.05 C12.38 0.7, 13.38 0.44, 14.37 0.26 C15.36 0.09, 16.38 0, 17.38 0 C18.39 0, 19.41 0.09, 20.4 0.26 C21.39 0.44, 22.39 0.7, 23.33 1.05 C24.28 1.39, 25.21 1.83, 26.08 2.33 C26.95 2.83, 27.79 3.42, 28.56 4.07 C29.33 4.71, 30.06 5.44, 30.7 6.21 C31.35 6.98, 31.94 7.82, 32.44 8.69 C32.94 9.56, 33.38 10.49, 33.72 11.44 C34.07 12.38, 34.33 13.38, 34.51 14.37 C34.68 15.36, 34.73 16.88, 34.77 17.38 C34.81 17.89, 34.81 16.88, 34.77 17.38" stroke="#e03131" stroke-width="4" fill="none"></path></g><g stroke-linecap="round" transform="translate(447.0178818838758 296.1940948577567) rotate(0 17.384922085237122 17.384922085237577)"><path d="M34.77 17.38 C34.77 18.39, 34.68 19.41, 34.51 20.4 C34.33 21.39, 34.07 22.39, 33.72 23.33 C33.38 24.28, 32.94 25.21, 32.44 26.08 C31.94 26.95, 31.35 27.79, 30.7 28.56 C30.06 29.33, 29.33 30.06, 28.56 30.7 C27.79 31.35, 26.95 31.94, 26.08 32.44 C25.21 32.94, 24.28 33.38, 23.33 33.72 C22.39 34.07, 21.39 34.33, 20.4 34.51 C19.41 34.68, 18.39 34.77, 17.38 34.77 C16.38 34.77, 15.36 34.68, 14.37 34.51 C13.38 34.33, 12.38 34.07, 11.44 33.72 C10.49 33.38, 9.56 32.94, 8.69 32.44 C7.82 31.94, 6.98 31.35, 6.21 30.7 C5.44 30.06, 4.71 29.33, 4.07 28.56 C3.42 27.79, 2.83 26.95, 2.33 26.08 C1.83 25.21, 1.39 24.28, 1.05 23.33 C0.7 22.39, 0.44 21.39, 0.26 20.4 C0.09 19.41, 0 18.39, 0 17.38 C0 16.38, 0.09 15.36, 0.26 14.37 C0.44 13.38, 0.7 12.38, 1.05 11.44 C1.39 10.49, 1.83 9.56, 2.33 8.69 C2.83 7.82, 3.42 6.98, 4.07 6.21 C4.71 5.44, 5.44 4.71, 6.21 4.07 C6.98 3.42, 7.82 2.83, 8.69 2.33 C9.56 1.83, 10.49 1.39, 11.44 1.05 C12.38 0.7, 13.38 0.44, 14.37 0.26 C15.36 0.09, 16.38 0, 17.38 0 C18.39 0, 19.41 0.09, 20.4 0.26 C21.39 0.44, 22.39 0.7, 23.33 1.05 C24.28 1.39, 25.21 1.83, 26.08 2.33 C26.95 2.83, 27.79 3.42, 28.56 4.07 C29.33 4.71, 30.06 5.44, 30.7 6.21 C31.35 6.98, 31.94 7.82, 32.44 8.69 C32.94 9.56, 33.38 10.49, 33.72 11.44 C34.07 12.38, 34.33 13.38, 34.51 14.37 C34.68 15.36, 34.73 16.88, 34.77 17.38 C34.81 17.89, 34.81 16.88, 34.77 17.38" stroke="#e03131" stroke-width="4" fill="none"></path></g><g stroke-linecap="round" transform="translate(379.59690487238004 383.7210345129288) rotate(0 17.384922085237122 17.384922085237577)"><path d="M34.77 17.38 C34.77 18.39, 34.68 19.41, 34.51 20.4 C34.33 21.39, 34.07 22.39, 33.72 23.33 C33.38 24.28, 32.94 25.21, 32.44 26.08 C31.94 26.95, 31.35 27.79, 30.7 28.56 C30.06 29.33, 29.33 30.06, 28.56 30.7 C27.79 31.35, 26.95 31.94, 26.08 32.44 C25.21 32.94, 24.28 33.38, 23.33 33.72 C22.39 34.07, 21.39 34.33, 20.4 34.51 C19.41 34.68, 18.39 34.77, 17.38 34.77 C16.38 34.77, 15.36 34.68, 14.37 34.51 C13.38 34.33, 12.38 34.07, 11.44 33.72 C10.49 33.38, 9.56 32.94, 8.69 32.44 C7.82 31.94, 6.98 31.35, 6.21 30.7 C5.44 30.06, 4.71 29.33, 4.07 28.56 C3.42 27.79, 2.83 26.95, 2.33 26.08 C1.83 25.21, 1.39 24.28, 1.05 23.33 C0.7 22.39, 0.44 21.39, 0.26 20.4 C0.09 19.41, 0 18.39, 0 17.38 C0 16.38, 0.09 15.36, 0.26 14.37 C0.44 13.38, 0.7 12.38, 1.05 11.44 C1.39 10.49, 1.83 9.56, 2.33 8.69 C2.83 7.82, 3.42 6.98, 4.07 6.21 C4.71 5.44, 5.44 4.71, 6.21 4.07 C6.98 3.42, 7.82 2.83, 8.69 2.33 C9.56 1.83, 10.49 1.39, 11.44 1.05 C12.38 0.7, 13.38 0.44, 14.37 0.26 C15.36 0.09, 16.38 0, 17.38 0 C18.39 0, 19.41 0.09, 20.4 0.26 C21.39 0.44, 22.39 0.7, 23.33 1.05 C24.28 1.39, 25.21 1.83, 26.08 2.33 C26.95 2.83, 27.79 3.42, 28.56 4.07 C29.33 4.71, 30.06 5.44, 30.7 6.21 C31.35 6.98, 31.94 7.82, 32.44 8.69 C32.94 9.56, 33.38 10.49, 33.72 11.44 C34.07 12.38, 34.33 13.38, 34.51 14.37 C34.68 15.36, 34.73 16.88, 34.77 17.38 C34.81 17.89, 34.81 16.88, 34.77 17.38" stroke="#e03131" stroke-width="4" fill="none"></path></g><g stroke-linecap="round" transform="translate(256.75207728617534 423.0843606623548) rotate(0 17.384922085237122 17.384922085237577)"><path d="M34.77 17.38 C34.77 18.39, 34.68 19.41, 34.51 20.4 C34.33 21.39, 34.07 22.39, 33.72 23.33 C33.38 24.28, 32.94 25.21, 32.44 26.08 C31.94 26.95, 31.35 27.79, 30.7 28.56 C30.06 29.33, 29.33 30.06, 28.56 30.7 C27.79 31.35, 26.95 31.94, 26.08 32.44 C25.21 32.94, 24.28 33.38, 23.33 33.72 C22.39 34.07, 21.39 34.33, 20.4 34.51 C19.41 34.68, 18.39 34.77, 17.38 34.77 C16.38 34.77, 15.36 34.68, 14.37 34.51 C13.38 34.33, 12.38 34.07, 11.44 33.72 C10.49 33.38, 9.56 32.94, 8.69 32.44 C7.82 31.94, 6.98 31.35, 6.21 30.7 C5.44 30.06, 4.71 29.33, 4.07 28.56 C3.42 27.79, 2.83 26.95, 2.33 26.08 C1.83 25.21, 1.39 24.28, 1.05 23.33 C0.7 22.39, 0.44 21.39, 0.26 20.4 C0.09 19.41, 0 18.39, 0 17.38 C0 16.38, 0.09 15.36, 0.26 14.37 C0.44 13.38, 0.7 12.38, 1.05 11.44 C1.39 10.49, 1.83 9.56, 2.33 8.69 C2.83 7.82, 3.42 6.98, 4.07 6.21 C4.71 5.44, 5.44 4.71, 6.21 4.07 C6.98 3.42, 7.82 2.83, 8.69 2.33 C9.56 1.83, 10.49 1.39, 11.44 1.05 C12.38 0.7, 13.38 0.44, 14.37 0.26 C15.36 0.09, 16.38 0, 17.38 0 C18.39 0, 19.41 0.09, 20.4 0.26 C21.39 0.44, 22.39 0.7, 23.33 1.05 C24.28 1.39, 25.21 1.83, 26.08 2.33 C26.95 2.83, 27.79 3.42, 28.56 4.07 C29.33 4.71, 30.06 5.44, 30.7 6.21 C31.35 6.98, 31.94 7.82, 32.44 8.69 C32.94 9.56, 33.38 10.49, 33.72 11.44 C34.07 12.38, 34.33 13.38, 34.51 14.37 C34.68 15.36, 34.73 16.88, 34.77 17.38 C34.81 17.89, 34.81 16.88, 34.77 17.38" stroke="#e03131" stroke-width="4" fill="none"></path></g><g stroke-linecap="round" transform="translate(134.45053274594284 385.21169543246924) rotate(0 17.384922085237122 17.384922085237577)"><path d="M34.77 17.38 C34.77 18.39, 34.68 19.41, 34.51 20.4 C34.33 21.39, 34.07 22.39, 33.72 23.33 C33.38 24.28, 32.94 25.21, 32.44 26.08 C31.94 26.95, 31.35 27.79, 30.7 28.56 C30.06 29.33, 29.33 30.06, 28.56 30.7 C27.79 31.35, 26.95 31.94, 26.08 32.44 C25.21 32.94, 24.28 33.38, 23.33 33.72 C22.39 34.07, 21.39 34.33, 20.4 34.51 C19.41 34.68, 18.39 34.77, 17.38 34.77 C16.38 34.77, 15.36 34.68, 14.37 34.51 C13.38 34.33, 12.38 34.07, 11.44 33.72 C10.49 33.38, 9.56 32.94, 8.69 32.44 C7.82 31.94, 6.98 31.35, 6.21 30.7 C5.44 30.06, 4.71 29.33, 4.07 28.56 C3.42 27.79, 2.83 26.95, 2.33 26.08 C1.83 25.21, 1.39 24.28, 1.05 23.33 C0.7 22.39, 0.44 21.39, 0.26 20.4 C0.09 19.41, 0 18.39, 0 17.38 C0 16.38, 0.09 15.36, 0.26 14.37 C0.44 13.38, 0.7 12.38, 1.05 11.44 C1.39 10.49, 1.83 9.56, 2.33 8.69 C2.83 7.82, 3.42 6.98, 4.07 6.21 C4.71 5.44, 5.44 4.71, 6.21 4.07 C6.98 3.42, 7.82 2.83, 8.69 2.33 C9.56 1.83, 10.49 1.39, 11.44 1.05 C12.38 0.7, 13.38 0.44, 14.37 0.26 C15.36 0.09, 16.38 0, 17.38 0 C18.39 0, 19.41 0.09, 20.4 0.26 C21.39 0.44, 22.39 0.7, 23.33 1.05 C24.28 1.39, 25.21 1.83, 26.08 2.33 C26.95 2.83, 27.79 3.42, 28.56 4.07 C29.33 4.71, 30.06 5.44, 30.7 6.21 C31.35 6.98, 31.94 7.82, 32.44 8.69 C32.94 9.56, 33.38 10.49, 33.72 11.44 C34.07 12.38, 34.33 13.38, 34.51 14.37 C34.68 15.36, 34.73 16.88, 34.77 17.38 C34.81 17.89, 34.81 16.88, 34.77 17.38" stroke="#e03131" stroke-width="4" fill="none"></path></g><g stroke-linecap="round" transform="translate(78.82912469996882 316.56496411062926) rotate(0 17.384922085237122 17.384922085237577)"><path d="M34.77 17.38 C34.77 18.39, 34.68 19.41, 34.51 20.4 C34.33 21.39, 34.07 22.39, 33.72 23.33 C33.38 24.28, 32.94 25.21, 32.44 26.08 C31.94 26.95, 31.35 27.79, 30.7 28.56 C30.06 29.33, 29.33 30.06, 28.56 30.7 C27.79 31.35, 26.95 31.94, 26.08 32.44 C25.21 32.94, 24.28 33.38, 23.33 33.72 C22.39 34.07, 21.39 34.33, 20.4 34.51 C19.41 34.68, 18.39 34.77, 17.38 34.77 C16.38 34.77, 15.36 34.68, 14.37 34.51 C13.38 34.33, 12.38 34.07, 11.44 33.72 C10.49 33.38, 9.56 32.94, 8.69 32.44 C7.82 31.94, 6.98 31.35, 6.21 30.7 C5.44 30.06, 4.71 29.33, 4.07 28.56 C3.42 27.79, 2.83 26.95, 2.33 26.08 C1.83 25.21, 1.39 24.28, 1.05 23.33 C0.7 22.39, 0.44 21.39, 0.26 20.4 C0.09 19.41, 0 18.39, 0 17.38 C0 16.38, 0.09 15.36, 0.26 14.37 C0.44 13.38, 0.7 12.38, 1.05 11.44 C1.39 10.49, 1.83 9.56, 2.33 8.69 C2.83 7.82, 3.42 6.98, 4.07 6.21 C4.71 5.44, 5.44 4.71, 6.21 4.07 C6.98 3.42, 7.82 2.83, 8.69 2.33 C9.56 1.83, 10.49 1.39, 11.44 1.05 C12.38 0.7, 13.38 0.44, 14.37 0.26 C15.36 0.09, 16.38 0, 17.38 0 C18.39 0, 19.41 0.09, 20.4 0.26 C21.39 0.44, 22.39 0.7, 23.33 1.05 C24.28 1.39, 25.21 1.83, 26.08 2.33 C26.95 2.83, 27.79 3.42, 28.56 4.07 C29.33 4.71, 30.06 5.44, 30.7 6.21 C31.35 6.98, 31.94 7.82, 32.44 8.69 C32.94 9.56, 33.38 10.49, 33.72 11.44 C34.07 12.38, 34.33 13.38, 34.51 14.37 C34.68 15.36, 34.73 16.88, 34.77 17.38 C34.81 17.89, 34.81 16.88, 34.77 17.38" stroke="#e03131" stroke-width="4" fill="none"></path></g><g stroke-linecap="round" transform="translate(56.15042498732328 201.38895836350275) rotate(0 17.384922085237122 17.384922085237577)"><path d="M34.77 17.38 C34.77 18.39, 34.68 19.41, 34.51 20.4 C34.33 21.39, 34.07 22.39, 33.72 23.33 C33.38 24.28, 32.94 25.21, 32.44 26.08 C31.94 26.95, 31.35 27.79, 30.7 28.56 C30.06 29.33, 29.33 30.06, 28.56 30.7 C27.79 31.35, 26.95 31.94, 26.08 32.44 C25.21 32.94, 24.28 33.38, 23.33 33.72 C22.39 34.07, 21.39 34.33, 20.4 34.51 C19.41 34.68, 18.39 34.77, 17.38 34.77 C16.38 34.77, 15.36 34.68, 14.37 34.51 C13.38 34.33, 12.38 34.07, 11.44 33.72 C10.49 33.38, 9.56 32.94, 8.69 32.44 C7.82 31.94, 6.98 31.35, 6.21 30.7 C5.44 30.06, 4.71 29.33, 4.07 28.56 C3.42 27.79, 2.83 26.95, 2.33 26.08 C1.83 25.21, 1.39 24.28, 1.05 23.33 C0.7 22.39, 0.44 21.39, 0.26 20.4 C0.09 19.41, 0 18.39, 0 17.38 C0 16.38, 0.09 15.36, 0.26 14.37 C0.44 13.38, 0.7 12.38, 1.05 11.44 C1.39 10.49, 1.83 9.56, 2.33 8.69 C2.83 7.82, 3.42 6.98, 4.07 6.21 C4.71 5.44, 5.44 4.71, 6.21 4.07 C6.98 3.42, 7.82 2.83, 8.69 2.33 C9.56 1.83, 10.49 1.39, 11.44 1.05 C12.38 0.7, 13.38 0.44, 14.37 0.26 C15.36 0.09, 16.38 0, 17.38 0 C18.39 0, 19.41 0.09, 20.4 0.26 C21.39 0.44, 22.39 0.7, 23.33 1.05 C24.28 1.39, 25.21 1.83, 26.08 2.33 C26.95 2.83, 27.79 3.42, 28.56 4.07 C29.33 4.71, 30.06 5.44, 30.7 6.21 C31.35 6.98, 31.94 7.82, 32.44 8.69 C32.94 9.56, 33.38 10.49, 33.72 11.44 C34.07 12.38, 34.33 13.38, 34.51 14.37 C34.68 15.36, 34.73 16.88, 34.77 17.38 C34.81 17.89, 34.81 16.88, 34.77 17.38" stroke="#e03131" stroke-width="4" fill="none"></path></g><g stroke-linecap="round" transform="translate(99.11917498732328 139.0461063520097) rotate(0 17.384922085237122 17.384922085237577)"><path d="M34.77 17.38 C34.77 18.39, 34.68 19.41, 34.51 20.4 C34.33 21.39, 34.07 22.39, 33.72 23.33 C33.38 24.28, 32.94 25.21, 32.44 26.08 C31.94 26.95, 31.35 27.79, 30.7 28.56 C30.06 29.33, 29.33 30.06, 28.56 30.7 C27.79 31.35, 26.95 31.94, 26.08 32.44 C25.21 32.94, 24.28 33.38, 23.33 33.72 C22.39 34.07, 21.39 34.33, 20.4 34.51 C19.41 34.68, 18.39 34.77, 17.38 34.77 C16.38 34.77, 15.36 34.68, 14.37 34.51 C13.38 34.33, 12.38 34.07, 11.44 33.72 C10.49 33.38, 9.56 32.94, 8.69 32.44 C7.82 31.94, 6.98 31.35, 6.21 30.7 C5.44 30.06, 4.71 29.33, 4.07 28.56 C3.42 27.79, 2.83 26.95, 2.33 26.08 C1.83 25.21, 1.39 24.28, 1.05 23.33 C0.7 22.39, 0.44 21.39, 0.26 20.4 C0.09 19.41, 0 18.39, 0 17.38 C0 16.38, 0.09 15.36, 0.26 14.37 C0.44 13.38, 0.7 12.38, 1.05 11.44 C1.39 10.49, 1.83 9.56, 2.33 8.69 C2.83 7.82, 3.42 6.98, 4.07 6.21 C4.71 5.44, 5.44 4.71, 6.21 4.07 C6.98 3.42, 7.82 2.83, 8.69 2.33 C9.56 1.83, 10.49 1.39, 11.44 1.05 C12.38 0.7, 13.38 0.44, 14.37 0.26 C15.36 0.09, 16.38 0, 17.38 0 C18.39 0, 19.41 0.09, 20.4 0.26 C21.39 0.44, 22.39 0.7, 23.33 1.05 C24.28 1.39, 25.21 1.83, 26.08 2.33 C26.95 2.83, 27.79 3.42, 28.56 4.07 C29.33 4.71, 30.06 5.44, 30.7 6.21 C31.35 6.98, 31.94 7.82, 32.44 8.69 C32.94 9.56, 33.38 10.49, 33.72 11.44 C34.07 12.38, 34.33 13.38, 34.51 14.37 C34.68 15.36, 34.73 16.88, 34.77 17.38 C34.81 17.89, 34.81 16.88, 34.77 17.38" stroke="#e03131" stroke-width="4" fill="none"></path></g><g stroke-linecap="round" transform="translate(160.81996521720794 80.03928163936416) rotate(0 17.384922085237122 17.384922085237577)"><path d="M34.77 17.38 C34.77 18.39, 34.68 19.41, 34.51 20.4 C34.33 21.39, 34.07 22.39, 33.72 23.33 C33.38 24.28, 32.94 25.21, 32.44 26.08 C31.94 26.95, 31.35 27.79, 30.7 28.56 C30.06 29.33, 29.33 30.06, 28.56 30.7 C27.79 31.35, 26.95 31.94, 26.08 32.44 C25.21 32.94, 24.28 33.38, 23.33 33.72 C22.39 34.07, 21.39 34.33, 20.4 34.51 C19.41 34.68, 18.39 34.77, 17.38 34.77 C16.38 34.77, 15.36 34.68, 14.37 34.51 C13.38 34.33, 12.38 34.07, 11.44 33.72 C10.49 33.38, 9.56 32.94, 8.69 32.44 C7.82 31.94, 6.98 31.35, 6.21 30.7 C5.44 30.06, 4.71 29.33, 4.07 28.56 C3.42 27.79, 2.83 26.95, 2.33 26.08 C1.83 25.21, 1.39 24.28, 1.05 23.33 C0.7 22.39, 0.44 21.39, 0.26 20.4 C0.09 19.41, 0 18.39, 0 17.38 C0 16.38, 0.09 15.36, 0.26 14.37 C0.44 13.38, 0.7 12.38, 1.05 11.44 C1.39 10.49, 1.83 9.56, 2.33 8.69 C2.83 7.82, 3.42 6.98, 4.07 6.21 C4.71 5.44, 5.44 4.71, 6.21 4.07 C6.98 3.42, 7.82 2.83, 8.69 2.33 C9.56 1.83, 10.49 1.39, 11.44 1.05 C12.38 0.7, 13.38 0.44, 14.37 0.26 C15.36 0.09, 16.38 0, 17.38 0 C18.39 0, 19.41 0.09, 20.4 0.26 C21.39 0.44, 22.39 0.7, 23.33 1.05 C24.28 1.39, 25.21 1.83, 26.08 2.33 C26.95 2.83, 27.79 3.42, 28.56 4.07 C29.33 4.71, 30.06 5.44, 30.7 6.21 C31.35 6.98, 31.94 7.82, 32.44 8.69 C32.94 9.56, 33.38 10.49, 33.72 11.44 C34.07 12.38, 34.33 13.38, 34.51 14.37 C34.68 15.36, 34.73 16.88, 34.77 17.38 C34.81 17.89, 34.81 16.88, 34.77 17.38" stroke="#e03131" stroke-width="4" fill="none"></path></g><g transform="translate(455.2900502873599 108.62973533379773) rotate(0 10.0107421875 20.699999999999818)"><text x="0" y="33.120703125" font-family="Helvetica, Segoe UI Emoji" font-size="36px" fill="#e03131" text-anchor="start" style="white-space: pre;" direction="ltr" dominant-baseline="alphabetic">3</text></g><g transform="translate(477.21892959770594 191.96306866713076) rotate(0 10.0107421875 20.699999999999818)"><text x="0" y="33.120703125" font-family="Helvetica, Segoe UI Emoji" font-size="36px" fill="#e03131" text-anchor="start" style="white-space: pre;" direction="ltr" dominant-baseline="alphabetic">4</text></g><g transform="translate(489.3821839080483 299.9012870579354) rotate(0 10.0107421875 20.699999999999818)"><text x="0" y="33.120703125" font-family="Helvetica, Segoe UI Emoji" font-size="36px" fill="#e03131" text-anchor="start" style="white-space: pre;" direction="ltr" dominant-baseline="alphabetic">5</text></g><g transform="translate(420.5334051724167 407.3860212533373) rotate(0 10.0107421875 20.699999999999818)"><text x="0" y="33.120703125" font-family="Helvetica, Segoe UI Emoji" font-size="36px" fill="#e03131" text-anchor="start" style="white-space: pre;" direction="ltr" dominant-baseline="alphabetic">6</text></g><g transform="translate(266.474497126439 460.15631579356887) rotate(0 10.0107421875 20.699999999999818)"><text x="0" y="33.120703125" font-family="Helvetica, Segoe UI Emoji" font-size="36px" fill="#e03131" text-anchor="start" style="white-space: pre;" direction="ltr" dominant-baseline="alphabetic">7</text></g><g transform="translate(115.1454741379348 415.83609309242) rotate(0 10.0107421875 20.699999999999818)"><text x="0" y="33.120703125" font-family="Helvetica, Segoe UI Emoji" font-size="36px" fill="#e03131" text-anchor="start" style="white-space: pre;" direction="ltr" dominant-baseline="alphabetic">8</text></g><g transform="translate(52.85650143678322 339.6327884947186) rotate(0 10.0107421875 20.699999999999818)"><text x="0" y="33.120703125" font-family="Helvetica, Segoe UI Emoji" font-size="36px" fill="#e03131" text-anchor="start" style="white-space: pre;" direction="ltr" dominant-baseline="alphabetic">9</text></g><g transform="translate(10 190.38709883954562) rotate(0 18 20.699999999999818)"><text x="0" y="33.120703125" font-family="Helvetica, Segoe UI Emoji" font-size="36px" fill="#e03131" text-anchor="start" style="white-space: pre;" direction="ltr" dominant-baseline="alphabetic"></text></g><g transform="translate(58.821985003593 98.58573389701633) rotate(0 18 20.699999999999818)"><text x="0" y="33.120703125" font-family="Helvetica, Segoe UI Emoji" font-size="36px" fill="#e03131" text-anchor="start" style="white-space: pre;" direction="ltr" dominant-baseline="alphabetic"></text></g><g transform="translate(130.17166172772886 30.774131885521456) rotate(0 18 20.699999999999818)"><text x="0" y="33.120703125" font-family="Helvetica, Segoe UI Emoji" font-size="36px" fill="#e03131" text-anchor="start" style="white-space: pre;" direction="ltr" dominant-baseline="alphabetic"></text></g></svg>