<svg xmlns="http://www.w3.org/2000/svg" width="521.491" height="549.612"><defs><style>@font-face{font-family:&quot;Virgil&quot;;src:url(https://excalidraw.com/Virgil.woff2)}@font-face{font-family:&quot;Cascadia&quot;;src:url(https://excalidraw.com/Cascadia.woff2)}@font-face{font-family:&quot;Assistant&quot;;src:url(https://excalidraw.com/Assistant-Regular.woff2)}</style></defs><g stroke-linecap="round"><path fill="#ffc9c9" stroke-width="0" d="M334.533 292.942c0 2.63-.14 5.28-.44 7.89a71 71 0 0 1-1.32 7.79c-.59 2.56-1.32 5.11-2.19 7.59s-1.88 4.93-3.02 7.3a72 72 0 0 1-3.82 6.91 70.089 70.089 0 0 1-9.84 12.33 70 70 0 0 1-12.33 9.84c-2.23 1.4-4.55 2.68-6.91 3.82a71 71 0 0 1-7.3 3.02c-2.48.87-5.03 1.6-7.59 2.19a71 71 0 0 1-7.79 1.32c-2.61.3-5.26.44-7.89.44s-5.27-.14-7.88-.44c-2.62-.29-5.23-.74-7.79-1.32a70.8 70.8 0 0 1-21.81-9.03c-2.22-1.4-4.38-2.93-6.44-4.57a72 72 0 0 1-5.89-5.27 70 70 0 0 1-5.26-5.89 69 69 0 0 1-4.57-6.44c-1.4-2.23-2.68-4.55-3.82-6.91a72 72 0 0 1-3.03-7.3c-.87-2.48-1.6-5.03-2.18-7.59-.59-2.57-1.03-5.18-1.33-7.79-.29-2.61-.44-5.26-.44-7.89s.15-5.27.44-7.88c.3-2.62.74-5.23 1.33-7.79a69 69 0 0 1 2.18-7.59 72 72 0 0 1 3.03-7.3c1.14-2.37 2.42-4.69 3.82-6.92 1.4-2.22 2.93-4.38 4.57-6.44 1.64-2.05 3.4-4.03 5.26-5.89s3.84-3.62 5.89-5.26c2.06-1.64 4.22-3.17 6.44-4.57 2.23-1.4 4.55-2.68 6.92-3.82a72 72 0 0 1 7.3-3.03c2.48-.87 5.02-1.6 7.59-2.18 2.56-.59 5.17-1.03 7.79-1.33 2.61-.29 5.25-.44 7.88-.44s5.28.15 7.89.44c2.61.3 5.22.74 7.79 1.33 2.56.58 5.11 1.31 7.59 2.18s4.93 1.89 7.3 3.03c2.36 1.14 4.68 2.42 6.91 3.82s4.39 2.93 6.44 4.57c2.06 1.64 4.03 3.4 5.89 5.26s3.63 3.84 5.27 5.89c1.64 2.06 3.17 4.22 4.57 6.44a70.6 70.6 0 0 1 6.84 14.22c.87 2.48 1.6 5.02 2.19 7.59.58 2.56 1.03 5.17 1.32 7.79.3 2.61.37 6.57.44 7.88.08 1.32.08-1.31 0 0"/><path fill="none" stroke="transparent" stroke-width="4" d="M334.533 292.942c0 2.63-.14 5.28-.44 7.89a71 71 0 0 1-1.32 7.79c-.59 2.56-1.32 5.11-2.19 7.59s-1.88 4.93-3.02 7.3a72 72 0 0 1-3.82 6.91 70.089 70.089 0 0 1-9.84 12.33 70 70 0 0 1-12.33 9.84c-2.23 1.4-4.55 2.68-6.91 3.82a71 71 0 0 1-7.3 3.02c-2.48.87-5.03 1.6-7.59 2.19a71 71 0 0 1-7.79 1.32c-2.61.3-5.26.44-7.89.44s-5.27-.14-7.88-.44c-2.62-.29-5.23-.74-7.79-1.32a70.8 70.8 0 0 1-21.81-9.03c-2.22-1.4-4.38-2.93-6.44-4.57a72 72 0 0 1-5.89-5.27 70 70 0 0 1-5.26-5.89 69 69 0 0 1-4.57-6.44c-1.4-2.23-2.68-4.55-3.82-6.91a72 72 0 0 1-3.03-7.3c-.87-2.48-1.6-5.03-2.18-7.59-.59-2.57-1.03-5.18-1.33-7.79-.29-2.61-.44-5.26-.44-7.89s.15-5.27.44-7.88c.3-2.62.74-5.23 1.33-7.79a69 69 0 0 1 2.18-7.59 72 72 0 0 1 3.03-7.3c1.14-2.37 2.42-4.69 3.82-6.92 1.4-2.22 2.93-4.38 4.57-6.44 1.64-2.05 3.4-4.03 5.26-5.89s3.84-3.62 5.89-5.26c2.06-1.64 4.22-3.17 6.44-4.57 2.23-1.4 4.55-2.68 6.92-3.82a72 72 0 0 1 7.3-3.03c2.48-.87 5.02-1.6 7.59-2.18 2.56-.59 5.17-1.03 7.79-1.33 2.61-.29 5.25-.44 7.88-.44s5.28.15 7.89.44c2.61.3 5.22.74 7.79 1.33 2.56.58 5.11 1.31 7.59 2.18s4.93 1.89 7.3 3.03c2.36 1.14 4.68 2.42 6.91 3.82s4.39 2.93 6.44 4.57c2.06 1.64 4.03 3.4 5.89 5.26s3.63 3.84 5.27 5.89c1.64 2.06 3.17 4.22 4.57 6.44a70.6 70.6 0 0 1 6.84 14.22c.87 2.48 1.6 5.02 2.19 7.59.58 2.56 1.03 5.17 1.32 7.79.3 2.61.37 6.57.44 7.88.08 1.32.08-1.31 0 0"/></g><g stroke-linecap="round"><path fill="#ffc9c9" stroke-width="0" d="M291.05 295.135c0 5.76-.02 11.53-.07 17.27s-.13 11.49-.23 17.18-.22 11.37-.37 16.99c-.15 5.61-.33 11.19-.53 16.69-.19 5.51-.42 10.96-.66 16.32a1498.47 1498.47 0 0 1-1.75 31.13c-.34 4.98-.7 9.88-1.08 14.63-.38 4.76-.78 9.41-1.2 13.91s-.86 8.88-1.31 13.11c-.46 4.22-.94 8.3-1.43 12.22s-1.01 7.68-1.53 11.27c-.53 3.59-1.07 7.03-1.63 10.27-.55 3.24-1.12 6.32-1.71 9.2-.58 2.88-1.18 5.58-1.78 8.07-.61 2.5-1.23 4.81-1.85 6.92-.63 2.1-1.27 4.01-1.91 5.71-.64 1.69-1.29 3.19-1.95 4.47-.65 1.28-1.32 2.36-1.98 3.21-.67.86-1.34 1.51-2.01 1.94s-1.35.65-2.02.65-1.34-.22-2.02-.65c-.67-.43-1.34-1.08-2-1.94-.67-.85-1.33-1.93-1.99-3.21-.65-1.28-1.3-2.78-1.95-4.47-.64-1.7-1.28-3.61-1.9-5.71-.63-2.11-1.25-4.42-1.85-6.92-.61-2.49-1.21-5.19-1.79-8.07s-1.15-5.96-1.71-9.2c-.55-3.24-1.1-6.68-1.62-10.27-.53-3.59-1.04-7.35-1.53-11.27-.5-3.92-.97-8-1.43-12.22-.46-4.23-.9-8.61-1.32-13.11s-.82-9.15-1.2-13.91c-.38-4.75-.74-9.65-1.07-14.63-.34-4.99-.65-10.1-.95-15.29-.29-5.18-.56-10.48-.8-15.84-.25-5.36-.47-10.81-.67-16.32-.2-5.5-.37-11.08-.52-16.69-.15-5.62-.28-11.3-.38-16.99s-.17-11.44-.22-17.18-.08-11.51-.08-17.27.03-11.53.08-17.28c.05-5.74.12-11.48.22-17.17.1-5.7.23-11.38.38-16.99s.32-11.19.52-16.7c.2-5.5.42-10.95.67-16.31.24-5.36.51-10.66.8-15.85.3-5.19.61-10.29.95-15.28.33-4.99.69-9.88 1.07-14.64s.78-9.4 1.2-13.91c.42-4.5.86-8.88 1.32-13.1s.93-8.31 1.43-12.22c.49-3.92 1-7.69 1.53-11.28.52-3.59 1.07-7.02 1.62-10.26.56-3.25 1.13-6.32 1.71-9.2s1.18-5.58 1.79-8.08c.6-2.5 1.22-4.81 1.85-6.91.62-2.1 1.26-4.01 1.9-5.71q.975-2.55 1.95-4.47c.66-1.29 1.32-2.36 1.99-3.22.66-.86 1.33-1.5 2-1.93.68-.43 1.35-.65 2.02-.65s1.35.22 2.02.65 1.34 1.07 2.01 1.93c.66.86 1.33 1.93 1.98 3.22q.99 1.92 1.95 4.47c.64 1.7 1.28 3.61 1.91 5.71.62 2.1 1.24 4.41 1.85 6.91.6 2.5 1.2 5.2 1.78 8.08.59 2.88 1.16 5.95 1.71 9.2.56 3.24 1.1 6.67 1.63 10.26.52 3.59 1.04 7.36 1.53 11.28.49 3.91.97 8 1.43 12.22a1001 1001 0 0 1 2.51 27.01c.38 4.76.74 9.65 1.08 14.64.33 4.99.65 10.09.94 15.28s.56 10.49.81 15.85c.24 5.36.47 10.81.66 16.31.2 5.51.38 11.09.53 16.7s.27 11.29.37 16.99c.1 5.69.18 11.43.23 17.17.05 5.75.07 11.52.07 17.28"/><path fill="none" stroke="transparent" stroke-width="4" d="M291.05 295.135c0 5.76-.02 11.53-.07 17.27s-.13 11.49-.23 17.18-.22 11.37-.37 16.99c-.15 5.61-.33 11.19-.53 16.69-.19 5.51-.42 10.96-.66 16.32a1498.47 1498.47 0 0 1-1.75 31.13c-.34 4.98-.7 9.88-1.08 14.63-.38 4.76-.78 9.41-1.2 13.91s-.86 8.88-1.31 13.11c-.46 4.22-.94 8.3-1.43 12.22s-1.01 7.68-1.53 11.27c-.53 3.59-1.07 7.03-1.63 10.27-.55 3.24-1.12 6.32-1.71 9.2-.58 2.88-1.18 5.58-1.78 8.07-.61 2.5-1.23 4.81-1.85 6.92-.63 2.1-1.27 4.01-1.91 5.71-.64 1.69-1.29 3.19-1.95 4.47-.65 1.28-1.32 2.36-1.98 3.21-.67.86-1.34 1.51-2.01 1.94s-1.35.65-2.02.65-1.34-.22-2.02-.65c-.67-.43-1.34-1.08-2-1.94-.67-.85-1.33-1.93-1.99-3.21-.65-1.28-1.3-2.78-1.95-4.47-.64-1.7-1.28-3.61-1.9-5.71-.63-2.11-1.25-4.42-1.85-6.92-.61-2.49-1.21-5.19-1.79-8.07s-1.15-5.96-1.71-9.2c-.55-3.24-1.1-6.68-1.62-10.27-.53-3.59-1.04-7.35-1.53-11.27-.5-3.92-.97-8-1.43-12.22-.46-4.23-.9-8.61-1.32-13.11s-.82-9.15-1.2-13.91c-.38-4.75-.74-9.65-1.07-14.63-.34-4.99-.65-10.1-.95-15.29-.29-5.18-.56-10.48-.8-15.84-.25-5.36-.47-10.81-.67-16.32-.2-5.5-.37-11.08-.52-16.69-.15-5.62-.28-11.3-.38-16.99s-.17-11.44-.22-17.18-.08-11.51-.08-17.27.03-11.53.08-17.28c.05-5.74.12-11.48.22-17.17.1-5.7.23-11.38.38-16.99s.32-11.19.52-16.7c.2-5.5.42-10.95.67-16.31.24-5.36.51-10.66.8-15.85.3-5.19.61-10.29.95-15.28.33-4.99.69-9.88 1.07-14.64s.78-9.4 1.2-13.91c.42-4.5.86-8.88 1.32-13.1s.93-8.31 1.43-12.22c.49-3.92 1-7.69 1.53-11.28.52-3.59 1.07-7.02 1.62-10.26.56-3.25 1.13-6.32 1.71-9.2s1.18-5.58 1.79-8.08c.6-2.5 1.22-4.81 1.85-6.91.62-2.1 1.26-4.01 1.9-5.71q.975-2.55 1.95-4.47c.66-1.29 1.32-2.36 1.99-3.22.66-.86 1.33-1.5 2-1.93.68-.43 1.35-.65 2.02-.65s1.35.22 2.02.65 1.34 1.07 2.01 1.93c.66.86 1.33 1.93 1.98 3.22q.99 1.92 1.95 4.47c.64 1.7 1.28 3.61 1.91 5.71.62 2.1 1.24 4.41 1.85 6.91.6 2.5 1.2 5.2 1.78 8.08.59 2.88 1.16 5.95 1.71 9.2.56 3.24 1.1 6.67 1.63 10.26.52 3.59 1.04 7.36 1.53 11.28.49 3.91.97 8 1.43 12.22a1001 1001 0 0 1 2.51 27.01c.38 4.76.74 9.65 1.08 14.64.33 4.99.65 10.09.94 15.28s.56 10.49.81 15.85c.24 5.36.47 10.81.66 16.31.2 5.51.38 11.09.53 16.7s.27 11.29.37 16.99c.1 5.69.18 11.43.23 17.17.05 5.75.07 11.52.07 17.28"/></g><g stroke-linecap="round"><path fill="#ffc9c9" stroke-width="0" d="M264.093 316.524c-5.76 0-11.53-.02-17.27-.07s-11.49-.13-17.18-.23-11.37-.22-16.99-.37c-5.61-.15-11.19-.33-16.69-.53-5.51-.19-10.96-.42-16.32-.66a1498.47 1498.47 0 0 1-31.13-1.75c-4.98-.34-9.88-.7-14.63-1.08-4.76-.38-9.41-.78-13.91-1.2s-8.88-.86-13.11-1.31c-4.22-.46-8.3-.94-12.22-1.43s-7.68-1.01-11.27-1.53c-3.59-.53-7.03-1.07-10.27-1.63-3.24-.55-6.32-1.12-9.2-1.71-2.88-.58-5.58-1.18-8.07-1.78-2.5-.61-4.81-1.23-6.92-1.85-2.1-.63-4.01-1.27-5.71-1.91-1.69-.64-3.19-1.29-4.47-1.95-1.28-.65-2.36-1.32-3.21-1.98-.86-.67-1.51-1.34-1.94-2.01s-.65-1.35-.65-2.02.22-1.34.65-2.02c.43-.67 1.08-1.34 1.94-2 .85-.67 1.93-1.33 3.21-1.99 1.28-.65 2.78-1.3 4.47-1.95 1.7-.64 3.61-1.28 5.71-1.9 2.11-.63 4.42-1.25 6.92-1.85 2.49-.61 5.19-1.21 8.07-1.79s5.96-1.15 9.2-1.71c3.24-.55 6.68-1.1 10.27-1.62 3.59-.53 7.35-1.04 11.27-1.53 3.92-.5 8-.97 12.22-1.43 4.23-.46 8.61-.9 13.11-1.32s9.15-.82 13.91-1.2c4.75-.38 9.65-.74 14.63-1.07 4.99-.34 10.1-.65 15.29-.95 5.18-.29 10.48-.56 15.84-.8 5.36-.25 10.81-.47 16.32-.67 5.5-.2 11.08-.37 16.69-.52 5.62-.15 11.3-.28 16.99-.38s11.44-.17 17.18-.22 11.51-.08 17.27-.08 11.53.03 17.28.08c5.74.05 11.48.12 17.17.22 5.7.1 11.38.23 16.99.38s11.19.32 16.7.52c5.5.2 10.95.42 16.31.67 5.36.24 10.66.51 15.85.8 5.19.3 10.29.61 15.28.95 4.99.33 9.88.69 14.64 1.07s9.4.78 13.91 1.2c4.5.42 8.88.86 13.1 1.32s8.31.93 12.22 1.43c3.92.49 7.69 1 11.28 1.53 3.59.52 7.02 1.07 10.26 1.62 3.25.56 6.32 1.13 9.2 1.71s5.58 1.18 8.08 1.79c2.5.6 4.81 1.22 6.91 1.85 2.1.62 4.01 1.26 5.71 1.9q2.55.975 4.47 1.95c1.29.66 2.36 1.32 3.22 1.99.86.66 1.5 1.33 1.93 2 .43.68.65 1.35.65 2.02s-.22 1.35-.65 2.02-1.07 1.34-1.93 2.01c-.86.66-1.93 1.33-3.22 1.98q-1.92.99-4.47 1.95c-1.7.64-3.61 1.28-5.71 1.91-2.1.62-4.41 1.24-6.91 1.85-2.5.6-5.2 1.2-8.08 1.78-2.88.59-5.95 1.16-9.2 1.71-3.24.56-6.67 1.1-10.26 1.63-3.59.52-7.36 1.04-11.28 1.53-3.91.49-8 .97-12.22 1.43a1001 1001 0 0 1-27.01 2.51c-4.76.38-9.65.74-14.64 1.08-4.99.33-10.09.65-15.28.94s-10.49.56-15.85.81c-5.36.24-10.81.47-16.31.66-5.51.2-11.09.38-16.7.53s-11.29.27-16.99.37c-5.69.1-11.43.18-17.17.23-5.75.05-11.52.07-17.28.07"/><path fill="none" stroke="transparent" stroke-width="4" d="M264.093 316.524c-5.76 0-11.53-.02-17.27-.07s-11.49-.13-17.18-.23-11.37-.22-16.99-.37c-5.61-.15-11.19-.33-16.69-.53-5.51-.19-10.96-.42-16.32-.66a1498.47 1498.47 0 0 1-31.13-1.75c-4.98-.34-9.88-.7-14.63-1.08-4.76-.38-9.41-.78-13.91-1.2s-8.88-.86-13.11-1.31c-4.22-.46-8.3-.94-12.22-1.43s-7.68-1.01-11.27-1.53c-3.59-.53-7.03-1.07-10.27-1.63-3.24-.55-6.32-1.12-9.2-1.71-2.88-.58-5.58-1.18-8.07-1.78-2.5-.61-4.81-1.23-6.92-1.85-2.1-.63-4.01-1.27-5.71-1.91-1.69-.64-3.19-1.29-4.47-1.95-1.28-.65-2.36-1.32-3.21-1.98-.86-.67-1.51-1.34-1.94-2.01s-.65-1.35-.65-2.02.22-1.34.65-2.02c.43-.67 1.08-1.34 1.94-2 .85-.67 1.93-1.33 3.21-1.99 1.28-.65 2.78-1.3 4.47-1.95 1.7-.64 3.61-1.28 5.71-1.9 2.11-.63 4.42-1.25 6.92-1.85 2.49-.61 5.19-1.21 8.07-1.79s5.96-1.15 9.2-1.71c3.24-.55 6.68-1.1 10.27-1.62 3.59-.53 7.35-1.04 11.27-1.53 3.92-.5 8-.97 12.22-1.43 4.23-.46 8.61-.9 13.11-1.32s9.15-.82 13.91-1.2c4.75-.38 9.65-.74 14.63-1.07 4.99-.34 10.1-.65 15.29-.95 5.18-.29 10.48-.56 15.84-.8 5.36-.25 10.81-.47 16.32-.67 5.5-.2 11.08-.37 16.69-.52 5.62-.15 11.3-.28 16.99-.38s11.44-.17 17.18-.22 11.51-.08 17.27-.08 11.53.03 17.28.08c5.74.05 11.48.12 17.17.22 5.7.1 11.38.23 16.99.38s11.19.32 16.7.52c5.5.2 10.95.42 16.31.67 5.36.24 10.66.51 15.85.8 5.19.3 10.29.61 15.28.95 4.99.33 9.88.69 14.64 1.07s9.4.78 13.91 1.2c4.5.42 8.88.86 13.1 1.32s8.31.93 12.22 1.43c3.92.49 7.69 1 11.28 1.53 3.59.52 7.02 1.07 10.26 1.62 3.25.56 6.32 1.13 9.2 1.71s5.58 1.18 8.08 1.79c2.5.6 4.81 1.22 6.91 1.85 2.1.62 4.01 1.26 5.71 1.9q2.55.975 4.47 1.95c1.29.66 2.36 1.32 3.22 1.99.86.66 1.5 1.33 1.93 2 .43.68.65 1.35.65 2.02s-.22 1.35-.65 2.02-1.07 1.34-1.93 2.01c-.86.66-1.93 1.33-3.22 1.98q-1.92.99-4.47 1.95c-1.7.64-3.61 1.28-5.71 1.91-2.1.62-4.41 1.24-6.91 1.85-2.5.6-5.2 1.2-8.08 1.78-2.88.59-5.95 1.16-9.2 1.71-3.24.56-6.67 1.1-10.26 1.63-3.59.52-7.36 1.04-11.28 1.53-3.91.49-8 .97-12.22 1.43a1001 1001 0 0 1-27.01 2.51c-4.76.38-9.65.74-14.64 1.08-4.99.33-10.09.65-15.28.94s-10.49.56-15.85.81c-5.36.24-10.81.47-16.31.66-5.51.2-11.09.38-16.7.53s-11.29.27-16.99.37c-5.69.1-11.43.18-17.17.23-5.75.05-11.52.07-17.28.07"/></g><g stroke-linecap="round"><path fill="#ffc9c9" stroke-width="0" d="M288.928 309.784a1985 1985 0 0 1-9.43 14.468 1942 1942 0 0 1-9.515 14.306 1869 1869 0 0 1-9.53 14.07c-3.17 4.632-6.35 9.221-9.502 13.732-3.15 4.526-6.3 8.979-9.41 13.35a1498.47 1498.47 0 0 1-18.362 25.199c-2.987 4-5.949 7.92-8.845 11.703-2.902 3.792-5.762 7.481-8.556 11.033-2.795 3.552-5.541 6.993-8.214 10.302a780 780 0 0 1-7.832 9.488 582 582 0 0 1-7.4 8.636 426 426 0 0 1-6.943 7.743c-2.22 2.423-4.37 4.7-6.428 6.8a220 220 0 0 1-5.874 5.812 155 155 0 0 1-5.31 4.809 88 88 0 0 1-4.702 3.76c-1.455 1.072-2.814 1.98-4.063 2.696-1.24.723-2.39 1.267-3.405 1.622q-1.546.542-2.741.54c-.797-.003-1.487-.187-2.05-.55s-1.006-.913-1.344-1.643c-.33-.725-.54-1.634-.627-2.715-.102-1.077-.07-2.343.07-3.776.149-1.428.417-3.04.788-4.813a83 83 0 0 1 1.502-5.827 132 132 0 0 1 2.201-6.816c.839-2.423 1.8-5.016 2.875-7.75a341 341 0 0 1 3.556-8.656c1.296-3.02 2.701-6.208 4.212-9.506a513 513 0 0 1 4.83-10.296 676 676 0 0 1 5.43-11.04 866 866 0 0 1 6.005-11.73c2.09-4.007 4.276-8.13 6.54-12.334a1076 1076 0 0 1 7.04-12.87c2.422-4.376 4.934-8.836 7.498-13.359 2.568-4.508 5.217-9.106 7.924-13.739 2.698-4.638 5.47-9.335 8.292-14.072 2.817-4.728 5.702-9.508 8.62-14.301 2.924-4.802 5.896-9.644 8.9-14.478 3.003-4.833 6.065-9.701 9.137-14.55 3.073-4.848 6.179-9.711 9.304-14.55 3.126-4.838 6.282-9.668 9.444-14.471 3.157-4.794 6.33-9.578 9.502-14.303 3.177-4.734 6.368-9.434 9.538-14.065s6.34-9.226 9.498-13.746c3.153-4.51 6.295-8.97 9.413-13.336 3.11-4.372 6.213-8.677 9.273-12.88 3.068-4.196 6.096-8.312 9.09-12.319 2.984-4.012 5.94-7.925 8.842-11.717q4.355-5.69 8.556-11.033a851 851 0 0 1 8.217-10.287 666 666 0 0 1 7.832-9.489 514 514 0 0 1 7.406-8.644 427 427 0 0 1 6.928-7.74 334 334 0 0 1 6.428-6.8 205 205 0 0 1 5.888-5.815 129 129 0 0 1 5.304-4.8 83 83 0 0 1 4.694-3.766q2.203-1.613 4.064-2.696c1.254-.726 2.389-1.266 3.418-1.625 1.022-.364 1.932-.538 2.728-.536.804.008 1.486.186 2.05.55.562.364 1.014.917 1.343 1.642.33.725.545 1.626.641 2.712.088 1.08.07 2.343-.084 3.779q-.21 2.15-.787 4.813a88 88 0 0 1-1.494 5.833 151 151 0 0 1-2.196 6.808 225 225 0 0 1-2.89 7.752 273 273 0 0 1-3.555 8.656 425 425 0 0 1-4.198 9.503 583 583 0 0 1-4.836 10.305 766 766 0 0 1-5.43 11.04 1001 1001 0 0 1-12.547 24.05 1264 1264 0 0 1-7.037 12.883c-2.43 4.371-4.93 8.829-7.502 13.345a1727 1727 0 0 1-7.92 13.754 1597 1597 0 0 1-8.296 14.058 1751 1751 0 0 1-8.616 14.315c-2.918 4.794-5.9 9.63-8.909 14.472a1940 1940 0 0 1-9.123 14.547 1989 1989 0 0 1-9.318 14.553"/><path fill="none" stroke="transparent" stroke-width="4" d="M288.928 309.784a1985 1985 0 0 1-9.43 14.468 1942 1942 0 0 1-9.515 14.306 1869 1869 0 0 1-9.53 14.07c-3.17 4.632-6.35 9.221-9.502 13.732-3.15 4.526-6.3 8.979-9.41 13.35a1498.47 1498.47 0 0 1-18.362 25.199c-2.987 4-5.949 7.92-8.845 11.703-2.902 3.792-5.762 7.481-8.556 11.033-2.795 3.552-5.541 6.993-8.214 10.302a780 780 0 0 1-7.832 9.488 582 582 0 0 1-7.4 8.636 426 426 0 0 1-6.943 7.743c-2.22 2.423-4.37 4.7-6.428 6.8a220 220 0 0 1-5.874 5.812 155 155 0 0 1-5.31 4.809 88 88 0 0 1-4.702 3.76c-1.455 1.072-2.814 1.98-4.063 2.696-1.24.723-2.39 1.267-3.405 1.622q-1.546.542-2.741.54c-.797-.003-1.487-.187-2.05-.55s-1.006-.913-1.344-1.643c-.33-.725-.54-1.634-.627-2.715-.102-1.077-.07-2.343.07-3.776.149-1.428.417-3.04.788-4.813a83 83 0 0 1 1.502-5.827 132 132 0 0 1 2.201-6.816c.839-2.423 1.8-5.016 2.875-7.75a341 341 0 0 1 3.556-8.656c1.296-3.02 2.701-6.208 4.212-9.506a513 513 0 0 1 4.83-10.296 676 676 0 0 1 5.43-11.04 866 866 0 0 1 6.005-11.73c2.09-4.007 4.276-8.13 6.54-12.334a1076 1076 0 0 1 7.04-12.87c2.422-4.376 4.934-8.836 7.498-13.359 2.568-4.508 5.217-9.106 7.924-13.739 2.698-4.638 5.47-9.335 8.292-14.072 2.817-4.728 5.702-9.508 8.62-14.301 2.924-4.802 5.896-9.644 8.9-14.478 3.003-4.833 6.065-9.701 9.137-14.55 3.073-4.848 6.179-9.711 9.304-14.55 3.126-4.838 6.282-9.668 9.444-14.471 3.157-4.794 6.33-9.578 9.502-14.303 3.177-4.734 6.368-9.434 9.538-14.065s6.34-9.226 9.498-13.746c3.153-4.51 6.295-8.97 9.413-13.336 3.11-4.372 6.213-8.677 9.273-12.88 3.068-4.196 6.096-8.312 9.09-12.319 2.984-4.012 5.94-7.925 8.842-11.717q4.355-5.69 8.556-11.033a851 851 0 0 1 8.217-10.287 666 666 0 0 1 7.832-9.489 514 514 0 0 1 7.406-8.644 427 427 0 0 1 6.928-7.74 334 334 0 0 1 6.428-6.8 205 205 0 0 1 5.888-5.815 129 129 0 0 1 5.304-4.8 83 83 0 0 1 4.694-3.766q2.203-1.613 4.064-2.696c1.254-.726 2.389-1.266 3.418-1.625 1.022-.364 1.932-.538 2.728-.536.804.008 1.486.186 2.05.55.562.364 1.014.917 1.343 1.642.33.725.545 1.626.641 2.712.088 1.08.07 2.343-.084 3.779q-.21 2.15-.787 4.813a88 88 0 0 1-1.494 5.833 151 151 0 0 1-2.196 6.808 225 225 0 0 1-2.89 7.752 273 273 0 0 1-3.555 8.656 425 425 0 0 1-4.198 9.503 583 583 0 0 1-4.836 10.305 766 766 0 0 1-5.43 11.04 1001 1001 0 0 1-12.547 24.05 1264 1264 0 0 1-7.037 12.883c-2.43 4.371-4.93 8.829-7.502 13.345a1727 1727 0 0 1-7.92 13.754 1597 1597 0 0 1-8.296 14.058 1751 1751 0 0 1-8.616 14.315c-2.918 4.794-5.9 9.63-8.909 14.472a1940 1940 0 0 1-9.123 14.547 1989 1989 0 0 1-9.318 14.553"/></g><g stroke-linecap="round"><path fill="#ffc9c9" stroke-width="0" d="M291.613 282.232c2.867 4.995 5.722 10.01 8.535 15.013a1942 1942 0 0 1 8.352 15.015c2.746 4.985 5.469 9.971 8.136 14.92 2.662 4.94 5.284 9.87 7.848 14.74 2.578 4.873 5.091 9.714 7.55 14.483a1498.47 1498.47 0 0 1 13.977 27.87c2.185 4.489 4.312 8.918 6.347 13.227 2.04 4.317 4.007 8.55 5.883 12.661 1.875 4.112 3.674 8.13 5.389 12.023a780 780 0 0 1 4.842 11.31 582 582 0 0 1 4.283 10.537 426 426 0 0 1 3.698 9.718 278 278 0 0 1 3.096 8.83c.931 2.787 1.755 5.428 2.474 7.886a155 155 0 0 1 1.84 6.923c.498 2.135.894 4.11 1.185 5.903.286 1.784.469 3.409.534 4.847.073 1.434.03 2.704-.12 3.77-.153 1.08-.41 1.977-.777 2.683-.367.707-.848 1.236-1.429 1.57-.581.333-1.272.475-2.075.441-.796-.04-1.7-.27-2.7-.687-1.005-.404-2.115-1.012-3.324-1.794-1.201-.786-2.512-1.764-3.917-2.906a83 83 0 0 1-4.49-4.007 132 132 0 0 1-5.049-5.08 200 200 0 0 1-5.57-6.109 341 341 0 0 1-6.062-7.128 428 428 0 0 1-6.517-8.101 513 513 0 0 1-6.936-9.013 676 676 0 0 1-7.323-9.887 866 866 0 0 1-7.67-10.713 1045 1045 0 0 1-7.965-11.468 1076 1076 0 0 1-8.21-12.156 1495 1495 0 0 1-8.435-12.788c-2.83-4.349-5.702-8.811-8.578-13.34a1585 1585 0 0 1-8.705-13.821c-2.91-4.671-5.836-9.426-8.758-14.217-2.928-4.8-5.868-9.661-8.787-14.547a1943 1943 0 0 1-8.742-14.79c-2.9-4.954-5.798-9.944-8.665-14.94a1989 1989 0 0 1-8.532-15.027 1941 1941 0 0 1-8.356-15.001c-2.75-4.993-5.465-9.985-8.127-14.925a1753 1753 0 0 1-7.862-14.743c-2.564-4.87-5.086-9.706-7.537-14.48-2.46-4.768-4.864-9.499-7.195-14.145-2.324-4.65-4.593-9.228-6.782-13.725-2.198-4.492-4.32-8.913-6.36-13.23q-3.06-6.479-5.882-12.662a851 851 0 0 1-5.376-12.019 666 666 0 0 1-4.842-11.31 514 514 0 0 1-4.288-10.545 427 427 0 0 1-3.702-9.705 334 334 0 0 1-3.096-8.83 205 205 0 0 1-2.47-7.9 129 129 0 0 1-1.834-6.914 83 83 0 0 1-1.195-5.898q-.423-2.697-.533-4.847c-.07-1.448-.03-2.704.123-3.783.144-1.075.407-1.963.774-2.67.376-.711.847-1.236 1.428-1.57.581-.333 1.28-.48 2.076-.44.795.039 1.695.26 2.704.673 1 .417 2.114 1.012 3.32 1.807q1.815 1.172 3.916 2.906a88 88 0 0 1 4.499 4.002 151 151 0 0 1 5.044 5.072 225 225 0 0 1 5.565 6.122 273 273 0 0 1 6.063 7.128 425 425 0 0 1 6.52 8.088 583 583 0 0 1 6.942 9.021 766 766 0 0 1 7.323 9.887 1001 1001 0 0 1 15.621 22.177c2.7 3.94 5.446 8.001 8.224 12.16 2.77 4.164 5.586 8.428 8.421 12.785s5.707 8.82 8.592 13.344c2.876 4.529 5.789 9.141 8.691 13.817 2.916 4.68 5.85 9.43 8.772 14.22a1853 1853 0 0 1 8.778 14.552c2.919 4.885 5.845 9.824 8.746 14.777 2.905 4.962 5.795 9.957 8.662 14.953"/><path fill="none" stroke="transparent" stroke-width="4" d="M291.613 282.232c2.867 4.995 5.722 10.01 8.535 15.013a1942 1942 0 0 1 8.352 15.015c2.746 4.985 5.469 9.971 8.136 14.92 2.662 4.94 5.284 9.87 7.848 14.74 2.578 4.873 5.091 9.714 7.55 14.483a1498.47 1498.47 0 0 1 13.977 27.87c2.185 4.489 4.312 8.918 6.347 13.227 2.04 4.317 4.007 8.55 5.883 12.661 1.875 4.112 3.674 8.13 5.389 12.023a780 780 0 0 1 4.842 11.31 582 582 0 0 1 4.283 10.537 426 426 0 0 1 3.698 9.718 278 278 0 0 1 3.096 8.83c.931 2.787 1.755 5.428 2.474 7.886a155 155 0 0 1 1.84 6.923c.498 2.135.894 4.11 1.185 5.903.286 1.784.469 3.409.534 4.847.073 1.434.03 2.704-.12 3.77-.153 1.08-.41 1.977-.777 2.683-.367.707-.848 1.236-1.429 1.57-.581.333-1.272.475-2.075.441-.796-.04-1.7-.27-2.7-.687-1.005-.404-2.115-1.012-3.324-1.794-1.201-.786-2.512-1.764-3.917-2.906a83 83 0 0 1-4.49-4.007 132 132 0 0 1-5.049-5.08 200 200 0 0 1-5.57-6.109 341 341 0 0 1-6.062-7.128 428 428 0 0 1-6.517-8.101 513 513 0 0 1-6.936-9.013 676 676 0 0 1-7.323-9.887 866 866 0 0 1-7.67-10.713 1045 1045 0 0 1-7.965-11.468 1076 1076 0 0 1-8.21-12.156 1495 1495 0 0 1-8.435-12.788c-2.83-4.349-5.702-8.811-8.578-13.34a1585 1585 0 0 1-8.705-13.821c-2.91-4.671-5.836-9.426-8.758-14.217-2.928-4.8-5.868-9.661-8.787-14.547a1943 1943 0 0 1-8.742-14.79c-2.9-4.954-5.798-9.944-8.665-14.94a1989 1989 0 0 1-8.532-15.027 1941 1941 0 0 1-8.356-15.001c-2.75-4.993-5.465-9.985-8.127-14.925a1753 1753 0 0 1-7.862-14.743c-2.564-4.87-5.086-9.706-7.537-14.48-2.46-4.768-4.864-9.499-7.195-14.145-2.324-4.65-4.593-9.228-6.782-13.725-2.198-4.492-4.32-8.913-6.36-13.23q-3.06-6.479-5.882-12.662a851 851 0 0 1-5.376-12.019 666 666 0 0 1-4.842-11.31 514 514 0 0 1-4.288-10.545 427 427 0 0 1-3.702-9.705 334 334 0 0 1-3.096-8.83 205 205 0 0 1-2.47-7.9 129 129 0 0 1-1.834-6.914 83 83 0 0 1-1.195-5.898q-.423-2.697-.533-4.847c-.07-1.448-.03-2.704.123-3.783.144-1.075.407-1.963.774-2.67.376-.711.847-1.236 1.428-1.57.581-.333 1.28-.48 2.076-.44.795.039 1.695.26 2.704.673 1 .417 2.114 1.012 3.32 1.807q1.815 1.172 3.916 2.906a88 88 0 0 1 4.499 4.002 151 151 0 0 1 5.044 5.072 225 225 0 0 1 5.565 6.122 273 273 0 0 1 6.063 7.128 425 425 0 0 1 6.52 8.088 583 583 0 0 1 6.942 9.021 766 766 0 0 1 7.323 9.887 1001 1001 0 0 1 15.621 22.177c2.7 3.94 5.446 8.001 8.224 12.16 2.77 4.164 5.586 8.428 8.421 12.785s5.707 8.82 8.592 13.344c2.876 4.529 5.789 9.141 8.691 13.817 2.916 4.68 5.85 9.43 8.772 14.22a1853 1853 0 0 1 8.778 14.552c2.919 4.885 5.845 9.824 8.746 14.777 2.905 4.962 5.795 9.957 8.662 14.953"/></g><g stroke-linecap="round"><path fill="#ffc9c9" stroke-width="0" d="M252.192 309.22a1985 1985 0 0 1-14.407-9.525 1942 1942 0 0 1-14.243-9.608c-4.705-3.203-9.39-6.416-14.008-9.622-4.61-3.2-9.179-6.41-13.67-9.591a1587 1587 0 0 1-13.288-9.497 1498.47 1498.47 0 0 1-25.078-18.526c-3.979-3.014-7.88-6.001-11.645-8.922-3.773-2.927-7.443-5.81-10.977-8.628a1020 1020 0 0 1-10.247-8.282 780 780 0 0 1-9.437-7.893 582 582 0 0 1-8.588-7.457 426 426 0 0 1-7.696-6.993 278 278 0 0 1-6.758-6.472 220 220 0 0 1-5.774-5.912 155 155 0 0 1-4.774-5.34 88 88 0 0 1-3.73-4.728c-1.062-1.462-1.96-2.827-2.67-4.08-.714-1.246-1.25-2.399-1.599-3.416-.352-1.032-.528-1.949-.52-2.745.007-.796.195-1.485.563-2.046s.918-1 1.65-1.333c.727-.325 1.638-.529 2.72-.61 1.078-.094 2.343-.054 3.775.095 1.427.158 3.038.437 4.808.82 1.772.396 3.72.907 5.817 1.54 2.11.63 4.382 1.377 6.802 2.245 2.417.855 5.004 1.833 7.73 2.926a341 341 0 0 1 8.633 3.613 428 428 0 0 1 9.478 4.274 513 513 0 0 1 10.265 4.897 676 676 0 0 1 11.005 5.502 866 866 0 0 1 11.688 6.081c3.994 2.116 8.103 4.33 12.293 6.62a1076 1076 0 0 1 12.823 7.125c4.36 2.45 8.804 4.992 13.31 7.585 4.49 2.597 9.072 5.276 13.686 8.013 4.62 2.729 9.3 5.532 14.018 8.385 4.71 2.847 9.47 5.763 14.245 8.713 4.782 2.955 9.604 5.96 14.418 8.994 4.814 3.035 9.662 6.128 14.49 9.233 4.829 3.104 9.672 6.241 14.49 9.398s9.627 6.345 14.409 9.539c4.773 3.187 9.536 6.392 14.24 9.594 4.713 3.208 9.393 6.43 14.003 9.63s9.184 6.402 13.683 9.589c4.49 3.182 8.928 6.353 13.274 9.5 4.352 3.138 8.637 6.27 12.819 9.356 4.176 3.096 8.272 6.15 12.26 9.17 3.992 3.011 7.885 5.992 11.658 8.92 3.773 2.926 7.435 5.804 10.977 8.627a851 851 0 0 1 10.233 8.284 666 666 0 0 1 9.438 7.894 514 514 0 0 1 8.596 7.462 427 427 0 0 1 7.693 6.979q3.62 3.376 6.758 6.473a205 205 0 0 1 5.777 5.925 129 129 0 0 1 4.766 5.335 83 83 0 0 1 3.734 4.719q1.599 2.213 2.67 4.081c.718 1.26 1.25 2.398 1.603 3.43.357 1.023.525 1.934.518 2.73-.013.804-.196 1.485-.564 2.046s-.924 1.008-1.65 1.333q-1.089.488-2.716.624c-1.081.08-2.344.054-3.779-.11q-2.149-.224-4.807-.818a88 88 0 0 1-5.823-1.532 151 151 0 0 1-6.794-2.24 225 225 0 0 1-7.734-2.94 273 273 0 0 1-8.632-3.613 425 425 0 0 1-9.475-4.26 583 583 0 0 1-10.273-4.903 766 766 0 0 1-11.005-5.501 1001 1001 0 0 1-23.967-12.705c-4.19-2.291-8.477-4.67-12.837-7.121a1496 1496 0 0 1-13.296-7.589c-4.5-2.602-9.08-5.281-13.7-8.01-4.616-2.737-9.3-5.532-14.004-8.387-4.719-2.853-9.485-5.761-14.259-8.71a1853 1853 0 0 1-14.413-9.003 1940 1940 0 0 1-14.488-9.219c-4.836-3.11-9.674-6.255-14.491-9.412"/><path fill="none" stroke="transparent" stroke-width="4" d="M252.192 309.22a1985 1985 0 0 1-14.407-9.525 1942 1942 0 0 1-14.243-9.608c-4.705-3.203-9.39-6.416-14.008-9.622-4.61-3.2-9.179-6.41-13.67-9.591a1587 1587 0 0 1-13.288-9.497 1498.47 1498.47 0 0 1-25.078-18.526c-3.979-3.014-7.88-6.001-11.645-8.922-3.773-2.927-7.443-5.81-10.977-8.628a1020 1020 0 0 1-10.247-8.282 780 780 0 0 1-9.437-7.893 582 582 0 0 1-8.588-7.457 426 426 0 0 1-7.696-6.993 278 278 0 0 1-6.758-6.472 220 220 0 0 1-5.774-5.912 155 155 0 0 1-4.774-5.34 88 88 0 0 1-3.73-4.728c-1.062-1.462-1.96-2.827-2.67-4.08-.714-1.246-1.25-2.399-1.599-3.416-.352-1.032-.528-1.949-.52-2.745.007-.796.195-1.485.563-2.046s.918-1 1.65-1.333c.727-.325 1.638-.529 2.72-.61 1.078-.094 2.343-.054 3.775.095 1.427.158 3.038.437 4.808.82 1.772.396 3.72.907 5.817 1.54 2.11.63 4.382 1.377 6.802 2.245 2.417.855 5.004 1.833 7.73 2.926a341 341 0 0 1 8.633 3.613 428 428 0 0 1 9.478 4.274 513 513 0 0 1 10.265 4.897 676 676 0 0 1 11.005 5.502 866 866 0 0 1 11.688 6.081c3.994 2.116 8.103 4.33 12.293 6.62a1076 1076 0 0 1 12.823 7.125c4.36 2.45 8.804 4.992 13.31 7.585 4.49 2.597 9.072 5.276 13.686 8.013 4.62 2.729 9.3 5.532 14.018 8.385 4.71 2.847 9.47 5.763 14.245 8.713 4.782 2.955 9.604 5.96 14.418 8.994 4.814 3.035 9.662 6.128 14.49 9.233 4.829 3.104 9.672 6.241 14.49 9.398s9.627 6.345 14.409 9.539c4.773 3.187 9.536 6.392 14.24 9.594 4.713 3.208 9.393 6.43 14.003 9.63s9.184 6.402 13.683 9.589c4.49 3.182 8.928 6.353 13.274 9.5 4.352 3.138 8.637 6.27 12.819 9.356 4.176 3.096 8.272 6.15 12.26 9.17 3.992 3.011 7.885 5.992 11.658 8.92 3.773 2.926 7.435 5.804 10.977 8.627a851 851 0 0 1 10.233 8.284 666 666 0 0 1 9.438 7.894 514 514 0 0 1 8.596 7.462 427 427 0 0 1 7.693 6.979q3.62 3.376 6.758 6.473a205 205 0 0 1 5.777 5.925 129 129 0 0 1 4.766 5.335 83 83 0 0 1 3.734 4.719q1.599 2.213 2.67 4.081c.718 1.26 1.25 2.398 1.603 3.43.357 1.023.525 1.934.518 2.73-.013.804-.196 1.485-.564 2.046s-.924 1.008-1.65 1.333q-1.089.488-2.716.624c-1.081.08-2.344.054-3.779-.11q-2.149-.224-4.807-.818a88 88 0 0 1-5.823-1.532 151 151 0 0 1-6.794-2.24 225 225 0 0 1-7.734-2.94 273 273 0 0 1-8.632-3.613 425 425 0 0 1-9.475-4.26 583 583 0 0 1-10.273-4.903 766 766 0 0 1-11.005-5.501 1001 1001 0 0 1-23.967-12.705c-4.19-2.291-8.477-4.67-12.837-7.121a1496 1496 0 0 1-13.296-7.589c-4.5-2.602-9.08-5.281-13.7-8.01-4.616-2.737-9.3-5.532-14.004-8.387-4.719-2.853-9.485-5.761-14.259-8.71a1853 1853 0 0 1-14.413-9.003 1940 1940 0 0 1-14.488-9.219c-4.836-3.11-9.674-6.255-14.491-9.412"/></g><g stroke-linecap="round"><path fill="#ffc9c9" stroke-width="0" d="M258.018 266.751c5.13-2.576 10.286-5.144 15.42-7.667 5.133-2.522 10.29-5.023 15.401-7.479 5.12-2.46 10.232-4.893 15.304-7.273 5.062-2.375 10.12-4.714 15.107-6.995 4.991-2.295 9.947-4.527 14.835-6.713A1487.593 1487.593 0 0 1 362.6 218.26c4.594-1.928 9.117-3.797 13.523-5.585s8.732-3.513 12.933-5.153a1011 1011 0 0 1 12.258-4.692c3.96-1.474 7.821-2.876 11.526-4.189a578 578 0 0 1 10.73-3.678 431 431 0 0 1 9.883-3.14 275 275 0 0 1 8.953-2.583c2.825-.77 5.507-1.446 8.001-2.028 2.5-.572 4.833-1.05 6.988-1.439 2.159-.38 4.144-.66 5.941-.847q2.699-.281 4.861-.26c1.436.007 2.693.125 3.748.333 1.07.213 1.942.524 2.627.93s1.187.915 1.488 1.513c.3.6.405 1.297.326 2.097-.084.792-.355 1.678-.827 2.654-.459.98-1.119 2.05-1.966 3.214-.852 1.156-1.892 2.405-3.11 3.745a80 80 0 0 1-4.232 4.252 130 130 0 0 1-5.327 4.746 203 203 0 0 1-6.399 5.217 337 337 0 0 1-7.418 5.64 433 433 0 0 1-8.423 6.044 510 510 0 0 1-9.357 6.412 671 671 0 0 1-10.242 6.745 858 858 0 0 1-11.078 7.042c-3.824 2.39-7.79 4.83-11.856 7.298s-8.264 4.98-12.557 7.505c-4.289 2.534-8.707 5.1-13.192 7.69-4.49 2.58-9.087 5.19-13.751 7.802a1586 1586 0 0 1-14.238 7.902c-4.808 2.638-9.709 5.29-14.636 7.933a1848 1848 0 0 1-14.968 7.944 1930 1930 0 0 1-15.2 7.88 1973 1973 0 0 1-15.351 7.802c-5.13 2.576-10.29 5.135-15.424 7.658a1932 1932 0 0 1-15.406 7.492 1854 1854 0 0 1-15.3 7.26 1730 1730 0 0 1-15.102 7.004c-4.996 2.286-9.956 4.53-14.84 6.704-4.88 2.183-9.719 4.312-14.469 6.373a1467 1467 0 0 1-14.045 5.992c-4.589 1.936-9.111 3.805-13.518 5.593a1052 1052 0 0 1-12.932 5.153c-4.201 1.64-8.295 3.204-12.263 4.683a661 661 0 0 1-11.526 4.189 511 511 0 0 1-10.74 3.682 432 432 0 0 1-9.869 3.145c-3.137.949-6.137 1.818-8.962 2.588a203 203 0 0 1-7.997 2.013c-2.494.582-4.828 1.06-6.987 1.44-2.155.389-4.14.67-5.937.856-1.802.178-3.434.27-4.861.26-1.44-.016-2.692-.125-3.762-.338-1.056-.208-1.937-.515-2.622-.92-.68-.42-1.178-.92-1.479-1.519-.3-.598-.41-1.305-.335-2.092.084-.792.364-1.682.823-2.662.472-.976 1.128-2.055 1.98-3.21.838-1.16 1.887-2.414 3.11-3.745a86 86 0 0 1 4.227-4.26 153 153 0 0 1 5.327-4.747 223 223 0 0 1 6.394-5.204c2.3-1.815 4.787-3.702 7.427-5.644a430 430 0 0 1 8.41-6.048 579 579 0 0 1 9.366-6.417 760 760 0 0 1 10.242-6.745 993 993 0 0 1 22.938-14.33c4.065-2.468 8.264-4.98 12.553-7.515 4.293-2.526 8.698-5.096 13.197-7.68 4.49-2.58 9.086-5.192 13.746-7.812 4.664-2.611 9.422-5.259 14.243-7.893 4.807-2.638 9.703-5.3 14.631-7.942 4.937-2.648 9.94-5.296 14.963-7.93a1931 1931 0 0 1 15.204-7.895 1974 1974 0 0 1 15.356-7.792"/><path fill="none" stroke="transparent" stroke-width="4" d="M258.018 266.751c5.13-2.576 10.286-5.144 15.42-7.667 5.133-2.522 10.29-5.023 15.401-7.479 5.12-2.46 10.232-4.893 15.304-7.273 5.062-2.375 10.12-4.714 15.107-6.995 4.991-2.295 9.947-4.527 14.835-6.713A1487.593 1487.593 0 0 1 362.6 218.26c4.594-1.928 9.117-3.797 13.523-5.585s8.732-3.513 12.933-5.153a1011 1011 0 0 1 12.258-4.692c3.96-1.474 7.821-2.876 11.526-4.189a578 578 0 0 1 10.73-3.678 431 431 0 0 1 9.883-3.14 275 275 0 0 1 8.953-2.583c2.825-.77 5.507-1.446 8.001-2.028 2.5-.572 4.833-1.05 6.988-1.439 2.159-.38 4.144-.66 5.941-.847q2.699-.281 4.861-.26c1.436.007 2.693.125 3.748.333 1.07.213 1.942.524 2.627.93s1.187.915 1.488 1.513c.3.6.405 1.297.326 2.097-.084.792-.355 1.678-.827 2.654-.459.98-1.119 2.05-1.966 3.214-.852 1.156-1.892 2.405-3.11 3.745a80 80 0 0 1-4.232 4.252 130 130 0 0 1-5.327 4.746 203 203 0 0 1-6.399 5.217 337 337 0 0 1-7.418 5.64 433 433 0 0 1-8.423 6.044 510 510 0 0 1-9.357 6.412 671 671 0 0 1-10.242 6.745 858 858 0 0 1-11.078 7.042c-3.824 2.39-7.79 4.83-11.856 7.298s-8.264 4.98-12.557 7.505c-4.289 2.534-8.707 5.1-13.192 7.69-4.49 2.58-9.087 5.19-13.751 7.802a1586 1586 0 0 1-14.238 7.902c-4.808 2.638-9.709 5.29-14.636 7.933a1848 1848 0 0 1-14.968 7.944 1930 1930 0 0 1-15.2 7.88 1973 1973 0 0 1-15.351 7.802c-5.13 2.576-10.29 5.135-15.424 7.658a1932 1932 0 0 1-15.406 7.492 1854 1854 0 0 1-15.3 7.26 1730 1730 0 0 1-15.102 7.004c-4.996 2.286-9.956 4.53-14.84 6.704-4.88 2.183-9.719 4.312-14.469 6.373a1467 1467 0 0 1-14.045 5.992c-4.589 1.936-9.111 3.805-13.518 5.593a1052 1052 0 0 1-12.932 5.153c-4.201 1.64-8.295 3.204-12.263 4.683a661 661 0 0 1-11.526 4.189 511 511 0 0 1-10.74 3.682 432 432 0 0 1-9.869 3.145c-3.137.949-6.137 1.818-8.962 2.588a203 203 0 0 1-7.997 2.013c-2.494.582-4.828 1.06-6.987 1.44-2.155.389-4.14.67-5.937.856-1.802.178-3.434.27-4.861.26-1.44-.016-2.692-.125-3.762-.338-1.056-.208-1.937-.515-2.622-.92-.68-.42-1.178-.92-1.479-1.519-.3-.598-.41-1.305-.335-2.092.084-.792.364-1.682.823-2.662.472-.976 1.128-2.055 1.98-3.21.838-1.16 1.887-2.414 3.11-3.745a86 86 0 0 1 4.227-4.26 153 153 0 0 1 5.327-4.747 223 223 0 0 1 6.394-5.204c2.3-1.815 4.787-3.702 7.427-5.644a430 430 0 0 1 8.41-6.048 579 579 0 0 1 9.366-6.417 760 760 0 0 1 10.242-6.745 993 993 0 0 1 22.938-14.33c4.065-2.468 8.264-4.98 12.553-7.515 4.293-2.526 8.698-5.096 13.197-7.68 4.49-2.58 9.086-5.192 13.746-7.812 4.664-2.611 9.422-5.259 14.243-7.893 4.807-2.638 9.703-5.3 14.631-7.942 4.937-2.648 9.94-5.296 14.963-7.93a1931 1931 0 0 1 15.204-7.895 1974 1974 0 0 1 15.356-7.792"/></g><path fill="none" stroke="#e03131" stroke-linecap="round" stroke-width="4" d="M282.255 70.127c0 1.07-.1 2.16-.29 3.22-.18 1.06-.47 2.12-.83 3.13a18.6 18.6 0 0 1-3.23 5.58c-.69.83-1.46 1.6-2.29 2.29a18.596 18.596 0 0 1-5.58 3.23c-1.01.36-2.07.65-3.13.83-1.06.19-2.15.29-3.22.29-1.08 0-2.17-.1-3.23-.29-1.06-.18-2.11-.47-3.12-.83a18.7 18.7 0 0 1-2.94-1.37 19.4 19.4 0 0 1-2.65-1.86c-.82-.69-1.6-1.46-2.29-2.29-.69-.82-1.32-1.72-1.85-2.65-.54-.93-1-1.92-1.37-2.93s-.65-2.07-.84-3.13a19.4 19.4 0 0 1-.28-3.22c0-1.08.1-2.17.28-3.23a18.7 18.7 0 0 1 2.21-6.06c.53-.93 1.16-1.82 1.85-2.65.69-.82 1.47-1.6 2.29-2.29a18.7 18.7 0 0 1 8.71-4.06c1.06-.18 2.15-.28 3.23-.28 1.07 0 2.16.1 3.22.28 1.06.19 2.12.47 3.13.84s2 .83 2.93 1.37c.93.53 1.83 1.16 2.65 1.85.83.69 1.6 1.47 2.29 2.29.69.83 1.32 1.72 1.86 2.65s1 1.93 1.37 2.94c.36 1.01.65 2.06.83 3.12.19 1.06.24 2.69.29 3.23.04.54.04-.54 0 0"/><text y="33.121" fill="#e03131" dominant-baseline="alphabetic" font-family="Helvetica, Segoe UI Emoji" font-size="36" style="white-space:pre" transform="translate(252.406 10)">1</text><path fill="none" stroke="#e03131" stroke-linecap="round" stroke-width="4" d="M405.921 103.447c0 1.07-.1 2.16-.29 3.22-.18 1.06-.47 2.12-.83 3.13a18.6 18.6 0 0 1-3.23 5.58c-.69.83-1.46 1.6-2.29 2.29a18.596 18.596 0 0 1-5.58 3.23c-1.01.36-2.07.65-3.13.83-1.06.19-2.15.29-3.22.29-1.08 0-2.17-.1-3.23-.29-1.06-.18-2.11-.47-3.12-.83a18.7 18.7 0 0 1-2.94-1.37 19.4 19.4 0 0 1-2.65-1.86c-.82-.69-1.6-1.46-2.29-2.29-.69-.82-1.32-1.72-1.85-2.65-.54-.93-1-1.92-1.37-2.93s-.65-2.07-.84-3.13a19.4 19.4 0 0 1-.28-3.22c0-1.08.1-2.17.28-3.23a18.7 18.7 0 0 1 2.21-6.06c.53-.93 1.16-1.82 1.85-2.65.69-.82 1.47-1.6 2.29-2.29a18.7 18.7 0 0 1 8.71-4.06c1.06-.18 2.15-.28 3.23-.28 1.07 0 2.16.1 3.22.28 1.06.19 2.12.47 3.13.84s2 .83 2.93 1.37c.93.53 1.83 1.16 2.65 1.85.83.69 1.6 1.47 2.29 2.29.69.83 1.32 1.72 1.86 2.65s1 1.93 1.37 2.94c.36 1.01.65 2.06.83 3.12.19 1.06.24 2.69.29 3.23.04.54.04-.54 0 0"/><text y="33.121" fill="#e03131" dominant-baseline="alphabetic" font-family="Helvetica, Segoe UI Emoji" font-size="36" style="white-space:pre" transform="translate(376.072 43.32)">2</text><path fill="none" stroke="#e03131" stroke-linecap="round" stroke-width="4" d="M489.124 188.683c0 1.07-.1 2.16-.29 3.22-.18 1.06-.47 2.12-.83 3.13a18.6 18.6 0 0 1-3.23 5.58c-.69.83-1.46 1.6-2.29 2.29a18.596 18.596 0 0 1-5.58 3.23c-1.01.36-2.07.65-3.13.83-1.06.19-2.15.29-3.22.29-1.08 0-2.17-.1-3.23-.29-1.06-.18-2.11-.47-3.12-.83a18.7 18.7 0 0 1-2.94-1.37 19.4 19.4 0 0 1-2.65-1.86c-.82-.69-1.6-1.46-2.29-2.29-.69-.82-1.32-1.72-1.85-2.65-.54-.93-1-1.92-1.37-2.93s-.65-2.07-.84-3.13a19.4 19.4 0 0 1-.28-3.22c0-1.08.1-2.17.28-3.23a18.7 18.7 0 0 1 2.21-6.06c.53-.93 1.16-1.82 1.85-2.65.69-.82 1.47-1.6 2.29-2.29a18.7 18.7 0 0 1 8.71-4.06c1.06-.18 2.15-.28 3.23-.28 1.07 0 2.16.1 3.22.28 1.06.19 2.12.47 3.13.84s2 .83 2.93 1.37c.93.53 1.83 1.16 2.65 1.85.83.69 1.6 1.47 2.29 2.29.69.83 1.32 1.72 1.86 2.65s1 1.93 1.37 2.94c.36 1.01.65 2.06.83 3.12.19 1.06.24 2.69.29 3.23.04.54.04-.54 0 0"/><text y="33.121" fill="#e03131" dominant-baseline="alphabetic" font-family="Helvetica, Segoe UI Emoji" font-size="36" style="white-space:pre" transform="translate(459.257 128.519)">3</text><path fill="none" stroke="#e03131" stroke-linecap="round" stroke-width="4" d="M511.495 287.722c0 1.07-.1 2.16-.29 3.22-.18 1.06-.47 2.12-.83 3.13a18.6 18.6 0 0 1-3.23 5.58c-.69.83-1.46 1.6-2.29 2.29a18.596 18.596 0 0 1-5.58 3.23c-1.01.36-2.07.65-3.13.83-1.06.19-2.15.29-3.22.29-1.08 0-2.17-.1-3.23-.29-1.06-.18-2.11-.47-3.12-.83a18.7 18.7 0 0 1-2.94-1.37 19.4 19.4 0 0 1-2.65-1.86c-.82-.69-1.6-1.46-2.29-2.29-.69-.82-1.32-1.72-1.85-2.65-.54-.93-1-1.92-1.37-2.93s-.65-2.07-.84-3.13a19.4 19.4 0 0 1-.28-3.22c0-1.08.1-2.17.28-3.23a18.7 18.7 0 0 1 2.21-6.06c.53-.93 1.16-1.82 1.85-2.65.69-.82 1.47-1.6 2.29-2.29a18.7 18.7 0 0 1 8.71-4.06c1.06-.18 2.15-.28 3.23-.28 1.07 0 2.16.1 3.22.28 1.06.19 2.12.47 3.13.84s2 .83 2.93 1.37c.93.53 1.83 1.16 2.65 1.85.83.69 1.6 1.47 2.29 2.29.69.83 1.32 1.72 1.86 2.65s1 1.93 1.37 2.94c.36 1.01.65 2.06.83 3.12.19 1.06.24 2.69.29 3.23.04.54.04-.54 0 0"/><text y="33.121" fill="#e03131" dominant-baseline="alphabetic" font-family="Helvetica, Segoe UI Emoji" font-size="36" style="white-space:pre" transform="translate(481.646 227.595)">4</text><path fill="none" stroke="#e03131" stroke-linecap="round" stroke-width="4" d="M475.374 409.518c0 1.07-.1 2.16-.29 3.22-.18 1.06-.47 2.12-.83 3.13a18.6 18.6 0 0 1-3.23 5.58c-.69.83-1.46 1.6-2.29 2.29a18.596 18.596 0 0 1-5.58 3.23c-1.01.36-2.07.65-3.13.83-1.06.19-2.15.29-3.22.29-1.08 0-2.17-.1-3.23-.29-1.06-.18-2.11-.47-3.12-.83a18.7 18.7 0 0 1-2.94-1.37 19.4 19.4 0 0 1-2.65-1.86c-.82-.69-1.6-1.46-2.29-2.29-.69-.82-1.32-1.72-1.85-2.65-.54-.93-1-1.92-1.37-2.93s-.65-2.07-.84-3.13a19.4 19.4 0 0 1-.28-3.22c0-1.08.1-2.17.28-3.23a18.7 18.7 0 0 1 2.21-6.06c.53-.93 1.16-1.82 1.85-2.65.69-.82 1.47-1.6 2.29-2.29a18.7 18.7 0 0 1 8.71-4.06c1.06-.18 2.15-.28 3.23-.28 1.07 0 2.16.1 3.22.28 1.06.19 2.12.47 3.13.84s2 .83 2.93 1.37c.93.53 1.83 1.16 2.65 1.85.83.69 1.6 1.47 2.29 2.29.69.83 1.32 1.72 1.86 2.65s1 1.93 1.37 2.94c.36 1.01.65 2.06.83 3.12.19 1.06.24 2.69.29 3.23.04.54.04-.54 0 0"/><text y="33.121" fill="#e03131" dominant-baseline="alphabetic" font-family="Helvetica, Segoe UI Emoji" font-size="36" style="white-space:pre" transform="translate(445.525 349.39)">5</text><path fill="none" stroke="#e03131" stroke-linecap="round" stroke-width="4" d="M400.247 493.007c0 1.07-.1 2.16-.29 3.22-.18 1.06-.47 2.12-.83 3.13a18.6 18.6 0 0 1-3.23 5.58c-.69.83-1.46 1.6-2.29 2.29a18.596 18.596 0 0 1-5.58 3.23c-1.01.36-2.07.65-3.13.83-1.06.19-2.15.29-3.22.29-1.08 0-2.17-.1-3.23-.29-1.06-.18-2.11-.47-3.12-.83a18.7 18.7 0 0 1-2.94-1.37 19.4 19.4 0 0 1-2.65-1.86c-.82-.69-1.6-1.46-2.29-2.29-.69-.82-1.32-1.72-1.85-2.65-.54-.93-1-1.92-1.37-2.93s-.65-2.07-.84-3.13a19.4 19.4 0 0 1-.28-3.22c0-1.08.1-2.17.28-3.23a18.7 18.7 0 0 1 2.21-6.06c.53-.93 1.16-1.82 1.85-2.65.69-.82 1.47-1.6 2.29-2.29a18.7 18.7 0 0 1 8.71-4.06c1.06-.18 2.15-.28 3.23-.28 1.07 0 2.16.1 3.22.28 1.06.19 2.12.47 3.13.84s2 .83 2.93 1.37c.93.53 1.83 1.16 2.65 1.85.83.69 1.6 1.47 2.29 2.29.69.83 1.32 1.72 1.86 2.65s1 1.93 1.37 2.94c.36 1.01.65 2.06.83 3.12.19 1.06.24 2.69.29 3.23.04.54.04-.54 0 0"/><text y="33.121" fill="#e03131" dominant-baseline="alphabetic" font-family="Helvetica, Segoe UI Emoji" font-size="36" style="white-space:pre" transform="translate(370.398 432.88)">6</text><path fill="none" stroke="#e03131" stroke-linecap="round" stroke-width="4" d="M283.8 521.047c0 1.07-.1 2.16-.29 3.22-.18 1.06-.47 2.12-.83 3.13a18.6 18.6 0 0 1-3.23 5.58c-.69.83-1.46 1.6-2.29 2.29a18.596 18.596 0 0 1-5.58 3.23c-1.01.36-2.07.65-3.13.83-1.06.19-2.15.29-3.22.29-1.08 0-2.17-.1-3.23-.29-1.06-.18-2.11-.47-3.12-.83a18.7 18.7 0 0 1-2.94-1.37 19.4 19.4 0 0 1-2.65-1.86c-.82-.69-1.6-1.46-2.29-2.29-.69-.82-1.32-1.72-1.85-2.65-.54-.93-1-1.92-1.37-2.93s-.65-2.07-.84-3.13a19.4 19.4 0 0 1-.28-3.22c0-1.08.1-2.17.28-3.23a18.7 18.7 0 0 1 2.21-6.06c.53-.93 1.16-1.82 1.85-2.65.69-.82 1.47-1.6 2.29-2.29a18.7 18.7 0 0 1 8.71-4.06c1.06-.18 2.15-.28 3.23-.28 1.07 0 2.16.1 3.22.28 1.06.19 2.12.47 3.13.84s2 .83 2.93 1.37c.93.53 1.83 1.16 2.65 1.85.83.69 1.6 1.47 2.29 2.29.69.83 1.32 1.72 1.86 2.65s1 1.93 1.37 2.94c.36 1.01.65 2.06.83 3.12.19 1.06.24 2.69.29 3.23.04.54.04-.54 0 0"/><text y="33.121" fill="#e03131" dominant-baseline="alphabetic" font-family="Helvetica, Segoe UI Emoji" font-size="36" style="white-space:pre" transform="translate(253.951 460.92)">7</text><path fill="none" stroke="#e03131" stroke-linecap="round" stroke-width="4" d="M161.419 487.927c0 1.07-.1 2.16-.29 3.22-.18 1.06-.47 2.12-.83 3.13a18.6 18.6 0 0 1-3.23 5.58c-.69.83-1.46 1.6-2.29 2.29a18.596 18.596 0 0 1-5.58 3.23c-1.01.36-2.07.65-3.13.83-1.06.19-2.15.29-3.22.29-1.08 0-2.17-.1-3.23-.29-1.06-.18-2.11-.47-3.12-.83a18.7 18.7 0 0 1-2.94-1.37 19.4 19.4 0 0 1-2.65-1.86c-.82-.69-1.6-1.46-2.29-2.29-.69-.82-1.32-1.72-1.85-2.65-.54-.93-1-1.92-1.37-2.93s-.65-2.07-.84-3.13a19.4 19.4 0 0 1-.28-3.22c0-1.08.1-2.17.28-3.23a18.7 18.7 0 0 1 2.21-6.06c.53-.93 1.16-1.82 1.85-2.65.69-.82 1.47-1.6 2.29-2.29a18.7 18.7 0 0 1 8.71-4.06c1.06-.18 2.15-.28 3.23-.28 1.07 0 2.16.1 3.22.28 1.06.19 2.12.47 3.13.84s2 .83 2.93 1.37c.93.53 1.83 1.16 2.65 1.85.83.69 1.6 1.47 2.29 2.29.69.83 1.32 1.72 1.86 2.65s1 1.93 1.37 2.94c.36 1.01.65 2.06.83 3.12.19 1.06.24 2.69.29 3.23.04.54.04-.54 0 0"/><text y="33.121" fill="#e03131" dominant-baseline="alphabetic" font-family="Helvetica, Segoe UI Emoji" font-size="36" style="white-space:pre" transform="translate(131.57 427.8)">8</text><path fill="none" stroke="#e03131" stroke-linecap="round" stroke-width="4" d="M82.695 393.99c0 1.07-.1 2.16-.29 3.22-.18 1.06-.47 2.12-.83 3.13a18.6 18.6 0 0 1-3.23 5.58c-.69.83-1.46 1.6-2.29 2.29a18.596 18.596 0 0 1-5.58 3.23c-1.01.36-2.07.65-3.13.83-1.06.19-2.15.29-3.22.29-1.08 0-2.17-.1-3.23-.29-1.06-.18-2.11-.47-3.12-.83a18.7 18.7 0 0 1-2.94-1.37 19.4 19.4 0 0 1-2.65-1.86c-.82-.69-1.6-1.46-2.29-2.29-.69-.82-1.32-1.72-1.85-2.65-.54-.93-1-1.92-1.37-2.93s-.65-2.07-.84-3.13a19.4 19.4 0 0 1-.28-3.22c0-1.08.1-2.17.28-3.23a18.7 18.7 0 0 1 2.21-6.06c.53-.93 1.16-1.82 1.85-2.65.69-.82 1.47-1.6 2.29-2.29a18.7 18.7 0 0 1 8.71-4.06c1.06-.18 2.15-.28 3.23-.28 1.07 0 2.16.1 3.22.28 1.06.19 2.12.47 3.13.84s2 .83 2.93 1.37c.93.53 1.83 1.16 2.65 1.85.83.69 1.6 1.47 2.29 2.29.69.83 1.32 1.72 1.86 2.65s1 1.93 1.37 2.94c.36 1.01.65 2.06.83 3.12.19 1.06.24 2.69.29 3.23.04.54.04-.54 0 0"/><text y="33.121" fill="#e03131" dominant-baseline="alphabetic" font-family="Helvetica, Segoe UI Emoji" font-size="36" style="white-space:pre" transform="translate(52.846 333.862)">9</text><path fill="none" stroke="#e03131" stroke-linecap="round" stroke-width="4" d="M50.828 287.923c0 1.07-.1 2.16-.29 3.22-.18 1.06-.47 2.12-.83 3.13a18.6 18.6 0 0 1-3.23 5.58c-.69.83-1.46 1.6-2.29 2.29a18.596 18.596 0 0 1-5.58 3.23c-1.01.36-2.07.65-3.13.83-1.06.19-2.15.29-3.22.29-1.08 0-2.17-.1-3.23-.29-1.06-.18-2.11-.47-3.12-.83a18.7 18.7 0 0 1-2.94-1.37 19.4 19.4 0 0 1-2.65-1.86c-.82-.69-1.6-1.46-2.29-2.29-.69-.82-1.32-1.72-1.85-2.65-.54-.93-1-1.92-1.37-2.93s-.65-2.07-.84-3.13a19.4 19.4 0 0 1-.28-3.22c0-1.08.1-2.17.28-3.23a18.7 18.7 0 0 1 2.21-6.06c.53-.93 1.16-1.82 1.85-2.65.69-.82 1.47-1.6 2.29-2.29a18.7 18.7 0 0 1 8.71-4.06c1.06-.18 2.15-.28 3.23-.28 1.07 0 2.16.1 3.22.28 1.06.19 2.12.47 3.13.84s2 .83 2.93 1.37c.93.53 1.83 1.16 2.65 1.85.83.69 1.6 1.47 2.29 2.29.69.83 1.32 1.72 1.86 2.65s1 1.93 1.37 2.94c.36 1.01.65 2.06.83 3.12.19 1.06.24 2.69.29 3.23.04.54.04-.54 0 0"/><text y="33.121" fill="#e03131" dominant-baseline="alphabetic" font-family="Helvetica, Segoe UI Emoji" font-size="36" style="white-space:pre" transform="translate(10 227.376)">💲</text><path fill="none" stroke="#e03131" stroke-linecap="round" stroke-width="4" d="M91.955 160.128c0 1.07-.1 2.16-.29 3.22-.18 1.06-.47 2.12-.83 3.13a18.6 18.6 0 0 1-3.23 5.58c-.69.83-1.46 1.6-2.29 2.29a18.596 18.596 0 0 1-5.58 3.23c-1.01.36-2.07.65-3.13.83-1.06.19-2.15.29-3.22.29-1.08 0-2.17-.1-3.23-.29-1.06-.18-2.11-.47-3.12-.83a18.7 18.7 0 0 1-2.94-1.37 19.4 19.4 0 0 1-2.65-1.86c-.82-.69-1.6-1.46-2.29-2.29-.69-.82-1.32-1.72-1.85-2.65-.54-.93-1-1.92-1.37-2.93s-.65-2.07-.84-3.13a19.4 19.4 0 0 1-.28-3.22c0-1.08.1-2.17.28-3.23a18.7 18.7 0 0 1 2.21-6.06c.53-.93 1.16-1.82 1.85-2.65.69-.82 1.47-1.6 2.29-2.29a18.7 18.7 0 0 1 8.71-4.06c1.06-.18 2.15-.28 3.23-.28 1.07 0 2.16.1 3.22.28 1.06.19 2.12.47 3.13.84s2 .83 2.93 1.37c.93.53 1.83 1.16 2.65 1.85.83.69 1.6 1.47 2.29 2.29.69.83 1.32 1.72 1.86 2.65s1 1.93 1.37 2.94c.36 1.01.65 2.06.83 3.12.19 1.06.24 2.69.29 3.23.04.54.04-.54 0 0"/><text y="33.121" fill="#e03131" dominant-baseline="alphabetic" font-family="Helvetica, Segoe UI Emoji" font-size="36" style="white-space:pre" transform="translate(50.452 100.32)">➰</text><path fill="none" stroke="#e03131" stroke-linecap="round" stroke-width="4" d="M173.663 94.42c0 1.07-.1 2.16-.29 3.22-.18 1.06-.47 2.12-.83 3.13a18.6 18.6 0 0 1-3.23 5.58c-.69.83-1.46 1.6-2.29 2.29a18.596 18.596 0 0 1-5.58 3.23c-1.01.36-2.07.65-3.13.83-1.06.19-2.15.29-3.22.29-1.08 0-2.17-.1-3.23-.29-1.06-.18-2.11-.47-3.12-.83a18.7 18.7 0 0 1-2.94-1.37 19.4 19.4 0 0 1-2.65-1.86c-.82-.69-1.6-1.46-2.29-2.29-.69-.82-1.32-1.72-1.85-2.65-.54-.93-1-1.92-1.37-2.93s-.65-2.07-.84-3.13a19.4 19.4 0 0 1-.28-3.22c0-1.08.1-2.17.28-3.23a18.7 18.7 0 0 1 2.21-6.06c.53-.93 1.16-1.82 1.85-2.65.69-.82 1.47-1.6 2.29-2.29a18.7 18.7 0 0 1 8.71-4.06c1.06-.18 2.15-.28 3.23-.28 1.07 0 2.16.1 3.22.28 1.06.19 2.12.47 3.13.84s2 .83 2.93 1.37c.93.53 1.83 1.16 2.65 1.85.83.69 1.6 1.47 2.29 2.29.69.83 1.32 1.72 1.86 2.65s1 1.93 1.37 2.94c.36 1.01.65 2.06.83 3.12.19 1.06.24 2.69.29 3.23.04.54.04-.54 0 0"/><text y="33.121" fill="#e03131" dominant-baseline="alphabetic" font-family="Helvetica, Segoe UI Emoji" font-size="36" style="white-space:pre" transform="translate(123.374 34.407)">10</text></svg>