<svg xmlns="http://www.w3.org/2000/svg" width="519.404" height="511.556"><defs><style>@font-face{font-family:&quot;Virgil&quot;;src:url(https://excalidraw.com/Virgil.woff2)}@font-face{font-family:&quot;Cascadia&quot;;src:url(https://excalidraw.com/Cascadia.woff2)}@font-face{font-family:&quot;Assistant&quot;;src:url(https://excalidraw.com/Assistant-Regular.woff2)}</style></defs><g stroke-linecap="round"><path fill="#ffc9c9" stroke-width="0" d="M328.522 253.725c0 2.34-.14 4.69-.43 7.01-.28 2.32-.7 4.64-1.26 6.9-.56 2.27-1.26 4.52-2.09 6.71-.83 2.18-1.8 4.33-2.88 6.4a58 58 0 0 1-3.64 6.01 58.04 58.04 0 0 1-14.82 14.82 58 58 0 0 1-6.01 3.64 60 60 0 0 1-6.4 2.88c-2.19.83-4.44 1.53-6.71 2.09-2.26.56-4.58.98-6.9 1.26-2.32.29-4.67.43-7.01.43s-4.69-.14-7.01-.43c-2.32-.28-4.64-.7-6.91-1.26s-4.52-1.26-6.7-2.09c-2.19-.83-4.34-1.8-6.4-2.88a58 58 0 0 1-6.01-3.64 56 56 0 0 1-5.53-4.33 58 58 0 0 1-4.97-4.96c-1.55-1.75-3-3.61-4.33-5.53a60 60 0 0 1-3.63-6.01 58.2 58.2 0 0 1-6.24-20.01 58.6 58.6 0 0 1 0-14.02c.29-2.32.71-4.64 1.27-6.91s1.26-4.52 2.09-6.7c.83-2.19 1.79-4.34 2.88-6.4a60 60 0 0 1 3.63-6.01 58 58 0 0 1 9.3-10.5c1.75-1.55 3.6-3 5.53-4.33a60 60 0 0 1 6.01-3.63c2.06-1.09 4.21-2.05 6.4-2.88 2.18-.83 4.43-1.53 6.7-2.09s4.59-.98 6.91-1.27a58.6 58.6 0 0 1 14.02 0 58.524 58.524 0 0 1 13.61 3.36c2.18.83 4.33 1.79 6.4 2.88a60 60 0 0 1 6.01 3.63c1.92 1.33 3.78 2.78 5.53 4.33s3.41 3.22 4.96 4.97 3.01 3.6 4.33 5.53c1.33 1.92 2.55 3.94 3.64 6.01a58.4 58.4 0 0 1 4.97 13.1c.56 2.27.98 4.59 1.26 6.91.29 2.32.43 4.67.43 7.01"/><path fill="none" stroke="transparent" stroke-width="4" d="M328.522 253.725c0 2.34-.14 4.69-.43 7.01-.28 2.32-.7 4.64-1.26 6.9-.56 2.27-1.26 4.52-2.09 6.71-.83 2.18-1.8 4.33-2.88 6.4a58 58 0 0 1-3.64 6.01 58.04 58.04 0 0 1-14.82 14.82 58 58 0 0 1-6.01 3.64 60 60 0 0 1-6.4 2.88c-2.19.83-4.44 1.53-6.71 2.09-2.26.56-4.58.98-6.9 1.26-2.32.29-4.67.43-7.01.43s-4.69-.14-7.01-.43c-2.32-.28-4.64-.7-6.91-1.26s-4.52-1.26-6.7-2.09c-2.19-.83-4.34-1.8-6.4-2.88a58 58 0 0 1-6.01-3.64 56 56 0 0 1-5.53-4.33 58 58 0 0 1-4.97-4.96c-1.55-1.75-3-3.61-4.33-5.53a60 60 0 0 1-3.63-6.01 58.2 58.2 0 0 1-6.24-20.01 58.6 58.6 0 0 1 0-14.02c.29-2.32.71-4.64 1.27-6.91s1.26-4.52 2.09-6.7c.83-2.19 1.79-4.34 2.88-6.4a60 60 0 0 1 3.63-6.01 58 58 0 0 1 9.3-10.5c1.75-1.55 3.6-3 5.53-4.33a60 60 0 0 1 6.01-3.63c2.06-1.09 4.21-2.05 6.4-2.88 2.18-.83 4.43-1.53 6.7-2.09s4.59-.98 6.91-1.27a58.6 58.6 0 0 1 14.02 0 58.524 58.524 0 0 1 13.61 3.36c2.18.83 4.33 1.79 6.4 2.88a60 60 0 0 1 6.01 3.63c1.92 1.33 3.78 2.78 5.53 4.33s3.41 3.22 4.96 4.97 3.01 3.6 4.33 5.53c1.33 1.92 2.55 3.94 3.64 6.01a58.4 58.4 0 0 1 4.97 13.1c.56 2.27.98 4.59 1.26 6.91.29 2.32.43 4.67.43 7.01"/></g><g stroke-linecap="round"><path fill="#ffc9c9" stroke-width="0" d="M288.766 159.945c0 3.5-.04 7.03-.12 10.5a436 436 0 0 1-.91 20.48c-.23 3.3-.49 6.56-.79 9.71s-.63 6.24-1 9.21c-.37 2.96-.77 5.84-1.19 8.57-.43 2.74-.89 5.37-1.38 7.84-.48 2.48-1 4.83-1.54 7.01-.53 2.18-1.1 4.22-1.68 6.09-.58 1.86-1.19 3.56-1.8 5.08-.62 1.52-1.26 2.87-1.91 4.03-.65 1.15-1.31 2.13-1.98 2.91s-1.35 1.37-2.04 1.76c-.68.39-1.37.59-2.06.59-.68 0-1.37-.2-2.05-.59-.69-.39-1.37-.98-2.04-1.76s-1.33-1.76-1.98-2.91c-.65-1.16-1.29-2.51-1.91-4.03s-1.22-3.22-1.8-5.08c-.58-1.87-1.15-3.91-1.68-6.09-.54-2.18-1.06-4.53-1.54-7.01-.49-2.47-.95-5.1-1.38-7.84-.42-2.73-.83-5.61-1.19-8.57-.37-2.97-.7-6.06-1-9.21s-.56-6.41-.79-9.71a436.282 436.282 0 0 1-.91-20.48 458 458 0 0 1 0-20.99 436 436 0 0 1 .91-20.48c.23-3.3.49-6.56.79-9.71.3-3.16.63-6.24 1-9.21.36-2.96.77-5.84 1.19-8.57.43-2.74.89-5.37 1.38-7.84.48-2.48 1-4.83 1.54-7.01.53-2.18 1.1-4.22 1.68-6.09.58-1.86 1.18-3.56 1.8-5.08s1.26-2.87 1.91-4.03c.65-1.15 1.31-2.13 1.98-2.91s1.35-1.37 2.04-1.76c.68-.39 1.37-.59 2.05-.59.69 0 1.38.2 2.06.59.69.39 1.37.98 2.04 1.76s1.33 1.76 1.98 2.91c.65 1.16 1.29 2.51 1.91 4.03.61 1.52 1.22 3.22 1.8 5.08.58 1.87 1.15 3.91 1.68 6.09.54 2.18 1.06 4.53 1.54 7.01.49 2.47.95 5.1 1.38 7.84.42 2.73.82 5.61 1.19 8.57.37 2.97.7 6.05 1 9.21.3 3.15.56 6.41.79 9.71a436.282 436.282 0 0 1 .91 20.48c.08 3.47.1 8.74.12 10.49s.02-1.75 0 0"/><path fill="none" stroke="transparent" stroke-width="4" d="M288.766 159.945c0 3.5-.04 7.03-.12 10.5a436 436 0 0 1-.91 20.48c-.23 3.3-.49 6.56-.79 9.71s-.63 6.24-1 9.21c-.37 2.96-.77 5.84-1.19 8.57-.43 2.74-.89 5.37-1.38 7.84-.48 2.48-1 4.83-1.54 7.01-.53 2.18-1.1 4.22-1.68 6.09-.58 1.86-1.19 3.56-1.8 5.08-.62 1.52-1.26 2.87-1.91 4.03-.65 1.15-1.31 2.13-1.98 2.91s-1.35 1.37-2.04 1.76c-.68.39-1.37.59-2.06.59-.68 0-1.37-.2-2.05-.59-.69-.39-1.37-.98-2.04-1.76s-1.33-1.76-1.98-2.91c-.65-1.16-1.29-2.51-1.91-4.03s-1.22-3.22-1.8-5.08c-.58-1.87-1.15-3.91-1.68-6.09-.54-2.18-1.06-4.53-1.54-7.01-.49-2.47-.95-5.1-1.38-7.84-.42-2.73-.83-5.61-1.19-8.57-.37-2.97-.7-6.06-1-9.21s-.56-6.41-.79-9.71a436.282 436.282 0 0 1-.91-20.48 458 458 0 0 1 0-20.99 436 436 0 0 1 .91-20.48c.23-3.3.49-6.56.79-9.71.3-3.16.63-6.24 1-9.21.36-2.96.77-5.84 1.19-8.57.43-2.74.89-5.37 1.38-7.84.48-2.48 1-4.83 1.54-7.01.53-2.18 1.1-4.22 1.68-6.09.58-1.86 1.18-3.56 1.8-5.08s1.26-2.87 1.91-4.03c.65-1.15 1.31-2.13 1.98-2.91s1.35-1.37 2.04-1.76c.68-.39 1.37-.59 2.05-.59.69 0 1.38.2 2.06.59.69.39 1.37.98 2.04 1.76s1.33 1.76 1.98 2.91c.65 1.16 1.29 2.51 1.91 4.03.61 1.52 1.22 3.22 1.8 5.08.58 1.87 1.15 3.91 1.68 6.09.54 2.18 1.06 4.53 1.54 7.01.49 2.47.95 5.1 1.38 7.84.42 2.73.82 5.61 1.19 8.57.37 2.97.7 6.05 1 9.21.3 3.15.56 6.41.79 9.71a436.282 436.282 0 0 1 .91 20.48c.08 3.47.1 8.74.12 10.49s.02-1.75 0 0"/></g><g stroke-linecap="round"><path fill="#ffc9c9" stroke-width="0" d="M290.584 354.17c0 3.5-.04 7.03-.12 10.5a436 436 0 0 1-.91 20.48c-.23 3.3-.49 6.56-.79 9.71s-.63 6.24-1 9.21c-.37 2.96-.77 5.84-1.19 8.57-.43 2.74-.89 5.37-1.38 7.84-.48 2.48-1 4.83-1.54 7.01-.53 2.18-1.1 4.22-1.68 6.09-.58 1.86-1.19 3.56-1.8 5.08-.62 1.52-1.26 2.87-1.91 4.03-.65 1.15-1.31 2.13-1.98 2.91s-1.35 1.37-2.04 1.76c-.68.39-1.37.59-2.06.59-.68 0-1.37-.2-2.05-.59-.69-.39-1.37-.98-2.04-1.76s-1.33-1.76-1.98-2.91c-.65-1.16-1.29-2.51-1.91-4.03s-1.22-3.22-1.8-5.08c-.58-1.87-1.15-3.91-1.68-6.09-.54-2.18-1.06-4.53-1.54-7.01-.49-2.47-.95-5.1-1.38-7.84-.42-2.73-.83-5.61-1.19-8.57-.37-2.97-.7-6.06-1-9.21s-.56-6.41-.79-9.71a436.282 436.282 0 0 1-.91-20.48 458 458 0 0 1 0-20.99 436 436 0 0 1 .91-20.48c.23-3.3.49-6.56.79-9.71.3-3.16.63-6.24 1-9.21.36-2.96.77-5.84 1.19-8.57.43-2.74.89-5.37 1.38-7.84.48-2.48 1-4.83 1.54-7.01.53-2.18 1.1-4.22 1.68-6.09.58-1.86 1.18-3.56 1.8-5.08s1.26-2.87 1.91-4.03c.65-1.15 1.31-2.13 1.98-2.91s1.35-1.37 2.04-1.76c.68-.39 1.37-.59 2.05-.59.69 0 1.38.2 2.06.59.69.39 1.37.98 2.04 1.76s1.33 1.76 1.98 2.91c.65 1.16 1.29 2.51 1.91 4.03.61 1.52 1.22 3.22 1.8 5.08.58 1.87 1.15 3.91 1.68 6.09.54 2.18 1.06 4.53 1.54 7.01.49 2.47.95 5.1 1.38 7.84.42 2.73.82 5.61 1.19 8.57.37 2.97.7 6.05 1 9.21.3 3.15.56 6.41.79 9.71a436.282 436.282 0 0 1 .91 20.48c.08 3.47.1 8.74.12 10.49s.02-1.75 0 0"/><path fill="none" stroke="transparent" stroke-width="4" d="M290.584 354.17c0 3.5-.04 7.03-.12 10.5a436 436 0 0 1-.91 20.48c-.23 3.3-.49 6.56-.79 9.71s-.63 6.24-1 9.21c-.37 2.96-.77 5.84-1.19 8.57-.43 2.74-.89 5.37-1.38 7.84-.48 2.48-1 4.83-1.54 7.01-.53 2.18-1.1 4.22-1.68 6.09-.58 1.86-1.19 3.56-1.8 5.08-.62 1.52-1.26 2.87-1.91 4.03-.65 1.15-1.31 2.13-1.98 2.91s-1.35 1.37-2.04 1.76c-.68.39-1.37.59-2.06.59-.68 0-1.37-.2-2.05-.59-.69-.39-1.37-.98-2.04-1.76s-1.33-1.76-1.98-2.91c-.65-1.16-1.29-2.51-1.91-4.03s-1.22-3.22-1.8-5.08c-.58-1.87-1.15-3.91-1.68-6.09-.54-2.18-1.06-4.53-1.54-7.01-.49-2.47-.95-5.1-1.38-7.84-.42-2.73-.83-5.61-1.19-8.57-.37-2.97-.7-6.06-1-9.21s-.56-6.41-.79-9.71a436.282 436.282 0 0 1-.91-20.48 458 458 0 0 1 0-20.99 436 436 0 0 1 .91-20.48c.23-3.3.49-6.56.79-9.71.3-3.16.63-6.24 1-9.21.36-2.96.77-5.84 1.19-8.57.43-2.74.89-5.37 1.38-7.84.48-2.48 1-4.83 1.54-7.01.53-2.18 1.1-4.22 1.68-6.09.58-1.86 1.18-3.56 1.8-5.08s1.26-2.87 1.91-4.03c.65-1.15 1.31-2.13 1.98-2.91s1.35-1.37 2.04-1.76c.68-.39 1.37-.59 2.05-.59.69 0 1.38.2 2.06.59.69.39 1.37.98 2.04 1.76s1.33 1.76 1.98 2.91c.65 1.16 1.29 2.51 1.91 4.03.61 1.52 1.22 3.22 1.8 5.08.58 1.87 1.15 3.91 1.68 6.09.54 2.18 1.06 4.53 1.54 7.01.49 2.47.95 5.1 1.38 7.84.42 2.73.82 5.61 1.19 8.57.37 2.97.7 6.05 1 9.21.3 3.15.56 6.41.79 9.71a436.282 436.282 0 0 1 .91 20.48c.08 3.47.1 8.74.12 10.49s.02-1.75 0 0"/></g><g stroke-linecap="round"><path fill="#ffc9c9" stroke-width="0" d="M371.234 256.512c-3.407.8-6.853 1.566-10.25 2.281a436 436 0 0 1-20.146 3.791c-3.265.53-6.499 1.022-9.634 1.449s-6.219.812-9.195 1.13c-2.966.316-5.861.584-8.615.798-2.766.208-5.431.36-7.948.447-2.524.1-4.93.13-7.177.102-2.243-.018-4.36-.107-6.312-.245a68 68 0 0 1-5.357-.592c-1.622-.256-3.082-.571-4.36-.939-1.268-.37-2.373-.789-3.285-1.263q-1.371-.711-2.18-1.584c-.535-.573-.887-1.2-1.044-1.871-.156-.662-.119-1.38.106-2.13.222-.761.641-1.558 1.247-2.389s1.41-1.696 2.381-2.592c.981-.898 2.15-1.83 3.488-2.78a64 64 0 0 1 4.534-2.912 102 102 0 0 1 5.546-3.027c1.999-1.024 4.168-2.066 6.473-3.1a199 199 0 0 1 7.317-3.134 274 274 0 0 1 8.072-3.116 321 321 0 0 1 8.738-3.077 386 386 0 0 1 9.273-2.987 436.282 436.282 0 0 1 19.73-5.563 458 458 0 0 1 20.436-4.794 436 436 0 0 1 20.147-3.791c3.265-.53 6.498-1.021 9.634-1.449 3.145-.43 6.219-.811 9.195-1.13 2.964-.325 5.861-.584 8.615-.798 2.766-.207 5.431-.36 7.948-.447 2.524-.1 4.93-.13 7.176-.102 2.244.018 4.36.107 6.313.245 1.943.14 3.735.336 5.357.592 1.621.257 3.082.571 4.36.94 1.268.37 2.372.788 3.285 1.262.912.475 1.642 1.002 2.18 1.584.534.573.887 1.2 1.042 1.862.157.671.12 1.389-.104 2.14-.222.76-.641 1.557-1.248 2.388-.606.83-1.41 1.697-2.38 2.592-.981.898-2.15 1.83-3.488 2.78a68 68 0 0 1-4.534 2.913 102 102 0 0 1-5.546 3.026c-1.999 1.024-4.168 2.067-6.473 3.1a199 199 0 0 1-7.317 3.134 307 307 0 0 1-8.072 3.116 318 318 0 0 1-8.738 3.077 386 386 0 0 1-9.273 2.987 436.282 436.282 0 0 1-19.73 5.563c-3.361.87-8.487 2.094-10.187 2.513s1.709-.38 0 0"/><path fill="none" stroke="transparent" stroke-width="4" d="M371.234 256.512c-3.407.8-6.853 1.566-10.25 2.281a436 436 0 0 1-20.146 3.791c-3.265.53-6.499 1.022-9.634 1.449s-6.219.812-9.195 1.13c-2.966.316-5.861.584-8.615.798-2.766.208-5.431.36-7.948.447-2.524.1-4.93.13-7.177.102-2.243-.018-4.36-.107-6.312-.245a68 68 0 0 1-5.357-.592c-1.622-.256-3.082-.571-4.36-.939-1.268-.37-2.373-.789-3.285-1.263q-1.371-.711-2.18-1.584c-.535-.573-.887-1.2-1.044-1.871-.156-.662-.119-1.38.106-2.13.222-.761.641-1.558 1.247-2.389s1.41-1.696 2.381-2.592c.981-.898 2.15-1.83 3.488-2.78a64 64 0 0 1 4.534-2.912 102 102 0 0 1 5.546-3.027c1.999-1.024 4.168-2.066 6.473-3.1a199 199 0 0 1 7.317-3.134 274 274 0 0 1 8.072-3.116 321 321 0 0 1 8.738-3.077 386 386 0 0 1 9.273-2.987 436.282 436.282 0 0 1 19.73-5.563 458 458 0 0 1 20.436-4.794 436 436 0 0 1 20.147-3.791c3.265-.53 6.498-1.021 9.634-1.449 3.145-.43 6.219-.811 9.195-1.13 2.964-.325 5.861-.584 8.615-.798 2.766-.207 5.431-.36 7.948-.447 2.524-.1 4.93-.13 7.176-.102 2.244.018 4.36.107 6.313.245 1.943.14 3.735.336 5.357.592 1.621.257 3.082.571 4.36.94 1.268.37 2.372.788 3.285 1.262.912.475 1.642 1.002 2.18 1.584.534.573.887 1.2 1.042 1.862.157.671.12 1.389-.104 2.14-.222.76-.641 1.557-1.248 2.388-.606.83-1.41 1.697-2.38 2.592-.981.898-2.15 1.83-3.488 2.78a68 68 0 0 1-4.534 2.913 102 102 0 0 1-5.546 3.026c-1.999 1.024-4.168 2.067-6.473 3.1a199 199 0 0 1-7.317 3.134 307 307 0 0 1-8.072 3.116 318 318 0 0 1-8.738 3.077 386 386 0 0 1-9.273 2.987 436.282 436.282 0 0 1-19.73 5.563c-3.361.87-8.487 2.094-10.187 2.513s1.709-.38 0 0"/></g><g stroke-linecap="round"><path fill="#ffc9c9" stroke-width="0" d="M157.237 262.564a458 458 0 0 1-10.012-3.167 436 436 0 0 1-19.331-6.824 386 386 0 0 1-9.061-3.579 321 321 0 0 1-8.521-3.634 307 307 0 0 1-7.854-3.63 199 199 0 0 1-7.1-3.6c-2.234-1.18-4.331-2.36-6.26-3.511a102 102 0 0 1-5.339-3.378 68 68 0 0 1-4.337-3.199c-1.274-1.035-2.38-2.04-3.3-2.999-.912-.956-1.658-1.873-2.21-2.74-.551-.868-.918-1.69-1.09-2.464-.176-.764-.167-1.482.034-2.143.197-.65.59-1.252 1.16-1.79.574-.546 1.336-1.025 2.277-1.44.941-.414 2.07-.76 3.36-1.048 1.3-.285 2.777-.505 4.411-.656a64 64 0 0 1 5.384-.246c1.958-.011 4.076.037 6.316.163 2.243.117 4.642.303 7.155.565 2.505.249 5.156.573 7.902.958 2.734.392 5.61.837 8.546 1.353 2.95.51 6.002 1.092 9.103 1.72 3.101.63 6.296 1.328 9.52 2.068 3.231.751 6.533 1.545 9.84 2.393s6.67 1.745 10.02 2.69a458 458 0 0 1 20.084 6.102 436 436 0 0 1 19.33 6.824c3.091 1.18 6.135 2.376 9.062 3.579a318 318 0 0 1 8.521 3.634 274 274 0 0 1 7.854 3.63 199 199 0 0 1 7.1 3.6c2.234 1.18 4.331 2.36 6.26 3.51 1.932 1.142 3.718 2.28 5.339 3.379a64 64 0 0 1 4.337 3.199c1.274 1.035 2.38 2.04 3.3 2.999.912.956 1.658 1.872 2.21 2.74.55.868.918 1.69 1.09 2.464.176.764.167 1.482-.031 2.133-.2.66-.593 1.262-1.163 1.8-.574.546-1.336 1.025-2.277 1.44-.942.414-2.071.76-3.36 1.048-1.3.285-2.777.505-4.412.656a68 68 0 0 1-5.384.245c-1.957.012-4.075-.036-6.315-.163a140 140 0 0 1-7.155-.564c-2.506-.25-5.156-.574-7.902-.959a307 307 0 0 1-8.546-1.352c-2.95-.51-5.992-1.09-9.103-1.721a386 386 0 0 1-9.52-2.067 436.282 436.282 0 0 1-19.86-5.083c-3.344-.932-8.392-2.445-10.072-2.935s1.668.528 0 0"/><path fill="none" stroke="transparent" stroke-width="4" d="M157.237 262.564a458 458 0 0 1-10.012-3.167 436 436 0 0 1-19.331-6.824 386 386 0 0 1-9.061-3.579 321 321 0 0 1-8.521-3.634 307 307 0 0 1-7.854-3.63 199 199 0 0 1-7.1-3.6c-2.234-1.18-4.331-2.36-6.26-3.511a102 102 0 0 1-5.339-3.378 68 68 0 0 1-4.337-3.199c-1.274-1.035-2.38-2.04-3.3-2.999-.912-.956-1.658-1.873-2.21-2.74-.551-.868-.918-1.69-1.09-2.464-.176-.764-.167-1.482.034-2.143.197-.65.59-1.252 1.16-1.79.574-.546 1.336-1.025 2.277-1.44.941-.414 2.07-.76 3.36-1.048 1.3-.285 2.777-.505 4.411-.656a64 64 0 0 1 5.384-.246c1.958-.011 4.076.037 6.316.163 2.243.117 4.642.303 7.155.565 2.505.249 5.156.573 7.902.958 2.734.392 5.61.837 8.546 1.353 2.95.51 6.002 1.092 9.103 1.72 3.101.63 6.296 1.328 9.52 2.068 3.231.751 6.533 1.545 9.84 2.393s6.67 1.745 10.02 2.69a458 458 0 0 1 20.084 6.102 436 436 0 0 1 19.33 6.824c3.091 1.18 6.135 2.376 9.062 3.579a318 318 0 0 1 8.521 3.634 274 274 0 0 1 7.854 3.63 199 199 0 0 1 7.1 3.6c2.234 1.18 4.331 2.36 6.26 3.51 1.932 1.142 3.718 2.28 5.339 3.379a64 64 0 0 1 4.337 3.199c1.274 1.035 2.38 2.04 3.3 2.999.912.956 1.658 1.872 2.21 2.74.55.868.918 1.69 1.09 2.464.176.764.167 1.482-.031 2.133-.2.66-.593 1.262-1.163 1.8-.574.546-1.336 1.025-2.277 1.44-.942.414-2.071.76-3.36 1.048-1.3.285-2.777.505-4.412.656a68 68 0 0 1-5.384.245c-1.957.012-4.075-.036-6.315-.163a140 140 0 0 1-7.155-.564c-2.506-.25-5.156-.574-7.902-.959a307 307 0 0 1-8.546-1.352c-2.95-.51-5.992-1.09-9.103-1.721a386 386 0 0 1-9.52-2.067 436.282 436.282 0 0 1-19.86-5.083c-3.344-.932-8.392-2.445-10.072-2.935s1.668.528 0 0"/></g><g stroke-linecap="round"><path fill="#ffc9c9" stroke-width="0" d="M332.57 175.472a458 458 0 0 1-5.532 8.925 436 436 0 0 1-11.369 17.06 386 386 0 0 1-5.697 7.902 321 321 0 0 1-5.618 7.366 307 307 0 0 1-5.45 6.72 199 199 0 0 1-5.235 5.997 140 140 0 0 1-4.943 5.204 102 102 0 0 1-4.587 4.344 68 68 0 0 1-4.167 3.417c-1.317.98-2.563 1.805-3.719 2.462-1.151.648-2.223 1.146-3.2 1.467-.976.32-1.863.474-2.656.451-.783-.017-1.477-.203-2.068-.56-.582-.351-1.07-.88-1.45-1.565-.388-.69-.665-1.547-.836-2.561s-.228-2.194-.19-3.515c.044-1.329.194-2.815.45-4.437.255-1.621.62-3.387 1.085-5.279.471-1.9 1.038-3.941 1.712-6.081a140 140 0 0 1 2.306-6.796 199 199 0 0 1 2.873-7.425 274 274 0 0 1 3.413-7.95 321 321 0 0 1 3.906-8.4 386 386 0 0 1 4.345-8.72 436.282 436.282 0 0 1 9.81-18 458 458 0 0 1 10.854-17.966 436 436 0 0 1 11.369-17.06 386 386 0 0 1 5.697-7.902c1.89-2.55 3.766-5.015 5.618-7.366 1.839-2.348 3.68-4.6 5.45-6.72a199 199 0 0 1 5.235-5.997 140 140 0 0 1 4.943-5.204 102 102 0 0 1 4.587-4.344 64 64 0 0 1 4.168-3.417c1.316-.98 2.562-1.805 3.718-2.462 1.151-.648 2.223-1.146 3.2-1.467s1.864-.475 2.656-.452c.784.018 1.478.204 2.06.555.59.357 1.078.885 1.458 1.57.389.691.666 1.548.836 2.562s.228 2.194.19 3.514c-.043 1.33-.194 2.816-.449 4.437a68 68 0 0 1-1.086 5.28c-.47 1.9-1.038 3.94-1.711 6.08a140 140 0 0 1-2.307 6.797 199 199 0 0 1-2.872 7.424 307 307 0 0 1-3.413 7.951 318 318 0 0 1-3.907 8.4 386 386 0 0 1-4.344 8.72 436.282 436.282 0 0 1-9.81 18c-1.727 3.011-4.435 7.533-5.323 9.04-.888 1.509.922-1.487 0 0"/><path fill="none" stroke="transparent" stroke-width="4" d="M332.57 175.472a458 458 0 0 1-5.532 8.925 436 436 0 0 1-11.369 17.06 386 386 0 0 1-5.697 7.902 321 321 0 0 1-5.618 7.366 307 307 0 0 1-5.45 6.72 199 199 0 0 1-5.235 5.997 140 140 0 0 1-4.943 5.204 102 102 0 0 1-4.587 4.344 68 68 0 0 1-4.167 3.417c-1.317.98-2.563 1.805-3.719 2.462-1.151.648-2.223 1.146-3.2 1.467-.976.32-1.863.474-2.656.451-.783-.017-1.477-.203-2.068-.56-.582-.351-1.07-.88-1.45-1.565-.388-.69-.665-1.547-.836-2.561s-.228-2.194-.19-3.515c.044-1.329.194-2.815.45-4.437.255-1.621.62-3.387 1.085-5.279.471-1.9 1.038-3.941 1.712-6.081a140 140 0 0 1 2.306-6.796 199 199 0 0 1 2.873-7.425 274 274 0 0 1 3.413-7.95 321 321 0 0 1 3.906-8.4 386 386 0 0 1 4.345-8.72 436.282 436.282 0 0 1 9.81-18 458 458 0 0 1 10.854-17.966 436 436 0 0 1 11.369-17.06 386 386 0 0 1 5.697-7.902c1.89-2.55 3.766-5.015 5.618-7.366 1.839-2.348 3.68-4.6 5.45-6.72a199 199 0 0 1 5.235-5.997 140 140 0 0 1 4.943-5.204 102 102 0 0 1 4.587-4.344 64 64 0 0 1 4.168-3.417c1.316-.98 2.562-1.805 3.718-2.462 1.151-.648 2.223-1.146 3.2-1.467s1.864-.475 2.656-.452c.784.018 1.478.204 2.06.555.59.357 1.078.885 1.458 1.57.389.691.666 1.548.836 2.562s.228 2.194.19 3.514c-.043 1.33-.194 2.816-.449 4.437a68 68 0 0 1-1.086 5.28c-.47 1.9-1.038 3.94-1.711 6.08a140 140 0 0 1-2.307 6.797 199 199 0 0 1-2.872 7.424 307 307 0 0 1-3.413 7.951 318 318 0 0 1-3.907 8.4 386 386 0 0 1-4.344 8.72 436.282 436.282 0 0 1-9.81 18c-1.727 3.011-4.435 7.533-5.323 9.04-.888 1.509.922-1.487 0 0"/></g><g stroke-linecap="round"><path fill="#ffc9c9" stroke-width="0" d="M222.734 352.02a458 458 0 0 1-7.073 7.762 436 436 0 0 1-14.301 14.687 386 386 0 0 1-7.048 6.726c-2.32 2.152-4.621 4.24-6.873 6.212a307 307 0 0 1-6.589 5.608 199 199 0 0 1-6.245 4.937 140 140 0 0 1-5.812 4.21 102 102 0 0 1-5.305 3.43 68 68 0 0 1-4.723 2.596c-1.474.723-2.85 1.305-4.107 1.74-1.25.426-2.395.719-3.414.855-1.019.137-1.92.126-2.694-.042-.767-.161-1.415-.47-1.93-.93-.508-.452-.89-1.06-1.139-1.804-.256-.75-.371-1.643-.353-2.67.019-1.029.178-2.2.457-3.49.286-1.3.706-2.733 1.254-4.28a64 64 0 0 1 2.035-4.991c.81-1.782 1.742-3.685 2.796-5.665a140 140 0 0 1 3.513-6.26c1.277-2.17 2.682-4.44 4.184-6.771a274 274 0 0 1 4.811-7.191c1.7-2.464 3.508-4.991 5.38-7.543a386 386 0 0 1 5.868-7.776 436.282 436.282 0 0 1 12.942-15.898 458 458 0 0 1 13.96-15.675 436 436 0 0 1 14.302-14.687 386 386 0 0 1 7.048-6.726c2.326-2.16 4.621-4.24 6.873-6.212 2.237-1.971 4.46-3.849 6.588-5.608a199 199 0 0 1 6.246-4.937 140 140 0 0 1 5.812-4.21 102 102 0 0 1 5.305-3.43 64 64 0 0 1 4.723-2.596c1.474-.723 2.85-1.306 4.107-1.74 1.25-.426 2.395-.719 3.414-.855 1.019-.137 1.92-.126 2.694.042.767.161 1.415.47 1.923.923.515.459.897 1.067 1.146 1.81.256.75.371 1.644.353 2.672s-.178 2.199-.457 3.49c-.287 1.298-.707 2.732-1.255 4.28a68 68 0 0 1-2.034 4.99 102 102 0 0 1-2.796 5.665 140 140 0 0 1-3.513 6.26 199 199 0 0 1-4.184 6.771 307 307 0 0 1-4.811 7.191 318 318 0 0 1-5.38 7.543 386 386 0 0 1-5.868 7.776 436.282 436.282 0 0 1-12.942 15.898c-2.248 2.645-5.739 6.594-6.888 7.914s1.18-1.294 0 0"/><path fill="none" stroke="transparent" stroke-width="4" d="M222.734 352.02a458 458 0 0 1-7.073 7.762 436 436 0 0 1-14.301 14.687 386 386 0 0 1-7.048 6.726c-2.32 2.152-4.621 4.24-6.873 6.212a307 307 0 0 1-6.589 5.608 199 199 0 0 1-6.245 4.937 140 140 0 0 1-5.812 4.21 102 102 0 0 1-5.305 3.43 68 68 0 0 1-4.723 2.596c-1.474.723-2.85 1.305-4.107 1.74-1.25.426-2.395.719-3.414.855-1.019.137-1.92.126-2.694-.042-.767-.161-1.415-.47-1.93-.93-.508-.452-.89-1.06-1.139-1.804-.256-.75-.371-1.643-.353-2.67.019-1.029.178-2.2.457-3.49.286-1.3.706-2.733 1.254-4.28a64 64 0 0 1 2.035-4.991c.81-1.782 1.742-3.685 2.796-5.665a140 140 0 0 1 3.513-6.26c1.277-2.17 2.682-4.44 4.184-6.771a274 274 0 0 1 4.811-7.191c1.7-2.464 3.508-4.991 5.38-7.543a386 386 0 0 1 5.868-7.776 436.282 436.282 0 0 1 12.942-15.898 458 458 0 0 1 13.96-15.675 436 436 0 0 1 14.302-14.687 386 386 0 0 1 7.048-6.726c2.326-2.16 4.621-4.24 6.873-6.212 2.237-1.971 4.46-3.849 6.588-5.608a199 199 0 0 1 6.246-4.937 140 140 0 0 1 5.812-4.21 102 102 0 0 1 5.305-3.43 64 64 0 0 1 4.723-2.596c1.474-.723 2.85-1.306 4.107-1.74 1.25-.426 2.395-.719 3.414-.855 1.019-.137 1.92-.126 2.694.042.767.161 1.415.47 1.923.923.515.459.897 1.067 1.146 1.81.256.75.371 1.644.353 2.672s-.178 2.199-.457 3.49c-.287 1.298-.707 2.732-1.255 4.28a68 68 0 0 1-2.034 4.99 102 102 0 0 1-2.796 5.665 140 140 0 0 1-3.513 6.26 199 199 0 0 1-4.184 6.771 307 307 0 0 1-4.811 7.191 318 318 0 0 1-5.38 7.543 386 386 0 0 1-5.868 7.776 436.282 436.282 0 0 1-12.942 15.898c-2.248 2.645-5.739 6.594-6.888 7.914s1.18-1.294 0 0"/></g><g stroke-linecap="round"><path fill="#ffc9c9" stroke-width="0" d="M326.638 352.276c-2.4-2.548-4.79-5.146-7.111-7.727a436 436 0 0 1-13.378-15.534 386 386 0 0 1-6.081-7.61 321 321 0 0 1-5.586-7.39 307 307 0 0 1-5.01-7.056 199 199 0 0 1-4.37-6.654 140 140 0 0 1-3.684-6.159 102 102 0 0 1-2.952-5.585 68 68 0 0 1-2.172-4.933c-.59-1.531-1.05-2.953-1.372-4.243-.315-1.283-.507-2.449-.554-3.476s.044-1.923.279-2.68c.228-.75.593-1.368 1.095-1.841.495-.467 1.135-.794 1.897-.976.77-.19 1.67-.226 2.692-.117 1.022.108 2.175.369 3.436.76 1.269.4 2.66.944 4.154 1.625a64 64 0 0 1 4.793 2.465c1.704.963 3.517 2.058 5.398 3.281a140 140 0 0 1 5.927 4.048 199 199 0 0 1 6.38 4.762c2.176 1.7 4.45 3.515 6.74 5.423a321 321 0 0 1 7.043 6.02 386 386 0 0 1 7.231 6.527 436.282 436.282 0 0 1 14.703 14.286 458 458 0 0 1 14.39 15.282 436 436 0 0 1 13.377 15.533c2.095 2.56 4.14 5.112 6.082 7.611a318 318 0 0 1 5.586 7.39 274 274 0 0 1 5.009 7.056c1.565 2.29 3.033 4.52 4.37 6.653a140 140 0 0 1 3.684 6.16 102 102 0 0 1 2.952 5.585 64 64 0 0 1 2.172 4.932c.591 1.532 1.05 2.954 1.373 4.244.315 1.283.506 2.448.553 3.476q.072 1.542-.278 2.68c-.228.75-.593 1.368-1.088 1.834-.503.473-1.142.8-1.905.983-.77.19-1.669.226-2.691.117-1.023-.108-2.175-.37-3.437-.76-1.268-.4-2.66-.944-4.153-1.625a68 68 0 0 1-4.793-2.465 102 102 0 0 1-5.398-3.282 140 140 0 0 1-5.927-4.047 199 199 0 0 1-6.38-4.762 307 307 0 0 1-6.741-5.423 318 318 0 0 1-7.042-6.02 386 386 0 0 1-7.232-6.527 436.282 436.282 0 0 1-14.703-14.286c-2.437-2.472-6.064-6.295-7.278-7.555-1.215-1.26 1.185 1.288 0 0"/><path fill="none" stroke="transparent" stroke-width="4" d="M326.638 352.276c-2.4-2.548-4.79-5.146-7.111-7.727a436 436 0 0 1-13.378-15.534 386 386 0 0 1-6.081-7.61 321 321 0 0 1-5.586-7.39 307 307 0 0 1-5.01-7.056 199 199 0 0 1-4.37-6.654 140 140 0 0 1-3.684-6.159 102 102 0 0 1-2.952-5.585 68 68 0 0 1-2.172-4.933c-.59-1.531-1.05-2.953-1.372-4.243-.315-1.283-.507-2.449-.554-3.476s.044-1.923.279-2.68c.228-.75.593-1.368 1.095-1.841.495-.467 1.135-.794 1.897-.976.77-.19 1.67-.226 2.692-.117 1.022.108 2.175.369 3.436.76 1.269.4 2.66.944 4.154 1.625a64 64 0 0 1 4.793 2.465c1.704.963 3.517 2.058 5.398 3.281a140 140 0 0 1 5.927 4.048 199 199 0 0 1 6.38 4.762c2.176 1.7 4.45 3.515 6.74 5.423a321 321 0 0 1 7.043 6.02 386 386 0 0 1 7.231 6.527 436.282 436.282 0 0 1 14.703 14.286 458 458 0 0 1 14.39 15.282 436 436 0 0 1 13.377 15.533c2.095 2.56 4.14 5.112 6.082 7.611a318 318 0 0 1 5.586 7.39 274 274 0 0 1 5.009 7.056c1.565 2.29 3.033 4.52 4.37 6.653a140 140 0 0 1 3.684 6.16 102 102 0 0 1 2.952 5.585 64 64 0 0 1 2.172 4.932c.591 1.532 1.05 2.954 1.373 4.244.315 1.283.506 2.448.553 3.476q.072 1.542-.278 2.68c-.228.75-.593 1.368-1.088 1.834-.503.473-1.142.8-1.905.983-.77.19-1.669.226-2.691.117-1.023-.108-2.175-.37-3.437-.76-1.268-.4-2.66-.944-4.153-1.625a68 68 0 0 1-4.793-2.465 102 102 0 0 1-5.398-3.282 140 140 0 0 1-5.927-4.047 199 199 0 0 1-6.38-4.762 307 307 0 0 1-6.741-5.423 318 318 0 0 1-7.042-6.02 386 386 0 0 1-7.232-6.527 436.282 436.282 0 0 1-14.703-14.286c-2.437-2.472-6.064-6.295-7.278-7.555-1.215-1.26 1.185 1.288 0 0"/></g><g stroke-linecap="round"><path fill="#ffc9c9" stroke-width="0" d="M207.759 185.352a458 458 0 0 1-5.202-9.122 436 436 0 0 1-9.56-18.134 386 386 0 0 1-4.225-8.779 321 321 0 0 1-3.79-8.453 307 307 0 0 1-3.302-7.997 199 199 0 0 1-2.77-7.463 140 140 0 0 1-2.213-6.828 102 102 0 0 1-1.626-6.104 68 68 0 0 1-1.014-5.294c-.232-1.625-.362-3.113-.387-4.443-.02-1.32.054-2.5.238-3.511.185-1.012.473-1.865.872-2.55.39-.68.884-1.201 1.48-1.55.586-.343 1.283-.52 2.067-.526q1.19-.016 2.65.488c.972.335 2.036.847 3.178 1.511 1.147.673 2.382 1.514 3.685 2.513a64 64 0 0 1 4.12 3.475 102 102 0 0 1 4.526 4.407 140 140 0 0 1 4.87 5.271 199 199 0 0 1 5.152 6.069 274 274 0 0 1 5.357 6.795 321 321 0 0 1 5.516 7.443 386 386 0 0 1 5.587 7.98 436.282 436.282 0 0 1 11.132 17.214 458 458 0 0 1 10.604 18.115 436 436 0 0 1 9.562 18.134 386 386 0 0 1 4.223 8.779 318 318 0 0 1 3.79 8.453 274 274 0 0 1 3.303 7.997 199 199 0 0 1 2.77 7.463 140 140 0 0 1 2.212 6.828c.644 2.15 1.183 4.198 1.627 6.104.44 1.899.78 3.669 1.013 5.294s.363 3.113.388 4.443c.02 1.32-.054 2.5-.239 3.511-.184 1.012-.472 1.865-.87 2.55-.39.68-.885 1.201-1.472 1.545-.595.348-1.292.524-2.076.531q-1.19.016-2.65-.488c-.972-.335-2.036-.847-3.178-1.511-1.147-.673-2.382-1.514-3.685-2.513a68 68 0 0 1-4.12-3.475 102 102 0 0 1-4.526-4.407 140 140 0 0 1-4.87-5.271 199 199 0 0 1-5.152-6.069 307 307 0 0 1-5.357-6.795 318 318 0 0 1-5.516-7.443 386 386 0 0 1-5.587-7.98 436.282 436.282 0 0 1-11.132-17.214c-1.822-2.955-4.502-7.493-5.403-8.993-.902-1.5.866 1.52 0 0"/><path fill="none" stroke="transparent" stroke-width="4" d="M207.759 185.352a458 458 0 0 1-5.202-9.122 436 436 0 0 1-9.56-18.134 386 386 0 0 1-4.225-8.779 321 321 0 0 1-3.79-8.453 307 307 0 0 1-3.302-7.997 199 199 0 0 1-2.77-7.463 140 140 0 0 1-2.213-6.828 102 102 0 0 1-1.626-6.104 68 68 0 0 1-1.014-5.294c-.232-1.625-.362-3.113-.387-4.443-.02-1.32.054-2.5.238-3.511.185-1.012.473-1.865.872-2.55.39-.68.884-1.201 1.48-1.55.586-.343 1.283-.52 2.067-.526q1.19-.016 2.65.488c.972.335 2.036.847 3.178 1.511 1.147.673 2.382 1.514 3.685 2.513a64 64 0 0 1 4.12 3.475 102 102 0 0 1 4.526 4.407 140 140 0 0 1 4.87 5.271 199 199 0 0 1 5.152 6.069 274 274 0 0 1 5.357 6.795 321 321 0 0 1 5.516 7.443 386 386 0 0 1 5.587 7.98 436.282 436.282 0 0 1 11.132 17.214 458 458 0 0 1 10.604 18.115 436 436 0 0 1 9.562 18.134 386 386 0 0 1 4.223 8.779 318 318 0 0 1 3.79 8.453 274 274 0 0 1 3.303 7.997 199 199 0 0 1 2.77 7.463 140 140 0 0 1 2.212 6.828c.644 2.15 1.183 4.198 1.627 6.104.44 1.899.78 3.669 1.013 5.294s.363 3.113.388 4.443c.02 1.32-.054 2.5-.239 3.511-.184 1.012-.472 1.865-.87 2.55-.39.68-.885 1.201-1.472 1.545-.595.348-1.292.524-2.076.531q-1.19.016-2.65-.488c-.972-.335-2.036-.847-3.178-1.511-1.147-.673-2.382-1.514-3.685-2.513a68 68 0 0 1-4.12-3.475 102 102 0 0 1-4.526-4.407 140 140 0 0 1-4.87-5.271 199 199 0 0 1-5.152-6.069 307 307 0 0 1-5.357-6.795 318 318 0 0 1-5.516-7.443 386 386 0 0 1-5.587-7.98 436.282 436.282 0 0 1-11.132-17.214c-1.822-2.955-4.502-7.493-5.403-8.993-.902-1.5.866 1.52 0 0"/></g><g stroke-linecap="round"><path fill="#ffc9c9" stroke-width="0" d="M183.25 313.004a458 458 0 0 1-9.545 4.376 436 436 0 0 1-18.906 7.925 386 386 0 0 1-9.117 3.433 321 321 0 0 1-8.755 3.03c-2.834.93-5.61 1.798-8.257 2.585a199 199 0 0 1-7.678 2.1 140 140 0 0 1-6.996 1.602c-2.198.452-4.286.808-6.225 1.082-1.93.27-3.727.445-5.362.543-1.639.088-3.133.086-4.46-.006-1.317-.096-2.485-.275-3.476-.547-.992-.273-1.816-.636-2.463-1.093-.643-.448-1.119-.987-1.413-1.61-.29-.615-.405-1.325-.343-2.106.058-.79.301-1.658.72-2.597.42-.938 1.024-1.954 1.786-3.033.771-1.083 1.718-2.238 2.828-3.448a64 64 0 0 1 3.824-3.798 102 102 0 0 1 4.79-4.12c1.74-1.42 3.643-2.893 5.68-4.386a199 199 0 0 1 6.5-4.597 274 274 0 0 1 7.24-4.737 321 321 0 0 1 7.9-4.838 386 386 0 0 1 8.443-4.861 436.282 436.282 0 0 1 18.13-9.57 458 458 0 0 1 18.978-8.967 436 436 0 0 1 18.906-7.924 386 386 0 0 1 9.117-3.434 318 318 0 0 1 8.755-3.03c2.83-.938 5.61-1.798 8.257-2.584a199 199 0 0 1 7.678-2.1 140 140 0 0 1 6.996-1.603c2.198-.452 4.286-.808 6.224-1.082 1.93-.27 3.723-.453 5.363-.542 1.639-.089 3.133-.087 4.46.006 1.317.096 2.485.274 3.476.547.992.272 1.816.635 2.463 1.093.643.448 1.119.986 1.409 1.601.295.624.409 1.333.346 2.115-.057.79-.3 1.657-.72 2.596-.419.94-1.023 1.954-1.785 3.033-.771 1.084-1.719 2.239-2.828 3.449a68 68 0 0 1-3.825 3.797 102 102 0 0 1-4.788 4.12 140 140 0 0 1-5.681 4.387 199 199 0 0 1-6.5 4.597 307 307 0 0 1-7.24 4.736 318 318 0 0 1-7.9 4.838 386 386 0 0 1-8.443 4.862 436.282 436.282 0 0 1-18.13 9.57c-3.102 1.555-7.859 3.824-9.432 4.59-1.574.765 1.59-.73 0 0"/><path fill="none" stroke="transparent" stroke-width="4" d="M183.25 313.004a458 458 0 0 1-9.545 4.376 436 436 0 0 1-18.906 7.925 386 386 0 0 1-9.117 3.433 321 321 0 0 1-8.755 3.03c-2.834.93-5.61 1.798-8.257 2.585a199 199 0 0 1-7.678 2.1 140 140 0 0 1-6.996 1.602c-2.198.452-4.286.808-6.225 1.082-1.93.27-3.727.445-5.362.543-1.639.088-3.133.086-4.46-.006-1.317-.096-2.485-.275-3.476-.547-.992-.273-1.816-.636-2.463-1.093-.643-.448-1.119-.987-1.413-1.61-.29-.615-.405-1.325-.343-2.106.058-.79.301-1.658.72-2.597.42-.938 1.024-1.954 1.786-3.033.771-1.083 1.718-2.238 2.828-3.448a64 64 0 0 1 3.824-3.798 102 102 0 0 1 4.79-4.12c1.74-1.42 3.643-2.893 5.68-4.386a199 199 0 0 1 6.5-4.597 274 274 0 0 1 7.24-4.737 321 321 0 0 1 7.9-4.838 386 386 0 0 1 8.443-4.861 436.282 436.282 0 0 1 18.13-9.57 458 458 0 0 1 18.978-8.967 436 436 0 0 1 18.906-7.924 386 386 0 0 1 9.117-3.434 318 318 0 0 1 8.755-3.03c2.83-.938 5.61-1.798 8.257-2.584a199 199 0 0 1 7.678-2.1 140 140 0 0 1 6.996-1.603c2.198-.452 4.286-.808 6.224-1.082 1.93-.27 3.723-.453 5.363-.542 1.639-.089 3.133-.087 4.46.006 1.317.096 2.485.274 3.476.547.992.272 1.816.635 2.463 1.093.643.448 1.119.986 1.409 1.601.295.624.409 1.333.346 2.115-.057.79-.3 1.657-.72 2.596-.419.94-1.023 1.954-1.785 3.033-.771 1.084-1.719 2.239-2.828 3.449a68 68 0 0 1-3.825 3.797 102 102 0 0 1-4.788 4.12 140 140 0 0 1-5.681 4.387 199 199 0 0 1-6.5 4.597 307 307 0 0 1-7.24 4.736 318 318 0 0 1-7.9 4.838 386 386 0 0 1-8.443 4.862 436.282 436.282 0 0 1-18.13 9.57c-3.102 1.555-7.859 3.824-9.432 4.59-1.574.765 1.59-.73 0 0"/></g><g stroke-linecap="round"><path fill="#ffc9c9" stroke-width="0" d="M378.474 310.414c-3.4-.834-6.818-1.715-10.169-2.62a436 436 0 0 1-19.673-5.765c-3.15-1.01-6.254-2.04-9.241-3.082s-5.91-2.1-8.706-3.167a307 307 0 0 1-8.04-3.199 199 199 0 0 1-7.285-3.209 140 140 0 0 1-6.44-3.166 102 102 0 0 1-5.515-3.084 68 68 0 0 1-4.504-2.959c-1.328-.964-2.487-1.908-3.458-2.815-.962-.906-1.757-1.78-2.355-2.617-.597-.837-1.008-1.638-1.223-2.4-.216-.754-.246-1.472-.082-2.142.163-.66.521-1.283 1.062-1.85.543-.577 1.278-1.097 2.196-1.562.917-.465 2.026-.872 3.298-1.229 1.281-.355 2.745-.655 4.369-.894a64 64 0 0 1 5.363-.537c1.954-.118 4.071-.185 6.315-.18 2.245-.005 4.652.05 7.175.175 2.515.113 5.179.293 7.942.529 2.752.243 5.647.531 8.607.887 2.973.349 6.052.765 9.183 1.224 3.13.46 6.359.985 9.618 1.548 3.267.575 6.607 1.19 9.955 1.856 3.347.668 6.756 1.38 10.152 2.142a458 458 0 0 1 20.385 5.004 436 436 0 0 1 19.672 5.766c3.15 1.01 6.255 2.04 9.242 3.081 2.998 1.045 5.91 2.1 8.706 3.167a274 274 0 0 1 8.04 3.199 199 199 0 0 1 7.285 3.209 140 140 0 0 1 6.44 3.166 102 102 0 0 1 5.514 3.084 64 64 0 0 1 4.505 2.959c1.328.964 2.487 1.908 3.458 2.815.962.906 1.757 1.78 2.355 2.617.597.837 1.008 1.638 1.222 2.4.217.754.247 1.472.085 2.132-.165.67-.523 1.293-1.064 1.86-.544.577-1.279 1.097-2.196 1.562s-2.026.872-3.298 1.23c-1.281.354-2.745.654-4.37.893-1.62.23-3.417.418-5.362.538-1.954.117-4.071.184-6.315.18-2.245.004-4.652-.051-7.175-.176-2.515-.113-5.18-.293-7.943-.529a307 307 0 0 1-8.606-.887 318 318 0 0 1-9.183-1.224c-3.13-.46-6.359-.984-9.618-1.548a436.282 436.282 0 0 1-20.107-3.998c-3.389-.75-8.512-1.986-10.216-2.384-1.705-.398 1.695.437 0 0"/><path fill="none" stroke="transparent" stroke-width="4" d="M378.474 310.414c-3.4-.834-6.818-1.715-10.169-2.62a436 436 0 0 1-19.673-5.765c-3.15-1.01-6.254-2.04-9.241-3.082s-5.91-2.1-8.706-3.167a307 307 0 0 1-8.04-3.199 199 199 0 0 1-7.285-3.209 140 140 0 0 1-6.44-3.166 102 102 0 0 1-5.515-3.084 68 68 0 0 1-4.504-2.959c-1.328-.964-2.487-1.908-3.458-2.815-.962-.906-1.757-1.78-2.355-2.617-.597-.837-1.008-1.638-1.223-2.4-.216-.754-.246-1.472-.082-2.142.163-.66.521-1.283 1.062-1.85.543-.577 1.278-1.097 2.196-1.562.917-.465 2.026-.872 3.298-1.229 1.281-.355 2.745-.655 4.369-.894a64 64 0 0 1 5.363-.537c1.954-.118 4.071-.185 6.315-.18 2.245-.005 4.652.05 7.175.175 2.515.113 5.179.293 7.942.529 2.752.243 5.647.531 8.607.887 2.973.349 6.052.765 9.183 1.224 3.13.46 6.359.985 9.618 1.548 3.267.575 6.607 1.19 9.955 1.856 3.347.668 6.756 1.38 10.152 2.142a458 458 0 0 1 20.385 5.004 436 436 0 0 1 19.672 5.766c3.15 1.01 6.255 2.04 9.242 3.081 2.998 1.045 5.91 2.1 8.706 3.167a274 274 0 0 1 8.04 3.199 199 199 0 0 1 7.285 3.209 140 140 0 0 1 6.44 3.166 102 102 0 0 1 5.514 3.084 64 64 0 0 1 4.505 2.959c1.328.964 2.487 1.908 3.458 2.815.962.906 1.757 1.78 2.355 2.617.597.837 1.008 1.638 1.222 2.4.217.754.247 1.472.085 2.132-.165.67-.523 1.293-1.064 1.86-.544.577-1.279 1.097-2.196 1.562s-2.026.872-3.298 1.23c-1.281.354-2.745.654-4.37.893-1.62.23-3.417.418-5.362.538-1.954.117-4.071.184-6.315.18-2.245.004-4.652-.051-7.175-.176-2.515-.113-5.18-.293-7.943-.529a307 307 0 0 1-8.606-.887 318 318 0 0 1-9.183-1.224c-3.13-.46-6.359-.984-9.618-1.548a436.282 436.282 0 0 1-20.107-3.998c-3.389-.75-8.512-1.986-10.216-2.384-1.705-.398 1.695.437 0 0"/></g><g stroke-linecap="round"><path fill="#ffc9c9" stroke-width="0" d="M178.468 224.953a458 458 0 0 1-8.491-6.177 436 436 0 0 1-16.171-12.6 386 386 0 0 1-7.46-6.266 321 321 0 0 1-6.93-6.148c-2.199-2.016-4.315-4.01-6.298-5.933a199 199 0 0 1-5.593-5.664 140 140 0 0 1-4.824-5.315 102 102 0 0 1-3.993-4.896 68 68 0 0 1-3.1-4.409c-.88-1.385-1.61-2.689-2.18-3.89-.56-1.196-.977-2.302-1.225-3.3s-.336-1.893-.254-2.682c.076-.78.312-1.458.712-2.02.393-.555.956-1.002 1.668-1.33.717-.337 1.592-.55 2.616-.645s2.205-.065 3.519.07c1.322.142 2.793.402 4.391.777 1.599.374 3.332.87 5.185 1.474 1.86.61 3.853 1.326 5.938 2.156 2.09.822 4.307 1.759 6.607 2.803a199 199 0 0 1 7.19 3.414 274 274 0 0 1 7.677 3.992 321 321 0 0 1 8.088 4.518c2.742 1.579 5.55 3.254 8.375 4.978a436.282 436.282 0 0 1 17.225 11.116 458 458 0 0 1 17.113 12.153 436 436 0 0 1 16.17 12.6 386 386 0 0 1 7.46 6.266 318 318 0 0 1 6.93 6.148 274 274 0 0 1 6.299 5.932 199 199 0 0 1 5.593 5.665 140 140 0 0 1 4.824 5.314c1.47 1.695 2.803 3.34 3.992 4.896a64 64 0 0 1 3.1 4.41c.88 1.385 1.61 2.688 2.18 3.89.56 1.196.978 2.301 1.226 3.3q.374 1.497.254 2.681c-.076.78-.313 1.459-.706 2.013-.4.563-.962 1.01-1.674 1.338q-1.079.504-2.616.645c-1.024.094-2.205.065-3.52-.071-1.321-.142-2.793-.402-4.39-.776a68 68 0 0 1-5.185-1.474c-1.86-.61-3.854-1.326-5.938-2.156a140 140 0 0 1-6.607-2.803 199 199 0 0 1-7.191-3.415 307 307 0 0 1-7.677-3.992 318 318 0 0 1-8.088-4.517 386 386 0 0 1-8.374-4.978 436.282 436.282 0 0 1-17.225-11.116c-2.875-1.944-7.184-4.979-8.622-5.976s1.415 1.03 0 0"/><path fill="none" stroke="transparent" stroke-width="4" d="M178.468 224.953a458 458 0 0 1-8.491-6.177 436 436 0 0 1-16.171-12.6 386 386 0 0 1-7.46-6.266 321 321 0 0 1-6.93-6.148c-2.199-2.016-4.315-4.01-6.298-5.933a199 199 0 0 1-5.593-5.664 140 140 0 0 1-4.824-5.315 102 102 0 0 1-3.993-4.896 68 68 0 0 1-3.1-4.409c-.88-1.385-1.61-2.689-2.18-3.89-.56-1.196-.977-2.302-1.225-3.3s-.336-1.893-.254-2.682c.076-.78.312-1.458.712-2.02.393-.555.956-1.002 1.668-1.33.717-.337 1.592-.55 2.616-.645s2.205-.065 3.519.07c1.322.142 2.793.402 4.391.777 1.599.374 3.332.87 5.185 1.474 1.86.61 3.853 1.326 5.938 2.156 2.09.822 4.307 1.759 6.607 2.803a199 199 0 0 1 7.19 3.414 274 274 0 0 1 7.677 3.992 321 321 0 0 1 8.088 4.518c2.742 1.579 5.55 3.254 8.375 4.978a436.282 436.282 0 0 1 17.225 11.116 458 458 0 0 1 17.113 12.153 436 436 0 0 1 16.17 12.6 386 386 0 0 1 7.46 6.266 318 318 0 0 1 6.93 6.148 274 274 0 0 1 6.299 5.932 199 199 0 0 1 5.593 5.665 140 140 0 0 1 4.824 5.314c1.47 1.695 2.803 3.34 3.992 4.896a64 64 0 0 1 3.1 4.41c.88 1.385 1.61 2.688 2.18 3.89.56 1.196.978 2.301 1.226 3.3q.374 1.497.254 2.681c-.076.78-.313 1.459-.706 2.013-.4.563-.962 1.01-1.674 1.338q-1.079.504-2.616.645c-1.024.094-2.205.065-3.52-.071-1.321-.142-2.793-.402-4.39-.776a68 68 0 0 1-5.185-1.474c-1.86-.61-3.854-1.326-5.938-2.156a140 140 0 0 1-6.607-2.803 199 199 0 0 1-7.191-3.415 307 307 0 0 1-7.677-3.992 318 318 0 0 1-8.088-4.517 386 386 0 0 1-8.374-4.978 436.282 436.282 0 0 1-17.225-11.116c-2.875-1.944-7.184-4.979-8.622-5.976s1.415 1.03 0 0"/></g><g stroke-linecap="round"><path fill="#ffc9c9" stroke-width="0" d="M364.774 213.199a458 458 0 0 1-9.35 4.776 436 436 0 0 1-18.555 8.718 386 386 0 0 1-8.963 3.816 321 321 0 0 1-8.62 3.398 307 307 0 0 1-8.14 2.932c-2.625.893-5.167 1.71-7.582 2.424-2.419.728-4.74 1.36-6.922 1.897-2.176.544-4.247.988-6.173 1.344a68 68 0 0 1-5.334.77c-1.634.157-3.127.218-4.456.182-1.32-.04-2.495-.169-3.497-.4q-1.505-.343-2.507-.987c-.661-.42-1.16-.938-1.48-1.55-.316-.601-.46-1.305-.431-2.088.024-.793.23-1.669.61-2.625.378-.956.94-1.996 1.655-3.106.725-1.115 1.622-2.31 2.68-3.565a64 64 0 0 1 3.66-3.956 102 102 0 0 1 4.61-4.32 140 140 0 0 1 5.49-4.622 199 199 0 0 1 6.299-4.868 274 274 0 0 1 7.033-5.039 321 321 0 0 1 7.689-5.168c2.649-1.73 5.414-3.477 8.229-5.215a436.282 436.282 0 0 1 17.708-10.33 458 458 0 0 1 18.582-9.76 436 436 0 0 1 18.554-8.719 386 386 0 0 1 8.963-3.816 318 318 0 0 1 8.619-3.397 274 274 0 0 1 8.14-2.932c2.626-.894 5.168-1.71 7.582-2.424 2.42-.729 4.741-1.361 6.923-1.897 2.176-.544 4.247-.988 6.172-1.345 1.917-.351 3.7-.61 5.335-.768s3.126-.22 4.456-.184c1.32.041 2.494.17 3.496.4q1.506.344 2.507.988c.662.42 1.16.938 1.476 1.54.32.611.465 1.315.436 2.098q-.039 1.19-.61 2.625c-.379.955-.94 1.996-1.655 3.106-.725 1.115-1.623 2.309-2.68 3.565a68 68 0 0 1-3.66 3.956 102 102 0 0 1-4.61 4.319 140 140 0 0 1-5.49 4.623 199 199 0 0 1-6.299 4.868 307 307 0 0 1-7.034 5.039 318 318 0 0 1-7.688 5.168 386 386 0 0 1-8.229 5.215 436.282 436.282 0 0 1-17.708 10.33c-3.034 1.684-7.69 4.152-9.23 4.984s1.558-.797 0 0"/><path fill="none" stroke="transparent" stroke-width="4" d="M364.774 213.199a458 458 0 0 1-9.35 4.776 436 436 0 0 1-18.555 8.718 386 386 0 0 1-8.963 3.816 321 321 0 0 1-8.62 3.398 307 307 0 0 1-8.14 2.932c-2.625.893-5.167 1.71-7.582 2.424-2.419.728-4.74 1.36-6.922 1.897-2.176.544-4.247.988-6.173 1.344a68 68 0 0 1-5.334.77c-1.634.157-3.127.218-4.456.182-1.32-.04-2.495-.169-3.497-.4q-1.505-.343-2.507-.987c-.661-.42-1.16-.938-1.48-1.55-.316-.601-.46-1.305-.431-2.088.024-.793.23-1.669.61-2.625.378-.956.94-1.996 1.655-3.106.725-1.115 1.622-2.31 2.68-3.565a64 64 0 0 1 3.66-3.956 102 102 0 0 1 4.61-4.32 140 140 0 0 1 5.49-4.622 199 199 0 0 1 6.299-4.868 274 274 0 0 1 7.033-5.039 321 321 0 0 1 7.689-5.168c2.649-1.73 5.414-3.477 8.229-5.215a436.282 436.282 0 0 1 17.708-10.33 458 458 0 0 1 18.582-9.76 436 436 0 0 1 18.554-8.719 386 386 0 0 1 8.963-3.816 318 318 0 0 1 8.619-3.397 274 274 0 0 1 8.14-2.932c2.626-.894 5.168-1.71 7.582-2.424 2.42-.729 4.741-1.361 6.923-1.897 2.176-.544 4.247-.988 6.172-1.345 1.917-.351 3.7-.61 5.335-.768s3.126-.22 4.456-.184c1.32.041 2.494.17 3.496.4q1.506.344 2.507.988c.662.42 1.16.938 1.476 1.54.32.611.465 1.315.436 2.098q-.039 1.19-.61 2.625c-.379.955-.94 1.996-1.655 3.106-.725 1.115-1.623 2.309-2.68 3.565a68 68 0 0 1-3.66 3.956 102 102 0 0 1-4.61 4.319 140 140 0 0 1-5.49 4.623 199 199 0 0 1-6.299 4.868 307 307 0 0 1-7.034 5.039 318 318 0 0 1-7.688 5.168 386 386 0 0 1-8.229 5.215 436.282 436.282 0 0 1-17.708 10.33c-3.034 1.684-7.69 4.152-9.23 4.984s1.558-.797 0 0"/></g><path fill="none" stroke="#e03131" stroke-linecap="round" stroke-width="4" d="M286.324 72.69c0 1.01-.09 2.03-.26 3.02-.18.99-.44 1.99-.79 2.93a17.2 17.2 0 0 1-3.02 5.23c-.64.77-1.37 1.5-2.14 2.14a17.185 17.185 0 0 1-5.23 3.02c-.94.35-1.94.61-2.93.79-.99.17-2.01.26-3.02.26-1 0-2.02-.09-3.01-.26-.99-.18-1.99-.44-2.93-.79a17.2 17.2 0 0 1-5.23-3.02c-.77-.64-1.5-1.37-2.14-2.14a17.185 17.185 0 0 1-3.02-5.23c-.35-.94-.61-1.94-.79-2.93-.17-.99-.26-2.01-.26-3.02 0-1 .09-2.02.26-3.01.18-.99.44-1.99.79-2.93a17.2 17.2 0 0 1 3.02-5.23c.64-.77 1.37-1.5 2.14-2.14a17.185 17.185 0 0 1 5.23-3.02c.94-.35 1.94-.61 2.93-.79.99-.17 2.01-.26 3.01-.26 1.01 0 2.03.09 3.02.26.99.18 1.99.44 2.93.79a17.2 17.2 0 0 1 5.23 3.02c.77.64 1.5 1.37 2.14 2.14a17.185 17.185 0 0 1 3.02 5.23c.35.94.61 1.94.79 2.93.17.99.22 2.51.26 3.01.04.51.04-.5 0 0"/><text y="33.121" fill="#e03131" dominant-baseline="alphabetic" font-family="Helvetica, Segoe UI Emoji" font-size="36" style="white-space:pre" transform="translate(258.79 10)">1</text><text y="33.121" fill="#e03131" dominant-baseline="alphabetic" font-family="Helvetica, Segoe UI Emoji" font-size="36" style="white-space:pre" transform="translate(366.29 33.217)">2</text><path fill="none" stroke="#e03131" stroke-linecap="round" stroke-width="4" d="M377.37 93.145c0 1.01-.09 2.03-.26 3.02-.18.99-.44 1.99-.79 2.93a17.2 17.2 0 0 1-3.02 5.23c-.64.77-1.37 1.5-2.14 2.14a17.185 17.185 0 0 1-5.23 3.02c-.94.35-1.94.61-2.93.79-.99.17-2.01.26-3.02.26-1 0-2.02-.09-3.01-.26-.99-.18-1.99-.44-2.93-.79a17.2 17.2 0 0 1-5.23-3.02c-.77-.64-1.5-1.37-2.14-2.14a17.185 17.185 0 0 1-3.02-5.23c-.35-.94-.61-1.94-.79-2.93-.17-.99-.26-2.01-.26-3.02 0-1 .09-2.02.26-3.01.18-.99.44-1.99.79-2.93a17.2 17.2 0 0 1 3.02-5.23c.64-.77 1.37-1.5 2.14-2.14a17.185 17.185 0 0 1 5.23-3.02c.94-.35 1.94-.61 2.93-.79.99-.17 2.01-.26 3.01-.26 1.01 0 2.03.09 3.02.26.99.18 1.99.44 2.93.79a17.2 17.2 0 0 1 5.23 3.02c.77.64 1.5 1.37 2.14 2.14a17.185 17.185 0 0 1 3.02 5.23c.35.94.61 1.94.79 2.93.17.99.22 2.51.26 3.01.04.51.04-.5 0 0M447.143 155.124c0 1.01-.09 2.03-.26 3.02-.18.99-.44 1.99-.79 2.93a17.2 17.2 0 0 1-3.02 5.23c-.64.77-1.37 1.5-2.14 2.14a17.185 17.185 0 0 1-5.23 3.02c-.94.35-1.94.61-2.93.79-.99.17-2.01.26-3.02.26-1 0-2.02-.09-3.01-.26-.99-.18-1.99-.44-2.93-.79a17.2 17.2 0 0 1-5.23-3.02c-.77-.64-1.5-1.37-2.14-2.14a17.185 17.185 0 0 1-3.02-5.23c-.35-.94-.61-1.94-.79-2.93-.17-.99-.26-2.01-.26-3.02 0-1 .09-2.02.26-3.01.18-.99.44-1.99.79-2.93a17.2 17.2 0 0 1 3.02-5.23c.64-.77 1.37-1.5 2.14-2.14a17.185 17.185 0 0 1 5.23-3.02c.94-.35 1.94-.61 2.93-.79.99-.17 2.01-.26 3.01-.26 1.01 0 2.03.09 3.02.26.99.18 1.99.44 2.93.79a17.2 17.2 0 0 1 5.23 3.02c.77.64 1.5 1.37 2.14 2.14a17.185 17.185 0 0 1 3.02 5.23c.35.94.61 1.94.79 2.93.17.99.22 2.51.26 3.01.04.51.04-.5 0 0M469.171 220.462c0 1.01-.09 2.03-.26 3.02-.18.99-.44 1.99-.79 2.93a17.2 17.2 0 0 1-3.02 5.23c-.64.77-1.37 1.5-2.14 2.14a17.185 17.185 0 0 1-5.23 3.02c-.94.35-1.94.61-2.93.79-.99.17-2.01.26-3.02.26-1 0-2.02-.09-3.01-.26-.99-.18-1.99-.44-2.93-.79a17.2 17.2 0 0 1-5.23-3.02c-.77-.64-1.5-1.37-2.14-2.14a17.185 17.185 0 0 1-3.02-5.23c-.35-.94-.61-1.94-.79-2.93-.17-.99-.26-2.01-.26-3.02 0-1 .09-2.02.26-3.01.18-.99.44-1.99.79-2.93a17.2 17.2 0 0 1 3.02-5.23c.64-.77 1.37-1.5 2.14-2.14a17.185 17.185 0 0 1 5.23-3.02c.94-.35 1.94-.61 2.93-.79.99-.17 2.01-.26 3.01-.26 1.01 0 2.03.09 3.02.26.99.18 1.99.44 2.93.79a17.2 17.2 0 0 1 5.23 3.02c.77.64 1.5 1.37 2.14 2.14a17.185 17.185 0 0 1 3.02 5.23c.35.94.61 1.94.79 2.93.17.99.22 2.51.26 3.01.04.51.04-.5 0 0M481.788 313.574c0 1.01-.09 2.03-.26 3.02-.18.99-.44 1.99-.79 2.93a17.2 17.2 0 0 1-3.02 5.23c-.64.77-1.37 1.5-2.14 2.14a17.185 17.185 0 0 1-5.23 3.02c-.94.35-1.94.61-2.93.79-.99.17-2.01.26-3.02.26-1 0-2.02-.09-3.01-.26-.99-.18-1.99-.44-2.93-.79a17.2 17.2 0 0 1-5.23-3.02c-.77-.64-1.5-1.37-2.14-2.14a17.185 17.185 0 0 1-3.02-5.23c-.35-.94-.61-1.94-.79-2.93-.17-.99-.26-2.01-.26-3.02 0-1 .09-2.02.26-3.01.18-.99.44-1.99.79-2.93a17.2 17.2 0 0 1 3.02-5.23c.64-.77 1.37-1.5 2.14-2.14a17.185 17.185 0 0 1 5.23-3.02c.94-.35 1.94-.61 2.93-.79.99-.17 2.01-.26 3.01-.26 1.01 0 2.03.09 3.02.26.99.18 1.99.44 2.93.79a17.2 17.2 0 0 1 5.23 3.02c.77.64 1.5 1.37 2.14 2.14a17.185 17.185 0 0 1 3.02 5.23c.35.94.61 1.94.79 2.93.17.99.22 2.51.26 3.01.04.51.04-.5 0 0M414.367 401.101c0 1.01-.09 2.03-.26 3.02-.18.99-.44 1.99-.79 2.93a17.2 17.2 0 0 1-3.02 5.23c-.64.77-1.37 1.5-2.14 2.14a17.185 17.185 0 0 1-5.23 3.02c-.94.35-1.94.61-2.93.79-.99.17-2.01.26-3.02.26-1 0-2.02-.09-3.01-.26-.99-.18-1.99-.44-2.93-.79a17.2 17.2 0 0 1-5.23-3.02c-.77-.64-1.5-1.37-2.14-2.14a17.185 17.185 0 0 1-3.02-5.23c-.35-.94-.61-1.94-.79-2.93-.17-.99-.26-2.01-.26-3.02 0-1 .09-2.02.26-3.01.18-.99.44-1.99.79-2.93a17.2 17.2 0 0 1 3.02-5.23c.64-.77 1.37-1.5 2.14-2.14a17.185 17.185 0 0 1 5.23-3.02c.94-.35 1.94-.61 2.93-.79.99-.17 2.01-.26 3.01-.26 1.01 0 2.03.09 3.02.26.99.18 1.99.44 2.93.79a17.2 17.2 0 0 1 5.23 3.02c.77.64 1.5 1.37 2.14 2.14a17.185 17.185 0 0 1 3.02 5.23c.35.94.61 1.94.79 2.93.17.99.22 2.51.26 3.01.04.51.04-.5 0 0M291.522 440.464c0 1.01-.09 2.03-.26 3.02-.18.99-.44 1.99-.79 2.93a17.2 17.2 0 0 1-3.02 5.23c-.64.77-1.37 1.5-2.14 2.14a17.185 17.185 0 0 1-5.23 3.02c-.94.35-1.94.61-2.93.79-.99.17-2.01.26-3.02.26-1 0-2.02-.09-3.01-.26-.99-.18-1.99-.44-2.93-.79a17.2 17.2 0 0 1-5.23-3.02c-.77-.64-1.5-1.37-2.14-2.14a17.185 17.185 0 0 1-3.02-5.23c-.35-.94-.61-1.94-.79-2.93-.17-.99-.26-2.01-.26-3.02 0-1 .09-2.02.26-3.01.18-.99.44-1.99.79-2.93a17.2 17.2 0 0 1 3.02-5.23c.64-.77 1.37-1.5 2.14-2.14a17.185 17.185 0 0 1 5.23-3.02c.94-.35 1.94-.61 2.93-.79.99-.17 2.01-.26 3.01-.26 1.01 0 2.03.09 3.02.26.99.18 1.99.44 2.93.79a17.2 17.2 0 0 1 5.23 3.02c.77.64 1.5 1.37 2.14 2.14a17.185 17.185 0 0 1 3.02 5.23c.35.94.61 1.94.79 2.93.17.99.22 2.51.26 3.01.04.51.04-.5 0 0M169.22 402.592c0 1.01-.09 2.03-.26 3.02-.18.99-.44 1.99-.79 2.93a17.2 17.2 0 0 1-3.02 5.23c-.64.77-1.37 1.5-2.14 2.14a17.185 17.185 0 0 1-5.23 3.02c-.94.35-1.94.61-2.93.79-.99.17-2.01.26-3.02.26-1 0-2.02-.09-3.01-.26-.99-.18-1.99-.44-2.93-.79a17.2 17.2 0 0 1-5.23-3.02c-.77-.64-1.5-1.37-2.14-2.14a17.185 17.185 0 0 1-3.02-5.23c-.35-.94-.61-1.94-.79-2.93-.17-.99-.26-2.01-.26-3.02 0-1 .09-2.02.26-3.01.18-.99.44-1.99.79-2.93a17.2 17.2 0 0 1 3.02-5.23c.64-.77 1.37-1.5 2.14-2.14a17.185 17.185 0 0 1 5.23-3.02c.94-.35 1.94-.61 2.93-.79.99-.17 2.01-.26 3.01-.26 1.01 0 2.03.09 3.02.26.99.18 1.99.44 2.93.79a17.2 17.2 0 0 1 5.23 3.02c.77.64 1.5 1.37 2.14 2.14a17.185 17.185 0 0 1 3.02 5.23c.35.94.61 1.94.79 2.93.17.99.22 2.51.26 3.01.04.51.04-.5 0 0M113.6 333.945c0 1.01-.09 2.03-.26 3.02-.18.99-.44 1.99-.79 2.93a17.2 17.2 0 0 1-3.02 5.23c-.64.77-1.37 1.5-2.14 2.14a17.185 17.185 0 0 1-5.23 3.02c-.94.35-1.94.61-2.93.79-.99.17-2.01.26-3.02.26-1 0-2.02-.09-3.01-.26-.99-.18-1.99-.44-2.93-.79a17.2 17.2 0 0 1-5.23-3.02c-.77-.64-1.5-1.37-2.14-2.14a17.185 17.185 0 0 1-3.02-5.23c-.35-.94-.61-1.94-.79-2.93-.17-.99-.26-2.01-.26-3.02 0-1 .09-2.02.26-3.01.18-.99.44-1.99.79-2.93a17.2 17.2 0 0 1 3.02-5.23c.64-.77 1.37-1.5 2.14-2.14a17.185 17.185 0 0 1 5.23-3.02c.94-.35 1.94-.61 2.93-.79.99-.17 2.01-.26 3.01-.26 1.01 0 2.03.09 3.02.26.99.18 1.99.44 2.93.79a17.2 17.2 0 0 1 5.23 3.02c.77.64 1.5 1.37 2.14 2.14a17.185 17.185 0 0 1 3.02 5.23c.35.94.61 1.94.79 2.93.17.99.22 2.51.26 3.01.04.51.04-.5 0 0M90.92 218.769c0 1.01-.09 2.03-.26 3.02-.18.99-.44 1.99-.79 2.93a17.2 17.2 0 0 1-3.02 5.23c-.64.77-1.37 1.5-2.14 2.14a17.185 17.185 0 0 1-5.23 3.02c-.94.35-1.94.61-2.93.79-.99.17-2.01.26-3.02.26-1 0-2.02-.09-3.01-.26-.99-.18-1.99-.44-2.93-.79a17.2 17.2 0 0 1-5.23-3.02c-.77-.64-1.5-1.37-2.14-2.14a17.185 17.185 0 0 1-3.02-5.23c-.35-.94-.61-1.94-.79-2.93-.17-.99-.26-2.01-.26-3.02 0-1 .09-2.02.26-3.01.18-.99.44-1.99.79-2.93a17.2 17.2 0 0 1 3.02-5.23c.64-.77 1.37-1.5 2.14-2.14a17.185 17.185 0 0 1 5.23-3.02c.94-.35 1.94-.61 2.93-.79.99-.17 2.01-.26 3.01-.26 1.01 0 2.03.09 3.02.26.99.18 1.99.44 2.93.79a17.2 17.2 0 0 1 5.23 3.02c.77.64 1.5 1.37 2.14 2.14a17.185 17.185 0 0 1 3.02 5.23c.35.94.61 1.94.79 2.93.17.99.22 2.51.26 3.01.04.51.04-.5 0 0M133.89 156.426c0 1.01-.09 2.03-.26 3.02-.18.99-.44 1.99-.79 2.93a17.2 17.2 0 0 1-3.02 5.23c-.64.77-1.37 1.5-2.14 2.14a17.185 17.185 0 0 1-5.23 3.02c-.94.35-1.94.61-2.93.79-.99.17-2.01.26-3.02.26-1 0-2.02-.09-3.01-.26-.99-.18-1.99-.44-2.93-.79a17.2 17.2 0 0 1-5.23-3.02c-.77-.64-1.5-1.37-2.14-2.14a17.185 17.185 0 0 1-3.02-5.23c-.35-.94-.61-1.94-.79-2.93-.17-.99-.26-2.01-.26-3.02 0-1 .09-2.02.26-3.01.18-.99.44-1.99.79-2.93a17.2 17.2 0 0 1 3.02-5.23c.64-.77 1.37-1.5 2.14-2.14a17.185 17.185 0 0 1 5.23-3.02c.94-.35 1.94-.61 2.93-.79.99-.17 2.01-.26 3.01-.26 1.01 0 2.03.09 3.02.26.99.18 1.99.44 2.93.79a17.2 17.2 0 0 1 5.23 3.02c.77.64 1.5 1.37 2.14 2.14a17.185 17.185 0 0 1 3.02 5.23c.35.94.61 1.94.79 2.93.17.99.22 2.51.26 3.01.04.51.04-.5 0 0M195.59 97.42c0 1.01-.09 2.03-.26 3.02-.18.99-.44 1.99-.79 2.93a17.2 17.2 0 0 1-3.02 5.23c-.64.77-1.37 1.5-2.14 2.14a17.185 17.185 0 0 1-5.23 3.02c-.94.35-1.94.61-2.93.79-.99.17-2.01.26-3.02.26-1 0-2.02-.09-3.01-.26-.99-.18-1.99-.44-2.93-.79a17.2 17.2 0 0 1-5.23-3.02c-.77-.64-1.5-1.37-2.14-2.14a17.185 17.185 0 0 1-3.02-5.23c-.35-.94-.61-1.94-.79-2.93-.17-.99-.26-2.01-.26-3.02 0-1 .09-2.02.26-3.01.18-.99.44-1.99.79-2.93a17.2 17.2 0 0 1 3.02-5.23c.64-.77 1.37-1.5 2.14-2.14a17.185 17.185 0 0 1 5.23-3.02c.94-.35 1.94-.61 2.93-.79.99-.17 2.01-.26 3.01-.26 1.01 0 2.03.09 3.02.26.99.18 1.99.44 2.93.79a17.2 17.2 0 0 1 5.23 3.02c.77.64 1.5 1.37 2.14 2.14a17.185 17.185 0 0 1 3.02 5.23c.35.94.61 1.94.79 2.93.17.99.22 2.51.26 3.01.04.51.04-.5 0 0"/><text y="33.121" fill="#e03131" dominant-baseline="alphabetic" font-family="Helvetica, Segoe UI Emoji" font-size="36" style="white-space:pre" transform="translate(455.29 108.63)">3</text><text y="33.121" fill="#e03131" dominant-baseline="alphabetic" font-family="Helvetica, Segoe UI Emoji" font-size="36" style="white-space:pre" transform="translate(477.219 191.963)">4</text><text y="33.121" fill="#e03131" dominant-baseline="alphabetic" font-family="Helvetica, Segoe UI Emoji" font-size="36" style="white-space:pre" transform="translate(489.382 299.901)">5</text><text y="33.121" fill="#e03131" dominant-baseline="alphabetic" font-family="Helvetica, Segoe UI Emoji" font-size="36" style="white-space:pre" transform="translate(420.533 407.386)">6</text><text y="33.121" fill="#e03131" dominant-baseline="alphabetic" font-family="Helvetica, Segoe UI Emoji" font-size="36" style="white-space:pre" transform="translate(266.474 460.156)">7</text><text y="33.121" fill="#e03131" dominant-baseline="alphabetic" font-family="Helvetica, Segoe UI Emoji" font-size="36" style="white-space:pre" transform="translate(115.145 415.836)">8</text><text y="33.121" fill="#e03131" dominant-baseline="alphabetic" font-family="Helvetica, Segoe UI Emoji" font-size="36" style="white-space:pre" transform="translate(52.857 339.633)">9</text><text y="33.121" fill="#e03131" dominant-baseline="alphabetic" font-family="Helvetica, Segoe UI Emoji" font-size="36" style="white-space:pre" transform="translate(10 190.387)"></text><text y="33.121" fill="#e03131" dominant-baseline="alphabetic" font-family="Helvetica, Segoe UI Emoji" font-size="36" style="white-space:pre" transform="translate(58.822 98.586)"></text><text y="33.121" fill="#e03131" dominant-baseline="alphabetic" font-family="Helvetica, Segoe UI Emoji" font-size="36" style="white-space:pre" transform="translate(130.172 30.774)"></text></svg>