<svg xmlns="http://www.w3.org/2000/svg" width="431.826" height="185.097"><defs><style>@font-face{font-family:&quot;Virgil&quot;;src:url(https://excalidraw.com/Virgil.woff2)}@font-face{font-family:&quot;Cascadia&quot;;src:url(https://excalidraw.com/Cascadia.woff2)}@font-face{font-family:&quot;Assistant&quot;;src:url(https://excalidraw.com/Assistant-Regular.woff2)}</style></defs><g stroke-linecap="round"><path fill="#ccbdac" stroke-width="0" d="M22.166 78.718c3.2-7.88 9.67-17.41 16.32-20.57s16.53-.7 23.58 1.61c7.06 2.32 14.01 5.76 18.72 12.28 4.72 6.52 8.77 17.07 9.57 26.84s-1.85 22.51-4.77 31.77c-2.92 9.25-7.69 18.45-12.76 23.74-5.07 5.3-11.29 8.07-17.66 8.05-6.38-.03-14.62-3.62-20.6-8.19-5.97-4.57-11.71-11.27-15.24-19.22-3.52-7.95-9.97-16.04-5.9-28.5s21.9-38.92 30.32-46.26c8.41-7.33 20.42 1.38 20.19 2.25m-41.44 18.19c2.81-7.96 7.34-15.21 13.81-19.15 6.48-3.95 18.25-6.17 25.05-4.51s10.86 8.14 15.78 14.45c4.93 6.31 12.48 13.57 13.77 23.42s-3.14 25.69-6.02 35.66c-2.87 9.97-6.31 18.62-11.22 24.17-4.92 5.55-12.15 8.56-18.27 9.13-6.11.57-12.41-1.53-18.42-5.71-6-4.17-14.1-10.75-17.62-19.33s-3.61-22.37-3.52-32.14c.09-9.76 3.19-22.13 4.06-26.45.88-4.31.11-.28 1.19.56"/><path fill="none" stroke="#1e1e1e" d="M73.726 67.928c5.29 5.3 11.7 15.79 14.05 24.87s1.29 20.75.04 29.6c-1.26 8.85-2.95 17.21-7.56 23.51-4.6 6.3-13.32 12.28-20.08 14.29-6.77 2.02-14.06 1.01-20.5-2.2-6.43-3.21-13.93-9.55-18.11-17.07-4.18-7.51-6.58-18.85-6.97-28.03-.38-9.17 1.7-18.65 4.67-27.03 2.98-8.38 7.19-18.51 13.2-23.27s13.06-13.06 22.89-5.29 32.72 36.33 36.09 51.91c3.37 15.59-14.89 41.76-15.87 41.58m-25.1-91.18c6.25-.28 14.17 3.03 20.21 8.07 6.03 5.04 13.27 13.94 16.01 22.17 2.74 8.24 1.21 18.21.43 27.26s-.67 19.47-5.12 27.03c-4.44 7.55-14.57 15.28-21.54 18.31-6.98 3.02-14.05 3.18-20.31-.16-6.27-3.35-12.71-12.05-17.28-19.89-4.56-7.85-9.6-18.36-10.1-27.2-.49-8.84 3.98-17.67 7.13-25.86 3.15-8.18 6-17.78 11.77-23.24s19.88-8.4 22.84-9.52c2.97-1.12-5.02 2.13-5.06 2.79"/></g><g fill-opacity=".7" stroke-linecap="round" stroke-opacity=".7"><path fill="#6f4e37" stroke-width="0" d="M48.98 55.275c6.54-1.1 16.39 5.48 22.58 10.42s11.54 11.06 14.57 19.2c3.03 8.15 4.77 19.8 3.58 29.68-1.18 9.88-6.11 21.79-10.68 29.61-4.57 7.81-10.87 14.51-16.73 17.28-5.85 2.77-12.36 2.17-18.42-.67s-13.26-9.61-17.91-16.39c-4.64-6.78-8.35-15.44-9.96-24.3s-2.46-20.12.29-28.86c2.76-8.74 8.98-18.35 16.25-23.58 7.27-5.24 21.22-7.69 27.37-7.81 6.15-.13 9.78 6.32 9.53 7.06m-.72-1.26c5.84 3.66 14.88 11.91 17.96 20.31 3.07 8.39 1.23 20.91.51 30.07-.72 9.17-.34 17-4.82 24.9-4.48 7.91-15.1 18.67-22.04 22.53-6.94 3.85-13.61 3.39-19.59.58-5.98-2.8-12.46-10.05-16.31-17.41-3.85-7.37-5.65-17.62-6.77-26.79-1.13-9.18-2.41-19.2.02-28.25 2.42-9.05 9.3-20.5 14.52-26.06 5.21-5.56 10.56-7.39 16.76-7.31 6.21.07 16.65 5.97 20.48 7.76 3.83 1.78 2.76 1.94 2.49 2.94"/><path fill="none" stroke="#1e1e1e" stroke-width="4" d="M25.76 75.705c3.83-6.95 9.57-12.49 16.07-15.33s16.59-4.23 22.94-1.73c6.36 2.5 11.27 9.42 15.2 16.74s7.78 17.66 8.37 27.17c.58 9.51-1.79 21.31-4.84 29.9-3.06 8.59-7.98 16.43-13.49 21.63-5.51 5.19-12.8 9.84-19.58 9.53-6.78-.3-15.81-5.84-21.08-11.38-5.27-5.55-8.61-13.23-10.54-21.88-1.93-8.66-7.09-17.78-1.03-30.04 6.06-12.27 26.93-39.82 37.39-43.57s25.58 20.21 25.37 21.07m-39.58-16.72c6.3-3.1 16.62-1.94 22.82.6 6.2 2.53 10.06 7.62 14.38 14.62 4.32 6.99 10.87 17.54 11.55 27.34s-4.01 22.62-7.47 31.47c-3.46 8.86-7.81 17.45-13.27 21.67-5.47 4.23-12.79 4.63-19.53 3.68s-15.96-4.57-20.92-9.37-6.65-11.15-8.83-19.44c-2.18-8.28-5.51-20.59-4.25-30.26 1.27-9.67 7.77-20.86 11.85-27.75 4.07-6.9 9.66-11.02 12.58-13.63 2.93-2.6 4.23-2.88 4.98-2.01"/></g><path fill="#1e1e1e" fill-opacity=".7" stroke-opacity=".7" d="m62.91 75.541-1.32.99q-1.31.99-2.69 2.65-1.4 1.66-1.85 3.89-.45 2.24.22 4.27t1.89 3.88q1.22 1.86 2.47 3.75t2.23 4.13q.97 2.25 1.4 4.64.42 2.39.51 4.96.09 2.58.05 5.22t-.34 5.46q-.29 2.82-1.29 5.41-.99 2.59-2.67 5.16-1.67 2.57-3.55 4.71-1.88 2.13-3.68 3.65-1.8 1.51-2.3-.22-.5-1.72-.49-.54t-.36 2.31q-.37 1.12-1.08 2.07t-1.68 1.62-2.11 1q-1.14.32-2.32.27t-2.28-.48-2.01-1.19-1.53-1.76q-.62-1.01-.88-2.17-.27-1.15-.15-2.33.12-1.17.61-2.25.48-1.08 1.29-1.94.81-.87 1.85-1.43 1.04-.57 2.2-.77 1.17-.2 2.34-.02t2.22.73q1.05.54 1.87 1.4.82.85 1.32 1.92.51 1.07.65 2.24.13 1.18-.11 2.33-.24 1.16-.85 2.18-.6 1.02-1.49 1.79-.9.78-1.99 1.22-1.1.45-2.28.52-1.18.08-2.32-.23t-2.13-.96q-.98-.66-1.71-1.59-.72-.94-1.11-2.06l-.38-1.11 4.29-6.12q4.29-6.11 5.97-8.17 1.69-2.06 2.72-4.59 1.03-2.52 1.14-4.76.1-2.23.1-4.97-.01-2.75-.66-5.12t-1.82-4.31-2.34-4.12q-1.17-2.17-1.88-4.52-.71-2.34-.72-4.96t.42-4.89 1.53-4.45q1.09-2.18 2.71-4.03t3.77-3.42q2.15-1.59 3.57-2.43 1.41-.84 1.96-1.11.54-.28 1.13-.42.6-.13 1.19-.12.61 0 1.2.16.59.15 1.12.44.54.29.99.7t.79.92q.34.5.54 1.07.21.57.28 1.18.06.59-.02 1.2-.08.6-.31 1.17-.22.56-.57 1.06-.35.49-.81.89l-.47.4z"/><path fill="#1e1e1e" fill-opacity=".7" stroke-opacity=".7" d="m53.879 88.998.38.82q.38.82 1.61 2.67t2.59 3.57q1.35 1.71 2.71 3.71 1.35 1.99 2.21 4.13.85 2.15 1.17 4.48.31 2.34.1 4.58-.22 2.24-.79 4.47-.57 2.24-1.14 4.31-.56 2.07-.54 2.06.02 0-.26.81-.28.82-.75 1.54-.46.73-1.09 1.32t-1.38 1.02q-.75.42-1.58.65-.83.24-1.69.26-.86.03-1.7-.15-.85-.18-1.62-.56-.78-.37-1.44-.92t-1.17-1.25q-.51-.69-.84-1.49-.33-.79-.46-1.64-.13-.86-.05-1.71.08-.86.87-3.11.78-2.24 1.29-4.32.5-2.08.49-4.4t-.89-4.41-2.3-3.82q-1.42-1.74-2.75-3.43-1.34-1.69-2.19-3.84-.85-2.14-1-4.28t.24-4.35q.4-2.2 1.42-4.2t1.99-3.18q.97-1.17 1.68-1.78t1.55-1.03q.83-.42 1.73-.63.92-.2 1.85-.19.94.02 1.84.26t1.72.69 1.51 1.08 1.21 1.41.83 1.66q.32.88.42 1.81.09.93-.04 1.85-.12.93-.47 1.8t-.89 1.63q-.55.76.46-1.75t.37-.37.6 4.01q1.23 1.86 2.22 3.85.98 1.99 1.53 4.05t-1.06-.14q-1.62-2.2.05-.54t2.42 3.78q.74 2.12 1.51 4.44.77 2.31 1.09 4.7t.42 4.54-.2 4.48q-.31 2.33-1.17 4.32-.87 2-2.28 3.8-1.42 1.81-2.86 3.45t-3 3.18q-1.55 1.53-1.31 1.3l-.43.45q-.66.69-1.47 1.2t-1.72.82q-.9.3-1.86.37-.95.08-1.89-.07-.94-.16-1.82-.53-.88-.38-1.64-.95-.77-.58-1.37-1.32-.61-.74-1.02-1.6-.41-.87-.6-1.8-.19-.94-.15-1.9.04-.95.3-1.87.27-.92.75-1.75t2.01-2.36q1.53-1.52 2.82-3.57 1.27-2.04 2.17-4.24.91-2.21 1.23-4.49.33-2.29-.53-4.32-.87-2.03-2.48-3.77-1.63-1.75-2.87-3.52t-2.29-3.68 2.46-.9q3.5 1.01 5.69.44t3.52-2.64q1.32-2.06 2.95-.48 1.62 1.58 2.87 3.48 1.24 1.89 2.37 3.96 1.12 2.06 1.75 4.35.64 2.28.81 4.5.18 2.22.16 4.64-.03 2.43-.25 4.74-.21 2.31-.87 4.64t-1.71 4.42q-1.05 2.08-2.22 3.86-1.16 1.79-2.48 3.7-1.31 1.91-3.28 3.73-1.98 1.82-2.73 2.41t-1.62.99q-.86.39-1.8.56-.93.18-1.88.12t-1.86-.34q-.92-.28-1.73-.77-.82-.49-1.49-1.17-.68-.67-1.17-1.48-.5-.82-.78-1.73-.29-.91-.35-1.86t.11-1.89.56-1.81.98-1.62-.53 2.59q-1.11 3.35-1.09 2.07.03-1.28.47-2.48.43-1.21 1.23-2.21.79-1 1.87-1.69 1.07-.7 2.31-1.01 1.24-.32 2.52-.22 1.27.09 2.44.59 1.18.5 2.14 1.35t1.59 1.96q.64 1.11.89 2.37.25 1.25.08 2.52t-.73 2.42-1.46 2.06-2.05 1.49q-1.14.57-2.41.75-1.25.18-2.51-.06-1.26-.23-2.38-.85-1.12-.63-1.97-1.58-.86-.94-1.38-2.12-.51-1.17-.62-2.45-.11-1.27.19-2.51.31-1.25.99-2.33t1.68-1.89q.99-.81 2.19-1.25 1.2-.45 2.48-.49 1.27-.04 2.49.33 1.23.37 2.27 1.11t1.8 1.77q.75 1.04.02 5.61-.74 4.56-1.49 5.15t-1.61.99q-.87.39-1.81.56-.93.18-1.88.12t-1.86-.34-1.73-.77-1.49-1.17q-.68-.67-1.17-1.48-.5-.82-.78-1.73-.29-.91-.35-1.86t.11-1.89.56-1.81.98-1.62q.58-.75 2.57-2.82 1.98-2.07 3.3-4.02 1.31-1.94 2.05-3.97.75-2.02.81-4.38t-.19-4.59q-.24-2.24-1.33-4.07-1.11-1.83-2.45-3.58-1.33-1.75-2.63-3.73t-2.04-4.39q-.74-2.4-.61-4.58.12-2.18 1.38-3.94 1.26-1.75 3.5-2.35t5.65.26 4.63 2.89q1.21 2.04 2.43 3.8 1.21 1.75 2.75 3.45 1.54 1.71 2.76 3.64 1.22 1.92 2.04 4.07.82 2.14 1.2 4.78.39 2.63.3 4.86-.09 2.22-.59 4.47-.49 2.25-1.41 4.75-.92 2.51-1.98 4.61-1.05 2.1-2.35 4.09-1.3 2-3 3.78-1.71 1.78-2.37 2.47t-1.47 1.2-1.72.82q-.9.3-1.86.37-.95.08-1.89-.07-.94-.16-1.82-.53-.88-.38-1.64-.95-.77-.58-1.37-1.32-.61-.74-1.02-1.6-.41-.87-.6-1.8-.19-.94-.15-1.9.04-.95.3-1.87.27-.92.75-1.75t.61-1q.13-.18 1.75-1.81 1.61-1.64 3.03-3.25 1.44-1.61 2.01-3.78.57-2.16.22-4.31t-.32-4.31q.04-2.16-1.73-4.47-1.76-2.3-2.75-4.37t-1.92-4.1q-.93-2.02-1.43-4.39-.51-2.38.08-4.7t1.6-4.86q1.01-2.53 1.72-3.14t1.55-1.03q.83-.42 1.73-.63.92-.2 1.85-.19.94.02 1.84.26t1.72.69q.82.44 1.51 1.08.69.63 1.21 1.41t.83 1.66q.32.88.42 1.81.09.93-.04 1.85-.12.93-.47 1.8t-.89 1.63q-.55.76-1.04 1.36-.48.6.89 2.27 1.38 1.67 2.64 3.43 1.26 1.75 2.28 3.83t1.62 4.15.8 4.26.05 4.89q-.15 2.69-.81 5.44-.65 2.75-1.57 5.01t-1.2 3.07q-.28.82-.75 1.54-.46.73-1.09 1.32t-1.38 1.02q-.75.42-1.58.65-.83.24-1.69.26-.86.03-1.7-.15t-1.62-.56q-.78-.37-1.44-.92t-1.17-1.25q-.5-.69-.84-1.49-.33-.79-.46-1.64-.13-.86-.05-1.71.08-.86.31-1.69t.98-2.98q.75-2.16 1.4-4.2.64-2.04.19-4.25-.44-2.22-1.45-4.37-1-2.15-2.03-4.09t-1.62-4.14q-.6-2.21-.8-3.09-.19-.89-.31-1.44-.11-.56-.09-1.12.03-.57.18-1.11.16-.55.44-1.04.29-.5.68-.91.4-.41.88-.71.48-.31 1.02-.49t1.1-.23q.56-.04 1.12.05t1.09.31q.52.23.98.57.45.34.81.78t.61.95z"/><g stroke-linecap="round"><path fill="#ccbdac" stroke-width="0" d="M153.811 62.638c5.37 4.17 9.22 14.54 11.97 23.36 2.74 8.81 4.65 20.23 4.52 29.51-.14 9.28-1.59 19.04-5.33 26.15-3.74 7.12-10.64 13.07-17.11 16.53s-14.72 5.82-21.72 4.23c-7-1.58-15.8-7-20.29-13.74-4.48-6.74-5.36-17.28-6.62-26.7s-2.95-20.96-.95-29.83 7.65-17.65 12.96-23.41c5.31-5.75 10.22-12.2 18.91-11.12 8.68 1.08 26.71 12.39 33.21 17.6s6.36 12.92 5.78 13.66m-46.93-30.47c5.42-3.6 9.96-.03 15.92 2.61s14.51 7.05 19.82 13.21 9.77 14.81 12.03 23.73c2.25 8.93 3.65 20.54 1.5 29.82s-9 20.15-14.4 25.85-11.08 7.54-18.01 8.35c-6.93.8-17.16.45-23.55-3.52-6.4-3.96-11.96-12.42-14.83-20.26s-2.66-17.52-2.4-26.79c.27-9.27.43-20.55 3.99-28.85 3.55-8.31 13.93-17.97 17.36-20.98s2.9 1.65 3.22 2.91"/><path fill="none" stroke="#1e1e1e" d="M159.191 69.888c4.81 5.52 9.64 15.99 11.19 25.26 1.54 9.27.3 21.24-1.92 30.35-2.23 9.11-6.34 17.98-11.41 24.29-5.06 6.31-12.13 12.52-18.99 13.57s-16.31-2.89-22.17-7.26c-5.85-4.38-10.13-10.94-12.96-18.98s-4.33-19.67-4.02-29.27c.31-9.61 2.42-20.34 5.88-28.37 3.46-8.02 8.87-16.09 14.89-19.78s13.56-6.02 21.24-2.36c7.69 3.65 19.82 17.91 24.88 24.29 5.05 6.39 5.66 13.3 5.45 14.01m-13.76-28.86c5.41 5.04 7.02 16.48 8.93 25.66 1.92 9.18 3.68 20.75 2.55 29.41s-4.51 16.34-9.32 22.52c-4.81 6.19-13.51 11.83-19.56 14.6s-10.8 4.71-16.74 2.04c-5.95-2.68-14.96-10.29-18.94-18.1s-3.96-19.38-4.95-28.75c-.98-9.37-4.04-18.82-.97-27.48 3.06-8.66 12.93-19.77 19.35-24.46 6.43-4.69 13.25-4.55 19.18-3.69 5.94.87 13.34 7.57 16.44 8.89 3.1 1.33 1.75-1.15 2.18-.94"/></g><g fill-opacity=".7" stroke-linecap="round" stroke-opacity=".7"><path fill="#6f4e37" stroke-width="0" d="M105.897 74.665c3.5-6.68 11.22-12.17 18.02-14.69s16.2-3.02 22.77-.42c6.57 2.59 12.71 8.34 16.65 16s6.78 19.95 6.99 29.95c.21 9.99-2.97 21.48-5.73 30.03-2.77 8.54-5.28 16.52-10.86 21.24-5.58 4.71-15.64 7.42-22.62 7.05s-13.79-3.69-19.28-9.28c-5.48-5.59-11.52-15.26-13.64-24.26-2.12-8.99-5.25-17.27.91-29.73 6.16-12.45 25.78-40.92 36.05-44.99 10.28-4.06 25.91 19.55 25.61 20.58m-35.62-15.21c5.43-1.26 15.04.05 21.48 3.49s12.89 9.53 17.16 17.12c4.26 7.59 8.35 18.66 8.45 28.41.11 9.75-4.19 22.26-7.81 30.09s-7.71 12.98-13.9 16.9c-6.18 3.92-16.28 7.48-23.21 6.62-6.93-.85-13.85-6.03-18.36-11.75-4.51-5.73-6.74-13.79-8.7-22.61-1.96-8.83-4.52-20.67-3.07-30.33s6.24-21.19 11.78-27.64c5.55-6.46 18.29-9.56 21.47-11.11s-2 1.75-2.38 1.83"/><path fill="none" stroke="#1e1e1e" stroke-width="4" d="M112.487 65.425c4.65-5.85 11.75-8.88 18.22-9.33 6.47-.46 14.71 1.6 20.59 6.63s11.83 15.09 14.7 23.55c2.87 8.45 2.95 17.81 2.51 27.18-.43 9.36-1.68 21.33-5.12 29-3.43 7.67-9.37 13.91-15.51 17-6.13 3.08-14.51 3.89-21.28 1.52-6.77-2.38-14.59-8.9-19.34-15.78-4.75-6.89-7.86-16.23-9.17-25.51-1.31-9.29-6.37-19.84 1.32-30.2 7.7-10.36 33.5-31.57 44.83-31.97 11.34-.41 23.39 28.74 23.18 29.55m-40.18-27.83c5.63-1.44 14.89 1.34 20.98 4.87s12.33 8.82 15.57 16.32c3.25 7.49 3.6 18.57 3.88 28.67.29 10.11 1.16 23.6-2.19 31.95s-11.96 14.73-17.9 18.14-10.86 3.84-17.75 2.31c-6.88-1.52-18.65-4.78-23.55-11.45-4.89-6.67-4.75-19.37-5.82-28.56-1.08-9.2-1.9-17.91-.62-26.61s3.33-19.1 8.31-25.59c4.99-6.48 17.64-11.09 21.61-13.34 3.97-2.24 2.61-1.46 2.2-.13"/></g><path fill="#1e1e1e" fill-opacity=".7" stroke-opacity=".7" d="m144.825 75.541-1.32.99q-1.31.99-2.69 2.65-1.4 1.66-1.85 3.89-.45 2.24.22 4.27t1.89 3.88q1.22 1.86 2.47 3.75t2.23 4.13q.97 2.25 1.4 4.64.42 2.39.51 4.96.09 2.58.05 5.22t-.34 5.46q-.29 2.82-1.29 5.41-.99 2.59-2.67 5.16-1.67 2.57-3.55 4.71-1.88 2.13-3.68 3.65-1.8 1.51-2.3-.22-.5-1.72-.49-.54t-.36 2.31q-.37 1.12-1.08 2.07t-1.68 1.62-2.11 1q-1.14.32-2.32.27t-2.28-.48-2.01-1.19-1.53-1.76q-.62-1.01-.88-2.17-.27-1.15-.15-2.33.12-1.17.61-2.25.48-1.08 1.29-1.94.81-.87 1.85-1.43 1.04-.57 2.2-.77 1.17-.2 2.34-.02t2.22.73q1.05.54 1.87 1.4.82.85 1.32 1.92.51 1.07.65 2.24.13 1.18-.11 2.33-.24 1.16-.85 2.18-.6 1.02-1.49 1.79-.9.78-1.99 1.22-1.1.45-2.28.52-1.18.08-2.32-.23t-2.13-.96q-.98-.66-1.71-1.59-.72-.94-1.11-2.06l-.38-1.11 4.29-6.12q4.29-6.11 5.97-8.17 1.69-2.06 2.72-4.59 1.03-2.52 1.14-4.76.1-2.23.1-4.97-.01-2.75-.66-5.12t-1.82-4.31-2.34-4.12q-1.17-2.17-1.88-4.52-.71-2.34-.72-4.96t.42-4.89 1.53-4.45q1.09-2.18 2.71-4.03t3.77-3.42q2.15-1.59 3.57-2.43 1.41-.84 1.96-1.11.54-.28 1.13-.42.6-.13 1.19-.12.61 0 1.2.16.59.15 1.12.44.54.29.99.7t.79.92q.34.5.54 1.07.21.57.28 1.18.06.59-.02 1.2-.08.6-.31 1.17-.22.56-.57 1.06-.35.49-.81.89l-.47.4z"/><path fill="#1e1e1e" fill-opacity=".7" stroke-opacity=".7" d="m135.795 88.998.38.82q.38.82 1.61 2.67t2.59 3.57q1.35 1.71 2.71 3.71 1.35 1.99 2.21 4.13.85 2.15 1.17 4.48.31 2.34.1 4.58-.22 2.24-.79 4.47-.57 2.24-1.14 4.31-.56 2.07-.54 2.06.02 0-.26.81-.28.82-.75 1.54-.46.73-1.09 1.32t-1.38 1.02q-.75.42-1.58.65-.83.24-1.69.26-.86.03-1.7-.15-.85-.18-1.62-.56-.78-.37-1.44-.92t-1.17-1.25q-.51-.69-.84-1.49-.33-.79-.46-1.64-.13-.86-.05-1.71.08-.86.87-3.11.78-2.24 1.29-4.32.5-2.08.49-4.4t-.89-4.41-2.3-3.82q-1.42-1.74-2.75-3.43-1.34-1.69-2.19-3.84-.85-2.14-1-4.28t.24-4.35q.4-2.2 1.42-4.2t1.99-3.18q.97-1.17 1.68-1.78t1.55-1.03q.83-.42 1.73-.63.92-.2 1.85-.19.94.02 1.84.26t1.72.69 1.51 1.08 1.21 1.41.83 1.66q.32.88.42 1.81.09.93-.04 1.85-.12.93-.47 1.8t-.89 1.63q-.55.76.46-1.75t.37-.37.6 4.01q1.23 1.86 2.22 3.85.98 1.99 1.53 4.05t-1.06-.14q-1.62-2.2.05-.54t2.42 3.78q.74 2.12 1.51 4.44.77 2.31 1.09 4.7t.42 4.54-.2 4.48q-.31 2.33-1.17 4.32-.87 2-2.28 3.8-1.42 1.81-2.86 3.45t-3 3.18q-1.55 1.53-1.31 1.3l-.43.45q-.66.69-1.47 1.2t-1.72.82q-.9.3-1.86.37-.95.08-1.89-.07-.94-.16-1.82-.53-.88-.38-1.64-.95-.77-.58-1.37-1.32-.61-.74-1.02-1.6-.41-.87-.6-1.8-.19-.94-.15-1.9.04-.95.3-1.87.27-.92.75-1.75t2.01-2.36q1.53-1.52 2.82-3.57 1.27-2.04 2.17-4.24.91-2.21 1.23-4.49.33-2.29-.53-4.32-.87-2.03-2.48-3.77-1.63-1.75-2.87-3.52t-2.29-3.68 2.46-.9q3.5 1.01 5.69.44t3.52-2.64q1.32-2.06 2.95-.48 1.62 1.58 2.87 3.48 1.24 1.89 2.37 3.96 1.12 2.06 1.75 4.35.64 2.28.81 4.5.18 2.22.16 4.64-.03 2.43-.25 4.74-.21 2.31-.87 4.64t-1.71 4.42q-1.05 2.08-2.22 3.86-1.16 1.79-2.48 3.7-1.31 1.91-3.28 3.73-1.98 1.82-2.73 2.41t-1.62.99q-.86.39-1.8.56-.93.18-1.88.12t-1.86-.34q-.92-.28-1.73-.77-.82-.49-1.49-1.17-.68-.67-1.17-1.48-.5-.82-.78-1.73-.29-.91-.35-1.86t.11-1.89.56-1.81.98-1.62-.53 2.59q-1.11 3.35-1.09 2.07.03-1.28.47-2.48.43-1.21 1.23-2.21.79-1 1.87-1.69 1.07-.7 2.31-1.01 1.24-.32 2.52-.22 1.27.09 2.44.59 1.18.5 2.14 1.35t1.59 1.96q.64 1.11.89 2.37.25 1.25.08 2.52t-.73 2.42-1.46 2.06-2.05 1.49q-1.14.57-2.41.75-1.25.18-2.51-.06-1.26-.23-2.38-.85-1.12-.63-1.97-1.58-.86-.94-1.38-2.12-.51-1.17-.62-2.45-.11-1.27.19-2.51.31-1.25.99-2.33t1.68-1.89q.99-.81 2.19-1.25 1.2-.45 2.48-.49 1.27-.04 2.49.33 1.23.37 2.27 1.11t1.8 1.77q.75 1.04.02 5.61-.74 4.56-1.49 5.15t-1.61.99q-.87.39-1.81.56-.93.18-1.88.12t-1.86-.34-1.73-.77-1.49-1.17q-.68-.67-1.17-1.48-.5-.82-.78-1.73-.29-.91-.35-1.86t.11-1.89.56-1.81.98-1.62q.58-.75 2.57-2.82 1.98-2.07 3.3-4.02 1.31-1.94 2.05-3.97.75-2.02.81-4.38t-.19-4.59q-.24-2.24-1.33-4.07-1.11-1.83-2.45-3.58-1.33-1.75-2.63-3.73t-2.04-4.39q-.74-2.4-.61-4.58.12-2.18 1.38-3.94 1.26-1.75 3.5-2.35t5.65.26 4.63 2.89q1.21 2.04 2.43 3.8 1.21 1.75 2.75 3.45 1.54 1.71 2.76 3.64 1.22 1.92 2.04 4.07.82 2.14 1.2 4.78.39 2.63.3 4.86-.09 2.22-.59 4.47-.49 2.25-1.41 4.75-.92 2.51-1.98 4.61-1.05 2.1-2.35 4.09-1.3 2-3 3.78-1.71 1.78-2.37 2.47t-1.47 1.2-1.72.82q-.9.3-1.86.37-.95.08-1.89-.07-.94-.16-1.82-.53-.88-.38-1.64-.95-.77-.58-1.37-1.32-.61-.74-1.02-1.6-.41-.87-.6-1.8-.19-.94-.15-1.9.04-.95.3-1.87.27-.92.75-1.75t.61-1q.13-.18 1.75-1.81 1.61-1.64 3.03-3.25 1.44-1.61 2.01-3.78.57-2.16.22-4.31t-.32-4.31q.04-2.16-1.73-4.47-1.76-2.3-2.75-4.37t-1.92-4.1q-.93-2.02-1.43-4.39-.51-2.38.08-4.7t1.6-4.86q1.01-2.53 1.72-3.14t1.55-1.03q.83-.42 1.73-.63.92-.2 1.85-.19.94.02 1.84.26t1.72.69q.82.44 1.51 1.08.69.63 1.21 1.41t.83 1.66q.32.88.42 1.81.09.93-.04 1.85-.12.93-.47 1.8t-.89 1.63q-.55.76-1.04 1.36-.48.6.89 2.27 1.38 1.67 2.64 3.43 1.26 1.75 2.28 3.83t1.62 4.15.8 4.26.05 4.89q-.15 2.69-.81 5.44-.65 2.75-1.57 5.01t-1.2 3.07q-.28.82-.75 1.54-.46.73-1.09 1.32t-1.38 1.02q-.75.42-1.58.65-.83.24-1.69.26-.86.03-1.7-.15t-1.62-.56q-.78-.37-1.44-.92t-1.17-1.25q-.5-.69-.84-1.49-.33-.79-.46-1.64-.13-.86-.05-1.71.08-.86.31-1.69t.98-2.98q.75-2.16 1.4-4.2.64-2.04.19-4.25-.44-2.22-1.45-4.37-1-2.15-2.03-4.09t-1.62-4.14q-.6-2.21-.8-3.09-.19-.89-.31-1.44-.11-.56-.09-1.12.03-.57.18-1.11.16-.55.44-1.04.29-.5.68-.91.4-.41.88-.71.48-.31 1.02-.49t1.1-.23q.56-.04 1.12.05t1.09.31q.52.23.98.57.45.34.81.78t.61.95z"/><g stroke-linecap="round"><path fill="#ccbdac" stroke-width="0" d="M239.078 64.828c5.39 4.69 10.36 16.1 12.52 25.39 2.17 9.29 1.38 20.9.46 30.34-.91 9.44-1.53 19.38-5.95 26.31s-13.69 12.81-20.57 15.27c-6.89 2.46-14.26 2.52-20.74-.52s-14.25-10.19-18.14-17.73-4.9-17.73-5.2-27.52c-.3-9.78.58-22.78 3.42-31.17 2.83-8.4 8.15-14.42 13.6-19.21 5.45-4.78 11.41-11.15 19.08-9.5 7.67 1.66 21.99 15 26.94 19.43s2.84 7 2.77 7.16m2.87-.91c3.89 7.37 3.76 20.57 3.65 29.79s-.51 17.69-4.32 25.52c-3.82 7.82-12.12 17.1-18.58 21.43-6.45 4.33-14.07 5.45-20.14 4.54-6.08-.91-11.25-4.1-16.32-10s-11.9-15.85-14.12-25.41c-2.22-9.57-1.66-22.76.82-31.98 2.48-9.21 8.97-17.44 14.06-23.31 5.09-5.88 10.33-9.66 16.48-11.92 6.15-2.25 14.44-5.11 20.42-1.63 5.98 3.49 12.75 18.91 15.47 22.56 2.73 3.64 1.55-1.36.9-.71"/><path fill="none" stroke="#1e1e1e" d="M195.938 67.198c4.77-5.71 11.58-10.85 18.43-11.25 6.86-.41 16.37 3.78 22.72 8.83 6.35 5.06 12.35 13.04 15.4 21.5s4 19.99 2.88 29.26c-1.11 9.28-5.16 19.04-9.58 26.39-4.41 7.35-10.52 14.7-16.92 17.71s-15.25 2.83-21.48.34c-6.23-2.5-11.66-8.57-15.87-15.33-4.22-6.76-8.22-15.81-9.43-25.24-1.2-9.43-.86-22.06 2.2-31.34 3.05-9.28 12.64-19.55 16.13-24.34 3.49-4.78 4.31-4.81 4.81-4.38m26.35 1.21c6.38 4.07 15.65 15.45 19.38 24.2s3.2 19.05 3.01 28.28c-.18 9.23.15 19.23-4.14 27.1-4.29 7.88-15.29 16.82-21.57 20.13-6.28 3.32-10.11 1.57-16.1-.22-6-1.78-14.27-4.28-19.89-10.5s-12.12-17.1-13.83-26.83c-1.7-9.73.64-22.05 3.63-31.54 2.98-9.5 9.5-20.01 14.3-25.43 4.8-5.43 7.91-7.01 14.5-7.11 6.6-.11 21.63 5.26 25.09 6.49 3.46 1.24-3.46.81-4.31.9"/></g><g fill-opacity=".7" stroke-linecap="round" stroke-opacity=".7"><path fill="#6f4e37" stroke-width="0" d="M208.404 59.425c5.52-2.3 12.19-.92 18.63 2.28s15.85 9.52 20.02 16.93c4.16 7.41 4.76 18.04 4.97 27.55.2 9.51-.6 21.17-3.74 29.51s-9.73 15.97-15.09 20.53c-5.35 4.56-10.94 7.62-17.05 6.81-6.1-.8-14.11-6.27-19.58-11.66-5.47-5.4-10.52-12.01-13.24-20.72s-4.23-22.25-3.09-31.54c1.15-9.29 1.13-18.09 9.97-24.19 8.85-6.09 32.58-15.63 43.1-12.4 10.51 3.23 19.64 30.77 19.99 31.79m-23.59-30.82c5.81 2.36 13.98 7.73 17.55 15.23 3.57 7.51 3.93 20.02 3.87 29.8-.07 9.78-1.55 20.31-4.26 28.89-2.72 8.59-6.23 17.99-12.04 22.61-5.8 4.62-15.98 6.46-22.79 5.1-6.82-1.35-13.55-7.31-18.07-13.24-4.51-5.93-6.94-13.77-9.03-22.32-2.09-8.54-4.56-18.91-3.49-28.96s5.3-24.37 9.91-31.31 11.13-8.88 17.76-10.35 18.8.73 22.04 1.52c3.25.79-1.99 2.26-2.57 3.23"/><path fill="none" stroke="#1e1e1e" stroke-width="4" d="M191.324 68.505c4.59-6.56 14.11-9.72 21.25-10.85 7.13-1.13 15.52.12 21.57 4.07 6.06 3.95 11.59 11.74 14.75 19.61s4.44 18.11 4.21 27.61c-.23 9.49-1.96 21.35-5.59 29.38-3.64 8.02-10.45 14.97-16.21 18.77-5.75 3.8-12.13 5.2-18.32 4.02-6.19-1.19-13.83-4.78-18.83-11.13s-9.09-17.88-11.17-26.95c-2.08-9.06-4.08-17.16-1.29-27.42s13.47-27.99 18.01-34.15c4.54-6.15 8.75-3.69 9.24-2.79m-17.21 16.09c4.31-6.59 9.36-13.08 15.9-15.64 6.53-2.56 17.47-2.91 23.32.3 5.84 3.21 7.71 11.69 11.75 18.94 4.04 7.26 11.26 15.09 12.5 24.59 1.23 9.5-1.32 23.59-5.09 32.43-3.76 8.83-11.7 16.27-17.52 20.59-5.83 4.31-11.61 6.23-17.41 5.31-5.8-.93-11.52-5.8-17.37-10.85-5.86-5.04-15.22-11.38-17.77-19.42-2.55-8.03 1.15-19.57 2.47-28.79 1.31-9.23 4.34-21.57 5.42-26.56s-.01-3.37 1.05-3.39"/></g><path fill="#1e1e1e" fill-opacity=".7" stroke-opacity=".7" d="m227.782 75.541-1.32.99q-1.31.99-2.69 2.65-1.4 1.66-1.85 3.89-.45 2.24.22 4.27t1.89 3.88q1.22 1.86 2.47 3.75t2.23 4.13q.97 2.25 1.4 4.64.42 2.39.51 4.96.09 2.58.05 5.22t-.34 5.46q-.29 2.82-1.29 5.41-.99 2.59-2.67 5.16-1.67 2.57-3.55 4.71-1.88 2.13-3.68 3.65-1.8 1.51-2.3-.22-.5-1.72-.49-.54t-.36 2.31q-.37 1.12-1.08 2.07t-1.68 1.62-2.11 1q-1.14.32-2.32.27t-2.28-.48-2.01-1.19-1.53-1.76q-.62-1.01-.88-2.17-.27-1.15-.15-2.33.12-1.17.61-2.25.48-1.08 1.29-1.94.81-.87 1.85-1.43 1.04-.57 2.2-.77 1.17-.2 2.34-.02t2.22.73q1.05.54 1.87 1.4.82.85 1.32 1.92.51 1.07.65 2.24.13 1.18-.11 2.33-.24 1.16-.85 2.18-.6 1.02-1.49 1.79-.9.78-1.99 1.22-1.1.45-2.28.52-1.18.08-2.32-.23t-2.13-.96q-.98-.66-1.71-1.59-.72-.94-1.11-2.06l-.38-1.11 4.29-6.12q4.29-6.11 5.97-8.17 1.69-2.06 2.72-4.59 1.03-2.52 1.14-4.76.1-2.23.1-4.97-.01-2.75-.66-5.12t-1.82-4.31-2.34-4.12q-1.17-2.17-1.88-4.52-.71-2.34-.72-4.96t.42-4.89 1.53-4.45q1.09-2.18 2.71-4.03t3.77-3.42q2.15-1.59 3.57-2.43 1.41-.84 1.96-1.11.54-.28 1.13-.42.6-.13 1.19-.12.61 0 1.2.16.59.15 1.12.44.54.29.99.7t.79.92q.34.5.54 1.07.21.57.28 1.18.06.59-.02 1.2-.08.6-.31 1.17-.22.56-.57 1.06-.35.49-.81.89l-.47.4z"/><path fill="#1e1e1e" fill-opacity=".7" stroke-opacity=".7" d="m218.752 88.998.38.82q.38.82 1.61 2.67t2.59 3.57q1.35 1.71 2.71 3.71 1.35 1.99 2.21 4.13.85 2.15 1.17 4.48.31 2.34.1 4.58-.22 2.24-.79 4.47-.57 2.24-1.14 4.31-.56 2.07-.54 2.06.02 0-.26.81-.28.82-.75 1.54-.46.73-1.09 1.32t-1.38 1.02q-.75.42-1.58.65-.83.24-1.69.26-.86.03-1.7-.15-.85-.18-1.62-.56-.78-.37-1.44-.92t-1.17-1.25q-.51-.69-.84-1.49-.33-.79-.46-1.64-.13-.86-.05-1.71.08-.86.87-3.11.78-2.24 1.29-4.32.5-2.08.49-4.4t-.89-4.41-2.3-3.82q-1.42-1.74-2.75-3.43-1.34-1.69-2.19-3.84-.85-2.14-1-4.28t.24-4.35q.4-2.2 1.42-4.2t1.99-3.18q.97-1.17 1.68-1.78t1.55-1.03q.83-.42 1.73-.63.92-.2 1.85-.19.94.02 1.84.26t1.72.69 1.51 1.08 1.21 1.41.83 1.66q.32.88.42 1.81.09.93-.04 1.85-.12.93-.47 1.8t-.89 1.63q-.55.76.46-1.75t.37-.37.6 4.01q1.23 1.86 2.22 3.85.98 1.99 1.53 4.05t-1.06-.14q-1.62-2.2.05-.54t2.42 3.78q.74 2.12 1.51 4.44.77 2.31 1.09 4.7t.42 4.54-.2 4.48q-.31 2.33-1.17 4.32-.87 2-2.28 3.8-1.42 1.81-2.86 3.45t-3 3.18q-1.55 1.53-1.31 1.3l-.43.45q-.66.69-1.47 1.2t-1.72.82q-.9.3-1.86.37-.95.08-1.89-.07-.94-.16-1.82-.53-.88-.38-1.64-.95-.77-.58-1.37-1.32-.61-.74-1.02-1.6-.41-.87-.6-1.8-.19-.94-.15-1.9.04-.95.3-1.87.27-.92.75-1.75t2.01-2.36q1.53-1.52 2.82-3.57 1.27-2.04 2.17-4.24.91-2.21 1.23-4.49.33-2.29-.53-4.32-.87-2.03-2.48-3.77-1.63-1.75-2.87-3.52t-2.29-3.68 2.46-.9q3.5 1.01 5.69.44t3.52-2.64q1.32-2.06 2.95-.48 1.62 1.58 2.87 3.48 1.24 1.89 2.37 3.96 1.12 2.06 1.75 4.35.64 2.28.81 4.5.18 2.22.16 4.64-.03 2.43-.25 4.74-.21 2.31-.87 4.64t-1.71 4.42q-1.05 2.08-2.22 3.86-1.16 1.79-2.48 3.7-1.31 1.91-3.28 3.73-1.98 1.82-2.73 2.41t-1.62.99q-.86.39-1.8.56-.93.18-1.88.12t-1.86-.34q-.92-.28-1.73-.77-.82-.49-1.49-1.17-.68-.67-1.17-1.48-.5-.82-.78-1.73-.29-.91-.35-1.86t.11-1.89.56-1.81.98-1.62-.53 2.59q-1.11 3.35-1.09 2.07.03-1.28.47-2.48.43-1.21 1.23-2.21.79-1 1.87-1.69 1.07-.7 2.31-1.01 1.24-.32 2.52-.22 1.27.09 2.44.59 1.18.5 2.14 1.35t1.59 1.96q.64 1.11.89 2.37.25 1.25.08 2.52t-.73 2.42-1.46 2.06-2.05 1.49q-1.14.57-2.41.75-1.25.18-2.51-.06-1.26-.23-2.38-.85-1.12-.63-1.97-1.58-.86-.94-1.38-2.12-.51-1.17-.62-2.45-.11-1.27.19-2.51.31-1.25.99-2.33t1.68-1.89q.99-.81 2.19-1.25 1.2-.45 2.48-.49 1.27-.04 2.49.33 1.23.37 2.27 1.11t1.8 1.77q.75 1.04.02 5.61-.74 4.56-1.49 5.15t-1.61.99q-.87.39-1.81.56-.93.18-1.88.12t-1.86-.34-1.73-.77-1.49-1.17q-.68-.67-1.17-1.48-.5-.82-.78-1.73-.29-.91-.35-1.86t.11-1.89.56-1.81.98-1.62q.58-.75 2.57-2.82 1.98-2.07 3.3-4.02 1.31-1.94 2.05-3.97.75-2.02.81-4.38t-.19-4.59q-.24-2.24-1.33-4.07-1.11-1.83-2.45-3.58-1.33-1.75-2.63-3.73t-2.04-4.39q-.74-2.4-.61-4.58.12-2.18 1.38-3.94 1.26-1.75 3.5-2.35t5.65.26 4.63 2.89q1.21 2.04 2.43 3.8 1.21 1.75 2.75 3.45 1.54 1.71 2.76 3.64 1.22 1.92 2.04 4.07.82 2.14 1.2 4.78.39 2.63.3 4.86-.09 2.22-.59 4.47-.49 2.25-1.41 4.75-.92 2.51-1.98 4.61-1.05 2.1-2.35 4.09-1.3 2-3 3.78-1.71 1.78-2.37 2.47t-1.47 1.2-1.72.82q-.9.3-1.86.37-.95.08-1.89-.07-.94-.16-1.82-.53-.88-.38-1.64-.95-.77-.58-1.37-1.32-.61-.74-1.02-1.6-.41-.87-.6-1.8-.19-.94-.15-1.9.04-.95.3-1.87.27-.92.75-1.75t.61-1q.13-.18 1.75-1.81 1.61-1.64 3.03-3.25 1.44-1.61 2.01-3.78.57-2.16.22-4.31t-.32-4.31q.04-2.16-1.73-4.47-1.76-2.3-2.75-4.37t-1.92-4.1q-.93-2.02-1.43-4.39-.51-2.38.08-4.7t1.6-4.86q1.01-2.53 1.72-3.14t1.55-1.03q.83-.42 1.73-.63.92-.2 1.85-.19.94.02 1.84.26t1.72.69q.82.44 1.51 1.08.69.63 1.21 1.41t.83 1.66q.32.88.42 1.81.09.93-.04 1.85-.12.93-.47 1.8t-.89 1.63q-.55.76-1.04 1.36-.48.6.89 2.27 1.38 1.67 2.64 3.43 1.26 1.75 2.28 3.83t1.62 4.15.8 4.26.05 4.89q-.15 2.69-.81 5.44-.65 2.75-1.57 5.01t-1.2 3.07q-.28.82-.75 1.54-.46.73-1.09 1.32t-1.38 1.02q-.75.42-1.58.65-.83.24-1.69.26-.86.03-1.7-.15t-1.62-.56q-.78-.37-1.44-.92t-1.17-1.25q-.5-.69-.84-1.49-.33-.79-.46-1.64-.13-.86-.05-1.71.08-.86.31-1.69t.98-2.98q.75-2.16 1.4-4.2.64-2.04.19-4.25-.44-2.22-1.45-4.37-1-2.15-2.03-4.09t-1.62-4.14q-.6-2.21-.8-3.09-.19-.89-.31-1.44-.11-.56-.09-1.12.03-.57.18-1.11.16-.55.44-1.04.29-.5.68-.91.4-.41.88-.71.48-.31 1.02-.49t1.1-.23q.56-.04 1.12.05t1.09.31q.52.23.98.57.45.34.81.78t.61.95z"/><g stroke-linecap="round"><path fill="#ccbdac" stroke-width="0" d="M323.584 72.718c4.59 5.72 9.27 16.91 10.76 26.05 1.5 9.15.05 19.97-1.77 28.8-1.82 8.84-4.35 18.62-9.14 24.2s-12.81 8.22-19.6 9.3c-6.8 1.08-14.91 1.38-21.17-2.82-6.26-4.21-12.92-14.22-16.41-22.41-3.49-8.18-4.64-17-4.53-26.69.12-9.69.94-23.25 5.21-31.45 4.27-8.21 13.53-14.47 20.41-17.78 6.88-3.3 14.22-4.59 20.88-2.04 6.65 2.54 15.71 14.2 19.04 17.32 3.33 3.13 1.25.95.95 1.42m-38.8-17.17c6.69-2.36 17.46.48 23.81 4.02 6.35 3.53 10.5 10.03 14.3 17.17s7.32 16.21 8.5 25.67c1.18 9.45 1.69 22.23-1.42 31.07-3.12 8.83-10.91 18.13-17.26 21.95-6.36 3.82-14.02 1.96-20.87.97-6.85-1-15.01-1.62-20.24-6.95-5.23-5.34-8.63-16.3-11.14-25.05-2.5-8.75-4.94-18.29-3.9-27.46 1.05-9.17 4.98-20.37 10.16-27.55 5.18-7.17 17.29-13.26 20.91-15.52 3.63-2.25 1.29 1.12.83 1.99"/><path fill="none" stroke="#1e1e1e" d="M299.624 56.698c6.01-1.1 13.28 1.85 18.81 6.83 5.54 4.97 11.54 14.38 14.41 23.04 2.88 8.65 3.42 19.5 2.85 28.86-.57 9.37-2.29 19.79-6.27 27.35-3.98 7.57-11.14 15.23-17.6 18.03-6.46 2.81-14.42 1.21-21.17-1.21-6.74-2.42-14.58-6.17-19.32-13.3s-8.28-19.72-9.13-29.49c-.84-9.77 1.15-20.49 4.04-29.1 2.89-8.62 5.83-17.77 13.28-22.58 7.46-4.81 24.31-7.61 31.46-6.28 7.16 1.34 11.3 13.21 11.46 14.29m-21.32-14.38c6.34.21 18.27 2.8 23.99 8.95 5.73 6.16 9.14 18.53 10.36 27.99s-1.13 20.05-3.05 28.75c-1.92 8.71-4.26 17.65-8.48 23.5-4.21 5.84-9.73 9.63-16.83 11.58-7.11 1.95-19.56 3.16-25.79.12-6.23-3.03-7.95-10.53-11.57-18.33-3.62-7.81-9.5-18.28-10.17-28.5s1.98-24.1 6.14-32.82c4.17-8.71 12.16-16 18.84-19.48s18.15-1.29 21.26-1.4-1.81.11-2.59.74"/></g><g fill-opacity=".7" stroke-linecap="round" stroke-opacity=".7"><path fill="#6f4e37" stroke-width="0" d="M316.55 65.955c5.54 3.9 9.88 12.57 13.17 20.93s6.82 20.09 6.57 29.23c-.25 9.15-3.83 18.1-8.1 25.65s-10.98 16.54-17.54 19.66c-6.56 3.11-15.3 1.38-21.8-.95-6.5-2.34-12.56-5.89-17.22-13.07-4.67-7.17-10.02-20.16-10.77-29.98-.76-9.81 3.02-20.38 6.23-28.92 3.2-8.53 7.76-17.26 12.99-22.28 5.22-5.02 9.08-13.77 18.37-7.84 9.28 5.92 32.58 28.9 37.36 43.37 4.77 14.47-7.91 43.48-8.72 43.44m-15.18-82.1c6.14 2.51 10.4 9.69 14.23 16.72 3.83 7.02 7.45 16.01 8.74 25.45 1.3 9.44 1.99 22.26-.95 31.18-2.95 8.93-10.53 18.38-16.72 22.36-6.18 3.98-13.67 2.34-20.41 1.52-6.74-.81-14.82-1.22-20.03-6.41-5.21-5.18-8.64-16.01-11.22-24.69-2.59-8.69-5.16-18.21-4.27-27.41s4.62-20.51 9.63-27.81c5-7.31 13.45-13.75 20.39-16.02 6.94-2.28 18.45 1.95 21.25 2.35 2.8.41-4.14-.37-4.46.09"/><path fill="none" stroke="#1e1e1e" stroke-width="4" d="M290 57.035c5.81-2.83 14.77-.77 20.97 2.45s11.91 9.44 16.22 16.87c4.32 7.44 8.75 18.01 9.66 27.75.92 9.74-1.05 22.3-4.15 30.7-3.11 8.4-8.49 14.88-14.49 19.7-6 4.83-14.69 9.78-21.53 9.24-6.84-.55-14.38-6.59-19.51-12.51-5.12-5.93-9.03-14.32-11.24-23.06s-2.84-19.94-2.02-29.39-1.56-21.64 6.96-27.29c8.52-5.64 33.72-10.3 44.18-6.59 10.46 3.7 18.56 27.96 18.59 28.82m-40.76-37.23c6.6-2.64 13.9 1.57 19.32 5.24 5.41 3.67 9.33 9.63 13.17 16.78s8.58 17.09 9.85 26.09c1.27 9.01 1.4 19.11-2.23 27.94-3.62 8.83-13.66 19.66-19.52 25.04-5.87 5.38-9.16 7.75-15.65 7.23-6.49-.53-17.44-4.02-23.3-10.4-5.85-6.39-10.15-18.39-11.85-27.94s-.34-20.65 1.67-29.36 6.06-16.65 10.38-22.9c4.33-6.26 13.24-12.18 15.58-14.64s-1.98-.31-1.54-.14"/></g><path fill="#1e1e1e" fill-opacity=".7" stroke-opacity=".7" d="m309.698 75.541-1.32.99q-1.31.99-2.69 2.65-1.4 1.66-1.85 3.89-.45 2.24.22 4.27t1.89 3.88q1.22 1.86 2.47 3.75t2.23 4.13q.97 2.25 1.4 4.64.42 2.39.51 4.96.09 2.58.05 5.22t-.34 5.46q-.29 2.82-1.29 5.41-.99 2.59-2.67 5.16-1.67 2.57-3.55 4.71-1.88 2.13-3.68 3.65-1.8 1.51-2.3-.22-.5-1.72-.49-.54t-.36 2.31q-.37 1.12-1.08 2.07t-1.68 1.62-2.11 1q-1.14.32-2.32.27t-2.28-.48-2.01-1.19-1.53-1.76q-.62-1.01-.88-2.17-.27-1.15-.15-2.33.12-1.17.61-2.25.48-1.08 1.29-1.94.81-.87 1.85-1.43 1.04-.57 2.2-.77 1.17-.2 2.34-.02t2.22.73q1.05.54 1.87 1.4.82.85 1.32 1.92.51 1.07.65 2.24.13 1.18-.11 2.33-.24 1.16-.85 2.18-.6 1.02-1.49 1.79-.9.78-1.99 1.22-1.1.45-2.28.52-1.18.08-2.32-.23t-2.13-.96q-.98-.66-1.71-1.59-.72-.94-1.11-2.06l-.38-1.11 4.29-6.12q4.29-6.11 5.97-8.17 1.69-2.06 2.72-4.59 1.03-2.52 1.14-4.76.1-2.23.1-4.97-.01-2.75-.66-5.12t-1.82-4.31-2.34-4.12q-1.17-2.17-1.88-4.52-.71-2.34-.72-4.96t.42-4.89 1.53-4.45q1.09-2.18 2.71-4.03t3.77-3.42q2.15-1.59 3.57-2.43 1.41-.84 1.96-1.11.54-.28 1.13-.42.6-.13 1.19-.12.61 0 1.2.16.59.15 1.12.44.54.29.99.7t.79.92q.34.5.54 1.07.21.57.28 1.18.06.59-.02 1.2-.08.6-.31 1.17-.22.56-.57 1.06-.35.49-.81.89l-.47.4z"/><path fill="#1e1e1e" fill-opacity=".7" stroke-opacity=".7" d="m300.667 88.998.38.82q.38.82 1.61 2.67t2.59 3.57q1.35 1.71 2.71 3.71 1.35 1.99 2.21 4.13.85 2.15 1.17 4.48.31 2.34.1 4.58-.22 2.24-.79 4.47-.57 2.24-1.14 4.31-.56 2.07-.54 2.06.02 0-.26.81-.28.82-.75 1.54-.46.73-1.09 1.32t-1.38 1.02q-.75.42-1.58.65-.83.24-1.69.26-.86.03-1.7-.15-.85-.18-1.62-.56-.78-.37-1.44-.92t-1.17-1.25q-.51-.69-.84-1.49-.33-.79-.46-1.64-.13-.86-.05-1.71.08-.86.87-3.11.78-2.24 1.29-4.32.5-2.08.49-4.4t-.89-4.41-2.3-3.82q-1.42-1.74-2.75-3.43-1.34-1.69-2.19-3.84-.85-2.14-1-4.28t.24-4.35q.4-2.2 1.42-4.2t1.99-3.18q.97-1.17 1.68-1.78t1.55-1.03q.83-.42 1.73-.63.92-.2 1.85-.19.94.02 1.84.26t1.72.69 1.51 1.08 1.21 1.41.83 1.66q.32.88.42 1.81.09.93-.04 1.85-.12.93-.47 1.8t-.89 1.63q-.55.76.46-1.75t.37-.37.6 4.01q1.23 1.86 2.22 3.85.98 1.99 1.53 4.05t-1.06-.14q-1.62-2.2.05-.54t2.42 3.78q.74 2.12 1.51 4.44.77 2.31 1.09 4.7t.42 4.54-.2 4.48q-.31 2.33-1.17 4.32-.87 2-2.28 3.8-1.42 1.81-2.86 3.45t-3 3.18q-1.55 1.53-1.31 1.3l-.43.45q-.66.69-1.47 1.2t-1.72.82q-.9.3-1.86.37-.95.08-1.89-.07-.94-.16-1.82-.53-.88-.38-1.64-.95-.77-.58-1.37-1.32-.61-.74-1.02-1.6-.41-.87-.6-1.8-.19-.94-.15-1.9.04-.95.3-1.87.27-.92.75-1.75t2.01-2.36q1.53-1.52 2.82-3.57 1.27-2.04 2.17-4.24.91-2.21 1.23-4.49.33-2.29-.53-4.32-.87-2.03-2.48-3.77-1.63-1.75-2.87-3.52t-2.29-3.68 2.46-.9q3.5 1.01 5.69.44t3.52-2.64q1.32-2.06 2.95-.48 1.62 1.58 2.87 3.48 1.24 1.89 2.37 3.96 1.12 2.06 1.75 4.35.64 2.28.81 4.5.18 2.22.16 4.64-.03 2.43-.25 4.74-.21 2.31-.87 4.64t-1.71 4.42q-1.05 2.08-2.22 3.86-1.16 1.79-2.48 3.7-1.31 1.91-3.28 3.73-1.98 1.82-2.73 2.41t-1.62.99q-.86.39-1.8.56-.93.18-1.88.12t-1.86-.34q-.92-.28-1.73-.77-.82-.49-1.49-1.17-.68-.67-1.17-1.48-.5-.82-.78-1.73-.29-.91-.35-1.86t.11-1.89.56-1.81.98-1.62-.53 2.59q-1.11 3.35-1.09 2.07.03-1.28.47-2.48.43-1.21 1.23-2.21.79-1 1.87-1.69 1.07-.7 2.31-1.01 1.24-.32 2.52-.22 1.27.09 2.44.59 1.18.5 2.14 1.35t1.59 1.96q.64 1.11.89 2.37.25 1.25.08 2.52t-.73 2.42-1.46 2.06-2.05 1.49q-1.14.57-2.41.75-1.25.18-2.51-.06-1.26-.23-2.38-.85-1.12-.63-1.97-1.58-.86-.94-1.38-2.12-.51-1.17-.62-2.45-.11-1.27.19-2.51.31-1.25.99-2.33t1.68-1.89q.99-.81 2.19-1.25 1.2-.45 2.48-.49 1.27-.04 2.49.33 1.23.37 2.27 1.11t1.8 1.77q.75 1.04.02 5.61-.74 4.56-1.49 5.15t-1.61.99q-.87.39-1.81.56-.93.18-1.88.12t-1.86-.34-1.73-.77-1.49-1.17q-.68-.67-1.17-1.48-.5-.82-.78-1.73-.29-.91-.35-1.86t.11-1.89.56-1.81.98-1.62q.58-.75 2.57-2.82 1.98-2.07 3.3-4.02 1.31-1.94 2.05-3.97.75-2.02.81-4.38t-.19-4.59q-.24-2.24-1.33-4.07-1.11-1.83-2.45-3.58-1.33-1.75-2.63-3.73t-2.04-4.39q-.74-2.4-.61-4.58.12-2.18 1.38-3.94 1.26-1.75 3.5-2.35t5.65.26 4.63 2.89q1.21 2.04 2.43 3.8 1.21 1.75 2.75 3.45 1.54 1.71 2.76 3.64 1.22 1.92 2.04 4.07.82 2.14 1.2 4.78.39 2.63.3 4.86-.09 2.22-.59 4.47-.49 2.25-1.41 4.75-.92 2.51-1.98 4.61-1.05 2.1-2.35 4.09-1.3 2-3 3.78-1.71 1.78-2.37 2.47t-1.47 1.2-1.72.82q-.9.3-1.86.37-.95.08-1.89-.07-.94-.16-1.82-.53-.88-.38-1.64-.95-.77-.58-1.37-1.32-.61-.74-1.02-1.6-.41-.87-.6-1.8-.19-.94-.15-1.9.04-.95.3-1.87.27-.92.75-1.75t.61-1q.13-.18 1.75-1.81 1.61-1.64 3.03-3.25 1.44-1.61 2.01-3.78.57-2.16.22-4.31t-.32-4.31q.04-2.16-1.73-4.47-1.76-2.3-2.75-4.37t-1.92-4.1q-.93-2.02-1.43-4.39-.51-2.38.08-4.7t1.6-4.86q1.01-2.53 1.72-3.14t1.55-1.03q.83-.42 1.73-.63.92-.2 1.85-.19.94.02 1.84.26t1.72.69q.82.44 1.51 1.08.69.63 1.21 1.41t.83 1.66q.32.88.42 1.81.09.93-.04 1.85-.12.93-.47 1.8t-.89 1.63q-.55.76-1.04 1.36-.48.6.89 2.27 1.38 1.67 2.64 3.43 1.26 1.75 2.28 3.83t1.62 4.15.8 4.26.05 4.89q-.15 2.69-.81 5.44-.65 2.75-1.57 5.01t-1.2 3.07q-.28.82-.75 1.54-.46.73-1.09 1.32t-1.38 1.02q-.75.42-1.58.65-.83.24-1.69.26-.86.03-1.7-.15t-1.62-.56q-.78-.37-1.44-.92t-1.17-1.25q-.5-.69-.84-1.49-.33-.79-.46-1.64-.13-.86-.05-1.71.08-.86.31-1.69t.98-2.98q.75-2.16 1.4-4.2.64-2.04.19-4.25-.44-2.22-1.45-4.37-1-2.15-2.03-4.09t-1.62-4.14q-.6-2.21-.8-3.09-.19-.89-.31-1.44-.11-.56-.09-1.12.03-.57.18-1.11.16-.55.44-1.04.29-.5.68-.91.4-.41.88-.71.48-.31 1.02-.49t1.1-.23q.56-.04 1.12.05t1.09.31q.52.23.98.57.45.34.81.78t.61.95z"/><g stroke-linecap="round"><path fill="#ccbdac" stroke-width="0" d="M387.812 56.078c6.27.64 13.78 8.6 18.59 14.94 4.81 6.33 8.46 13.87 10.27 23.05 1.82 9.18 2.65 23.04.62 32.02-2.04 8.99-8.19 16.03-12.84 21.89s-9.1 11.57-15.08 13.25-14.47.33-20.8-3.19c-6.32-3.51-13.3-9.88-17.17-17.89-3.87-8.02-6.13-20.53-6.03-30.18.11-9.66 3.26-19.53 6.64-27.75s7.23-17.45 13.65-21.6 20.26-3.42 24.86-3.3c4.59.12 2.6 3.14 2.69 4.03m18.14 14.47c4.85 6.49 6.32 18.7 7.11 27.27s.26 15.66-2.39 24.14c-2.66 8.48-8.23 20.86-13.53 26.72-5.31 5.86-11.48 7.83-18.31 8.43-6.84.61-16.53-.18-22.69-4.8-6.16-4.61-11.66-14.02-14.28-22.9-2.61-8.88-2.59-20.86-1.41-30.37s4.91-19.21 8.47-26.69 6.66-14.69 12.88-18.17c6.22-3.49 17.89-4.97 24.43-2.75 6.55 2.23 11.69 13.07 14.85 16.09 3.16 3.03 4.46.92 4.13 2.09"/><path fill="none" stroke="#1e1e1e" d="M370.222 59.448c6.1-3.65 14.26-2.72 20.77-.79 6.51 1.94 13.79 5.6 18.28 12.4 4.49 6.81 7.47 19.18 8.67 28.43 1.2 9.26.62 18.52-1.47 27.1s-5.92 18.51-11.07 24.38c-5.14 5.86-12.64 10.19-19.79 10.82-7.15.62-16.75-2.87-23.1-7.07-6.35-4.21-12.15-10.07-15.01-18.16-2.85-8.08-2.91-20.94-2.13-30.35.77-9.42 1.23-17.68 6.79-26.14 5.55-8.46 20.18-21.42 26.56-24.63 6.39-3.22 11.84 4.07 11.74 5.34m5.97-.84c6.85 2.4 15.01 9.46 18.28 17.82 3.28 8.36 1.31 22.01 1.38 32.33.06 10.32 2.43 21.34-.98 29.6-3.42 8.26-12.91 16.5-19.52 19.96-6.62 3.45-14.13 2.54-20.18.77-6.04-1.78-11.54-5.95-16.09-11.43s-8.84-12.84-11.2-21.43c-2.35-8.59-4.01-20.65-2.96-30.09 1.05-9.45 3.98-19.5 9.26-26.58s15.04-14.67 22.43-15.91c7.4-1.23 18.46 7.58 21.96 8.5 3.5.93-.56-3.17-.95-2.96"/></g><g fill-opacity=".7" stroke-linecap="round" stroke-opacity=".7"><path fill="#6f4e37" stroke-width="0" d="M384.968 58.535c5.99.19 12.91 3.06 18 8.95 5.09 5.88 10.54 17.55 12.55 26.35 2.02 8.8.65 17.61-.46 26.45-1.12 8.84-2.14 19.72-6.21 26.6-4.08 6.88-11.58 12.44-18.25 14.71-6.67 2.26-15.41 2.36-21.75-1.14-6.33-3.5-12.56-12.04-16.27-19.88-3.72-7.84-5.46-17.48-6.03-27.17-.58-9.68-.5-22.38 2.58-30.93 3.08-8.54 6.23-18.65 15.9-20.34 9.66-1.69 33.11 3.64 42.08 10.22 8.97 6.57 11.99 28.74 11.74 29.22m-34.49-41.24c5.8-.81 13.78-.29 18.87 5.12 5.09 5.4 9.25 18.01 11.67 27.3s4.42 18.98 2.84 28.43-7.27 21.44-12.31 28.27c-5.05 6.84-11.98 11.2-17.98 12.74-5.99 1.55-12.37-.04-18-3.46-5.62-3.43-11.23-9.42-15.74-17.08-4.5-7.66-10.73-19.02-11.28-28.9-.54-9.88 4.78-22.05 8.01-30.4s5.33-15.64 11.37-19.72c6.03-4.08 21.37-4.47 24.84-4.75s-3.6 1.99-4.01 3.07"/><path fill="none" stroke="#1e1e1e" stroke-width="4" d="M361.338 67.575c4.71-5.97 12.92-11.31 19.23-11.75 6.3-.44 13.11 4.46 18.6 9.11 5.48 4.64 10.99 10.67 14.28 18.74 3.3 8.06 5.87 20.03 5.51 29.64-.35 9.61-3.16 20.59-7.65 28.03-4.48 7.44-12.6 13.1-19.25 16.62-6.66 3.52-14.64 6.4-20.67 4.5-6.03-1.91-11.26-9.19-15.52-15.94-4.27-6.74-8.57-14.92-10.07-24.52-1.49-9.6-2.93-22.97 1.08-33.06 4.02-10.08 17.8-22.4 23.01-27.43 5.22-5.03 8.07-3.06 8.28-2.74m7.6-4.23c5.8.3 9.16 7.7 14.38 14.15s14.52 15.52 16.95 24.56c2.43 9.03-.42 21.02-2.35 29.65s-5.22 15.97-9.23 22.12c-4.01 6.16-9.03 12.11-14.84 14.81-5.81 2.69-13.51 4.12-20.03 1.34-6.52-2.77-14.4-10.16-19.08-17.99-4.69-7.83-8.82-18.82-9.03-29-.21-10.19 3.88-24.03 7.78-32.09s9.76-11.83 15.6-16.29 16.25-8.96 19.45-10.47c3.19-1.51-.26.68-.26 1.42"/></g><path fill="#1e1e1e" fill-opacity=".7" stroke-opacity=".7" d="m392.256 75.541-1.32.99q-1.31.99-2.69 2.65-1.4 1.66-1.85 3.89-.45 2.24.22 4.27t1.89 3.88q1.22 1.86 2.47 3.75t2.23 4.13q.97 2.25 1.4 4.64.42 2.39.51 4.96.09 2.58.05 5.22t-.34 5.46q-.29 2.82-1.29 5.41-.99 2.59-2.67 5.16-1.67 2.57-3.55 4.71-1.88 2.13-3.68 3.65-1.8 1.51-2.3-.22-.5-1.72-.49-.54t-.36 2.31q-.37 1.12-1.08 2.07t-1.68 1.62-2.11 1q-1.14.32-2.32.27t-2.28-.48-2.01-1.19-1.53-1.76q-.62-1.01-.88-2.17-.27-1.15-.15-2.33.12-1.17.61-2.25.48-1.08 1.29-1.94.81-.87 1.85-1.43 1.04-.57 2.2-.77 1.17-.2 2.34-.02t2.22.73q1.05.54 1.87 1.4.82.85 1.32 1.92.51 1.07.65 2.24.13 1.18-.11 2.33-.24 1.16-.85 2.18-.6 1.02-1.49 1.79-.9.78-1.99 1.22-1.1.45-2.28.52-1.18.08-2.32-.23t-2.13-.96q-.98-.66-1.71-1.59-.72-.94-1.11-2.06l-.38-1.11 4.29-6.12q4.29-6.11 5.97-8.17 1.69-2.06 2.72-4.59 1.03-2.52 1.14-4.76.1-2.23.1-4.97-.01-2.75-.66-5.12t-1.82-4.31-2.34-4.12q-1.17-2.17-1.88-4.52-.71-2.34-.72-4.96t.42-4.89 1.53-4.45q1.09-2.18 2.71-4.03t3.77-3.42q2.15-1.59 3.57-2.43 1.41-.84 1.96-1.11.54-.28 1.13-.42.6-.13 1.19-.12.61 0 1.2.16.59.15 1.12.44.54.29.99.7t.79.92q.34.5.54 1.07.21.57.28 1.18.06.59-.02 1.2-.08.6-.31 1.17-.22.56-.57 1.06-.35.49-.81.89l-.47.4z"/><path fill="#1e1e1e" fill-opacity=".7" stroke-opacity=".7" d="m383.226 88.998.38.82q.38.82 1.61 2.67t2.59 3.57q1.35 1.71 2.71 3.71 1.35 1.99 2.21 4.13.85 2.15 1.17 4.48.31 2.34.1 4.58-.22 2.24-.79 4.47-.57 2.24-1.14 4.31-.56 2.07-.54 2.06.02 0-.26.81-.28.82-.75 1.54-.46.73-1.09 1.32t-1.38 1.02q-.75.42-1.58.65-.83.24-1.69.26-.86.03-1.7-.15-.85-.18-1.62-.56-.78-.37-1.44-.92t-1.17-1.25q-.51-.69-.84-1.49-.33-.79-.46-1.64-.13-.86-.05-1.71.08-.86.87-3.11.78-2.24 1.29-4.32.5-2.08.49-4.4t-.89-4.41-2.3-3.82q-1.42-1.74-2.75-3.43-1.34-1.69-2.19-3.84-.85-2.14-1-4.28t.24-4.35q.4-2.2 1.42-4.2t1.99-3.18q.97-1.17 1.68-1.78t1.55-1.03q.83-.42 1.73-.63.92-.2 1.85-.19.94.02 1.84.26t1.72.69 1.51 1.08 1.21 1.41.83 1.66q.32.88.42 1.81.09.93-.04 1.85-.12.93-.47 1.8t-.89 1.63q-.55.76.46-1.75t.37-.37.6 4.01q1.23 1.86 2.22 3.85.98 1.99 1.53 4.05t-1.06-.14q-1.62-2.2.05-.54t2.42 3.78q.74 2.12 1.51 4.44.77 2.31 1.09 4.7t.42 4.54-.2 4.48q-.31 2.33-1.17 4.32-.87 2-2.28 3.8-1.42 1.81-2.86 3.45t-3 3.18q-1.55 1.53-1.31 1.3l-.43.45q-.66.69-1.47 1.2t-1.72.82q-.9.3-1.86.37-.95.08-1.89-.07-.94-.16-1.82-.53-.88-.38-1.64-.95-.77-.58-1.37-1.32-.61-.74-1.02-1.6-.41-.87-.6-1.8-.19-.94-.15-1.9.04-.95.3-1.87.27-.92.75-1.75t2.01-2.36q1.53-1.52 2.82-3.57 1.27-2.04 2.17-4.24.91-2.21 1.23-4.49.33-2.29-.53-4.32-.87-2.03-2.48-3.77-1.63-1.75-2.87-3.52t-2.29-3.68 2.46-.9q3.5 1.01 5.69.44t3.52-2.64q1.32-2.06 2.95-.48 1.62 1.58 2.87 3.48 1.24 1.89 2.37 3.96 1.12 2.06 1.75 4.35.64 2.28.81 4.5.18 2.22.16 4.64-.03 2.43-.25 4.74-.21 2.31-.87 4.64t-1.71 4.42q-1.05 2.08-2.22 3.86-1.16 1.79-2.48 3.7-1.31 1.91-3.28 3.73-1.98 1.82-2.73 2.41t-1.62.99q-.86.39-1.8.56-.93.18-1.88.12t-1.86-.34q-.92-.28-1.73-.77-.82-.49-1.49-1.17-.68-.67-1.17-1.48-.5-.82-.78-1.73-.29-.91-.35-1.86t.11-1.89.56-1.81.98-1.62-.53 2.59q-1.11 3.35-1.09 2.07.03-1.28.47-2.48.43-1.21 1.23-2.21.79-1 1.87-1.69 1.07-.7 2.31-1.01 1.24-.32 2.52-.22 1.27.09 2.44.59 1.18.5 2.14 1.35t1.59 1.96q.64 1.11.89 2.37.25 1.25.08 2.52t-.73 2.42-1.46 2.06-2.05 1.49q-1.14.57-2.41.75-1.25.18-2.51-.06-1.26-.23-2.38-.85-1.12-.63-1.97-1.58-.86-.94-1.38-2.12-.51-1.17-.62-2.45-.11-1.27.19-2.51.31-1.25.99-2.33t1.68-1.89q.99-.81 2.19-1.25 1.2-.45 2.48-.49 1.27-.04 2.49.33 1.23.37 2.27 1.11t1.8 1.77q.75 1.04.02 5.61-.74 4.56-1.49 5.15t-1.61.99q-.87.39-1.81.56-.93.18-1.88.12t-1.86-.34-1.73-.77-1.49-1.17q-.68-.67-1.17-1.48-.5-.82-.78-1.73-.29-.91-.35-1.86t.11-1.89.56-1.81.98-1.62q.58-.75 2.57-2.82 1.98-2.07 3.3-4.02 1.31-1.94 2.05-3.97.75-2.02.81-4.38t-.19-4.59q-.24-2.24-1.33-4.07-1.11-1.83-2.45-3.58-1.33-1.75-2.63-3.73t-2.04-4.39q-.74-2.4-.61-4.58.12-2.18 1.38-3.94 1.26-1.75 3.5-2.35t5.65.26 4.63 2.89q1.21 2.04 2.43 3.8 1.21 1.75 2.75 3.45 1.54 1.71 2.76 3.64 1.22 1.92 2.04 4.07.82 2.14 1.2 4.78.39 2.63.3 4.86-.09 2.22-.59 4.47-.49 2.25-1.41 4.75-.92 2.51-1.98 4.61-1.05 2.1-2.35 4.09-1.3 2-3 3.78-1.71 1.78-2.37 2.47t-1.47 1.2-1.72.82q-.9.3-1.86.37-.95.08-1.89-.07-.94-.16-1.82-.53-.88-.38-1.64-.95-.77-.58-1.37-1.32-.61-.74-1.02-1.6-.41-.87-.6-1.8-.19-.94-.15-1.9.04-.95.3-1.87.27-.92.75-1.75t.61-1q.13-.18 1.75-1.81 1.61-1.64 3.03-3.25 1.44-1.61 2.01-3.78.57-2.16.22-4.31t-.32-4.31q.04-2.16-1.73-4.47-1.76-2.3-2.75-4.37t-1.92-4.1q-.93-2.02-1.43-4.39-.51-2.38.08-4.7t1.6-4.86q1.01-2.53 1.72-3.14t1.55-1.03q.83-.42 1.73-.63.92-.2 1.85-.19.94.02 1.84.26t1.72.69q.82.44 1.51 1.08.69.63 1.21 1.41t.83 1.66q.32.88.42 1.81.09.93-.04 1.85-.12.93-.47 1.8t-.89 1.63q-.55.76-1.04 1.36-.48.6.89 2.27 1.38 1.67 2.64 3.43 1.26 1.75 2.28 3.83t1.62 4.15.8 4.26.05 4.89q-.15 2.69-.81 5.44-.65 2.75-1.57 5.01t-1.2 3.07q-.28.82-.75 1.54-.46.73-1.09 1.32t-1.38 1.02q-.75.42-1.58.65-.83.24-1.69.26-.86.03-1.7-.15t-1.62-.56q-.78-.37-1.44-.92t-1.17-1.25q-.5-.69-.84-1.49-.33-.79-.46-1.64-.13-.86-.05-1.71.08-.86.31-1.69t.98-2.98q.75-2.16 1.4-4.2.64-2.04.19-4.25-.44-2.22-1.45-4.37-1-2.15-2.03-4.09t-1.62-4.14q-.6-2.21-.8-3.09-.19-.89-.31-1.44-.11-.56-.09-1.12.03-.57.18-1.11.16-.55.44-1.04.29-.5.68-.91.4-.41.88-.71.48-.31 1.02-.49t1.1-.23q.56-.04 1.12.05t1.09.31q.52.23.98.57.45.34.81.78t.61.95z"/><path fill="none" stroke="#e03131" stroke-linecap="round" stroke-width="2" d="M10 44.174h411.83m-411.83 0h411.83m0 0v130.92m0-130.92v130.92m0 0H10m411.83 0H10m0 0V44.174m0 130.92V44.174"/><text fill="#e03131" dominant-baseline="text-before-edge" font-family="Helvetica, Segoe UI Emoji" font-size="28" style="white-space:pre" transform="translate(189.862 10)">101</text></svg>