<svg xmlns="http://www.w3.org/2000/svg" width="1229.536" height="336.728"><defs><style>@font-face{font-family:&quot;Virgil&quot;;src:url(https://excalidraw.com/Virgil.woff2)}@font-face{font-family:&quot;Cascadia&quot;;src:url(https://excalidraw.com/Cascadia.woff2)}@font-face{font-family:&quot;Assistant&quot;;src:url(https://excalidraw.com/Assistant-Regular.woff2)}</style></defs><g stroke-linecap="round"><path fill="#ccbdac" stroke-width="0" d="M125.32 10.28c11.37-2.43 22.21 1.51 32.94 7.34s22.09 16.74 31.43 27.64c9.33 10.9 17.92 23.55 24.58 37.76 6.65 14.21 12.28 30.74 15.36 47.52s4.01 36.08 3.11 53.15-3.14 33.56-8.52 49.28c-5.37 15.71-15.31 32.18-23.72 45.02-8.4 12.83-16.62 23.96-26.7 31.98-10.07 8.03-21.89 13.84-33.75 16.15-11.86 2.3-25.42.92-37.4-2.3-11.97-3.23-23.71-8.88-34.46-17.06-10.75-8.17-22.11-19.1-30.04-31.98-7.93-12.87-12.85-29.45-17.54-45.26-4.68-15.81-9.67-32.61-10.57-49.6s1.64-35.69 5.16-52.34c3.52-16.64 9.25-32.94 15.96-47.52s14.77-29.78 24.32-39.97c9.56-10.18 14.41-18.58 33.03-21.13 18.63-2.55 59.57-1.87 78.72 5.84 19.15 7.7 36.88 38.07 36.18 40.38m10.24 6.47c7.94 11.27 8.32 30.29 11.38 46.92s6.68 35.3 6.98 52.87c.31 17.57-.95 36.84-5.16 52.54-4.2 15.71-12.71 28.94-20.07 41.69-7.36 12.74-13.91 25.14-24.06 34.79s-25.1 18.51-36.83 23.1-22.12 6.52-33.56 4.44c-11.45-2.09-23.27-9.04-35.09-16.97-11.81-7.93-26.2-19.18-35.78-30.62-9.58-11.45-17.01-22.9-21.68-38.06-4.67-15.17-5.16-35.25-6.35-52.94s-2.43-36.47-.77-53.21c1.65-16.75 5.16-33.08 10.71-47.27 5.56-14.19 13.45-26.86 22.62-37.89 9.17-11.02 21.24-21.9 32.4-28.24 11.17-6.34 22.35-8.47 34.61-9.8 12.26-1.32 26.73-1.98 38.96 1.84 12.23 3.83 24.48 11.15 34.41 21.13 9.94 9.98 20.97 32.06 25.19 38.76 4.21 6.69 1.93-.21.11 1.41"/><path fill="none" stroke="#1e1e1e" d="M81.13 22.78c10.04-8.76 22.79-12.82 34.35-14.1s23.33 1.23 35.01 6.41c11.67 5.17 24.71 14.51 35.05 24.64 10.33 10.14 19.84 22.36 26.96 36.14 7.11 13.79 12.64 30.16 15.73 46.56s3.34 34.81 2.79 51.86c-.56 17.06-2.25 34.85-6.11 50.47s-9.53 29.77-17.05 43.23c-7.51 13.46-17.83 28.09-28.03 37.52-10.21 9.44-21.2 15.91-33.21 19.08-12.02 3.18-26.47 2.25-38.9-.05-12.42-2.3-24.65-6.46-35.67-13.75s-22.31-17.82-30.47-29.98c-8.15-12.16-13.54-27.57-18.46-42.98-4.93-15.41-9.26-32.44-11.08-49.5-1.83-17.06-1.83-36.2.12-52.88 1.96-16.68 5.68-32.46 11.6-47.19 5.93-14.74 12.48-29.07 23.95-41.23 11.47-12.17 35.6-26.73 44.87-31.76 9.28-5.04 10.33-1.43 10.78 1.55M210.3 75.56c8.17 11.93 14.57 31.46 18.83 47.88s6.84 34.04 6.73 50.63-2.56 32.84-7.37 48.89c-4.8 16.05-13.75 33.88-21.48 47.4-7.74 13.51-15.05 24.73-24.94 33.68-9.89 8.94-21.99 16.46-34.42 19.98-12.42 3.52-27.46 3.55-40.14 1.14-12.67-2.41-25.73-8.21-35.92-15.61-10.18-7.41-16.49-16.85-25.17-28.81-8.69-11.95-20.82-27.33-26.94-42.94-6.11-15.6-8.19-33.74-9.76-50.71-1.57-16.96-2.39-34.33.34-51.08 2.73-16.76 9.56-34.62 16.04-49.47 6.47-14.84 13.49-28.39 22.83-39.63s22.22-21.76 33.2-27.79c10.98-6.04 20.57-8 32.7-8.42 12.12-.42 28.5 1.48 40.05 5.9 11.54 4.41 20.11 11.26 29.23 20.58 9.11 9.33 20.73 28.52 25.45 35.37 4.72 6.84 4.43 4.02 2.84 5.68"/></g><g fill-opacity=".7" stroke-linecap="round" stroke-opacity=".7"><path fill="#6f4e37" stroke-width="0" d="M84.385 16.22c9.52-7.52 23.27-6.34 35.05-6.03 11.79.3 24.29 2.44 35.69 7.87 11.4 5.42 23.13 13.92 32.73 24.66 9.6 10.75 18.19 25.36 24.88 39.81 6.69 14.44 12.81 30.09 15.27 46.88 2.47 16.79.69 36.36-.47 53.84-1.17 17.49-2.3 35.33-6.53 51.07-4.22 15.75-10.79 31.15-18.82 43.42s-18.77 22.31-29.35 30.21c-10.58 7.89-22.2 14.26-34.15 17.16-11.94 2.9-25.92 3.29-37.5.24-11.58-3.04-21.58-10.23-31.98-18.52-10.4-8.3-22.35-18.65-30.41-31.25s-13.63-28.5-17.94-44.36c-4.3-15.86-6.95-33.3-7.88-50.79-.93-17.48-.61-37.65 2.32-54.11 2.92-16.46 9.08-30.63 15.23-44.63s9.03-27.31 21.64-39.38c12.61-12.06 41.41-28.14 54.03-33.03s21.01.83 21.69 3.67m-7.9-4.65c10.69-1.82 25.47 4.66 37.17 11.03 11.69 6.37 23.85 16.72 33 27.18 9.16 10.45 15.4 21.53 21.93 35.54 6.52 14.01 14.47 31.24 17.22 48.54s.49 37.46-.72 55.25c-1.22 17.79-2.12 36.27-6.57 51.5-4.44 15.24-11.01 28.28-20.1 39.92s-23.02 21.66-34.45 29.91c-11.43 8.24-23.25 17.05-34.15 19.56-10.9 2.52-20.14-.52-31.25-4.46-11.11-3.93-24.53-10.74-35.42-19.14-10.89-8.41-21.66-19.13-29.92-31.3-8.25-12.17-15.19-26.2-19.6-41.74-4.4-15.54-6.12-34.6-6.83-51.51-.7-16.91-.76-33.15 2.62-49.95s10.37-35.98 17.68-50.86c7.3-14.87 16.65-28.47 26.15-38.39 9.49-9.92 19.42-16.3 30.82-21.14 11.41-4.83 31.99-7.22 37.6-7.89s-3.19 1.24-3.93 3.87"/><path fill="none" stroke="#1e1e1e" stroke-width="4" d="M160.375 19.66c10.6 3.29 20.31 15.82 29.38 27.43 9.07 11.6 18.59 27.1 25.03 42.19 6.45 15.08 11.28 31.58 13.64 48.3s2.55 35.02.54 52.03-7.17 34.78-12.62 50.05-12.05 29.93-20.07 41.56c-8.01 11.63-17.55 20.5-28.03 28.2-10.49 7.7-23.2 15.46-34.87 17.99s-23.34 1.31-35.15-2.83c-11.81-4.13-25.15-12.75-35.73-21.97-10.57-9.21-20.01-20.24-27.74-33.3-7.73-13.05-14.86-28.87-18.64-45.03-3.77-16.16-4.07-34.71-4-51.93.07-17.21 1.18-34.88 4.42-51.35s8.47-33.7 15.01-47.45c6.55-13.75 14.71-25.26 24.25-35.05 9.54-9.8 21.08-18.85 32.98-23.71 11.91-4.87 23.86-8.49 38.46-5.49 14.61 3.01 38.89 16.88 49.16 23.54 10.28 6.66 13.26 14.23 12.51 16.43m-56.43-36.59c12.07-.78 25.55 6.11 36.58 12.75 11.03 6.65 21.56 15.25 29.58 27.12 8.03 11.86 13.16 28.53 18.56 44.08 5.41 15.54 11.74 32.21 13.87 49.18 2.14 16.97 1.76 35.96-1.06 52.63-2.81 16.67-9.31 32.95-15.84 47.38s-15.16 27.9-23.32 39.22c-8.16 11.31-14.63 22.07-25.64 28.68-11 6.6-27.87 10.17-40.4 10.96s-23.4-1.72-34.78-6.23c-11.39-4.52-24.11-11.26-33.53-20.85-9.42-9.6-16.3-22.99-22.99-36.75s-13.72-29.47-17.14-45.81c-3.42-16.33-3.4-35.43-3.38-52.2.02-16.76-.67-32.77 3.47-48.4 4.14-15.62 13.94-31.73 21.35-45.34 7.4-13.62 13.81-26.78 23.07-36.35 9.27-9.57 20.33-17.67 32.52-21.1s34.76.45 40.63.52c5.88.08-4.85-2.8-5.38-.07"/></g><path fill="#1e1e1e" fill-opacity=".7" stroke-opacity=".7" d="m146.858 57.022-2.24 1.2q-2.23 1.2-5.42 3.6-3.18 2.41-5.2 4.51-2.01 2.11-3.42 3.89-1.42 1.79-2.96 4.11-1.55 2.32-2.6 4.44t-1.89 4.69q-.85 2.56-1.17 5.33-.31 2.77-.34 5.47-.04 2.69.15 5.37t.93 5.23 1.71 4.44q.97 1.9 2.24 4.03t2.85 4.89 2.9 4.83 2.7 4.13q1.39 2.07 2.73 4.23t2.56 4.39q1.21 2.22 2.38 5.07t1.94 5.89q.78 3.05 1.24 7.11.45 4.05.51 6.28t.05 4.52-.08 4.83q-.08 2.54-.17 5.14-.1 2.6-.22 5.11t-.25 4.97q-.14 2.47-.32 4.9-.17 2.43-.42 4.88-.26 2.45-.68 4.85-.44 2.41-1.13 4.77t-2.39 5.55-4.17 6.63q-2.46 3.44-4.78 6.49t-4.66 5.81q-2.34 2.75-4.79 5.24-2.46 2.48-4.7 4.53-2.24 2.04-4.34 3.72t-3.99 3.07q-1.88 1.4-4.39 3.32-2.52 1.91-2.57 1.66-.05-.26-.04.64.01.89-.27 1.73-.28.85-.81 1.56-.53.72-1.26 1.22-.74.51-1.59.75-.86.25-1.75.21t-1.72-.36q-.83-.33-1.51-.9-.69-.57-1.15-1.33-.47-.76-.67-1.62-.2-.87-.11-1.76.09-.88.46-1.7.36-.81.97-1.46t1.39-1.08q.79-.42 1.66-.57.88-.15 1.76-.02.88.14 1.67.55t1.41 1.05 1 1.45q.38.8.48 1.69.11.88-.08 1.76-.18.87-.63 1.63-.46.77-1.13 1.35-.67.59-1.5.92-.82.34-1.71.39-.89.06-1.75-.17t-1.6-.73q-.74-.49-1.29-1.19-.54-.71-.84-1.55l-.29-.84 2.49-5.07q2.49-5.07 5.2-6.67t4.53-2.74q1.81-1.14 3.7-2.46 1.9-1.32 3.95-3.08 2.05-1.77 4.19-4 2.13-2.22 4.12-4.78 2-2.56 3.88-5.57t3.59-6.35q1.7-3.34 2.78-5.69 1.09-2.35 1.97-5.94.89-3.6 1.07-5.83.19-2.22.29-4.54.1-2.31.14-4.69t.04-4.78-.07-4.92-.17-4.98-.33-6.45-.69-7.22q-.47-3.23-1.36-6.36-.9-3.13-2.33-5.97-1.42-2.84-2.62-4.8-1.2-1.95-2.53-3.96-1.33-2-2.9-4.46t-3.13-5.05q-1.55-2.58-2.99-4.97-1.45-2.39-2.82-5.34-1.38-2.94-2.02-5.05-.65-2.11-1.03-4.38-.38-2.28-.49-4.45t-.03-5.33.29-5.61.8-5.35 1.49-5.31q.89-2.42 2.45-5.31 1.56-2.9 2.82-4.68t2.77-3.57q1.51-1.8 3.39-3.75 1.89-1.95 4.57-4.31 2.68-2.37 4.56-3.78t4.07-2.79q2.19-1.39 4.45-2.58 2.25-1.18 2.84-1.41.6-.23 1.24-.31.63-.08 1.26-.01.63.08 1.23.3.6.23 1.13.59.52.36.95.83.43.48.73 1.05.3.56.45 1.18.16.62.16 1.26 0 .63-.15 1.25t-.44 1.19-.72 1.05q-.42.48-.94.85z"/><path fill="#1e1e1e" fill-opacity=".7" stroke-opacity=".7" d="m117.277 108.441.32.93q.32.93 1.32 3.09.99 2.16 1.98 4.26 1 2.1 2.2 4.21 1.21 2.11 2.54 3.93 1.33 1.83 2.7 3.68 1.37 1.86 2.55 3.71 1.18 1.86 2.63 3.97 1.45 2.1 2.58 4.2 1.13 2.09 2.53 4.23 1.41 2.15 2.75 4.56t2.18 4.83q.83 2.42 1.27 4.61.45 2.18.77 4.92t.33 5.83q.02 3.08-.22 5.27t-.87 5.02-1.37 5.42q-.73 2.58-1.55 5.17-.81 2.59-1.58 5.07t-1.59 5.13-1.27 4.35-.75 2.55q-.29.85-.78 1.6-.48.76-1.14 1.37-.65.62-1.43 1.06-.78.45-1.65.69-.86.24-1.76.27t-1.78-.16-1.68-.58q-.81-.39-1.5-.97-.69-.57-1.23-1.29-.53-.73-.87-1.56-.35-.82-.49-1.71-.13-.89-.05-1.79.08-.89 1.13-3.19t1.89-4.48 1.95-5.53 2.1-6.75q.99-3.41 1.58-6.37.59-2.97.81-5.8t.23-5.6q.01-2.78-.16-5.01-.17-2.24-.51-4.4-.34-2.15-1.12-4.7-.77-2.55-1.76-4.74-.99-2.18-2.3-4.55t-2.97-4.62q-1.66-2.26-3.55-4.63-1.89-2.38-3.53-4.27t-3.06-3.52q-1.4-1.62-2.82-3.38-1.41-1.76-2.67-3.94-1.26-2.17-2-4.44t-1.1-4.6q-.35-2.31-.36-4.7-.01-2.38.26-4.53.28-2.15.74-4.29.45-2.15 1.38-4.42.92-2.27 2.18-4.31 1.27-2.03 2.8-3.9 1.52-1.88 2.22-2.64.69-.77 1.4-1.38.71-.6 1.54-1.02t1.74-.63q.91-.2 1.84-.19.93.02 1.83.26t1.72.68q.82.45 1.5 1.08.69.63 1.21 1.41.51.77.83 1.65.31.88.41 1.8.09.93-.03 1.85-.13.92-.48 1.79-.34.86-.89 1.62-.54.76.47-1.71 1-2.46.37-.29-.63 2.18-1.58 4.5t-.95 4.56q0 2.25.71 4.38.72 2.13 1.82 4.41 1.09 2.27 2.13 4.38t2.13 4.33q1.09 2.23 2.07 4.36.98 2.14 2.19 4.57 1.21 2.42 2.19 4.42.99 2 1.7 4.66t-.95.78q-1.65-1.89.43.19 2.07 2.08 2.85 4.99.79 2.92 1.51 5.04.72 2.13 1.6 4.1.87 1.97 1.77 3.98.9 2.02 1.71 4.42.8 2.4 1.16 4.66.37 2.25.61 4.43.24 2.19.58 4.68.35 2.5.54 4.74.2 2.23.28 4.37l.16 4.31q.09 2.19-.07 4.84-.15 2.66-.82 5.3-.68 2.65-1.63 4.99t-2.1 4.18q-1.16 1.83-2.57 3.58t-3.13 3.75-3.28 3.84q-1.57 1.84-3.08 3.54-1.5 1.69-3.14 3.42-1.63 1.73-3.23 3.37-1.59 1.64-3.24 3.17-1.65 1.54-2.02 2.02-.36.49-1.01 1.16-.65.68-1.45 1.18-.79.5-1.68.8t-1.82.37q-.94.08-1.87-.07-.92-.15-1.78-.52-.87-.37-1.61-.93-.75-.57-1.34-1.29-.59-.73-.99-1.58-.41-.85-.59-1.76-.19-.92-.15-1.86t.3-1.84.73-1.71 2.64-2.9q2.19-2.08 4.11-3.93 1.92-1.86 3.55-3.99 1.63-2.14 2.97-4.11 1.33-1.97 2.81-4.47 1.47-2.49 2.56-4.49 1.1-1.99 2.41-4.91 1.32-2.93 2.3-5.44t1.92-5.1q.95-2.59 1.66-5.24.72-2.64 1.05-5.39t.42-5.77-.15-5.32-.99-5.16q-.75-2.85-1.8-5.24-1.05-2.38-2.44-4.62-1.39-2.25-2.71-3.97t-2.97-3.43q-1.65-1.72-3.59-3.72-1.93-2-3.78-4.16-1.85-2.17-3.41-4.44t-2.94-4.4q-1.38-2.14-2.63-4.49-1.26-2.36-2.43-4.5t1.59-1.95 5.92-1.72q3.15-1.92 3.76.42.61 2.33 1.83 4.4 1.21 2.07 2.86 4.23 1.65 2.17 3.18 4.09 1.52 1.92 3.02 3.86 1.5 1.95 3.08 4.23t2.98 4.57q1.41 2.28 2.74 4.35 1.33 2.06 2.36 3.93 1.03 1.86 2.06 4.15t1.82 4.97q.79 2.67 1.23 5.19.43 2.51.6 4.69.17 2.17.3 4.8.14 2.64.16 5.14.01 2.51-.04 4.7-.06 2.2-.16 5.17-.1 2.98-.37 6.37-.27 3.38-.8 6t-1.12 4.81q-.6 2.18-1.37 4.45-.77 2.26-1.65 4.29-.89 2.03-2.45 4.77t-2.77 4.67-2.41 3.75-2.6 3.86q-1.4 2.05-2.65 3.89-1.26 1.83-2.41 3.67-1.14 1.84-2.64 3.79-1.49 1.95-3 3.48-1.51 1.52-3.34 2.99-1.82 1.48-3.25 2.47-1.43 1-2.23 1.46-.78.46-1.66.72-.89.25-1.8.29-.92.04-1.82-.14-.9-.19-1.73-.58t-1.54-.97q-.72-.58-1.27-1.31-.55-.74-.91-1.58t-.51-1.75-.08-1.82q.07-.92.36-1.79t.78-1.65q.49-.77 1.15-1.41.67-.64-.81 2.94-1.48 3.57-1.46 2.34.03-1.23.45-2.39t1.19-2.12q.76-.97 1.8-1.64 1.03-.67 2.23-.97 1.19-.3 2.42-.21t2.36.57 2.05 1.3 1.53 1.89q.62 1.07.86 2.28.23 1.21.07 2.43t-.7 2.33-1.41 1.98q-.86.88-1.96 1.43-1.1.56-2.32.73t-2.43-.05q-1.21-.23-2.29-.83-1.07-.6-1.9-1.52-.83-.91-1.32-2.04t-.6-2.36q-.11-1.22.19-2.42.29-1.2.95-2.24.65-1.04 1.61-1.82t2.11-1.21q1.16-.43 2.39-.47t2.41.32q1.17.35 2.17 1.07 1.01.71 1.73 1.71.73 1-.38 5.75t-1.91 5.21q-.78.46-1.66.72-.89.25-1.8.29-.92.04-1.82-.14-.9-.19-1.73-.58t-1.54-.97q-.72-.58-1.27-1.31-.55-.74-.91-1.58t-.51-1.75-.08-1.82q.07-.92.36-1.79t.78-1.65q.49-.77 1.15-1.41t3.18-2.44q2.52-1.79 4.12-3.43 1.59-1.63 2.88-3.42 1.29-1.78 2.71-3.89 1.42-2.12 2.79-3.96t2.79-3.97q1.43-2.14 2.55-3.97 1.13-1.83 2.34-3.92t2.13-4.32q.91-2.24 1.68-4.95.77-2.72 1.24-5.51t.57-5.51q.1-2.71.16-5.79.05-3.08.04-5.59-.01-2.5-.08-4.65-.08-2.15-.28-4.8-.19-2.65-.58-4.78-.38-2.13-1.04-4.15-.67-2.03-1.77-4.22-1.1-2.18-2.44-4.29-1.33-2.11-2.62-4.2-1.28-2.09-2.6-3.97-1.31-1.89-2.72-3.71-1.4-1.82-2.95-3.81-1.55-1.98-2.99-3.86-1.43-1.88-2.92-4.15-1.5-2.28-2.46-4.18-.95-1.9-1.72-4.2t-1.07-4.53q-.29-2.22-.07-4.77.21-2.56 1.44-4.35t3.4-2.38q2.17-.6 5.45.26 3.3.86 4.6 2.95t2.3 4.01q1 1.91 2.34 4.41 1.33 2.51 2.62 4.47 1.3 1.96 2.51 3.74t2.71 3.45q1.51 1.67 3.4 3.65 1.88 1.99 3.31 3.62t3.13 3.97q1.69 2.33 2.85 4.21 1.15 1.88 2.31 4.12 1.15 2.24 2.04 4.6.88 2.36 1.54 4.87.67 2.5 1.15 5.49.48 2.98.61 6.38.13 3.41-.05 7.15-.17 3.73-.8 7.37-.63 3.63-1.53 6.66-.91 3.03-1.88 5.86-.98 2.83-1.98 5.45-1 2.61-2.01 4.88-1.01 2.26-2.18 4.55-1.18 2.28-2.56 4.71t-2.59 4.26q-1.22 1.83-2.49 3.72t-2.79 3.86q-1.52 1.96-3.03 3.53-1.51 1.58-3.53 3.41-2.02 1.84-2.67 2.51-.65.68-1.45 1.18-.79.5-1.68.8t-1.82.37q-.94.08-1.86-.07-.93-.15-1.79-.52-.87-.37-1.61-.93-.75-.57-1.34-1.29-.59-.73-.99-1.58-.41-.84-.59-1.76-.19-.92-.15-1.86t.3-1.84.73-1.71 1.82-2.35q1.34-1.53 3.01-3.07 1.68-1.55 3.22-3.1 1.55-1.55 3.03-3.13 1.49-1.59 3.01-3.29 1.51-1.7 3.07-3.53 1.55-1.83 3.1-3.62 1.54-1.79 2.83-3.5t2.08-3.81 1.05-4.43.18-4.79q-.08-2.47-.19-4.74-.11-2.28-.4-4.44l-.59-4.27q-.29-2.11-.73-4.88-.44-2.76-1.36-4.99-.93-2.23-1.88-4.37-.96-2.13-1.99-4.77-1.02-2.63-1.33-5.71-.32-3.08-1.8-5.58-1.47-2.51-2.58-4.74l-2.17-4.32q-1.05-2.09-2.31-4.76-1.26-2.66-2.23-4.63t-2.03-4.11-2.2-4.56q-1.13-2.41-1.92-4.57-.78-2.15-1.31-4.67-.54-2.53-.58-5.09-.04-2.55.52-5.32.55-2.76 1.69-4.7 1.12-1.94 2.13-4.5 1-2.56 1.71-3.17.71-.6 1.54-1.02t1.74-.62q.91-.21 1.84-.2.93.02 1.83.26t1.72.68q.82.45 1.5 1.08.69.63 1.21 1.41.51.77.83 1.65.31.88.41 1.8.09.93-.03 1.85-.13.92-.48 1.79-.34.86-.89 1.62-.54.76-1.38 1.65-.84.9-2.25 2.82-1.42 1.93-2.19 4.03-.78 2.11-1.08 4.57-.3 2.47-.01 4.72.28 2.25 1.31 4.19 1.03 1.93 2.43 3.69t2.92 3.58q1.52 1.83 2.9 3.51 1.38 1.67 2.67 3.36t2.59 3.47q1.29 1.77 2.7 3.97t2.4 4.21q.99 2 2.17 4.85 1.18 2.86 1.88 5.2.71 2.34 1.22 5.01.5 2.67.77 5.35.26 2.68.35 5.7t-.02 6.38q-.12 3.35-.55 6.93-.42 3.57-1.24 7.32-.81 3.74-1.77 7.44t-2.02 7.17q-1.06 3.48-2.09 5.49-1.03 2-1.33 2.85-.29.85-.77 1.6-.49.76-1.14 1.37-.66.62-1.44 1.06-.78.45-1.65.69-.86.24-1.76.27t-1.78-.16q-.87-.19-1.68-.58t-1.5-.97q-.69-.57-1.23-1.29-.53-.73-.87-1.55-.35-.83-.49-1.72-.13-.89-.05-1.78.08-.9.55-2.66.47-1.77 1.19-3.97.71-2.2 1.58-5.14t1.61-5.2q.73-2.26 1.44-4.67t1.39-5.12q.68-2.7.88-4.94.21-2.25.06-5.04-.14-2.79-.52-4.98-.38-2.18-1.32-4.6t-2.27-4.52q-1.32-2.09-2.39-4.19-1.08-2.1-2.18-4.09t-2.38-4.22q-1.27-2.23-2.44-4.09-1.18-1.87-2.58-4.19-1.41-2.33-2.44-4.36-1.03-2.04-1.67-4.35-.63-2.31-1.35-4.55t-1.25-4.43q-.54-2.19-.69-3.16t-.23-1.58q-.07-.61 0-1.21.07-.61.29-1.18t.56-1.07q.35-.51.81-.92.46-.4 1-.69.54-.28 1.13-.43.6-.15 1.21-.15.6 0 1.2.15.59.14 1.13.43.55.28 1 .69.46.4.81.91.35.5.57 1.07z"/><g stroke-linecap="round"><path fill="#ccbdac" stroke-width="0" d="M379.356 10.33c11.24-.87 23.93 7.25 34.99 14.75 11.06 7.51 22.52 17.79 31.35 30.29 8.84 12.5 16.39 29.07 21.68 44.71s8.59 32.41 10.07 49.12.98 34.09-1.21 51.16c-2.18 17.07-5.93 36.29-11.91 51.25s-14.38 27.63-23.97 38.52c-9.58 10.89-22.08 20.58-33.54 26.8-11.46 6.21-23 10-35.22 10.49-12.22.5-26.79-2.24-38.11-7.52s-20.09-14.09-29.82-24.16-21.3-22.75-28.57-36.26c-7.26-13.52-11.79-28.16-15.01-44.82s-4.61-37.79-4.31-55.14 1.65-33.39 6.1-48.96c4.46-15.57 12.93-31.66 20.63-44.47 7.7-12.8 15.09-23.68 25.59-32.36 10.51-8.69 20.29-18.14 37.45-19.75 17.16-1.6 50.42 4.3 65.53 10.13s25.56 22.51 25.15 24.86m-7.63-13.34c10.5 6.91 18.24 21.96 25.68 36.28 7.45 14.32 14.48 32.89 18.98 49.65 4.49 16.76 7.85 33.8 7.98 50.93.14 17.12-2.62 35.94-7.17 51.83s-11.71 30.83-20.13 43.49c-8.43 12.66-20.09 23.29-30.42 32.47-10.33 9.19-20.43 18.35-31.58 22.65-11.14 4.3-23.5 5.28-35.3 3.16s-24.2-8.65-35.5-15.86c-11.29-7.21-23.56-16.19-32.29-27.38-8.72-11.19-14.82-24.31-20.05-39.74s-9.32-35.32-11.32-52.82c-2.01-17.5-2.47-35.96-.72-52.16 1.75-16.21 5.33-30.46 11.23-45.09 5.9-14.64 14.78-30.61 24.15-42.72 9.36-12.1 20.8-23.72 32.02-29.92 11.21-6.2 23.58-6.59 35.29-7.26 11.7-.67 23.69-1.33 34.94 3.23 11.26 4.56 26.72 20.2 32.6 24.15s3.66-2.12 2.68-.45"/><path fill="none" stroke="#1e1e1e" d="M413.126 22.71c11.42 4.1 21.68 16.39 30.4 27.98 8.72 11.6 16.27 26.31 21.93 41.59 5.66 15.29 10.18 33.27 12.02 50.14 1.84 16.88 1.3 34.14-.99 51.1-2.3 16.97-7.13 35.6-12.76 50.68-5.63 15.07-12.55 28.13-21.02 39.77-8.48 11.63-18.6 22.75-29.84 30.03-11.24 7.29-25.13 12.17-37.61 13.7-12.48 1.52-25.68.16-37.25-4.55-11.58-4.72-22.1-13.98-32.22-23.73s-21.31-21.52-28.5-34.78-11.26-28.47-14.63-44.78c-3.36-16.32-5.53-35.67-5.56-53.11s2.03-35.55 5.38-51.51 7.45-30.87 14.73-44.26 18.69-26.71 28.93-36.07 21.06-15.78 32.51-20.09c11.46-4.31 18.65-12.08 36.2-5.77s54.2 28.9 69.11 43.62c14.91 14.73 21.94 42.4 20.36 44.74m-54.67-76c11.81 3.94 22.98 16.79 32.51 28.24s18.79 25.89 24.68 40.44c5.9 14.56 8.99 29.75 10.69 46.89 1.7 17.13 1.5 38.39-.49 55.95-1.99 17.55-6.44 34.09-11.48 49.39-5.04 15.31-10.51 30.42-18.76 42.42s-19.29 23.19-30.72 29.58c-11.43 6.4-25.42 7.48-37.86 8.78-12.44 1.31-24.6 2.48-36.8-.94-12.21-3.42-25.72-10.6-36.44-19.59-10.72-9-20.82-20.66-27.87-34.37s-11.1-31.85-14.45-47.91c-3.34-16.07-4.87-31.73-5.61-48.47-.75-16.74-2.46-35.28 1.13-51.97s12.83-34.04 20.42-48.18c7.59-14.13 14.86-27.09 25.12-36.62 10.27-9.53 24.7-15.99 36.5-20.56 11.79-4.58 22.76-7.76 34.29-6.89 11.52.86 29.18 9.41 34.86 12.08 5.68 2.68-.03.7-.79 3.98"/></g><g fill-opacity=".7" stroke-linecap="round" stroke-opacity=".7"><path fill="#6f4e37" stroke-width="0" d="M436.09 48.09c9.83 8.81 18.13 25.02 24.34 40.25 6.22 15.22 10.69 34.04 12.93 51.09 2.25 17.06 2.2 34.56.55 51.23-1.66 16.66-5.42 33.2-10.49 48.76-5.08 15.57-11.65 32.46-19.95 44.62-8.31 12.16-18.79 21.27-29.88 28.37-11.09 7.09-24.69 12.37-36.69 14.21-11.99 1.85-23.55.84-35.26-3.14-11.72-3.98-25.21-11.36-35.05-20.74-9.84-9.37-16.56-22.18-23.98-35.52-7.43-13.35-16.19-28.93-20.58-44.54s-5.66-31.77-5.75-49.13c-.09-17.35 1.87-38.43 5.23-54.99 3.35-16.56 7.78-30.99 14.88-44.38s18.05-26.49 27.7-35.96c9.64-9.46 18.64-16.29 30.18-20.84s27-7.33 39.06-6.46c12.07.87 19.24-.6 33.32 11.67s40.47 44.13 51.18 61.98 14.27 43.85 13.09 45.12M344.06 10.75c10.99-4.78 25.69-.45 38.22 2.58 12.52 3.03 26.06 7.64 36.94 15.58 10.89 7.93 20.63 19.79 28.38 32.03s14.05 26.45 18.15 41.39c4.09 14.95 5.39 31.13 6.44 48.29 1.05 17.17 2 37.59-.13 54.69-2.14 17.1-6.54 33.8-12.68 47.93-6.14 14.12-14.54 26.09-24.14 36.8s-22.27 20.99-33.44 27.46c-11.16 6.46-22.02 11.28-33.57 11.33-11.56.05-24.24-5.16-35.77-11.04-11.53-5.87-23.48-14.51-33.41-24.2-9.94-9.7-19.51-20.05-26.2-33.99s-11.18-32.36-13.94-49.67-3.49-37.45-2.61-54.18 3.61-30.8 7.88-46.19c4.27-15.4 10.2-33.42 17.72-46.17 7.53-12.75 16.54-21.83 27.42-30.34 10.89-8.5 32.09-17.76 37.88-20.68 5.79-2.93-3.39.13-3.13 3.14"/><path fill="none" stroke="#1e1e1e" stroke-width="4" d="M349.83 10.8c10.7-4.99 23.84-2.2 35.42 1.01s23.84 9.99 34.06 18.27a118.3 118.3 0 0 1 27.2 31.4c7.63 12.78 13.8 29.52 18.56 45.27 4.76 15.76 8.75 32.16 10 49.26 1.26 17.11.77 36.42-2.45 53.38s-9.81 34.03-16.84 48.37-16.05 27.83-25.35 37.69c-9.3 9.87-19.21 16.51-30.46 21.52-11.26 5.01-25.48 8.47-37.1 8.55s-22.02-2.23-32.63-8.06c-10.61-5.84-21.73-16.01-31.03-26.97s-17.84-24.6-24.79-38.79c-6.94-14.18-13.94-29.82-16.86-46.32-2.93-16.51-1.92-35.68-.68-52.72 1.23-17.03 3.48-33.79 8.1-49.5s11.35-32.14 19.63-44.76c8.29-12.63 14.38-22.86 30.07-31 15.68-8.13 48.83-17.77 64.06-17.81 15.22-.04 27.32 14.91 27.29 17.56M359.1 9.98c11.63-3.57 26.11.79 37.54 4.83 11.42 4.04 21.65 9.58 31 19.42s18.15 25.35 25.1 39.61c6.95 14.27 12.37 29.6 16.6 45.96 4.23 16.37 8.43 34.94 8.77 52.25.35 17.31-2.27 36.24-6.72 51.62-4.45 15.37-12.15 27.64-19.99 40.63-7.83 12.98-16.54 27.58-27 37.27-10.46 9.68-23.73 16.72-35.76 20.85-12.03 4.12-25.13 5.91-36.41 3.91s-21.24-8.91-31.26-15.94-19.72-14.89-28.88-26.26-20.43-26.39-26.07-41.95-6.31-34.05-7.77-51.42c-1.47-17.36-3.39-35.99-1.01-52.77 2.38-16.77 9.35-32.83 15.27-47.88s11.96-30.71 20.26-42.41c8.31-11.7 18.77-21.3 29.56-27.78 10.78-6.48 29.31-10.46 35.13-11.11 5.83-.64-.77 4.4-.17 7.22"/></g><path fill="#1e1e1e" fill-opacity=".7" stroke-opacity=".7" d="m392.214 57.022-2.24 1.2q-2.23 1.2-5.42 3.6-3.18 2.41-5.2 4.51-2.01 2.11-3.42 3.89-1.42 1.79-2.96 4.11-1.55 2.32-2.6 4.44t-1.89 4.69q-.85 2.56-1.17 5.33-.31 2.77-.34 5.47-.04 2.69.15 5.37t.93 5.23 1.71 4.44q.97 1.9 2.24 4.03t2.85 4.89 2.9 4.83 2.7 4.13q1.39 2.07 2.73 4.23t2.56 4.39q1.21 2.22 2.38 5.07t1.94 5.89q.78 3.05 1.24 7.11.45 4.05.51 6.28t.05 4.52-.08 4.83q-.08 2.54-.17 5.14-.1 2.6-.22 5.11t-.25 4.97q-.14 2.47-.32 4.9-.17 2.43-.42 4.88-.26 2.45-.68 4.85-.44 2.41-1.13 4.77t-2.39 5.55-4.17 6.63q-2.46 3.44-4.78 6.49t-4.66 5.81q-2.34 2.75-4.79 5.24-2.46 2.48-4.7 4.53-2.24 2.04-4.34 3.72t-3.99 3.07q-1.88 1.4-4.39 3.32-2.52 1.91-2.57 1.66-.05-.26-.04.64.01.89-.27 1.73-.28.85-.81 1.56-.53.72-1.26 1.22-.74.51-1.59.75-.86.25-1.75.21t-1.72-.36q-.83-.33-1.51-.9-.69-.57-1.15-1.33-.47-.76-.67-1.62-.2-.87-.11-1.76.09-.88.46-1.7.36-.81.97-1.46t1.39-1.08q.79-.42 1.66-.57.88-.15 1.76-.02.88.14 1.67.55t1.41 1.05 1 1.45q.38.8.48 1.69.11.88-.08 1.76-.18.87-.63 1.63-.46.77-1.13 1.35-.67.59-1.5.92-.82.34-1.71.39-.89.06-1.75-.17t-1.6-.73q-.74-.49-1.29-1.19-.54-.71-.84-1.55l-.29-.84 2.49-5.07q2.49-5.07 5.2-6.67t4.53-2.74q1.81-1.14 3.7-2.46 1.9-1.32 3.95-3.08 2.05-1.77 4.19-4 2.13-2.22 4.12-4.78 2-2.56 3.88-5.57t3.59-6.35q1.7-3.34 2.78-5.69 1.09-2.35 1.97-5.94.89-3.6 1.07-5.83.19-2.22.29-4.54.1-2.31.14-4.69t.04-4.78-.07-4.92-.17-4.98-.33-6.45-.69-7.22q-.47-3.23-1.36-6.36-.9-3.13-2.33-5.97-1.42-2.84-2.62-4.8-1.2-1.95-2.53-3.96-1.33-2-2.9-4.46t-3.13-5.05q-1.55-2.58-2.99-4.97-1.45-2.39-2.82-5.34-1.38-2.94-2.02-5.05-.65-2.11-1.03-4.38-.38-2.28-.49-4.45t-.03-5.33.29-5.61.8-5.35 1.49-5.31q.89-2.42 2.45-5.31 1.56-2.9 2.82-4.68t2.77-3.57q1.51-1.8 3.39-3.75 1.89-1.95 4.57-4.31 2.68-2.37 4.56-3.78t4.07-2.79q2.19-1.39 4.45-2.58 2.25-1.18 2.84-1.41.6-.23 1.24-.31.63-.08 1.26-.01.63.08 1.23.3.6.23 1.13.59.52.36.95.83.43.48.73 1.05.3.56.45 1.18.16.62.16 1.26 0 .63-.15 1.25t-.44 1.19-.72 1.05q-.42.48-.94.85z"/><path fill="#1e1e1e" fill-opacity=".7" stroke-opacity=".7" d="m362.633 108.441.32.93q.32.93 1.32 3.09.99 2.16 1.98 4.26 1 2.1 2.2 4.21 1.21 2.11 2.54 3.93 1.33 1.83 2.7 3.68 1.37 1.86 2.55 3.71 1.18 1.86 2.63 3.97 1.45 2.1 2.58 4.2 1.13 2.09 2.53 4.23 1.41 2.15 2.75 4.56t2.18 4.83q.83 2.42 1.27 4.61.45 2.18.77 4.92t.33 5.83q.02 3.08-.22 5.27t-.87 5.02-1.37 5.42q-.73 2.58-1.55 5.17-.81 2.59-1.58 5.07t-1.59 5.13-1.27 4.35-.75 2.55q-.29.85-.78 1.6-.48.76-1.14 1.37-.65.62-1.43 1.06-.78.45-1.65.69-.86.24-1.76.27t-1.78-.16-1.68-.58q-.81-.39-1.5-.97-.69-.57-1.23-1.29-.53-.73-.87-1.56-.35-.82-.49-1.71-.13-.89-.05-1.79.08-.89 1.13-3.19t1.89-4.48 1.95-5.53 2.1-6.75q.99-3.41 1.58-6.37.59-2.97.81-5.8t.23-5.6q.01-2.78-.16-5.01-.17-2.24-.51-4.4-.34-2.15-1.12-4.7-.77-2.55-1.76-4.74-.99-2.18-2.3-4.55t-2.97-4.62q-1.66-2.26-3.55-4.63-1.89-2.38-3.53-4.27t-3.06-3.52q-1.4-1.62-2.82-3.38-1.41-1.76-2.67-3.94-1.26-2.17-2-4.44t-1.1-4.6q-.35-2.31-.36-4.7-.01-2.38.26-4.53.28-2.15.74-4.29.45-2.15 1.38-4.42.92-2.27 2.18-4.31 1.27-2.03 2.8-3.9 1.52-1.88 2.22-2.64.69-.77 1.4-1.38.71-.6 1.54-1.02t1.74-.63q.91-.2 1.84-.19.93.02 1.83.26t1.72.68q.82.45 1.5 1.08.69.63 1.21 1.41.51.77.83 1.65.31.88.41 1.8.09.93-.03 1.85-.13.92-.48 1.79-.34.86-.89 1.62-.54.76.47-1.71 1-2.46.37-.29-.63 2.18-1.58 4.5t-.95 4.56q0 2.25.71 4.38.72 2.13 1.82 4.41 1.09 2.27 2.13 4.38t2.13 4.33q1.09 2.23 2.07 4.36.98 2.14 2.19 4.57 1.21 2.42 2.19 4.42.99 2 1.7 4.66t-.95.78q-1.65-1.89.43.19 2.07 2.08 2.85 4.99.79 2.92 1.51 5.04.72 2.13 1.6 4.1.87 1.97 1.77 3.98.9 2.02 1.71 4.42.8 2.4 1.16 4.66.37 2.25.61 4.43.24 2.19.58 4.68.35 2.5.54 4.74.2 2.23.28 4.37l.16 4.31q.09 2.19-.07 4.84-.15 2.66-.82 5.3-.68 2.65-1.63 4.99t-2.1 4.18q-1.16 1.83-2.57 3.58t-3.13 3.75-3.28 3.84q-1.57 1.84-3.08 3.54-1.5 1.69-3.14 3.42-1.63 1.73-3.23 3.37-1.59 1.64-3.24 3.17-1.65 1.54-2.02 2.02-.36.49-1.01 1.16-.65.68-1.45 1.18-.79.5-1.68.8t-1.82.37q-.94.08-1.87-.07-.92-.15-1.78-.52-.87-.37-1.61-.93-.75-.57-1.34-1.29-.59-.73-.99-1.58-.41-.85-.59-1.76-.19-.92-.15-1.86t.3-1.84.73-1.71 2.64-2.9q2.19-2.08 4.11-3.93 1.92-1.86 3.55-3.99 1.63-2.14 2.97-4.11 1.33-1.97 2.81-4.47 1.47-2.49 2.56-4.49 1.1-1.99 2.41-4.91 1.32-2.93 2.3-5.44t1.92-5.1q.95-2.59 1.66-5.24.72-2.64 1.05-5.39t.42-5.77-.15-5.32-.99-5.16q-.75-2.85-1.8-5.24-1.05-2.38-2.44-4.62-1.39-2.25-2.71-3.97t-2.97-3.43q-1.65-1.72-3.59-3.72-1.93-2-3.78-4.16-1.85-2.17-3.41-4.44t-2.94-4.4q-1.38-2.14-2.63-4.49-1.26-2.36-2.43-4.5t1.59-1.95 5.92-1.72q3.15-1.92 3.76.42.61 2.33 1.83 4.4 1.21 2.07 2.86 4.23 1.65 2.17 3.18 4.09 1.52 1.92 3.02 3.86 1.5 1.95 3.08 4.23t2.98 4.57q1.41 2.28 2.74 4.35 1.33 2.06 2.36 3.93 1.03 1.86 2.06 4.15t1.82 4.97q.79 2.67 1.23 5.19.43 2.51.6 4.69.17 2.17.3 4.8.14 2.64.16 5.14.01 2.51-.04 4.7-.06 2.2-.16 5.17-.1 2.98-.37 6.37-.27 3.38-.8 6t-1.12 4.81q-.6 2.18-1.37 4.45-.77 2.26-1.65 4.29-.89 2.03-2.45 4.77t-2.77 4.67-2.41 3.75-2.6 3.86q-1.4 2.05-2.65 3.89-1.26 1.83-2.41 3.67-1.14 1.84-2.64 3.79-1.49 1.95-3 3.48-1.51 1.52-3.34 2.99-1.82 1.48-3.25 2.47-1.43 1-2.23 1.46-.78.46-1.66.72-.89.25-1.8.29-.92.04-1.82-.14-.9-.19-1.73-.58t-1.54-.97q-.72-.58-1.27-1.31-.55-.74-.91-1.58t-.51-1.75-.08-1.82q.07-.92.36-1.79t.78-1.65q.49-.77 1.15-1.41.67-.64-.81 2.94-1.48 3.57-1.46 2.34.03-1.23.45-2.39t1.19-2.12q.76-.97 1.8-1.64 1.03-.67 2.23-.97 1.19-.3 2.42-.21t2.36.57 2.05 1.3 1.53 1.89q.62 1.07.86 2.28.23 1.21.07 2.43t-.7 2.33-1.41 1.98q-.86.88-1.96 1.43-1.1.56-2.32.73t-2.43-.05q-1.21-.23-2.29-.83-1.07-.6-1.9-1.52-.83-.91-1.32-2.04t-.6-2.36q-.11-1.22.19-2.42.29-1.2.95-2.24.65-1.04 1.61-1.82t2.11-1.21q1.16-.43 2.39-.47t2.41.32q1.17.35 2.17 1.07 1.01.71 1.73 1.71.73 1-.38 5.75t-1.91 5.21q-.78.46-1.66.72-.89.25-1.8.29-.92.04-1.82-.14-.9-.19-1.73-.58t-1.54-.97q-.72-.58-1.27-1.31-.55-.74-.91-1.58t-.51-1.75-.08-1.82q.07-.92.36-1.79t.78-1.65q.49-.77 1.15-1.41t3.18-2.44q2.52-1.79 4.12-3.43 1.59-1.63 2.88-3.42 1.29-1.78 2.71-3.89 1.42-2.12 2.79-3.96t2.79-3.97q1.43-2.14 2.55-3.97 1.13-1.83 2.34-3.92t2.13-4.32q.91-2.24 1.68-4.95.77-2.72 1.24-5.51t.57-5.51q.1-2.71.16-5.79.05-3.08.04-5.59-.01-2.5-.08-4.65-.08-2.15-.28-4.8-.19-2.65-.58-4.78-.38-2.13-1.04-4.15-.67-2.03-1.77-4.22-1.1-2.18-2.44-4.29-1.33-2.11-2.62-4.2-1.28-2.09-2.6-3.97-1.31-1.89-2.72-3.71-1.4-1.82-2.95-3.81-1.55-1.98-2.99-3.86-1.43-1.88-2.92-4.15-1.5-2.28-2.46-4.18-.95-1.9-1.72-4.2t-1.07-4.53q-.29-2.22-.07-4.77.21-2.56 1.44-4.35t3.4-2.38q2.17-.6 5.45.26 3.3.86 4.6 2.95t2.3 4.01q1 1.91 2.34 4.41 1.33 2.51 2.62 4.47 1.3 1.96 2.51 3.74t2.71 3.45q1.51 1.67 3.4 3.65 1.88 1.99 3.31 3.62t3.13 3.97q1.69 2.33 2.85 4.21 1.15 1.88 2.31 4.12 1.15 2.24 2.04 4.6.88 2.36 1.54 4.87.67 2.5 1.15 5.49.48 2.98.61 6.38.13 3.41-.05 7.15-.17 3.73-.8 7.37-.63 3.63-1.53 6.66-.91 3.03-1.88 5.86-.98 2.83-1.98 5.45-1 2.61-2.01 4.88-1.01 2.26-2.18 4.55-1.18 2.28-2.56 4.71t-2.59 4.26q-1.22 1.83-2.49 3.72t-2.79 3.86q-1.52 1.96-3.03 3.53-1.51 1.58-3.53 3.41-2.02 1.84-2.67 2.51-.65.68-1.45 1.18-.79.5-1.68.8t-1.82.37q-.94.08-1.86-.07-.93-.15-1.79-.52-.87-.37-1.61-.93-.75-.57-1.34-1.29-.59-.73-.99-1.58-.41-.84-.59-1.76-.19-.92-.15-1.86t.3-1.84.73-1.71 1.82-2.35q1.34-1.53 3.01-3.07 1.68-1.55 3.22-3.1 1.55-1.55 3.03-3.13 1.49-1.59 3.01-3.29 1.51-1.7 3.07-3.53 1.55-1.83 3.1-3.62 1.54-1.79 2.83-3.5t2.08-3.81 1.05-4.43.18-4.79q-.08-2.47-.19-4.74-.11-2.28-.4-4.44l-.59-4.27q-.29-2.11-.73-4.88-.44-2.76-1.36-4.99-.93-2.23-1.88-4.37-.96-2.13-1.99-4.77-1.02-2.63-1.33-5.71-.32-3.08-1.8-5.58-1.47-2.51-2.58-4.74l-2.17-4.32q-1.05-2.09-2.31-4.76-1.26-2.66-2.23-4.63t-2.03-4.11-2.2-4.56q-1.13-2.41-1.92-4.57-.78-2.15-1.31-4.67-.54-2.53-.58-5.09-.04-2.55.52-5.32.55-2.76 1.69-4.7 1.12-1.94 2.13-4.5 1-2.56 1.71-3.17.71-.6 1.54-1.02t1.74-.62q.91-.21 1.84-.2.93.02 1.83.26t1.72.68q.82.45 1.5 1.08.69.63 1.21 1.41.51.77.83 1.65.31.88.41 1.8.09.93-.03 1.85-.13.92-.48 1.79-.34.86-.89 1.62-.54.76-1.38 1.65-.84.9-2.25 2.82-1.42 1.93-2.19 4.03-.78 2.11-1.08 4.57-.3 2.47-.01 4.72.28 2.25 1.31 4.19 1.03 1.93 2.43 3.69t2.92 3.58q1.52 1.83 2.9 3.51 1.38 1.67 2.67 3.36t2.59 3.47q1.29 1.77 2.7 3.97t2.4 4.21q.99 2 2.17 4.85 1.18 2.86 1.88 5.2.71 2.34 1.22 5.01.5 2.67.77 5.35.26 2.68.35 5.7t-.02 6.38q-.12 3.35-.55 6.93-.42 3.57-1.24 7.32-.81 3.74-1.77 7.44t-2.02 7.17q-1.06 3.48-2.09 5.49-1.03 2-1.33 2.85-.29.85-.77 1.6-.49.76-1.14 1.37-.66.62-1.44 1.06-.78.45-1.65.69-.86.24-1.76.27t-1.78-.16q-.87-.19-1.68-.58t-1.5-.97q-.69-.57-1.23-1.29-.53-.73-.87-1.55-.35-.83-.49-1.72-.13-.89-.05-1.78.08-.9.55-2.66.47-1.77 1.19-3.97.71-2.2 1.58-5.14t1.61-5.2q.73-2.26 1.44-4.67t1.39-5.12q.68-2.7.88-4.94.21-2.25.06-5.04-.14-2.79-.52-4.98-.38-2.18-1.32-4.6t-2.27-4.52q-1.32-2.09-2.39-4.19-1.08-2.1-2.18-4.09t-2.38-4.22q-1.27-2.23-2.44-4.09-1.18-1.87-2.58-4.19-1.41-2.33-2.44-4.36-1.03-2.04-1.67-4.35-.63-2.31-1.35-4.55t-1.25-4.43q-.54-2.19-.69-3.16t-.23-1.58q-.07-.61 0-1.21.07-.61.29-1.18t.56-1.07q.35-.51.81-.92.46-.4 1-.69.54-.28 1.13-.43.6-.15 1.21-.15.6 0 1.2.15.59.14 1.13.43.55.28 1 .69.46.4.81.91.35.5.57 1.07z"/><g stroke-linecap="round"><path fill="#ccbdac" stroke-width="0" d="M689.82 52.52c9.9 8.74 18.03 23.4 23.74 37.88 5.71 14.49 8.18 31.77 10.51 49.03 2.32 17.26 4.8 37.59 3.45 54.52-1.34 16.93-5.82 31.87-11.55 47.04-5.72 15.18-13.52 32.09-22.79 44.01-9.26 11.92-21.58 20.87-32.78 27.5s-22.84 10.64-34.43 12.26c-11.6 1.62-23.14 1.46-35.14-2.52-11.99-3.99-26.69-12.36-36.83-21.39-10.13-9.02-16.72-19.76-23.99-32.76s-15.5-29.09-19.64-45.23c-4.15-16.15-4.94-34.15-5.24-51.62s.13-37.04 3.44-53.18c3.3-16.14 8.73-30.17 16.38-43.65 7.66-13.48 19.14-27.6 29.55-37.23 10.42-9.63 21.67-16.37 32.97-20.55 11.3-4.19 22.75-5.75 34.82-4.55 12.08 1.2 24.19 2.34 37.63 11.75 13.43 9.42 34.34 33.2 42.99 44.75 8.66 11.54 10.58 22.59 8.95 24.53M538 48.1c7.23-12.95 23.57-17.89 35.33-23.96 11.76-6.06 23.6-11.07 35.25-12.41 11.64-1.35 23.32.15 34.62 4.37 11.29 4.21 23.43 11.66 33.16 20.89 9.72 9.24 18.05 21.16 25.2 34.53 7.14 13.38 13.71 29.41 17.64 45.7 3.93 16.3 5.3 34.28 5.92 52.07.62 17.78 1.94 37.89-2.19 54.64-4.14 16.75-14.99 32.63-22.63 45.87-7.64 13.25-13.04 25.16-23.21 33.6-10.18 8.43-25.78 13.42-37.83 17.01-12.04 3.6-22.82 5.51-34.43 4.55-11.62-.97-23.93-3.4-35.26-10.35s-24.02-19.2-32.72-31.33c-8.71-12.13-14.18-25.99-19.5-41.43-5.33-15.43-10.63-34.18-12.45-51.18s-.65-34.63 1.54-50.82c2.18-16.19 5.48-31.69 11.58-46.33s20.52-34.33 25.03-41.51 1.12-3.11 2.03-1.55"/><path fill="none" stroke="#1e1e1e" d="M527.51 72.82c5.3-14.55 16.06-24.45 25.88-34.23 9.81-9.78 21.2-19.46 33.02-24.44 11.81-4.99 25.78-6.54 37.87-5.46s23.57 5.11 34.68 11.93c11.1 6.83 23.2 16.96 31.94 29.01s14.85 27.94 20.5 43.28c5.66 15.34 10.88 31.96 13.44 48.75s3.74 35.28 1.94 52c-1.81 16.73-6.71 33.32-12.76 48.33-6.06 15.01-14.7 29.95-23.55 41.74s-18.57 22.26-29.56 29c-10.98 6.73-24.3 9.71-36.35 11.42-12.04 1.71-24.12 2.81-35.91-1.15-11.79-3.97-24.66-13.06-34.83-22.65-10.17-9.58-18.89-21.76-26.19-34.86-7.31-13.11-13.49-27.88-17.65-43.76-4.15-15.88-7.48-34.14-7.27-51.53s2.61-33.74 8.52-52.8c5.92-19.07 19.76-48.94 26.96-61.59 7.19-12.65 14.98-15.81 16.22-14.31m-14.27 12.38c7.12-12.76 15.85-22.94 26.86-30.61 11.01-7.66 26.86-14.14 39.19-15.38s23.26 3.48 34.77 7.95c11.51 4.46 23.74 9.76 34.3 18.86s21.39 22.45 29.06 35.74c7.67 13.28 12.74 28.27 16.95 43.97 4.22 15.69 8.62 33.09 8.36 50.18s-5.8 35.98-9.93 52.35-8.17 32.3-14.86 45.87-15.05 25.69-25.25 35.53-23.98 19.06-35.95 23.5c-11.98 4.45-23.55 4.48-35.91 3.18-12.37-1.3-27.5-4.88-38.3-10.99-10.81-6.11-17.74-13.91-26.54-25.66-8.8-11.76-20.33-29.7-26.25-44.86-5.92-15.15-7.47-29.64-9.26-46.06-1.79-16.43-3.44-35.57-1.48-52.5s7.5-33.8 13.24-49.07c5.75-15.27 18-35.45 21.25-42.55 3.24-7.1-2.62-1.84-1.79-.07"/></g><g fill-opacity=".7" stroke-linecap="round" stroke-opacity=".7"><path fill="#6f4e37" stroke-width="0" d="M656.306 20.92c10.91 3.36 19.71 15.65 28.83 27.32 9.11 11.68 19.46 27.86 25.85 42.7 6.4 14.85 10.37 29.56 12.51 46.38 2.13 16.82 2.44 37.45.3 54.56-2.13 17.12-7.55 33.33-13.13 48.15-5.59 14.81-12.28 28.83-20.38 40.75-8.09 11.91-17.2 23.43-28.18 30.72-10.99 7.29-26.01 11.01-37.74 13.02s-21.36 2.46-32.67-.94c-11.3-3.39-24.97-10.41-35.13-19.42-10.17-9.01-18.22-21.04-25.88-34.62s-15.5-30.93-20.11-46.85c-4.6-15.92-7.58-31.71-7.51-48.66.06-16.95 3.92-36.63 7.88-53.05s9.2-31.91 15.88-45.46c6.67-13.55 14.38-26.11 24.17-35.84s22.97-17.41 34.56-22.54 18.88-12.53 34.99-8.22 48.46 22.74 61.68 34.08c13.22 11.35 19.12 31.58 17.63 34.01m3.15-2.78c8.83 12.11 12.99 29.8 16.3 45.95 3.3 16.16 4.05 34.04 3.52 50.98-.53 16.95-2.4 34.86-6.7 50.69s-11.54 31.18-19.11 44.29c-7.56 13.11-16.43 25.16-26.3 34.36s-22.15 16.22-32.92 20.85c-10.77 4.64-19.82 7.98-31.7 6.95-11.89-1.03-28.71-5.89-39.62-13.14s-17.23-17.8-25.84-30.34c-8.6-12.54-19.99-29.32-25.8-44.92-5.81-15.59-7.67-32.37-9.06-48.67-1.4-16.29-1.07-32.33.71-49.07 1.77-16.75 4.08-36.05 9.94-51.38 5.86-15.34 16.11-28.92 25.24-40.63 9.12-11.7 18.57-22.87 29.52-29.61s24.29-10.31 36.18-10.82 23.47 2.99 35.16 7.76c11.69 4.76 24.68 12.03 34.96 20.81 10.29 8.79 23.01 26.03 26.76 31.91s-2.74 1.15-4.26 3.38"/><path fill="none" stroke="#1e1e1e" stroke-width="4" d="M703.376 77.49c7.78 11.56 11.97 28.05 15.54 43.91s6.3 34.23 5.89 51.26c-.4 17.02-4.04 34.74-8.34 50.88-4.29 16.14-9.55 32.23-17.44 45.95-7.89 13.73-19.49 27.2-29.89 36.4-10.41 9.19-21.34 15.28-32.53 18.78-11.18 3.49-22.84 4.48-34.59 2.19-11.76-2.29-24.8-8.28-35.92-15.93s-22.31-17.92-30.8-29.99c-8.5-12.07-14.91-26.7-20.15-42.44-5.23-15.74-9.74-35.04-11.27-51.98-1.53-16.93-.25-32.87 2.1-49.64s5.94-35.82 12.01-50.98c6.06-15.16 15.12-29.13 24.39-39.97 9.26-10.84 20.24-19.04 31.2-25.07 10.96-6.02 22.33-10.07 34.55-11.08s27.23-.2 38.78 5.01 18.75 9.92 30.52 26.24c11.77 16.31 32.89 53.28 40.08 71.63 7.18 18.34 5.16 37.88 3.02 38.44m-187.72-93.35c6.57-14.05 21.77-25.64 32.62-33.09 10.85-7.44 20.99-9.59 32.49-11.59 11.5-1.99 24.52-3.46 36.54-.37 12.02 3.08 25.15 10.51 35.59 18.87s19.06 18.91 27.06 31.31 16.82 27.31 20.94 43.1c4.12 15.78 3.4 34.42 3.77 51.61.38 17.2 1.02 35.12-1.52 51.55s-6.86 32.6-13.73 47.03-17.67 29.29-27.49 39.55c-9.82 10.27-19.81 16.94-31.43 22.06-11.61 5.12-26.73 8.45-38.28 8.67-11.54.21-20.03-1.16-30.98-7.37-10.94-6.21-25.44-18.89-34.68-29.89-9.24-10.99-14.83-21.96-20.76-36.06-5.93-14.09-12.27-31.84-14.81-48.52-2.54-16.69-1.82-34.44-.46-51.58s4.36-35.15 8.64-51.26 13.82-38.46 17.02-45.4c3.2-6.95.93 1.52 2.18 3.71"/></g><path fill="#1e1e1e" fill-opacity=".7" stroke-opacity=".7" d="m640.69 57.022-2.24 1.2q-2.23 1.2-5.42 3.6-3.18 2.41-5.2 4.51-2.01 2.11-3.42 3.89-1.42 1.79-2.96 4.11-1.55 2.32-2.6 4.44t-1.89 4.69q-.85 2.56-1.17 5.33-.31 2.77-.34 5.47-.04 2.69.15 5.37t.93 5.23 1.71 4.44q.97 1.9 2.24 4.03t2.85 4.89 2.9 4.83 2.7 4.13q1.39 2.07 2.73 4.23t2.56 4.39q1.21 2.22 2.38 5.07t1.94 5.89q.78 3.05 1.24 7.11.45 4.05.51 6.28t.05 4.52-.08 4.83q-.08 2.54-.17 5.14-.1 2.6-.22 5.11t-.25 4.97q-.14 2.47-.32 4.9-.17 2.43-.42 4.88-.26 2.45-.68 4.85-.44 2.41-1.13 4.77t-2.39 5.55-4.17 6.63q-2.46 3.44-4.78 6.49t-4.66 5.81q-2.34 2.75-4.79 5.24-2.46 2.48-4.7 4.53-2.24 2.04-4.34 3.72t-3.99 3.07q-1.88 1.4-4.39 3.32-2.52 1.91-2.57 1.66-.05-.26-.04.64.01.89-.27 1.73-.28.85-.81 1.56-.53.72-1.26 1.22-.74.51-1.59.75-.86.25-1.75.21t-1.72-.36q-.83-.33-1.51-.9-.69-.57-1.15-1.33-.47-.76-.67-1.62-.2-.87-.11-1.76.09-.88.46-1.7.36-.81.97-1.46t1.39-1.08q.79-.42 1.66-.57.88-.15 1.76-.02.88.14 1.67.55t1.41 1.05 1 1.45q.38.8.48 1.69.11.88-.08 1.76-.18.87-.63 1.63-.46.77-1.13 1.35-.67.59-1.5.92-.82.34-1.71.39-.89.06-1.75-.17t-1.6-.73q-.74-.49-1.29-1.19-.54-.71-.84-1.55l-.29-.84 2.49-5.07q2.49-5.07 5.2-6.67t4.53-2.74q1.81-1.14 3.7-2.46 1.9-1.32 3.95-3.08 2.05-1.77 4.19-4 2.13-2.22 4.12-4.78 2-2.56 3.88-5.57t3.59-6.35q1.7-3.34 2.78-5.69 1.09-2.35 1.97-5.94.89-3.6 1.07-5.83.19-2.22.29-4.54.1-2.31.14-4.69t.04-4.78-.07-4.92-.17-4.98-.33-6.45-.69-7.22q-.47-3.23-1.36-6.36-.9-3.13-2.33-5.97-1.42-2.84-2.62-4.8-1.2-1.95-2.53-3.96-1.33-2-2.9-4.46t-3.13-5.05q-1.55-2.58-2.99-4.97-1.45-2.39-2.82-5.34-1.38-2.94-2.02-5.05-.65-2.11-1.03-4.38-.38-2.28-.49-4.45t-.03-5.33.29-5.61.8-5.35 1.49-5.31q.89-2.42 2.45-5.31 1.56-2.9 2.82-4.68t2.77-3.57q1.51-1.8 3.39-3.75 1.89-1.95 4.57-4.31 2.68-2.37 4.56-3.78t4.07-2.79q2.19-1.39 4.45-2.58 2.25-1.18 2.84-1.41.6-.23 1.24-.31.63-.08 1.26-.01.63.08 1.23.3.6.23 1.13.59.52.36.95.83.43.48.73 1.05.3.56.45 1.18.16.62.16 1.26 0 .63-.15 1.25t-.44 1.19-.72 1.05q-.42.48-.94.85z"/><path fill="#1e1e1e" fill-opacity=".7" stroke-opacity=".7" d="m611.108 108.441.32.93q.32.93 1.32 3.09.99 2.16 1.98 4.26 1 2.1 2.2 4.21 1.21 2.11 2.54 3.93 1.33 1.83 2.7 3.68 1.37 1.86 2.55 3.71 1.18 1.86 2.63 3.97 1.45 2.1 2.58 4.2 1.13 2.09 2.53 4.23 1.41 2.15 2.75 4.56t2.18 4.83q.83 2.42 1.27 4.61.45 2.18.77 4.92t.33 5.83q.02 3.08-.22 5.27t-.87 5.02-1.37 5.42q-.73 2.58-1.55 5.17-.81 2.59-1.58 5.07t-1.59 5.13-1.27 4.35-.75 2.55q-.29.85-.78 1.6-.48.76-1.14 1.37-.65.62-1.43 1.06-.78.45-1.65.69-.86.24-1.76.27t-1.78-.16-1.68-.58q-.81-.39-1.5-.97-.69-.57-1.23-1.29-.53-.73-.87-1.56-.35-.82-.49-1.71-.13-.89-.05-1.79.08-.89 1.13-3.19t1.89-4.48 1.95-5.53 2.1-6.75q.99-3.41 1.58-6.37.59-2.97.81-5.8t.23-5.6q.01-2.78-.16-5.01-.17-2.24-.51-4.4-.34-2.15-1.12-4.7-.77-2.55-1.76-4.74-.99-2.18-2.3-4.55t-2.97-4.62q-1.66-2.26-3.55-4.63-1.89-2.38-3.53-4.27t-3.06-3.52q-1.4-1.62-2.82-3.38-1.41-1.76-2.67-3.94-1.26-2.17-2-4.44t-1.1-4.6q-.35-2.31-.36-4.7-.01-2.38.26-4.53.28-2.15.74-4.29.45-2.15 1.38-4.42.92-2.27 2.18-4.31 1.27-2.03 2.8-3.9 1.52-1.88 2.22-2.64.69-.77 1.4-1.38.71-.6 1.54-1.02t1.74-.63q.91-.2 1.84-.19.93.02 1.83.26t1.72.68q.82.45 1.5 1.08.69.63 1.21 1.41.51.77.83 1.65.31.88.41 1.8.09.93-.03 1.85-.13.92-.48 1.79-.34.86-.89 1.62-.54.76.47-1.71 1-2.46.37-.29-.63 2.18-1.58 4.5t-.95 4.56q0 2.25.71 4.38.72 2.13 1.82 4.41 1.09 2.27 2.13 4.38t2.13 4.33q1.09 2.23 2.07 4.36.98 2.14 2.19 4.57 1.21 2.42 2.19 4.42.99 2 1.7 4.66t-.95.78q-1.65-1.89.43.19 2.07 2.08 2.85 4.99.79 2.92 1.51 5.04.72 2.13 1.6 4.1.87 1.97 1.77 3.98.9 2.02 1.71 4.42.8 2.4 1.16 4.66.37 2.25.61 4.43.24 2.19.58 4.68.35 2.5.54 4.74.2 2.23.28 4.37l.16 4.31q.09 2.19-.07 4.84-.15 2.66-.82 5.3-.68 2.65-1.63 4.99t-2.1 4.18q-1.16 1.83-2.57 3.58t-3.13 3.75-3.28 3.84q-1.57 1.84-3.08 3.54-1.5 1.69-3.14 3.42-1.63 1.73-3.23 3.37-1.59 1.64-3.24 3.17-1.65 1.54-2.02 2.02-.36.49-1.01 1.16-.65.68-1.45 1.18-.79.5-1.68.8t-1.82.37q-.94.08-1.87-.07-.92-.15-1.78-.52-.87-.37-1.61-.93-.75-.57-1.34-1.29-.59-.73-.99-1.58-.41-.85-.59-1.76-.19-.92-.15-1.86t.3-1.84.73-1.71 2.64-2.9q2.19-2.08 4.11-3.93 1.92-1.86 3.55-3.99 1.63-2.14 2.97-4.11 1.33-1.97 2.81-4.47 1.47-2.49 2.56-4.49 1.1-1.99 2.41-4.91 1.32-2.93 2.3-5.44t1.92-5.1q.95-2.59 1.66-5.24.72-2.64 1.05-5.39t.42-5.77-.15-5.32-.99-5.16q-.75-2.85-1.8-5.24-1.05-2.38-2.44-4.62-1.39-2.25-2.71-3.97t-2.97-3.43q-1.65-1.72-3.59-3.72-1.93-2-3.78-4.16-1.85-2.17-3.41-4.44t-2.94-4.4q-1.38-2.14-2.63-4.49-1.26-2.36-2.43-4.5t1.59-1.95 5.92-1.72q3.15-1.92 3.76.42.61 2.33 1.83 4.4 1.21 2.07 2.86 4.23 1.65 2.17 3.18 4.09 1.52 1.92 3.02 3.86 1.5 1.95 3.08 4.23t2.98 4.57q1.41 2.28 2.74 4.35 1.33 2.06 2.36 3.93 1.03 1.86 2.06 4.15t1.82 4.97q.79 2.67 1.23 5.19.43 2.51.6 4.69.17 2.17.3 4.8.14 2.64.16 5.14.01 2.51-.04 4.7-.06 2.2-.16 5.17-.1 2.98-.37 6.37-.27 3.38-.8 6t-1.12 4.81q-.6 2.18-1.37 4.45-.77 2.26-1.65 4.29-.89 2.03-2.45 4.77t-2.77 4.67-2.41 3.75-2.6 3.86q-1.4 2.05-2.65 3.89-1.26 1.83-2.41 3.67-1.14 1.84-2.64 3.79-1.49 1.95-3 3.48-1.51 1.52-3.34 2.99-1.82 1.48-3.25 2.47-1.43 1-2.23 1.46-.78.46-1.66.72-.89.25-1.8.29-.92.04-1.82-.14-.9-.19-1.73-.58t-1.54-.97q-.72-.58-1.27-1.31-.55-.74-.91-1.58t-.51-1.75-.08-1.82q.07-.92.36-1.79t.78-1.65q.49-.77 1.15-1.41.67-.64-.81 2.94-1.48 3.57-1.46 2.34.03-1.23.45-2.39t1.19-2.12q.76-.97 1.8-1.64 1.03-.67 2.23-.97 1.19-.3 2.42-.21t2.36.57 2.05 1.3 1.53 1.89q.62 1.07.86 2.28.23 1.21.07 2.43t-.7 2.33-1.41 1.98q-.86.88-1.96 1.43-1.1.56-2.32.73t-2.43-.05q-1.21-.23-2.29-.83-1.07-.6-1.9-1.52-.83-.91-1.32-2.04t-.6-2.36q-.11-1.22.19-2.42.29-1.2.95-2.24.65-1.04 1.61-1.82t2.11-1.21q1.16-.43 2.39-.47t2.41.32q1.17.35 2.17 1.07 1.01.71 1.73 1.71.73 1-.38 5.75t-1.91 5.21q-.78.46-1.66.72-.89.25-1.8.29-.92.04-1.82-.14-.9-.19-1.73-.58t-1.54-.97q-.72-.58-1.27-1.31-.55-.74-.91-1.58t-.51-1.75-.08-1.82q.07-.92.36-1.79t.78-1.65q.49-.77 1.15-1.41t3.18-2.44q2.52-1.79 4.12-3.43 1.59-1.63 2.88-3.42 1.29-1.78 2.71-3.89 1.42-2.12 2.79-3.96t2.79-3.97q1.43-2.14 2.55-3.97 1.13-1.83 2.34-3.92t2.13-4.32q.91-2.24 1.68-4.95.77-2.72 1.24-5.51t.57-5.51q.1-2.71.16-5.79.05-3.08.04-5.59-.01-2.5-.08-4.65-.08-2.15-.28-4.8-.19-2.65-.58-4.78-.38-2.13-1.04-4.15-.67-2.03-1.77-4.22-1.1-2.18-2.44-4.29-1.33-2.11-2.62-4.2-1.28-2.09-2.6-3.97-1.31-1.89-2.72-3.71-1.4-1.82-2.95-3.81-1.55-1.98-2.99-3.86-1.43-1.88-2.92-4.15-1.5-2.28-2.46-4.18-.95-1.9-1.72-4.2t-1.07-4.53q-.29-2.22-.07-4.77.21-2.56 1.44-4.35t3.4-2.38q2.17-.6 5.45.26 3.3.86 4.6 2.95t2.3 4.01q1 1.91 2.34 4.41 1.33 2.51 2.62 4.47 1.3 1.96 2.51 3.74t2.71 3.45q1.51 1.67 3.4 3.65 1.88 1.99 3.31 3.62t3.13 3.97q1.69 2.33 2.85 4.21 1.15 1.88 2.31 4.12 1.15 2.24 2.04 4.6.88 2.36 1.54 4.87.67 2.5 1.15 5.49.48 2.98.61 6.38.13 3.41-.05 7.15-.17 3.73-.8 7.37-.63 3.63-1.53 6.66-.91 3.03-1.88 5.86-.98 2.83-1.98 5.45-1 2.61-2.01 4.88-1.01 2.26-2.18 4.55-1.18 2.28-2.56 4.71t-2.59 4.26q-1.22 1.83-2.49 3.72t-2.79 3.86q-1.52 1.96-3.03 3.53-1.51 1.58-3.53 3.41-2.02 1.84-2.67 2.51-.65.68-1.45 1.18-.79.5-1.68.8t-1.82.37q-.94.08-1.86-.07-.93-.15-1.79-.52-.87-.37-1.61-.93-.75-.57-1.34-1.29-.59-.73-.99-1.58-.41-.84-.59-1.76-.19-.92-.15-1.86t.3-1.84.73-1.71 1.82-2.35q1.34-1.53 3.01-3.07 1.68-1.55 3.22-3.1 1.55-1.55 3.03-3.13 1.49-1.59 3.01-3.29 1.51-1.7 3.07-3.53 1.55-1.83 3.1-3.62 1.54-1.79 2.83-3.5t2.08-3.81 1.05-4.43.18-4.79q-.08-2.47-.19-4.74-.11-2.28-.4-4.44l-.59-4.27q-.29-2.11-.73-4.88-.44-2.76-1.36-4.99-.93-2.23-1.88-4.37-.96-2.13-1.99-4.77-1.02-2.63-1.33-5.71-.32-3.08-1.8-5.58-1.47-2.51-2.58-4.74l-2.17-4.32q-1.05-2.09-2.31-4.76-1.26-2.66-2.23-4.63t-2.03-4.11-2.2-4.56q-1.13-2.41-1.92-4.57-.78-2.15-1.31-4.67-.54-2.53-.58-5.09-.04-2.55.52-5.32.55-2.76 1.69-4.7 1.12-1.94 2.13-4.5 1-2.56 1.71-3.17.71-.6 1.54-1.02t1.74-.62q.91-.21 1.84-.2.93.02 1.83.26t1.72.68q.82.45 1.5 1.08.69.63 1.21 1.41.51.77.83 1.65.31.88.41 1.8.09.93-.03 1.85-.13.92-.48 1.79-.34.86-.89 1.62-.54.76-1.38 1.65-.84.9-2.25 2.82-1.42 1.93-2.19 4.03-.78 2.11-1.08 4.57-.3 2.47-.01 4.72.28 2.25 1.31 4.19 1.03 1.93 2.43 3.69t2.92 3.58q1.52 1.83 2.9 3.51 1.38 1.67 2.67 3.36t2.59 3.47q1.29 1.77 2.7 3.97t2.4 4.21q.99 2 2.17 4.85 1.18 2.86 1.88 5.2.71 2.34 1.22 5.01.5 2.67.77 5.35.26 2.68.35 5.7t-.02 6.38q-.12 3.35-.55 6.93-.42 3.57-1.24 7.32-.81 3.74-1.77 7.44t-2.02 7.17q-1.06 3.48-2.09 5.49-1.03 2-1.33 2.85-.29.85-.77 1.6-.49.76-1.14 1.37-.66.62-1.44 1.06-.78.45-1.65.69-.86.24-1.76.27t-1.78-.16q-.87-.19-1.68-.58t-1.5-.97q-.69-.57-1.23-1.29-.53-.73-.87-1.55-.35-.83-.49-1.72-.13-.89-.05-1.78.08-.9.55-2.66.47-1.77 1.19-3.97.71-2.2 1.58-5.14t1.61-5.2q.73-2.26 1.44-4.67t1.39-5.12q.68-2.7.88-4.94.21-2.25.06-5.04-.14-2.79-.52-4.98-.38-2.18-1.32-4.6t-2.27-4.52q-1.32-2.09-2.39-4.19-1.08-2.1-2.18-4.09t-2.38-4.22q-1.27-2.23-2.44-4.09-1.18-1.87-2.58-4.19-1.41-2.33-2.44-4.36-1.03-2.04-1.67-4.35-.63-2.31-1.35-4.55t-1.25-4.43q-.54-2.19-.69-3.16t-.23-1.58q-.07-.61 0-1.21.07-.61.29-1.18t.56-1.07q.35-.51.81-.92.46-.4 1-.69.54-.28 1.13-.43.6-.15 1.21-.15.6 0 1.2.15.59.14 1.13.43.55.28 1 .69.46.4.81.91.35.5.57 1.07z"/><g stroke-linecap="round"><path fill="#ccbdac" stroke-width="0" d="M815.107 24.17c9.52-9.18 23.22-9.94 34.73-11.65s22.78-1.93 34.35 1.38c11.56 3.31 24.34 9.52 35.03 18.5 10.7 8.98 21.74 22.14 29.14 35.39 7.41 13.25 11.03 27.89 15.3 44.11 4.27 16.21 9.74 35.68 10.32 53.2.58 17.51-3.15 35.55-6.85 51.89s-8.04 32.69-15.35 46.15c-7.3 13.46-18.09 24.74-28.48 34.62-10.4 9.89-22.65 19.87-33.9 24.68-11.25 4.82-21.98 5.27-33.63 4.23-11.66-1.05-24.74-4.24-36.28-10.48-11.55-6.23-23.92-15.66-32.98-26.92-9.05-11.27-15.53-25.32-21.38-40.67-5.84-15.35-11.33-34.3-13.68-51.42-2.36-17.12-1.96-34.61-.45-51.28 1.5-16.67 4.38-33.81 9.48-48.74 5.1-14.94 10.05-27.41 21.13-40.85 11.08-13.45 36.26-33.38 45.35-39.81 9.09-6.44 8.77-1.73 9.22 1.21m68.83 6.18c10.89 4.04 20.43 16.14 29.1 27.54 8.67 11.41 17.11 25.75 22.94 40.89 5.82 15.14 9.34 32.38 12.02 49.95 2.68 17.56 6.2 37.96 4.06 55.45-2.13 17.5-10.97 34.66-16.89 49.53s-9.71 28.93-18.63 39.69c-8.92 10.77-23.49 18.52-34.88 24.9-11.39 6.37-21.83 11.39-33.46 13.35-11.63 1.97-24.33 2.62-36.34-1.56-12.02-4.18-25.77-13.69-35.76-23.52s-17.1-21.59-24.16-35.44c-7.07-13.86-14.4-31.37-18.23-47.68-3.82-16.3-4.85-33.7-4.72-50.16s1.29-32.75 5.5-48.6c4.22-15.84 11.88-32.21 19.8-46.45 7.91-14.24 17.88-29.29 27.7-38.98 9.82-9.7 19.54-15.72 31.2-19.2 11.65-3.47 26.39-3.64 38.75-1.65s29.62 10.75 35.41 13.6c5.8 2.85.89 1.31-.65 3.47"/><path fill="none" stroke="#1e1e1e" d="M792.567 41.37c7.97-11.79 22.08-18.71 33.25-23.63s21.95-6.3 33.78-5.89c11.84.41 25.42 2.84 37.25 8.36 11.82 5.52 24.15 14.44 33.69 24.77 9.53 10.33 17.37 23.01 23.5 37.21 6.13 14.19 10.44 31.31 13.3 47.94s4.88 35.12 3.86 51.84c-1.01 16.71-5.06 32.69-9.95 48.44-4.9 15.74-11.19 33.42-19.43 46.02-8.24 12.59-19.41 21.85-30.01 29.57s-21.92 13.68-33.59 16.74c-11.67 3.07-24.46 4.25-36.44 1.65s-25.2-8.81-35.43-17.25c-10.24-8.44-17.98-21.11-25.96-33.37-7.99-12.26-16.99-24.92-21.95-40.2-4.96-15.29-6.79-34.02-7.81-51.51s-.85-36.42 1.7-53.41c2.56-16.99 2.16-30.5 13.61-48.52s39.91-48.24 55.08-59.62c15.18-11.38 35.2-11.14 36-8.65m-88.02 66.67c5.43-14.91 17.42-26.23 27.26-36.52 9.83-10.29 20.1-19.61 31.76-25.21 11.66-5.61 26.55-8.8 38.2-8.42s20.74 4.63 31.69 10.68c10.96 6.05 24.1 14.88 34.04 25.64s19.45 24.08 25.62 38.94c6.17 14.85 9.04 33.44 11.4 50.17 2.36 16.74 4.38 33.3 2.76 50.23s-7.67 35.25-12.48 51.34c-4.81 16.08-8.17 33.18-16.37 45.18-8.2 12.01-22.05 19.25-32.84 26.84s-20.3 15.87-31.9 18.71-25.98 1.56-37.71-1.67c-11.72-3.22-22.31-9.07-32.64-17.69s-20.67-20.57-29.33-34.02c-8.67-13.45-17.61-30.69-22.64-46.69s-6.77-32.56-7.54-49.31c-.76-16.75-.85-34.75 2.94-51.19 3.8-16.44 16.41-39.92 19.86-47.46 3.44-7.53-.86.49.8 2.27"/></g><g fill-opacity=".7" stroke-linecap="round" stroke-opacity=".7"><path fill="#6f4e37" stroke-width="0" d="M936.372 55.41c8.85 9.59 14.07 25.39 19.31 40.15 5.23 14.77 9.95 31.48 12.1 48.42s3.23 36.37.81 53.22c-2.43 16.85-9.59 32.82-15.37 47.89-5.79 15.08-10.74 30.8-19.35 42.55s-21.28 21.38-32.31 27.96c-11.02 6.58-21.86 10.75-33.84 11.51-11.98.77-26.11-2.56-38.01-6.94-11.91-4.38-23.98-9.86-33.42-19.33-9.43-9.46-16.5-23.66-23.2-37.45s-13.03-29.23-17.03-45.3-7.24-34-6.98-51.12c.25-17.13 4.28-35.03 8.52-51.63 4.24-16.59 9.5-34.33 16.9-47.94 7.4-13.62 17.62-24.94 27.49-33.74 9.88-8.8 20.59-15.51 31.77-19.06s23.09-3.57 35.33-2.22 23.46-4.62 38.1 10.32c14.63 14.95 39.66 56.8 49.72 79.38 10.05 22.58 11.85 55.25 10.62 56.11m-84.82-144.8c11.19 1.14 23.59 10.79 33.72 20.05s18.92 21.42 27.06 35.49c8.13 14.07 17.87 32.18 21.74 48.94 3.87 16.77 1.5 34.67 1.5 51.65 0 16.99 2.22 34.75-1.51 50.24-3.74 15.49-13.39 29.51-20.9 42.71-7.5 13.2-14.65 26.36-24.11 36.51-9.46 10.16-20.86 19.95-32.66 24.43-11.8 4.49-26.39 4.11-38.13 2.48-11.75-1.62-21.73-5.23-32.34-12.23-10.61-7.01-22.54-18.24-31.31-29.79s-15.63-25.21-21.31-39.53c-5.68-14.31-10.95-29.83-12.78-46.37s-.49-35.17 1.79-52.87c2.29-17.71 6.72-37.81 11.94-53.36 5.21-15.56 10.78-28.88 19.37-39.97 8.58-11.08 20.99-20.01 32.14-26.57 11.15-6.55 22.93-11.36 34.76-12.75s31.1 3.49 36.21 4.39c5.12.9-4.26-.68-5.51 1.02"/><path fill="none" stroke="#1e1e1e" stroke-width="4" d="M776.172 66.58c5.6-13.52 14.93-22.98 24.81-31.54s22.49-16.03 34.48-19.81 25.64-4.57 37.44-2.87c11.81 1.7 23.11 5.92 33.37 13.1 10.26 7.17 19.8 17.98 28.19 29.97 8.4 11.99 16.86 27.01 22.19 41.95 5.34 14.95 8.24 30.68 9.81 47.72s1.98 37.71-.36 54.53c-2.35 16.82-7.81 31.99-13.73 46.4-5.93 14.41-13.11 28.56-21.83 40.06s-19.42 22.27-30.5 28.93c-11.07 6.66-24.47 10.39-35.93 11.04-11.47.65-21.64-2.8-32.86-7.14-11.23-4.33-24.65-9.49-34.5-18.87-9.86-9.38-17.61-23.15-24.65-37.39-7.05-14.24-13.66-31.28-17.6-48.03-3.95-16.75-6.21-35.6-6.08-52.47.14-16.87-1.29-27.83 6.9-48.76 8.19-20.94 30.79-61.7 42.26-76.85 11.46-15.16 25.89-16.45 26.54-14.08m86.99 5.76c10.95 5.08 19.65 17.59 28.04 29.47 8.39 11.89 17.68 26.35 22.28 41.83 4.61 15.48 4.43 33.91 5.33 51.04s2.11 35.12.08 51.74c-2.03 16.61-5.84 33.1-12.26 47.95-6.43 14.85-16.81 30.26-26.31 41.13-9.49 10.87-19.21 18.25-30.66 24.09-11.44 5.84-26.47 9.97-38.01 10.95s-20.13.41-31.24-5.07c-11.12-5.49-25.88-17.46-35.44-27.85-9.57-10.39-15.58-20.8-21.95-34.48s-13.22-31.1-16.28-47.6c-3.05-16.49-2.89-34.18-2.05-51.38.83-17.2 3.29-35.41 7.08-51.82 3.79-16.42 8.31-33.65 15.67-46.67 7.37-13.03 18.3-23.32 28.52-31.47 10.23-8.16 20.64-14.31 32.83-17.48 12.19-3.16 28.05-3.95 40.33-1.51 12.29 2.45 27.66 12.84 33.36 16.21 5.69 3.37 2.05 1.94.82 4.03"/></g><path fill="#1e1e1e" fill-opacity=".7" stroke-opacity=".7" d="m886.045 57.022-2.24 1.2q-2.23 1.2-5.42 3.6-3.18 2.41-5.2 4.51-2.01 2.11-3.42 3.89-1.42 1.79-2.96 4.11-1.55 2.32-2.6 4.44t-1.89 4.69q-.85 2.56-1.17 5.33-.31 2.77-.34 5.47-.04 2.69.15 5.37t.93 5.23 1.71 4.44q.97 1.9 2.24 4.03t2.85 4.89 2.9 4.83 2.7 4.13q1.39 2.07 2.73 4.23t2.56 4.39q1.21 2.22 2.38 5.07t1.94 5.89q.78 3.05 1.24 7.11.45 4.05.51 6.28t.05 4.52-.08 4.83q-.08 2.54-.17 5.14-.1 2.6-.22 5.11t-.25 4.97q-.14 2.47-.32 4.9-.17 2.43-.42 4.88-.26 2.45-.68 4.85-.44 2.41-1.13 4.77t-2.39 5.55-4.17 6.63q-2.46 3.44-4.78 6.49t-4.66 5.81q-2.34 2.75-4.79 5.24-2.46 2.48-4.7 4.53-2.24 2.04-4.34 3.72t-3.99 3.07q-1.88 1.4-4.39 3.32-2.52 1.91-2.57 1.66-.05-.26-.04.64.01.89-.27 1.73-.28.85-.81 1.56-.53.72-1.26 1.22-.74.51-1.59.75-.86.25-1.75.21t-1.72-.36q-.83-.33-1.51-.9-.69-.57-1.15-1.33-.47-.76-.67-1.62-.2-.87-.11-1.76.09-.88.46-1.7.36-.81.97-1.46t1.39-1.08q.79-.42 1.66-.57.88-.15 1.76-.02.88.14 1.67.55t1.41 1.05 1 1.45q.38.8.48 1.69.11.88-.08 1.76-.18.87-.63 1.63-.46.77-1.13 1.35-.67.59-1.5.92-.82.34-1.71.39-.89.06-1.75-.17t-1.6-.73q-.74-.49-1.29-1.19-.54-.71-.84-1.55l-.29-.84 2.49-5.07q2.49-5.07 5.2-6.67t4.53-2.74q1.81-1.14 3.7-2.46 1.9-1.32 3.95-3.08 2.05-1.77 4.19-4 2.13-2.22 4.12-4.78 2-2.56 3.88-5.57t3.59-6.35q1.7-3.34 2.78-5.69 1.09-2.35 1.97-5.94.89-3.6 1.07-5.83.19-2.22.29-4.54.1-2.31.14-4.69t.04-4.78-.07-4.92-.17-4.98-.33-6.45-.69-7.22q-.47-3.23-1.36-6.36-.9-3.13-2.33-5.97-1.42-2.84-2.62-4.8-1.2-1.95-2.53-3.96-1.33-2-2.9-4.46t-3.13-5.05q-1.55-2.58-2.99-4.97-1.45-2.39-2.82-5.34-1.38-2.94-2.02-5.05-.65-2.11-1.03-4.38-.38-2.28-.49-4.45t-.03-5.33.29-5.61.8-5.35 1.49-5.31q.89-2.42 2.45-5.31 1.56-2.9 2.82-4.68t2.77-3.57q1.51-1.8 3.39-3.75 1.89-1.95 4.57-4.31 2.68-2.37 4.56-3.78t4.07-2.79q2.19-1.39 4.45-2.58 2.25-1.18 2.84-1.41.6-.23 1.24-.31.63-.08 1.26-.01.63.08 1.23.3.6.23 1.13.59.52.36.95.83.43.48.73 1.05.3.56.45 1.18.16.62.16 1.26 0 .63-.15 1.25t-.44 1.19-.72 1.05q-.42.48-.94.85z"/><path fill="#1e1e1e" fill-opacity=".7" stroke-opacity=".7" d="m856.463 108.441.32.93q.32.93 1.32 3.09.99 2.16 1.98 4.26 1 2.1 2.2 4.21 1.21 2.11 2.54 3.93 1.33 1.83 2.7 3.68 1.37 1.86 2.55 3.71 1.18 1.86 2.63 3.97 1.45 2.1 2.58 4.2 1.13 2.09 2.53 4.23 1.41 2.15 2.75 4.56t2.18 4.83q.83 2.42 1.27 4.61.45 2.18.77 4.92t.33 5.83q.02 3.08-.22 5.27t-.87 5.02-1.37 5.42q-.73 2.58-1.55 5.17-.81 2.59-1.58 5.07t-1.59 5.13-1.27 4.35-.75 2.55q-.29.85-.78 1.6-.48.76-1.14 1.37-.65.62-1.43 1.06-.78.45-1.65.69-.86.24-1.76.27t-1.78-.16-1.68-.58q-.81-.39-1.5-.97-.69-.57-1.23-1.29-.53-.73-.87-1.56-.35-.82-.49-1.71-.13-.89-.05-1.79.08-.89 1.13-3.19t1.89-4.48 1.95-5.53 2.1-6.75q.99-3.41 1.58-6.37.59-2.97.81-5.8t.23-5.6q.01-2.78-.16-5.01-.17-2.24-.51-4.4-.34-2.15-1.12-4.7-.77-2.55-1.76-4.74-.99-2.18-2.3-4.55t-2.97-4.62q-1.66-2.26-3.55-4.63-1.89-2.38-3.53-4.27t-3.06-3.52q-1.4-1.62-2.82-3.38-1.41-1.76-2.67-3.94-1.26-2.17-2-4.44t-1.1-4.6q-.35-2.31-.36-4.7-.01-2.38.26-4.53.28-2.15.74-4.29.45-2.15 1.38-4.42.92-2.27 2.18-4.31 1.27-2.03 2.8-3.9 1.52-1.88 2.22-2.64.69-.77 1.4-1.38.71-.6 1.54-1.02t1.74-.63q.91-.2 1.84-.19.93.02 1.83.26t1.72.68q.82.45 1.5 1.08.69.63 1.21 1.41.51.77.83 1.65.31.88.41 1.8.09.93-.03 1.85-.13.92-.48 1.79-.34.86-.89 1.62-.54.76.47-1.71 1-2.46.37-.29-.63 2.18-1.58 4.5t-.95 4.56q0 2.25.71 4.38.72 2.13 1.82 4.41 1.09 2.27 2.13 4.38t2.13 4.33q1.09 2.23 2.07 4.36.98 2.14 2.19 4.57 1.21 2.42 2.19 4.42.99 2 1.7 4.66t-.95.78q-1.65-1.89.43.19 2.07 2.08 2.85 4.99.79 2.92 1.51 5.04.72 2.13 1.6 4.1.87 1.97 1.77 3.98.9 2.02 1.71 4.42.8 2.4 1.16 4.66.37 2.25.61 4.43.24 2.19.58 4.68.35 2.5.54 4.74.2 2.23.28 4.37l.16 4.31q.09 2.19-.07 4.84-.15 2.66-.82 5.3-.68 2.65-1.63 4.99t-2.1 4.18q-1.16 1.83-2.57 3.58t-3.13 3.75-3.28 3.84q-1.57 1.84-3.08 3.54-1.5 1.69-3.14 3.42-1.63 1.73-3.23 3.37-1.59 1.64-3.24 3.17-1.65 1.54-2.02 2.02-.36.49-1.01 1.16-.65.68-1.45 1.18-.79.5-1.68.8t-1.82.37q-.94.08-1.87-.07-.92-.15-1.78-.52-.87-.37-1.61-.93-.75-.57-1.34-1.29-.59-.73-.99-1.58-.41-.85-.59-1.76-.19-.92-.15-1.86t.3-1.84.73-1.71 2.64-2.9q2.19-2.08 4.11-3.93 1.92-1.86 3.55-3.99 1.63-2.14 2.97-4.11 1.33-1.97 2.81-4.47 1.47-2.49 2.56-4.49 1.1-1.99 2.41-4.91 1.32-2.93 2.3-5.44t1.92-5.1q.95-2.59 1.66-5.24.72-2.64 1.05-5.39t.42-5.77-.15-5.32-.99-5.16q-.75-2.85-1.8-5.24-1.05-2.38-2.44-4.62-1.39-2.25-2.71-3.97t-2.97-3.43q-1.65-1.72-3.59-3.72-1.93-2-3.78-4.16-1.85-2.17-3.41-4.44t-2.94-4.4q-1.38-2.14-2.63-4.49-1.26-2.36-2.43-4.5t1.59-1.95 5.92-1.72q3.15-1.92 3.76.42.61 2.33 1.83 4.4 1.21 2.07 2.86 4.23 1.65 2.17 3.18 4.09 1.52 1.92 3.02 3.86 1.5 1.95 3.08 4.23t2.98 4.57q1.41 2.28 2.74 4.35 1.33 2.06 2.36 3.93 1.03 1.86 2.06 4.15t1.82 4.97q.79 2.67 1.23 5.19.43 2.51.6 4.69.17 2.17.3 4.8.14 2.64.16 5.14.01 2.51-.04 4.7-.06 2.2-.16 5.17-.1 2.98-.37 6.37-.27 3.38-.8 6t-1.12 4.81q-.6 2.18-1.37 4.45-.77 2.26-1.65 4.29-.89 2.03-2.45 4.77t-2.77 4.67-2.41 3.75-2.6 3.86q-1.4 2.05-2.65 3.89-1.26 1.83-2.41 3.67-1.14 1.84-2.64 3.79-1.49 1.95-3 3.48-1.51 1.52-3.34 2.99-1.82 1.48-3.25 2.47-1.43 1-2.23 1.46-.78.46-1.66.72-.89.25-1.8.29-.92.04-1.82-.14-.9-.19-1.73-.58t-1.54-.97q-.72-.58-1.27-1.31-.55-.74-.91-1.58t-.51-1.75-.08-1.82q.07-.92.36-1.79t.78-1.65q.49-.77 1.15-1.41.67-.64-.81 2.94-1.48 3.57-1.46 2.34.03-1.23.45-2.39t1.19-2.12q.76-.97 1.8-1.64 1.03-.67 2.23-.97 1.19-.3 2.42-.21t2.36.57 2.05 1.3 1.53 1.89q.62 1.07.86 2.28.23 1.21.07 2.43t-.7 2.33-1.41 1.98q-.86.88-1.96 1.43-1.1.56-2.32.73t-2.43-.05q-1.21-.23-2.29-.83-1.07-.6-1.9-1.52-.83-.91-1.32-2.04t-.6-2.36q-.11-1.22.19-2.42.29-1.2.95-2.24.65-1.04 1.61-1.82t2.11-1.21q1.16-.43 2.39-.47t2.41.32q1.17.35 2.17 1.07 1.01.71 1.73 1.71.73 1-.38 5.75t-1.91 5.21q-.78.46-1.66.72-.89.25-1.8.29-.92.04-1.82-.14-.9-.19-1.73-.58t-1.54-.97q-.72-.58-1.27-1.31-.55-.74-.91-1.58t-.51-1.75-.08-1.82q.07-.92.36-1.79t.78-1.65q.49-.77 1.15-1.41t3.18-2.44q2.52-1.79 4.12-3.43 1.59-1.63 2.88-3.42 1.29-1.78 2.71-3.89 1.42-2.12 2.79-3.96t2.79-3.97q1.43-2.14 2.55-3.97 1.13-1.83 2.34-3.92t2.13-4.32q.91-2.24 1.68-4.95.77-2.72 1.24-5.51t.57-5.51q.1-2.71.16-5.79.05-3.08.04-5.59-.01-2.5-.08-4.65-.08-2.15-.28-4.8-.19-2.65-.58-4.78-.38-2.13-1.04-4.15-.67-2.03-1.77-4.22-1.1-2.18-2.44-4.29-1.33-2.11-2.62-4.2-1.28-2.09-2.6-3.97-1.31-1.89-2.72-3.71-1.4-1.82-2.95-3.81-1.55-1.98-2.99-3.86-1.43-1.88-2.92-4.15-1.5-2.28-2.46-4.18-.95-1.9-1.72-4.2t-1.07-4.53q-.29-2.22-.07-4.77.21-2.56 1.44-4.35t3.4-2.38q2.17-.6 5.45.26 3.3.86 4.6 2.95t2.3 4.01q1 1.91 2.34 4.41 1.33 2.51 2.62 4.47 1.3 1.96 2.51 3.74t2.71 3.45q1.51 1.67 3.4 3.65 1.88 1.99 3.31 3.62t3.13 3.97q1.69 2.33 2.85 4.21 1.15 1.88 2.31 4.12 1.15 2.24 2.04 4.6.88 2.36 1.54 4.87.67 2.5 1.15 5.49.48 2.98.61 6.38.13 3.41-.05 7.15-.17 3.73-.8 7.37-.63 3.63-1.53 6.66-.91 3.03-1.88 5.86-.98 2.83-1.98 5.45-1 2.61-2.01 4.88-1.01 2.26-2.18 4.55-1.18 2.28-2.56 4.71t-2.59 4.26q-1.22 1.83-2.49 3.72t-2.79 3.86q-1.52 1.96-3.03 3.53-1.51 1.58-3.53 3.41-2.02 1.84-2.67 2.51-.65.68-1.45 1.18-.79.5-1.68.8t-1.82.37q-.94.08-1.86-.07-.93-.15-1.79-.52-.87-.37-1.61-.93-.75-.57-1.34-1.29-.59-.73-.99-1.58-.41-.84-.59-1.76-.19-.92-.15-1.86t.3-1.84.73-1.71 1.82-2.35q1.34-1.53 3.01-3.07 1.68-1.55 3.22-3.1 1.55-1.55 3.03-3.13 1.49-1.59 3.01-3.29 1.51-1.7 3.07-3.53 1.55-1.83 3.1-3.62 1.54-1.79 2.83-3.5t2.08-3.81 1.05-4.43.18-4.79q-.08-2.47-.19-4.74-.11-2.28-.4-4.44l-.59-4.27q-.29-2.11-.73-4.88-.44-2.76-1.36-4.99-.93-2.23-1.88-4.37-.96-2.13-1.99-4.77-1.02-2.63-1.33-5.71-.32-3.08-1.8-5.58-1.47-2.51-2.58-4.74l-2.17-4.32q-1.05-2.09-2.31-4.76-1.26-2.66-2.23-4.63t-2.03-4.11-2.2-4.56q-1.13-2.41-1.92-4.57-.78-2.15-1.31-4.67-.54-2.53-.58-5.09-.04-2.55.52-5.32.55-2.76 1.69-4.7 1.12-1.94 2.13-4.5 1-2.56 1.71-3.17.71-.6 1.54-1.02t1.74-.62q.91-.21 1.84-.2.93.02 1.83.26t1.72.68q.82.45 1.5 1.08.69.63 1.21 1.41.51.77.83 1.65.31.88.41 1.8.09.93-.03 1.85-.13.92-.48 1.79-.34.86-.89 1.62-.54.76-1.38 1.65-.84.9-2.25 2.82-1.42 1.93-2.19 4.03-.78 2.11-1.08 4.57-.3 2.47-.01 4.72.28 2.25 1.31 4.19 1.03 1.93 2.43 3.69t2.92 3.58q1.52 1.83 2.9 3.51 1.38 1.67 2.67 3.36t2.59 3.47q1.29 1.77 2.7 3.97t2.4 4.21q.99 2 2.17 4.85 1.18 2.86 1.88 5.2.71 2.34 1.22 5.01.5 2.67.77 5.35.26 2.68.35 5.7t-.02 6.38q-.12 3.35-.55 6.93-.42 3.57-1.24 7.32-.81 3.74-1.77 7.44t-2.02 7.17q-1.06 3.48-2.09 5.49-1.03 2-1.33 2.85-.29.85-.77 1.6-.49.76-1.14 1.37-.66.62-1.44 1.06-.78.45-1.65.69-.86.24-1.76.27t-1.78-.16q-.87-.19-1.68-.58t-1.5-.97q-.69-.57-1.23-1.29-.53-.73-.87-1.55-.35-.83-.49-1.72-.13-.89-.05-1.78.08-.9.55-2.66.47-1.77 1.19-3.97.71-2.2 1.58-5.14t1.61-5.2q.73-2.26 1.44-4.67t1.39-5.12q.68-2.7.88-4.94.21-2.25.06-5.04-.14-2.79-.52-4.98-.38-2.18-1.32-4.6t-2.27-4.52q-1.32-2.09-2.39-4.19-1.08-2.1-2.18-4.09t-2.38-4.22q-1.27-2.23-2.44-4.09-1.18-1.87-2.58-4.19-1.41-2.33-2.44-4.36-1.03-2.04-1.67-4.35-.63-2.31-1.35-4.55t-1.25-4.43q-.54-2.19-.69-3.16t-.23-1.58q-.07-.61 0-1.21.07-.61.29-1.18t.56-1.07q.35-.51.81-.92.46-.4 1-.69.54-.28 1.13-.43.6-.15 1.21-.15.6 0 1.2.15.59.14 1.13.43.55.28 1 .69.46.4.81.91.35.5.57 1.07z"/><g stroke-linecap="round"><path fill="#ccbdac" stroke-width="0" d="M1190.958 61.8c8.81 9.88 12.5 25.16 17.33 40.99 4.82 15.83 10.58 36.38 11.64 53.99 1.05 17.6-2.09 35.17-5.31 51.66s-7.49 32.93-14.02 47.26-15.69 28.16-25.17 38.72c-9.47 10.56-20.24 19.17-31.69 24.67-11.44 5.49-25 8.71-36.99 8.32-11.98-.39-23.45-4.82-34.93-10.68s-24.13-14.21-33.96-24.49a132.4 132.4 0 0 1-25.05-37.24c-6.46-14.4-10.78-32.82-13.69-49.18s-4.9-31.86-3.78-48.96c1.11-17.09 5.27-37.89 10.46-53.6 5.2-15.7 12.5-28.52 20.7-40.64 8.2-12.11 18.16-23.68 28.52-32.07 10.37-8.4 21.71-14.93 33.67-18.3s26.07-4.66 38.07-1.93c12.01 2.72 21.01 4.68 33.98 18.28 12.97 13.61 35.13 46.53 43.84 63.36s9.6 36.33 8.42 37.64m-38.98-89.91c10.06 7.39 14.87 23.23 21.44 36.81s13.53 28.36 17.99 44.67c4.45 16.32 9.06 36.24 8.74 53.22s-5.49 33.11-10.67 48.67-12.92 31.51-20.4 44.69c-7.48 13.17-14.9 25.28-24.47 34.34-9.56 9.07-21.1 16.47-32.92 20.05s-25.31 3.34-37.99 1.43c-12.67-1.9-27.41-5.83-38.05-12.85-10.63-7.03-17.47-17.8-25.77-29.3s-18.72-24.52-24.04-39.73c-5.33-15.22-6.51-34.33-7.9-51.56-1.4-17.23-2.26-34.96-.46-51.83 1.79-16.86 5.64-34.67 11.23-49.38s12.88-27.28 22.3-38.87c9.43-11.59 22.38-24.08 34.26-30.67 11.89-6.59 25.34-7.89 37.04-8.86s22.35-1.83 33.16 3.02 25.94 21.32 31.71 26.07c5.78 4.76 3.43.94 2.93 2.45"/><path fill="none" stroke="#1e1e1e" d="M1026.738 59.19c6.82-12.99 20.22-23.59 31.16-31.46 10.95-7.86 22.82-13.28 34.5-15.73 11.67-2.44 23.9-1.86 35.55 1.04 11.66 2.91 23.77 7.66 34.38 16.38 10.6 8.72 20.91 22.99 29.25 35.95 8.35 12.95 16.03 26.08 20.8 41.78 4.77 15.69 7.31 35.16 7.81 52.38.5 17.21-1.65 34.22-4.81 50.93-3.17 16.71-7.22 35.07-14.18 49.33-6.97 14.25-17.9 26.02-27.61 36.19-9.72 10.17-19 19.85-30.69 24.84-11.7 5-26.81 5.72-39.47 5.14-12.66-.59-25.27-2.87-36.48-8.66-11.22-5.78-22-14.94-30.83-26.04s-15.7-26.15-22.15-40.55c-6.46-14.4-14.04-29.55-16.59-45.86s-.36-34.43 1.31-52.02c1.66-17.58-1.02-32.63 8.69-53.48s35.47-57.62 49.57-71.61c14.1-14 33.94-14.42 35.04-12.39m59.7 5.66c11.39 3.94 21.08 17.76 29.55 29.29 8.48 11.52 14.86 24.63 21.29 39.85 6.44 15.22 14.74 34.05 17.32 51.45 2.57 17.4.67 36.02-1.88 52.96-2.55 16.93-8.14 33.84-13.43 48.65s-10.35 29.05-18.3 40.21c-7.96 11.15-18.56 19.51-29.41 26.72-10.86 7.22-23.38 14.26-35.73 16.58-12.35 2.31-26.53 1.51-38.4-2.7s-22.91-13.52-32.81-22.58c-9.89-9.06-18.55-18.75-26.57-31.79-8.01-13.04-16.66-30.33-21.52-46.46-4.85-16.13-7.54-32.8-7.62-50.33-.07-17.54 3.48-38.18 7.15-54.88 3.68-16.69 7.09-31.97 14.9-45.31 7.82-13.33 21.14-25.27 32.01-34.69 10.88-9.41 21.73-17.66 33.24-21.78 11.52-4.13 24.27-4.13 35.86-2.97 11.58 1.16 27.85 8.12 33.68 9.93 5.82 1.82 1.56-1.82 1.27.96"/></g><g fill-opacity=".7" stroke-linecap="round" stroke-opacity=".7"><path fill="#6f4e37" stroke-width="0" d="M1133.923 13.82c11.29 2.05 25.48 15.16 35.32 25.35s16.9 22.18 23.72 35.78 13.53 29.54 17.22 45.82c3.69 16.29 5.09 34.74 4.9 51.9-.19 17.15-1.96 35.02-6.06 51.03-4.11 16.01-11.19 32.12-18.58 45.02-7.38 12.9-15.61 23.6-25.72 32.37-10.12 8.76-23.11 16.14-34.96 20.24s-24.51 6.16-36.14 4.34c-11.64-1.82-22.98-8.33-33.68-15.27-10.7-6.95-22.07-14.52-30.5-26.39s-15.01-29.58-20.09-44.82c-5.07-15.23-8.69-30.14-10.37-46.59-1.69-16.45-1.65-35.06.29-52.12 1.93-17.07 5.43-34.83 11.34-50.27 5.9-15.43 15.09-30.93 24.07-42.36 8.98-11.42 19.17-19.84 29.81-26.2 10.64-6.37 17.41-14.08 34.02-11.96 16.61 2.11 50.57 15.25 65.66 24.64 15.08 9.38 25.47 29.49 24.84 31.65m-56.97-49.26c10.79 1.48 23.65 10.04 34.4 19.5 10.74 9.46 22.86 23.76 30.1 37.24s10.5 27.83 13.33 43.62c2.82 15.79 3.53 34.01 3.64 51.12s.23 35.27-2.99 51.55c-3.22 16.29-8.93 32.88-16.34 46.18-7.4 13.3-17.42 24.37-28.09 33.64-10.66 9.26-24.65 17.56-35.91 21.94s-20.15 5.43-31.64 4.33c-11.48-1.1-26.54-3.99-37.26-10.93-10.71-6.94-18.62-18.72-27.04-30.69-8.41-11.98-17.35-25.96-23.45-41.17s-10.81-33.27-13.13-50.09c-2.31-16.82-3.13-33.6-.77-50.85 2.37-17.25 8.54-37.46 14.97-52.64s15.17-26.87 23.62-38.43c8.44-11.56 16.94-24.35 27.05-30.95 10.11-6.59 21.32-7.95 33.61-8.61 12.28-.66 33.66 4 40.11 4.66 6.46.65-.64-2.68-1.37-.73"/><path fill="none" stroke="#1e1e1e" stroke-width="4" d="M1020.023 72.58c5.66-14.57 16.21-26.18 25.81-35.76 9.6-9.57 20.5-16.97 31.79-21.68 11.28-4.72 23.94-8.03 35.91-6.59 11.98 1.44 24.64 8.44 35.95 15.24 11.31 6.81 22.91 14.24 31.91 25.57 9.01 11.34 16.59 27.31 22.15 42.43 5.55 15.12 9.03 31.2 11.19 48.31 2.15 17.1 3.7 37.22 1.75 54.32s-7.91 33.11-13.47 48.27-11.04 31.1-19.88 42.68-21.74 19.92-33.15 26.8c-11.42 6.89-23.63 12.74-35.36 14.51-11.72 1.77-23.97.38-35-3.91s-21.06-12.76-31.17-21.83c-10.12-9.08-22.23-19.56-29.49-32.6s-10.48-28.92-14.08-45.64c-3.59-16.73-7.13-37.26-7.49-54.69-.35-17.43-.27-30.95 5.36-49.87 5.63-18.93 21.18-50.61 28.43-63.68 7.26-13.06 13.75-16.34 15.1-14.7m73.86-28.32c10.86-.22 21.64 6.57 32.77 14.5 11.14 7.92 25.32 20.28 34.03 33.04 8.72 12.76 13.9 28.06 18.27 43.51 4.37 15.44 6.3 32.53 7.96 49.16s3.74 34.54 2.01 50.64c-1.73 16.09-6.34 31.2-12.37 45.93-6.03 14.74-14.36 30.89-23.81 42.49s-21.69 21.28-32.89 27.11c-11.2 5.84-22.77 7.24-34.31 7.9-11.54.65-23.14.75-34.92-3.96-11.79-4.7-25.46-14.2-35.82-24.28-10.35-10.08-19.6-21.79-26.3-36.22-6.7-14.42-10.55-33.47-13.9-50.33-3.36-16.87-7.38-34.1-6.24-50.86s7.8-33.98 13.07-49.71 10.97-32.02 18.56-44.66c7.6-12.65 17.24-22.58 27.02-31.22s20.01-16.57 31.65-20.62c11.64-4.06 31.8-4.29 38.19-3.7 6.39.58.38 4.51.14 7.21"/></g><path fill="#1e1e1e" fill-opacity=".7" stroke-opacity=".7" d="m1133.326 57.022-2.24 1.2q-2.23 1.2-5.42 3.6-3.18 2.41-5.2 4.51-2.01 2.11-3.42 3.89-1.42 1.79-2.96 4.11-1.55 2.32-2.6 4.44t-1.89 4.69q-.85 2.56-1.17 5.33-.31 2.77-.34 5.47-.04 2.69.15 5.37t.93 5.23 1.71 4.44q.97 1.9 2.24 4.03t2.85 4.89 2.9 4.83 2.7 4.13q1.39 2.07 2.73 4.23t2.56 4.39q1.21 2.22 2.38 5.07t1.94 5.89q.78 3.05 1.24 7.11.45 4.05.51 6.28t.05 4.52-.08 4.83q-.08 2.54-.17 5.14-.1 2.6-.22 5.11t-.25 4.97q-.14 2.47-.32 4.9-.17 2.43-.42 4.88-.26 2.45-.68 4.85-.44 2.41-1.13 4.77t-2.39 5.55-4.17 6.63q-2.46 3.44-4.78 6.49t-4.66 5.81q-2.34 2.75-4.79 5.24-2.46 2.48-4.7 4.53-2.24 2.04-4.34 3.72t-3.99 3.07q-1.88 1.4-4.39 3.32-2.52 1.91-2.57 1.66-.05-.26-.04.64.01.89-.27 1.73-.28.85-.81 1.56-.53.72-1.26 1.22-.74.51-1.59.75-.86.25-1.75.21t-1.72-.36q-.83-.33-1.51-.9-.69-.57-1.15-1.33-.47-.76-.67-1.62-.2-.87-.11-1.76.09-.88.46-1.7.36-.81.97-1.46t1.39-1.08q.79-.42 1.66-.57.88-.15 1.76-.02.88.14 1.67.55t1.41 1.05 1 1.45q.38.8.48 1.69.11.88-.08 1.76-.18.87-.63 1.63-.46.77-1.13 1.35-.67.59-1.5.92-.82.34-1.71.39-.89.06-1.75-.17t-1.6-.73q-.74-.49-1.29-1.19-.54-.71-.84-1.55l-.29-.84 2.49-5.07q2.49-5.07 5.2-6.67t4.53-2.74q1.81-1.14 3.7-2.46 1.9-1.32 3.95-3.08 2.05-1.77 4.19-4 2.13-2.22 4.12-4.78 2-2.56 3.88-5.57t3.59-6.35q1.7-3.34 2.78-5.69 1.09-2.35 1.97-5.94.89-3.6 1.07-5.83.19-2.22.29-4.54.1-2.31.14-4.69t.04-4.78-.07-4.92-.17-4.98-.33-6.45-.69-7.22q-.47-3.23-1.36-6.36-.9-3.13-2.33-5.97-1.42-2.84-2.62-4.8-1.2-1.95-2.53-3.96-1.33-2-2.9-4.46t-3.13-5.05q-1.55-2.58-2.99-4.97-1.45-2.39-2.82-5.34-1.38-2.94-2.02-5.05-.65-2.11-1.03-4.38-.38-2.28-.49-4.45t-.03-5.33.29-5.61.8-5.35 1.49-5.31q.89-2.42 2.45-5.31 1.56-2.9 2.82-4.68t2.77-3.57q1.51-1.8 3.39-3.75 1.89-1.95 4.57-4.31 2.68-2.37 4.56-3.78t4.07-2.79q2.19-1.39 4.45-2.58 2.25-1.18 2.84-1.41.6-.23 1.24-.31.63-.08 1.26-.01.63.08 1.23.3.6.23 1.13.59.52.36.95.83.43.48.73 1.05.3.56.45 1.18.16.62.16 1.26 0 .63-.15 1.25t-.44 1.19-.72 1.05q-.42.48-.94.85z"/><path fill="#1e1e1e" fill-opacity=".7" stroke-opacity=".7" d="m1103.745 108.441.32.93q.32.93 1.32 3.09.99 2.16 1.98 4.26 1 2.1 2.2 4.21 1.21 2.11 2.54 3.93 1.33 1.83 2.7 3.68 1.37 1.86 2.55 3.71 1.18 1.86 2.63 3.97 1.45 2.1 2.58 4.2 1.13 2.09 2.53 4.23 1.41 2.15 2.75 4.56t2.18 4.83q.83 2.42 1.27 4.61.45 2.18.77 4.92t.33 5.83q.02 3.08-.22 5.27t-.87 5.02-1.37 5.42q-.73 2.58-1.55 5.17-.81 2.59-1.58 5.07t-1.59 5.13-1.27 4.35-.75 2.55q-.29.85-.78 1.6-.48.76-1.14 1.37-.65.62-1.43 1.06-.78.45-1.65.69-.86.24-1.76.27t-1.78-.16-1.68-.58q-.81-.39-1.5-.97-.69-.57-1.23-1.29-.53-.73-.87-1.56-.35-.82-.49-1.71-.13-.89-.05-1.79.08-.89 1.13-3.19t1.89-4.48 1.95-5.53 2.1-6.75q.99-3.41 1.58-6.37.59-2.97.81-5.8t.23-5.6q.01-2.78-.16-5.01-.17-2.24-.51-4.4-.34-2.15-1.12-4.7-.77-2.55-1.76-4.74-.99-2.18-2.3-4.55t-2.97-4.62q-1.66-2.26-3.55-4.63-1.89-2.38-3.53-4.27t-3.06-3.52q-1.4-1.62-2.82-3.38-1.41-1.76-2.67-3.94-1.26-2.17-2-4.44t-1.1-4.6q-.35-2.31-.36-4.7-.01-2.38.26-4.53.28-2.15.74-4.29.45-2.15 1.38-4.42.92-2.27 2.18-4.31 1.27-2.03 2.8-3.9 1.52-1.88 2.22-2.64.69-.77 1.4-1.38.71-.6 1.54-1.02t1.74-.63q.91-.2 1.84-.19.93.02 1.83.26t1.72.68q.82.45 1.5 1.08.69.63 1.21 1.41.51.77.83 1.65.31.88.41 1.8.09.93-.03 1.85-.13.92-.48 1.79-.34.86-.89 1.62-.54.76.47-1.71 1-2.46.37-.29-.63 2.18-1.58 4.5t-.95 4.56q0 2.25.71 4.38.72 2.13 1.82 4.41 1.09 2.27 2.13 4.38t2.13 4.33q1.09 2.23 2.07 4.36.98 2.14 2.19 4.57 1.21 2.42 2.19 4.42.99 2 1.7 4.66t-.95.78q-1.65-1.89.43.19 2.07 2.08 2.85 4.99.79 2.92 1.51 5.04.72 2.13 1.6 4.1.87 1.97 1.77 3.98.9 2.02 1.71 4.42.8 2.4 1.16 4.66.37 2.25.61 4.43.24 2.19.58 4.68.35 2.5.54 4.74.2 2.23.28 4.37l.16 4.31q.09 2.19-.07 4.84-.15 2.66-.82 5.3-.68 2.65-1.63 4.99t-2.1 4.18q-1.16 1.83-2.57 3.58t-3.13 3.75-3.28 3.84q-1.57 1.84-3.08 3.54-1.5 1.69-3.14 3.42-1.63 1.73-3.23 3.37-1.59 1.64-3.24 3.17-1.65 1.54-2.02 2.02-.36.49-1.01 1.16-.65.68-1.45 1.18-.79.5-1.68.8t-1.82.37q-.94.08-1.87-.07-.92-.15-1.78-.52-.87-.37-1.61-.93-.75-.57-1.34-1.29-.59-.73-.99-1.58-.41-.85-.59-1.76-.19-.92-.15-1.86t.3-1.84.73-1.71 2.64-2.9q2.19-2.08 4.11-3.93 1.92-1.86 3.55-3.99 1.63-2.14 2.97-4.11 1.33-1.97 2.81-4.47 1.47-2.49 2.56-4.49 1.1-1.99 2.41-4.91 1.32-2.93 2.3-5.44t1.92-5.1q.95-2.59 1.66-5.24.72-2.64 1.05-5.39t.42-5.77-.15-5.32-.99-5.16q-.75-2.85-1.8-5.24-1.05-2.38-2.44-4.62-1.39-2.25-2.71-3.97t-2.97-3.43q-1.65-1.72-3.59-3.72-1.93-2-3.78-4.16-1.85-2.17-3.41-4.44t-2.94-4.4q-1.38-2.14-2.63-4.49-1.26-2.36-2.43-4.5t1.59-1.95 5.92-1.72q3.15-1.92 3.76.42.61 2.33 1.83 4.4 1.21 2.07 2.86 4.23 1.65 2.17 3.18 4.09 1.52 1.92 3.02 3.86 1.5 1.95 3.08 4.23t2.98 4.57q1.41 2.28 2.74 4.35 1.33 2.06 2.36 3.93 1.03 1.86 2.06 4.15t1.82 4.97q.79 2.67 1.23 5.19.43 2.51.6 4.69.17 2.17.3 4.8.14 2.64.16 5.14.01 2.51-.04 4.7-.06 2.2-.16 5.17-.1 2.98-.37 6.37-.27 3.38-.8 6t-1.12 4.81q-.6 2.18-1.37 4.45-.77 2.26-1.65 4.29-.89 2.03-2.45 4.77t-2.77 4.67-2.41 3.75-2.6 3.86q-1.4 2.05-2.65 3.89-1.26 1.83-2.41 3.67-1.14 1.84-2.64 3.79-1.49 1.95-3 3.48-1.51 1.52-3.34 2.99-1.82 1.48-3.25 2.47-1.43 1-2.23 1.46-.78.46-1.66.72-.89.25-1.8.29-.92.04-1.82-.14-.9-.19-1.73-.58t-1.54-.97q-.72-.58-1.27-1.31-.55-.74-.91-1.58t-.51-1.75-.08-1.82q.07-.92.36-1.79t.78-1.65q.49-.77 1.15-1.41.67-.64-.81 2.94-1.48 3.57-1.46 2.34.03-1.23.45-2.39t1.19-2.12q.76-.97 1.8-1.64 1.03-.67 2.23-.97 1.19-.3 2.42-.21t2.36.57 2.05 1.3 1.53 1.89q.62 1.07.86 2.28.23 1.21.07 2.43t-.7 2.33-1.41 1.98q-.86.88-1.96 1.43-1.1.56-2.32.73t-2.43-.05q-1.21-.23-2.29-.83-1.07-.6-1.9-1.52-.83-.91-1.32-2.04t-.6-2.36q-.11-1.22.19-2.42.29-1.2.95-2.24.65-1.04 1.61-1.82t2.11-1.21q1.16-.43 2.39-.47t2.41.32q1.17.35 2.17 1.07 1.01.71 1.73 1.71.73 1-.38 5.75t-1.91 5.21q-.78.46-1.66.72-.89.25-1.8.29-.92.04-1.82-.14-.9-.19-1.73-.58t-1.54-.97q-.72-.58-1.27-1.31-.55-.74-.91-1.58t-.51-1.75-.08-1.82q.07-.92.36-1.79t.78-1.65q.49-.77 1.15-1.41t3.18-2.44q2.52-1.79 4.12-3.43 1.59-1.63 2.88-3.42 1.29-1.78 2.71-3.89 1.42-2.12 2.79-3.96t2.79-3.97q1.43-2.14 2.55-3.97 1.13-1.83 2.34-3.92t2.13-4.32q.91-2.24 1.68-4.95.77-2.72 1.24-5.51t.57-5.51q.1-2.71.16-5.79.05-3.08.04-5.59-.01-2.5-.08-4.65-.08-2.15-.28-4.8-.19-2.65-.58-4.78-.38-2.13-1.04-4.15-.67-2.03-1.77-4.22-1.1-2.18-2.44-4.29-1.33-2.11-2.62-4.2-1.28-2.09-2.6-3.97-1.31-1.89-2.72-3.71-1.4-1.82-2.95-3.81-1.55-1.98-2.99-3.86-1.43-1.88-2.92-4.15-1.5-2.28-2.46-4.18-.95-1.9-1.72-4.2t-1.07-4.53q-.29-2.22-.07-4.77.21-2.56 1.44-4.35t3.4-2.38q2.17-.6 5.45.26 3.3.86 4.6 2.95t2.3 4.01q1 1.91 2.34 4.41 1.33 2.51 2.62 4.47 1.3 1.96 2.51 3.74t2.71 3.45q1.51 1.67 3.4 3.65 1.88 1.99 3.31 3.62t3.13 3.97q1.69 2.33 2.85 4.21 1.15 1.88 2.31 4.12 1.15 2.24 2.04 4.6.88 2.36 1.54 4.87.67 2.5 1.15 5.49.48 2.98.61 6.38.13 3.41-.05 7.15-.17 3.73-.8 7.37-.63 3.63-1.53 6.66-.91 3.03-1.88 5.86-.98 2.83-1.98 5.45-1 2.61-2.01 4.88-1.01 2.26-2.18 4.55-1.18 2.28-2.56 4.71t-2.59 4.26q-1.22 1.83-2.49 3.72t-2.79 3.86q-1.52 1.96-3.03 3.53-1.51 1.58-3.53 3.41-2.02 1.84-2.67 2.51-.65.68-1.45 1.18-.79.5-1.68.8t-1.82.37q-.94.08-1.86-.07-.93-.15-1.79-.52-.87-.37-1.61-.93-.75-.57-1.34-1.29-.59-.73-.99-1.58-.41-.84-.59-1.76-.19-.92-.15-1.86t.3-1.84.73-1.71 1.82-2.35q1.34-1.53 3.01-3.07 1.68-1.55 3.22-3.1 1.55-1.55 3.03-3.13 1.49-1.59 3.01-3.29 1.51-1.7 3.07-3.53 1.55-1.83 3.1-3.62 1.54-1.79 2.83-3.5t2.08-3.81 1.05-4.43.18-4.79q-.08-2.47-.19-4.74-.11-2.28-.4-4.44l-.59-4.27q-.29-2.11-.73-4.88-.44-2.76-1.36-4.99-.93-2.23-1.88-4.37-.96-2.13-1.99-4.77-1.02-2.63-1.33-5.71-.32-3.08-1.8-5.58-1.47-2.51-2.58-4.74l-2.17-4.32q-1.05-2.09-2.31-4.76-1.26-2.66-2.23-4.63t-2.03-4.11-2.2-4.56q-1.13-2.41-1.92-4.57-.78-2.15-1.31-4.67-.54-2.53-.58-5.09-.04-2.55.52-5.32.55-2.76 1.69-4.7 1.12-1.94 2.13-4.5 1-2.56 1.71-3.17.71-.6 1.54-1.02t1.74-.62q.91-.21 1.84-.2.93.02 1.83.26t1.72.68q.82.45 1.5 1.08.69.63 1.21 1.41.51.77.83 1.65.31.88.41 1.8.09.93-.03 1.85-.13.92-.48 1.79-.34.86-.89 1.62-.54.76-1.38 1.65-.84.9-2.25 2.82-1.42 1.93-2.19 4.03-.78 2.11-1.08 4.57-.3 2.47-.01 4.72.28 2.25 1.31 4.19 1.03 1.93 2.43 3.69t2.92 3.58q1.52 1.83 2.9 3.51 1.38 1.67 2.67 3.36t2.59 3.47q1.29 1.77 2.7 3.97t2.4 4.21q.99 2 2.17 4.85 1.18 2.86 1.88 5.2.71 2.34 1.22 5.01.5 2.67.77 5.35.26 2.68.35 5.7t-.02 6.38q-.12 3.35-.55 6.93-.42 3.57-1.24 7.32-.81 3.74-1.77 7.44t-2.02 7.17q-1.06 3.48-2.09 5.49-1.03 2-1.33 2.85-.29.85-.77 1.6-.49.76-1.14 1.37-.66.62-1.44 1.06-.78.45-1.65.69-.86.24-1.76.27t-1.78-.16q-.87-.19-1.68-.58t-1.5-.97q-.69-.57-1.23-1.29-.53-.73-.87-1.55-.35-.83-.49-1.72-.13-.89-.05-1.78.08-.9.55-2.66.47-1.77 1.19-3.97.71-2.2 1.58-5.14t1.61-5.2q.73-2.26 1.44-4.67t1.39-5.12q.68-2.7.88-4.94.21-2.25.06-5.04-.14-2.79-.52-4.98-.38-2.18-1.32-4.6t-2.27-4.52q-1.32-2.09-2.39-4.19-1.08-2.1-2.18-4.09t-2.38-4.22q-1.27-2.23-2.44-4.09-1.18-1.87-2.58-4.19-1.41-2.33-2.44-4.36-1.03-2.04-1.67-4.35-.63-2.31-1.35-4.55t-1.25-4.43q-.54-2.19-.69-3.16t-.23-1.58q-.07-.61 0-1.21.07-.61.29-1.18t.56-1.07q.35-.51.81-.92.46-.4 1-.69.54-.28 1.13-.43.6-.15 1.21-.15.6 0 1.2.15.59.14 1.13.43.55.28 1 .69.46.4.81.91.35.5.57 1.07z"/></svg>