<svg version="1.1" xmlns="http://www.w3.org/2000/svg" viewBox="0 0 480.1584112096316 894.0555605205573" width="480.1584112096316" height="894.0555605205573">
  <!-- svg-source:excalidraw -->
  
  <defs>
    <style class="style-fonts">
      @font-face {
        font-family: "Virgil";
        src: url("https://excalidraw.com/Virgil.woff2");
      }
      @font-face {
        font-family: "Cascadia";
        src: url("https://excalidraw.com/Cascadia.woff2");
      }
      @font-face {
        font-family: "Assistant";
        src: url("https://excalidraw.com/Assistant-Regular.woff2");
      }
    </style>
    
  </defs>
  <g stroke-linecap="round" transform="translate(303.12465625922414 510.6459710557556) rotate(0 14.02866985853143 13.552231649109672)"><path d="M0 0 L28.06 0 L28.06 27.1 L0 27.1" stroke="none" stroke-width="0" fill="#b2f2bb"></path><path d="M0 0 C10.15 0, 20.3 0, 28.06 0 M0 0 C10.69 0, 21.37 0, 28.06 0 M28.06 0 C28.06 7.26, 28.06 14.52, 28.06 27.1 M28.06 0 C28.06 5.43, 28.06 10.86, 28.06 27.1 M28.06 27.1 C21.43 27.1, 14.81 27.1, 0 27.1 M28.06 27.1 C17.22 27.1, 6.38 27.1, 0 27.1 M0 27.1 C0 17.37, 0 7.64, 0 0 M0 27.1 C0 21.02, 0 14.94, 0 0" stroke="transparent" stroke-width="4" fill="none"></path></g><g stroke-linecap="round" transform="translate(226.5551724628349 509.51409416416755) rotate(0 27.11945325479428 13.552231649109672)"><path d="M0 0 L54.24 0 L54.24 27.1 L0 27.1" stroke="none" stroke-width="0" fill="#ffec99"></path><path d="M0 0 C21.32 0, 42.64 0, 54.24 0 M0 0 C19.15 0, 38.31 0, 54.24 0 M54.24 0 C54.24 8.38, 54.24 16.75, 54.24 27.1 M54.24 0 C54.24 6.19, 54.24 12.38, 54.24 27.1 M54.24 27.1 C42.64 27.1, 31.04 27.1, 0 27.1 M54.24 27.1 C35.4 27.1, 16.57 27.1, 0 27.1 M0 27.1 C0 18.08, 0 9.05, 0 0 M0 27.1 C0 18.48, 0 9.86, 0 0" stroke="transparent" stroke-width="4" fill="none"></path></g><g stroke-linecap="round" transform="translate(137.3239406847606 514.7390447034777) rotate(0 15.51529206356281 25.343652083013694)"><path d="M0 0 L31.03 0 L31.03 50.69 L0 50.69" stroke="none" stroke-width="0" fill="#b2f2bb"></path><path d="M0 0 C8.23 0, 16.46 0, 31.03 0 M0 0 C11.98 0, 23.96 0, 31.03 0 M31.03 0 C31.03 19.19, 31.03 38.38, 31.03 50.69 M31.03 0 C31.03 10.33, 31.03 20.65, 31.03 50.69 M31.03 50.69 C22.74 50.69, 14.45 50.69, 0 50.69 M31.03 50.69 C21.21 50.69, 11.38 50.69, 0 50.69 M0 50.69 C0 35.77, 0 20.86, 0 0 M0 50.69 C0 34.52, 0 18.35, 0 0" stroke="transparent" stroke-width="4" fill="none"></path></g><g stroke-linecap="round" transform="translate(302.3791116238717 114.31303415034199) rotate(0 8.544702948935083 13.552231649109672)"><path d="M0 0 L17.09 0 L17.09 27.1 L0 27.1" stroke="none" stroke-width="0" fill="#b2f2bb"></path><path d="M0 0 C4.71 0, 9.42 0, 17.09 0 M0 0 C6.02 0, 12.03 0, 17.09 0 M17.09 0 C17.09 9.4, 17.09 18.8, 17.09 27.1 M17.09 0 C17.09 9.99, 17.09 19.97, 17.09 27.1 M17.09 27.1 C13.27 27.1, 9.45 27.1, 0 27.1 M17.09 27.1 C12.94 27.1, 8.78 27.1, 0 27.1 M0 27.1 C0 17.11, 0 7.11, 0 0 M0 27.1 C0 17.71, 0 8.32, 0 0" stroke="transparent" stroke-width="4" fill="none"></path></g><g stroke-linecap="round" transform="translate(228.1204840232058 114.07079241369865) rotate(0 27.11945325479428 13.552231649109672)"><path d="M0 0 L54.24 0 L54.24 27.1 L0 27.1" stroke="none" stroke-width="0" fill="#ffec99"></path><path d="M0 0 C18.99 0, 37.97 0, 54.24 0 M0 0 C19.99 0, 39.99 0, 54.24 0 M54.24 0 C54.24 6.89, 54.24 13.77, 54.24 27.1 M54.24 0 C54.24 7.85, 54.24 15.69, 54.24 27.1 M54.24 27.1 C37.93 27.1, 21.63 27.1, 0 27.1 M54.24 27.1 C41.27 27.1, 28.3 27.1, 0 27.1 M0 27.1 C0 19.45, 0 11.8, 0 0 M0 27.1 C0 20.14, 0 13.18, 0 0" stroke="transparent" stroke-width="4" fill="none"></path></g><g stroke-linecap="round" transform="translate(165.82618173609808 224.2425170559436) rotate(0 16.20484213333293 24.118787186783265)"><path d="M0 0 L32.41 0 L32.41 48.24 L0 48.24" stroke="none" stroke-width="0" fill="#b2f2bb"></path><path d="M0 0 C9.07 0, 18.15 0, 32.41 0 M0 0 C7.29 0, 14.57 0, 32.41 0 M32.41 0 C32.41 16.11, 32.41 32.23, 32.41 48.24 M32.41 0 C32.41 17.37, 32.41 34.75, 32.41 48.24 M32.41 48.24 C25.83 48.24, 19.25 48.24, 0 48.24 M32.41 48.24 C23.17 48.24, 13.94 48.24, 0 48.24 M0 48.24 C0 31.91, 0 15.59, 0 0 M0 48.24 C0 34.11, 0 19.98, 0 0" stroke="transparent" stroke-width="4" fill="none"></path></g><g stroke-linecap="round" transform="translate(166.293021064208 88.18180738002957) rotate(0 16.20484213333293 58.37484483309163)"><path d="M0 0 L32.41 0 L32.41 116.75 L0 116.75" stroke="none" stroke-width="0" fill="#ffec99"></path><path d="M0 0 C7.17 0, 14.35 0, 32.41 0 M0 0 C7.18 0, 14.37 0, 32.41 0 M32.41 0 C32.41 38.68, 32.41 77.36, 32.41 116.75 M32.41 0 C32.41 46.38, 32.41 92.76, 32.41 116.75 M32.41 116.75 C22.48 116.75, 12.56 116.75, 0 116.75 M32.41 116.75 C21.79 116.75, 11.17 116.75, 0 116.75 M0 116.75 C0 86.38, 0 56, 0 0 M0 116.75 C0 73.5, 0 30.25, 0 0" stroke="transparent" stroke-width="4" fill="none"></path></g><g transform="translate(88.19885241974407 80.21179191799092) rotate(0 55.688329779770356 64.88476535163136)"><text x="0" y="51.908914264412374" font-family="Helvetica, Segoe UI Emoji" font-size="56.4215350883752px" fill="#1e1e1e" text-anchor="start" style="white-space: pre;" direction="ltr" dominant-baseline="alphabetic">   10</text><text x="0" y="116.79367961604385" font-family="Helvetica, Segoe UI Emoji" font-size="56.4215350883752px" fill="#1e1e1e" text-anchor="start" style="white-space: pre;" direction="ltr" dominant-baseline="alphabetic">+ 10</text></g><g stroke-linecap="round"><g transform="translate(79.51508829723753 219.43223081290125) rotate(0 62.481087422225755 0)"><path d="M0 0 C20.83 0, 104.14 0, 124.96 0 M0 0 C20.83 0, 104.14 0, 124.96 0" stroke="#1e1e1e" stroke-width="4" fill="none"></path></g></g><mask></mask><g transform="translate(167.23868237820716 213.92151257629848) rotate(0 15.725204467773438 32.518228679797176)"><text x="0" y="52.03027044707414" font-family="Helvetica, Segoe UI Emoji" font-size="56.55344118225658px" fill="#1e1e1e" text-anchor="start" style="white-space: pre;" direction="ltr" dominant-baseline="alphabetic">0</text></g><g transform="translate(79.52163672428651 664.9189143513668) rotate(0 55.68994903564453 64.88476535163136)"><text x="0" y="51.908914264412374" font-family="Helvetica, Segoe UI Emoji" font-size="56.4215350883752px" fill="#1e1e1e" text-anchor="start" style="white-space: pre;" direction="ltr" dominant-baseline="alphabetic">   10</text><text x="0" y="116.79367961604385" font-family="Helvetica, Segoe UI Emoji" font-size="56.4215350883752px" fill="#1e1e1e" text-anchor="start" style="white-space: pre;" direction="ltr" dominant-baseline="alphabetic">+ 10</text></g><g stroke-linecap="round"><g transform="translate(96.55917160485114 672.2734806010249) rotate(0 0 33.92757944263212)"><path d="M0 0 C0 16.92, 0 33.84, 0 67.86 M0 0 C0 26.26, 0 52.52, 0 67.86" stroke="#1971c2" stroke-width="4" fill="none"></path></g><g transform="translate(96.55917160485114 672.2734806010249) rotate(0 0 33.92757944263212)"><path d="M0 67.86 L-6.34 54.26 L6.34 54.26 L0 67.86" stroke="none" stroke-width="0" fill="#1971c2" fill-rule="evenodd"></path><path d="M0 67.86 C-1.58 64.47, -3.16 61.08, -6.34 54.26 M0 67.86 C-2.45 62.59, -4.91 57.33, -6.34 54.26 M-6.34 54.26 C-3.4 54.26, -0.46 54.26, 6.34 54.26 M-6.34 54.26 C-1.45 54.26, 3.45 54.26, 6.34 54.26 M6.34 54.26 C4.65 57.87, 2.97 61.48, 0 67.86 M6.34 54.26 C4.03 59.21, 1.72 64.16, 0 67.86 M0 67.86 C0 67.86, 0 67.86, 0 67.86 M0 67.86 C0 67.86, 0 67.86, 0 67.86" stroke="#1971c2" stroke-width="4" fill="none"></path></g></g><mask></mask><g stroke-linecap="round"><g transform="translate(79.63813171902439 804.1361275900472) rotate(0 62.481087422225755 0)"><path d="M0 0 C20.83 0, 104.14 0, 124.96 0 M0 0 C20.83 0, 104.14 0, 124.96 0" stroke="#1e1e1e" stroke-width="4" fill="none"></path></g></g><mask></mask><g transform="translate(79.63813171902439 615.342373266185) rotate(0 15.725801955379211 32.518228679797176)"><text x="0" y="52.03027044707414" font-family="Helvetica, Segoe UI Emoji" font-size="56.55344118225658px" fill="#1e1e1e" text-anchor="start" style="white-space: pre;" direction="ltr" dominant-baseline="alphabetic">1</text></g><g transform="translate(162.8422751615144 799.05433327643) rotate(0 15.725801955379211 32.518228679797176)"><text x="0" y="52.03027044707414" font-family="Helvetica, Segoe UI Emoji" font-size="56.55344118225658px" fill="#1e1e1e" text-anchor="start" style="white-space: pre;" direction="ltr" dominant-baseline="alphabetic">0</text></g><g transform="translate(130.20608165830345 800.483560252158) rotate(0 15.725801955379211 32.518228679797176)"><text x="0" y="52.03027044707414" font-family="Helvetica, Segoe UI Emoji" font-size="56.55344118225658px" fill="#1e1e1e" text-anchor="start" style="white-space: pre;" direction="ltr" dominant-baseline="alphabetic">0</text></g><g stroke-linecap="round" transform="translate(99.82708602462299 320.0631561712926) rotate(0 16.67256228664337 30.648109210721486)"><path d="M0 0 L33.35 0 L33.35 61.3 L0 61.3" stroke="none" stroke-width="0" fill="#b2f2bb"></path><path d="M0 0 C9.71 0, 19.41 0, 33.35 0 M0 0 C8.86 0, 17.71 0, 33.35 0 M33.35 0 C33.35 19.04, 33.35 38.09, 33.35 61.3 M33.35 0 C33.35 17.7, 33.35 35.4, 33.35 61.3 M33.35 61.3 C26.25 61.3, 19.16 61.3, 0 61.3 M33.35 61.3 C25.2 61.3, 17.05 61.3, 0 61.3 M0 61.3 C0 39.27, 0 17.25, 0 0 M0 61.3 C0 39.65, 0 18, 0 0" stroke="transparent" stroke-width="4" fill="none"></path></g><g transform="translate(230.0751493371863 89.59013687683182) rotate(0 85.17105865478516 25.17482257689153)"><text x="0" y="20.140285623038086" font-family="Helvetica, Segoe UI Emoji" font-size="21.89115006686233px" fill="#1971c2" text-anchor="start" style="white-space: pre;" direction="ltr" dominant-baseline="alphabetic">Add right column.</text><text x="0" y="45.31510819992977" font-family="Helvetica, Segoe UI Emoji" font-size="21.89115006686233px" fill="#1971c2" text-anchor="start" style="white-space: pre;" direction="ltr" dominant-baseline="alphabetic">0 + 0 = 0</text></g><g stroke-linecap="round" transform="translate(10.05748726814636 301.427329195496) rotate(0 229.9551385249979 145.63846933010336)"><path d="M0 0 C104.08 0, 208.15 0, 459.91 0 M0 0 C152.45 0, 304.9 0, 459.91 0 M459.91 0 C459.91 96.51, 459.91 193.02, 459.91 291.28 M459.91 0 C459.91 76.85, 459.91 153.7, 459.91 291.28 M459.91 291.28 C349.5 291.28, 239.1 291.28, 0 291.28 M459.91 291.28 C309.99 291.28, 160.06 291.28, 0 291.28 M0 291.28 C0 213.52, 0 135.76, 0 0 M0 291.28 C0 183.77, 0 76.26, 0 0" stroke="#000000" stroke-width="4" fill="none"></path></g><g transform="translate(230.13123908077614 333.83753397765213) rotate(0 92.4659423828125 113.28670159601279)"><text x="0" y="20.140285623038086" font-family="Helvetica, Segoe UI Emoji" font-size="21.89115006686233px" fill="#1971c2" text-anchor="start" style="white-space: pre;" direction="ltr" dominant-baseline="alphabetic">Add next column.</text><text x="0" y="45.31510819992977" font-family="Helvetica, Segoe UI Emoji" font-size="21.89115006686233px" fill="#1971c2" text-anchor="start" style="white-space: pre;" direction="ltr" dominant-baseline="alphabetic">When the penguin</text><text x="0" y="70.48993077682144" font-family="Helvetica, Segoe UI Emoji" font-size="21.89115006686233px" fill="#1971c2" text-anchor="start" style="white-space: pre;" direction="ltr" dominant-baseline="alphabetic">uses 1 flipper and</text><text x="0" y="95.66475335371312" font-family="Helvetica, Segoe UI Emoji" font-size="21.89115006686233px" fill="#1971c2" text-anchor="start" style="white-space: pre;" direction="ltr" dominant-baseline="alphabetic">counts with its next</text><text x="0" y="120.8395759306048" font-family="Helvetica, Segoe UI Emoji" font-size="21.89115006686233px" fill="#1971c2" text-anchor="start" style="white-space: pre;" direction="ltr" dominant-baseline="alphabetic">flipper, it's out of</text><text x="0" y="146.01439850749648" font-family="Helvetica, Segoe UI Emoji" font-size="21.89115006686233px" fill="#1971c2" text-anchor="start" style="white-space: pre;" direction="ltr" dominant-baseline="alphabetic">counting flippers.</text><text x="0" y="171.18922108438818" font-family="Helvetica, Segoe UI Emoji" font-size="21.89115006686233px" fill="#1971c2" text-anchor="start" style="white-space: pre;" direction="ltr" dominant-baseline="alphabetic">Therefore,</text><text x="0" y="196.36404366127985" font-family="Helvetica, Segoe UI Emoji" font-size="21.89115006686233px" fill="#1971c2" text-anchor="start" style="white-space: pre;" direction="ltr" dominant-baseline="alphabetic">1 + 1 = 10, so we</text><text x="0" y="221.53886623817152" font-family="Helvetica, Segoe UI Emoji" font-size="21.89115006686233px" fill="#1971c2" text-anchor="start" style="white-space: pre;" direction="ltr" dominant-baseline="alphabetic">carry over the 1.</text></g><g stroke-linecap="round" transform="translate(10 10) rotate(0 229.9551385249979 145.63846933010336)"><path d="M0 0 C124.4 0, 248.81 0, 459.91 0 M0 0 C103.84 0, 207.68 0, 459.91 0 M459.91 0 C459.91 87.89, 459.91 175.78, 459.91 291.28 M459.91 0 C459.91 104.76, 459.91 209.53, 459.91 291.28 M459.91 291.28 C277.02 291.28, 94.13 291.28, 0 291.28 M459.91 291.28 C320.26 291.28, 180.6 291.28, 0 291.28 M0 291.28 C0 217.23, 0 143.19, 0 0 M0 291.28 C0 182.24, 0 73.2, 0 0" stroke="#000000" stroke-width="4" fill="none"></path></g><g stroke-linecap="round" transform="translate(10.24813415963581 592.7786218603505) rotate(0 229.9551385249979 145.63846933010336)"><path d="M0 0 C152.38 0, 304.76 0, 459.91 0 M0 0 C182.71 0, 365.42 0, 459.91 0 M459.91 0 C459.91 89.2, 459.91 178.4, 459.91 291.28 M459.91 0 C459.91 95.42, 459.91 190.85, 459.91 291.28 M459.91 291.28 C340.26 291.28, 220.61 291.28, 0 291.28 M459.91 291.28 C289.54 291.28, 119.16 291.28, 0 291.28 M0 291.28 C0 218.44, 0 145.6, 0 0 M0 291.28 C0 180.64, 0 70.01, 0 0" stroke="#000000" stroke-width="4" fill="none"></path></g><g transform="translate(231.78780270173957 677.2876712054058) rotate(0 85.1862892860645 12.587411288445765)"><text x="0" y="20.140285623038086" font-family="Helvetica, Segoe UI Emoji" font-size="21.89115006686233px" fill="#1971c2" text-anchor="start" style="white-space: pre;" direction="ltr" dominant-baseline="alphabetic">Bring down the 1.</text></g><g stroke-linecap="round" transform="translate(135.33097135971911 379.9571410449298) rotate(0 16.20484213333293 59.60278712281615)"><path d="M0 0 L32.41 0 L32.41 119.21 L0 119.21" stroke="none" stroke-width="0" fill="#ffec99"></path><path d="M0 0 C10.76 0, 21.53 0, 32.41 0 M0 0 C6.75 0, 13.51 0, 32.41 0 M32.41 0 C32.41 47.28, 32.41 94.55, 32.41 119.21 M32.41 0 C32.41 39.35, 32.41 78.69, 32.41 119.21 M32.41 119.21 C21.06 119.21, 9.7 119.21, 0 119.21 M32.41 119.21 C19.82 119.21, 7.23 119.21, 0 119.21 M0 119.21 C0 87.25, 0 55.3, 0 0 M0 119.21 C0 88.35, 0 57.5, 0 0" stroke="transparent" stroke-width="4" fill="none"></path></g><g transform="translate(88.28409178399306 370.52355509694644) rotate(0 55.68994903564453 64.88476535163136)"><text x="0" y="51.908914264412374" font-family="Helvetica, Segoe UI Emoji" font-size="56.4215350883752px" fill="#1e1e1e" text-anchor="start" style="white-space: pre;" direction="ltr" dominant-baseline="alphabetic">   10</text><text x="0" y="116.79367961604385" font-family="Helvetica, Segoe UI Emoji" font-size="56.4215350883752px" fill="#1e1e1e" text-anchor="start" style="white-space: pre;" direction="ltr" dominant-baseline="alphabetic">+ 10</text></g><g stroke-linecap="round"><g transform="translate(79.80031834772672 509.74076833562685) rotate(0 62.481087422225755 0)"><path d="M0 0 C20.83 0, 104.14 0, 124.96 0 M0 0 C20.83 0, 104.14 0, 124.96 0" stroke="#1e1e1e" stroke-width="4" fill="none"></path></g></g><mask></mask><g transform="translate(167.9650720739155 507.07207034474595) rotate(0 15.725801955379211 32.518228679797176)"><text x="0" y="52.03027044707414" font-family="Helvetica, Segoe UI Emoji" font-size="56.55344118225658px" fill="#1e1e1e" text-anchor="start" style="white-space: pre;" direction="ltr" dominant-baseline="alphabetic">0</text></g><g transform="translate(100.19524077547248 320.9470140117646) rotate(0 15.725801955379211 32.518228679797176)"><text x="0" y="52.03027044707414" font-family="Helvetica, Segoe UI Emoji" font-size="56.55344118225658px" fill="#1e1e1e" text-anchor="start" style="white-space: pre;" direction="ltr" dominant-baseline="alphabetic">1</text></g><g transform="translate(137.58412246400985 508.589008490173) rotate(0 15.725801955379211 32.518228679797176)"><text x="0" y="52.03027044707414" font-family="Helvetica, Segoe UI Emoji" font-size="56.55344118225658px" fill="#1e1e1e" text-anchor="start" style="white-space: pre;" direction="ltr" dominant-baseline="alphabetic">0</text></g><g transform="translate(100.99228261086682 800.8638196382417) rotate(0 15.725801955379211 32.518228679797176)"><text x="0" y="52.03027044707414" font-family="Helvetica, Segoe UI Emoji" font-size="56.55344118225658px" fill="#1e1e1e" text-anchor="start" style="white-space: pre;" direction="ltr" dominant-baseline="alphabetic">1</text></g></svg>