<svg version="1.1" xmlns="http://www.w3.org/2000/svg" viewBox="0 0 480.1584112096316 894.0555605205609" width="480.1584112096316" height="894.0555605205609">
  <!-- svg-source:excalidraw -->
  
  <defs>
    <style class="style-fonts">
      @font-face {
        font-family: "Virgil";
        src: url("https://excalidraw.com/Virgil.woff2");
      }
      @font-face {
        font-family: "Cascadia";
        src: url("https://excalidraw.com/Cascadia.woff2");
      }
      @font-face {
        font-family: "Assistant";
        src: url("https://excalidraw.com/Assistant-Regular.woff2");
      }
    </style>
    
  </defs>
  <g stroke-linecap="round" transform="translate(64.61970702910912 320.1258315074101) rotate(0 16.20484213333293 27.100258508434308)"><path d="M0 0 L32.41 0 L32.41 54.2 L0 54.2" stroke="none" stroke-width="0" fill="#b2f2bb"></path><path d="M0 0 C9.42 0, 18.83 0, 32.41 0 M0 0 C7.52 0, 15.04 0, 32.41 0 M32.41 0 C32.41 12.3, 32.41 24.6, 32.41 54.2 M32.41 0 C32.41 20.24, 32.41 40.48, 32.41 54.2 M32.41 54.2 C23.21 54.2, 14.01 54.2, 0 54.2 M32.41 54.2 C20.15 54.2, 7.88 54.2, 0 54.2 M0 54.2 C0 35.13, 0 16.07, 0 0 M0 54.2 C0 36.32, 0 18.44, 0 0" stroke="transparent" stroke-width="4" fill="none"></path></g><g transform="translate(64.9355573387038 314.0714209060552) rotate(0 15.725801955379211 32.518228679797176)"><text x="0" y="52.03027044707414" font-family="Helvetica, Segoe UI Emoji" font-size="56.55344118225658px" fill="#1e1e1e" text-anchor="start" style="white-space: pre;" direction="ltr" dominant-baseline="alphabetic">1</text></g><g stroke-linecap="round" transform="translate(281.2470093436532 494.1302199169186) rotate(0 14.84114145793319 13.552231649109672)"><path d="M0 0 L29.68 0 L29.68 27.1 L0 27.1" stroke="none" stroke-width="0" fill="#b2f2bb"></path><path d="M0 0 C11.39 0, 22.77 0, 29.68 0 M0 0 C7.54 0, 15.07 0, 29.68 0 M29.68 0 C29.68 9.42, 29.68 18.85, 29.68 27.1 M29.68 0 C29.68 8.98, 29.68 17.95, 29.68 27.1 M29.68 27.1 C18 27.1, 6.32 27.1, 0 27.1 M29.68 27.1 C23.03 27.1, 16.38 27.1, 0 27.1 M0 27.1 C0 16.37, 0 5.63, 0 0 M0 27.1 C0 19.77, 0 12.43, 0 0" stroke="transparent" stroke-width="4" fill="none"></path></g><g stroke-linecap="round" transform="translate(206.3652018518369 493.57386553686956) rotate(0 27.11945325479428 13.552231649109672)"><path d="M0 0 L54.24 0 L54.24 27.1 L0 27.1" stroke="none" stroke-width="0" fill="#ffec99"></path><path d="M0 0 C18.79 0, 37.59 0, 54.24 0 M0 0 C15.13 0, 30.26 0, 54.24 0 M54.24 0 C54.24 6.76, 54.24 13.53, 54.24 27.1 M54.24 0 C54.24 6.16, 54.24 12.32, 54.24 27.1 M54.24 27.1 C33.32 27.1, 12.39 27.1, 0 27.1 M54.24 27.1 C39.19 27.1, 24.15 27.1, 0 27.1 M0 27.1 C0 19.57, 0 12.03, 0 0 M0 27.1 C0 20.02, 0 12.94, 0 0" stroke="transparent" stroke-width="4" fill="none"></path></g><g stroke-linecap="round" transform="translate(102.1134628873333 319.76323792470794) rotate(0 16.20484213333293 58.69784988173342)"><path d="M0 0 L32.41 0 L32.41 117.4 L0 117.4" stroke="none" stroke-width="0" fill="#ffec99"></path><path d="M0 0 C8.79 0, 17.58 0, 32.41 0 M0 0 C12.71 0, 25.41 0, 32.41 0 M32.41 0 C32.41 30.71, 32.41 61.43, 32.41 117.4 M32.41 0 C32.41 45.79, 32.41 91.59, 32.41 117.4 M32.41 117.4 C21.46 117.4, 10.51 117.4, 0 117.4 M32.41 117.4 C23.32 117.4, 14.23 117.4, 0 117.4 M0 117.4 C0 83.82, 0 50.25, 0 0 M0 117.4 C0 76.79, 0 36.19, 0 0" stroke="transparent" stroke-width="4" fill="none"></path></g><g stroke-linecap="round" transform="translate(102.2165396759774 518.7230931026006) rotate(0 16.20484213333293 27.100258508434308)"><path d="M0 0 L32.41 0 L32.41 54.2 L0 54.2" stroke="none" stroke-width="0" fill="#b2f2bb"></path><path d="M0 0 C6.5 0, 13 0, 32.41 0 M0 0 C7.65 0, 15.3 0, 32.41 0 M32.41 0 C32.41 12.52, 32.41 25.03, 32.41 54.2 M32.41 0 C32.41 14.03, 32.41 28.06, 32.41 54.2 M32.41 54.2 C21.29 54.2, 10.18 54.2, 0 54.2 M32.41 54.2 C24.03 54.2, 15.65 54.2, 0 54.2 M0 54.2 C0 36.06, 0 17.92, 0 0 M0 54.2 C0 41.47, 0 28.75, 0 0" stroke="transparent" stroke-width="4" fill="none"></path></g><g transform="translate(88.17465921539042 375.7916713261002) rotate(0 40.09458198281209 65.03645735959526)"><text x="0" y="52.03027044707414" font-family="Helvetica, Segoe UI Emoji" font-size="56.55344118225658px" fill="#1e1e1e" text-anchor="start" style="white-space: pre;" direction="ltr" dominant-baseline="alphabetic"> 55</text><text x="0" y="117.0667278066692" font-family="Helvetica, Segoe UI Emoji" font-size="56.55344118225658px" fill="#1e1e1e" text-anchor="start" style="white-space: pre;" direction="ltr" dominant-baseline="alphabetic">+ 1</text></g><g stroke-linecap="round"><g transform="translate(79.69088577913135 515.0088845647842) rotate(0 51.05396841850961 0)"><path d="M0 0 C17.02 0, 85.09 0, 102.11 0 M0 0 C17.02 0, 85.09 0, 102.11 0" stroke="#1e1e1e" stroke-width="4" fill="none"></path></g></g><mask></mask><g transform="translate(141.07950289311339 512.1358834954881) rotate(0 15.725801955379211 32.518228679797176)"><text x="0" y="52.03027044707414" font-family="Helvetica, Segoe UI Emoji" font-size="56.55344118225658px" fill="#1e1e1e" text-anchor="start" style="white-space: pre;" direction="ltr" dominant-baseline="alphabetic">0</text></g><g transform="translate(100.51860427223073 314.4530062444246) rotate(0 15.725801955379211 32.518228679797176)"><text x="0" y="52.03027044707414" font-family="Helvetica, Segoe UI Emoji" font-size="56.55344118225658px" fill="#1e1e1e" text-anchor="start" style="white-space: pre;" direction="ltr" dominant-baseline="alphabetic">1</text></g><g stroke-linecap="round" transform="translate(137.36441952759196 223.74377647643996) rotate(0 15.971990129724873 25.045497078250264)"><path d="M0 0 L31.94 0 L31.94 50.09 L0 50.09" stroke="none" stroke-width="0" fill="#b2f2bb"></path><path d="M0 0 C10.78 0, 21.57 0, 31.94 0 M0 0 C7.21 0, 14.41 0, 31.94 0 M31.94 0 C31.94 10.76, 31.94 21.52, 31.94 50.09 M31.94 0 C31.94 19.4, 31.94 38.81, 31.94 50.09 M31.94 50.09 C22.4 50.09, 12.86 50.09, 0 50.09 M31.94 50.09 C20.06 50.09, 8.19 50.09, 0 50.09 M0 50.09 C0 36.86, 0 23.62, 0 0 M0 50.09 C0 33.68, 0 17.27, 0 0" stroke="transparent" stroke-width="4" fill="none"></path></g><g stroke-linecap="round" transform="translate(101.58929789477043 28.05468179791751) rotate(0 15.971990129724873 29.603386657830924)"><path d="M0 0 L31.94 0 L31.94 59.21 L0 59.21" stroke="none" stroke-width="0" fill="#b2f2bb"></path><path d="M0 0 C10.67 0, 21.35 0, 31.94 0 M0 0 C8.94 0, 17.88 0, 31.94 0 M31.94 0 C31.94 17.08, 31.94 34.16, 31.94 59.21 M31.94 0 C31.94 16.13, 31.94 32.27, 31.94 59.21 M31.94 59.21 C21.72 59.21, 11.5 59.21, 0 59.21 M31.94 59.21 C22.55 59.21, 13.16 59.21, 0 59.21 M0 59.21 C0 36.38, 0 13.55, 0 0 M0 59.21 C0 46.49, 0 33.78, 0 0" stroke="transparent" stroke-width="4" fill="none"></path></g><g transform="translate(103.0694511134243 26.212987462557066) rotate(0 15.725801955379211 32.518228679797176)"><text x="0" y="52.03027044707414" font-family="Helvetica, Segoe UI Emoji" font-size="56.55344118225658px" fill="#1e1e1e" text-anchor="start" style="white-space: pre;" direction="ltr" dominant-baseline="alphabetic">1</text></g><g transform="translate(138.84458416158668 214.07926627473717) rotate(0 15.725801955379211 32.518228679797176)"><text x="0" y="52.03027044707414" font-family="Helvetica, Segoe UI Emoji" font-size="56.55344118225658px" fill="#1e1e1e" text-anchor="start" style="white-space: pre;" direction="ltr" dominant-baseline="alphabetic">0</text></g><g stroke-linecap="round" transform="translate(207.97420684860117 181.12103207001928) rotate(0 27.11945325479428 13.552231649109672)"><path d="M0 0 L54.24 0 L54.24 27.1 L0 27.1" stroke="none" stroke-width="0" fill="#ffec99"></path><path d="M0 0 C10.96 0, 21.92 0, 54.24 0 M0 0 C14.23 0, 28.47 0, 54.24 0 M54.24 0 C54.24 5.93, 54.24 11.86, 54.24 27.1 M54.24 0 C54.24 9.9, 54.24 19.8, 54.24 27.1 M54.24 27.1 C38.66 27.1, 23.08 27.1, 0 27.1 M54.24 27.1 C32.6 27.1, 10.97 27.1, 0 27.1 M0 27.1 C0 21.05, 0 15, 0 0 M0 27.1 C0 17.24, 0 7.38, 0 0" stroke="transparent" stroke-width="4" fill="none"></path></g><g stroke-linecap="round" transform="translate(283.8085751357794 181.12103207001928) rotate(0 14.84114145793319 13.552231649109672)"><path d="M0 0 L29.68 0 L29.68 27.1 L0 27.1" stroke="none" stroke-width="0" fill="#b2f2bb"></path><path d="M0 0 C6.57 0, 13.13 0, 29.68 0 M0 0 C7.09 0, 14.18 0, 29.68 0 M29.68 0 C29.68 8.46, 29.68 16.92, 29.68 27.1 M29.68 0 C29.68 5.61, 29.68 11.21, 29.68 27.1 M29.68 27.1 C18.21 27.1, 6.74 27.1, 0 27.1 M29.68 27.1 C21.36 27.1, 13.05 27.1, 0 27.1 M0 27.1 C0 20.77, 0 14.43, 0 0 M0 27.1 C0 19.28, 0 11.46, 0 0" stroke="transparent" stroke-width="4" fill="none"></path></g><g transform="translate(86.7901021694961 665.7344388155288) rotate(0 40.09458198281209 65.03645735959526)"><text x="0" y="52.03027044707414" font-family="Helvetica, Segoe UI Emoji" font-size="56.55344118225658px" fill="#1e1e1e" text-anchor="start" style="white-space: pre;" direction="ltr" dominant-baseline="alphabetic"> 55</text><text x="0" y="117.0667278066692" font-family="Helvetica, Segoe UI Emoji" font-size="56.55344118225658px" fill="#1e1e1e" text-anchor="start" style="white-space: pre;" direction="ltr" dominant-baseline="alphabetic">+ 1</text></g><g stroke-linecap="round"><g transform="translate(78.3063287332443 804.9516520542129) rotate(0 51.05396841850961 0)"><path d="M0 0 C17.02 0, 85.09 0, 102.11 0 M0 0 C17.02 0, 85.09 0, 102.11 0" stroke="#1e1e1e" stroke-width="4" fill="none"></path></g></g><mask></mask><g transform="translate(139.69494584721906 801.1171023203224) rotate(0 15.725801955379211 32.518228679797176)"><text x="0" y="52.03027044707414" font-family="Helvetica, Segoe UI Emoji" font-size="56.55344118225658px" fill="#1e1e1e" text-anchor="start" style="white-space: pre;" direction="ltr" dominant-baseline="alphabetic">0</text></g><g stroke-linecap="round" transform="translate(137.16081716222834 88.32104481446731) rotate(0 16.20484213333293 60.535579597827564)"><path d="M0 0 L32.41 0 L32.41 121.07 L0 121.07" stroke="none" stroke-width="0" fill="#ffec99"></path><path d="M0 0 C9.57 0, 19.14 0, 32.41 0 M0 0 C11.33 0, 22.65 0, 32.41 0 M32.41 0 C32.41 46.51, 32.41 93.02, 32.41 121.07 M32.41 0 C32.41 32.43, 32.41 64.86, 32.41 121.07 M32.41 121.07 C23.5 121.07, 14.59 121.07, 0 121.07 M32.41 121.07 C24.42 121.07, 16.43 121.07, 0 121.07 M0 121.07 C0 87.72, 0 54.38, 0 0 M0 121.07 C0 88.89, 0 56.72, 0 0" stroke="transparent" stroke-width="4" fill="none"></path></g><g transform="translate(88.19586533405163 80.25690777596174) rotate(0 40.093055725097656 65.03645735959526)"><text x="0" y="52.03027044707414" font-family="Helvetica, Segoe UI Emoji" font-size="56.55344118225658px" fill="#1e1e1e" text-anchor="start" style="white-space: pre;" direction="ltr" dominant-baseline="alphabetic"> 55</text><text x="0" y="117.0667278066692" font-family="Helvetica, Segoe UI Emoji" font-size="56.55344118225658px" fill="#1e1e1e" text-anchor="start" style="white-space: pre;" direction="ltr" dominant-baseline="alphabetic">+ 1</text></g><g stroke-linecap="round"><g transform="translate(79.63813171902439 219.3726316554821) rotate(0 51.05396841850961 0)"><path d="M0 0 C17.02 0, 85.09 0, 102.11 0 M0 0 C17.02 0, 85.09 0, 102.11 0" stroke="#1e1e1e" stroke-width="4" fill="none"></path></g></g><mask></mask><g stroke-linecap="round" transform="translate(10.05748726814636 301.42732919550326) rotate(0 229.9551385249979 145.63846933010336)"><path d="M0 0 C138.45 0, 276.9 0, 459.91 0 M0 0 C129.7 0, 259.39 0, 459.91 0 M459.91 0 C459.91 95.95, 459.91 191.91, 459.91 291.28 M459.91 0 C459.91 93.37, 459.91 186.74, 459.91 291.28 M459.91 291.28 C350.14 291.28, 240.37 291.28, 0 291.28 M459.91 291.28 C361.67 291.28, 263.43 291.28, 0 291.28 M0 291.28 C0 223.78, 0 156.29, 0 0 M0 291.28 C0 203.56, 0 115.85, 0 0" stroke="#000000" stroke-width="4" fill="none"></path></g><g transform="translate(209.49476236452028 344.33563860225695) rotate(0 111.33110046386719 100.69929030756703)"><text x="0" y="20.140285623038086" font-family="Helvetica, Segoe UI Emoji" font-size="21.89115006686233px" fill="#1971c2" text-anchor="start" style="white-space: pre;" direction="ltr" dominant-baseline="alphabetic">Add next column.</text><text x="0" y="45.31510819992977" font-family="Helvetica, Segoe UI Emoji" font-size="21.89115006686233px" fill="#1971c2" text-anchor="start" style="white-space: pre;" direction="ltr" dominant-baseline="alphabetic">Once again, when</text><text x="0" y="70.48993077682144" font-family="Helvetica, Segoe UI Emoji" font-size="21.89115006686233px" fill="#1971c2" text-anchor="start" style="white-space: pre;" direction="ltr" dominant-baseline="alphabetic">the snowman adds</text><text x="0" y="95.66475335371312" font-family="Helvetica, Segoe UI Emoji" font-size="21.89115006686233px" fill="#1971c2" text-anchor="start" style="white-space: pre;" direction="ltr" dominant-baseline="alphabetic">five twigs to their</text><text x="0" y="120.8395759306048" font-family="Helvetica, Segoe UI Emoji" font-size="21.89115006686233px" fill="#1971c2" text-anchor="start" style="white-space: pre;" direction="ltr" dominant-baseline="alphabetic">last twig, they have</text><text x="0" y="146.01439850749648" font-family="Helvetica, Segoe UI Emoji" font-size="21.89115006686233px" fill="#1971c2" text-anchor="start" style="white-space: pre;" direction="ltr" dominant-baseline="alphabetic">none left. Therefore,</text><text x="0" y="171.18922108438818" font-family="Helvetica, Segoe UI Emoji" font-size="21.89115006686233px" fill="#1971c2" text-anchor="start" style="white-space: pre;" direction="ltr" dominant-baseline="alphabetic">5 + 1 = 10, so we carry</text><text x="0" y="196.36404366127985" font-family="Helvetica, Segoe UI Emoji" font-size="21.89115006686233px" fill="#1971c2" text-anchor="start" style="white-space: pre;" direction="ltr" dominant-baseline="alphabetic">over the 1.</text></g><g stroke-linecap="round" transform="translate(10 10) rotate(0 229.9551385249979 145.63846933010336)"><path d="M0 0 C117.33 0, 234.66 0, 459.91 0 M0 0 C183.28 0, 366.55 0, 459.91 0 M459.91 0 C459.91 104.61, 459.91 209.22, 459.91 291.28 M459.91 0 C459.91 96.13, 459.91 192.26, 459.91 291.28 M459.91 291.28 C305.18 291.28, 150.44 291.28, 0 291.28 M459.91 291.28 C297.73 291.28, 135.56 291.28, 0 291.28 M0 291.28 C0 191.4, 0 91.52, 0 0 M0 291.28 C0 216.57, 0 141.86, 0 0" stroke="#000000" stroke-width="4" fill="none"></path></g><g stroke-linecap="round" transform="translate(10.24813415963581 592.7786218603542) rotate(0 229.9551385249979 145.63846933010336)"><path d="M0 0 C114.91 0, 229.82 0, 459.91 0 M0 0 C141.8 0, 283.6 0, 459.91 0 M459.91 0 C459.91 91.3, 459.91 182.6, 459.91 291.28 M459.91 0 C459.91 96.84, 459.91 193.68, 459.91 291.28 M459.91 291.28 C336.57 291.28, 213.23 291.28, 0 291.28 M459.91 291.28 C362.98 291.28, 266.06 291.28, 0 291.28 M0 291.28 C0 189.02, 0 86.77, 0 0 M0 291.28 C0 210.08, 0 128.88, 0 0" stroke="#000000" stroke-width="4" fill="none"></path></g><g transform="translate(103.91469162798239 511.8971980245369) rotate(0 15.725801955379211 32.518228679797176)"><text x="0" y="52.03027044707414" font-family="Helvetica, Segoe UI Emoji" font-size="56.55344118225658px" fill="#1e1e1e" text-anchor="start" style="white-space: pre;" direction="ltr" dominant-baseline="alphabetic">0</text></g><g transform="translate(102.76211273917579 801.1171023203224) rotate(0 15.725801955379211 32.518228679797176)"><text x="0" y="52.03027044707414" font-family="Helvetica, Segoe UI Emoji" font-size="56.55344118225658px" fill="#1e1e1e" text-anchor="start" style="white-space: pre;" direction="ltr" dominant-baseline="alphabetic">0</text></g><g transform="translate(69.40947934956785 604.4699002357574) rotate(0 15.725801955379211 32.518228679797176)"><text x="0" y="52.03027044707414" font-family="Helvetica, Segoe UI Emoji" font-size="56.55344118225658px" fill="#1e1e1e" text-anchor="start" style="white-space: pre;" direction="ltr" dominant-baseline="alphabetic">1</text></g><g transform="translate(72.70710617391887 801.4614262219529) rotate(0 15.725801955379211 32.518228679797176)"><text x="0" y="52.03027044707414" font-family="Helvetica, Segoe UI Emoji" font-size="56.55344118225658px" fill="#1e1e1e" text-anchor="start" style="white-space: pre;" direction="ltr" dominant-baseline="alphabetic">1</text></g><g stroke-linecap="round"><g transform="translate(86.40996762893337 666.3754796807534) rotate(0 0 62.97277874332303)"><path d="M0 0 C0 31.22, 0 62.44, 0 125.95 M0 0 C0 38.73, 0 77.47, 0 125.95" stroke="#1971c2" stroke-width="4" fill="none"></path></g><g transform="translate(86.40996762893337 666.3754796807534) rotate(0 0 62.97277874332303)"><path d="M0 125.95 L-6.34 112.35 L6.34 112.35 L0 125.95" stroke="none" stroke-width="0" fill="#1971c2" fill-rule="evenodd"></path><path d="M0 125.95 C-1.57 122.58, -3.14 119.21, -6.34 112.35 M0 125.95 C-1.95 121.76, -3.9 117.58, -6.34 112.35 M-6.34 112.35 C-3.47 112.35, -0.6 112.35, 6.34 112.35 M-6.34 112.35 C-2.06 112.35, 2.22 112.35, 6.34 112.35 M6.34 112.35 C4.95 115.33, 3.57 118.3, 0 125.95 M6.34 112.35 C4.15 117.04, 1.97 121.72, 0 125.95 M0 125.95 C0 125.95, 0 125.95, 0 125.95 M0 125.95 C0 125.95, 0 125.95, 0 125.95" stroke="#1971c2" stroke-width="4" fill="none"></path></g></g><mask></mask><g transform="translate(209.49476236452028 679.3502278523047) rotate(0 85.1862892860645 12.587411288445765)"><text x="0" y="20.140285623038086" font-family="Helvetica, Segoe UI Emoji" font-size="21.89115006686233px" fill="#1971c2" text-anchor="start" style="white-space: pre;" direction="ltr" dominant-baseline="alphabetic">Bring down the 1.</text></g><g transform="translate(209.8688347294592 55.76758752572823) rotate(0 117.41282653808594 88.11187901912126)"><text x="0" y="20.140285623038086" font-family="Helvetica, Segoe UI Emoji" font-size="21.89115006686233px" fill="#1971c2" text-anchor="start" style="white-space: pre;" direction="ltr" dominant-baseline="alphabetic">Add right column.</text><text x="0" y="45.31510819992977" font-family="Helvetica, Segoe UI Emoji" font-size="21.89115006686233px" fill="#1971c2" text-anchor="start" style="white-space: pre;" direction="ltr" dominant-baseline="alphabetic">When the snowman</text><text x="0" y="70.48993077682144" font-family="Helvetica, Segoe UI Emoji" font-size="21.89115006686233px" fill="#1971c2" text-anchor="start" style="white-space: pre;" direction="ltr" dominant-baseline="alphabetic">adds 5 twigs to</text><text x="0" y="95.66475335371312" font-family="Helvetica, Segoe UI Emoji" font-size="21.89115006686233px" fill="#1971c2" text-anchor="start" style="white-space: pre;" direction="ltr" dominant-baseline="alphabetic">their last twig, they have</text><text x="0" y="120.8395759306048" font-family="Helvetica, Segoe UI Emoji" font-size="21.89115006686233px" fill="#1971c2" text-anchor="start" style="white-space: pre;" direction="ltr" dominant-baseline="alphabetic">none left. Therefore,</text><text x="0" y="146.01439850749648" font-family="Helvetica, Segoe UI Emoji" font-size="21.89115006686233px" fill="#1971c2" text-anchor="start" style="white-space: pre;" direction="ltr" dominant-baseline="alphabetic">5 + 1 = 10, so we carry</text><text x="0" y="171.18922108438818" font-family="Helvetica, Segoe UI Emoji" font-size="21.89115006686233px" fill="#1971c2" text-anchor="start" style="white-space: pre;" direction="ltr" dominant-baseline="alphabetic">over the 1.</text></g></svg>