<svg version="1.1" xmlns="http://www.w3.org/2000/svg" viewBox="0 0 480.1584112096243 894.0555605205609" width="480.1584112096243" height="894.0555605205609">
  <!-- svg-source:excalidraw -->
  
  <defs>
    <style class="style-fonts">
      @font-face {
        font-family: "Virgil";
        src: url("https://excalidraw.com/Virgil.woff2");
      }
      @font-face {
        font-family: "Cascadia";
        src: url("https://excalidraw.com/Cascadia.woff2");
      }
      @font-face {
        font-family: "Assistant";
        src: url("https://excalidraw.com/Assistant-Regular.woff2");
      }
    </style>
    
  </defs>
  <g stroke-linecap="round" transform="translate(64.61970702910912 320.12583150741193) rotate(0 16.20484213333293 27.100258508434308)"><path d="M0 0 L32.41 0 L32.41 54.2 L0 54.2" stroke="none" stroke-width="0" fill="#b2f2bb"></path><path d="M0 0 C11.87 0, 23.75 0, 32.41 0 M0 0 C11.46 0, 22.91 0, 32.41 0 M32.41 0 C32.41 18.79, 32.41 37.57, 32.41 54.2 M32.41 0 C32.41 16.07, 32.41 32.15, 32.41 54.2 M32.41 54.2 C19.7 54.2, 6.98 54.2, 0 54.2 M32.41 54.2 C24.29 54.2, 16.18 54.2, 0 54.2 M0 54.2 C0 38.76, 0 23.33, 0 0 M0 54.2 C0 38.28, 0 22.37, 0 0" stroke="transparent" stroke-width="4" fill="none"></path></g><g transform="translate(64.93555733870016 314.071420906057) rotate(0 15.725801955379211 32.518228679797176)"><text x="0" y="52.03027044707414" font-family="Helvetica, Segoe UI Emoji" font-size="56.55344118225658px" fill="#1e1e1e" text-anchor="start" style="white-space: pre;" direction="ltr" dominant-baseline="alphabetic">1</text></g><g stroke-linecap="round" transform="translate(281.62851416995545 393.8182946497218) rotate(0 14.84114145793319 13.552231649109672)"><path d="M0 0 L29.68 0 L29.68 27.1 L0 27.1" stroke="none" stroke-width="0" fill="#b2f2bb"></path><path d="M0 0 C9.31 0, 18.62 0, 29.68 0 M0 0 C10.6 0, 21.2 0, 29.68 0 M29.68 0 C29.68 8.18, 29.68 16.36, 29.68 27.1 M29.68 0 C29.68 8.06, 29.68 16.13, 29.68 27.1 M29.68 27.1 C21.76 27.1, 13.83 27.1, 0 27.1 M29.68 27.1 C20.59 27.1, 11.49 27.1, 0 27.1 M0 27.1 C0 21.34, 0 15.58, 0 0 M0 27.1 C0 17.78, 0 8.46, 0 0" stroke="transparent" stroke-width="4" fill="none"></path></g><g stroke-linecap="round" transform="translate(205.8883208189509 393.18018923546333) rotate(0 27.11945325479428 13.552231649109672)"><path d="M0 0 L54.24 0 L54.24 27.1 L0 27.1" stroke="none" stroke-width="0" fill="#ffec99"></path><path d="M0 0 C16.55 0, 33.1 0, 54.24 0 M0 0 C19.25 0, 38.5 0, 54.24 0 M54.24 0 C54.24 10.55, 54.24 21.1, 54.24 27.1 M54.24 0 C54.24 8.35, 54.24 16.69, 54.24 27.1 M54.24 27.1 C41.29 27.1, 28.34 27.1, 0 27.1 M54.24 27.1 C42.45 27.1, 30.65 27.1, 0 27.1 M0 27.1 C0 21.07, 0 15.03, 0 0 M0 27.1 C0 17.5, 0 7.9, 0 0" stroke="transparent" stroke-width="4" fill="none"></path></g><g stroke-linecap="round" transform="translate(102.11346288732602 319.76323792470794) rotate(0 16.20484213333293 58.69784988173342)"><path d="M0 0 L32.41 0 L32.41 117.4 L0 117.4" stroke="none" stroke-width="0" fill="#ffec99"></path><path d="M0 0 C8.55 0, 17.11 0, 32.41 0 M0 0 C10.39 0, 20.77 0, 32.41 0 M32.41 0 C32.41 25.66, 32.41 51.33, 32.41 117.4 M32.41 0 C32.41 31.43, 32.41 62.86, 32.41 117.4 M32.41 117.4 C23.39 117.4, 14.37 117.4, 0 117.4 M32.41 117.4 C20.44 117.4, 8.48 117.4, 0 117.4 M0 117.4 C0 84.5, 0 51.61, 0 0 M0 117.4 C0 87.59, 0 57.78, 0 0" stroke="transparent" stroke-width="4" fill="none"></path></g><g stroke-linecap="round" transform="translate(102.21653967597376 518.7230931026024) rotate(0 16.20484213333293 27.100258508434308)"><path d="M0 0 L32.41 0 L32.41 54.2 L0 54.2" stroke="none" stroke-width="0" fill="#b2f2bb"></path><path d="M0 0 C7.35 0, 14.7 0, 32.41 0 M0 0 C9.12 0, 18.25 0, 32.41 0 M32.41 0 C32.41 11.03, 32.41 22.06, 32.41 54.2 M32.41 0 C32.41 17.86, 32.41 35.72, 32.41 54.2 M32.41 54.2 C21.16 54.2, 9.91 54.2, 0 54.2 M32.41 54.2 C22.11 54.2, 11.81 54.2, 0 54.2 M0 54.2 C0 34.31, 0 14.43, 0 0 M0 54.2 C0 33.6, 0 13, 0 0" stroke="transparent" stroke-width="4" fill="none"></path></g><g transform="translate(88.17465921538678 375.9076828238922) rotate(0 40.093055725097656 65.03645735959526)"><text x="0" y="52.03027044707414" font-family="Helvetica, Segoe UI Emoji" font-size="56.55344118225658px" fill="#1e1e1e" text-anchor="start" style="white-space: pre;" direction="ltr" dominant-baseline="alphabetic"> 99</text><text x="0" y="117.0667278066692" font-family="Helvetica, Segoe UI Emoji" font-size="56.55344118225658px" fill="#1e1e1e" text-anchor="start" style="white-space: pre;" direction="ltr" dominant-baseline="alphabetic">+ 1</text></g><g stroke-linecap="round"><g transform="translate(79.69088577912771 515.1248960625762) rotate(0 51.05396841850961 0)"><path d="M0 0 C17.02 0, 85.09 0, 102.11 0 M0 0 C17.02 0, 85.09 0, 102.11 0" stroke="#1e1e1e" stroke-width="4" fill="none"></path></g></g><mask></mask><g transform="translate(141.07950289310975 512.2518949932801) rotate(0 15.725801955379211 32.518228679797176)"><text x="0" y="52.03027044707414" font-family="Helvetica, Segoe UI Emoji" font-size="56.55344118225658px" fill="#1e1e1e" text-anchor="start" style="white-space: pre;" direction="ltr" dominant-baseline="alphabetic">0</text></g><g transform="translate(100.5186042722271 314.5690177422166) rotate(0 15.725801955379211 32.518228679797176)"><text x="0" y="52.03027044707414" font-family="Helvetica, Segoe UI Emoji" font-size="56.55344118225658px" fill="#1e1e1e" text-anchor="start" style="white-space: pre;" direction="ltr" dominant-baseline="alphabetic">1</text></g><g stroke-linecap="round" transform="translate(137.3644195275847 223.74377647643996) rotate(0 15.971990129724873 25.045497078250264)"><path d="M0 0 L31.94 0 L31.94 50.09 L0 50.09" stroke="none" stroke-width="0" fill="#b2f2bb"></path><path d="M0 0 C12.43 0, 24.86 0, 31.94 0 M0 0 C9.84 0, 19.67 0, 31.94 0 M31.94 0 C31.94 11.96, 31.94 23.92, 31.94 50.09 M31.94 0 C31.94 10.89, 31.94 21.78, 31.94 50.09 M31.94 50.09 C24.83 50.09, 17.72 50.09, 0 50.09 M31.94 50.09 C20.63 50.09, 9.31 50.09, 0 50.09 M0 50.09 C0 32.26, 0 14.43, 0 0 M0 50.09 C0 36.09, 0 22.09, 0 0" stroke="transparent" stroke-width="4" fill="none"></path></g><g stroke-linecap="round" transform="translate(101.58929789476679 28.05468179791569) rotate(0 15.971990129724873 29.603386657830924)"><path d="M0 0 L31.94 0 L31.94 59.21 L0 59.21" stroke="none" stroke-width="0" fill="#b2f2bb"></path><path d="M0 0 C6.98 0, 13.97 0, 31.94 0 M0 0 C8.55 0, 17.1 0, 31.94 0 M31.94 0 C31.94 16.47, 31.94 32.95, 31.94 59.21 M31.94 0 C31.94 21.86, 31.94 43.72, 31.94 59.21 M31.94 59.21 C22.99 59.21, 14.04 59.21, 0 59.21 M31.94 59.21 C23.83 59.21, 15.72 59.21, 0 59.21 M0 59.21 C0 45.59, 0 31.98, 0 0 M0 59.21 C0 37.38, 0 15.56, 0 0" stroke="transparent" stroke-width="4" fill="none"></path></g><g transform="translate(103.06945111342066 26.212987462557066) rotate(0 15.725801955379211 32.518228679797176)"><text x="0" y="52.03027044707414" font-family="Helvetica, Segoe UI Emoji" font-size="56.55344118225658px" fill="#1e1e1e" text-anchor="start" style="white-space: pre;" direction="ltr" dominant-baseline="alphabetic">1</text></g><g transform="translate(138.84458416158304 214.07926627473717) rotate(0 15.725801955379211 32.518228679797176)"><text x="0" y="52.03027044707414" font-family="Helvetica, Segoe UI Emoji" font-size="56.55344118225658px" fill="#1e1e1e" text-anchor="start" style="white-space: pre;" direction="ltr" dominant-baseline="alphabetic">0</text></g><g stroke-linecap="round" transform="translate(208.46130676075336 81.43245843866498) rotate(0 27.11945325479428 13.552231649109672)"><path d="M0 0 L54.24 0 L54.24 27.1 L0 27.1" stroke="none" stroke-width="0" fill="#ffec99"></path><path d="M0 0 C21.28 0, 42.55 0, 54.24 0 M0 0 C13.58 0, 27.17 0, 54.24 0 M54.24 0 C54.24 7.72, 54.24 15.44, 54.24 27.1 M54.24 0 C54.24 7.96, 54.24 15.92, 54.24 27.1 M54.24 27.1 C38.71 27.1, 23.17 27.1, 0 27.1 M54.24 27.1 C42.84 27.1, 31.45 27.1, 0 27.1 M0 27.1 C0 16.46, 0 5.81, 0 0 M0 27.1 C0 16.64, 0 6.18, 0 0" stroke="transparent" stroke-width="4" fill="none"></path></g><g stroke-linecap="round" transform="translate(282.8990948801984 81.53464723142497) rotate(0 14.84114145793319 13.552231649109672)"><path d="M0 0 L29.68 0 L29.68 27.1 L0 27.1" stroke="none" stroke-width="0" fill="#b2f2bb"></path><path d="M0 0 C8.55 0, 17.1 0, 29.68 0 M0 0 C8.29 0, 16.59 0, 29.68 0 M29.68 0 C29.68 5.63, 29.68 11.27, 29.68 27.1 M29.68 0 C29.68 10.34, 29.68 20.69, 29.68 27.1 M29.68 27.1 C18.42 27.1, 7.16 27.1, 0 27.1 M29.68 27.1 C20.13 27.1, 10.58 27.1, 0 27.1 M0 27.1 C0 21.64, 0 16.18, 0 0 M0 27.1 C0 17.36, 0 7.61, 0 0" stroke="transparent" stroke-width="4" fill="none"></path></g><g transform="translate(86.79010216949246 665.7344388155288) rotate(0 40.093055725097656 65.03645735959526)"><text x="0" y="52.03027044707414" font-family="Helvetica, Segoe UI Emoji" font-size="56.55344118225658px" fill="#1e1e1e" text-anchor="start" style="white-space: pre;" direction="ltr" dominant-baseline="alphabetic"> 99</text><text x="0" y="117.0667278066692" font-family="Helvetica, Segoe UI Emoji" font-size="56.55344118225658px" fill="#1e1e1e" text-anchor="start" style="white-space: pre;" direction="ltr" dominant-baseline="alphabetic">+ 1</text></g><g stroke-linecap="round"><g transform="translate(78.30632873324066 804.9516520542129) rotate(0 51.05396841850961 0)"><path d="M0 0 C17.02 0, 85.09 0, 102.11 0 M0 0 C17.02 0, 85.09 0, 102.11 0" stroke="#1e1e1e" stroke-width="4" fill="none"></path></g></g><mask></mask><g transform="translate(139.69494584721542 801.1171023203242) rotate(0 15.725801955379211 32.518228679797176)"><text x="0" y="52.03027044707414" font-family="Helvetica, Segoe UI Emoji" font-size="56.55344118225658px" fill="#1e1e1e" text-anchor="start" style="white-space: pre;" direction="ltr" dominant-baseline="alphabetic">0</text></g><g stroke-linecap="round" transform="translate(137.16081716222106 88.32104481446731) rotate(0 16.20484213333293 60.535579597827564)"><path d="M0 0 L32.41 0 L32.41 121.07 L0 121.07" stroke="none" stroke-width="0" fill="#ffec99"></path><path d="M0 0 C11.25 0, 22.5 0, 32.41 0 M0 0 C10.3 0, 20.6 0, 32.41 0 M32.41 0 C32.41 44.42, 32.41 88.84, 32.41 121.07 M32.41 0 C32.41 46.01, 32.41 92.02, 32.41 121.07 M32.41 121.07 C20.68 121.07, 8.94 121.07, 0 121.07 M32.41 121.07 C22.82 121.07, 13.22 121.07, 0 121.07 M0 121.07 C0 75.71, 0 30.36, 0 0 M0 121.07 C0 86.17, 0 51.28, 0 0" stroke="transparent" stroke-width="4" fill="none"></path></g><g transform="translate(88.195865334048 80.25690777596174) rotate(0 40.093055725097656 65.03645735959526)"><text x="0" y="52.03027044707414" font-family="Helvetica, Segoe UI Emoji" font-size="56.55344118225658px" fill="#1e1e1e" text-anchor="start" style="white-space: pre;" direction="ltr" dominant-baseline="alphabetic"> 99</text><text x="0" y="117.0667278066692" font-family="Helvetica, Segoe UI Emoji" font-size="56.55344118225658px" fill="#1e1e1e" text-anchor="start" style="white-space: pre;" direction="ltr" dominant-baseline="alphabetic">+ 1</text></g><g stroke-linecap="round"><g transform="translate(79.63813171902439 219.3726316554821) rotate(0 51.05396841850961 0)"><path d="M0 0 C17.02 0, 85.09 0, 102.11 0 M0 0 C17.02 0, 85.09 0, 102.11 0" stroke="#1e1e1e" stroke-width="4" fill="none"></path></g></g><mask></mask><g stroke-linecap="round" transform="translate(10.05748726814636 301.42732919550326) rotate(0 229.9551385249979 145.63846933010336)"><path d="M0 0 C95.61 0, 191.22 0, 459.91 0 M0 0 C175.51 0, 351.01 0, 459.91 0 M459.91 0 C459.91 110.52, 459.91 221.04, 459.91 291.28 M459.91 0 C459.91 93.73, 459.91 187.46, 459.91 291.28 M459.91 291.28 C367.19 291.28, 274.47 291.28, 0 291.28 M459.91 291.28 C294.49 291.28, 129.08 291.28, 0 291.28 M0 291.28 C0 180.04, 0 68.8, 0 0 M0 291.28 C0 179.95, 0 68.63, 0 0" stroke="#000000" stroke-width="4" fill="none"></path></g><g transform="translate(209.494762364513 344.33563860225695) rotate(0 92.47663116455078 62.93705644222882)"><text x="0" y="20.140285623038086" font-family="Helvetica, Segoe UI Emoji" font-size="21.89115006686233px" fill="#1971c2" text-anchor="start" style="white-space: pre;" direction="ltr" dominant-baseline="alphabetic">Add next column.</text><text x="0" y="45.31510819992977" font-family="Helvetica, Segoe UI Emoji" font-size="21.89115006686233px" fill="#1971c2" text-anchor="start" style="white-space: pre;" direction="ltr" dominant-baseline="alphabetic">Once again,</text><text x="0" y="70.48993077682144" font-family="Helvetica, Segoe UI Emoji" font-size="21.89115006686233px" fill="#1971c2" text-anchor="start" style="white-space: pre;" direction="ltr" dominant-baseline="alphabetic">9 + 1 = 10, so we</text><text x="0" y="95.66475335371312" font-family="Helvetica, Segoe UI Emoji" font-size="21.89115006686233px" fill="#1971c2" text-anchor="start" style="white-space: pre;" direction="ltr" dominant-baseline="alphabetic">carry over the 1</text><text x="0" y="120.8395759306048" font-family="Helvetica, Segoe UI Emoji" font-size="21.89115006686233px" fill="#1971c2" text-anchor="start" style="white-space: pre;" direction="ltr" dominant-baseline="alphabetic">to the next column.</text></g><g stroke-linecap="round" transform="translate(10 10) rotate(0 229.9551385249979 145.63846933010336)"><path d="M0 0 C102.42 0, 204.85 0, 459.91 0 M0 0 C162.96 0, 325.92 0, 459.91 0 M459.91 0 C459.91 103.67, 459.91 207.35, 459.91 291.28 M459.91 0 C459.91 81.4, 459.91 162.81, 459.91 291.28 M459.91 291.28 C343.69 291.28, 227.47 291.28, 0 291.28 M459.91 291.28 C349.42 291.28, 238.92 291.28, 0 291.28 M0 291.28 C0 180.67, 0 70.07, 0 0 M0 291.28 C0 213.34, 0 135.4, 0 0" stroke="#000000" stroke-width="4" fill="none"></path></g><g stroke-linecap="round" transform="translate(10.248134159628535 592.7786218603542) rotate(0 229.9551385249979 145.63846933010336)"><path d="M0 0 C128.87 0, 257.73 0, 459.91 0 M0 0 C116.77 0, 233.54 0, 459.91 0 M459.91 0 C459.91 66.98, 459.91 133.95, 459.91 291.28 M459.91 0 C459.91 107.36, 459.91 214.72, 459.91 291.28 M459.91 291.28 C297.04 291.28, 134.17 291.28, 0 291.28 M459.91 291.28 C333.51 291.28, 207.11 291.28, 0 291.28 M0 291.28 C0 217.36, 0 143.45, 0 0 M0 291.28 C0 219.66, 0 148.05, 0 0" stroke="#000000" stroke-width="4" fill="none"></path></g><g transform="translate(103.91469162797875 511.8971980245369) rotate(0 15.725801955379211 32.518228679797176)"><text x="0" y="52.03027044707414" font-family="Helvetica, Segoe UI Emoji" font-size="56.55344118225658px" fill="#1e1e1e" text-anchor="start" style="white-space: pre;" direction="ltr" dominant-baseline="alphabetic">0</text></g><g transform="translate(102.76211273917579 801.1171023203242) rotate(0 15.725801955379211 32.518228679797176)"><text x="0" y="52.03027044707414" font-family="Helvetica, Segoe UI Emoji" font-size="56.55344118225658px" fill="#1e1e1e" text-anchor="start" style="white-space: pre;" direction="ltr" dominant-baseline="alphabetic">0</text></g><g transform="translate(69.40947934956057 604.4699002357556) rotate(0 15.725801955379211 32.518228679797176)"><text x="0" y="52.03027044707414" font-family="Helvetica, Segoe UI Emoji" font-size="56.55344118225658px" fill="#1e1e1e" text-anchor="start" style="white-space: pre;" direction="ltr" dominant-baseline="alphabetic">1</text></g><g transform="translate(72.7071061739116 801.4614262219511) rotate(0 15.725801955379211 32.518228679797176)"><text x="0" y="52.03027044707414" font-family="Helvetica, Segoe UI Emoji" font-size="56.55344118225658px" fill="#1e1e1e" text-anchor="start" style="white-space: pre;" direction="ltr" dominant-baseline="alphabetic">1</text></g><g stroke-linecap="round"><g transform="translate(86.40996762893337 666.3754796807516) rotate(0 0 62.97277874332303)"><path d="M0 0 C0 46.1, 0 92.21, 0 125.95 M0 0 C0 29.2, 0 58.4, 0 125.95" stroke="#1971c2" stroke-width="4" fill="none"></path></g><g transform="translate(86.40996762893337 666.3754796807516) rotate(0 0 62.97277874332303)"><path d="M0 125.95 L-6.34 112.35 L6.34 112.35 L0 125.95" stroke="none" stroke-width="0" fill="#1971c2" fill-rule="evenodd"></path><path d="M0 125.95 C-2.32 120.97, -4.64 115.99, -6.34 112.35 M0 125.95 C-1.47 122.79, -2.94 119.64, -6.34 112.35 M-6.34 112.35 C-3.39 112.35, -0.45 112.35, 6.34 112.35 M-6.34 112.35 C-1.9 112.35, 2.54 112.35, 6.34 112.35 M6.34 112.35 C4.14 117.07, 1.94 121.79, 0 125.95 M6.34 112.35 C4.85 115.53, 3.37 118.72, 0 125.95 M0 125.95 C0 125.95, 0 125.95, 0 125.95 M0 125.95 C0 125.95, 0 125.95, 0 125.95" stroke="#1971c2" stroke-width="4" fill="none"></path></g></g><mask></mask><g transform="translate(209.494762364513 679.3502278523047) rotate(0 85.1862892860645 12.587411288445765)"><text x="0" y="20.140285623038086" font-family="Helvetica, Segoe UI Emoji" font-size="21.89115006686233px" fill="#1971c2" text-anchor="start" style="white-space: pre;" direction="ltr" dominant-baseline="alphabetic">Bring down the 1.</text></g><g transform="translate(209.86883472945192 55.76758752573005) rotate(0 92.47663116455078 50.34964515378306)"><text x="0" y="20.140285623038086" font-family="Helvetica, Segoe UI Emoji" font-size="21.89115006686233px" fill="#1971c2" text-anchor="start" style="white-space: pre;" direction="ltr" dominant-baseline="alphabetic">Add right column.</text><text x="0" y="45.31510819992977" font-family="Helvetica, Segoe UI Emoji" font-size="21.89115006686233px" fill="#1971c2" text-anchor="start" style="white-space: pre;" direction="ltr" dominant-baseline="alphabetic">9 + 1 = 10, so we</text><text x="0" y="70.48993077682144" font-family="Helvetica, Segoe UI Emoji" font-size="21.89115006686233px" fill="#1971c2" text-anchor="start" style="white-space: pre;" direction="ltr" dominant-baseline="alphabetic">carry over the 1</text><text x="0" y="95.66475335371312" font-family="Helvetica, Segoe UI Emoji" font-size="21.89115006686233px" fill="#1971c2" text-anchor="start" style="white-space: pre;" direction="ltr" dominant-baseline="alphabetic">to the next column.</text></g></svg>