<svg version="1.1" xmlns="http://www.w3.org/2000/svg" viewBox="0 0 936.19140625 936.1914062500005" width="936.19140625" height="936.1914062500005">
  <!-- svg-source:excalidraw -->
  
  <defs>
    <style class="style-fonts">
      @font-face {
        font-family: "Virgil";
        src: url("https://excalidraw.com/Virgil.woff2");
      }
      @font-face {
        font-family: "Cascadia";
        src: url("https://excalidraw.com/Cascadia.woff2");
      }
    </style>
    
  </defs>
  <g stroke-opacity="0.5" fill-opacity="0.5" stroke-linecap="round" transform="translate(10 10.000000000000227) rotate(0 458.095703125 458.0957031250001)"><path d="M536.93 6.06 C563.67 3.13, 590.16 18.54, 615.91 28.12 C641.66 37.71, 667.85 49.55, 691.43 63.57 C715.01 77.59, 736.69 94.57, 757.39 112.23 C778.09 129.89, 798.47 148.45, 815.63 169.53 C832.79 190.61, 847.39 214.61, 860.35 238.72 C873.32 262.84, 885.03 288.37, 893.42 314.22 C901.82 340.08, 907.05 366.86, 910.71 393.85 C914.37 420.84, 916.13 449.02, 915.38 476.16 C914.64 503.31, 911.98 530.18, 906.25 556.72 C900.52 583.26, 891.63 610.07, 881.01 635.41 C870.39 660.75, 857.67 685.79, 842.52 708.76 C827.37 731.73, 808.9 753.43, 790.1 773.21 C771.29 792.98, 751.51 811.36, 729.69 827.42 C707.87 843.48, 683.71 857.54, 659.18 869.57 C634.65 881.6, 608.89 892.12, 582.54 899.61 C556.18 907.11, 528.22 912.04, 501.06 914.54 C473.9 917.05, 446.82 916.94, 419.59 914.64 C392.36 912.34, 363.97 907.78, 337.67 900.73 C311.37 893.69, 286.3 883.98, 261.78 872.37 C237.25 860.76, 212.67 847.05, 190.5 831.07 C168.33 815.09, 147.68 796.4, 128.75 776.48 C109.83 756.57, 92.21 734.19, 76.97 711.57 C61.74 688.95, 48 665.51, 37.34 640.78 C26.68 616.04, 19.18 589.87, 13.01 563.17 C6.85 536.48, 1.83 508, 0.36 480.62 C-1.11 453.23, 0.58 425.68, 4.21 398.87 C7.85 372.06, 13.89 345.51, 22.15 319.74 C30.41 293.96, 40.96 268.41, 53.77 244.22 C66.58 220.04, 82.06 196.04, 98.99 174.63 C115.92 153.21, 135.12 133.68, 155.35 115.73 C175.58 97.78, 197.13 81.31, 220.38 66.9 C243.64 52.5, 269.41 39.11, 294.91 29.29 C320.41 19.47, 346.65 12.99, 373.38 7.96 C400.12 2.93, 424.91 -1.2, 455.31 -0.89 C485.7 -0.58, 536.25 5.55, 555.75 9.81 C575.26 14.07, 574.07 17.17, 572.33 24.68 M273.94 39.66 C294.96 22.51, 325.73 20.12, 352.56 13.59 C379.39 7.06, 407.84 2.31, 434.93 0.49 C462.02 -1.33, 488.35 -0.65, 515.1 2.67 C541.85 6, 569.54 12.14, 595.43 20.46 C621.31 28.78, 646.45 39.64, 670.4 52.61 C694.35 65.58, 717.33 81.3, 739.13 98.27 C760.92 115.24, 783.03 133.99, 801.18 154.42 C819.34 174.84, 833.92 197.46, 848.05 220.82 C862.18 244.17, 875.75 269.36, 885.98 294.54 C896.2 319.72, 904.59 345.16, 909.38 371.91 C914.17 398.66, 914.65 427.72, 914.71 455.03 C914.78 482.34, 914.13 509.23, 909.78 535.78 C905.43 562.32, 898.11 588.75, 888.61 614.29 C879.11 639.83, 866.35 665.21, 852.77 689.02 C839.2 712.84, 824.58 736.39, 807.18 757.2 C789.77 778, 769.84 796.99, 748.35 813.83 C726.87 830.66, 702.23 845.03, 678.25 858.21 C654.28 871.39, 630.19 883.91, 604.51 892.9 C578.83 901.9, 551.26 908.34, 524.17 912.2 C497.09 916.05, 469.34 917.32, 442.01 916.05 C414.68 914.78, 386.93 910.6, 360.19 904.58 C333.45 898.56, 306.87 890.07, 281.58 879.92 C256.29 869.77, 231.1 858.2, 208.46 843.7 C185.83 829.19, 165.37 811.97, 145.78 792.89 C126.18 773.81, 107.55 751.2, 90.89 729.22 C74.24 707.23, 58.31 685.45, 45.86 661.01 C33.4 636.57, 23.47 608.9, 16.17 582.58 C8.87 556.25, 4.71 530.19, 2.07 503.05 C-0.57 475.9, -2.08 446.74, 0.33 419.71 C2.75 392.67, 9.45 367.12, 16.58 340.85 C23.7 314.59, 31.49 286.87, 43.09 262.11 C54.7 237.36, 70.37 214.36, 86.2 192.3 C102.03 170.24, 118.91 148.61, 138.07 129.75 C157.23 110.89, 178.32 94.11, 201.14 79.14 C223.96 64.17, 261.92 45.51, 274.97 39.92 C288.02 34.32, 276.46 38.8, 279.44 45.55" stroke="none" stroke-width="0" fill="#ffffff"></path><path d="M565.98 13.26 C592.94 12.04, 618.83 28.9, 643.89 40.04 C668.95 51.19, 693.79 64.73, 716.36 80.14 C738.93 95.56, 760.01 113.51, 779.3 132.54 C798.6 151.57, 816.34 172.26, 832.14 194.32 C847.95 216.38, 862.54 240.06, 874.15 264.92 C885.76 289.77, 894.98 317.1, 901.79 343.45 C908.61 369.79, 913.22 395.92, 915.05 422.98 C916.87 450.04, 915.44 478.67, 912.72 505.81 C910 532.95, 906.28 559.49, 898.73 585.8 C891.17 612.12, 879.9 639.1, 867.4 663.68 C854.9 688.27, 839.85 711.76, 823.72 733.31 C807.58 754.87, 790.36 774.6, 770.59 793.03 C750.81 811.46, 728.23 829.23, 705.06 843.9 C681.89 858.56, 656.72 870.71, 631.56 881.03 C606.4 891.35, 580.78 900.12, 554.11 905.81 C527.43 911.51, 498.93 914.19, 471.51 915.21 C444.09 916.24, 416.45 915.87, 389.59 911.99 C362.72 908.1, 336.24 900.91, 310.33 891.91 C284.42 882.92, 258.03 871.37, 234.13 858.02 C210.24 844.66, 187.89 829.23, 166.98 811.77 C146.06 794.32, 126.15 774.17, 108.63 753.27 C91.11 732.38, 75.52 709.78, 61.86 686.4 C48.2 663.02, 36.06 638.4, 26.68 613.01 C17.29 587.61, 10.04 560.92, 5.53 534.04 C1.01 507.15, -0.83 479.27, -0.43 451.69 C-0.03 424.11, 2.53 395.54, 7.92 368.54 C13.31 341.54, 21.84 314.8, 31.94 289.69 C42.03 264.58, 54.1 240.88, 68.5 217.88 C82.89 194.87, 100.19 171.88, 118.32 151.65 C136.45 131.41, 155.87 113.26, 177.26 96.47 C198.66 79.67, 222.43 63.68, 246.68 50.88 C270.93 38.09, 296.72 27.49, 322.75 19.69 C348.77 11.9, 375.81 7.24, 402.81 4.11 C429.82 0.99, 456.31 -0.76, 484.78 0.95 C513.24 2.66, 558.41 10.4, 573.62 14.39 C588.84 18.37, 578.17 17.46, 576.07 24.87 M263.76 44.17 C283.99 26.45, 315.05 23.76, 341.49 16.41 C367.93 9.07, 395.19 2.24, 422.41 0.08 C449.62 -2.07, 477.87 0.64, 504.79 3.49 C531.71 6.34, 558.06 9.87, 583.92 17.2 C609.79 24.53, 635.73 35.14, 659.99 47.48 C684.25 59.81, 707.3 74.9, 729.51 91.21 C751.71 107.52, 774.55 125.74, 793.21 145.36 C811.88 164.98, 826.98 185.91, 841.49 208.93 C855.99 231.95, 869.76 258.28, 880.22 283.46 C890.67 308.64, 898.08 333.8, 904.21 359.99 C910.35 386.17, 916 413.02, 917.03 440.56 C918.06 468.11, 914.4 498.07, 910.37 525.25 C906.35 552.42, 901.2 578.2, 892.89 603.62 C884.59 629.04, 873.79 653.74, 860.53 677.77 C847.27 701.81, 830.8 726.64, 813.32 747.85 C795.85 769.05, 776.38 787.49, 755.7 804.99 C735.02 822.5, 712.53 838.94, 689.25 852.89 C665.97 866.84, 641.85 879.26, 616.01 888.71 C590.17 898.16, 561.29 905.28, 534.2 909.61 C507.12 913.94, 480.42 914.88, 453.52 914.67 C426.62 914.46, 399.68 913.4, 372.83 908.36 C345.98 903.31, 318.1 894.09, 292.44 884.42 C266.78 874.75, 242.1 864.55, 218.85 850.35 C195.61 836.15, 173.14 817.6, 152.99 799.23 C132.84 780.87, 114.57 761.69, 97.95 740.17 C81.33 718.65, 66.32 694.27, 53.28 670.13 C40.25 645.98, 28.2 621.16, 19.75 595.3 C11.3 569.44, 5.65 541.88, 2.58 514.97 C-0.49 488.07, -0.43 461.03, 1.33 433.85 C3.09 406.67, 7.1 378.6, 13.13 351.9 C19.16 325.21, 26.91 298.81, 37.53 273.71 C48.15 248.6, 61.61 223.99, 76.86 201.27 C92.12 178.55, 110.03 156.85, 129.06 137.38 C148.1 117.92, 168.63 99.88, 191.06 84.47 C213.49 69.07, 251.06 50.61, 263.66 44.95 C276.25 39.28, 263.35 43.84, 266.65 50.49" stroke="#000000" stroke-width="4" fill="none"></path></g><g stroke-opacity="0.5" fill-opacity="0.5" stroke-linecap="round" transform="translate(95.0207977133116 91.31830858462081) rotate(0 380.01627604166663 380.01627604166663)"><path d="M536.57 34.42 C560.67 38.53, 581.68 57.36, 601.8 71.83 C621.91 86.29, 640.52 103.28, 657.28 121.23 C674.03 139.17, 689.17 158.72, 702.32 179.49 C715.47 200.25, 727.33 222.55, 736.16 245.8 C745 269.05, 751.36 294.65, 755.33 318.99 C759.29 343.33, 760.99 367.27, 759.95 391.84 C758.9 416.41, 754.57 442.32, 749.07 466.4 C743.57 490.49, 737.07 513.7, 726.95 536.34 C716.83 558.98, 703.05 581.98, 688.33 602.26 C673.62 622.53, 656.5 641.37, 638.67 657.99 C620.84 674.62, 602.14 689.06, 581.36 701.98 C560.57 714.9, 537.29 726.84, 513.96 735.51 C490.63 744.19, 465.7 750.05, 441.39 754.04 C417.07 758.02, 392.78 760.23, 368.08 759.43 C343.37 758.64, 317.4 754.67, 293.17 749.25 C268.95 743.83, 245.11 736.97, 222.71 726.94 C200.3 716.9, 178.93 703.63, 158.75 689.04 C138.57 674.45, 118.57 657.52, 101.61 639.39 C84.65 621.26, 69.9 601.41, 57 580.28 C44.11 559.14, 32.84 535.81, 24.26 512.58 C15.69 489.35, 9.58 465.05, 5.55 440.9 C1.51 416.75, -0.57 392.11, 0.07 367.69 C0.7 343.26, 3.78 318.41, 9.36 294.36 C14.94 270.31, 23.33 246.21, 33.54 223.39 C43.74 200.57, 56.06 177.76, 70.6 157.43 C85.13 137.11, 102.55 118.05, 120.74 101.44 C138.92 84.83, 158.64 70.63, 179.69 57.78 C200.75 44.94, 224.07 33.03, 247.09 24.37 C270.1 15.71, 293.59 9.95, 317.79 5.82 C342 1.7, 367.59 -0.95, 392.34 -0.36 C417.08 0.23, 441.03 2.94, 466.25 9.37 C491.48 15.8, 530.19 31.82, 543.7 38.22 C557.2 44.62, 549.78 42.26, 547.26 47.79 M259.37 18.28 C279.93 5.14, 308.75 6.22, 333.39 3.44 C358.03 0.65, 382.56 -0.25, 407.19 1.58 C431.83 3.41, 457.28 8.27, 481.21 14.44 C505.14 20.61, 528.63 27.52, 550.78 38.58 C572.93 49.65, 594.8 65.56, 614.12 80.85 C633.44 96.14, 650.86 111.83, 666.72 130.32 C682.58 148.81, 697.21 170.05, 709.28 191.78 C721.35 213.51, 730.99 237.21, 739.12 260.73 C747.25 284.25, 754.95 308.64, 758.07 332.89 C761.18 357.15, 759.86 381.47, 757.83 406.25 C755.79 431.02, 752.38 457.69, 745.84 481.54 C739.31 505.38, 729.34 527.66, 718.62 549.32 C707.91 570.98, 696.62 591.66, 681.55 611.49 C666.47 631.32, 646.93 651.9, 628.16 668.3 C609.4 684.7, 590.05 698.06, 568.95 709.89 C547.85 721.72, 525.13 731.28, 501.58 739.26 C478.02 747.25, 452.41 754.64, 427.63 757.8 C402.84 760.96, 377.47 760.18, 352.84 758.21 C328.21 756.24, 303.43 752.3, 279.84 745.98 C256.25 739.66, 233.66 731.21, 211.32 720.29 C188.99 709.37, 165.56 695.88, 145.81 680.45 C126.07 665.03, 108.69 646.35, 92.86 627.74 C77.02 609.13, 63.1 590.18, 50.78 568.8 C38.46 547.42, 26.98 522.74, 18.92 499.45 C10.86 476.17, 5.49 453.59, 2.41 429.08 C-0.67 404.57, -1.5 377.27, 0.45 352.39 C2.39 327.5, 7.39 303.66, 14.08 279.77 C20.77 255.89, 29.89 231.22, 40.58 209.09 C51.28 186.97, 63.38 166.39, 78.25 147.01 C93.11 127.62, 110.79 108.85, 129.79 92.78 C148.78 76.72, 170.47 62.83, 192.21 50.62 C213.94 38.42, 248.76 23.56, 260.22 19.53 C271.67 15.49, 259.24 20.53, 260.92 26.4" stroke="#1e1e1e" stroke-width="4" fill="none"></path></g><g stroke-linecap="round" transform="translate(188.39127958642484 189.92341104071943) rotate(0 283.955078125 283.955078125)"><path d="M346 6.14 C367.23 6.06, 389.13 18.51, 408.82 28.34 C428.52 38.18, 447.24 51.1, 464.19 65.16 C481.13 79.22, 497.28 95.5, 510.51 112.7 C523.74 129.9, 534.85 148.6, 543.57 168.35 C552.29 188.09, 558.95 209.68, 562.85 231.15 C566.75 252.63, 568.11 275.39, 566.98 297.19 C565.84 319, 562.05 340.87, 556.03 361.99 C550.01 383.11, 541.31 404.81, 530.85 423.91 C520.39 443, 508.19 460.51, 493.27 476.56 C478.35 492.61, 459.63 507.94, 441.33 520.21 C423.03 532.47, 403.75 542.51, 383.46 550.14 C363.18 557.78, 341.29 563.35, 319.6 566.02 C297.91 568.68, 275.1 568.69, 253.31 566.16 C231.52 563.62, 209.52 558.11, 188.86 550.82 C168.21 543.54, 147.54 534.12, 129.36 522.44 C111.18 510.76, 94.83 496.33, 79.8 480.76 C64.77 465.19, 50.2 447.97, 39.18 429 C28.16 410.04, 20.07 387.95, 13.66 366.96 C7.25 345.97, 2.27 324.65, 0.71 303.05 C-0.85 281.44, 0.89 258.91, 4.3 237.35 C7.71 215.79, 12.87 193.82, 21.18 173.68 C29.49 153.55, 40.95 134.3, 54.15 116.57 C67.35 98.84, 83.61 81.56, 100.39 67.3 C117.17 53.04, 135.46 40.77, 154.83 31 C174.2 21.23, 195.67 13.79, 216.61 8.68 C237.54 3.58, 257.7 0.38, 280.44 0.37 C303.18 0.37, 340.25 6.17, 353.04 8.66 C365.83 11.15, 358.34 10.65, 357.17 15.31 M200.23 11.19 C218.68 0.7, 243.65 2.21, 265.52 0.9 C287.4 -0.41, 309.83 -0.23, 331.49 3.34 C353.14 6.9, 375.46 13.77, 395.46 22.28 C415.47 30.79, 434.36 41.66, 451.51 54.4 C468.66 67.15, 484.12 81.86, 498.38 98.74 C512.64 115.63, 526.68 136.23, 537.06 155.72 C547.45 175.22, 555.71 194.65, 560.71 215.7 C565.71 236.75, 567.13 260.04, 567.09 282.04 C567.05 304.05, 564.99 326.5, 560.48 347.75 C555.98 369, 549.36 389.91, 540.04 409.53 C530.72 429.15, 518.6 448.54, 504.56 465.46 C490.52 482.37, 473.2 498.14, 455.8 511.03 C438.4 523.92, 419.97 534.07, 400.15 542.78 C380.33 551.5, 358.78 559.31, 336.88 563.33 C314.98 567.35, 290.69 568.08, 268.74 566.9 C246.78 565.72, 226.13 562.21, 205.14 556.27 C184.15 550.33, 162.02 541.71, 142.81 531.27 C123.6 520.82, 105.42 508.6, 89.88 493.6 C74.34 478.59, 61.66 459.8, 49.57 441.23 C37.49 422.66, 25.52 402.42, 17.38 382.19 C9.24 361.96, 3.42 341.1, 0.74 319.84 C-1.94 298.58, -1.35 276.22, 1.3 254.64 C3.96 233.06, 9.1 211.17, 16.69 190.37 C24.28 169.57, 35.14 148.54, 46.84 129.85 C58.54 111.15, 71.43 93.41, 86.88 78.2 C102.32 63, 120.82 49.55, 139.5 38.6 C158.19 27.65, 188.83 15.78, 198.98 12.51 C209.14 9.24, 198.71 14.29, 200.44 18.97" stroke="none" stroke-width="0" fill="#a5d8ff"></path><path d="M310.29 1.71 C331.41 -0.91, 353.75 8.74, 374.31 15.6 C394.87 22.46, 415.03 31.57, 433.67 42.89 C452.3 54.2, 470.62 67.88, 486.13 83.51 C501.64 99.14, 515.38 118.06, 526.71 136.65 C538.03 155.24, 547.53 174.43, 554.08 195.05 C560.63 215.68, 564.07 238.63, 565.99 260.4 C567.92 282.18, 568.81 303.99, 565.64 325.72 C562.46 347.44, 555.4 370.3, 546.94 390.74 C538.47 411.19, 527.24 430.83, 514.85 448.39 C502.47 465.95, 488.77 481.79, 472.61 496.11 C456.44 510.43, 437.31 524.04, 417.85 534.29 C398.4 544.54, 376.9 552.1, 355.86 557.63 C334.82 563.15, 313.43 566.89, 291.61 567.44 C269.78 568, 246.43 565.28, 224.91 560.97 C203.39 556.67, 182.12 550.75, 162.48 541.61 C142.84 532.47, 124.23 519.93, 107.07 506.12 C89.91 492.32, 73.05 476.05, 59.51 458.79 C45.98 441.52, 34.86 422.5, 25.88 402.53 C16.89 382.56, 9.8 360.48, 5.61 338.98 C1.41 317.49, -0.02 295.15, 0.69 273.57 C1.41 251.99, 4.35 230.3, 9.91 209.52 C15.47 188.74, 23.66 168.04, 34.06 148.89 C44.46 129.74, 57.74 111.18, 72.32 94.63 C86.9 78.07, 103.48 62.25, 121.55 49.58 C139.61 36.9, 160.25 26.24, 180.71 18.56 C201.17 10.87, 221.6 6.22, 244.29 3.46 C266.98 0.69, 304.09 1.05, 316.86 1.98 C329.63 2.91, 321.63 4.46, 320.91 9.04 M228.65 4.5 C248.25 -3.82, 271.73 0.39, 293.27 1.13 C314.81 1.87, 336.94 3.51, 357.91 8.93 C378.89 14.36, 399.9 23.34, 419.11 33.7 C438.33 44.06, 456.67 56.34, 473.2 71.09 C489.72 85.85, 505.68 103.97, 518.27 122.21 C530.86 140.46, 540.74 160.16, 548.72 180.57 C556.7 200.98, 562.97 223.42, 566.16 244.69 C569.35 265.96, 569.78 286.4, 567.85 308.17 C565.92 329.95, 561.72 354.48, 554.58 375.34 C547.44 396.19, 536.86 414.92, 525 433.29 C513.14 451.67, 499.07 469.92, 483.4 485.59 C467.73 501.25, 449.29 515.79, 430.97 527.27 C412.66 538.75, 394.24 547.95, 373.5 554.49 C352.77 561.03, 328.62 564.55, 306.56 566.51 C284.51 568.47, 262.78 569.46, 241.16 566.24 C219.55 563.01, 196.82 555.74, 176.88 547.16 C156.94 538.59, 139.29 527.07, 121.5 514.79 C103.72 502.51, 84.75 489.64, 70.18 473.49 C55.61 457.33, 44.01 437.51, 34.07 417.84 C24.13 398.17, 16.24 376.39, 10.54 355.44 C4.84 334.49, 0.71 313.91, -0.14 292.14 C-0.98 270.36, 0.99 246.4, 5.49 224.79 C9.99 203.19, 17.33 182.09, 26.86 162.52 C36.4 142.95, 49.37 124.36, 62.73 107.39 C76.1 90.43, 90.1 74.49, 107.06 60.71 C124.01 46.94, 144.28 33.86, 164.46 24.74 C184.64 15.62, 217.57 8.42, 228.14 6 C238.7 3.58, 227.12 5.44, 227.84 10.22" stroke="#1e1e1e" stroke-width="4" fill="none"></path></g><g stroke-linecap="round" transform="translate(437.05885088876653 451.10566414873256) rotate(0 27.258254716981014 27.258254716981014)"><path d="M18.84 1.97 C23.99 0.18, 31.74 0.24, 37.32 2.38 C42.9 4.53, 49.67 9.67, 52.3 14.84 C54.93 20, 54.67 27.66, 53.12 33.37 C51.57 39.07, 47.72 45.39, 42.99 49.05 C38.26 52.7, 30.43 55.55, 24.73 55.28 C19.02 55, 12.8 51.43, 8.78 47.41 C4.76 43.38, 1.2 36.84, 0.61 31.1 C0.01 25.36, 1.71 17.92, 5.21 12.95 C8.7 7.99, 18.04 3.4, 21.57 1.32 C25.11 -0.76, 26.24 0.26, 26.42 0.48 M30.42 0.8 C35.98 0.62, 41.2 3.19, 45.07 7.4 C48.93 11.61, 53.07 20.25, 53.61 26.06 C54.15 31.88, 51.29 37.94, 48.31 42.31 C45.33 46.67, 41.27 50.38, 35.7 52.25 C30.14 54.11, 20.34 55.71, 14.91 53.48 C9.48 51.26, 5.3 44.61, 3.14 38.91 C0.98 33.21, 0.61 24.8, 1.95 19.3 C3.29 13.79, 6.69 9.23, 11.17 5.88 C15.65 2.53, 25.81 0.17, 28.81 -0.81 C31.82 -1.79, 28.99 -0.66, 29.21 -0.02" stroke="none" stroke-width="0" fill="#e03131"></path><path d="M37.32 1.09 C42.78 2.86, 48.57 9.45, 51.38 14.5 C54.18 19.56, 55.47 25.81, 54.16 31.42 C52.85 37.03, 47.91 44.43, 43.51 48.14 C39.12 51.85, 33.54 53.63, 27.79 53.68 C22.05 53.74, 13.78 52.1, 9.06 48.48 C4.34 44.86, 0.19 37.99, -0.52 31.97 C-1.23 25.95, 1.61 17.48, 4.82 12.35 C8.03 7.23, 12.9 2.92, 18.73 1.22 C24.56 -0.48, 35.69 1.55, 39.79 2.17 C43.89 2.78, 43.54 4.49, 43.33 4.92 M25.69 -1.13 C30.93 -2.02, 38.3 1.32, 42.93 4.94 C47.57 8.55, 52.26 14.73, 53.5 20.55 C54.74 26.37, 53.05 34.63, 50.38 39.85 C47.71 45.07, 42.46 49.76, 37.49 51.87 C32.53 53.98, 25.81 54.19, 20.59 52.53 C15.38 50.87, 9.5 46.75, 6.22 41.91 C2.94 37.07, 0.83 29.11, 0.92 23.48 C1.02 17.85, 2.98 12.01, 6.79 8.13 C10.59 4.24, 20.49 1.26, 23.73 0.16 C26.97 -0.95, 25.92 1.25, 26.23 1.52" stroke="#1e1e1e" stroke-width="4" fill="none"></path></g><g transform="translate(530.8970701933322 482.8766199460763) rotate(0 77.31121826171875 39.954484546919616)"><text x="0" y="0" font-family="Virgil, Segoe UI Emoji" font-size="63.92717527507144px" fill="#1e1e1e" text-anchor="start" style="white-space: pre;" direction="ltr" dominant-baseline="text-before-edge">10 in.</text></g><g stroke-linecap="round"><g transform="translate(492.3763834671254 478.0696052347953) rotate(0 132.64910976896851 0)"><path d="M0 0 C98.1 0, 196.2 0, 265.3 0 M0 0 C82.8 0, 165.6 0, 265.3 0" stroke="#1e1e1e" stroke-width="4" fill="none"></path></g></g><mask></mask></svg>