<svg xmlns="http://www.w3.org/2000/svg" width="377.551" height="322.713"><defs><style>@font-face{font-family:&quot;Virgil&quot;;src:url(https://excalidraw.com/Virgil.woff2)}@font-face{font-family:&quot;Cascadia&quot;;src:url(https://excalidraw.com/Cascadia.woff2)}@font-face{font-family:&quot;Assistant&quot;;src:url(https://excalidraw.com/Assistant-Regular.woff2)}</style></defs><path fill="none" stroke="#1e1e1e" stroke-linecap="round" stroke-width="4" d="M191.78 9.79c8.82-.68 20.05 1.65 27.84 5.6 7.79 3.96 15.17 11.71 18.91 18.15 3.73 6.44 4.63 13.53 3.5 20.52-1.13 6.98-4.36 15.75-10.27 21.41-5.9 5.65-16.07 10.54-25.16 12.54-9.1 2.01-20.35 1.61-29.41-.5s-18.96-6.97-24.94-12.16-9.73-12.16-10.96-19-.05-15.28 3.58-22.06c3.62-6.78 9.93-14.62 18.16-18.61 8.23-3.98 25.18-4.42 31.22-5.31 6.05-.9 5.05-.71 5.05-.08m-24.14 1.56c7.87-3.12 18.83-2.81 27.69-1.19s19.11 5.92 25.47 10.89c6.35 4.97 10.94 11.71 12.68 18.91 1.75 7.21.78 17.5-2.22 24.33-3.01 6.83-8.73 12.51-15.8 16.67-7.06 4.16-17.27 8-26.58 8.29s-21.05-2.92-29.28-6.56c-8.24-3.65-15.51-9.46-20.15-15.3-4.63-5.84-8.18-12.5-7.66-19.74.53-7.25 4.85-17.9 10.81-23.74 5.96-5.83 21.14-9.44 24.94-11.25 3.8-1.82-2.42-.33-2.15.38"/><path fill="none" stroke="#1e1e1e" stroke-linecap="round" stroke-width="4" d="M157.992 52.812c5.03 2.16 20.45 11.28 30.71 11.28 10.26.01 25.8-9.27 30.85-11.24m-63.03-.56c4.77 1.9 20.6 10.43 30.95 10.19 10.36-.24 25.95-10.13 31.18-11.65M168.82 40.127c.96-.72 4.4-4.28 5.9-4.28s2.5 3.61 3.1 4.26m-8.43-.14c.9-.67 3.48-4.74 5.01-4.65s3.46 4.42 4.15 5.18M198 40.18c.95-.74 4.08-4.3 5.64-4.35 1.57-.04 3.23 3.31 3.76 4.08m-8.8.06c1.08-.71 4.27-3.71 5.72-3.69 1.45.03 2.58 3.25 2.98 3.84M173.976 109.842c-10.81 2.28-43.22 8.28-64.32 14.29s-52.09 18.28-62.29 21.75m128.39-37.08c-10.87 2.33-45.59 10.39-66.61 16.24-21.01 5.85-49.4 15.37-59.48 18.85M198.453 105.49c11.04 2.2 43.02 8.61 64.62 14.42 21.59 5.81 54.08 17.06 64.94 20.43m-130.58-32.86c11.47 1.86 46.12 4.99 67.75 10.66 21.64 5.67 51.47 19.58 62.04 23.38M188.096 121.173c-.57 12.96-1.45 46.59-1.44 75.92.01 29.34 1.39 83.45 1.49 100.1m1.56-176.72c-.81 13.25-3.66 48.39-4.03 78.02s1.56 83.22 1.79 99.76M173.46 312.075c-8.44-.27-42.93-.5-51.7-.64m50.21-.55c-8.48-.16-42.96 1.61-51.07 1.83M196.098 311.217c8.89-.17 44.3-.99 53.1-.83m-54.47-.47c9.28 0 47.37 1.57 56.78 1.65M328.603 139.775c1.71-1.98 8.78-9.8 10.68-11.79m-9.86 12.81c1.87-2.1 9.12-11.21 10.85-13.51M329.165 141.546c3.09-1.26 15.56-6.95 18.7-8.41m-17.95 8.2c3.07-1.39 14.65-7.64 17.63-8.97M329.723 142.174c3.33.3 16.19 1.65 19.26 1.92m-19.81-2.19c3.32.62 16.2 2.5 19.54 2.89"/><path fill="none" stroke="#1e1e1e" stroke-linecap="round" stroke-width="4" d="M330.235 141.85c1.87 1.43 9.16 7.33 11.12 8.95m-11.62-9.43c2.01 1.46 10.6 8.42 12.6 9.98M328.107 141.845c.59 2.52 3.75 12.93 4.37 15.4m-3.63-14.36c.51 2.38 2.6 11.26 3.28 13.64M48.668 145.541c-.752 2.686-4.584 13.143-5.434 15.686m4.815-15.645c-.52 2.69-2.876 13.198-3.64 15.812M47.188 144.676c-2.232 2.382-10.577 12.032-12.559 14.553m13.026-15.36c-2.18 2.689-11.052 13.447-13.182 15.981M46.31 143.285c-2.885 1-14.71 5.488-17.688 6.452m17.517-5.285c-2.93.877-15.077 3.84-18.016 4.7"/><path fill="none" stroke="#1e1e1e" stroke-linecap="round" stroke-width="4" d="M47.14 144.29c-2.365-.58-12.333-3.438-14.893-4.06m14.388 4.015c-2.346-.468-11.8-2.9-14.289-3.412M48.4 142.787c-1.689-2.01-8.261-9.541-9.908-11.438m9.298 11.067c-1.767-1.92-7.86-8.569-9.442-10.298"/><path fill="none" stroke="#e03131" stroke-linecap="round" d="M45.006 130.57c0 .34-.03.69-.09 1.02-.06.34-.15.68-.27 1-.11.32-.26.63-.43.93s-.37.58-.59.84-.47.51-.73.73-.54.42-.84.59-.61.32-.93.43c-.32.12-.66.21-1 .27a5.8 5.8 0 0 1-2.04 0c-.34-.06-.68-.15-1-.27-.32-.11-.63-.26-.93-.43s-.58-.37-.84-.59a6.3 6.3 0 0 1-.73-.73c-.22-.26-.42-.54-.59-.84s-.32-.61-.43-.93c-.12-.32-.21-.66-.27-1a5.8 5.8 0 0 1 0-2.04c.06-.34.15-.68.27-1 .11-.32.26-.63.43-.93s.37-.58.59-.84.47-.51.73-.73.54-.42.84-.59.61-.32.93-.43c.32-.12.66-.21 1-.27a5.8 5.8 0 0 1 2.04 0c.34.06.68.15 1 .27.32.11.63.26.93.43s.58.37.84.59.51.47.73.73.42.54.59.84.32.61.43.93c.12.32.21.66.27 1 .06.33.08.85.09 1.02.02.17.02-.17 0 0"/><path fill="none" stroke="#e03131" stroke-linecap="round" d="M37.286 138.978c0 .34-.03.69-.09 1.02-.06.34-.15.68-.27 1-.11.32-.26.63-.43.93s-.37.58-.59.84-.47.51-.73.73-.54.42-.84.59-.61.32-.93.43c-.32.12-.66.21-1 .27a5.8 5.8 0 0 1-2.04 0c-.34-.06-.68-.15-1-.27-.32-.11-.63-.26-.93-.43s-.58-.37-.84-.59a6.3 6.3 0 0 1-.73-.73c-.22-.26-.42-.54-.59-.84s-.32-.61-.43-.93c-.12-.32-.21-.66-.27-1a5.8 5.8 0 0 1 0-2.04c.06-.34.15-.68.27-1 .11-.32.26-.63.43-.93s.37-.58.59-.84.47-.51.73-.73.54-.42.84-.59.61-.32.93-.43c.32-.12.66-.21 1-.27a5.8 5.8 0 0 1 2.04 0c.34.06.68.15 1 .27.32.11.63.26.93.43s.58.37.84.59.51.47.73.73.42.54.59.84.32.61.43.93c.12.32.21.66.27 1 .06.33.08.85.09 1.02.02.17.02-.17 0 0M32.638 149.921c0 .34-.03.69-.09 1.02-.06.34-.15.68-.27 1-.11.32-.26.63-.43.93s-.37.58-.59.84-.47.51-.73.73-.54.42-.84.59-.61.32-.93.43c-.32.12-.66.21-1 .27a5.8 5.8 0 0 1-2.04 0c-.34-.06-.68-.15-1-.27-.32-.11-.63-.26-.93-.43s-.58-.37-.84-.59a6.3 6.3 0 0 1-.73-.73c-.22-.26-.42-.54-.59-.84s-.32-.61-.43-.93c-.12-.32-.21-.66-.27-1a5.8 5.8 0 0 1 0-2.04c.06-.34.15-.68.27-1 .11-.32.26-.63.43-.93s.37-.58.59-.84.47-.51.73-.73.54-.42.84-.59.61-.32.93-.43c.32-.12.66-.21 1-.27a5.8 5.8 0 0 1 2.04 0c.34.06.68.15 1 .27.32.11.63.26.93.43s.58.37.84.59.51.47.73.73.42.54.59.84.32.61.43.93c.12.32.21.66.27 1 .06.33.08.85.09 1.02.02.17.02-.17 0 0M38.68 160.55c0 .34-.03.69-.09 1.02-.06.34-.15.68-.27 1-.11.32-.26.63-.43.93s-.37.58-.59.84-.47.51-.73.73-.54.42-.84.59-.61.32-.93.43c-.32.12-.66.21-1 .27a5.8 5.8 0 0 1-2.04 0c-.34-.06-.68-.15-1-.27-.32-.11-.63-.26-.93-.43s-.58-.37-.84-.59a6.3 6.3 0 0 1-.73-.73c-.22-.26-.42-.54-.59-.84s-.32-.61-.43-.93c-.12-.32-.21-.66-.27-1a5.8 5.8 0 0 1 0-2.04c.06-.34.15-.68.27-1 .11-.32.26-.63.43-.93s.37-.58.59-.84.47-.51.73-.73.54-.42.84-.59.61-.32.93-.43c.32-.12.66-.21 1-.27a5.8 5.8 0 0 1 2.04 0c.34.06.68.15 1 .27.32.11.63.26.93.43s.58.37.84.59.51.47.73.73.42.54.59.84.32.61.43.93c.12.32.21.66.27 1 .06.33.08.85.09 1.02.02.17.02-.17 0 0M49.957 164.53c0 .34-.03.69-.09 1.02-.06.34-.15.68-.27 1-.11.32-.26.63-.43.93s-.37.58-.59.84-.47.51-.73.73-.54.42-.84.59-.61.32-.93.43c-.32.12-.66.21-1 .27a5.8 5.8 0 0 1-2.04 0c-.34-.06-.68-.15-1-.27-.32-.11-.63-.26-.93-.43s-.58-.37-.84-.59a6.3 6.3 0 0 1-.73-.73c-.22-.26-.42-.54-.59-.84s-.32-.61-.43-.93c-.12-.32-.21-.66-.27-1a5.8 5.8 0 0 1 0-2.04c.06-.34.15-.68.27-1 .11-.32.26-.63.43-.93s.37-.58.59-.84.47-.51.73-.73.54-.42.84-.59.61-.32.93-.43c.32-.12.66-.21 1-.27a5.8 5.8 0 0 1 2.04 0c.34.06.68.15 1 .27.32.11.63.26.93.43s.58.37.84.59.51.47.73.73.42.54.59.84.32.61.43.93c.12.32.21.66.27 1 .06.33.08.85.09 1.02.02.17.02-.17 0 0M337.776 157.709c0 .34-.03.69-.09 1.02-.06.34-.15.68-.27 1-.11.32-.26.63-.43.93s-.37.58-.59.84-.47.51-.73.73-.54.42-.84.59-.61.32-.93.43c-.32.12-.66.21-1 .27a5.8 5.8 0 0 1-2.04 0c-.34-.06-.68-.15-1-.27-.32-.11-.63-.26-.93-.43s-.58-.37-.84-.59a6.3 6.3 0 0 1-.73-.73c-.22-.26-.42-.54-.59-.84s-.32-.61-.43-.93c-.12-.32-.21-.66-.27-1a5.8 5.8 0 0 1 0-2.04c.06-.34.15-.68.27-1 .11-.32.26-.63.43-.93s.37-.58.59-.84.47-.51.73-.73.54-.42.84-.59.61-.32.93-.43c.32-.12.66-.21 1-.27a5.8 5.8 0 0 1 2.04 0c.34.06.68.15 1 .27.32.11.63.26.93.43s.58.37.84.59.51.47.73.73.42.54.59.84.32.61.43.93c.12.32.21.66.27 1 .06.33.08.85.09 1.02.02.17.02-.17 0 0M349.294 153.413c0 .34-.03.69-.09 1.02-.06.34-.15.68-.27 1-.11.32-.26.63-.43.93s-.37.58-.59.84-.47.51-.73.73-.54.42-.84.59-.61.32-.93.43c-.32.12-.66.21-1 .27a5.8 5.8 0 0 1-2.04 0c-.34-.06-.68-.15-1-.27-.32-.11-.63-.26-.93-.43s-.58-.37-.84-.59a6.3 6.3 0 0 1-.73-.73c-.22-.26-.42-.54-.59-.84s-.32-.61-.43-.93c-.12-.32-.21-.66-.27-1a5.8 5.8 0 0 1 0-2.04c.06-.34.15-.68.27-1 .11-.32.26-.63.43-.93s.37-.58.59-.84.47-.51.73-.73.54-.42.84-.59.61-.32.93-.43c.32-.12.66-.21 1-.27a5.8 5.8 0 0 1 2.04 0c.34.06.68.15 1 .27.32.11.63.26.93.43s.58.37.84.59.51.47.73.73.42.54.59.84.32.61.43.93c.12.32.21.66.27 1 .06.33.08.85.09 1.02.02.17.02-.17 0 0M357.266 143.08c0 .34-.03.69-.09 1.02-.06.34-.15.68-.27 1-.11.32-.26.63-.43.93s-.37.58-.59.84-.47.51-.73.73-.54.42-.84.59-.61.32-.93.43c-.32.12-.66.21-1 .27a5.8 5.8 0 0 1-2.04 0c-.34-.06-.68-.15-1-.27-.32-.11-.63-.26-.93-.43s-.58-.37-.84-.59a6.3 6.3 0 0 1-.73-.73c-.22-.26-.42-.54-.59-.84s-.32-.61-.43-.93c-.12-.32-.21-.66-.27-1a5.8 5.8 0 0 1 0-2.04c.06-.34.15-.68.27-1 .11-.32.26-.63.43-.93s.37-.58.59-.84.47-.51.73-.73.54-.42.84-.59.61-.32.93-.43c.32-.12.66-.21 1-.27a5.8 5.8 0 0 1 2.04 0c.34.06.68.15 1 .27.32.11.63.26.93.43s.58.37.84.59.51.47.73.73.42.54.59.84.32.61.43.93c.12.32.21.66.27 1 .06.33.08.85.09 1.02.02.17.02-.17 0 0M356.388 130.564c0 .34-.03.69-.09 1.02-.06.34-.15.68-.27 1-.11.32-.26.63-.43.93s-.37.58-.59.84-.47.51-.73.73-.54.42-.84.59-.61.32-.93.43c-.32.12-.66.21-1 .27a5.8 5.8 0 0 1-2.04 0c-.34-.06-.68-.15-1-.27-.32-.11-.63-.26-.93-.43s-.58-.37-.84-.59a6.3 6.3 0 0 1-.73-.73c-.22-.26-.42-.54-.59-.84s-.32-.61-.43-.93c-.12-.32-.21-.66-.27-1a5.8 5.8 0 0 1 0-2.04c.06-.34.15-.68.27-1 .11-.32.26-.63.43-.93s.37-.58.59-.84.47-.51.73-.73.54-.42.84-.59.61-.32.93-.43c.32-.12.66-.21 1-.27a5.8 5.8 0 0 1 2.04 0c.34.06.68.15 1 .27.32.11.63.26.93.43s.58.37.84.59.51.47.73.73.42.54.59.84.32.61.43.93c.12.32.21.66.27 1 .06.33.08.85.09 1.02.02.17.02-.17 0 0M345.758 123.679c0 .34-.03.69-.09 1.02-.06.34-.15.68-.27 1-.11.32-.26.63-.43.93s-.37.58-.59.84-.47.51-.73.73-.54.42-.84.59-.61.32-.93.43c-.32.12-.66.21-1 .27a5.8 5.8 0 0 1-2.04 0c-.34-.06-.68-.15-1-.27-.32-.11-.63-.26-.93-.43s-.58-.37-.84-.59a6.3 6.3 0 0 1-.73-.73c-.22-.26-.42-.54-.59-.84s-.32-.61-.43-.93c-.12-.32-.21-.66-.27-1a5.8 5.8 0 0 1 0-2.04c.06-.34.15-.68.27-1 .11-.32.26-.63.43-.93s.37-.58.59-.84.47-.51.73-.73.54-.42.84-.59.61-.32.93-.43c.32-.12.66-.21 1-.27a5.8 5.8 0 0 1 2.04 0c.34.06.68.15 1 .27.32.11.63.26.93.43s.58.37.84.59.51.47.73.73.42.54.59.84.32.61.43.93c.12.32.21.66.27 1 .06.33.08.85.09 1.02.02.17.02-.17 0 0"/><text y="14.72" fill="#e03131" dominant-baseline="alphabetic" font-family="Helvetica, Segoe UI Emoji" font-size="16" style="white-space:pre" transform="translate(33.267 107.145)">1</text><text y="14.72" fill="#e03131" dominant-baseline="alphabetic" font-family="Helvetica, Segoe UI Emoji" font-size="16" style="white-space:pre" transform="translate(19.334 116.047)">2</text><text y="14.72" fill="#e03131" dominant-baseline="alphabetic" font-family="Helvetica, Segoe UI Emoji" font-size="16" style="white-space:pre" transform="translate(10 135.973)">3</text><text y="14.72" fill="#e03131" dominant-baseline="alphabetic" font-family="Helvetica, Segoe UI Emoji" font-size="16" style="white-space:pre" transform="translate(15.988 158.219)">4</text><text y="14.72" fill="#e03131" dominant-baseline="alphabetic" font-family="Helvetica, Segoe UI Emoji" font-size="16" style="white-space:pre" transform="translate(35.268 170.31)">5</text><text y="14.72" fill="#e03131" dominant-baseline="alphabetic" font-family="Helvetica, Segoe UI Emoji" font-size="16" style="white-space:pre" transform="translate(341.383 102.783)">6</text><text y="14.72" fill="#e03131" dominant-baseline="alphabetic" font-family="Helvetica, Segoe UI Emoji" font-size="16" style="white-space:pre" transform="translate(356.915 116.741)">7</text><text y="14.72" fill="#e03131" dominant-baseline="alphabetic" font-family="Helvetica, Segoe UI Emoji" font-size="16" style="white-space:pre" transform="translate(358.652 137.428)">8</text><text y="14.72" fill="#e03131" dominant-baseline="alphabetic" font-family="Helvetica, Segoe UI Emoji" font-size="16" style="white-space:pre" transform="translate(347.613 155.376)">9</text><text y="14.72" fill="#e03131" dominant-baseline="alphabetic" font-family="Helvetica, Segoe UI Emoji" font-size="16" style="white-space:pre" transform="translate(324.039 163.973)">10</text></svg>