<svg xmlns="http://www.w3.org/2000/svg" width="536.644" height="398.371"><g fill-opacity=".6" stroke-linecap="round" stroke-opacity=".6"><path fill="#a5d8ff" d="M42 10h452.64c21.34 0 32 10.67 32 32v314.37c0 21.33-10.66 32-32 32H42c-21.33 0-32-10.67-32-32V42c0-21.33 10.67-32 32-32"/><path fill="none" stroke="#c9e8ff" stroke-width="2" d="M42 10h452.64M42 10h452.64m0 0c21.34 0 32 10.67 32 32m-32-32c21.34 0 32 10.67 32 32m0 0v314.37m0-314.37v314.37m0 0c0 21.33-10.66 32-32 32m32-32c0 21.33-10.66 32-32 32m0 0H42m452.64 0H42m0 0c-21.33 0-32-10.67-32-32m32 32c-21.33 0-32-10.67-32-32m0 0V42m0 314.37V42m0 0c0-21.33 10.67-32 32-32M10 42c0-21.33 10.67-32 32-32"/></g><text x="36.026" fill="#1e1e1e" dominant-baseline="text-before-edge" font-family="Helvetica, Segoe UI Emoji" font-size="36" style="white-space:pre" text-anchor="middle" transform="translate(232.296 178.486)">Blue</text></svg>