<svg version="1.1" xmlns="http://www.w3.org/2000/svg" viewBox="0 0 536.6442943639913 398.37126844697286" width="536.6442943639913" height="398.37126844697286">
  <!-- svg-source:excalidraw -->
  
  <g stroke-opacity="0.6" fill-opacity="0.6" stroke-linecap="round" transform="translate(10 10) rotate(0 258.32214718199566 189.18563422348643)"><path d="M32 0 C197.13 0, 362.26 0, 484.64 0 C505.98 0, 516.64 10.67, 516.64 32 C516.64 135.83, 516.64 239.67, 516.64 346.37 C516.64 367.7, 505.98 378.37, 484.64 378.37 C387.72 378.37, 290.79 378.37, 32 378.37 C10.67 378.37, 0 367.7, 0 346.37 C0 263.05, 0 179.72, 0 32 C0 10.67, 10.67 0, 32 0" stroke="none" stroke-width="0" fill="#b2f2bb"></path><path d="M32 0 C210.47 0, 388.94 0, 484.64 0 M32 0 C188.72 0, 345.43 0, 484.64 0 M484.64 0 C505.98 0, 516.64 10.67, 516.64 32 M484.64 0 C505.98 0, 516.64 10.67, 516.64 32 M516.64 32 C516.64 109.64, 516.64 187.28, 516.64 346.37 M516.64 32 C516.64 135.3, 516.64 238.59, 516.64 346.37 M516.64 346.37 C516.64 367.7, 505.98 378.37, 484.64 378.37 M516.64 346.37 C516.64 367.7, 505.98 378.37, 484.64 378.37 M484.64 378.37 C373.87 378.37, 263.1 378.37, 32 378.37 M484.64 378.37 C313.72 378.37, 142.8 378.37, 32 378.37 M32 378.37 C10.67 378.37, 0 367.7, 0 346.37 M32 378.37 C10.67 378.37, 0 367.7, 0 346.37 M0 346.37 C0 277.67, 0 208.97, 0 32 M0 346.37 C0 226.66, 0 106.96, 0 32 M0 32 C0 10.67, 10.67 0, 32 0 M0 32 C0 10.67, 10.67 0, 32 0" stroke="#d1f7d6" stroke-width="2" fill="none"></path></g><g transform="translate(218.29480343199566 178.4856342234866) rotate(0 50.02734375 20.700000000000045)"><text x="50.02734375" y="0" font-family="Helvetica, Segoe UI Emoji" font-size="36px" fill="#1e1e1e" text-anchor="middle" style="white-space: pre;" direction="ltr" dominant-baseline="text-before-edge">Green</text></g></svg>