<svg xmlns="http://www.w3.org/2000/svg" width="1246.277" height="578.03"><defs><style>@font-face{font-family:&quot;Virgil&quot;;src:url(https://excalidraw.com/Virgil.woff2)}@font-face{font-family:&quot;Cascadia&quot;;src:url(https://excalidraw.com/Cascadia.woff2)}@font-face{font-family:&quot;Assistant&quot;;src:url(https://excalidraw.com/Assistant-Regular.woff2)}</style></defs><g stroke-linecap="round"><path stroke-width="0" d="M922.429 352.32c0 3.08-.15 6.17-.45 9.24-.31 3.07-.76 6.14-1.36 9.16s-1.36 6.03-2.25 8.98c-.9 2.95-1.94 5.87-3.12 8.72a95 95 0 0 1-3.96 8.37 94 94 0 0 1-4.76 7.94 95 95 0 0 1-5.52 7.44 94 94 0 0 1-6.21 6.86 94 94 0 0 1-6.86 6.21 95 95 0 0 1-7.44 5.52 94 94 0 0 1-7.94 4.76 95 95 0 0 1-8.37 3.96 96 96 0 0 1-8.72 3.12c-2.95.89-5.96 1.65-8.98 2.25s-6.09 1.05-9.16 1.36a95 95 0 0 1-18.49 0c-3.07-.31-6.14-.76-9.16-1.36s-6.03-1.36-8.98-2.25c-2.95-.9-5.87-1.94-8.72-3.12a95 95 0 0 1-8.37-3.96 94 94 0 0 1-7.94-4.76 95 95 0 0 1-7.44-5.52 94 94 0 0 1-6.86-6.21 94 94 0 0 1-6.21-6.86 95 95 0 0 1-5.52-7.44 94 94 0 0 1-4.76-7.94 95 95 0 0 1-3.96-8.37 96 96 0 0 1-3.12-8.72c-.89-2.95-1.65-5.96-2.25-8.98s-1.05-6.09-1.36-9.16a95 95 0 0 1 0-18.49c.31-3.07.76-6.14 1.36-9.16s1.36-6.03 2.25-8.98c.9-2.95 1.94-5.87 3.12-8.72a95 95 0 0 1 3.96-8.37c1.45-2.72 3.05-5.38 4.76-7.94s3.56-5.05 5.52-7.44c1.95-2.38 4.03-4.68 6.21-6.86s4.48-4.26 6.86-6.21c2.39-1.96 4.88-3.81 7.44-5.52s5.22-3.31 7.94-4.76a95 95 0 0 1 8.37-3.96c2.85-1.18 5.77-2.22 8.72-3.12 2.95-.89 5.96-1.65 8.98-2.25s6.09-1.05 9.16-1.36a95 95 0 0 1 18.49 0c3.07.31 6.14.76 9.16 1.36s6.03 1.36 8.98 2.25c2.95.9 5.87 1.94 8.72 3.12a95 95 0 0 1 8.37 3.96c2.72 1.45 5.38 3.05 7.94 4.76s5.05 3.56 7.44 5.52c2.38 1.95 4.68 4.03 6.86 6.21s4.26 4.48 6.21 6.86c1.96 2.39 3.81 4.88 5.52 7.44s3.31 5.22 4.76 7.94a95 95 0 0 1 3.96 8.37c1.18 2.85 2.22 5.77 3.12 8.72.89 2.95 1.65 5.96 2.25 8.98s1.05 6.09 1.36 9.16c.3 3.07.37 7.7.45 9.25.08 1.54.08-1.55 0 0"/><path fill="none" stroke="transparent" stroke-width="4" d="M922.429 352.32c0 3.08-.15 6.17-.45 9.24-.31 3.07-.76 6.14-1.36 9.16s-1.36 6.03-2.25 8.98c-.9 2.95-1.94 5.87-3.12 8.72a95 95 0 0 1-3.96 8.37 94 94 0 0 1-4.76 7.94 95 95 0 0 1-5.52 7.44 94 94 0 0 1-6.21 6.86 94 94 0 0 1-6.86 6.21 95 95 0 0 1-7.44 5.52 94 94 0 0 1-7.94 4.76 95 95 0 0 1-8.37 3.96 96 96 0 0 1-8.72 3.12c-2.95.89-5.96 1.65-8.98 2.25s-6.09 1.05-9.16 1.36a95 95 0 0 1-18.49 0c-3.07-.31-6.14-.76-9.16-1.36s-6.03-1.36-8.98-2.25c-2.95-.9-5.87-1.94-8.72-3.12a95 95 0 0 1-8.37-3.96 94 94 0 0 1-7.94-4.76 95 95 0 0 1-7.44-5.52 94 94 0 0 1-6.86-6.21 94 94 0 0 1-6.21-6.86 95 95 0 0 1-5.52-7.44 94 94 0 0 1-4.76-7.94 95 95 0 0 1-3.96-8.37 96 96 0 0 1-3.12-8.72c-.89-2.95-1.65-5.96-2.25-8.98s-1.05-6.09-1.36-9.16a95 95 0 0 1 0-18.49c.31-3.07.76-6.14 1.36-9.16s1.36-6.03 2.25-8.98c.9-2.95 1.94-5.87 3.12-8.72a95 95 0 0 1 3.96-8.37c1.45-2.72 3.05-5.38 4.76-7.94s3.56-5.05 5.52-7.44c1.95-2.38 4.03-4.68 6.21-6.86s4.48-4.26 6.86-6.21c2.39-1.96 4.88-3.81 7.44-5.52s5.22-3.31 7.94-4.76a95 95 0 0 1 8.37-3.96c2.85-1.18 5.77-2.22 8.72-3.12 2.95-.89 5.96-1.65 8.98-2.25s6.09-1.05 9.16-1.36a95 95 0 0 1 18.49 0c3.07.31 6.14.76 9.16 1.36s6.03 1.36 8.98 2.25c2.95.9 5.87 1.94 8.72 3.12a95 95 0 0 1 8.37 3.96c2.72 1.45 5.38 3.05 7.94 4.76s5.05 3.56 7.44 5.52c2.38 1.95 4.68 4.03 6.86 6.21s4.26 4.48 6.21 6.86c1.96 2.39 3.81 4.88 5.52 7.44s3.31 5.22 4.76 7.94a95 95 0 0 1 3.96 8.37c1.18 2.85 2.22 5.77 3.12 8.72.89 2.95 1.65 5.96 2.25 8.98s1.05 6.09 1.36 9.16c.3 3.07.37 7.7.45 9.25.08 1.54.08-1.55 0 0"/></g><g stroke-linecap="round"><path stroke-width="0" d="M766.436 306.325h122.57c21.34 0 32 10.67 32 32v132.22c0 21.33-10.66 32-32 32h-122.57c-21.33 0-32-10.67-32-32v-132.22c0-21.33 10.67-32 32-32"/><path fill="none" stroke="transparent" stroke-width="4" d="M766.436 306.325h122.57m-122.57 0h122.57m0 0c21.34 0 32 10.67 32 32m-32-32c21.34 0 32 10.67 32 32m0 0v132.22m0-132.22v132.22m0 0c0 21.33-10.66 32-32 32m32-32c0 21.33-10.66 32-32 32m0 0h-122.57m122.57 0h-122.57m0 0c-21.33 0-32-10.67-32-32m32 32c-21.33 0-32-10.67-32-32m0 0v-132.22m0 132.22v-132.22m0 0c0-21.33 10.67-32 32-32m-32 32c0-21.33 10.67-32 32-32"/></g><g stroke-linecap="round"><path stroke-width="0" d="M922.005 459.808c0 3.08-.15 6.17-.45 9.24s-.75 6.14-1.35 9.16-1.35 6.03-2.24 8.98a93 93 0 0 1-3.1 8.72 92 92 0 0 1-3.93 8.37 93 93 0 0 1-4.73 7.94c-1.7 2.56-3.53 5.05-5.48 7.44a96 96 0 0 1-6.17 6.86 93 93 0 0 1-6.82 6.21 92 92 0 0 1-7.39 5.52 93 93 0 0 1-7.89 4.76c-2.7 1.45-5.48 2.78-8.31 3.96a95 95 0 0 1-8.66 3.12 95 95 0 0 1-8.92 2.25c-3.01.6-6.06 1.05-9.1 1.36a94 94 0 0 1-18.38 0c-3.05-.31-6.09-.76-9.1-1.36-3-.6-5.99-1.36-8.92-2.25-2.93-.9-5.83-1.94-8.66-3.12a94 94 0 0 1-8.31-3.96c-2.7-1.45-5.35-3.05-7.89-4.76a92 92 0 0 1-7.39-5.52 93 93 0 0 1-6.82-6.21 96 96 0 0 1-6.17-6.86 94 94 0 0 1-5.48-7.44 91 91 0 0 1-4.73-7.94 95 95 0 0 1-3.94-8.37 93 93 0 0 1-3.09-8.72c-.89-2.95-1.64-5.96-2.24-8.98s-1.05-6.09-1.35-9.16a95.1 95.1 0 0 1 1.35-27.65c.6-3.02 1.35-6.03 2.24-8.98.88-2.95 1.92-5.87 3.09-8.72 1.18-2.85 2.49-5.65 3.94-8.37 1.44-2.72 3.02-5.38 4.73-7.94 1.7-2.56 3.53-5.05 5.48-7.44 1.94-2.38 4.01-4.68 6.17-6.86 2.17-2.18 4.45-4.26 6.82-6.21 2.37-1.96 4.84-3.81 7.39-5.52 2.54-1.71 5.19-3.31 7.89-4.76s5.48-2.78 8.31-3.96 5.73-2.22 8.66-3.12a95 95 0 0 1 8.92-2.25c3.01-.6 6.05-1.05 9.1-1.36a94 94 0 0 1 18.38 0c3.04.31 6.09.76 9.1 1.36 3 .6 5.99 1.36 8.92 2.25 2.93.9 5.83 1.94 8.66 3.12s5.61 2.51 8.31 3.96 5.35 3.05 7.89 4.76c2.55 1.71 5.02 3.56 7.39 5.52 2.37 1.95 4.65 4.03 6.82 6.21 2.16 2.18 4.23 4.48 6.17 6.86 1.95 2.39 3.78 4.88 5.48 7.44a93 93 0 0 1 4.73 7.94c1.45 2.72 2.76 5.52 3.93 8.37a93 93 0 0 1 3.1 8.72c.89 2.95 1.64 5.96 2.24 8.98s1.05 6.09 1.35 9.16.37 7.7.45 9.25c.07 1.54.07-1.55 0 0"/><path fill="none" stroke="transparent" stroke-width="4" d="M922.005 459.808c0 3.08-.15 6.17-.45 9.24s-.75 6.14-1.35 9.16-1.35 6.03-2.24 8.98a93 93 0 0 1-3.1 8.72 92 92 0 0 1-3.93 8.37 93 93 0 0 1-4.73 7.94c-1.7 2.56-3.53 5.05-5.48 7.44a96 96 0 0 1-6.17 6.86 93 93 0 0 1-6.82 6.21 92 92 0 0 1-7.39 5.52 93 93 0 0 1-7.89 4.76c-2.7 1.45-5.48 2.78-8.31 3.96a95 95 0 0 1-8.66 3.12 95 95 0 0 1-8.92 2.25c-3.01.6-6.06 1.05-9.1 1.36a94 94 0 0 1-18.38 0c-3.05-.31-6.09-.76-9.1-1.36-3-.6-5.99-1.36-8.92-2.25-2.93-.9-5.83-1.94-8.66-3.12a94 94 0 0 1-8.31-3.96c-2.7-1.45-5.35-3.05-7.89-4.76a92 92 0 0 1-7.39-5.52 93 93 0 0 1-6.82-6.21 96 96 0 0 1-6.17-6.86 94 94 0 0 1-5.48-7.44 91 91 0 0 1-4.73-7.94 95 95 0 0 1-3.94-8.37 93 93 0 0 1-3.09-8.72c-.89-2.95-1.64-5.96-2.24-8.98s-1.05-6.09-1.35-9.16a95.1 95.1 0 0 1 1.35-27.65c.6-3.02 1.35-6.03 2.24-8.98.88-2.95 1.92-5.87 3.09-8.72 1.18-2.85 2.49-5.65 3.94-8.37 1.44-2.72 3.02-5.38 4.73-7.94 1.7-2.56 3.53-5.05 5.48-7.44 1.94-2.38 4.01-4.68 6.17-6.86 2.17-2.18 4.45-4.26 6.82-6.21 2.37-1.96 4.84-3.81 7.39-5.52 2.54-1.71 5.19-3.31 7.89-4.76s5.48-2.78 8.31-3.96 5.73-2.22 8.66-3.12a95 95 0 0 1 8.92-2.25c3.01-.6 6.05-1.05 9.1-1.36a94 94 0 0 1 18.38 0c3.04.31 6.09.76 9.1 1.36 3 .6 5.99 1.36 8.92 2.25 2.93.9 5.83 1.94 8.66 3.12s5.61 2.51 8.31 3.96 5.35 3.05 7.89 4.76c2.55 1.71 5.02 3.56 7.39 5.52 2.37 1.95 4.65 4.03 6.82 6.21 2.16 2.18 4.23 4.48 6.17 6.86 1.95 2.39 3.78 4.88 5.48 7.44a93 93 0 0 1 4.73 7.94c1.45 2.72 2.76 5.52 3.93 8.37a93 93 0 0 1 3.1 8.72c.89 2.95 1.64 5.96 2.24 8.98s1.05 6.09 1.35 9.16.37 7.7.45 9.25c.07 1.54.07-1.55 0 0"/></g><g stroke-linecap="round"><path fill="#fff" stroke-width="0" d="M901.879 356.416c0 2.94-.14 5.9-.41 8.83-.28 2.92-.69 5.85-1.23 8.73-.55 2.88-1.23 5.74-2.05 8.54-.81 2.8-1.75 5.56-2.82 8.25a90 90 0 0 1-3.58 7.88 86 86 0 0 1-4.3 7.41 81.231 81.231 0 0 1-10.54 13.12c-1.95 1.97-4 3.84-6.13 5.57a75 75 0 0 1-6.61 4.81 71 71 0 0 1-7.03 4.01c-2.4 1.2-4.86 2.26-7.36 3.17s-5.05 1.68-7.62 2.29-5.18 1.08-7.79 1.38c-2.61.31-5.25.47-7.87.47-2.63 0-5.27-.16-7.88-.47-2.61-.3-5.22-.77-7.79-1.38s-5.12-1.38-7.62-2.29a72.193 72.193 0 0 1-14.39-7.18 75 75 0 0 1-6.61-4.81c-2.13-1.73-4.18-3.6-6.13-5.57a81 81 0 0 1-5.58-6.25 85 85 0 0 1-4.96-6.87 89 89 0 0 1-4.3-7.41 90 90 0 0 1-3.58-7.88 93 93 0 0 1-2.82-8.25c-.81-2.8-1.5-5.66-2.04-8.54-.55-2.88-.96-5.81-1.24-8.73-.27-2.93-.41-5.89-.41-8.83s.14-5.9.41-8.83c.28-2.93.69-5.85 1.24-8.73.54-2.88 1.23-5.74 2.04-8.54s1.76-5.57 2.82-8.25c1.07-2.69 2.27-5.33 3.58-7.88 1.32-2.55 2.76-5.03 4.3-7.42 1.54-2.38 3.21-4.68 4.96-6.87a83 83 0 0 1 5.58-6.25c1.95-1.97 4-3.83 6.13-5.56 2.12-1.73 4.34-3.34 6.61-4.81a72 72 0 0 1 7.03-4.02c2.4-1.2 4.87-2.26 7.36-3.17 2.5-.91 5.05-1.67 7.62-2.28 2.57-.62 5.18-1.08 7.79-1.39 2.61-.3 5.25-.46 7.88-.46 2.62 0 5.26.16 7.87.46 2.61.31 5.22.77 7.79 1.39 2.57.61 5.12 1.37 7.62 2.28s4.96 1.97 7.36 3.17 4.76 2.54 7.03 4.02c2.27 1.47 4.49 3.08 6.61 4.81 2.13 1.73 4.18 3.59 6.13 5.56a83 83 0 0 1 5.58 6.25c1.76 2.19 3.42 4.49 4.96 6.87a88 88 0 0 1 4.3 7.42c1.31 2.55 2.51 5.19 3.58 7.88a89 89 0 0 1 2.82 8.25c.82 2.8 1.5 5.66 2.05 8.54.54 2.88.95 5.8 1.23 8.73.27 2.93.34 7.36.41 8.83s.07-1.47 0 0"/><path fill="none" stroke="transparent" stroke-width="4" d="M901.879 356.416c0 2.94-.14 5.9-.41 8.83-.28 2.92-.69 5.85-1.23 8.73-.55 2.88-1.23 5.74-2.05 8.54-.81 2.8-1.75 5.56-2.82 8.25a90 90 0 0 1-3.58 7.88 86 86 0 0 1-4.3 7.41 81.231 81.231 0 0 1-10.54 13.12c-1.95 1.97-4 3.84-6.13 5.57a75 75 0 0 1-6.61 4.81 71 71 0 0 1-7.03 4.01c-2.4 1.2-4.86 2.26-7.36 3.17s-5.05 1.68-7.62 2.29-5.18 1.08-7.79 1.38c-2.61.31-5.25.47-7.87.47-2.63 0-5.27-.16-7.88-.47-2.61-.3-5.22-.77-7.79-1.38s-5.12-1.38-7.62-2.29a72.193 72.193 0 0 1-14.39-7.18 75 75 0 0 1-6.61-4.81c-2.13-1.73-4.18-3.6-6.13-5.57a81 81 0 0 1-5.58-6.25 85 85 0 0 1-4.96-6.87 89 89 0 0 1-4.3-7.41 90 90 0 0 1-3.58-7.88 93 93 0 0 1-2.82-8.25c-.81-2.8-1.5-5.66-2.04-8.54-.55-2.88-.96-5.81-1.24-8.73-.27-2.93-.41-5.89-.41-8.83s.14-5.9.41-8.83c.28-2.93.69-5.85 1.24-8.73.54-2.88 1.23-5.74 2.04-8.54s1.76-5.57 2.82-8.25c1.07-2.69 2.27-5.33 3.58-7.88 1.32-2.55 2.76-5.03 4.3-7.42 1.54-2.38 3.21-4.68 4.96-6.87a83 83 0 0 1 5.58-6.25c1.95-1.97 4-3.83 6.13-5.56 2.12-1.73 4.34-3.34 6.61-4.81a72 72 0 0 1 7.03-4.02c2.4-1.2 4.87-2.26 7.36-3.17 2.5-.91 5.05-1.67 7.62-2.28 2.57-.62 5.18-1.08 7.79-1.39 2.61-.3 5.25-.46 7.88-.46 2.62 0 5.26.16 7.87.46 2.61.31 5.22.77 7.79 1.39 2.57.61 5.12 1.37 7.62 2.28s4.96 1.97 7.36 3.17 4.76 2.54 7.03 4.02c2.27 1.47 4.49 3.08 6.61 4.81 2.13 1.73 4.18 3.59 6.13 5.56a83 83 0 0 1 5.58 6.25c1.76 2.19 3.42 4.49 4.96 6.87a88 88 0 0 1 4.3 7.42c1.31 2.55 2.51 5.19 3.58 7.88a89 89 0 0 1 2.82 8.25c.82 2.8 1.5 5.66 2.05 8.54.54 2.88.95 5.8 1.23 8.73.27 2.93.34 7.36.41 8.83s.07-1.47 0 0"/></g><g stroke-linecap="round"><path fill="#fff" stroke-width="0" d="M783.527 319.632h86.12c21.33 0 32 10.67 32 32v94.94c0 21.34-10.67 32-32 32h-86.12c-21.33 0-32-10.66-32-32v-94.94c0-21.33 10.67-32 32-32"/><path fill="none" stroke="transparent" stroke-width="4" d="M783.527 319.632h86.12m-86.12 0h86.12m0 0c21.33 0 32 10.67 32 32m-32-32c21.33 0 32 10.67 32 32m0 0v94.94m0-94.94v94.94m0 0c0 21.34-10.67 32-32 32m32-32c0 21.34-10.67 32-32 32m0 0h-86.12m86.12 0h-86.12m0 0c-21.33 0-32-10.66-32-32m32 32c-21.33 0-32-10.66-32-32m0 0v-94.94m0 94.94v-94.94m0 0c0-21.33 10.67-32 32-32m-32 32c0-21.33 10.67-32 32-32"/></g><g stroke-linecap="round"><path fill="#fff" stroke-width="0" d="M899.85 456.815c0 2.94-.14 5.9-.41 8.83-.27 2.92-.67 5.85-1.21 8.73a95 95 0 0 1-2 8.54c-.8 2.8-1.73 5.56-2.78 8.25a93 93 0 0 1-3.51 7.88 88 88 0 0 1-4.22 7.41 84 84 0 0 1-4.88 6.87 80 80 0 0 1-5.47 6.25 79 79 0 0 1-6.02 5.57 73 73 0 0 1-6.5 4.81 69 69 0 0 1-6.9 4.01c-2.35 1.2-4.78 2.26-7.23 3.17s-4.96 1.68-7.48 2.29-5.08 1.08-7.65 1.38c-2.56.31-5.15.47-7.73.47s-5.17-.16-7.73-.47c-2.57-.3-5.13-.77-7.65-1.38a66 66 0 0 1-7.48-2.29c-2.46-.91-4.88-1.97-7.23-3.17a70 70 0 0 1-6.91-4.01c-2.23-1.47-4.4-3.08-6.49-4.81s-4.1-3.6-6.02-5.57a80 80 0 0 1-5.48-6.25 87 87 0 0 1-4.87-6.87 88 88 0 0 1-4.22-7.41 90 90 0 0 1-3.51-7.88 93 93 0 0 1-2.78-8.25c-.8-2.8-1.47-5.66-2-8.54-.54-2.88-.95-5.81-1.21-8.73-.27-2.93-.41-5.89-.41-8.83s.14-5.9.41-8.83c.26-2.93.67-5.85 1.21-8.73a91.842 91.842 0 0 1 4.78-16.79c1.05-2.69 2.22-5.33 3.51-7.88s2.71-5.03 4.22-7.42c1.52-2.38 3.15-4.68 4.87-6.87 1.73-2.18 3.56-4.28 5.48-6.25s3.93-3.83 6.02-5.56 4.26-3.34 6.49-4.81a71 71 0 0 1 6.91-4.02 67 67 0 0 1 14.71-5.45c2.52-.62 5.08-1.08 7.65-1.39 2.56-.3 5.15-.46 7.73-.46s5.17.16 7.73.46c2.57.31 5.13.77 7.65 1.39 2.52.61 5.03 1.37 7.48 2.28s4.88 1.97 7.23 3.17c2.36 1.2 4.67 2.54 6.9 4.02 2.24 1.47 4.41 3.08 6.5 4.81 2.08 1.73 4.1 3.59 6.02 5.56 1.91 1.97 3.75 4.07 5.47 6.25 1.73 2.19 3.36 4.49 4.88 6.87 1.51 2.39 2.93 4.87 4.22 7.42 1.28 2.55 2.46 5.19 3.51 7.88 1.05 2.68 1.98 5.45 2.78 8.25.79 2.8 1.47 5.66 2 8.54.54 2.88.94 5.8 1.21 8.73s.34 7.36.41 8.83.07-1.47 0 0"/><path fill="none" stroke="transparent" stroke-width="4" d="M899.85 456.815c0 2.94-.14 5.9-.41 8.83-.27 2.92-.67 5.85-1.21 8.73a95 95 0 0 1-2 8.54c-.8 2.8-1.73 5.56-2.78 8.25a93 93 0 0 1-3.51 7.88 88 88 0 0 1-4.22 7.41 84 84 0 0 1-4.88 6.87 80 80 0 0 1-5.47 6.25 79 79 0 0 1-6.02 5.57 73 73 0 0 1-6.5 4.81 69 69 0 0 1-6.9 4.01c-2.35 1.2-4.78 2.26-7.23 3.17s-4.96 1.68-7.48 2.29-5.08 1.08-7.65 1.38c-2.56.31-5.15.47-7.73.47s-5.17-.16-7.73-.47c-2.57-.3-5.13-.77-7.65-1.38a66 66 0 0 1-7.48-2.29c-2.46-.91-4.88-1.97-7.23-3.17a70 70 0 0 1-6.91-4.01c-2.23-1.47-4.4-3.08-6.49-4.81s-4.1-3.6-6.02-5.57a80 80 0 0 1-5.48-6.25 87 87 0 0 1-4.87-6.87 88 88 0 0 1-4.22-7.41 90 90 0 0 1-3.51-7.88 93 93 0 0 1-2.78-8.25c-.8-2.8-1.47-5.66-2-8.54-.54-2.88-.95-5.81-1.21-8.73-.27-2.93-.41-5.89-.41-8.83s.14-5.9.41-8.83c.26-2.93.67-5.85 1.21-8.73a91.842 91.842 0 0 1 4.78-16.79c1.05-2.69 2.22-5.33 3.51-7.88s2.71-5.03 4.22-7.42c1.52-2.38 3.15-4.68 4.87-6.87 1.73-2.18 3.56-4.28 5.48-6.25s3.93-3.83 6.02-5.56 4.26-3.34 6.49-4.81a71 71 0 0 1 6.91-4.02 67 67 0 0 1 14.71-5.45c2.52-.62 5.08-1.08 7.65-1.39 2.56-.3 5.15-.46 7.73-.46s5.17.16 7.73.46c2.57.31 5.13.77 7.65 1.39 2.52.61 5.03 1.37 7.48 2.28s4.88 1.97 7.23 3.17c2.36 1.2 4.67 2.54 6.9 4.02 2.24 1.47 4.41 3.08 6.5 4.81 2.08 1.73 4.1 3.59 6.02 5.56 1.91 1.97 3.75 4.07 5.47 6.25 1.73 2.19 3.36 4.49 4.88 6.87 1.51 2.39 2.93 4.87 4.22 7.42 1.28 2.55 2.46 5.19 3.51 7.88 1.05 2.68 1.98 5.45 2.78 8.25.79 2.8 1.47 5.66 2 8.54.54 2.88.94 5.8 1.21 8.73s.34 7.36.41 8.83.07-1.47 0 0"/></g><g stroke-linecap="round"><path fill="#f08c00" stroke-width="0" d="M809.618 551.39c0 .97-.12 1.95-.35 2.89-.23.95-.58 1.9-1.03 2.8-.45.91-1.02 1.8-1.68 2.63-.66.84-1.43 1.64-2.28 2.38s-1.8 1.43-2.82 2.05c-1.01.62-2.11 1.18-3.26 1.66-1.14.48-2.36.9-3.6 1.23s-2.55.58-3.85.75c-1.3.16-2.64.25-3.96.25s-2.66-.09-3.97-.25c-1.3-.17-2.6-.42-3.84-.75s-2.46-.75-3.61-1.23c-1.14-.48-2.24-1.04-3.26-1.66a21 21 0 0 1-2.81-2.05 17.6 17.6 0 0 1-2.28-2.38c-.66-.83-1.23-1.72-1.68-2.63-.46-.9-.8-1.85-1.03-2.8-.23-.94-.35-1.92-.35-2.89 0-.96.12-1.94.35-2.88.23-.95.57-1.9 1.03-2.8.45-.91 1.02-1.8 1.68-2.63.66-.84 1.43-1.64 2.28-2.38s1.8-1.43 2.81-2.05c1.02-.62 2.12-1.18 3.26-1.66 1.15-.48 2.37-.9 3.61-1.23s2.54-.58 3.84-.75c1.31-.16 2.65-.25 3.97-.25s2.66.09 3.96.25c1.3.17 2.61.42 3.85.75s2.46.75 3.6 1.23c1.15.48 2.25 1.04 3.26 1.66 1.02.62 1.97 1.31 2.82 2.05s1.62 1.54 2.28 2.38c.66.83 1.23 1.72 1.68 2.63.45.9.8 1.85 1.03 2.8.23.94.29 2.4.35 2.88.06.49.06-.48 0 0"/><path fill="none" stroke="transparent" stroke-width="4" d="M809.618 551.39c0 .97-.12 1.95-.35 2.89-.23.95-.58 1.9-1.03 2.8-.45.91-1.02 1.8-1.68 2.63-.66.84-1.43 1.64-2.28 2.38s-1.8 1.43-2.82 2.05c-1.01.62-2.11 1.18-3.26 1.66-1.14.48-2.36.9-3.6 1.23s-2.55.58-3.85.75c-1.3.16-2.64.25-3.96.25s-2.66-.09-3.97-.25c-1.3-.17-2.6-.42-3.84-.75s-2.46-.75-3.61-1.23c-1.14-.48-2.24-1.04-3.26-1.66a21 21 0 0 1-2.81-2.05 17.6 17.6 0 0 1-2.28-2.38c-.66-.83-1.23-1.72-1.68-2.63-.46-.9-.8-1.85-1.03-2.8-.23-.94-.35-1.92-.35-2.89 0-.96.12-1.94.35-2.88.23-.95.57-1.9 1.03-2.8.45-.91 1.02-1.8 1.68-2.63.66-.84 1.43-1.64 2.28-2.38s1.8-1.43 2.81-2.05c1.02-.62 2.12-1.18 3.26-1.66 1.15-.48 2.37-.9 3.61-1.23s2.54-.58 3.84-.75c1.31-.16 2.65-.25 3.97-.25s2.66.09 3.96.25c1.3.17 2.61.42 3.85.75s2.46.75 3.6 1.23c1.15.48 2.25 1.04 3.26 1.66 1.02.62 1.97 1.31 2.82 2.05s1.62 1.54 2.28 2.38c.66.83 1.23 1.72 1.68 2.63.45.9.8 1.85 1.03 2.8.23.94.29 2.4.35 2.88.06.49.06-.48 0 0"/></g><g stroke-linecap="round"><path fill="#f08c00" stroke-width="0" d="M884.344 551.39c0 .97-.12 1.95-.35 2.89-.23.95-.58 1.9-1.03 2.8-.45.91-1.02 1.8-1.68 2.63-.66.84-1.43 1.64-2.28 2.38s-1.8 1.43-2.82 2.05c-1.01.62-2.11 1.18-3.26 1.66-1.14.48-2.36.9-3.6 1.23s-2.55.58-3.85.75c-1.3.16-2.64.25-3.96.25s-2.66-.09-3.97-.25c-1.3-.17-2.6-.42-3.84-.75s-2.46-.75-3.61-1.23c-1.14-.48-2.24-1.04-3.26-1.66a21 21 0 0 1-2.81-2.05 17.6 17.6 0 0 1-2.28-2.38c-.66-.83-1.23-1.72-1.68-2.63-.46-.9-.8-1.85-1.03-2.8-.23-.94-.35-1.92-.35-2.89 0-.96.12-1.94.35-2.88.23-.95.57-1.9 1.03-2.8.45-.91 1.02-1.8 1.68-2.63.66-.84 1.43-1.64 2.28-2.38s1.8-1.43 2.81-2.05c1.02-.62 2.12-1.18 3.26-1.66 1.15-.48 2.37-.9 3.61-1.23s2.54-.58 3.84-.75c1.31-.16 2.65-.25 3.97-.25s2.66.09 3.96.25c1.3.17 2.61.42 3.85.75s2.46.75 3.6 1.23c1.15.48 2.25 1.04 3.26 1.66 1.02.62 1.97 1.31 2.82 2.05s1.62 1.54 2.28 2.38c.66.83 1.23 1.72 1.68 2.63.45.9.8 1.85 1.03 2.8.23.94.29 2.4.35 2.88.06.49.06-.48 0 0"/><path fill="none" stroke="transparent" stroke-width="4" d="M884.344 551.39c0 .97-.12 1.95-.35 2.89-.23.95-.58 1.9-1.03 2.8-.45.91-1.02 1.8-1.68 2.63-.66.84-1.43 1.64-2.28 2.38s-1.8 1.43-2.82 2.05c-1.01.62-2.11 1.18-3.26 1.66-1.14.48-2.36.9-3.6 1.23s-2.55.58-3.85.75c-1.3.16-2.64.25-3.96.25s-2.66-.09-3.97-.25c-1.3-.17-2.6-.42-3.84-.75s-2.46-.75-3.61-1.23c-1.14-.48-2.24-1.04-3.26-1.66a21 21 0 0 1-2.81-2.05 17.6 17.6 0 0 1-2.28-2.38c-.66-.83-1.23-1.72-1.68-2.63-.46-.9-.8-1.85-1.03-2.8-.23-.94-.35-1.92-.35-2.89 0-.96.12-1.94.35-2.88.23-.95.57-1.9 1.03-2.8.45-.91 1.02-1.8 1.68-2.63.66-.84 1.43-1.64 2.28-2.38s1.8-1.43 2.81-2.05c1.02-.62 2.12-1.18 3.26-1.66 1.15-.48 2.37-.9 3.61-1.23s2.54-.58 3.84-.75c1.31-.16 2.65-.25 3.97-.25s2.66.09 3.96.25c1.3.17 2.61.42 3.85.75s2.46.75 3.6 1.23c1.15.48 2.25 1.04 3.26 1.66 1.02.62 1.97 1.31 2.82 2.05s1.62 1.54 2.28 2.38c.66.83 1.23 1.72 1.68 2.63.45.9.8 1.85 1.03 2.8.23.94.29 2.4.35 2.88.06.49.06-.48 0 0"/></g><g stroke-linecap="round"><path stroke-width="0" d="M811.676 321.032c0 .54-.05 1.09-.14 1.62-.1.54-.24 1.07-.42 1.58-.19.51-.42 1.01-.69 1.48-.27.46-.59.92-.94 1.33-.34.42-.73.81-1.15 1.15-.41.35-.87.67-1.33.94-.47.27-.97.5-1.48.69-.51.18-1.04.32-1.58.42-.53.09-1.08.14-1.62.14s-1.09-.05-1.62-.14c-.54-.1-1.07-.24-1.58-.42-.51-.19-1.01-.42-1.47-.69-.47-.27-.93-.59-1.34-.94-.41-.34-.8-.73-1.15-1.15-.35-.41-.67-.87-.94-1.33-.27-.47-.5-.97-.69-1.48-.18-.51-.32-1.04-.42-1.58-.09-.53-.14-1.08-.14-1.62s.05-1.09.14-1.62c.1-.54.24-1.07.42-1.58.19-.51.42-1.01.69-1.47.27-.47.59-.93.94-1.34s.74-.8 1.15-1.15.87-.67 1.34-.94c.46-.27.96-.5 1.47-.69.51-.18 1.04-.32 1.58-.42.53-.09 1.08-.14 1.62-.14s1.09.05 1.62.14c.54.1 1.07.24 1.58.42.51.19 1.01.42 1.48.69.46.27.92.59 1.33.94.42.35.81.74 1.15 1.15.35.41.67.87.94 1.34.27.46.5.96.69 1.47.18.51.32 1.04.42 1.58.09.53.12 1.35.14 1.62s.02-.27 0 0"/><path fill="none" stroke="transparent" stroke-width="2" d="M811.676 321.032c0 .54-.05 1.09-.14 1.62-.1.54-.24 1.07-.42 1.58-.19.51-.42 1.01-.69 1.48-.27.46-.59.92-.94 1.33-.34.42-.73.81-1.15 1.15-.41.35-.87.67-1.33.94-.47.27-.97.5-1.48.69-.51.18-1.04.32-1.58.42-.53.09-1.08.14-1.62.14s-1.09-.05-1.62-.14c-.54-.1-1.07-.24-1.58-.42-.51-.19-1.01-.42-1.47-.69-.47-.27-.93-.59-1.34-.94-.41-.34-.8-.73-1.15-1.15-.35-.41-.67-.87-.94-1.33-.27-.47-.5-.97-.69-1.48-.18-.51-.32-1.04-.42-1.58-.09-.53-.14-1.08-.14-1.62s.05-1.09.14-1.62c.1-.54.24-1.07.42-1.58.19-.51.42-1.01.69-1.47.27-.47.59-.93.94-1.34s.74-.8 1.15-1.15.87-.67 1.34-.94c.46-.27.96-.5 1.47-.69.51-.18 1.04-.32 1.58-.42.53-.09 1.08-.14 1.62-.14s1.09.05 1.62.14c.54.1 1.07.24 1.58.42.51.19 1.01.42 1.48.69.46.27.92.59 1.33.94.42.35.81.74 1.15 1.15.35.41.67.87.94 1.34.27.46.5.96.69 1.47.18.51.32 1.04.42 1.58.09.53.12 1.35.14 1.62s.02-.27 0 0"/></g><g stroke-linecap="round"><path stroke-width="0" d="M860.131 321.032c0 .54-.05 1.09-.14 1.62-.1.54-.24 1.07-.42 1.58-.19.51-.42 1.01-.69 1.48-.27.46-.59.92-.94 1.33-.34.42-.73.81-1.15 1.15-.41.35-.87.67-1.33.94-.47.27-.97.5-1.48.69-.51.18-1.04.32-1.58.42-.53.09-1.08.14-1.62.14s-1.09-.05-1.62-.14c-.54-.1-1.07-.24-1.58-.42-.51-.19-1.01-.42-1.47-.69-.47-.27-.93-.59-1.34-.94-.41-.34-.8-.73-1.15-1.15-.35-.41-.67-.87-.94-1.33-.27-.47-.5-.97-.69-1.48-.18-.51-.32-1.04-.42-1.58-.09-.53-.14-1.08-.14-1.62s.05-1.09.14-1.62c.1-.54.24-1.07.42-1.58.19-.51.42-1.01.69-1.47.27-.47.59-.93.94-1.34s.74-.8 1.15-1.15.87-.67 1.34-.94c.46-.27.96-.5 1.47-.69.51-.18 1.04-.32 1.58-.42.53-.09 1.08-.14 1.62-.14s1.09.05 1.62.14c.54.1 1.07.24 1.58.42.51.19 1.01.42 1.48.69.46.27.92.59 1.33.94.42.35.81.74 1.15 1.15.35.41.67.87.94 1.34.27.46.5.96.69 1.47.18.51.32 1.04.42 1.58.09.53.12 1.35.14 1.62s.02-.27 0 0"/><path fill="none" stroke="transparent" stroke-width="2" d="M860.131 321.032c0 .54-.05 1.09-.14 1.62-.1.54-.24 1.07-.42 1.58-.19.51-.42 1.01-.69 1.48-.27.46-.59.92-.94 1.33-.34.42-.73.81-1.15 1.15-.41.35-.87.67-1.33.94-.47.27-.97.5-1.48.69-.51.18-1.04.32-1.58.42-.53.09-1.08.14-1.62.14s-1.09-.05-1.62-.14c-.54-.1-1.07-.24-1.58-.42-.51-.19-1.01-.42-1.47-.69-.47-.27-.93-.59-1.34-.94-.41-.34-.8-.73-1.15-1.15-.35-.41-.67-.87-.94-1.33-.27-.47-.5-.97-.69-1.48-.18-.51-.32-1.04-.42-1.58-.09-.53-.14-1.08-.14-1.62s.05-1.09.14-1.62c.1-.54.24-1.07.42-1.58.19-.51.42-1.01.69-1.47.27-.47.59-.93.94-1.34s.74-.8 1.15-1.15.87-.67 1.34-.94c.46-.27.96-.5 1.47-.69.51-.18 1.04-.32 1.58-.42.53-.09 1.08-.14 1.62-.14s1.09.05 1.62.14c.54.1 1.07.24 1.58.42.51.19 1.01.42 1.48.69.46.27.92.59 1.33.94.42.35.81.74 1.15 1.15.35.41.67.87.94 1.34.27.46.5.96.69 1.47.18.51.32 1.04.42 1.58.09.53.12 1.35.14 1.62s.02-.27 0 0"/></g><g stroke-linecap="round"><path fill="#f08c00" stroke-width="0" d="m827.543 333.47 9.655 9.83-9.846 9.67-9.655-9.831"/><path fill="none" stroke="transparent" stroke-width="4" d="m827.543 333.47 9.655 9.83m-9.655-9.83 9.655 9.83m0 0-9.846 9.67m9.846-9.67-9.846 9.67m0 0-9.655-9.831m9.655 9.831-9.655-9.831m0 0 9.846-9.67m-9.846 9.67 9.846-9.67"/></g><g stroke-linecap="round"><path stroke-width="0" d="M732.308 422.792a112 112 0 0 1-3.042 5.895 103 103 0 0 1-3.32 5.573 86 86 0 0 1-3.511 5.115 72 72 0 0 1-3.629 4.55 57 57 0 0 1-3.65 3.852 42 42 0 0 1-3.578 3.077c-1.17.87-2.329 1.624-3.428 2.207-1.108.578-2.183 1.017-3.189 1.29-1.006.272-1.983.392-2.87.345a6.4 6.4 0 0 1-2.48-.61 6.3 6.3 0 0 1-2.03-1.548c-.602-.665-1.113-1.496-1.532-2.45-.429-.96-.761-2.072-.997-3.293s-.376-2.597-.433-4.054c-.044-1.462 0-3.06.141-4.721a57 57 0 0 1 .709-5.26c.33-1.826.758-3.738 1.265-5.68a92 92 0 0 1 1.78-5.944 103 103 0 0 1 2.264-6.077 112 112 0 0 1 2.68-6.068c.955-1.993 1.98-3.975 3.038-5.885a103 103 0 0 1 3.311-5.577 93 93 0 0 1 3.516-5.125 76 76 0 0 1 3.628-4.55 58 58 0 0 1 3.65-3.852 41 41 0 0 1 3.583-3.063 27.4 27.4 0 0 1 3.432-2.216c1.1-.583 2.174-1.022 3.19-1.29 1.005-.273 1.97-.388 2.87-.346a6.5 6.5 0 0 1 2.479.61 6.6 6.6 0 0 1 2.03 1.548 9.5 9.5 0 0 1 1.533 2.451c.42.955.752 2.067.997 3.293.231 1.23.376 2.597.428 4.063a41 41 0 0 1-.146 4.708 58 58 0 0 1-.709 5.259 72 72 0 0 1-1.265 5.68 87 87 0 0 1-1.783 5.953 103 103 0 0 1-2.256 6.082c-.823 2.023-2.238 5.049-2.676 6.058-.452 1.014.501-.98 0 0"/><path fill="none" stroke="transparent" stroke-width="4" d="M732.308 422.792a112 112 0 0 1-3.042 5.895 103 103 0 0 1-3.32 5.573 86 86 0 0 1-3.511 5.115 72 72 0 0 1-3.629 4.55 57 57 0 0 1-3.65 3.852 42 42 0 0 1-3.578 3.077c-1.17.87-2.329 1.624-3.428 2.207-1.108.578-2.183 1.017-3.189 1.29-1.006.272-1.983.392-2.87.345a6.4 6.4 0 0 1-2.48-.61 6.3 6.3 0 0 1-2.03-1.548c-.602-.665-1.113-1.496-1.532-2.45-.429-.96-.761-2.072-.997-3.293s-.376-2.597-.433-4.054c-.044-1.462 0-3.06.141-4.721a57 57 0 0 1 .709-5.26c.33-1.826.758-3.738 1.265-5.68a92 92 0 0 1 1.78-5.944 103 103 0 0 1 2.264-6.077 112 112 0 0 1 2.68-6.068c.955-1.993 1.98-3.975 3.038-5.885a103 103 0 0 1 3.311-5.577 93 93 0 0 1 3.516-5.125 76 76 0 0 1 3.628-4.55 58 58 0 0 1 3.65-3.852 41 41 0 0 1 3.583-3.063 27.4 27.4 0 0 1 3.432-2.216c1.1-.583 2.174-1.022 3.19-1.29 1.005-.273 1.97-.388 2.87-.346a6.5 6.5 0 0 1 2.479.61 6.6 6.6 0 0 1 2.03 1.548 9.5 9.5 0 0 1 1.533 2.451c.42.955.752 2.067.997 3.293.231 1.23.376 2.597.428 4.063a41 41 0 0 1-.146 4.708 58 58 0 0 1-.709 5.259 72 72 0 0 1-1.265 5.68 87 87 0 0 1-1.783 5.953 103 103 0 0 1-2.256 6.082c-.823 2.023-2.238 5.049-2.676 6.058-.452 1.014.501-.98 0 0"/></g><g stroke-linecap="round"><path stroke-width="0" d="M951.282 408.99a112 112 0 0 1 2.681 6.067 103 103 0 0 1 2.256 6.082 86 86 0 0 1 1.78 5.944 72 72 0 0 1 1.264 5.68 57 57 0 0 1 .71 5.26 42 42 0 0 1 .15 4.716c-.057 1.458-.198 2.833-.434 4.054-.245 1.226-.577 2.338-.996 3.293-.42.954-.94 1.79-1.533 2.45a6.4 6.4 0 0 1-2.03 1.549 6.3 6.3 0 0 1-2.48.61c-.895.051-1.864-.073-2.87-.346-1.015-.268-2.09-.707-3.189-1.29s-2.258-1.336-3.428-2.207a42 42 0 0 1-3.587-3.072 57 57 0 0 1-3.65-3.852 76 76 0 0 1-3.628-4.55 92 92 0 0 1-3.512-5.115 103 103 0 0 1-3.31-5.578c-1.063-1.92-2.089-3.9-3.042-5.894a112 112 0 0 1-2.677-6.058 103 103 0 0 1-2.264-6.078 93 93 0 0 1-1.784-5.953 76 76 0 0 1-1.265-5.68 58 58 0 0 1-.71-5.26 41 41 0 0 1-.136-4.712c.052-1.466.197-2.832.429-4.063.236-1.221.568-2.333.996-3.292.42-.954.935-1.777 1.533-2.451a6.5 6.5 0 0 1 2.03-1.548 6.6 6.6 0 0 1 2.48-.61 9.5 9.5 0 0 1 2.87.345c1.006.273 2.08.712 3.189 1.29a27.4 27.4 0 0 1 3.432 2.216 41 41 0 0 1 3.574 3.068 58 58 0 0 1 3.65 3.852 72 72 0 0 1 3.628 4.55 87 87 0 0 1 3.516 5.124 103 103 0 0 1 3.32 5.573c1.058 1.91 2.527 4.91 3.037 5.886.507.988-.447-1.005 0 0"/><path fill="none" stroke="transparent" stroke-width="4" d="M951.282 408.99a112 112 0 0 1 2.681 6.067 103 103 0 0 1 2.256 6.082 86 86 0 0 1 1.78 5.944 72 72 0 0 1 1.264 5.68 57 57 0 0 1 .71 5.26 42 42 0 0 1 .15 4.716c-.057 1.458-.198 2.833-.434 4.054-.245 1.226-.577 2.338-.996 3.293-.42.954-.94 1.79-1.533 2.45a6.4 6.4 0 0 1-2.03 1.549 6.3 6.3 0 0 1-2.48.61c-.895.051-1.864-.073-2.87-.346-1.015-.268-2.09-.707-3.189-1.29s-2.258-1.336-3.428-2.207a42 42 0 0 1-3.587-3.072 57 57 0 0 1-3.65-3.852 76 76 0 0 1-3.628-4.55 92 92 0 0 1-3.512-5.115 103 103 0 0 1-3.31-5.578c-1.063-1.92-2.089-3.9-3.042-5.894a112 112 0 0 1-2.677-6.058 103 103 0 0 1-2.264-6.078 93 93 0 0 1-1.784-5.953 76 76 0 0 1-1.265-5.68 58 58 0 0 1-.71-5.26 41 41 0 0 1-.136-4.712c.052-1.466.197-2.832.429-4.063.236-1.221.568-2.333.996-3.292.42-.954.935-1.777 1.533-2.451a6.5 6.5 0 0 1 2.03-1.548 6.6 6.6 0 0 1 2.48-.61 9.5 9.5 0 0 1 2.87.345c1.006.273 2.08.712 3.189 1.29a27.4 27.4 0 0 1 3.432 2.216 41 41 0 0 1 3.574 3.068 58 58 0 0 1 3.65 3.852 72 72 0 0 1 3.628 4.55 87 87 0 0 1 3.516 5.124 103 103 0 0 1 3.32 5.573c1.058 1.91 2.527 4.91 3.037 5.886.507.988-.447-1.005 0 0"/></g><g stroke-linecap="round"><path stroke-width="0" d="M877.809 286.72c0 1.09-.21 2.2-.61 3.27-.4 1.08-1 2.15-1.79 3.19s-1.79 2.06-2.95 3.03-2.51 1.92-4.01 2.8c-1.51.88-3.19 1.72-5 2.49s-3.78 1.49-5.85 2.13a81 81 0 0 1-6.55 1.72c-2.28.49-4.68.91-7.11 1.25s-4.95.6-7.48.77c-2.52.17-5.11.25-7.66.25-2.56 0-5.14-.08-7.67-.25-2.52-.17-5.05-.43-7.48-.77s-4.82-.76-7.1-1.25c-2.28-.5-4.49-1.08-6.56-1.72s-4.04-1.36-5.85-2.13c-1.8-.77-3.49-1.61-4.99-2.49s-2.86-1.83-4.02-2.8-2.15-1.99-2.94-3.03-1.4-2.11-1.8-3.19c-.4-1.07-.6-2.18-.6-3.27s.2-2.19.6-3.27c.4-1.07 1.01-2.15 1.8-3.19.79-1.03 1.78-2.06 2.94-3.03s2.52-1.91 4.02-2.79c1.5-.89 3.19-1.73 4.99-2.5 1.81-.77 3.78-1.49 5.85-2.13s4.28-1.22 6.56-1.71c2.28-.5 4.67-.92 7.1-1.26 2.43-.33 4.96-.59 7.48-.76 2.53-.17 5.11-.26 7.67-.26 2.55 0 5.14.09 7.66.26 2.53.17 5.05.43 7.48.76 2.43.34 4.83.76 7.11 1.26 2.27.49 4.49 1.07 6.55 1.71 2.07.64 4.04 1.36 5.85 2.13s3.49 1.61 5 2.5c1.5.88 2.85 1.82 4.01 2.79s2.16 2 2.95 3.03c.79 1.04 1.39 2.12 1.79 3.19.4 1.08.5 2.73.61 3.27.1.55.1-.54 0 0"/><path fill="none" stroke="#000" stroke-width="4" d="M877.809 286.72c0 1.09-.21 2.2-.61 3.27-.4 1.08-1 2.15-1.79 3.19s-1.79 2.06-2.95 3.03-2.51 1.92-4.01 2.8c-1.51.88-3.19 1.72-5 2.49s-3.78 1.49-5.85 2.13a81 81 0 0 1-6.55 1.72c-2.28.49-4.68.91-7.11 1.25s-4.95.6-7.48.77c-2.52.17-5.11.25-7.66.25-2.56 0-5.14-.08-7.67-.25-2.52-.17-5.05-.43-7.48-.77s-4.82-.76-7.1-1.25c-2.28-.5-4.49-1.08-6.56-1.72s-4.04-1.36-5.85-2.13c-1.8-.77-3.49-1.61-4.99-2.49s-2.86-1.83-4.02-2.8-2.15-1.99-2.94-3.03-1.4-2.11-1.8-3.19c-.4-1.07-.6-2.18-.6-3.27s.2-2.19.6-3.27c.4-1.07 1.01-2.15 1.8-3.19.79-1.03 1.78-2.06 2.94-3.03s2.52-1.91 4.02-2.79c1.5-.89 3.19-1.73 4.99-2.5 1.81-.77 3.78-1.49 5.85-2.13s4.28-1.22 6.56-1.71c2.28-.5 4.67-.92 7.1-1.26 2.43-.33 4.96-.59 7.48-.76 2.53-.17 5.11-.26 7.67-.26 2.55 0 5.14.09 7.66.26 2.53.17 5.05.43 7.48.76 2.43.34 4.83.76 7.11 1.26 2.27.49 4.49 1.07 6.55 1.71 2.07.64 4.04 1.36 5.85 2.13s3.49 1.61 5 2.5c1.5.88 2.85 1.82 4.01 2.79s2.16 2 2.95 3.03c.79 1.04 1.39 2.12 1.79 3.19.4 1.08.5 2.73.61 3.27.1.55.1-.54 0 0"/></g><g stroke-linecap="round"><path fill="#fff" stroke-width="0" d="M796.481 309.754c-1.15.02-2.32-.03-3.452-.14a30 30 0 0 1-3.36-.522 27 27 0 0 1-3.156-.896 23 23 0 0 1-2.862-1.24 18 18 0 0 1-2.487-1.548 14.6 14.6 0 0 1-2.012-1.805 11.5 11.5 0 0 1-1.505-2.014 10 10 0 0 1-.937-2.154 8.513 8.513 0 0 1-.078-4.48 9.7 9.7 0 0 1 .863-2.185 11.2 11.2 0 0 1 1.434-2.065 14 14 0 0 1 1.948-1.874c.73-.583 1.55-1.137 2.432-1.632a22 22 0 0 1 2.817-1.34 24 24 0 0 1 3.123-1.004 28 28 0 0 1 3.34-.638c1.127-.15 2.296-.24 3.446-.26 1.16-.02 2.33.03 3.463.14 1.132.111 2.275.281 3.36.523 1.083.231 2.159.532 3.155.895 1.006.353 1.974.776 2.862 1.24.898.465 1.738.99 2.487 1.548.75.557 1.43 1.165 2.012 1.805a11.2 11.2 0 0 1 1.505 2.015c.402.693.725 1.417.937 2.154a8.5 8.5 0 0 1 .078 4.48 10 10 0 0 1-.862 2.184 11.5 11.5 0 0 1-1.435 2.065 14.6 14.6 0 0 1-1.948 1.875c-.73.582-1.55 1.137-2.432 1.632-.871.495-1.824.942-2.817 1.339-.983.387-2.048.725-3.123 1.004a30 30 0 0 1-3.34.638c-1.127.15-2.876.21-3.456.26-.569.04.58.02 0 0"/><path fill="none" stroke="transparent" stroke-width="4" d="M796.481 309.754c-1.15.02-2.32-.03-3.452-.14a30 30 0 0 1-3.36-.522 27 27 0 0 1-3.156-.896 23 23 0 0 1-2.862-1.24 18 18 0 0 1-2.487-1.548 14.6 14.6 0 0 1-2.012-1.805 11.5 11.5 0 0 1-1.505-2.014 10 10 0 0 1-.937-2.154 8.513 8.513 0 0 1-.078-4.48 9.7 9.7 0 0 1 .863-2.185 11.2 11.2 0 0 1 1.434-2.065 14 14 0 0 1 1.948-1.874c.73-.583 1.55-1.137 2.432-1.632a22 22 0 0 1 2.817-1.34 24 24 0 0 1 3.123-1.004 28 28 0 0 1 3.34-.638c1.127-.15 2.296-.24 3.446-.26 1.16-.02 2.33.03 3.463.14 1.132.111 2.275.281 3.36.523 1.083.231 2.159.532 3.155.895 1.006.353 1.974.776 2.862 1.24.898.465 1.738.99 2.487 1.548.75.557 1.43 1.165 2.012 1.805a11.2 11.2 0 0 1 1.505 2.015c.402.693.725 1.417.937 2.154a8.5 8.5 0 0 1 .078 4.48 10 10 0 0 1-.862 2.184 11.5 11.5 0 0 1-1.435 2.065 14.6 14.6 0 0 1-1.948 1.875c-.73.582-1.55 1.137-2.432 1.632-.871.495-1.824.942-2.817 1.339-.983.387-2.048.725-3.123 1.004a30 30 0 0 1-3.34.638c-1.127.15-2.876.21-3.456.26-.569.04.58.02 0 0"/></g><g stroke-linecap="round"><path fill="#fff" stroke-width="0" d="M817.269 300.222c0 .61-.04 1.23-.12 1.83-.07.59-.19 1.19-.34 1.76-.16.57-.35 1.13-.57 1.66s-.48 1.03-.77 1.5c-.29.46-.61.9-.95 1.29s-.71.75-1.1 1.05c-.38.31-.79.57-1.21.77-.42.21-.86.37-1.3.48-.44.1-.89.16-1.34.16-.44 0-.89-.06-1.33-.16-.44-.11-.88-.27-1.3-.48-.42-.2-.83-.46-1.21-.77-.39-.3-.76-.66-1.1-1.05s-.66-.83-.95-1.29c-.29-.47-.55-.97-.77-1.5s-.41-1.09-.57-1.66c-.15-.57-.27-1.17-.34-1.76a14 14 0 0 1 0-3.65c.07-.6.19-1.19.34-1.77.16-.57.35-1.13.57-1.65.22-.53.48-1.04.77-1.5.29-.47.61-.9.95-1.29.34-.4.71-.75 1.1-1.05.38-.31.79-.57 1.21-.78.42-.2.86-.37 1.3-.47.44-.11.89-.16 1.33-.16.45 0 .9.05 1.34.16.44.1.88.27 1.3.47.42.21.83.47 1.21.78.39.3.76.65 1.1 1.05.34.39.66.82.95 1.29.29.46.55.97.77 1.5.22.52.41 1.08.57 1.65.15.58.27 1.17.34 1.77.08.6.1 1.52.12 1.82.02.31.02-.3 0 0"/><path fill="none" stroke="transparent" stroke-width="4" d="M817.269 300.222c0 .61-.04 1.23-.12 1.83-.07.59-.19 1.19-.34 1.76-.16.57-.35 1.13-.57 1.66s-.48 1.03-.77 1.5c-.29.46-.61.9-.95 1.29s-.71.75-1.1 1.05c-.38.31-.79.57-1.21.77-.42.21-.86.37-1.3.48-.44.1-.89.16-1.34.16-.44 0-.89-.06-1.33-.16-.44-.11-.88-.27-1.3-.48-.42-.2-.83-.46-1.21-.77-.39-.3-.76-.66-1.1-1.05s-.66-.83-.95-1.29c-.29-.47-.55-.97-.77-1.5s-.41-1.09-.57-1.66c-.15-.57-.27-1.17-.34-1.76a14 14 0 0 1 0-3.65c.07-.6.19-1.19.34-1.77.16-.57.35-1.13.57-1.65.22-.53.48-1.04.77-1.5.29-.47.61-.9.95-1.29.34-.4.71-.75 1.1-1.05.38-.31.79-.57 1.21-.78.42-.2.86-.37 1.3-.47.44-.11.89-.16 1.33-.16.45 0 .9.05 1.34.16.44.1.88.27 1.3.47.42.21.83.47 1.21.78.39.3.76.65 1.1 1.05.34.39.66.82.95 1.29.29.46.55.97.77 1.5.22.52.41 1.08.57 1.65.15.58.27 1.17.34 1.77.08.6.1 1.52.12 1.82.02.31.02-.3 0 0"/></g><g stroke-linecap="round"><path fill="#fff" stroke-width="0" d="M853.595 300.13c0 .61-.04 1.23-.12 1.83-.07.59-.19 1.19-.34 1.76-.16.57-.35 1.13-.57 1.66s-.48 1.03-.77 1.5c-.29.46-.61.9-.95 1.29s-.71.75-1.1 1.05c-.38.31-.79.57-1.21.77-.42.21-.86.37-1.3.48-.44.1-.89.16-1.34.16-.44 0-.89-.06-1.33-.16-.44-.11-.88-.27-1.3-.48-.42-.2-.83-.46-1.21-.77-.39-.3-.76-.66-1.1-1.05s-.66-.83-.95-1.29c-.29-.47-.55-.97-.77-1.5s-.41-1.09-.57-1.66c-.15-.57-.27-1.17-.34-1.76a14 14 0 0 1 0-3.65c.07-.6.19-1.19.34-1.77.16-.57.35-1.13.57-1.65.22-.53.48-1.04.77-1.5.29-.47.61-.9.95-1.29.34-.4.71-.75 1.1-1.05.38-.31.79-.57 1.21-.78.42-.2.86-.37 1.3-.47.44-.11.89-.16 1.33-.16.45 0 .9.05 1.34.16.44.1.88.27 1.3.47.42.21.83.47 1.21.78.39.3.76.65 1.1 1.05.34.39.66.82.95 1.29.29.46.55.97.77 1.5.22.52.41 1.08.57 1.65.15.58.27 1.17.34 1.77.08.6.1 1.52.12 1.82.02.31.02-.3 0 0"/><path fill="none" stroke="transparent" stroke-width="4" d="M853.595 300.13c0 .61-.04 1.23-.12 1.83-.07.59-.19 1.19-.34 1.76-.16.57-.35 1.13-.57 1.66s-.48 1.03-.77 1.5c-.29.46-.61.9-.95 1.29s-.71.75-1.1 1.05c-.38.31-.79.57-1.21.77-.42.21-.86.37-1.3.48-.44.1-.89.16-1.34.16-.44 0-.89-.06-1.33-.16-.44-.11-.88-.27-1.3-.48-.42-.2-.83-.46-1.21-.77-.39-.3-.76-.66-1.1-1.05s-.66-.83-.95-1.29c-.29-.47-.55-.97-.77-1.5s-.41-1.09-.57-1.66c-.15-.57-.27-1.17-.34-1.76a14 14 0 0 1 0-3.65c.07-.6.19-1.19.34-1.77.16-.57.35-1.13.57-1.65.22-.53.48-1.04.77-1.5.29-.47.61-.9.95-1.29.34-.4.71-.75 1.1-1.05.38-.31.79-.57 1.21-.78.42-.2.86-.37 1.3-.47.44-.11.89-.16 1.33-.16.45 0 .9.05 1.34.16.44.1.88.27 1.3.47.42.21.83.47 1.21.78.39.3.76.65 1.1 1.05.34.39.66.82.95 1.29.29.46.55.97.77 1.5.22.52.41 1.08.57 1.65.15.58.27 1.17.34 1.77.08.6.1 1.52.12 1.82.02.31.02-.3 0 0"/></g><g stroke-linecap="round"><path fill="#fff" stroke-width="0" d="M858.476 310.845c-1.15.02-2.32-.03-3.453-.14a30 30 0 0 1-3.36-.522 27 27 0 0 1-3.155-.896 23 23 0 0 1-2.862-1.24 18 18 0 0 1-2.487-1.547 14.6 14.6 0 0 1-2.012-1.806 11.5 11.5 0 0 1-1.505-2.014 10 10 0 0 1-.937-2.154 8.513 8.513 0 0 1-.078-4.48 9.7 9.7 0 0 1 .862-2.185 11.2 11.2 0 0 1 1.435-2.065 14 14 0 0 1 1.948-1.874c.73-.583 1.55-1.137 2.432-1.632a22 22 0 0 1 2.817-1.34 24 24 0 0 1 3.123-1.003 28 28 0 0 1 3.34-.638c1.127-.15 2.296-.24 3.446-.26 1.16-.02 2.33.03 3.463.14 1.132.11 2.275.28 3.359.522 1.084.231 2.16.533 3.156.895 1.006.353 1.974.776 2.862 1.241.898.465 1.737.99 2.487 1.547s1.43 1.166 2.012 1.806a11.2 11.2 0 0 1 1.505 2.014c.402.693.724 1.418.937 2.154a8.5 8.5 0 0 1 .078 4.48 10 10 0 0 1-.863 2.185 11.5 11.5 0 0 1-1.434 2.065 14.6 14.6 0 0 1-1.948 1.874c-.73.582-1.55 1.137-2.432 1.632-.871.495-1.824.942-2.817 1.339-.984.387-2.048.726-3.123 1.004a30 30 0 0 1-3.34.638c-1.127.15-2.877.21-3.456.26-.57.04.58.02 0 0"/><path fill="none" stroke="transparent" stroke-width="4" d="M858.476 310.845c-1.15.02-2.32-.03-3.453-.14a30 30 0 0 1-3.36-.522 27 27 0 0 1-3.155-.896 23 23 0 0 1-2.862-1.24 18 18 0 0 1-2.487-1.547 14.6 14.6 0 0 1-2.012-1.806 11.5 11.5 0 0 1-1.505-2.014 10 10 0 0 1-.937-2.154 8.513 8.513 0 0 1-.078-4.48 9.7 9.7 0 0 1 .862-2.185 11.2 11.2 0 0 1 1.435-2.065 14 14 0 0 1 1.948-1.874c.73-.583 1.55-1.137 2.432-1.632a22 22 0 0 1 2.817-1.34 24 24 0 0 1 3.123-1.003 28 28 0 0 1 3.34-.638c1.127-.15 2.296-.24 3.446-.26 1.16-.02 2.33.03 3.463.14 1.132.11 2.275.28 3.359.522 1.084.231 2.16.533 3.156.895 1.006.353 1.974.776 2.862 1.241.898.465 1.737.99 2.487 1.547s1.43 1.166 2.012 1.806a11.2 11.2 0 0 1 1.505 2.014c.402.693.724 1.418.937 2.154a8.5 8.5 0 0 1 .078 4.48 10 10 0 0 1-.863 2.185 11.5 11.5 0 0 1-1.434 2.065 14.6 14.6 0 0 1-1.948 1.874c-.73.582-1.55 1.137-2.432 1.632-.871.495-1.824.942-2.817 1.339-.984.387-2.048.726-3.123 1.004a30 30 0 0 1-3.34.638c-1.127.15-2.877.21-3.456.26-.57.04.58.02 0 0"/></g><g stroke-linecap="round"><path fill="#fff" stroke-width="0" d="M810.93 295.257h4.2q2.1 0 2.1 2.1v11.9q0 2.1-2.1 2.1h-4.2q-2.1 0-2.1-2.1v-11.9q0-2.1 2.1-2.1"/><path fill="none" stroke="transparent" stroke-width="4" d="M810.93 295.257h4.2m-4.2 0h4.2m0 0q2.1 0 2.1 2.1m-2.1-2.1q2.1 0 2.1 2.1m0 0v11.9m0-11.9v11.9m0 0q0 2.1-2.1 2.1m2.1-2.1q0 2.1-2.1 2.1m0 0h-4.2m4.2 0h-4.2m0 0q-2.1 0-2.1-2.1m2.1 2.1q-2.1 0-2.1-2.1m0 0v-11.9m0 11.9v-11.9m0 0q0-2.1 2.1-2.1m-2.1 2.1q0-2.1 2.1-2.1"/></g><g stroke-linecap="round"><path fill="#fff" stroke-width="0" d="M840.112 296.882h4.2q2.1 0 2.1 2.1v10.54c0 1.41-.7 2.11-2.1 2.11h-4.2c-1.4 0-2.1-.7-2.1-2.11v-10.54q0-2.1 2.1-2.1"/><path fill="none" stroke="transparent" stroke-width="4" d="M840.112 296.882h4.2m-4.2 0h4.2m0 0q2.1 0 2.1 2.1m-2.1-2.1q2.1 0 2.1 2.1m0 0v10.54m0-10.54v10.54m0 0c0 1.41-.7 2.11-2.1 2.11m2.1-2.11c0 1.41-.7 2.11-2.1 2.11m0 0h-4.2m4.2 0h-4.2m0 0c-1.4 0-2.1-.7-2.1-2.11m2.1 2.11c-1.4 0-2.1-.7-2.1-2.11m0 0v-10.54m0 10.54v-10.54m0 0q0-2.1 2.1-2.1m-2.1 2.1q0-2.1 2.1-2.1"/></g><g fill-opacity=".6" stroke-linecap="round" stroke-opacity=".6"><path fill="#b2f2bb" stroke-width="0" d="M42 187.525h452.64c21.34 0 32 10.67 32 32v314.37c0 21.33-10.66 32-32 32H42c-21.33 0-32-10.67-32-32v-314.37c0-21.33 10.67-32 32-32"/><path fill="none" stroke="#d1f7d6" stroke-width="2" d="M42 187.525h452.64m-452.64 0h452.64m0 0c21.34 0 32 10.67 32 32m-32-32c21.34 0 32 10.67 32 32m0 0v314.37m0-314.37v314.37m0 0c0 21.33-10.66 32-32 32m32-32c0 21.33-10.66 32-32 32m0 0H42m452.64 0H42m0 0c-21.33 0-32-10.67-32-32m32 32c-21.33 0-32-10.67-32-32m0 0v-314.37m0 314.37v-314.37m0 0c0-21.33 10.67-32 32-32m-32 32c0-21.33 10.67-32 32-32"/></g><g stroke-linecap="round"><path fill="none" fill-opacity=".5" stroke="#e03131" stroke-opacity=".5" stroke-width="4" d="M845.139 316.752c-98.49-11.28-196.24-23.13-352.2-45.6m352.21 48.03c-139.8-21.71-280.74-40.56-350.6-47.48"/><g fill-opacity=".5" stroke-opacity=".5"><path fill="#e03131" fill-rule="evenodd" stroke-width="0" d="m496.509 270.812 10.55-4.44-.79 13.04-13.01-8.65"/><path fill="none" stroke="#e03131" stroke-width="4" d="M494.109 270.972c4.54.08 9.75-.54 13.78-4.41m-13.77 5.83c5.93-2.51 11.18-4.66 14.71-5.51m-.33.14c.33 4.12-1.18 10.44-.04 12.23m.84-11.83c-1.25 5.15-1.71 9.12-2.17 12.09m.95-.97c-5.58-1.14-11.55-6.19-12.72-7.79m11.29 9.28c-3.74-2.5-7.93-5.07-12.17-8.65m.07.32q0 0 0 0m0 0q0 0 0 0"/></g></g><g stroke-linecap="round"><path fill="none" fill-opacity=".5" stroke="#e03131" stroke-opacity=".5" stroke-width="4" d="M804.299 332.272c-81.85-2.45-170.19-7.8-290.41-7.41m290.01 6.08c-75.05 1.95-148.04.72-291.75-4.98"/><g fill-opacity=".5" stroke-opacity=".5"><path fill="#e03131" fill-rule="evenodd" stroke-width="0" d="m510.439 325.372 14.46-5.41-.67 11.87-12.03-7.3"/><path fill="none" stroke="#e03131" stroke-width="4" d="M512.179 326.632c5.15-.87 7.03-4.36 15.27-6.46m-15.48 5.79c3.11-1.86 7.26-3.17 14.61-5.24m-.12-1.23c-1.11 5.27.33 7.84.29 14.05m-1.02-12.81c.12 1.84-.07 5.09.37 12.49m-.35.4c-5.89-4.56-9.26-6.89-13.13-7.72m12.7 7.43c-4.11-2.02-8.22-5.08-13.51-7.78m.34.41q0 0 0 0m0 0q0 0 0 0"/></g></g><g stroke-linecap="round"><path fill="#fff" stroke-width="0" d="M1003.207 10.02c5.9.72 12.54 5.35 17.09 9.87 4.56 4.52 9.25 11 10.24 17.24.99 6.25-1.31 14.5-4.28 20.24-2.97 5.73-7.95 11.27-13.55 14.18-5.61 2.92-13.5 4.12-20.08 3.3-6.57-.82-14.66-3.89-19.39-8.2-4.72-4.31-8.15-11.07-8.93-17.67-.78-6.59 1.4-15.85 4.28-21.91 2.87-6.06 6.78-11.83 12.96-14.44 6.17-2.6 19.54-1.25 24.1-1.19 4.55.05 3.26 1.02 3.21 1.55m1.12-1.64c5.6 2.21 10.85 9.3 14.26 14.69 3.4 5.39 6.33 11.1 6.17 17.64-.16 6.55-2.76 16.51-7.13 21.63-4.36 5.12-12.84 7.61-19.06 9.12-6.21 1.5-12.38 2.09-18.24-.09-5.85-2.18-13.52-7.46-16.88-13-3.35-5.53-3.54-13.73-3.26-20.21s.91-13.46 4.94-18.66c4.03-5.21 12.84-10.76 19.25-12.56 6.4-1.81 15.85 1.37 19.17 1.72 3.32.34.69-.16.74.37"/><path fill="none" stroke="#000" d="M1013.157 12.94c5.6 2.42 10.29 9.04 13.17 15.19 2.89 6.15 5.23 15.41 4.14 21.72s-5.86 11.9-10.67 16.12c-4.82 4.21-11.88 8.27-18.23 9.17-6.34.91-14.12-.77-19.85-3.74-5.72-2.97-11.58-8.42-14.5-14.06-2.91-5.65-4.3-13.3-2.98-19.79 1.31-6.49 6.07-14.73 10.87-19.14 4.81-4.41 10.61-7.51 17.95-7.35 7.35.16 20.88 5.87 26.13 8.32s5.65 6.23 5.37 6.39m-40.38-13.22c5.01-3.09 12.45-3.77 18.44-2.43s12.7 5.69 17.51 10.45c4.81 4.77 10.11 11.67 11.33 18.13 1.23 6.46-.62 14.98-3.97 20.63-3.36 5.65-10.2 10.74-16.14 13.27-5.94 2.54-12.97 3.27-19.52 1.92-6.55-1.34-15.22-5.48-19.78-9.97s-6.77-10.9-7.59-16.99c-.83-6.08-.5-13.58 2.64-19.53 3.13-5.94 13.34-13.85 16.17-16.13 2.82-2.27.41 1.86.77 2.48"/></g><g stroke-linecap="round"><path fill="#fff" stroke-width="0" d="M1020.818 14.623c6.88-.07 16.14 3.41 22.09 7.76 5.95 4.34 11.29 11.3 13.61 18.29 2.32 7 2.03 16.34.32 23.67-1.72 7.34-5.71 15.46-10.62 20.35s-11.69 7.79-18.85 9c-7.15 1.22-17.24.6-24.06-1.73-6.83-2.32-12.88-6.67-16.88-12.22-4-5.54-6.7-13.83-7.11-21.05-.42-7.22 1.18-15.87 4.63-22.25s9.58-12.59 16.05-16.03c6.46-3.45 18.53-3.91 22.75-4.64 4.21-.74 2.37-.4 2.52.23m-27.22 3.47c5.84-3.84 16.88-4.2 24.24-3.43 7.36.78 14.08 3.77 19.94 8.07s12.85 10.96 15.2 17.72c2.34 6.76.54 16-1.14 22.82-1.69 6.82-3.95 13.22-8.96 18.09-5.01 4.86-13.98 9.57-21.09 11.09s-15.05.57-21.56-1.98c-6.51-2.54-13.01-7.81-17.49-13.3-4.48-5.48-8.89-12.43-9.39-19.59-.51-7.17 2.88-16.87 6.34-23.4s11.65-13.47 14.43-15.76c2.78-2.3 2.03 1.36 2.25 2"/><path fill="none" stroke="#000" d="M1017.878 14.673c6.95-.18 16.92 4.15 23.04 8.05 6.11 3.9 10.85 9.01 13.66 15.35 2.82 6.35 4.23 15.54 3.21 22.72-1.02 7.19-4.52 14.86-9.33 20.38-4.8 5.52-12.45 10.58-19.51 12.75-7.06 2.16-16.1 2.46-22.86.24-6.76-2.21-13.15-8.1-17.71-13.54-4.56-5.45-8.53-12.22-9.66-19.13-1.14-6.9-.21-15.74 2.87-22.3 3.07-6.56 8.96-12.96 15.6-17.05 6.63-4.1 19.93-6.68 24.21-7.51 4.28-.84 1.53 1.63 1.47 2.49m-13.23-1.12c7.04-1.77 18.06-.83 25.18 1.94 7.13 2.78 13.65 8.78 17.59 14.69 3.93 5.91 5.81 13.74 6.03 20.76.21 7.01-.89 15.22-4.74 21.34-3.86 6.12-11.79 11.89-18.39 15.39-6.59 3.5-13.95 6.03-21.18 5.62-7.22-.4-16.52-3.25-22.17-8.03-5.65-4.79-9.7-13.8-11.74-20.7-2.03-6.9-2.32-13.81-.44-20.71 1.87-6.89 6.66-15.58 11.7-20.68 5.05-5.11 15.19-8.68 18.56-9.95 3.36-1.27 1.57 1.51 1.63 2.33"/></g><g stroke-linecap="round"><path fill="#fff" stroke-width="0" d="M1033.818 16.875c6.26-3.22 15.6-3.93 22.54-2.53 6.94 1.41 13.91 5.85 19.1 10.98s9.96 13.04 12.05 19.81c2.1 6.77 2.78 14.23.51 20.81-2.28 6.58-8.54 13.84-14.17 18.66-5.62 4.82-12.72 9.16-19.58 10.28-6.85 1.12-15.13-.43-21.55-3.59-6.42-3.15-13.17-9.15-16.97-15.36s-5.73-14.64-5.85-21.9.25-15.14 5.12-21.66c4.86-6.52 18.76-14.65 24.06-17.47s7.64-.29 7.75.54m19.04 3.02c6.69 2.4 12.09 8.52 16.23 14.44s8.6 13.89 8.63 21.08c.02 7.2-4.61 16.17-8.49 22.1-3.87 5.94-8.37 10.57-14.74 13.51s-16.27 4.96-23.49 4.12c-7.21-.84-14.47-4.56-19.79-9.14-5.32-4.59-9.76-11.82-12.14-18.38s-3.98-14.04-2.14-20.97 7.87-15.57 13.19-20.64c5.31-5.06 11.52-8.78 18.69-9.74s20.73 3.36 24.32 3.98c3.58.62-2.26-.82-2.81-.25"/><path fill="none" stroke="#000" d="M1030.608 20.385c5.82-3.84 14.01-6.9 21.08-6.64 7.07.27 15.49 3.86 21.34 8.23s11.27 11.13 13.77 17.99c2.49 6.87 2.85 15.97 1.2 23.22-1.64 7.24-6.13 15.26-11.09 20.24-4.95 4.99-11.69 8.06-18.63 9.65-6.93 1.59-16.05 2.15-22.98-.12s-14.3-7.72-18.61-13.51c-4.31-5.8-6.81-13.8-7.23-21.26s.67-16.8 4.7-23.49c4.04-6.69 15.28-13.71 19.51-16.65 4.22-2.94 5.51-1.39 5.84-1.01m4.67-2.25c7.12-1.6 15.92.57 22.32 3.45 6.4 2.89 12.17 8.06 16.1 13.87 3.92 5.81 7.53 13.88 7.45 20.99s-3.98 15.31-7.94 21.68c-3.95 6.37-9.23 13.12-15.79 16.56s-16.39 5.27-23.56 4.08c-7.16-1.2-14.2-6.56-19.45-11.26-5.25-4.69-10.02-10.14-12.04-16.93-2.03-6.78-1.8-16.66-.1-23.78 1.71-7.12 4.94-14.41 10.31-18.93 5.36-4.51 18.54-6.86 21.89-8.18 3.36-1.33-1.67-.08-1.74.23"/></g><g stroke-linecap="round"><path fill="#fff" stroke-width="0" d="M1072.782 16.255c6.06-2.68 14.42-2.22 21.32-.36 6.89 1.85 14.74 6.54 20.04 11.47s10.33 11.35 11.74 18.11-.64 15.49-3.26 22.46c-2.61 6.97-6.96 14.83-12.45 19.38-5.49 4.54-13.36 7.44-20.49 7.91-7.12.47-15.92-1.57-22.28-5.11s-12.15-9.75-15.87-16.15c-3.72-6.39-6.74-14.85-6.42-22.23.31-7.39 3.39-16.18 8.33-22.08s17.61-11.2 21.29-13.34c3.69-2.14.57.01.83.5m2.96-.9c6.75-1.84 17.7-.79 24.24 1.94 6.53 2.73 10.97 8.73 14.99 14.43 4.03 5.69 8.76 12.74 9.16 19.74.4 7.01-3.03 16.04-6.74 22.28-3.72 6.25-9.33 11.92-15.54 15.18-6.21 3.27-14.35 4.83-21.72 4.39-7.37-.43-16.84-2.51-22.51-6.99-5.67-4.49-9.17-12.83-11.5-19.89-2.34-7.06-4.31-15.69-2.49-22.46 1.81-6.77 8.19-13.27 13.38-18.16 5.18-4.88 14.61-9.53 17.72-11.13 3.1-1.61.66.65.92 1.51"/><path fill="none" stroke="#000" d="M1075.002 15.085c6.33-2.62 15.8-1.48 22.76.71 6.97 2.19 14.43 6.79 19.04 12.42 4.61 5.64 7.84 14.04 8.64 21.39.81 7.35-.88 16.33-3.83 22.73-2.96 6.39-7.86 11.79-13.88 15.64-6.02 3.86-14.84 7.37-22.23 7.51-7.38.13-16.11-2.68-22.1-6.69-5.99-4.02-11.05-10.54-13.85-17.41-2.8-6.88-3.92-16.7-2.95-23.83.96-7.13 3.69-13.72 8.74-18.97s17.77-10.3 21.55-12.51c3.79-2.2 1.07-1.13 1.17-.72m10.71-.44c6.66-.32 14.36 2.6 20.21 6.52 5.85 3.93 12.33 10.47 14.88 17.04 2.56 6.56 1.9 15.02.46 22.36s-4.14 16.07-9.1 21.68c-4.97 5.61-13.7 10.5-20.7 11.99s-14.76-.7-21.33-3.05c-6.56-2.35-13.66-5.53-18.06-11.05-4.4-5.51-7.35-14.73-8.34-22.07-.98-7.34-.78-15.8 2.45-21.95 3.23-6.16 10.76-11.46 16.92-14.98 6.16-3.51 16.58-4.97 20.04-6.12 3.47-1.14.51-1.43.75-.76"/></g><g stroke-linecap="round"><path fill="#fff" stroke-width="0" d="M1112.95 18.765c5.81-3.17 15.22-3.7 22.6-2.97 7.39.73 16.26 2.99 21.7 7.34 5.45 4.35 8.88 11.66 10.95 18.78 2.08 7.13 3.11 16.75 1.49 23.96-1.63 7.21-5.92 14.51-11.24 19.3-5.32 4.8-13.49 8.4-20.66 9.48-7.18 1.07-15.5-.06-22.4-3.02-6.9-2.95-14.79-8.49-19.02-14.7-4.22-6.21-6.47-15.3-6.33-22.55.14-7.26 2.76-14.77 7.2-20.99s15.18-13.35 19.43-16.34c4.26-2.99 5.76-2.27 6.08-1.6m18.93.51c6.66 1.04 12.06 6.58 16.94 11.58s10.84 11.52 12.34 18.4-.62 16.14-3.35 22.88c-2.72 6.73-7.36 13.3-13 17.51s-13.44 7.06-20.84 7.72c-7.4.67-17.29-.15-23.58-3.72s-10.83-11.08-14.18-17.71c-3.35-6.62-6.64-15.1-5.91-22.06s5.91-14.05 10.28-19.68 9.4-11.69 15.95-14.09c6.55-2.41 19.49-.5 23.36-.34 3.87.15-.27.54-.16 1.26"/><path fill="none" stroke="#000" d="M1149.46 18.705c6.39 2.77 12.86 9.32 16.36 15.72 3.49 6.41 5.16 15.31 4.61 22.71-.56 7.4-3.84 15.97-7.96 21.66-4.12 5.7-10.14 9.89-16.76 12.53s-15.72 4.54-22.96 3.33c-7.24-1.22-15.33-5.54-20.46-10.62-5.14-5.07-8.85-12.52-10.36-19.81-1.51-7.3-.98-17.18 1.3-23.97s6.66-12.6 12.39-16.78c5.74-4.19 14.02-7.97 22.03-8.35 8.02-.38 21.13 4.47 26.05 6.08 4.92 1.6 3.77 2.75 3.46 3.55m-29.44-10.4c6.72-1.29 16.68.79 22.84 4.11 6.17 3.31 10.79 9.23 14.15 15.79 3.35 6.55 6.47 16 5.96 23.54s-4.73 16.18-9.03 21.7c-4.3 5.53-10.29 8.93-16.76 11.43s-15.11 4.99-22.06 3.6c-6.94-1.38-14.25-6.68-19.61-11.91-5.36-5.24-10.95-12.75-12.55-19.5-1.59-6.75.56-14.39 2.99-21.01s6-14.01 11.59-18.72c5.58-4.72 18.12-8.37 21.93-9.58 3.8-1.2.94 1.69.89 2.37"/></g><g stroke-linecap="round"><path fill="#fff" stroke-width="0" d="M1163.298 17.905c6.47-3.1 16.6-4.54 23.58-3.28 6.97 1.27 13.24 5.51 18.27 10.87 5.04 5.35 10.11 13.93 11.93 21.25 1.83 7.32 1.49 15.92-.98 22.67-2.48 6.75-8.02 13.59-13.87 17.85-5.84 4.25-13.7 7.26-21.2 7.7-7.5.45-17.24-1.37-23.81-5.04-6.57-3.68-12.4-10.62-15.59-17.01-3.2-6.39-4.1-14.31-3.6-21.34.51-7.02 1.54-14.72 6.6-20.84 5.07-6.11 19.35-13.43 23.8-15.84 4.44-2.4 2.76.65 2.87 1.4m15.19.1c6.68.96 16.34 4.85 21.37 9.95s7.61 13.5 8.82 20.65c1.21 7.14.99 15.53-1.56 22.21s-7.61 13.45-13.76 17.87c-6.14 4.41-15.84 8.37-23.1 8.63-7.26.27-14.22-3.13-20.46-7.05-6.24-3.93-13.8-10.26-16.96-16.5-3.17-6.25-2.74-13.84-2.02-20.97.71-7.14 2-16.18 6.28-21.83 4.29-5.65 12.42-10.02 19.43-12.06s18.63-.28 22.63-.19c4 .08 1.34.18 1.35.69"/><path fill="none" stroke="#000" d="M1160.838 17.505c5.99-3.28 14.93-3.78 21.98-2.57 7.06 1.2 14.71 5.18 20.34 9.78s11.28 10.83 13.46 17.82c2.17 6.99 1.78 16.91-.4 24.11-2.19 7.19-7.29 14.33-12.73 19.06-5.43 4.73-12.83 8.54-19.89 9.33-7.07.79-15.73-1.61-22.5-4.6-6.76-2.99-14.16-7.48-18.09-13.36s-5.55-14.46-5.48-21.93c.08-7.47 1.48-16.32 5.94-22.89s16.63-14.02 20.83-16.52c4.21-2.51 4.17.55 4.42 1.47m14.61-3.23c6.69.18 13.4 4.06 18.8 8.93s11.47 13.06 13.59 20.29 1.06 16.4-.86 23.09c-1.91 6.68-5.54 12.23-10.63 17-5.1 4.77-12.91 10.34-19.92 11.61-7.01 1.26-15.3-.98-22.15-4.03-6.85-3.04-14.91-8.52-18.94-14.23s-5.06-12.97-5.24-20.03c-.19-7.07.51-15.85 4.13-22.35 3.63-6.5 10.83-13.54 17.62-16.66 6.8-3.11 19.56-1.56 23.16-2.02s-1.24-1.38-1.54-.74"/></g><g stroke-linecap="round"><path fill="#fff" stroke-width="0" d="M1015.386 53.358c6.75.57 13.29 5.36 18.38 10.66 5.08 5.31 10.23 13.84 12.13 21.15 1.89 7.3 1.64 15.91-.76 22.69-2.41 6.77-7.89 13.66-13.69 17.98-5.8 4.31-13.62 7.4-21.12 7.92-7.5.51-17.26-1.22-23.86-4.83s-12.49-10.5-15.75-16.85c-3.26-6.36-4.24-14.25-3.81-21.29.43-7.03 2.01-14.96 6.38-20.92 4.38-5.95 12.7-12.37 19.84-14.83s18.81-.01 23.02.08c4.2.08 2.24-.29 2.22.42m-6.9-3.1c7.03-.05 14.12 4.45 19.72 9 5.61 4.55 11.36 11.44 13.91 18.31 2.54 6.87 3.32 15.6 1.36 22.93-1.96 7.34-7.8 16.1-13.12 21.08-5.32 4.97-11.64 7.71-18.8 8.8-7.15 1.09-17.48.26-24.13-2.27-6.65-2.52-11.52-6.98-15.76-12.86-4.23-5.89-9.1-15.16-9.65-22.43s2.53-15.17 6.35-21.19c3.81-6.02 9.83-11.76 16.56-14.94 6.72-3.17 19.92-3.44 23.8-4.11 3.87-.67-.41-.53-.55.07"/><path fill="none" stroke="#000" d="M995.456 54.768c6.37-2.18 15.3-1.21 22.36.83 7.07 2.04 15.25 5.78 20.01 11.39 4.77 5.6 7.85 14.8 8.59 22.23s-1.05 15.84-4.15 22.35-8.39 13.17-14.45 16.72c-6.07 3.55-14.51 4.69-21.92 4.56-7.42-.13-16.55-1.51-22.57-5.34-6.02-3.82-10.78-10.73-13.57-17.6-2.8-6.87-4.32-16.26-3.22-23.63s4.5-15.4 9.82-20.61c5.33-5.21 18.03-8.93 22.11-10.66s2.22-.22 2.38.28m.85-2.78c6.64-.94 16.84 2.22 23.22 5.9s11.45 10.19 15.04 16.19c3.58 5.99 6.55 12.63 6.46 19.79-.1 7.16-2.94 17.21-7.04 23.19s-10.63 10.18-17.58 12.68c-6.95 2.49-17.01 3.4-24.13 2.29-7.11-1.11-13.28-4.09-18.54-8.94-5.27-4.86-11.22-12.82-13.06-20.21s-.68-17.32 2-24.14 8.45-12.34 14.06-16.76c5.61-4.43 16.3-8.53 19.61-9.8s.19 1.26.23 2.18"/></g><g stroke-linecap="round"><path fill="#fff" stroke-width="0" d="M985.557 104.125c5.82-2.74 15.26-4.01 21.4-2.55 6.13 1.45 11.48 5.98 15.42 11.28s7.66 13.79 8.23 20.5c.57 6.7-1.31 14.38-4.83 19.75-3.51 5.36-10.15 10.23-16.25 12.41-6.1 2.19-13.85 2.49-20.36.69s-14.45-6.22-18.68-11.48c-4.24-5.26-6.71-13.6-6.72-20.08-.01-6.49 2.54-13.47 6.67-18.84s14.17-10.93 18.09-13.36 5.21-1.79 5.44-1.22m12.61 1.18c5.92.99 10.65 6.29 14.73 10.98 4.07 4.69 9.11 10.94 9.73 17.17.63 6.22-2.57 14.66-6 20.18s-8.84 10.48-14.57 12.95c-5.72 2.48-13.34 3.09-19.8 1.89s-14.75-4.21-18.97-9.09-5.81-13.55-6.33-20.2c-.53-6.64-.26-14.41 3.17-19.68 3.43-5.26 11.54-9.49 17.42-11.9 5.88-2.4 14.77-2.33 17.85-2.53 3.08-.19.62.63.62 1.37"/><path fill="none" stroke="#000" d="M986.257 103.295c5.84-2.5 15.31-3.35 21.61-1.35s12.49 7.9 16.17 13.35c3.69 5.46 5.87 12.92 5.95 19.38s-1.81 14.35-5.48 19.36c-3.66 5.01-10.2 8.66-16.51 10.71-6.32 2.05-15.21 3.35-21.39 1.6s-11.93-6.66-15.68-12.1c-3.76-5.44-6.76-13.84-6.88-20.54-.11-6.7 1.86-14.53 6.2-19.67s16.03-9.32 19.83-11.18 2.82-.37 2.97.02m.18-2.55c5.94-.76 15.42 2.38 20.93 6.03 5.52 3.65 9.64 10.19 12.18 15.85s4.23 11.86 3.08 18.1c-1.15 6.25-5.24 15.01-9.98 19.37-4.75 4.37-11.82 6.4-18.48 6.82-6.67.42-15.92-1.25-21.49-4.27-5.57-3.01-9.32-8.04-11.92-13.82-2.6-5.79-4.95-14.22-3.69-20.87 1.26-6.66 6.12-14.82 11.26-19.07 5.14-4.24 16.56-5.21 19.59-6.43 3.04-1.22-1.21-1.4-1.37-.87"/></g><g stroke-linecap="round"><path fill="#fff" stroke-width="0" d="M1025.492 90.11c6.37-3.06 15.92-3.96 23.16-2.87 7.23 1.08 14.87 4.65 20.26 9.4 5.39 4.74 10.39 12.12 12.08 19.04 1.69 6.93.39 15.74-1.95 22.48s-6.82 13.3-12.09 17.95c-5.28 4.66-12.34 8.84-19.56 9.98s-17.28.09-23.76-3.13c-6.49-3.21-11.41-10.07-15.16-16.16-3.75-6.08-7.35-13.2-7.34-20.33s1.9-16 7.41-22.43 19.97-13.18 25.66-16.16 8.36-2.32 8.47-1.73m-14.98 1.76c6.46-2.98 16.17-3.31 23.07-1.52 6.91 1.79 13.22 7.13 18.36 12.23s10.89 11.53 12.47 18.38c1.58 6.84-.59 15.65-3.01 22.69-2.41 7.04-5.64 15.09-11.48 19.53-5.85 4.45-16.09 6.59-23.59 7.15-7.49.55-15.12-.65-21.37-3.84s-12.86-9.08-16.14-15.32c-3.27-6.24-4.11-14.76-3.5-22.11.62-7.35 3-16.09 7.21-21.99 4.21-5.89 14.95-11.37 18.04-13.37s.25.8.49 1.37"/><path fill="none" stroke="#000" d="M1042.622 85.45c7.01-.42 15.31 3.9 21.19 8.14s11.13 10.69 14.08 17.3c2.95 6.6 4.63 15.43 3.61 22.33-1.03 6.89-4.77 13.62-9.76 19.03-4.98 5.41-13.19 11.27-20.16 13.42-6.98 2.15-14.87 1.83-21.7-.53-6.82-2.37-14.55-7.9-19.28-13.65-4.73-5.76-8.22-14-9.09-20.91-.86-6.9.78-14.28 3.89-20.53s8.23-13.01 14.79-16.97c6.56-3.97 20.16-5.94 24.56-6.83 4.4-.88 2.02.99 1.83 1.52m-19.09 1.48c6.34-2.99 16.56-4.75 23.86-3.02 7.31 1.73 14.89 8 19.95 13.4s9.34 12.06 10.41 19.03c1.07 6.96-1.23 15.77-4.01 22.75-2.79 6.99-6.69 14.86-12.7 19.15-6 4.29-15.91 6.68-23.32 6.58-7.41-.09-15.18-3.46-21.13-7.15-5.96-3.68-11.25-8.51-14.59-14.97s-6.02-16.56-5.46-23.77 4.29-14.12 8.81-19.5 15.16-10.46 18.3-12.77-.02-1.5.52-1.11"/></g><g stroke-linecap="round"><path fill="#fff" stroke-width="0" d="M1061.745 90.87c6.01-3.54 14.92-4.8 22.07-4.01s15.54 4.2 20.85 8.75c5.3 4.54 9.01 11.84 11 18.54s2.54 14.69.93 21.65-5.21 15.06-10.6 20.12c-5.38 5.06-14.65 9.17-21.71 10.24-7.07 1.08-14.11-1.01-20.67-3.8-6.55-2.79-14.53-7.05-18.66-12.92s-6.07-15.13-6.13-22.3c-.05-7.17 1.94-14.32 5.81-20.69 3.87-6.36 14.25-14.86 17.42-17.51 3.16-2.65 1.42.91 1.54 1.6m6.25-3.79c6.36-1.88 14.17.2 20.99 2.58 6.81 2.37 15.44 6.21 19.9 11.67s6.1 13.64 6.87 21.07c.76 7.43 1.08 17.01-2.3 23.51-3.39 6.49-11.48 11.84-18.01 15.44s-14.08 6.27-21.17 6.17c-7.09-.11-15.73-2.71-21.38-6.8-5.65-4.1-9.97-10.94-12.52-17.77-2.54-6.83-3.99-16.05-2.72-23.21 1.27-7.17 5.33-14.68 10.34-19.78 5.02-5.09 16.45-8.95 19.73-10.78 3.28-1.82.08-.54-.02-.17"/><path fill="none" stroke="#000" d="M1087.305 87.92c6.67 1.21 14.16 5.85 19.27 10.99 5.11 5.13 9.79 13 11.38 19.82s.9 14.36-1.85 21.13c-2.76 6.76-8.83 14.94-14.66 19.44-5.82 4.49-13.18 7.29-20.31 7.52s-16.09-2.4-22.48-6.14-12.49-10.2-15.84-16.3c-3.36-6.11-4.87-13.4-4.29-20.32.59-6.92 3.41-15.29 7.81-21.2 4.39-5.91 11.45-11.81 18.58-14.26 7.14-2.46 19.95-.42 24.22-.48 4.26-.06 1.65-.43 1.4.12m-5.36-2.66c7.16.57 15.32 6.86 20.77 11.87s10.33 11.34 11.94 18.18c1.61 6.85-.01 15.71-2.27 22.88-2.26 7.18-5.63 15.45-11.29 20.19-5.67 4.73-15.35 7.75-22.72 8.21-7.36.46-15.27-2.25-21.49-5.44-6.22-3.2-11.99-7.55-15.82-13.74-3.82-6.19-7.16-16.14-7.16-23.39s3.1-14.4 7.17-20.11 10.59-11.06 17.25-14.16c6.67-3.1 18.69-3.89 22.74-4.43 4.04-.54 1.25.21 1.54 1.19"/></g><g stroke-linecap="round"><path fill="#fff" stroke-width="0" d="M1132.824 87.59c6.79.93 14.99 5.81 19.77 10.94 4.79 5.12 7.68 12.91 8.92 19.81 1.23 6.89.84 14.86-1.51 21.58s-6.73 14.29-12.62 18.75c-5.88 4.45-15.51 7.7-22.67 8-7.15.29-14.04-2.73-20.25-6.21-6.21-3.49-13.55-8.45-17.01-14.72-3.47-6.27-4.5-15.79-3.77-22.93.72-7.14 3.78-14.09 8.13-19.94 4.34-5.84 10.6-12.74 17.92-15.13 7.33-2.39 21.39.49 26.02.81s2.11.5 1.76 1.12m-27.64-.4c6.3-2.67 17.03-3.77 24.01-2.2 6.97 1.57 12.85 6.09 17.83 11.61 4.97 5.51 10.84 14.32 12.04 21.48 1.19 7.16-1.81 14.84-4.85 21.48-3.03 6.64-7.57 14.02-13.36 18.36-5.8 4.34-14.45 7.33-21.41 7.68-6.96.34-14.33-1.81-20.37-5.61-6.05-3.81-12.6-10.71-15.91-17.23-3.32-6.51-4.79-14.84-3.99-21.86s4.28-14.59 8.8-20.28c4.52-5.7 15.45-11.58 18.33-13.9 2.87-2.31-1-.57-1.09.01"/><path fill="none" stroke="#000" d="M1108.234 89.71c6.22-3.01 16.01-3.19 23.19-2 7.18 1.2 14.89 4.11 19.89 9.16 4.99 5.04 8.49 13.88 10.11 21.11 1.62 7.24 1.96 15.75-.39 22.32-2.35 6.56-7.92 12.9-13.71 17.07s-13.9 7.09-21.03 7.96c-7.13.88-15.4.38-21.76-2.71-6.37-3.09-12.92-9.39-16.44-15.83-3.52-6.45-5.11-15.57-4.7-22.84.41-7.28 1.87-14.48 7.18-20.8s19.35-14.4 24.68-17.12c5.34-2.71 7.06.18 7.34.82m14.11 2.24c6.81 1.84 14.44 6.42 18.69 11.96 4.24 5.54 6.1 13.78 6.76 21.28s.56 17.14-2.83 23.73c-3.39 6.58-11.05 12.52-17.5 15.77s-14.25 4.08-21.2 3.72c-6.96-.36-14.54-1.67-20.53-5.86-5.98-4.2-12.5-12.58-15.39-19.32s-3.31-14.28-1.95-21.12c1.37-6.84 5.13-14.43 10.13-19.94 5-5.52 12.51-11.2 19.87-13.14 7.35-1.94 20.13.87 24.27 1.5 4.13.63 1.06 1.77.53 2.28"/></g><g stroke-linecap="round"><path fill="#fff" stroke-width="0" d="M1182.271 88.21c6.45 1.4 12.74 6.89 17.21 12.2 4.46 5.31 8.36 12.54 9.58 19.67 1.23 7.13.85 16.39-2.24 23.13-3.1 6.74-10.28 13.57-16.32 17.29-6.05 3.72-12.81 5.05-19.94 5.04s-16.71-1.24-22.83-5.08c-6.11-3.85-11.05-11.44-13.87-17.97s-4.08-13.98-3.06-21.23c1.03-7.24 4.47-16.75 9.21-22.25 4.75-5.51 11.06-9.5 19.28-10.79s23.84 1.4 30.04 3.04 7.49 6.06 7.17 6.81m-33.97-11.35c6.57-2.18 14.1-.93 20.9 1.87s15.69 9.08 19.89 14.94c4.19 5.86 5.1 13.06 5.29 20.23s-.79 16.25-4.16 22.78c-3.37 6.52-9.95 12.87-16.05 16.37-6.11 3.49-13.54 5.29-20.57 4.6s-15.78-4.32-21.6-8.75c-5.83-4.42-10.92-11.18-13.36-17.8s-2.85-14.82-1.28-21.93c1.58-7.11 5.86-15.36 10.74-20.73s15.52-9.76 18.57-11.47c3.04-1.72-.7.41-.29 1.2"/><path fill="none" stroke="#000" d="M1185.151 89.79c6.68 1.79 13.65 6.68 17.65 12.58 4.01 5.89 6.07 15.37 6.39 22.79.33 7.42-.89 15.7-4.42 21.71-3.54 6.02-10.3 11.32-16.79 14.39s-15.03 4.46-22.16 4.03c-7.12-.43-14.94-2.43-20.59-6.62-5.66-4.18-11-11.51-13.33-18.49-2.34-6.98-2.37-16.32-.66-23.4 1.7-7.08 5.79-13.97 10.89-19.08 5.1-5.12 12.16-10.41 19.71-11.63s20.74 3.32 25.61 4.29c4.86.98 3.68.97 3.59 1.57m-36.13-3.06c5.88-3.35 13.75-3.85 20.86-2.32 7.1 1.52 16.52 6.44 21.79 11.48 5.27 5.05 8.16 12.15 9.83 18.78 1.66 6.63 2.12 14.15.16 21.02-1.95 6.88-6.21 15.65-11.9 20.24-5.7 4.59-14.86 6.48-22.26 7.29-7.39.81-15.61.49-22.12-2.44s-13.21-8.65-16.95-15.13c-3.74-6.47-6.03-16.25-5.51-23.72s4.16-15.46 8.64-21.11c4.49-5.66 15.63-10.42 18.28-12.81s-2.16-2.07-2.37-1.53"/></g><g stroke-linecap="round"><path fill="#fff" stroke-width="0" d="M1208.382 11.23c6.05.88 13.57 5.53 17.55 10.36 3.97 4.83 5.94 12.35 6.29 18.61s-1.13 13.41-4.21 18.94c-3.07 5.52-8.25 11.48-14.24 14.2-6 2.73-15.49 3.73-21.73 2.15s-11.57-6.81-15.73-11.64c-4.15-4.83-8.56-11-9.2-17.33-.65-6.34 1.89-15.19 5.35-20.69 3.46-5.49 8.99-9.75 15.38-12.26s18.68-2.83 22.97-2.79c4.3.04 3.12 2.41 2.79 3.02m-20.17-3.45c5.68-1.59 12.78.59 18.74 3.06 5.96 2.48 13.65 6.5 17.03 11.79 3.38 5.28 3.69 13.23 3.26 19.91-.42 6.69-1.53 15.2-5.8 20.19-4.26 5-13.23 8.28-19.79 9.8-6.56 1.51-13.71 1.5-19.57-.73s-12.43-7.22-15.59-12.64c-3.15-5.42-4-13.28-3.36-19.87.65-6.58 3.11-14.61 7.21-19.61 4.1-5.01 14.44-8.89 17.4-10.42 2.96-1.52.23.79.36 1.26"/><path fill="none" stroke="#000" d="M1213.312 11.92c5.65 1.99 11.09 9.05 14.42 14.79 3.32 5.73 6 13.41 5.53 19.61-.47 6.19-4.06 12.93-8.36 17.57-4.3 4.65-11.2 8.57-17.42 10.3-6.23 1.72-14 2.27-19.93.04s-12.33-7.75-15.64-13.43c-3.31-5.69-4.76-14.19-4.21-20.69.56-6.49 3.42-13.27 7.52-18.29s10.34-10.5 17.08-11.81c6.74-1.3 18.87 3.05 23.36 3.97 4.48.91 3.59 1.06 3.54 1.54m-31.15-3.41c5.26-2.95 12.43-3.24 18.71-1.48s14.79 7 18.97 12.04 5.71 12.12 6.09 18.21c.38 6.08-.75 12.75-3.81 18.29s-8.51 12.41-14.57 14.94c-6.05 2.53-15.24 1.72-21.75.24-6.52-1.48-13.06-4.5-17.32-9.12-4.26-4.63-7.68-11.91-8.24-18.64s1.21-15.95 4.86-21.74c3.66-5.78 14.06-11.17 17.08-12.98 3.03-1.81 1.16 1.75 1.06 2.13"/></g><g stroke-linecap="round"><path fill="#fff" stroke-width="0" d="M1202.065 52.908c7.1.55 16.15 5.59 21.45 10.62 5.31 5.03 8.44 12.75 10.39 19.58 1.95 6.82 3.38 14.46 1.3 21.39-2.09 6.92-8.19 15.43-13.82 20.15-5.62 4.71-12.9 7.19-19.93 8.12-7.04.94-15.72.7-22.27-2.54-6.56-3.25-13.26-10.69-17.06-16.93-3.79-6.24-5.71-13.36-5.71-20.49 0-7.14 1.83-16.32 5.72-22.33 3.9-6.02 9.66-11.45 17.67-13.76 8-2.32 24.12-.69 30.39-.13s7.28 2.88 7.25 3.48m-24.79-5.62c6.66-1.29 13.59-.28 19.79 2.87 6.21 3.15 13.57 9.62 17.43 16.01 3.87 6.39 5.72 15.05 5.77 22.34.06 7.29-1.54 15.58-5.44 21.41-3.9 5.84-11.24 10.83-17.96 13.58-6.73 2.76-15.3 4.01-22.38 2.94s-14.76-4.41-20.09-9.35c-5.33-4.95-9.79-13.04-11.88-20.32-2.1-7.27-2.63-16.42-.69-23.35s6.44-13.79 12.31-18.23 19.1-6.9 22.89-8.43c3.79-1.52.14-1.42-.15-.73"/><path fill="none" stroke="#000" d="M1209.425 56.428c6.61 2.09 14.57 7.8 18.97 13.36s6.99 13.03 7.42 20-1.42 15.25-4.83 21.84c-3.42 6.59-9.32 13.99-15.65 17.72-6.34 3.73-15.16 5.34-22.34 4.65s-14.98-4.38-20.76-8.79-11.27-10.74-13.92-17.66c-2.64-6.91-3.41-16.68-1.92-23.83 1.48-7.16 5.54-13.99 10.83-19.1 5.28-5.11 12.52-10.59 20.87-11.59 8.35-.99 23.73 3.82 29.22 5.59 5.49 1.78 4.1 4.39 3.73 5.06m-31.17-8.68c6.62-1.55 14.11-.41 20.59 2.07 6.47 2.47 13.91 6.8 18.25 12.78 4.34 5.97 7.68 15.84 7.77 23.07s-3.28 14.16-7.24 20.31c-3.96 6.16-10.02 13.2-16.53 16.63-6.52 3.43-15.38 5.06-22.56 3.93s-15.28-5.88-20.54-10.72c-5.26-4.83-9.23-11.73-11.04-18.29-1.8-6.56-1.34-13.96.21-21.07 1.54-7.11 4.16-16.65 9.04-21.6 4.87-4.95 16.47-7.09 20.2-8.12 3.73-1.04 1.69 1.11 2.18 1.91"/></g><g stroke-linecap="round"><path fill="#fff" stroke-width="0" d="M1206.012 102.035c5.87.63 13.45 4.39 18.04 9.14s8.85 12.75 9.51 19.35c.67 6.6-2.39 14.8-5.53 20.26-3.13 5.47-7.49 9.84-13.27 12.54-5.79 2.7-15.06 4.87-21.45 3.66-6.38-1.2-12.68-6.17-16.89-10.88-4.21-4.72-7.62-10.89-8.38-17.41s.64-16.03 3.82-21.72 8.26-10.26 15.25-12.41c7-2.15 21.17-1.33 26.71-.51 5.55.83 6.79 4.79 6.56 5.45m-26.02-7.98c5.88-1.91 12.7-.59 18.64 2.28 5.94 2.88 13.88 9.3 17 14.96 3.13 5.65 2.71 12.57 1.74 18.95s-3.34 14.34-7.54 19.34-11.58 9.25-17.65 10.66c-6.06 1.4-13.01.53-18.73-2.24-5.72-2.76-12.31-8.72-15.6-14.38s-4.86-13.31-4.13-19.57 4.18-13.14 8.51-18c4.33-4.85 14.76-9.26 17.47-11.13s-1.02-.59-1.21-.11"/><path fill="none" stroke="#000" d="M1189.272 103.575c5.72-2.73 13.83-3.38 19.97-1.8 6.15 1.58 12.87 5.89 16.9 11.27s7.04 14.24 7.26 20.99-2.35 14.31-5.96 19.5c-3.62 5.18-9.65 9.51-15.74 11.63-6.1 2.12-14.48 3.03-20.82 1.08s-13.21-7.57-17.24-12.78-6.9-12.02-6.94-18.5 1.93-14.81 6.72-20.39c4.8-5.57 17.66-10.98 22.05-13.07 4.38-2.09 4.21-.11 4.26.52m-4.46.92c5.91-1.31 12.69-.12 18.3 2.39 5.62 2.51 12.11 6.95 15.38 12.67s5.3 15.26 4.26 21.66c-1.03 6.4-5.75 12.14-10.48 16.74s-11.51 9.52-17.9 10.86-14.65.33-20.45-2.82c-5.8-3.16-11.65-10.15-14.33-16.12s-3.09-13.63-1.74-19.7c1.34-6.08 5.63-12 9.83-16.75 4.21-4.75 12.82-10.2 15.39-11.74 2.56-1.55-.42 1.42 0 2.44"/></g><g stroke-linecap="round"><path fill="#fff" stroke-width="0" d="M991.472 22.31h213.11v139h-213.11"/><path fill="none" stroke="#fff" d="M991.472 22.31h213.11m-213.11 0h213.11m0 0v139m0-139v139m0 0h-213.11m213.11 0h-213.11m0 0v-139m0 139v-139"/></g><text x="100.399" y="25.761" fill="#1e1e1e" dominant-baseline="alphabetic" font-family="Helvetica, Segoe UI Emoji" font-size="28" style="white-space:pre" text-anchor="middle" transform="translate(997.63 59.61)">A nice shade of </text><text x="100.399" y="57.961" fill="#1e1e1e" dominant-baseline="alphabetic" font-family="Helvetica, Segoe UI Emoji" font-size="28" style="white-space:pre" text-anchor="middle" transform="translate(997.63 59.61)">gold!</text><path fill="none" stroke="#000" stroke-linecap="round" d="M971.653 180.803c.67 3.36-.22 8.13-1.95 11.29s-5.06 6.42-8.44 7.67-8.48 1.12-11.82-.18c-3.35-1.3-6.48-4.44-8.25-7.62-1.78-3.18-3.02-7.94-2.39-11.44s3.4-7.32 6.17-9.55 6.92-3.72 10.45-3.83c3.53-.1 7.97.8 10.73 3.2 2.76 2.41 4.81 9.32 5.82 11.23s.55.25.27.24m.1 5.32c-.54 3.54-4.14 8.02-7.02 10.17s-6.67 3.02-10.29 2.75c-3.61-.27-8.58-1.91-11.38-4.37s-5.07-6.82-5.4-10.42c-.32-3.59 1.39-8.27 3.46-11.17 2.08-2.89 5.71-5.31 9.01-6.19s7.39-.32 10.8.92c3.42 1.24 7.96 3.51 9.67 6.5s.64 9.37.59 11.43-.55.82-.89.94M932.393 210.677c.83 2.46.61 6.34-.57 8.74-1.18 2.41-4.08 4.7-6.49 5.7-2.4 1-5.41 1.12-7.94.32-2.53-.81-5.78-2.99-7.25-5.17-1.48-2.17-1.9-5.3-1.59-7.87.31-2.56 1.57-5.58 3.43-7.53 1.85-1.94 5.08-3.97 7.72-4.15 2.65-.18 5.9 1.38 8.15 3.08s4.57 5.84 5.34 7.1c.78 1.27-.49.32-.68.47m.15 3.99c-.17 2.51-1.21 5.21-3.17 6.93-1.97 1.72-5.81 3.29-8.62 3.41-2.82.12-6.28-1.05-8.28-2.68s-3.25-4.63-3.72-7.1c-.47-2.46-.19-5.5.88-7.69 1.08-2.18 3.01-4.24 5.55-5.44 2.55-1.2 7.12-2.32 9.73-1.75 2.61.56 4.73 2.72 5.95 5.14 1.21 2.43 1.13 7.83 1.34 9.41s.1.1-.09.07"/><g stroke-linecap="round"><path fill="#fff" stroke-width="0" d="M1196.25 44.31h27.78v78.21h-27.78"/><path fill="none" stroke="#fff" d="M1196.25 44.31h27.78m-27.78 0h27.78m0 0v78.21m0-78.21v78.21m0 0h-27.78m27.78 0h-27.78m0 0V44.31m0 78.21V44.31"/></g><g stroke-linecap="round"><path fill="#fff" stroke-width="0" d="M976.328 25.325h17.13v99.11h-17.13"/><path fill="none" stroke="#fff" d="M976.328 25.325h17.13m-17.13 0h17.13m0 0v99.11m0-99.11v99.11m0 0h-17.13m17.13 0h-17.13m0 0v-99.11m0 99.11v-99.11"/></g></svg>